<?xml version="1.0" encoding="utf-8"?>
<!-- Generator: Adobe Illustrator 27.8.1, SVG Export Plug-In . SVG Version: 6.00 Build 0)  -->
<svg version="1.1" id="Layer_1" xmlns="http://www.w3.org/2000/svg" xmlns:xlink="http://www.w3.org/1999/xlink" x="0px" y="0px"
	 viewBox="0 0 1000 500" style="enable-background:new 0 0 1000 500;" xml:space="preserve">
<style type="text/css">
	.st0{fill:#FFFFFF;}
</style>
<g>
	<path class="st0" d="M232.25,206.67c0.99-2.22,2.07-4.47,3.11-6.64c3.07-6.4,7.17-14.97,8.75-22.2
		c1.93-8.81-2.21-16.29-10.55-19.08c-10.01-3.35-18.83-2.34-27.99,4c-7.91,5.47-14.06,13.14-19.34,24.14
		c-7.53,15.69-15.92,33.68-23.16,49.19c-1.91,4.08-3.8,8.16-5.72,12.24c-0.47,1.01-0.95,2.02-1.43,3.02
		c-2.54,5.31-5.17,10.8-6.44,16.84c-2.2,10.42,2.67,18.23,13.05,20.91c1.81,0.47,3.58,0.6,5.3,0.72c0.47,0.03,0.93,0.07,1.47,0.11
		c0.29,0.01,0.58,0.01,0.87,0.01c6.28,0,12.64-2.06,17.91-5.82c8.79-6.26,15.67-15.14,21.67-27.93
		c7.28-15.5,14.38-31.39,21.24-46.76L232.25,206.67z M229.87,176.45c-1.44,6.54-4.4,12.7-7.53,19.22c-1.11,2.31-2.27,4.7-3.35,7.12
		l-1.63,3.66c-6.87,15.37-13.98,31.27-21.23,46.74c-5.51,11.75-11.7,19.8-19.48,25.36c-4.07,2.91-8.97,4.48-13.82,4.4
		c-0.54-0.05-1.08-0.09-1.63-0.13c-1.41-0.11-2.62-0.19-3.63-0.45c-6.42-1.66-8.46-5.05-7.04-11.69c1.07-5.03,3.36-9.82,5.79-14.89
		c0.53-1.09,1.05-2.18,1.56-3.27l4.54-9.74c7.86-16.86,15.99-34.3,24.16-51.34c4.75-9.9,10.15-16.73,17-21.48
		c4.26-2.96,8.58-4.4,13.2-4.4c2.54,0,5.21,0.45,7.91,1.35C229.01,168.34,230.89,171.82,229.87,176.45"/>
	<path class="st0" d="M430.17,219.59c1.18-5.34-1.1-9.81-6.2-11.47c-6.11-2-11.95-1.19-17.25,2.53
		c-6.55,4.59-10.39,11.27-13.71,18.29c-5.25,11.13-10.46,22.28-15.62,33.46c-2.18,4.75-4.79,9.33-5.89,14.53
		c-1.3,6.18,1.51,10.75,7.59,12.32c1.47,0.39,2.93,0.47,4.86,0.57c3.81,0.03,7.67-1.16,11.12-3.64
		c6.68-4.83,10.86-11.57,14.24-18.88c4.44-9.58,8.89-19.17,13.11-28.85C425.13,232.22,428.67,226.32,430.17,219.59 M414.36,220.31
		c-0.9,3.3-2.46,6.56-4.11,10.01c-0.33,0.68-0.66,1.38-0.98,2.07c-2.11,4.47-4.16,9.02-6.13,13.42
		c-3.85,8.58-7.84,17.46-12.32,25.77c-3.01,5.58-6.42,8.95-10.73,10.63c-0.77,0.29-1.81,0.47-2.86,0.49
		c-3.29-0.38-4.17-1.15-4.19-1.15c-0.01-0.01-0.07-0.19-0.08-0.61c-0.03-1.27,0.27-2.64,0.88-3.95c1.88-4.07,3.73-8.15,5.58-12.22
		c5.77-12.69,11.73-25.81,18.32-38.25c2.45-4.61,5.45-7.65,9.2-9.27c2.26-0.99,4.4-1.11,6.58-0.37
		C414.52,217.23,415.14,217.44,414.36,220.31"/>
	<path class="st0" d="M818.34,207.48c-5.44-1.05-10.62-0.08-15.26,3.19c-5.31,3.75-8.98,8.88-11.75,14.6
		c-5.98,12.33-11.72,24.78-17.51,37.2c-2,4.26-4.27,8.42-5.54,13c-2,7.27,0.81,12.32,7.83,13.97c1.1,0.26,2.27,0.26,2.75,0.32
		c5.2,0.22,9.29-1.04,12.94-3.74c4.92-3.63,8.45-8.42,11.07-13.83c5.75-11.86,11.37-23.79,16.94-35.73
		c2.39-5.12,5.26-10.07,6.6-15.65C828.1,213.83,825.2,208.81,818.34,207.48 M810.36,218.51c-0.35,2.82-1.57,5.6-3.14,8.94
		c-2.25,4.8-4.49,9.61-6.72,14.42c-4.1,8.79-8.33,17.87-12.56,26.76c-2.53,5.33-5.39,9.09-8.97,11.85
		c-1.84,1.41-3.99,2.22-5.92,2.24c-3.42-0.38-4.31-1.19-4.33-1.19c-0.01-0.02-0.07-0.18-0.08-0.58c-0.02-1.3,0.29-2.7,0.91-4.02
		c1.63-3.54,3.25-7.1,4.86-10.65c5.94-13.05,12.08-26.54,18.78-39.39c2.52-4.85,5.61-7.99,9.43-9.62c2.6-1.11,4.89-1.17,7.18-0.13
		C810.08,217.27,810.49,217.45,810.36,218.51"/>
	<path class="st0" d="M583.98,220.75c1.63-6.9-1.12-11.78-7.89-13.22c-5.43-1.15-10.64-0.22-15.29,3.01
		c-5.42,3.77-9.14,8.98-11.95,14.78c-5.97,12.33-11.72,24.78-17.51,37.19c-1.96,4.18-4.18,8.26-5.44,12.75
		c-2.1,7.42,0.68,12.54,7.81,14.18c1.11,0.26,2.27,0.26,2.97,0.33c4.87,0.15,8.88-1.03,12.49-3.65c5.03-3.65,8.61-8.51,11.26-14.01
		c6.07-12.57,12.01-25.21,17.95-37.85C580.45,229.86,582.84,225.56,583.98,220.75 M568.17,218.61c-0.31,2.46-1.27,4.89-2.62,7.76
		c-2.3,4.92-4.6,9.85-6.9,14.78c-4.18,8.98-8.5,18.27-12.82,27.36c-2.67,5.62-5.66,9.51-9.42,12.25c-1.4,1.03-3.17,1.77-7.2,2.07
		c-0.76-0.02-2.6-0.25-2.73-1.9c-0.09-1.2,0.22-2.61,0.92-4.1c1.98-4.28,3.93-8.57,5.88-12.85c5.62-12.32,11.42-25.07,17.78-37.18
		c2.54-4.85,5.63-7.97,9.43-9.56c1.34-0.56,2.61-0.84,3.81-0.84c1.11,0,2.16,0.23,3.24,0.71C568,217.31,568.31,217.45,568.17,218.61
		"/>
	<path class="st0" d="M819.83,197.74c-4.38-1.93-8.85-2.91-13.3-2.91c-5.91,0-11.69,1.71-17.2,5.08
		c-7.24,4.43-13.12,11.17-17.49,20.02c-4.8,9.72-9.44,19.66-13.93,29.29c-1.21,2.59-2.41,5.17-3.61,7.75l-0.58,1.23
		c-2.51,5.41-4.89,10.51-8.7,14.31c-7.69,7.69-15.13,10.82-23.79,10.01c-5-0.47-7.43-2.78-7.86-7.5c-0.2-2.18,0.2-4.56,1.17-7.11
		c2.56-6.71,5.67-13.11,8.96-19.89c1.71-3.52,3.48-7.18,5.15-10.84l0.75-1.65c2-4.41,3.88-8.57,6.46-12.1
		c3.46-4.71,6.2-6.66,9.8-6.93c0.47-0.04,0.92-0.02,1.19,0.02c0,0.21-0.02,0.51-0.1,0.9c-0.29,1.64-0.71,3.05-1.28,4.32l-0.28,0.61
		c-0.8,1.76-1.62,3.59-2.38,5.5c-3.01,7.74,1.72,12.02,3.24,13.15c1.91,1.41,4.12,2.17,6.41,2.17c2.39,0,4.69-0.78,7.03-2.36
		c2.22-1.51,3.88-3.67,5.07-6.6l0.57-1.41c1.2-2.91,2.43-5.93,3.33-9.2c2.04-7.41,1.11-14-2.77-19.57
		c-4.02-5.78-11.15-9.1-19.56-9.1c-3.25,0-6.52,0.52-9.46,1.49c-10.52,3.47-16.79,11.52-20.59,17.27c-3.54,5.35-6.11,11-8.59,16.46
		c-0.62,1.36-1.23,2.71-1.87,4.06c-1.16,2.49-2.42,5.03-3.64,7.49c-3.26,6.58-6.62,13.39-9.03,20.75c-1.6,4.9-3.77,9.17-6.63,13.05
		c-4.04,5.48-7.69,7.54-12.63,7.1c-0.95-0.08-1.4-0.37-1.51-0.5c-0.1-0.13-0.22-0.56-0.08-1.38c0.36-2.06,0.87-3.8,1.55-5.3
		c4.24-9.31,8.48-18.63,12.72-27.94c2.85-6.25,5.7-12.5,8.54-18.75l1.5-3.29c2.05-4.49,4.17-9.14,6.18-13.78
		c2.54-5.86,0.28-11.96-5.37-14.51c-1.47-0.66-3-0.99-4.57-0.99c-3.95,0-7.57,2.15-9.71,5.74c-0.55,0.93-0.94,1.82-1.26,2.53
		l-7.81,17.1c-5.56,12.17-11.12,24.33-16.7,36.49c-0.46,1.01-0.92,2.03-1.38,3.04c-2.29,5.1-4.46,9.92-7.46,14.04
		c-3.25,4.47-6.14,6.67-9.68,7.36c-0.95,0.19-1.82,0.28-2.6,0.28c-1.29,0-1.9-0.26-1.99-0.32c-0.13-0.22-0.45-1.61,0.48-4.47
		c1.74-5.32,4.22-10.41,6.83-15.81c1.47-3.04,2.99-6.17,4.39-9.39c1.19-2.74,2.5-5.43,3.89-8.27c2.67-5.48,5.43-11.14,7.35-17.35
		c2.61-8.42,1.48-16.8-3.09-22.99c-4.36-5.92-11.45-9.31-19.46-9.31c-1.91,0-3.88,0.19-5.86,0.57c-2.65,0.5-5.03,1.39-7.18,2.42
		c-1.18-0.77-2.56-1.33-4.1-1.62c-0.72-0.14-1.45-0.21-2.17-0.21c-2.42,0-6.93,0.83-9.96,6.39c-0.24,0.44-0.48,0.9-0.69,1.36
		c-1.29,2.83-2.58,5.66-3.87,8.49c-2.57,5.65-5.22,11.48-7.86,17.19c-1.65,3.56-3.29,7.12-4.91,10.69
		c-4.56,9.94-9.28,20.24-14.19,30.16c-2.91,5.88-6.04,9.52-9.9,11.35c0.23-0.42,0.45-0.84,0.67-1.28
		c6.1-11.96,11.77-24.3,17.25-36.23c1.73-3.77,3.46-7.53,5.21-11.29c1.6-3.45,2.58-6.65,3.01-9.78
		c1.89-13.94-4.72-24.11-17.68-27.17c-2.71-0.64-5.42-0.96-8.04-0.96c-8.27,0-15.91,3.12-22.69,9.27
		c-7.54,6.85-11.87,15.28-15.64,23.32c-1.83,3.91-3.64,7.82-5.44,11.75c-4.58,9.94-9.32,20.22-14.42,30.03
		c-3.66,7.04-6.99,10.74-11.47,12.78c-0.16,0.08-0.45,0.14-0.8,0.2c0.02-0.07,0.03-0.14,0.04-0.2c1.5-7.74,1.04-14.49-1.41-20.63
		c-1.16-2.91-2.85-5.46-5.03-7.6l1.21-1.37c4.64-5.29,9.25-10.54,13.86-15.8l4.24-4.83c5.35-6.08,10.87-12.38,16.26-18.6
		c4.35-5,4.2-11.42-0.34-15.59c-2.05-1.88-4.67-2.91-7.38-2.91c-2.48,0-4.88,0.82-7,2.39c-1.54-0.01-3.08-0.01-4.62-0.01h-3.75
		c-3.26,0-6.69-0.01-10.17-0.07c0.2-0.62,0.41-1.31,0.61-2.06c1.29-5.04-0.6-9.68-4.96-12.13c-1.84-1.03-3.76-1.55-5.71-1.55
		c-2.51,0-4.93,0.88-6.99,2.54c-1.5,1.21-2.7,2.79-3.66,4.8c-3.04,6.34-6.07,12.68-9.1,19.02c-8.83,18.46-17.96,37.54-26.89,56.36
		l-0.48,1.03c-1.81,3.85-3.53,7.48-5.82,10.5c-3.7,4.86-6.92,6.92-11.13,7.14c-0.21,0.01-0.42,0.02-0.63,0.02
		c-1.44,0-2.04-0.27-2.19-0.36c-0.1-0.25-0.26-1.12,0.02-2.73c0.28-1.53,0.72-2.98,1.33-4.31c5.93-13.11,12.01-26.43,17.89-39.32
		l2.7-5.92c1.17-2.58,2.35-5.14,3.53-7.72c1.37-2.98,2.74-5.96,4.1-8.94c0.35-0.78,0.59-1.5,0.75-2.02c0.05-0.16,0.1-0.33,0.16-0.5
		c2.16-5.37-0.01-10.92-5.25-13.5c-1.64-0.8-3.34-1.21-5.05-1.21c-2.75,0-5.31,1.05-7.38,3c-4.08-2.75-9.1-4.23-14.68-4.23
		c-3.23,0-6.48,0.5-9.64,1.49c-10.94,3.41-17.49,11.6-21.46,17.47c-3.64,5.38-6.24,11.08-8.75,16.59c-0.94,2.07-1.83,4.04-2.78,5.98
		c-2.03,4.19-3.98,8.46-5.86,12.58c-3.72,8.15-7.24,15.86-11.48,23.29c-3.94,6.91-7.74,9.9-13.11,10.35
		c-0.28,0.03-0.56,0.04-0.82,0.04c-2.32,0-2.33-0.51-2.33-1.53c-0.01-1.54,0.42-3.25,1.26-5.1c2.3-5.05,4.63-10.09,6.96-15.12
		c2.6-5.63,5.31-11.47,7.92-17.23c0.6-1.34,1.24-2.67,1.88-4c2.49-5.18,5.07-10.53,6.2-16.89c2.37-13.32-5.4-24.84-18.48-27.4
		c-1.92-0.38-3.86-0.57-5.74-0.57c-6.81,0-13.14,2.35-19.4,7.2c-0.39,0.3-0.78,0.61-1.16,0.93c-4.45-5.05-11.1-8.05-18.69-8.05
		c-4.28,0-8.62,0.97-12.69,2.81c-1.33-0.85-2.88-1.42-4.61-1.66c-0.54-0.08-1.08-0.11-1.6-0.11c-4.42,0-8.14,2.52-10.21,6.92
		l-0.1,0.2c-0.14,0.26-0.28,0.53-0.4,0.8l-7.43,16.21c-5.81,12.68-11.62,25.36-17.45,38.02c-0.42,0.92-0.84,1.85-1.26,2.76
		c-2.64,5.83-5.14,11.34-8.84,15.86c-3.2,3.91-6.17,5.68-9.92,5.9c-0.4,0.03-0.78,0.03-1.15,0.01c-4.6-0.76-6.5-3.06-6.53-7.91
		c-0.02-3.42,0.92-6.98,3.13-11.89c6.61-14.66,13.38-29.54,19.94-43.93c2.73-5.99,5.46-11.98,8.18-17.97
		c5.99-13.18,11.98-26.35,17.96-39.53c4.92-10.85-2.31-15.26-4.65-16.35c-1.59-0.75-3.23-1.13-4.85-1.13
		c-6.62,0-9.55,5.74-10.65,7.9c-0.23,0.45-0.46,0.91-0.68,1.36c-3.19-3.19-7.23-5.63-12.05-7.23c-11.91-3.95-24.13-2.44-35.64,4.43
		c-10.1,6.02-18.29,15.11-25.05,27.8c-6.87,12.91-13.06,26.31-19.04,39.28c-2.65,5.74-5.38,11.68-8.14,17.46
		c-0.82,1.73-1.66,3.44-2.5,5.16c-3.47,7.06-7.06,14.37-9.24,22.52c-4.64,17.32,1.09,31.96,14.96,38.23
		c11.25,5.08,23.02,5.35,34.16,0.77c6.43-2.64,11.63-6.6,16.11-11.14c4.1,7.51,10.79,11.01,16.65,12.63
		c1.91,0.53,3.85,0.93,5.78,1.22c0.81,0.12,1.63,0.1,2.44-0.06c5.8,0.04,11.49-1.58,16.88-4.89c7.12-4.37,12.95-10.66,17.84-19.23
		c3.85-6.73,6.94-13.76,9.94-20.56c1.65-3.76,3.36-7.64,5.14-11.34c1.18-2.45,2.26-4.94,3.31-7.33c2.54-5.85,4.95-11.38,8.55-15.97
		c4.24-5.41,7.78-7.88,12.21-8.55c1.49-0.22,2.73,0,3.18,0.53c0.33,0.39,0.57,1.33,0.3,2.83c-0.26,1.49-0.81,3.09-1.78,5.21
		l-9.92,21.64c-6.23,13.56-12.45,27.12-18.66,40.69l-0.14,0.3c-3.03,6.48-0.7,10.46,1.78,12.66c1.98,1.75,4.39,2.67,6.97,2.67
		c2.25,0,4.51-0.7,6.89-2.15c3.62-2.21,5.11-5.5,6.09-7.68l6.04-13.14c5.8-12.6,11.59-25.19,17.4-37.79
		c0.54-1.15,1.05-2.32,1.57-3.48c2.21-4.92,4.29-9.58,7.24-13.49c4.22-5.62,7.96-8.25,12.48-8.79c0.28-0.04,0.56-0.05,0.85-0.05
		c1.47,0,2.36,0.43,2.6,0.72c0.23,0.26,0.35,1.11,0.13,2.41c-0.35,2.02-1.23,4.1-2.04,5.85c-1.52,3.28-3.05,6.55-4.57,9.81
		c-3.11,6.67-6.34,13.57-9.44,20.41c-0.6,1.34-1.23,2.64-1.87,3.96c-2.51,5.22-5.1,10.62-6.13,17.08
		c-1.66,10.33,2.37,19.82,10.27,24.18c7.09,3.92,15.18,4.58,23.48,1.91c4.16-1.33,7.65-3.42,10.59-5.72c1,1.03,2.1,1.93,3.3,2.71
		c4.61,2.99,10.13,4.58,15.96,4.58c6.39,0,12.73-1.97,17.84-5.54c0.71-0.49,1.38-1,2.01-1.53c0.98,1.04,2.13,2.03,3.45,2.9
		c-5.85,2.38-10.84,6.5-14.9,12.33c-5.42,7.81-6.93,17.49-4.16,26.57c2.7,8.84,9.15,15.8,17.68,19.11
		c6.06,2.35,12.34,3.54,18.67,3.54c8.24,0,16.71-2.01,25.2-5.98c10.75-5.03,20.12-13.17,28.67-24.89
		c6.93-9.5,12.24-18.5,16.14-27.41c1.26,0.57,2.65,0.89,4.13,0.89c0.68,0,1.36-0.06,2.04-0.19c0.48-0.09,1.04-0.16,1.63-0.24
		c1.6-0.22,3.61-0.48,5.73-1.27c3.52-1.31,6.78-3.16,9.97-5.65c1.16,1.19,2.47,2.2,3.92,3.03c5.09,2.92,10.4,4.41,15.78,4.41
		c5.71,0,11.47-1.67,17.08-4.96c0.7-0.41,1.39-0.85,2.06-1.31c1.78,3.95,5.85,6.42,10.66,6.14c5.73-0.32,10.96-1.94,15.55-4.81
		c7.19-4.51,13.02-10.79,17.8-19.21c3.98-7.01,7.21-14.33,10.33-21.41c1.7-3.87,3.46-7.87,5.3-11.69c1.08-2.27,2.08-4.55,3.05-6.77
		c2.46-5.62,4.77-10.93,8.24-15.33c4.28-5.43,7.81-7.91,12.21-8.58c1.51-0.22,2.76-0.01,3.22,0.53c0.32,0.38,0.56,1.31,0.3,2.8
		c-0.27,1.51-0.85,3.18-1.88,5.4c-2.72,5.86-5.45,11.73-8.17,17.59c-2.86,6.17-5.72,12.33-8.58,18.49c-2,4.3-4.49,9.66-5.42,15.76
		c-1.54,10.18,2.54,19.54,10.39,23.84c7.11,3.89,15.2,4.54,23.47,1.88c3.97-1.29,7.32-3.24,10.16-5.42c1.62,1.75,3.59,3.2,6.17,4.33
		c9.39,4.11,19.2,3.48,28.36-1.84c2.67-1.54,5.01-3.39,7.11-5.36c2.09,2.26,4.59,4.11,7.49,5.55c5.82,2.89,12.02,4.36,18.44,4.36
		c5.49,0,11.29-1.08,17.24-3.22c3.69-1.33,7.2-3.14,10.7-5.55c1.48,1.84,3.24,3.34,5.31,4.51c5.03,2.85,10.28,4.3,15.6,4.3
		c5.69,0,11.41-1.65,17-4.92c7.05-4.11,12.83-10.52,17.17-19.03c6.11-11.99,11.79-24.35,17.28-36.3c1.73-3.76,3.45-7.51,5.19-11.26
		c1.27-2.73,2.24-5.77,2.96-9.3C834.3,212.5,829.27,201.9,819.83,197.74 M492.49,276.67c-2.32,18.08-10.63,33.56-21.25,47.96
		c-7.78,10.56-17.16,19.29-29.69,23.97c-9.97,3.72-20.2,4.48-30.46,1.29c-16.31-5.09-21.03-24.82-9-37
		c3.89-3.94,8.41-6.5,13.92-7.23c0.44-0.05,0.87-0.08,1.31-0.14c1.46-0.21,2.79,0.1,3,1.74c0.2,1.56-1.04,2.05-2.36,2.22
		c-3.61,0.45-7.07,1.35-10.02,3.57c-6.52,4.9-9.59,11.39-8.05,19.48c1.4,7.37,6.44,11.76,13.44,13.64
		c15.41,4.14,28.89-0.4,41.02-9.93c11.74-9.24,19.44-21.54,25.74-34.81c3.61-7.61,6.56-15.45,7.69-23.87
		c0.47-3.52,0.5-7.02-0.34-10.47c-1.26-5.2-5.17-8.22-10.93-8.56c-1.39-0.08-3.07,0.16-3.25-1.79c-0.16-1.7,1.26-2.17,2.62-2.34
		c0.82-0.1,1.18-0.64,1.64-1.17c12.61-14.66,25.22-29.31,38.19-44.38h-3.85c-5.55,0-11.1,0.06-16.64-0.02
		c-4.88-0.07-8.53-2.26-10.62-6.81c-1.04,0.18-1.04,1.12-1.35,1.76c-10.41,21.27-20.79,42.55-31.2,63.82
		c-3.75,7.66-7.8,15.1-14.5,20.72c-6.23,5.23-13.25,7.3-21.27,5.51c-6.05-1.34-8.94-5.01-10.33-13.15
		c-3.1,4.25-6.46,8.01-10.85,10.73c-7.7,4.77-19.23,3.87-24.93-1.96c-2.35-2.39-3.03-5.42-3.64-8.86
		c-3.35,4.24-6.79,7.96-11.22,10.58c-6.55,3.88-13.44,4.43-20.41,1.5c-5.83-2.45-8.4-9.2-6.76-16.6c1.57-7.08,5.18-13.33,8.15-19.84
		c4.55-10.02,9.25-19.97,13.85-29.98c1.21-2.63,2.11-5.37,2.25-8.31c0.28-5.93-3.16-10.04-9.13-10.69
		c-8.27-0.91-14.55,2.87-19.97,8.59c-3.98,4.18-6.68,9.15-9.06,14.36c-9.27,20.26-18.6,40.49-27.92,60.72
		c-0.37,0.79-0.72,1.63-1.27,2.29c-0.84,1.02-1.81,2.05-3.34,1.26c-1.61-0.84-1.1-2.3-0.62-3.43c1.88-4.33,3.91-8.59,5.86-12.88
		c7.88-17.34,15.78-34.67,23.6-52.04c1.4-3.1,2.58-6.32,2.24-9.86c-0.47-4.96-3.71-8.33-8.68-8.99c-7.36-0.97-13.37,1.87-18.61,6.74
		c-4.57,4.24-7.82,9.36-10.37,15.04c-6.28,14.03-12.55,28.07-19.19,41.94c-3.86,8.07-9.22,15.13-17.05,19.94
		c-5.82,3.58-12.11,4.47-18.67,2.68c-1.63-0.45-14.45-3.67-14.31-19.7c0.01-0.53-0.1-1.48-0.8-1.2
		c-4.2,7.11-13.32,13.67-16.44,15.78c-0.17,0.12-0.34,0.23-0.51,0.35c-0.36,0.24-0.57,0.37-0.57,0.37l-0.01-0.01
		c-1.65,1.04-3.37,1.95-5.23,2.71c-8.69,3.58-17.7,3.36-26.55-0.62c-9.62-4.34-13.32-14.55-9.9-27.32
		c1.91-7.13,5.21-13.86,8.4-20.37c0.84-1.7,1.67-3.41,2.48-5.11c2.69-5.66,5.36-11.44,7.94-17.04
		c5.77-12.51,12.65-27.41,19.23-39.75c5.83-10.95,12.78-18.72,21.24-23.77c5.8-3.46,11.74-5.22,17.63-5.22
		c3.34,0,6.88,0.38,10.23,1.5c0.2,0.07,0.4,0.15,0.6,0.22l-0.01-0.01c0,0,0.1,0.04,0.3,0.11c2.38,0.88,4.67,1.82,6.43,3.27
		c3.1,2.3,6.1,5.93,7.27,10.8c0,0.02,0.01,0.04,0.02,0.05c0.28,0.48,0.64,0.53,0.91,0.49c0.11-0.03,0.35-0.15,0.58-0.53l0.18-0.35
		l0.1-0.2l0.02-0.04l1.38-2.55c0.8-1.57,1.56-3.18,2.28-4.74c0.73-1.59,1.49-3.22,2.29-4.79c0.98-1.91,1.8-3.1,2.87-3.1
		c0.34,0,0.72,0.1,1.15,0.31c1.48,0.69,1.9,1.55,0.42,4.8c-5.81,12.81-12.54,27.58-18.36,40.39c-2.61,5.74-5.22,11.47-7.84,17.21
		c-6.42,14.09-13.06,28.66-19.52,43.02c-1.78,3.95-3.82,9.23-3.78,15.06c0.05,9.28,5.47,15.16,14.84,16.15
		c0.22,0.02,0.44,0.04,0.66,0.05c7.58,0.24,13.36-3.42,18.25-9.13c5.5-6.43,8.52-14.21,11.99-21.75
		c8.15-17.69,16.22-35.42,24.33-53.14c0.14-0.32,0.31-0.63,0.47-0.94c0.77-1.51,1.82-2.82,3.67-2.02c1.94,0.85,1.5,2.51,0.83,4.05
		c-0.51,1.17-1.05,2.34-1.82,4.05c2.4-1.82,4.26-3.35,6.23-4.73c5.44-3.83,11.47-4.71,17.8-2.99c6.03,1.64,9.41,6.41,9.92,13.51
		c1.16-0.49,1.66-1.55,2.35-2.36c4.79-5.57,10.31-10.03,17.7-11.63c7.48-1.63,15,1.44,17.91,7.32c2.14,4.32,2.02,8.83,0.67,13.32
		c-2.45,8.16-6.69,15.56-10.14,23.28c-3.74,8.38-7.64,16.68-11.38,25.05c-1.22,2.73-2.1,5.59-2.02,8.64
		c0.12,5.47,3.22,8.74,8.67,9.34c8.21,0.9,14.45-2.57,19.57-8.63c5.2-6.15,8.58-13.37,12.02-20.55
		c6.2-12.92,11.87-26.09,18.56-38.77c3.36-6.35,7.76-11.93,14.01-15.74c5.56-3.39,11.59-4.48,17.9-2.72
		c4.99,1.39,8.58,4.52,10.19,10.22c1.41-2.95,2.57-5.45,3.8-7.91c0.43-0.85,0.95-1.69,1.6-2.37c0.62-0.65,1.49-0.94,2.41-0.51
		c0.98,0.45,1.44,1.21,1.4,2.32c-0.04,1-0.46,1.85-0.86,2.72c-9.59,21.07-19.21,42.12-28.75,63.22c-1.41,3.1-2.45,6.36-2.27,9.89
		c0.24,5.07,3.35,8.25,8.63,8.82c8.54,0.93,14.87-2.87,20.15-9.13c5.55-6.6,8.76-14.5,12.44-22.13
		c10.68-22.2,21.27-44.45,31.9-66.68c0.57-1.17,1.06-2.44,2.11-3.29c0.69-0.55,1.5-1.11,2.4-0.53c0.8,0.51,1.15,1.39,0.9,2.3
		c-0.35,1.26-0.81,2.5-1.33,3.69c-2.31,5.3,0.36,10.4,6.08,10.64c8.09,0.33,16.2,0.09,24.3,0.14c1.1,0.01,1.48-0.72,2.06-1.35
		c1.08-1.18,2.47-2.18,3.88-0.97c1.54,1.33,0.32,2.73-0.66,3.86c-10.12,11.71-20.26,23.41-30.39,35.11
		c-3.91,4.52-7.82,9.03-11.89,13.72c2.75,1.2,5.32,2.39,7.19,4.67C492.71,264.75,493.26,270.62,492.49,276.67 M420.9,303.68
		c7.13-1.38,13.69-5.38,19.91-12.11c5.67-6.13,8.99-13.19,12.2-20.02l0.06-0.13c1.04-2.2,2.08-4.41,3.14-6.61
		c1.71,2.54,4.44,4.02,7.68,4.02c1.18,0,2.2-0.19,2.94-0.34c0.16-0.03,0.32-0.06,0.48-0.09c0.47-0.08,0.93-0.11,1.34-0.11
		c1.62,0,2.66,0.44,3.18,2.7c0.22,0.97,0.31,2.14,0.25,3.55c-0.32,7.96-3.33,15.59-6.53,22.65c-6.97,15.39-14.33,25.62-23.87,33.17
		c-10.77,8.52-21.15,11.32-32.33,8.67c-5.86-1.39-7.2-4.49-7.72-7.33c-0.55-2.98-0.45-6.57,4.53-10.67
		c1.38-1.14,3.46-1.54,6.72-2.09l0.14-0.03c5.69-0.96,9.34-5.65,8.87-11.38C421.81,306.13,421.46,304.84,420.9,303.68 M464.74,247.3
		c1.51-3.08,3.03-6.14,4.53-9.17c2.09-4.24,4.19-8.48,6.27-12.72c1.38-2.82,2.76-5.62,4.17-8.46c3.48,1.43,6.97,1.76,9.84,1.8
		c-8,9.45-15.64,18.3-23.12,26.81l-0.33,0.38c-0.41,0.47-0.94,1.08-1.27,1.37H464.74 M545.34,293.21
		c-6.66,2.19-13.36,1.92-19.39-2.17c-3.47-2.35-5.01-5.93-5.31-10.51c-3.41,4.35-6.83,7.98-11.17,10.63
		c-3.36,2.05-7.01,3.14-10.93,3.27c-1.33,0.04-2.54-0.28-2.7-1.85c-0.15-1.51,1-1.99,2.2-2.07c11.22-0.77,17.38-8.28,22.34-17.08
		c6.74-11.96,11.91-24.71,17.86-37.07c3.8-7.87,7.01-16.06,12.72-22.86c5.6-6.68,12.32-11.11,21.42-10.98
		c12.89,0.19,19.32,8.92,15.61,21.35c-2.22,7.4-6.08,14.1-9.24,21.1c-4.57,10.11-9.17,20.22-14.25,30.08
		C560.3,283.19,554.49,290.2,545.34,293.21 M831.18,220.97c-0.58,2.85-1.41,5.61-2.63,8.21c-7.15,15.36-14.14,30.81-21.68,45.98
		c-4.04,8.15-9.93,15.01-18.97,18.02c-6.67,2.22-13.36,1.99-19.4-2.07c-4.14-2.79-5.5-7.08-5.35-12.59c-5.37,5.92-11.13,10.35-18,13
		c-10.13,3.9-20.29,4.65-30.06-1.26c-4.19-2.54-6.14-5.71-8.16-12.68c-3.5,5.32-7.49,10.06-12.89,13.4
		c-5.66,3.51-11.75,4.43-18.15,2.52c-6.01-1.79-9-5.74-9.44-12.65c-1.14,1.33-2.02,2.41-2.95,3.44c-5.15,5.69-11.09,10-19.15,10.13
		c-13.06,0.22-19.37-8.24-15.47-20.75c2.74-8.79,7.34-16.79,11.08-25.15c3.42-7.66,7.06-15.21,10.52-22.86
		c1.33-2.95,2.06-6.04,2.02-9.37c-0.05-4.78-4.18-8.48-8.96-9.05c-7.28-0.88-13.19,1.95-18.36,6.73c-4.64,4.29-7.9,9.51-10.47,15.28
		c-6.23,13.96-12.48,27.92-19.09,41.7c-3.86,8.06-9.23,15.1-17.02,19.96c-3.58,2.23-7.47,3.34-11.65,3.52
		c-0.88,0.05-1.73-0.04-2.55-0.5c-0.74-0.41-1.33-0.89-1.32-1.79c0.02-0.95,0.72-1.41,1.46-1.69c0.81-0.31,1.68-0.59,2.54-0.62
		c9.17-0.3,14.95-5.8,19.58-12.9c5.32-8.17,8.7-17.32,12.79-26.1c6.99-15.05,13.81-30.18,20.7-45.28c0.4-0.87,0.79-1.8,1.63-2.36
		c0.81-0.54,1.66-0.96,2.68-0.32c0.96,0.6,1.33,1.47,1.05,2.47c-0.39,1.4-0.97,2.75-1.64,4.6c2.18-1.51,3.95-2.82,5.8-3.99
		c4.37-2.75,9.15-3.92,14.3-3.42c9.3,0.89,14.82,8.77,12.96,18.28c-1.17,6.01-4.09,11.31-6.59,16.77
		c-5.07,11.13-10.26,22.21-15.31,33.34c-1.33,2.95-2.35,6.03-2.31,9.36c0.08,5.47,3.15,8.76,8.63,9.39
		c8.32,0.95,14.6-2.64,19.77-8.76c5.26-6.24,8.49-13.63,11.81-20.97c8.12-18,16.27-35.97,24.42-53.96c0.04-0.08,0.09-0.15,0.14-0.23
		c0.87-1.72,1.76-3.99,4.14-2.97c2.54,1.09,1.27,3.17,0.45,4.95c-9.52,20.91-19.06,41.81-28.5,62.75
		c-1.51,3.34-2.89,6.81-2.45,10.63c0.61,5.29,3.6,8.02,8.92,8.59c8.03,0.85,14.17-2.64,19.19-8.42c4.28-4.92,7.53-10.45,9.54-16.77
		c3.52-11.02,9.43-21.02,14.14-31.53c2.91-6.48,6.07-12.82,10.67-18.32c3.88-4.63,8.18-8.73,13.96-10.84
		c4.13-1.5,8.37-1.93,12.63-0.52c6.91,2.28,10.03,9,7.62,16.95c-1.08,3.58-2.7,6.99-4.1,10.46c-0.2,0.48-0.47,0.97-0.83,1.33
		c-0.92,0.94-1.9,1.98-3.39,1.16c-1.54-0.85-1.21-2.25-0.73-3.47c0.86-2.19,1.94-4.3,2.86-6.47c1.2-2.87,1.77-5.87,1.62-8.99
		c-0.18-4.16-2.56-6.67-6.69-7.06c-6.43-0.61-11.57,2.04-15.98,6.44c-3.52,3.49-6.42,7.45-8.61,11.88
		c-6.38,12.82-12.7,25.69-18.06,38.98c-1.22,3.02-1.93,6.23-1.81,9.5c0.38,9.93,6.38,14.59,15.53,15.61
		c17.71,1.97,32.78-10.19,38.94-23.08c6.4-13.4,12.54-26.93,18.95-40.32c3.78-7.9,8.42-15.26,16.1-20.02
		c7.09-4.39,14.64-5.13,22.3-1.65C829.99,207.35,832.64,213.75,831.18,220.97"/>
	<path class="st0" d="M562.49,184.92c0.39,0.06,0.77,0.09,1.15,0.09c0.2,0,0.39-0.01,0.58-0.02c2.28-0.18,4.4-0.95,6.28-2.28
		l8.05-5.65c8.98-6.32,17.97-12.64,26.93-18.99c2.59-1.83,4.29-4.49,4.8-7.49c0.47-2.79-0.18-5.58-1.81-7.85
		c-2.03-2.83-4.95-4.37-8.24-4.37c-2.42,0-4.45,0.86-5.95,1.6c-1.01,0.51-1.71,1.1-2.09,1.42l-8.8,6.17
		c-8.05,5.66-16.1,11.31-24.15,16.99c-1.15,0.81-2.63,1.95-3.88,3.55c-2.64,3.4-2.98,7.78-0.87,11.44
		C555.68,181.59,558.04,184.19,562.49,184.92 M571.11,170.87c11.39-8.03,22.78-16.08,34.18-24.1c2.12-1.49,4.07-1.14,4.19,0.7
		c-0.12,1.05-0.77,1.81-1.67,2.46c-11.47,8.06-22.95,16.14-34.41,24.22c-1.23,0.86-2.63,1.61-3.7,0.1
		C568.59,172.67,569.92,171.71,571.11,170.87"/>
	<path class="st0" d="M702.8,194.9h0.13c7.74,0,15.22-7.32,15.4-15.07c0.08-3.39-1.3-6.8-3.79-9.35c-2.45-2.51-5.77-3.95-9.11-3.95
		h-0.23c-8.11,0.16-14.99,7.09-15.1,15.16c-0.1,3.56,1.12,6.86,3.46,9.32C695.91,193.49,699.2,194.87,702.8,194.9 M712.91,174.03
		c2.26,0.08,4.25,2.21,4.25,4.5c-0.03,3.07-3.31,6.36-6.46,6.45c-2.46,0.08-4.35-1.79-4.31-4.25
		C706.43,177.53,709.93,173.92,712.91,174.03"/>
</g>
</svg>
