<?xml version="1.0" encoding="utf-8"?>
<!-- Generator: Adobe Illustrator 27.8.1, SVG Export Plug-In . SVG Version: 6.00 Build 0)  -->
<svg version="1.1" id="Layer_1" xmlns="http://www.w3.org/2000/svg" xmlns:xlink="http://www.w3.org/1999/xlink" x="0px" y="0px"
	 viewBox="0 0 1000 500" style="enable-background:new 0 0 1000 500;" xml:space="preserve">
<style type="text/css">
	.st0{fill:#FFFFFF;}
</style>
<g>
	<polygon class="st0" points="685.88,732.16 695,732.16 711.22,760.59 723.13,739.83 709.71,739.83 705.26,732.16 736.58,732.16 
		711.23,776.86 	"/>
	<path class="st0" d="M603.22,762.2c-0.53-1.15-1.25-2.12-2.13-2.87c-0.87-0.74-1.88-1.34-3-1.78c-1.1-0.43-2.23-0.81-3.38-1.12
		c-1.15-0.32-2.28-0.61-3.36-0.88c-1.06-0.26-2.03-0.6-2.88-1c-0.82-0.39-1.48-0.89-1.97-1.51c-0.47-0.59-0.72-1.38-0.72-2.36
		c0-1.06,0.17-1.95,0.51-2.65c0.34-0.7,0.79-1.26,1.35-1.67c0.56-0.42,1.22-0.72,1.95-0.9c0.74-0.18,1.51-0.28,2.28-0.28
		c1.89,0,3.45,0.53,4.65,1.56c1.14,0.98,1.29,1.48,1.83,3.32l0.14,0.48h4.14l-0.05-0.55c-0.14-1.58-0.15-1.79-0.7-3.11
		c-0.57-1.37-1.35-2.53-2.3-3.44c-0.96-0.91-2.1-1.59-3.39-2.01c-1.28-0.42-2.68-0.63-4.17-0.63c-1.33,0-2.64,0.2-3.9,0.61
		c-1.27,0.4-2.42,1.03-3.41,1.85c-1,0.83-1.81,1.9-2.41,3.18c-0.6,1.28-0.9,2.81-0.9,4.55c0,1.59,0.27,2.92,0.81,3.97
		c0.54,1.04,1.26,1.92,2.16,2.61c0.88,0.68,1.9,1.23,3.01,1.63c1.09,0.4,2.23,0.74,3.38,1.03c1.11,0.28,2.24,0.57,3.34,0.87
		c1.06,0.29,2.02,0.67,2.85,1.11c0.81,0.44,1.46,1,1.96,1.69c0.48,0.67,0.72,1.58,0.72,2.68c0,1.18-0.2,2.15-0.6,2.9
		c-0.4,0.74-0.93,1.34-1.58,1.77c-0.66,0.43-1.41,0.75-2.23,0.93c-1.92,0.42-3.83,0.36-5.55-0.18c-0.95-0.3-1.8-0.77-2.53-1.41
		c-0.72-0.63-1.32-1.45-1.76-2.44c-0.45-0.99-0.46-1.02-0.68-2.66l-0.03-0.25h-4.18l0.03,0.32c0.19,2.2,0.31,2.93,0.96,4.48
		c0.64,1.53,1.52,2.82,2.63,3.82c1.1,1,2.4,1.76,3.86,2.24c1.45,0.48,3.01,0.73,4.63,0.73c1.33,0,2.68-0.19,4.02-0.58
		c1.35-0.39,2.58-1,3.67-1.83c1.1-0.83,2-1.91,2.7-3.22c0.7-1.32,1.05-2.92,1.05-4.76C604.02,764.79,603.75,763.36,603.22,762.2"/>
	<polygon class="st0" points="840.86,740.82 840.86,767.14 825.92,740.82 823.58,740.82 820.25,740.82 818.66,740.82 818.66,776.86 
		823.58,776.86 823.58,746.7 840.71,776.86 840.86,776.82 840.86,776.86 845.78,776.86 845.78,740.82 	"/>
	<polygon class="st0" points="763.08,740.82 763.08,745.56 763.08,755.22 763.08,759.96 763.08,772.12 763.08,776.86 768,776.86 
		787.95,776.86 787.95,772.12 768,772.12 768,759.96 781.13,759.96 781.13,755.22 768,755.22 768,745.56 787.95,745.56 
		787.95,740.82 768,740.82 	"/>
	<polygon class="st0" points="634.79,740.82 634.79,745.56 634.79,755.22 634.79,759.96 634.79,772.12 634.79,776.86 639.72,776.86 
		659.67,776.86 659.67,772.12 639.72,772.12 639.72,759.96 652.85,759.96 652.85,755.22 639.72,755.22 639.72,745.56 659.67,745.56 
		659.67,740.82 639.72,740.82 	"/>
</g>
<g>
	<path class="st0" d="M147.17,741.83c2.1,0.07,4.15,0.1,6.16,0.1c0.76-0.03,1.99-0.08,3.69-0.15c1.7-0.07,2.85-0.1,3.45-0.1
		c3.57,0,6.27,0.66,8.09,1.99c1.83,1.33,2.74,3.23,2.74,5.72c0,4-2.15,6.72-6.46,8.17c2.52,0.42,4.45,1.36,5.8,2.8
		c1.35,1.45,2.02,3.29,2.02,5.53c0,3.25-1.18,5.77-3.55,7.54c-2.36,1.78-5.64,2.67-9.83,2.67c-0.83,0-1.73-0.02-2.7-0.07
		c-0.97-0.05-2.06-0.07-3.26-0.07c-1.97,0-3.99,0.02-6.05,0.07l-0.1-1.05l3-0.9c0.41-0.11,0.62-0.37,0.66-0.76
		c0.02-0.65,0.03-1.38,0.04-2.18c0.01-0.8,0.01-1.69,0.01-2.67V748.7c0-0.83,0-1.58-0.01-2.24c-0.01-0.67-0.02-1.27-0.04-1.8
		c-0.02-0.42-0.21-0.7-0.58-0.83l-3.02-0.95L147.17,741.83z M155.65,757.04c1,0.02,2.02,0.02,3.06,0.02c2.39,0,4.2-0.58,5.42-1.74
		c1.22-1.16,1.83-2.85,1.83-5.06c0-2.33-0.63-3.99-1.88-5.01c-1.25-1.02-3.06-1.52-5.42-1.52c-0.42,0-0.88,0.01-1.38,0.04
		c-0.5,0.02-1.04,0.07-1.62,0.13V757.04z M155.65,758.99v14.8c0.48,0.18,1.05,0.29,1.69,0.34c0.64,0.05,1.23,0.07,1.76,0.07
		c2.69,0,4.73-0.67,6.13-2c1.4-1.33,2.1-3.27,2.1-5.8c0-2.53-0.71-4.42-2.12-5.64c-1.42-1.23-3.7-1.84-6.86-1.84
		C157.43,758.91,156.53,758.94,155.65,758.99"/>
	<path class="st0" d="M185.47,768.47c0,0.98,0,1.85,0.01,2.63c0.01,0.78,0.02,1.49,0.04,2.12c0.02,0.5,0.23,0.82,0.63,0.95l2.71,0.8
		l0.07,1.05c-1.93-0.05-3.87-0.07-5.8-0.07c-1.97,0-3.98,0.02-6.05,0.07l-0.1-1.05l3-0.9c0.41-0.11,0.62-0.37,0.66-0.76
		c0.02-0.65,0.03-1.38,0.04-2.18c0.01-0.8,0.01-1.69,0.01-2.67V748.7c0-0.83,0-1.58-0.01-2.24c-0.01-0.67-0.02-1.27-0.04-1.8
		c-0.02-0.42-0.21-0.7-0.58-0.83l-3.02-0.95l-0.05-1.05c2.1,0.07,4.15,0.1,6.15,0.1c0.39,0,0.9-0.01,1.5-0.04
		c0.61-0.02,1.35-0.05,2.22-0.09c0.89-0.03,1.63-0.06,2.22-0.07s1.06-0.03,1.4-0.03c3.74,0,6.55,0.7,8.42,2.1
		c1.87,1.4,2.81,3.44,2.81,6.12c0,2.42-0.64,4.38-1.93,5.89c-1.29,1.5-3.25,2.66-5.88,3.47c1.04,1.56,1.99,3.07,2.87,4.52
		c0.87,1.45,1.68,2.79,2.43,4c0.75,1.21,1.44,2.28,2.06,3.21c0.62,0.93,1.2,1.66,1.74,2.19c0.28,0.28,0.55,0.52,0.83,0.72
		c0.28,0.2,0.56,0.37,0.87,0.5c0.3,0.13,0.62,0.24,0.95,0.34c0.33,0.1,0.7,0.19,1.11,0.29l0.07,1.07c-1.17,0.15-2.15,0.22-2.95,0.22
		c-0.67,0-1.25-0.02-1.76-0.05c-0.51-0.03-0.96-0.1-1.35-0.2c-0.4-0.1-0.75-0.22-1.08-0.38c-0.32-0.15-0.64-0.35-0.95-0.6
		c-0.68-0.5-1.34-1.23-1.99-2.18c-0.65-0.95-1.33-2.03-2.03-3.23c-0.7-1.2-1.43-2.48-2.19-3.84c-0.76-1.36-1.56-2.69-2.4-3.98
		c-0.25-0.39-0.46-0.7-0.63-0.93c-0.17-0.23-0.36-0.41-0.57-0.54c-0.21-0.13-0.44-0.22-0.72-0.27c-0.27-0.05-0.62-0.08-1.05-0.1
		l-1.7-0.05V768.47z M185.47,758.18c0.99,0.05,1.91,0.07,2.75,0.07c2.81,0,4.87-0.6,6.18-1.79c1.31-1.19,1.96-3.07,1.96-5.62
		c0-2.47-0.63-4.27-1.88-5.41c-1.25-1.14-3.21-1.71-5.88-1.71c-0.46,0-0.94,0.02-1.46,0.05c-0.52,0.03-1.08,0.08-1.68,0.15V758.18z"
		/>
	<path class="st0" d="M206.19,741.83c2.1,0.07,4.11,0.1,6.05,0.1c1.95,0,3.96-0.03,6.04-0.1l0.1,1.05l-3.02,0.9
		c-0.39,0.1-0.6,0.35-0.63,0.76c-0.02,0.57-0.03,1.19-0.04,1.86c-0.01,0.67-0.01,1.41-0.01,2.21v13.34c0,4.65,0.74,7.87,2.22,9.67
		c1.48,1.8,3.86,2.69,7.14,2.69c3.33,0,5.75-0.93,7.24-2.78c1.49-1.85,2.24-4.95,2.24-9.29V748.6c0-0.8,0-1.53-0.01-2.21
		c-0.01-0.67-0.03-1.3-0.06-1.86c-0.02-0.37-0.23-0.62-0.63-0.76l-2.85-0.83l-0.05-1.12c2.06,0.07,3.84,0.1,5.31,0.1
		c1.41,0,3.14-0.03,5.17-0.1l0.1,1.05l-3.07,0.95c-0.37,0.13-0.57,0.41-0.59,0.83c-0.02,0.54-0.03,1.14-0.04,1.81
		c-0.01,0.67-0.01,1.41-0.01,2.24v12.51c0,5.33-1.08,9.27-3.25,11.82s-5.59,3.83-10.25,3.83c-4.57,0-7.94-1.15-10.12-3.45
		c-2.18-2.3-3.27-5.87-3.27-10.71V748.7c0-0.83,0-1.58-0.01-2.24c-0.01-0.67-0.02-1.27-0.04-1.81c-0.02-0.42-0.21-0.7-0.59-0.83
		l-3.02-0.95L206.19,741.83z"/>
	<path class="st0" d="M250.09,748.77v19.7c0,1.92,0.02,3.51,0.05,4.78c0.02,0.46,0.22,0.73,0.61,0.83l2.9,0.85l0.05,1.1
		c-2.03-0.05-3.7-0.07-5-0.07c-1.27,0-2.95,0.02-5.05,0.07l-0.1-1.05l3-0.9c0.42-0.13,0.64-0.38,0.66-0.76
		c0.03-1.32,0.05-2.93,0.05-4.85V748.7c0-1.62-0.02-2.97-0.05-4.05c-0.02-0.42-0.21-0.7-0.58-0.83l-3.02-0.95l-0.05-1.05
		c2.1,0.06,3.75,0.1,4.97,0.1c0.73,0,1.47-0.03,2.22-0.1l20.48,25.57v-18.8c0-1.58-0.02-2.93-0.05-4.07
		c-0.02-0.37-0.23-0.62-0.63-0.76l-2.88-0.83l-0.05-1.12c2.08,0.06,3.76,0.1,5.05,0.1c1.3,0,2.97-0.03,5-0.1l0.1,1.05l-3.07,0.95
		c-0.37,0.13-0.57,0.41-0.58,0.83c-0.03,1.07-0.05,2.42-0.05,4.05v27.26l-2.05,0.19L250.09,748.77z"/>
	<path class="st0" d="M307.97,750.33l-0.98,0.15l-1.78-6.41c-2.02-0.5-3.84-0.76-5.49-0.76c-3.98,0-7.11,1.39-9.39,4.17
		c-2.27,2.78-3.41,6.39-3.41,10.82c0,4.74,1.3,8.53,3.9,11.36c2.6,2.83,6.2,4.24,10.8,4.24c2.58,0,5.31-0.5,8.17-1.49l0.27,1.1
		c-3.2,2.21-6.83,3.32-10.87,3.32c-5.25,0-9.5-1.6-12.74-4.8c-3.24-3.2-4.86-7.42-4.86-12.65c0-5.57,1.78-9.99,5.35-13.24
		c3.57-3.25,8.21-4.88,13.93-4.88c2.75,0,5.56,0.33,8.43,1l0.17,0.2L307.97,750.33z"/>
	<path class="st0" d="M322.57,759.09v9.39c0,1.92,0.02,3.53,0.05,4.83c0.02,0.44,0.23,0.71,0.63,0.83l2.71,0.85l0.07,1.05
		c-1.93-0.05-3.87-0.07-5.8-0.07c-1.93,0-3.95,0.02-6.05,0.07l-0.1-1.05l3-0.9c0.42-0.13,0.64-0.38,0.66-0.75
		c0.03-1.32,0.05-2.93,0.05-4.85V748.7c0-1.62-0.02-2.97-0.05-4.05c-0.02-0.42-0.21-0.7-0.58-0.83l-3.02-0.95l-0.05-1.05
		c2.1,0.07,4.11,0.1,6.05,0.1c1.95,0,3.88-0.03,5.78-0.1l0.12,1.05l-2.78,0.85c-0.41,0.1-0.62,0.35-0.63,0.75
		c-0.03,1.17-0.05,2.54-0.05,4.12v8.26h17.75v-8.26c0-1.58-0.02-2.95-0.05-4.12c-0.02-0.41-0.23-0.66-0.63-0.75l-2.71-0.85
		l-0.05-1.05c1.98,0.07,3.94,0.1,5.88,0.1c1.93,0,3.92-0.03,5.95-0.1l0.1,1.05l-3.07,0.95c-0.37,0.13-0.57,0.41-0.59,0.83
		c-0.03,1.07-0.05,2.42-0.05,4.05v19.77c0,1.92,0.02,3.54,0.05,4.85c0.02,0.37,0.24,0.62,0.66,0.75l2.95,0.9l0.05,1.05
		c-2.15-0.05-4.19-0.07-6.14-0.07c-1.93,0-3.83,0.02-5.68,0.07l-0.1-1.05l2.75-0.85c0.41-0.11,0.62-0.39,0.63-0.83
		c0.03-1.3,0.05-2.91,0.05-4.83v-9.39H322.57z"/>
	<path class="st0" d="M386.39,756.96c0.93,0.03,1.85,0.06,2.77,0.07c0.92,0.02,1.86,0.02,2.82,0.02c0.83,0,1.61-0.01,2.33-0.02
		c0.72-0.02,1.41-0.04,2.06-0.07l0.07,1.07l-3.05,0.76c-0.32,0.08-0.46,0.27-0.41,0.56c0.1,0.83,0.15,1.59,0.15,2.29
		c0,3.38-0.83,6.29-2.49,8.73c1.07,1.5,2.05,2.59,2.93,3.29c0.88,0.7,1.9,1.05,3.07,1.05c0.45,0,0.95-0.05,1.49-0.15l0.2,1.07
		c-1.43,0.73-2.92,1.1-4.46,1.1c-2.57,0-4.75-1.09-6.56-3.27c-2.91,2.11-6.15,3.17-9.73,3.17c-3.35,0-6.17-0.81-8.46-2.44
		c-2.29-1.62-3.43-3.83-3.43-6.61c0-3.77,2.36-6.89,7.07-9.36c-1.77-2.08-2.9-3.72-3.4-4.92c-0.5-1.2-0.74-2.44-0.74-3.71
		c0-2.32,0.89-4.18,2.66-5.58c1.77-1.4,3.97-2.1,6.61-2.1c2.32,0,4.27,0.59,5.84,1.78c1.58,1.19,2.37,2.82,2.37,4.9
		c0,3.36-2.49,6.21-7.47,8.53L389,768.52c1.07-1.9,1.61-4.06,1.61-6.48c0-0.99-0.05-1.8-0.15-2.41c-0.05-0.31-0.15-0.53-0.3-0.66
		c-0.15-0.13-0.39-0.23-0.69-0.29l-3.02-0.61L386.39,756.96z M374.47,759.62c-2.31,1.9-3.46,4.28-3.46,7.14
		c0,2.24,0.68,4.02,2.04,5.34s3.25,1.98,5.67,1.98c2.32,0,4.45-0.76,6.39-2.29L374.47,759.62z M377.3,755.87
		c2.29-2.05,3.43-4.42,3.43-7.12c0-1.46-0.32-2.64-0.96-3.52c-0.64-0.89-1.45-1.33-2.43-1.33c-1.02,0-1.84,0.39-2.47,1.16
		c-0.63,0.77-0.94,1.8-0.94,3.08c0,2.13,0.8,4.27,2.4,6.41L377.3,755.87z"/>
	<path class="st0" d="M438.83,750.33l-0.98,0.15l-1.78-6.41c-2.02-0.5-3.84-0.76-5.49-0.76c-3.98,0-7.11,1.39-9.38,4.17
		c-2.28,2.78-3.41,6.39-3.41,10.82c0,4.74,1.3,8.53,3.9,11.36c2.6,2.83,6.2,4.24,10.8,4.24c2.58,0,5.31-0.5,8.17-1.49l0.27,1.1
		c-3.2,2.21-6.83,3.32-10.87,3.32c-5.25,0-9.5-1.6-12.74-4.8c-3.24-3.2-4.86-7.42-4.86-12.65c0-5.57,1.78-9.99,5.35-13.24
		c3.57-3.25,8.21-4.88,13.93-4.88c2.75,0,5.56,0.33,8.43,1l0.17,0.2L438.83,750.33z"/>
	<path class="st0" d="M460.94,741.31l10.83,29.81c0.4,1.12,0.78,1.88,1.11,2.28c0.33,0.4,0.81,0.69,1.43,0.89l2.29,0.68l0.05,1.05
		c-2.13-0.05-4.1-0.07-5.92-0.07c-1.85,0-4.04,0.02-6.56,0.07l-0.1-1.05l2.32-0.68c0.33-0.11,0.56-0.24,0.7-0.38
		c0.14-0.14,0.21-0.35,0.21-0.65c0-0.33-0.08-0.75-0.26-1.28c-0.17-0.53-0.41-1.23-0.72-2.11l-2.29-6.53h-11.75l-2.56,6.51
		c-0.34,0.91-0.61,1.63-0.8,2.17c-0.2,0.54-0.29,0.96-0.29,1.27c0,0.28,0.08,0.48,0.23,0.62c0.15,0.14,0.39,0.26,0.7,0.35l2.27,0.66
		l0.05,1.1c-2.31-0.05-4.19-0.07-5.66-0.07s-3.1,0.02-4.9,0.07l-0.12-1.05l2.46-0.76c0.62-0.2,1.07-0.5,1.37-0.9
		c0.29-0.41,0.62-1.04,0.98-1.9l12.46-29.74L460.94,741.31z M453.16,761.13h10.04l-4.75-13.43L453.16,761.13z"/>
	<path class="st0" d="M487.1,748.6v19.87c0,0.98,0,1.86,0.01,2.66c0.01,0.8,0.02,1.52,0.04,2.17c0.02,0.42,0.23,0.7,0.63,0.83
		l2.71,0.85l0.07,1.05c-1.93-0.05-3.87-0.07-5.8-0.07c-1.97,0-3.98,0.02-6.05,0.07l-0.1-1.05l3-0.9c0.42-0.13,0.64-0.38,0.66-0.76
		c0.02-0.65,0.03-1.38,0.04-2.18s0.01-1.69,0.01-2.67V748.7c0-0.83,0-1.58-0.01-2.24c-0.01-0.67-0.02-1.27-0.04-1.8
		c-0.02-0.42-0.21-0.7-0.58-0.83l-3.02-0.95l-0.05-1.05c2.1,0.07,4.11,0.1,6.04,0.1c1.93,0,3.86-0.03,5.78-0.1l0.12,1.05l-2.78,0.85
		c-0.39,0.1-0.6,0.35-0.63,0.76c-0.02,0.58-0.03,1.22-0.04,1.9C487.1,747.07,487.1,747.81,487.1,748.6 M487.73,758.7l9.82-10.95
		c0.76-0.86,1.38-1.59,1.85-2.18c0.47-0.59,0.71-1.07,0.71-1.43c0-0.33-0.22-0.54-0.66-0.66l-2-0.54l-0.05-1.12
		c1.61,0.07,3.4,0.1,5.39,0.1c1.9,0,3.69-0.03,5.36-0.1l0.1,1.05l-2.46,0.78c-0.75,0.24-1.39,0.62-1.94,1.12
		c-0.54,0.5-1.13,1.1-1.74,1.78l-9.75,10.73l11.09,14.63c0.47,0.62,0.93,1.12,1.39,1.5c0.46,0.38,1.05,0.68,1.78,0.89l2.22,0.68
		l0.05,1.05c-1.36-0.05-3.1-0.07-5.19-0.07c-0.55,0-1.11,0-1.68,0.01c-0.57,0.01-1.14,0.02-1.71,0.04
		c-0.57-1.17-2.07-3.37-4.51-6.61L487.73,758.7z"/>
	<path class="st0" d="M517.57,741.92h5.92c3.64,0,7.48-0.03,11.53-0.1l0.15,0.2l-1.41,7.53l-0.97,0.17l-1.51-5.63h-11.26v13.41h2.22
		c1.69,0,3.58-0.02,5.66-0.05c0.42-0.02,0.7-0.23,0.83-0.63l0.85-3.29l1.32-0.05c-0.05,2.27-0.07,3.96-0.07,5.05
		c0,1.06,0.02,2.72,0.07,4.97l-1.32,0.1l-0.88-3.34c-0.13-0.42-0.38-0.64-0.76-0.66c-2.11-0.03-4.02-0.05-5.73-0.05h-2.19v8.87
		c0,1.8,0.02,3.58,0.05,5.34h11.7l2.97-6.19l1.1-0.19l-0.54,8.48l-0.17,0.17c-4.21-0.05-8.09-0.07-11.65-0.07h-5.8
		c-1.97,0-3.98,0.02-6.05,0.07l-0.1-1.05l3-0.9c0.41-0.11,0.62-0.37,0.66-0.76c0.02-0.65,0.03-1.38,0.04-2.18
		c0.01-0.8,0.01-1.69,0.01-2.67V748.7c0-0.83,0-1.58-0.01-2.24c-0.01-0.67-0.02-1.27-0.04-1.8c-0.02-0.42-0.21-0.7-0.59-0.83
		l-3.02-0.95l-0.05-1.05C513.62,741.89,515.64,741.92,517.57,741.92"/>
</g>
<g>
	<path class="st0" d="M193.83,234.74l-31.87,83.97h18.7l6.59-18.7h31.39l6.35,18.7h19.17l-31.4-83.97H193.83z M203,255.44h0.24
		l10.59,30.81h-21.76L203,255.44z"/>
	<polygon class="st0" points="582.73,234.74 582.73,318.71 642.12,318.71 642.12,303.19 601.19,303.19 601.19,234.74 	"/>
	<rect x="652.46" y="234.74" class="st0" width="18.47" height="83.97"/>
	<polygon class="st0" points="740.78,234.74 740.78,291.07 740.55,291.07 705.5,234.74 687.15,234.74 687.15,318.71 704.45,318.71 
		704.45,262.49 704.68,262.49 739.61,318.71 758.07,318.71 758.07,234.74 	"/>
	<polygon class="st0" points="774.3,234.74 774.3,318.71 838.04,318.71 838.04,303.19 792.76,303.19 792.76,282.61 833.45,282.61 
		833.45,268.25 792.76,268.25 792.76,250.26 837.1,250.26 837.1,234.74 	"/>
	<path class="st0" d="M264.04,290.84c0,11.17,8.71,15.52,18.58,15.52c6.47,0,16.35-1.88,16.35-10.47c0-9.05-12.58-10.59-24.93-13.87
		c-12.46-3.29-25.05-8.12-25.05-23.87c0-17.17,16.23-25.4,31.4-25.4c17.52,0,33.64,7.64,33.64,27.05h-17.88
		c-0.59-10.11-7.76-12.7-16.58-12.7c-5.88,0-12.7,2.47-12.7,9.53c0,6.46,4,7.29,25.05,12.7c6.12,1.53,24.93,5.41,24.93,24.46
		c0,15.41-12.11,26.93-34.93,26.93c-18.58,0-35.99-9.17-35.75-29.87H264.04z"/>
	<path class="st0" d="M340.36,290.84c0,11.17,8.71,15.52,18.58,15.52c6.47,0,16.35-1.88,16.35-10.47c0-9.05-12.58-10.59-24.93-13.87
		c-12.46-3.29-25.05-8.12-25.05-23.87c0-17.17,16.23-25.4,31.4-25.4c17.52,0,33.64,7.64,33.64,27.05h-17.88
		c-0.59-10.11-7.76-12.7-16.58-12.7c-5.88,0-12.7,2.47-12.7,9.53c0,6.46,4,7.29,25.05,12.7c6.12,1.53,24.93,5.41,24.93,24.46
		c0,15.41-12.11,26.93-34.93,26.93c-18.58,0-35.99-9.17-35.75-29.87H340.36z"/>
	<path class="st0" d="M441.73,232.74c25.99,0,41.28,19.4,41.28,44.33c0,24.23-15.29,43.63-41.28,43.63
		c-25.99,0-41.28-19.4-41.28-43.63C400.45,252.14,415.74,232.74,441.73,232.74 M441.73,305.18c16.58,0,22.82-14.11,22.82-28.11
		c0-14.7-6.23-28.81-22.82-28.81c-16.58,0-22.82,14.11-22.82,28.81C418.91,291.07,425.14,305.18,441.73,305.18"/>
	<path class="st0" d="M566.86,286.95c0,22.7-13.41,33.75-35.87,33.75c-22.58,0-35.75-10.93-35.75-33.75v-52.21h18.46v52.21
		c0,9.17,2.35,18.23,17.29,18.23c13.17,0,17.41-5.77,17.41-18.23v-52.21h18.46V286.95z"/>
</g>
</svg>
