<?xml version="1.0" encoding="utf-8"?>
<!-- Generator: Adobe Illustrator 27.8.1, SVG Export Plug-In . SVG Version: 6.00 Build 0)  -->
<svg version="1.1" id="Layer_1" xmlns="http://www.w3.org/2000/svg" xmlns:xlink="http://www.w3.org/1999/xlink" x="0px" y="0px"
	 viewBox="0 0 1000 500" style="enable-background:new 0 0 1000 500;" xml:space="preserve">
<style type="text/css">
	.st0{fill:#FFFFFF;}
</style>
<g>
	<path class="st0" d="M210.19,261.08l7.34-28.87c1.12-4.23,1.86-6.97,3.23-12.82h0.5c1.24,5.85,1.86,8.46,2.99,12.82l7.22,28.87
		H210.19z M207.57,205.07l-25.39,89.87h19.05l5.72-20.17h27.5l5.73,20.17h20.04l-25.26-89.87H207.57z"/>
	<polygon class="st0" points="298.93,205.07 279.89,205.07 279.89,294.94 329.66,294.94 329.66,280.5 298.93,280.5 	"/>
	<path class="st0" d="M134.89,281.24H123.8v-26.14h11.58c9.71,0,14.32,4.48,14.32,13.07C149.7,277.76,143.6,281.24,134.89,281.24
		 M123.8,218.76h11.95c8.72,0,12.44,3.86,12.44,11.2c0,7.22-4.23,11.46-12.31,11.46H123.8V218.76z M149.07,248.01v-0.5
		c11.45-1.86,18.17-8.08,18.17-20.03c0-15.44-8.96-22.4-27.88-22.4h-34.6v89.87h33.61c18.92,0,30.36-6.85,30.36-25.52
		C168.74,257.59,161.89,249.26,149.07,248.01"/>
	<path class="st0" d="M673.94,261.08l7.34-28.87c1.12-4.23,1.86-6.97,3.23-12.82h0.5c1.24,5.85,1.86,8.46,2.99,12.82l7.22,28.87
		H673.94z M671.32,205.07l-25.39,89.87h19.05l5.72-20.17h27.5l5.73,20.17h20.04l-25.26-89.87H671.32z"/>
	<path class="st0" d="M772.01,217.39c8.33,0,11.21,5.73,11.45,11.82h19.05c-0.13-15.81-11.58-25.51-30.38-25.51
		c-26.25,0-35.96,15.32-35.96,40.08v13.07c0,26.51,9.08,39.46,37.46,39.46c11.07,0,21.78-2.62,28.62-5.48v-44.93h-30.99v14.44h12.56
		v20.04c-2.23,1.37-6.22,2.24-10.45,2.24c-13.07,0-17.3-6.59-17.3-25.51v-11.58C756.08,226.6,760.06,217.39,772.01,217.39"/>
	<polygon class="st0" points="368.38,255.6 398,255.6 398,241.16 368.38,241.16 368.38,219.51 399.87,219.51 399.87,205.07 
		349.34,205.07 349.34,294.93 401.11,294.93 401.11,280.49 368.38,280.49 	"/>
	<rect x="607.85" y="205.07" class="st0" width="19.04" height="89.87"/>
	<path class="st0" d="M845.2,261.08l7.34-28.87c1.13-4.23,1.87-6.97,3.24-12.82h0.49c1.25,5.85,1.87,8.46,2.99,12.82l7.22,28.87
		H845.2z M869.96,205.07h-27.39l-25.39,89.87h19.05l5.72-20.17h27.52l5.72,20.17h20.05L869.96,205.07z"/>
	<path class="st0" d="M555.94,282.61c-10.33,0-14.19-7.22-14.19-26.02V243.4c0-18.8,3.86-26.01,14.19-26.01
		c9.58,0,11.21,6.35,11.58,13.2h19.29c-0.25-15.57-9.09-26.89-31.24-26.89c-24.65,0-33.73,15.44-33.73,39.71v13.19
		c0,24.27,9.08,39.71,33.73,39.71c21.15,0,31.49-9.71,31.99-28.13h-19.29C567.89,277.01,565.02,282.61,555.94,282.61"/>
	<path class="st0" d="M480.89,254.98c0,6.59,0.25,15.31,0.37,23.65h-0.49c-1.5-6.22-2.74-12.44-6.36-22.53L456,205.07H427v89.85
		h16.92v-52.02c0-7.22-0.37-16.18-0.61-23.4h0.49c2.62,9.33,4.11,14.06,6.6,20.91l19.66,54.51h27.76v-89.85h-16.92V254.98z"/>
</g>
</svg>
