<svg version="1.1" id="Layer_1" xmlns="http://www.w3.org/2000/svg" xmlns:xlink="http://www.w3.org/1999/xlink" x="0px" y="0px"
	 width="100%" viewBox="0 0 655 655" enable-background="new 0 0 655 655" xml:space="preserve">
<path fill="#000000" opacity="1.000000" stroke="none" 
	d="
M361.000000,656.000000 
	C240.666687,656.000000 120.833374,656.000000 1.000048,656.000000 
	C1.000032,437.666718 1.000032,219.333450 1.000016,1.000136 
	C219.333237,1.000091 437.666473,1.000091 655.999756,1.000045 
	C655.999878,219.333191 655.999878,437.666382 655.999939,655.999756 
	C557.833313,656.000000 459.666656,656.000000 361.000000,656.000000 
M513.583252,327.918274 
	C485.573517,322.434387 459.007233,326.465820 433.795135,339.842896 
	C431.103821,341.270844 430.048737,342.883423 430.094421,345.996826 
	C430.282654,358.826904 430.160736,371.661377 430.176605,384.494202 
	C430.201752,404.780090 442.529297,417.087189 462.858582,417.092651 
	C508.523529,417.104980 554.188477,417.096802 599.853394,417.096954 
	C601.469543,417.096954 603.085632,417.096954 605.503174,417.096954 
	C591.583374,369.806793 562.202881,339.541229 513.583252,327.918274 
M605.071716,329.823853 
	C605.071472,311.165894 605.095947,292.507904 605.064087,273.849976 
	C605.031677,254.894730 592.404724,242.173279 573.506592,242.157593 
	C527.194946,242.119171 480.883270,242.141846 434.571594,242.155731 
	C433.144989,242.156158 431.718475,242.330963 430.442383,242.414612 
	C430.442383,271.737091 430.442383,300.584412 430.442383,329.797516 
	C432.015015,328.990509 433.183716,328.406403 434.338470,327.795959 
	C478.966736,304.203674 525.189758,300.603882 572.731262,317.470825 
	C582.833740,321.055023 592.227600,326.626648 601.994080,331.183746 
	C602.887878,331.600800 604.715820,334.520538 605.071716,329.823853 
M105.768600,282.756775 
	C106.584114,283.810028 107.420792,284.847656 108.211845,285.918976 
	C115.420082,295.680847 123.498253,304.936340 129.578537,315.357208 
	C135.782013,325.989227 133.621918,331.705597 124.380791,337.220886 
	C117.325203,341.431793 110.182167,345.496185 102.930359,349.711639 
	C124.526917,349.604950 139.926025,340.303619 147.938980,319.439209 
	C149.030060,322.581085 149.412292,325.144928 149.986450,327.665009 
	C151.816589,335.698090 157.252045,340.756592 165.294876,342.052368 
	C171.930725,343.121460 178.346024,342.239868 184.132477,338.916931 
	C189.348892,335.921326 194.204224,332.296936 199.436417,328.804596 
	C200.323425,333.324127 200.141937,338.318604 205.687668,340.283142 
	C215.255524,343.672485 224.619049,338.954956 227.072342,329.106384 
	C227.827744,326.073944 228.285126,322.849121 228.169632,319.738739 
	C227.724762,307.758575 227.067322,295.784515 226.339386,283.817291 
	C225.902985,276.642700 225.189072,269.485046 224.599869,262.319763 
	C228.885010,267.145325 232.696518,271.989532 235.471725,277.368378 
	C241.390671,288.840424 247.269135,300.384827 252.183578,312.303955 
	C255.032272,319.212952 255.362946,326.855133 250.914124,333.705994 
	C239.984497,331.496155 235.039261,326.150665 237.433441,312.583038 
	C233.826187,317.645172 232.074326,323.105774 233.487228,329.309052 
	C234.955231,335.754181 239.976562,338.849854 245.638184,341.462341 
	C244.291687,343.111633 243.243576,344.395447 242.195465,345.679260 
	C242.382721,346.114716 242.569977,346.550171 242.757248,346.985626 
	C248.481506,340.211121 255.932327,342.979645 262.728149,342.366943 
	C282.079224,340.622223 300.753052,337.141998 315.846710,323.098053 
	C316.377075,330.787689 318.852661,337.162628 326.192139,339.741211 
	C336.217163,343.263306 345.442017,341.784119 352.710999,332.885193 
	C357.151917,342.595703 365.408691,342.413605 373.764709,341.859924 
	C379.505646,341.479553 383.608765,339.415741 385.431091,333.097748 
	C388.147125,323.681366 386.037292,315.981049 379.223114,308.714386 
	C378.451660,312.723541 376.041840,315.657715 378.895599,319.848358 
	C385.896088,330.128296 383.929230,333.400879 371.307373,333.973145 
	C359.270996,334.518890 355.960388,332.305420 353.843414,322.750702 
	C350.386200,325.631989 347.032684,329.138458 343.038116,331.608124 
	C334.664612,336.785004 319.101532,331.355835 318.616699,318.442719 
	C318.417114,313.126282 316.037201,307.351288 313.077179,302.809204 
	C308.932739,296.449524 303.156281,291.177399 298.378754,285.199615 
	C293.358337,278.917877 288.692596,272.352661 283.090454,264.867157 
	C307.183167,259.340668 329.752167,254.163651 352.321167,248.986649 
	C352.844543,249.525452 353.367889,250.064255 353.891235,250.603043 
	C351.766876,257.053650 349.642487,263.504242 347.518127,269.954834 
	C347.908997,270.092468 348.299835,270.230103 348.690704,270.367737 
	C352.624634,262.188171 356.579224,253.998749 357.638123,244.739670 
	C357.701538,244.185562 355.289246,242.572876 354.335876,242.791458 
	C331.170471,248.102478 308.036346,253.552490 284.940918,259.160034 
	C283.509186,259.507690 281.664368,261.168945 281.342285,262.533203 
	C280.149384,267.585785 279.827179,272.460480 283.797028,277.009216 
	C292.550903,287.039429 300.902374,297.421021 309.409576,307.666260 
	C316.400665,316.085693 316.249146,319.038361 306.353027,323.232941 
	C296.791473,327.285797 286.680847,330.243622 276.580536,332.753418 
	C270.037933,334.379089 263.080719,334.336243 255.138657,335.162933 
	C258.981354,327.150604 259.997864,320.455414 258.168213,313.640442 
	C256.495850,307.411469 255.286621,300.776978 252.193558,295.263550 
	C243.017380,278.906982 233.018188,263.011932 223.317947,246.950241 
	C222.698792,245.925064 221.885162,245.017334 221.162003,244.054962 
	C220.624359,244.110336 220.086716,244.165726 219.549072,244.221100 
	C219.152939,247.997116 218.224365,251.804932 218.447845,255.543930 
	C219.809158,278.321442 221.389954,301.086304 223.000092,323.848114 
	C223.373825,329.131531 220.107620,330.859070 215.896072,331.782806 
	C208.987656,333.298035 205.880676,332.357300 204.068375,327.736053 
	C202.697647,324.240753 201.964386,320.495453 200.946350,316.857513 
	C198.780960,318.876129 196.645599,320.880859 194.494888,322.868988 
	C188.495468,328.414825 181.530472,332.101685 173.484909,333.638367 
	C165.807251,335.104828 159.144806,332.480316 156.101807,325.281891 
	C153.563171,319.276611 151.582581,312.630249 151.256058,306.171661 
	C150.305771,287.374969 150.316605,268.529877 149.927994,249.704224 
	C149.889175,247.823975 149.696426,245.946899 149.523987,243.276550 
	C145.712158,247.733765 143.750183,251.606903 144.074020,256.927307 
	C145.015396,272.393372 145.536469,287.887787 146.032532,303.377167 
	C146.341949,313.038177 143.197495,321.385132 136.628876,327.684814 
	C136.107590,323.046265 136.452759,318.102234 134.860382,313.890839 
	C132.658813,308.068268 129.480286,302.456116 125.870720,297.354950 
	C115.404198,282.563141 104.517715,268.068359 93.764099,253.480560 
	C93.522644,253.153046 92.900749,253.105988 92.703873,253.027191 
	C89.479103,258.283051 91.056122,262.811462 94.467514,267.250702 
	C98.217880,272.131042 101.702942,277.215271 105.768600,282.756775 
M78.773903,292.725067 
	C87.348419,301.170959 95.922943,309.616882 104.880661,318.440216 
	C99.529396,320.794830 94.516251,323.374725 89.248421,325.232452 
	C80.983902,328.146973 72.675613,331.164673 64.142281,333.015686 
	C57.638416,334.426514 54.200256,330.765015 53.948944,324.072418 
	C53.854664,321.561737 53.933666,319.044586 53.933666,316.530365 
	C52.261425,320.002808 51.056782,323.601105 50.446045,327.297546 
	C48.607029,338.428131 54.314156,344.949005 65.072693,341.904114 
	C78.860306,338.001923 92.082314,332.068359 105.446983,326.755829 
	C106.777763,326.226868 107.839340,324.054596 108.283188,322.440704 
	C109.641525,317.501617 108.925415,312.496857 105.346573,308.910583 
	C94.674042,298.215851 83.634102,287.887756 72.874725,277.548096 
	C69.074692,283.897522 74.552872,287.766541 78.773903,292.725067 
M50.751720,417.876709 
	C57.881092,417.653748 65.085854,417.998138 72.120636,417.063324 
	C80.793907,415.910797 85.135941,409.589569 82.787239,401.336029 
	C81.759827,397.725677 78.216805,394.831207 75.736038,391.504211 
	C80.239761,387.552094 81.805038,383.833191 80.571831,378.955780 
	C79.337074,374.072266 76.025444,370.750336 71.326233,370.313263 
	C64.329514,369.662476 57.227421,370.144531 50.039776,370.144531 
	C50.039776,385.981506 50.039776,401.604858 50.751720,417.876709 
M241.050034,411.420868 
	C235.604263,397.532043 230.158478,383.643219 224.287460,368.669861 
	C221.559601,369.867584 217.696411,370.319855 216.952316,372.086151 
	C210.645126,387.057465 204.906403,402.268280 198.857971,417.763702 
	C202.542984,417.632935 205.904755,419.392700 207.632050,414.257355 
	C211.006485,404.225128 211.319199,404.330322 221.959900,404.330322 
	C230.886230,404.330322 231.288681,404.211945 233.668655,412.302734 
	C235.261032,417.716095 238.013733,419.017761 243.289703,417.302673 
	C242.601242,415.532013 241.949326,413.855255 241.050034,411.420868 
M259.122986,396.499664 
	C259.122986,403.138458 259.122986,409.777252 259.122986,416.540253 
	C265.796478,418.887238 272.289734,419.726898 278.909271,417.918304 
	C288.387848,415.328583 293.508209,405.107269 290.683105,394.711487 
	C288.341797,386.096039 280.327179,381.513458 271.729431,384.020020 
	C269.756134,384.595367 267.937378,385.700867 265.641174,386.747589 
	C265.641174,380.971771 265.641174,375.541107 265.641174,369.934235 
	C263.370819,369.934235 261.441193,369.934235 259.122986,369.934235 
	C259.122986,378.612579 259.122986,387.056183 259.122986,396.499664 
M370.270447,418.839691 
	C373.489288,417.656128 376.708130,416.472565 379.984161,415.268005 
	C381.498352,418.293396 381.498352,418.293396 386.604767,417.179413 
	C386.604767,401.446533 386.604767,385.723633 386.604767,369.975647 
	C384.354156,369.975647 382.418060,369.975647 380.007385,369.975647 
	C380.007385,375.120148 380.007385,379.995026 380.007385,384.976501 
	C367.052338,381.339996 357.103516,386.207703 354.915558,396.885468 
	C352.433502,408.998169 357.964050,417.361664 370.270447,418.839691 
M184.128250,387.588715 
	C184.995407,386.594604 185.862549,385.600494 186.974319,384.325958 
	C175.787430,382.240936 173.352127,393.494965 165.628265,396.796570 
	C165.628265,387.715088 165.628265,378.947723 165.628265,370.057648 
	C163.304840,370.057648 161.267593,370.057648 159.399170,370.057648 
	C159.399170,386.172546 159.399170,401.913239 159.399170,417.573914 
	C161.616287,417.573914 163.516037,417.573914 165.324249,417.573914 
	C167.064148,411.997833 162.747681,404.832672 170.580856,401.492523 
	C173.181061,405.313995 176.057541,409.007965 178.338379,413.038971 
	C180.772079,417.340118 183.825623,419.198334 189.020432,417.282318 
	C184.309708,410.353058 179.670288,403.528687 175.010834,396.674866 
	C177.976547,393.718079 180.796722,390.906372 184.128250,387.588715 
M342.816040,392.333801 
	C342.938416,393.696045 343.060791,395.058319 343.145203,395.998047 
	C338.177551,396.352356 333.813721,396.236115 329.635620,397.060760 
	C323.195343,398.332001 319.982208,403.467926 320.828674,410.041504 
	C321.534088,415.519653 326.512573,419.458679 332.828522,418.752136 
	C336.316895,418.361908 339.668549,416.749115 342.056488,416.006409 
	C344.742432,416.862549 346.858856,417.537170 349.776672,418.467224 
	C349.776672,410.940979 349.678406,404.482666 349.805237,398.028748 
	C349.924347,391.967682 348.865845,386.442474 342.387360,384.240814 
	C335.286316,381.827576 328.507263,382.815613 322.058258,387.386536 
	C323.426575,389.109528 324.412048,390.350433 325.242249,391.395844 
	C331.324066,388.776581 336.889954,386.537872 342.816040,392.333801 
M89.952644,400.505981 
	C86.165779,406.308411 86.162735,411.650757 89.944069,415.504578 
	C94.448036,420.094940 101.528061,419.907135 108.344124,415.734955 
	C111.261330,416.730682 113.301239,417.426971 115.973335,418.339050 
	C115.973335,409.022644 116.339417,400.735596 115.754135,392.516266 
	C115.574493,389.993530 113.292122,386.970428 111.101288,385.367035 
	C105.326309,381.140564 94.444717,382.540619 88.901703,387.723633 
	C89.883446,388.939484 90.872185,390.164032 91.867088,391.396210 
	C97.083969,388.567657 102.254936,387.180847 107.273697,390.168823 
	C108.899529,391.136780 109.421974,393.958069 110.893272,396.784973 
	C102.800667,396.066162 96.102486,395.161346 89.952644,400.505981 
M145.077377,384.128235 
	C139.238602,382.767395 133.884354,383.424652 129.184250,388.603516 
	C129.237854,382.809631 125.892578,384.071686 122.952621,384.413086 
	C122.952621,395.658203 122.952621,406.674805 122.952621,417.657379 
	C125.158203,417.657379 126.920143,417.657379 129.347015,417.657379 
	C129.347015,411.158356 128.871872,404.832001 129.478226,398.611115 
	C130.107437,392.155640 134.404968,388.615448 139.523071,389.097656 
	C144.534317,389.569794 146.498444,392.485992 146.570206,399.786926 
	C146.628738,405.743805 146.582108,411.701721 146.582108,417.652161 
	C148.963287,417.652161 150.867325,417.652161 152.973007,417.652161 
	C152.973007,410.079010 153.188339,402.777069 152.897507,395.495361 
	C152.702805,390.620728 150.710175,386.474945 145.077377,384.128235 
M252.999329,372.672180 
	C252.881500,371.451019 252.763672,370.229858 252.664581,369.202820 
	C250.245743,369.202820 248.306412,369.202820 246.303818,369.202820 
	C246.303818,385.562805 246.303818,401.718964 246.303818,417.696350 
	C248.677307,417.696350 250.742050,417.696350 252.999344,417.696350 
	C252.999344,402.809143 252.999344,388.224060 252.999329,372.672180 
M309.000610,399.499451 
	C309.000610,405.609131 309.000610,411.718781 309.000610,417.715271 
	C311.632874,417.715271 313.703003,417.715271 315.720947,417.715271 
	C315.720947,401.347473 315.720947,385.265228 315.720947,369.284729 
	C313.367096,369.284729 311.296967,369.284729 309.000610,369.284729 
	C309.000610,379.211182 309.000610,388.855377 309.000610,399.499451 
M303.032074,411.391235 
	C303.032074,402.324860 303.032074,393.258453 303.032074,384.333618 
	C300.483856,384.333618 298.695587,384.333618 296.728821,384.333618 
	C296.728821,395.585968 296.728821,406.621338 296.728821,417.600830 
	C298.977905,417.600830 300.875305,417.600830 303.032074,417.600830 
	C303.032074,415.645020 303.032074,414.000702 303.032074,411.391235 
M283.566071,308.064362 
	C284.343353,306.294861 285.120667,304.525330 285.986420,302.554474 
	C283.549042,301.100189 281.500031,299.877625 279.612793,298.751587 
	C281.040894,296.685577 282.319763,294.835419 283.598663,292.985260 
	C282.906677,292.537994 282.214722,292.090759 281.522766,291.643524 
	C279.340668,295.153259 276.556305,298.469360 275.329010,302.286133 
	C274.941071,303.492706 278.715912,306.037811 280.802887,308.194885 
	C276.310272,310.289581 271.678192,312.449310 266.194366,315.006165 
	C273.540588,315.445129 279.464783,314.910583 283.566071,308.064362 
M352.049255,299.221863 
	C350.890686,300.773163 349.732117,302.324463 348.324371,304.209412 
	C350.851593,306.028870 353.074707,307.629364 355.598724,309.446533 
	C357.062561,307.514648 358.407593,305.739563 360.032867,303.594635 
	C357.302887,301.839966 354.984711,300.349945 352.049255,299.221863 
M204.699509,350.711456 
	C203.650864,350.086304 202.602234,349.461182 201.470184,348.786316 
	C199.982407,350.822266 198.751038,352.507294 197.373245,354.392731 
	C199.999084,356.271301 202.222412,357.861908 204.702271,359.636078 
	C206.224472,357.590118 207.469086,355.917297 208.870667,354.033478 
	C207.535141,352.933960 206.414963,352.011749 204.699509,350.711456 
M365.070740,350.548492 
	C364.264404,351.748474 363.458069,352.948425 362.483582,354.398621 
	C364.931152,356.154846 367.151184,357.747803 369.655579,359.544800 
	C371.182465,357.535278 372.501495,355.799347 374.647034,352.975677 
	C370.978577,351.766479 368.261444,350.870880 365.070740,350.548492 
M296.718506,371.011841 
	C296.434357,373.296051 296.150238,375.580292 295.863495,377.885559 
	C298.663696,377.885559 300.733276,377.885559 302.855530,377.885559 
	C302.855530,375.476410 302.855530,373.303497 302.855530,370.955933 
	C300.912109,370.955933 299.285461,370.955933 296.718506,371.011841 
z"/>
<path fill="#FEFEFE" opacity="1.000000" stroke="none" 
	d="
M514.005127,327.965179 
	C562.202881,339.541229 591.583374,369.806793 605.503174,417.096954 
	C603.085632,417.096954 601.469543,417.096954 599.853394,417.096954 
	C554.188477,417.096802 508.523529,417.104980 462.858582,417.092651 
	C442.529297,417.087189 430.201752,404.780090 430.176605,384.494202 
	C430.160736,371.661377 430.282654,358.826904 430.094421,345.996826 
	C430.048737,342.883423 431.103821,341.270844 433.795135,339.842896 
	C459.007233,326.465820 485.573517,322.434387 514.005127,327.965179 
z"/>
<path fill="#FDFDFD" opacity="1.000000" stroke="none" 
	d="
M605.071289,330.242737 
	C604.715820,334.520538 602.887878,331.600800 601.994080,331.183746 
	C592.227600,326.626648 582.833740,321.055023 572.731262,317.470825 
	C525.189758,300.603882 478.966736,304.203674 434.338470,327.795959 
	C433.183716,328.406403 432.015015,328.990509 430.442383,329.797516 
	C430.442383,300.584412 430.442383,271.737091 430.442383,242.414612 
	C431.718475,242.330963 433.144989,242.156158 434.571594,242.155731 
	C480.883270,242.141846 527.194946,242.119171 573.506592,242.157593 
	C592.404724,242.173279 605.031677,254.894730 605.064087,273.849976 
	C605.095947,292.507904 605.071472,311.165894 605.071289,330.242737 
z"/>
<path fill="#F5F5F5" opacity="1.000000" stroke="none" 
	d="
M105.536102,282.483704 
	C101.702942,277.215271 98.217880,272.131042 94.467514,267.250702 
	C91.056122,262.811462 89.479103,258.283051 92.703873,253.027191 
	C92.900749,253.105988 93.522644,253.153046 93.764099,253.480560 
	C104.517715,268.068359 115.404198,282.563141 125.870720,297.354950 
	C129.480286,302.456116 132.658813,308.068268 134.860382,313.890839 
	C136.452759,318.102234 136.107590,323.046265 136.628876,327.684814 
	C143.197495,321.385132 146.341949,313.038177 146.032532,303.377167 
	C145.536469,287.887787 145.015396,272.393372 144.074020,256.927307 
	C143.750183,251.606903 145.712158,247.733765 149.523987,243.276550 
	C149.696426,245.946899 149.889175,247.823975 149.927994,249.704224 
	C150.316605,268.529877 150.305771,287.374969 151.256058,306.171661 
	C151.582581,312.630249 153.563171,319.276611 156.101807,325.281891 
	C159.144806,332.480316 165.807251,335.104828 173.484909,333.638367 
	C181.530472,332.101685 188.495468,328.414825 194.494888,322.868988 
	C196.645599,320.880859 198.780960,318.876129 200.946350,316.857513 
	C201.964386,320.495453 202.697647,324.240753 204.068375,327.736053 
	C205.880676,332.357300 208.987656,333.298035 215.896072,331.782806 
	C220.107620,330.859070 223.373825,329.131531 223.000092,323.848114 
	C221.389954,301.086304 219.809158,278.321442 218.447845,255.543930 
	C218.224365,251.804932 219.152939,247.997116 219.549072,244.221100 
	C220.086716,244.165726 220.624359,244.110336 221.162003,244.054962 
	C221.885162,245.017334 222.698792,245.925064 223.317947,246.950241 
	C233.018188,263.011932 243.017380,278.906982 252.193558,295.263550 
	C255.286621,300.776978 256.495850,307.411469 258.168213,313.640442 
	C259.997864,320.455414 258.981354,327.150604 255.138657,335.162933 
	C263.080719,334.336243 270.037933,334.379089 276.580536,332.753418 
	C286.680847,330.243622 296.791473,327.285797 306.353027,323.232941 
	C316.249146,319.038361 316.400665,316.085693 309.409576,307.666260 
	C300.902374,297.421021 292.550903,287.039429 283.797028,277.009216 
	C279.827179,272.460480 280.149384,267.585785 281.342285,262.533203 
	C281.664368,261.168945 283.509186,259.507690 284.940918,259.160034 
	C308.036346,253.552490 331.170471,248.102478 354.335876,242.791458 
	C355.289246,242.572876 357.701538,244.185562 357.638123,244.739670 
	C356.579224,253.998749 352.624634,262.188171 348.690704,270.367737 
	C348.299835,270.230103 347.908997,270.092468 347.518127,269.954834 
	C349.642487,263.504242 351.766876,257.053650 353.891235,250.603043 
	C353.367889,250.064255 352.844543,249.525452 352.321167,248.986649 
	C329.752167,254.163651 307.183167,259.340668 283.090454,264.867157 
	C288.692596,272.352661 293.358337,278.917877 298.378754,285.199615 
	C303.156281,291.177399 308.932739,296.449524 313.077179,302.809204 
	C316.037201,307.351288 318.417114,313.126282 318.616699,318.442719 
	C319.101532,331.355835 334.664612,336.785004 343.038116,331.608124 
	C347.032684,329.138458 350.386200,325.631989 353.843414,322.750702 
	C355.960388,332.305420 359.270996,334.518890 371.307373,333.973145 
	C383.929230,333.400879 385.896088,330.128296 378.895599,319.848358 
	C376.041840,315.657715 378.451660,312.723541 379.223114,308.714386 
	C386.037292,315.981049 388.147125,323.681366 385.431091,333.097748 
	C383.608765,339.415741 379.505646,341.479553 373.764709,341.859924 
	C365.408691,342.413605 357.151917,342.595703 352.710999,332.885193 
	C345.442017,341.784119 336.217163,343.263306 326.192139,339.741211 
	C318.852661,337.162628 316.377075,330.787689 315.846710,323.098053 
	C300.753052,337.141998 282.079224,340.622223 262.728149,342.366943 
	C255.932327,342.979645 248.481506,340.211121 242.757248,346.985626 
	C242.569977,346.550171 242.382721,346.114716 242.195465,345.679260 
	C243.243576,344.395447 244.291687,343.111633 245.638184,341.462341 
	C239.976562,338.849854 234.955231,335.754181 233.487228,329.309052 
	C232.074326,323.105774 233.826187,317.645172 237.433441,312.583038 
	C235.039261,326.150665 239.984497,331.496155 250.914124,333.705994 
	C255.362946,326.855133 255.032272,319.212952 252.183578,312.303955 
	C247.269135,300.384827 241.390671,288.840424 235.471725,277.368378 
	C232.696518,271.989532 228.885010,267.145325 224.599869,262.319763 
	C225.189072,269.485046 225.902985,276.642700 226.339386,283.817291 
	C227.067322,295.784515 227.724762,307.758575 228.169632,319.738739 
	C228.285126,322.849121 227.827744,326.073944 227.072342,329.106384 
	C224.619049,338.954956 215.255524,343.672485 205.687668,340.283142 
	C200.141937,338.318604 200.323425,333.324127 199.436417,328.804596 
	C194.204224,332.296936 189.348892,335.921326 184.132477,338.916931 
	C178.346024,342.239868 171.930725,343.121460 165.294876,342.052368 
	C157.252045,340.756592 151.816589,335.698090 149.986450,327.665009 
	C149.412292,325.144928 149.030060,322.581085 147.938980,319.439209 
	C139.926025,340.303619 124.526917,349.604950 102.930359,349.711639 
	C110.182167,345.496185 117.325203,341.431793 124.380791,337.220886 
	C133.621918,331.705597 135.782013,325.989227 129.578537,315.357208 
	C123.498253,304.936340 115.420082,295.680847 108.211845,285.918976 
	C107.420792,284.847656 106.584114,283.810028 105.536102,282.483704 
z"/>
<path fill="#F6F6F6" opacity="1.000000" stroke="none" 
	d="
M78.533508,292.463806 
	C74.552872,287.766541 69.074692,283.897522 72.874725,277.548096 
	C83.634102,287.887756 94.674042,298.215851 105.346573,308.910583 
	C108.925415,312.496857 109.641525,317.501617 108.283188,322.440704 
	C107.839340,324.054596 106.777763,326.226868 105.446983,326.755829 
	C92.082314,332.068359 78.860306,338.001923 65.072693,341.904114 
	C54.314156,344.949005 48.607029,338.428131 50.446045,327.297546 
	C51.056782,323.601105 52.261425,320.002808 53.933666,316.530365 
	C53.933666,319.044586 53.854664,321.561737 53.948944,324.072418 
	C54.200256,330.765015 57.638416,334.426514 64.142281,333.015686 
	C72.675613,331.164673 80.983902,328.146973 89.248421,325.232452 
	C94.516251,323.374725 99.529396,320.794830 104.880661,318.440216 
	C95.922943,309.616882 87.348419,301.170959 78.533508,292.463806 
z"/>
<path fill="#F6F6F6" opacity="1.000000" stroke="none" 
	d="
M50.395748,417.552460 
	C50.039776,401.604858 50.039776,385.981506 50.039776,370.144531 
	C57.227421,370.144531 64.329514,369.662476 71.326233,370.313263 
	C76.025444,370.750336 79.337074,374.072266 80.571831,378.955780 
	C81.805038,383.833191 80.239761,387.552094 75.736038,391.504211 
	C78.216805,394.831207 81.759827,397.725677 82.787239,401.336029 
	C85.135941,409.589569 80.793907,415.910797 72.120636,417.063324 
	C65.085854,417.998138 57.881092,417.653748 50.395748,417.552460 
M76.542778,405.127472 
	C76.022285,396.565063 70.856125,394.188782 57.108463,396.267670 
	C57.108463,401.299530 57.108463,406.348694 57.108463,412.014008 
	C61.585827,411.775024 65.973152,412.135406 70.002907,411.101776 
	C72.402565,410.486237 74.240265,407.679840 76.542778,405.127472 
M56.816341,386.267792 
	C57.231953,387.392090 57.716381,389.513062 58.052761,389.489838 
	C62.453548,389.185974 67.025703,389.145630 71.119644,387.756592 
	C72.661690,387.233368 74.013611,383.288696 73.733444,381.126465 
	C73.492622,379.267792 71.015411,376.627289 69.156448,376.272003 
	C65.237122,375.523010 61.075050,376.044189 56.816158,376.044189 
	C56.816158,379.360596 56.816158,382.340363 56.816341,386.267792 
z"/>
<path fill="#F6F6F6" opacity="1.000000" stroke="none" 
	d="
M241.173706,411.799683 
	C241.949326,413.855255 242.601242,415.532013 243.289703,417.302673 
	C238.013733,419.017761 235.261032,417.716095 233.668655,412.302734 
	C231.288681,404.211945 230.886230,404.330322 221.959900,404.330322 
	C211.319199,404.330322 211.006485,404.225128 207.632050,414.257355 
	C205.904755,419.392700 202.542984,417.632935 198.857971,417.763702 
	C204.906403,402.268280 210.645126,387.057465 216.952316,372.086151 
	C217.696411,370.319855 221.559601,369.867584 224.287460,368.669861 
	C230.158478,383.643219 235.604263,397.532043 241.173706,411.799683 
M225.615463,389.888153 
	C224.190384,386.122406 222.765289,382.356628 220.887863,377.395569 
	C218.039154,385.166504 215.672684,391.621887 213.292847,398.113770 
	C218.777756,398.113770 223.460388,398.113770 228.481232,398.113770 
	C227.505600,395.284882 226.702835,392.957275 225.615463,389.888153 
z"/>
<path fill="#F1F1F1" opacity="1.000000" stroke="none" 
	d="
M259.122986,395.999695 
	C259.122986,387.056183 259.122986,378.612579 259.122986,369.934235 
	C261.441193,369.934235 263.370819,369.934235 265.641174,369.934235 
	C265.641174,375.541107 265.641174,380.971771 265.641174,386.747589 
	C267.937378,385.700867 269.756134,384.595367 271.729431,384.020020 
	C280.327179,381.513458 288.341797,386.096039 290.683105,394.711487 
	C293.508209,405.107269 288.387848,415.328583 278.909271,417.918304 
	C272.289734,419.726898 265.796478,418.887238 259.122986,416.540253 
	C259.122986,409.777252 259.122986,403.138458 259.122986,395.999695 
M283.053528,393.689636 
	C280.324432,389.551788 276.570923,388.156342 271.882904,389.761383 
	C267.282135,391.336609 265.743042,394.918915 265.843201,399.505859 
	C265.912018,402.656799 266.009308,405.820526 265.806366,408.959961 
	C265.629639,411.693970 266.624939,412.743896 269.368256,413.038483 
	C281.240723,414.313293 287.254364,406.406830 283.053528,393.689636 
z"/>
<path fill="#F2F2F2" opacity="1.000000" stroke="none" 
	d="
M369.859741,418.851593 
	C357.964050,417.361664 352.433502,408.998169 354.915558,396.885468 
	C357.103516,386.207703 367.052338,381.339996 380.007385,384.976501 
	C380.007385,379.995026 380.007385,375.120148 380.007385,369.975647 
	C382.418060,369.975647 384.354156,369.975647 386.604767,369.975647 
	C386.604767,385.723633 386.604767,401.446533 386.604767,417.179413 
	C381.498352,418.293396 381.498352,418.293396 379.984161,415.268005 
	C376.708130,416.472565 373.489288,417.656128 369.859741,418.851593 
M371.340240,413.066101 
	C375.523499,412.964935 378.834473,410.729004 379.396973,406.928192 
	C380.155182,401.805176 379.556824,396.478333 379.457062,391.240509 
	C379.452087,390.979645 378.672760,390.687683 378.219635,390.488373 
	C373.822662,388.554077 369.391937,388.274200 365.496460,391.381439 
	C360.952515,395.005859 360.328674,400.066528 361.516357,405.406982 
	C362.569733,410.143494 365.388092,413.023438 371.340240,413.066101 
z"/>
<path fill="#EEEEEE" opacity="1.000000" stroke="none" 
	d="
M183.872559,387.841675 
	C180.796722,390.906372 177.976547,393.718079 175.010834,396.674866 
	C179.670288,403.528687 184.309708,410.353058 189.020432,417.282318 
	C183.825623,419.198334 180.772079,417.340118 178.338379,413.038971 
	C176.057541,409.007965 173.181061,405.313995 170.580856,401.492523 
	C162.747681,404.832672 167.064148,411.997833 165.324249,417.573914 
	C163.516037,417.573914 161.616287,417.573914 159.399170,417.573914 
	C159.399170,401.913239 159.399170,386.172546 159.399170,370.057648 
	C161.267593,370.057648 163.304840,370.057648 165.628265,370.057648 
	C165.628265,378.947723 165.628265,387.715088 165.628265,396.796570 
	C173.352127,393.494965 175.787430,382.240936 186.974319,384.325958 
	C185.862549,385.600494 184.995407,386.594604 183.872559,387.841675 
z"/>
<path fill="#EEEEEE" opacity="1.000000" stroke="none" 
	d="
M342.576477,391.955109 
	C336.889954,386.537872 331.324066,388.776581 325.242249,391.395844 
	C324.412048,390.350433 323.426575,389.109528 322.058258,387.386536 
	C328.507263,382.815613 335.286316,381.827576 342.387360,384.240814 
	C348.865845,386.442474 349.924347,391.967682 349.805237,398.028748 
	C349.678406,404.482666 349.776672,410.940979 349.776672,418.467224 
	C346.858856,417.537170 344.742432,416.862549 342.056488,416.006409 
	C339.668549,416.749115 336.316895,418.361908 332.828522,418.752136 
	C326.512573,419.458679 321.534088,415.519653 320.828674,410.041504 
	C319.982208,403.467926 323.195343,398.332001 329.635620,397.060760 
	C333.813721,396.236115 338.177551,396.352356 343.145203,395.998047 
	C343.060791,395.058319 342.938416,393.696045 342.576477,391.955109 
M327.038025,407.621521 
	C328.265289,412.589294 330.873474,414.156769 336.152313,413.099182 
	C341.668060,411.994110 343.973572,408.206024 342.828186,402.130280 
	C333.156830,400.177002 329.717957,401.205231 327.038025,407.621521 
z"/>
<path fill="#F3F3F3" opacity="1.000000" stroke="none" 
	d="
M90.213882,400.237671 
	C96.102486,395.161346 102.800667,396.066162 110.893272,396.784973 
	C109.421974,393.958069 108.899529,391.136780 107.273697,390.168823 
	C102.254936,387.180847 97.083969,388.567657 91.867088,391.396210 
	C90.872185,390.164032 89.883446,388.939484 88.901703,387.723633 
	C94.444717,382.540619 105.326309,381.140564 111.101288,385.367035 
	C113.292122,386.970428 115.574493,389.993530 115.754135,392.516266 
	C116.339417,400.735596 115.973335,409.022644 115.973335,418.339050 
	C113.301239,417.426971 111.261330,416.730682 108.344124,415.734955 
	C101.528061,419.907135 94.448036,420.094940 89.944069,415.504578 
	C86.162735,411.650757 86.165779,406.308411 90.213882,400.237671 
M95.093887,411.784302 
	C98.860435,414.099762 102.666779,413.967468 106.281578,411.608337 
	C109.730400,409.357452 110.648819,406.036865 109.498230,401.505493 
	C106.290855,401.505493 102.971001,401.126099 99.772957,401.588776 
	C94.077843,402.412659 92.599251,405.446869 95.093887,411.784302 
z"/>
<path fill="#F8F8F8" opacity="1.000000" stroke="none" 
	d="
M145.434387,384.275879 
	C150.710175,386.474945 152.702805,390.620728 152.897507,395.495361 
	C153.188339,402.777069 152.973007,410.079010 152.973007,417.652161 
	C150.867325,417.652161 148.963287,417.652161 146.582108,417.652161 
	C146.582108,411.701721 146.628738,405.743805 146.570206,399.786926 
	C146.498444,392.485992 144.534317,389.569794 139.523071,389.097656 
	C134.404968,388.615448 130.107437,392.155640 129.478226,398.611115 
	C128.871872,404.832001 129.347015,411.158356 129.347015,417.657379 
	C126.920143,417.657379 125.158203,417.657379 122.952621,417.657379 
	C122.952621,406.674805 122.952621,395.658203 122.952621,384.413086 
	C125.892578,384.071686 129.237854,382.809631 129.184250,388.603516 
	C133.884354,383.424652 139.238602,382.767395 145.434387,384.275879 
z"/>
<path fill="#FFFFFF" opacity="1.000000" stroke="none" 
	d="
M252.999329,373.155579 
	C252.999344,388.224060 252.999344,402.809143 252.999344,417.696350 
	C250.742050,417.696350 248.677307,417.696350 246.303818,417.696350 
	C246.303818,401.718964 246.303818,385.562805 246.303818,369.202820 
	C248.306412,369.202820 250.245743,369.202820 252.664581,369.202820 
	C252.763672,370.229858 252.881500,371.451019 252.999329,373.155579 
z"/>
<path fill="#FFFFFF" opacity="1.000000" stroke="none" 
	d="
M309.000610,398.999512 
	C309.000610,388.855377 309.000610,379.211182 309.000610,369.284729 
	C311.296967,369.284729 313.367096,369.284729 315.720947,369.284729 
	C315.720947,385.265228 315.720947,401.347473 315.720947,417.715271 
	C313.703003,417.715271 311.632874,417.715271 309.000610,417.715271 
	C309.000610,411.718781 309.000610,405.609131 309.000610,398.999512 
z"/>
<path fill="#EBEBEB" opacity="1.000000" stroke="none" 
	d="
M303.032074,411.873810 
	C303.032074,414.000702 303.032074,415.645020 303.032074,417.600830 
	C300.875305,417.600830 298.977905,417.600830 296.728821,417.600830 
	C296.728821,406.621338 296.728821,395.585968 296.728821,384.333618 
	C298.695587,384.333618 300.483856,384.333618 303.032074,384.333618 
	C303.032074,393.258453 303.032074,402.324860 303.032074,411.873810 
z"/>
<path fill="#EEEEEE" opacity="1.000000" stroke="none" 
	d="
M283.371277,308.369934 
	C279.464783,314.910583 273.540588,315.445129 266.194366,315.006165 
	C271.678192,312.449310 276.310272,310.289581 280.802887,308.194885 
	C278.715912,306.037811 274.941071,303.492706 275.329010,302.286133 
	C276.556305,298.469360 279.340668,295.153259 281.522766,291.643524 
	C282.214722,292.090759 282.906677,292.537994 283.598663,292.985260 
	C282.319763,294.835419 281.040894,296.685577 279.612793,298.751587 
	C281.500031,299.877625 283.549042,301.100189 285.986420,302.554474 
	C285.120667,304.525330 284.343353,306.294861 283.371277,308.369934 
z"/>
<path fill="#F2F2F2" opacity="1.000000" stroke="none" 
	d="
M352.357910,299.040894 
	C354.984711,300.349945 357.302887,301.839966 360.032867,303.594635 
	C358.407593,305.739563 357.062561,307.514648 355.598724,309.446533 
	C353.074707,307.629364 350.851593,306.028870 348.324371,304.209412 
	C349.732117,302.324463 350.890686,300.773163 352.357910,299.040894 
z"/>
<path fill="#F1F1F1" opacity="1.000000" stroke="none" 
	d="
M204.997131,350.900513 
	C206.414963,352.011749 207.535141,352.933960 208.870667,354.033478 
	C207.469086,355.917297 206.224472,357.590118 204.702271,359.636078 
	C202.222412,357.861908 199.999084,356.271301 197.373245,354.392731 
	C198.751038,352.507294 199.982407,350.822266 201.470184,348.786316 
	C202.602234,349.461182 203.650864,350.086304 204.997131,350.900513 
z"/>
<path fill="#F2F2F2" opacity="1.000000" stroke="none" 
	d="
M365.307495,350.261871 
	C368.261444,350.870880 370.978577,351.766479 374.647034,352.975677 
	C372.501495,355.799347 371.182465,357.535278 369.655579,359.544800 
	C367.151184,357.747803 364.931152,356.154846 362.483582,354.398621 
	C363.458069,352.948425 364.264404,351.748474 365.307495,350.261871 
z"/>
<path fill="#FFFFFF" opacity="1.000000" stroke="none" 
	d="
M297.188660,370.983887 
	C299.285461,370.955933 300.912109,370.955933 302.855530,370.955933 
	C302.855530,373.303497 302.855530,375.476410 302.855530,377.885559 
	C300.733276,377.885559 298.663696,377.885559 295.863495,377.885559 
	C296.150238,375.580292 296.434357,373.296051 297.188660,370.983887 
z"/>
<path fill="#050505" opacity="1.000000" stroke="none" 
	d="
M76.436691,405.492920 
	C74.240265,407.679840 72.402565,410.486237 70.002907,411.101776 
	C65.973152,412.135406 61.585827,411.775024 57.108463,412.014008 
	C57.108463,406.348694 57.108463,401.299530 57.108463,396.267670 
	C70.856125,394.188782 76.022285,396.565063 76.436691,405.492920 
z"/>
<path fill="#070707" opacity="1.000000" stroke="none" 
	d="
M56.816250,385.793945 
	C56.816158,382.340363 56.816158,379.360596 56.816158,376.044189 
	C61.075050,376.044189 65.237122,375.523010 69.156448,376.272003 
	C71.015411,376.627289 73.492622,379.267792 73.733444,381.126465 
	C74.013611,383.288696 72.661690,387.233368 71.119644,387.756592 
	C67.025703,389.145630 62.453548,389.185974 58.052761,389.489838 
	C57.716381,389.513062 57.231953,387.392090 56.816250,385.793945 
z"/>
<path fill="#121212" opacity="1.000000" stroke="none" 
	d="
M225.757782,390.258911 
	C226.702835,392.957275 227.505600,395.284882 228.481232,398.113770 
	C223.460388,398.113770 218.777756,398.113770 213.292847,398.113770 
	C215.672684,391.621887 218.039154,385.166504 220.887863,377.395569 
	C222.765289,382.356628 224.190384,386.122406 225.757782,390.258911 
z"/>
<path fill="#050505" opacity="1.000000" stroke="none" 
	d="
M283.233337,394.036926 
	C287.254364,406.406830 281.240723,414.313293 269.368256,413.038483 
	C266.624939,412.743896 265.629639,411.693970 265.806366,408.959961 
	C266.009308,405.820526 265.912018,402.656799 265.843201,399.505859 
	C265.743042,394.918915 267.282135,391.336609 271.882904,389.761383 
	C276.570923,388.156342 280.324432,389.551788 283.233337,394.036926 
z"/>
<path fill="#050505" opacity="1.000000" stroke="none" 
	d="
M370.932129,413.066895 
	C365.388092,413.023438 362.569733,410.143494 361.516357,405.406982 
	C360.328674,400.066528 360.952515,395.005859 365.496460,391.381439 
	C369.391937,388.274200 373.822662,388.554077 378.219635,390.488373 
	C378.672760,390.687683 379.452087,390.979645 379.457062,391.240509 
	C379.556824,396.478333 380.155182,401.805176 379.396973,406.928192 
	C378.834473,410.729004 375.523499,412.964935 370.932129,413.066895 
z"/>
<path fill="#070707" opacity="1.000000" stroke="none" 
	d="
M327.063843,407.228851 
	C329.717957,401.205231 333.156830,400.177002 342.828186,402.130280 
	C343.973572,408.206024 341.668060,411.994110 336.152313,413.099182 
	C330.873474,414.156769 328.265289,412.589294 327.063843,407.228851 
z"/>
<path fill="#0B0B0B" opacity="1.000000" stroke="none" 
	d="
M94.835510,411.489227 
	C92.599251,405.446869 94.077843,402.412659 99.772957,401.588776 
	C102.971001,401.126099 106.290855,401.505493 109.498230,401.505493 
	C110.648819,406.036865 109.730400,409.357452 106.281578,411.608337 
	C102.666779,413.967468 98.860435,414.099762 94.835510,411.489227 
z"/>
</svg>