<?xml version="1.0" encoding="utf-8"?>
<!-- Generator: Adobe Illustrator 27.8.1, SVG Export Plug-In . SVG Version: 6.00 Build 0)  -->
<svg version="1.1" id="Layer_1" xmlns="http://www.w3.org/2000/svg" xmlns:xlink="http://www.w3.org/1999/xlink" x="0px" y="0px"
	 viewBox="0 0 1000 500" style="enable-background:new 0 0 1000 500;" xml:space="preserve">
<style type="text/css">
	.st0{fill:#FFFFFF;}
</style>
<g>
	<path class="st0" d="M294.94,334.09c-1.72-1.78-4.1-2.87-6.6-2.87c-4.83,0-8.73,4.19-8.73,8.95c0,4.76,3.93,8.95,8.78,8.95
		c2.44,0,4.82-1.15,6.54-2.87v2.99c-1.87,1.34-4.16,2.12-6.46,2.12c-6.11,0-11.28-4.97-11.28-11.1c0-6.19,5.08-11.28,11.28-11.28
		c2.41,0,4.53,0.68,6.46,2.12V334.09z"/>
	<path class="st0" d="M305.72,350.99h-2.41v-21.63h3.12c4.1,0,7.92,1.09,7.92,5.97c0,3.33-2.09,5.68-5.42,5.97l6.88,9.7h-2.96
		l-6.53-9.5h-0.61V350.99z M305.72,339.37h0.75c2.73,0,5.48-0.52,5.48-3.88c0-3.55-2.61-3.9-5.51-3.9h-0.71V339.37z"/>
	<path class="st0" d="M326.4,344.85l-2.61,6.14h-2.64l9.98-22.67l9.73,22.67h-2.67l-2.56-6.14H326.4z M331.08,333.95l-3.7,8.66h7.31
		L331.08,333.95z"/>
	<polygon class="st0" points="349.92,331.6 349.92,338.02 357.13,338.02 357.13,340.26 349.92,340.26 349.92,350.99 347.51,350.99 
		347.51,329.36 357.35,329.36 357.35,331.6 	"/>
	<polygon class="st0" points="371.26,350.99 368.86,350.99 368.86,331.6 363.63,331.6 363.63,329.36 376.54,329.36 376.54,331.6 
		371.26,331.6 	"/>
	<path class="st0" d="M396.45,329.36H400c3.93,0,7.23,1.43,7.23,5.85c0,1.75-0.66,3.25-2.12,4.22c2.58,0.63,4.1,2.95,4.1,5.54
		c0,4.3-3.47,6.02-7.75,6.02h-5.02V329.36z M398.85,338.89h0.92c2.73,0,5.05-0.32,5.05-3.67c0-3.27-2.06-3.61-5.02-3.61h-0.95
		V338.89z M398.85,348.75h2.41c2.7,0,5.54-0.66,5.54-3.96c0-3.36-3.21-3.84-5.85-3.84h-2.1V348.75z"/>
	<path class="st0" d="M419.39,342.24c0,1.61-0.05,3.44,0.95,4.82c0.95,1.32,2.78,2.07,4.36,2.07c1.55,0,3.24-0.71,4.24-1.92
		c1.15-1.38,1.06-3.27,1.06-4.97v-12.88h2.41v13.54c0,2.35-0.17,4.22-1.89,5.99c-1.5,1.61-3.65,2.47-5.83,2.47
		c-2.04,0-4.13-0.78-5.6-2.21c-1.89-1.81-2.12-3.79-2.12-6.26v-13.54h2.41V342.24z"/>
	<path class="st0" d="M443.4,350.99h-2.41v-21.63h3.12c4.1,0,7.92,1.09,7.92,5.97c0,3.33-2.09,5.68-5.42,5.97l6.89,9.7h-2.96
		l-6.53-9.5h-0.61V350.99z M443.4,339.37h0.75c2.73,0,5.48-0.52,5.48-3.88c0-3.55-2.61-3.9-5.51-3.9h-0.71V339.37z"/>
	<path class="st0" d="M480.95,340.12c0.05,2.93-0.26,5.33-2.24,7.63c-1.98,2.29-5,3.61-8.01,3.61c-6.08,0-11.13-5.05-11.13-11.13
		c0-6.2,5.05-11.25,11.28-11.25c3.79,0,6.86,1.7,9.15,4.68l-1.75,1.63c-1.81-2.55-4.24-4.07-7.43-4.07c-4.94,0-8.84,4.16-8.84,9.03
		c0,2.3,0.92,4.48,2.52,6.12c1.58,1.58,3.88,2.75,6.14,2.75c3.76,0,7.71-2.75,7.71-6.77h-6.42v-2.24H480.95z"/>
	<polygon class="st0" points="488.66,329.36 499.88,329.36 499.88,331.6 491.06,331.6 491.06,338.02 499.61,338.02 499.61,340.26 
		491.06,340.26 491.06,348.75 499.88,348.75 499.88,350.99 488.66,350.99 	"/>
	<path class="st0" d="M510.69,350.99h-2.41v-21.63h3.12c4.1,0,7.92,1.09,7.92,5.97c0,3.33-2.09,5.68-5.42,5.97l6.89,9.7h-2.96
		l-6.53-9.5h-0.61V350.99z M510.69,339.37h0.75c2.73,0,5.48-0.52,5.48-3.88c0-3.55-2.61-3.9-5.51-3.9h-0.71V339.37z"/>
	<path class="st0" d="M537.93,333.58c-0.86-1.49-1.9-2.35-3.73-2.35c-1.92,0-3.59,1.38-3.59,3.36c0,1.86,1.92,2.72,3.38,3.38
		l1.43,0.63c2.81,1.24,5.19,2.64,5.19,6.09c0,3.78-3.04,6.68-6.8,6.68c-3.47,0-6.05-2.24-6.74-5.6l2.35-0.66
		c0.32,2.21,2.01,4.02,4.34,4.02c2.32,0,4.44-1.78,4.44-4.22c0-2.52-1.98-3.38-3.98-4.3l-1.32-0.58c-2.53-1.15-4.71-2.44-4.71-5.54
		c0-3.35,2.84-5.51,6.05-5.51c2.42,0,4.44,1.23,5.6,3.35L537.93,333.58z"/>
	<path class="st0" d="M573.76,347.95c-1.92,1.72-4.21,3.41-6.91,3.41c-3.3,0-6.32-2.47-6.32-5.91c0-3.62,2.61-5.33,5.31-7.11
		l0.26-0.17c-0.97-1.35-2.15-2.82-2.15-4.59c0-2.73,2.04-4.59,4.74-4.59c2.44,0,4.59,1.72,4.59,4.25c0,2.58-1.95,3.99-3.81,5.39
		l4.56,5.82l2.44-2.84l1.75,1.43l-2.76,3.21l3.67,4.73h-3.04L573.76,347.95z M566.47,340.64c-1.63,1.12-3.59,2.44-3.59,4.64
		c0,2.04,1.78,3.9,3.82,3.9c2.18,0,4.07-1.7,5.63-3.04l-4.83-6.2L566.47,340.64z M568.28,336.73c1.24-0.95,2.7-1.78,2.7-3.5
		c0-1.32-1.09-2.21-2.35-2.21c-1.32,0-2.38,1.03-2.38,2.38c0,1.09,0.71,1.89,1.32,2.76l0.51,0.71L568.28,336.73z"/>
	<path class="st0" d="M608.78,333.58c-0.86-1.49-1.9-2.35-3.73-2.35c-1.92,0-3.59,1.38-3.59,3.36c0,1.86,1.92,2.72,3.38,3.38
		l1.43,0.63c2.81,1.24,5.19,2.64,5.19,6.09c0,3.78-3.04,6.68-6.8,6.68c-3.47,0-6.05-2.24-6.74-5.6l2.35-0.66
		c0.32,2.21,2.01,4.02,4.34,4.02c2.32,0,4.44-1.78,4.44-4.22c0-2.52-1.98-3.38-3.98-4.3l-1.32-0.58c-2.53-1.15-4.71-2.44-4.71-5.54
		c0-3.35,2.84-5.51,6.05-5.51c2.41,0,4.44,1.23,5.6,3.35L608.78,333.58z"/>
	<polygon class="st0" points="632.9,338.14 632.9,329.36 635.31,329.36 635.31,350.99 632.9,350.99 632.9,340.38 621.83,340.38 
		621.83,350.99 619.42,350.99 619.42,329.36 621.83,329.36 621.83,338.14 	"/>
	<path class="st0" d="M647.32,344.85l-2.61,6.14h-2.64l9.98-22.67l9.73,22.67h-2.67l-2.56-6.14H647.32z M652,333.95l-3.7,8.66h7.31
		L652,333.95z"/>
	<polygon class="st0" points="680.05,329.36 683.3,329.36 673.14,339.43 683.64,350.99 680.31,350.99 671.44,341.06 670.85,341.67 
		670.85,350.99 668.43,350.99 668.43,329.36 670.85,329.36 670.85,338.63 	"/>
	<polygon class="st0" points="690.26,329.36 701.48,329.36 701.48,331.6 692.67,331.6 692.67,338.02 701.22,338.02 701.22,340.26 
		692.67,340.26 692.67,348.75 701.48,348.75 701.48,350.99 690.26,350.99 	"/>
	<path class="st0" d="M719.69,333.58c-0.86-1.49-1.9-2.35-3.73-2.35c-1.92,0-3.59,1.38-3.59,3.36c0,1.86,1.92,2.72,3.38,3.38
		l1.44,0.63c2.81,1.24,5.19,2.64,5.19,6.09c0,3.78-3.04,6.68-6.8,6.68c-3.47,0-6.05-2.24-6.74-5.6l2.35-0.66
		c0.32,2.21,2.01,4.02,4.34,4.02c2.32,0,4.44-1.78,4.44-4.22c0-2.52-1.98-3.38-3.98-4.3l-1.32-0.58c-2.53-1.15-4.71-2.44-4.71-5.54
		c0-3.35,2.84-5.51,6.05-5.51c2.42,0,4.44,1.23,5.6,3.35L719.69,333.58z"/>
	<polygon class="st0" points="112.43,148.63 112.43,343.73 255.37,343.73 255.37,339.48 116.68,339.48 116.68,152.89 883.32,152.89 
		883.32,339.48 745.17,339.48 745.17,343.73 887.57,343.73 887.57,148.63 	"/>
	<path class="st0" d="M281.42,206.58h-20.99v73.24h50.39v-19.8h-29.4V206.58z M306.03,264.82v10.2h-40.8v-63.63h11.39v53.44H306.03z
		"/>
	<path class="st0" d="M230.83,228.19V215.9c0-7.99-5.78-9.27-9.25-9.32h-44.92v73.24h57.33V259.6c0-8.96-5.61-14.43-9.54-17.16
		C227.35,240.08,230.83,235.7,230.83,228.19 M218.84,244.7c0.1,0.04,10.36,4.54,10.36,14.9v15.43h-47.73v-63.64h40.09
		c3.73,0.05,4.48,1.77,4.48,4.52v12.28c0,9.2-6.82,11.96-7.09,12.06l-5.64,2.1L218.84,244.7z"/>
	<path class="st0" d="M192.86,239.09h2.4c8.69,0,14.48-1.75,17.68-5.33c2.88-3.23,2.88-7.13,2.88-9.51v-2.4h-22.96V239.09z
		 M197.66,226.65h13.29c-0.14,1.37-0.53,2.73-1.58,3.91c-1.96,2.19-5.89,3.42-11.71,3.68V226.65z"/>
	<path class="st0" d="M195.27,245.95l-2.41-0.01v18.89h23.93v-2.4C216.78,248.51,209.85,246.03,195.27,245.95 M197.66,260.02v-9.24
		c11.23,0.32,13.85,2.53,14.26,9.24H197.66z"/>
	<path class="st0" d="M350.74,241.68h20.8h2.4v-19.83h-23.2V241.68z M355.54,226.65h13.6v10.23h-13.6V226.65z"/>
	<path class="st0" d="M346.07,206.59l-11.52,15.9v57.33h20.99v-23.14h13.6v23.14h21V222.3l-12.22-15.71H346.07z M385.33,275.02
		h-11.4v-23.14h-23.2v23.14h-11.4v-50.98l9.18-12.66h27.04l9.77,12.57V275.02z"/>
	<path class="st0" d="M429.93,206.59l-11.65,15.78v40.83l10.92,16.61h41.56v-29.83h-20.99v10.04h-10.5v-33.37h10.5v11.59h20.99
		v-16.2l-12.3-15.46H429.93z M465.96,233.45h-11.38v-11.59h-20.1v42.97h20.1v-10.04h11.38v20.23h-34.17l-8.71-13.25v-37.82
		l9.27-12.57h23.79l9.82,12.34V233.45z"/>
	<path class="st0" d="M611.4,226.65h18.81v53.17h21v-53.17h21.55v-20.06H611.4V226.65z M616.2,211.38h51.76v10.46h-21.55v53.18
		h-11.4v-53.18H616.2V211.38z"/>
	<path class="st0" d="M813.15,256.68l13.96-11.29v-24.5l-12.46-14.3h-43.13v73.32h21v-23.23H813.15z M787.73,251.88v23.23h-11.4
		v-63.72h36.14l9.85,11.3v20.41l-10.87,8.78H787.73z"/>
	<path class="st0" d="M787.72,241.68h19.85h2.4v-19.83h-22.25V241.68z M792.52,226.65h12.65v10.23h-12.65V226.65z"/>
	<path class="st0" d="M527.84,238.31l12.72-3.33l13.21-28.4h-23.37l-9.59,20.78v-20.78h-21v73.23h21v-27.89
		c2.04,0.92,3.61,2.12,4.98,4.44l12.76,23.44h23.22l-23.31-38.7L527.84,238.31z M541.39,275.02L529.95,254
		c-3.12-5.26-7.38-6.68-10.81-7.81l-3.16-1.04v29.87H504.6v-63.64h11.39v26.38v2.38l2.4,0.63l16.96,4.48l17.93,29.76H541.39z
		 M533.46,211.38h12.78l-9.08,19.53l-14.45,3.78L533.46,211.38z"/>
	<path class="st0" d="M727.23,279.82h21V222.3l-12.22-15.71h-31.85l-11.52,15.9v57.33h21v-23.15h13.6V279.82z M708.84,251.88v23.14
		h-11.4v-50.97l9.17-12.66h27.05l9.77,12.56v51.07h-11.39v-23.14H708.84z"/>
	<path class="st0" d="M732.03,221.85h-23.2v19.83h20.8h2.4V221.85z M727.23,236.88h-13.6v-10.23h13.6V236.88z"/>
</g>
</svg>
