<?xml version="1.0" encoding="utf-8"?>
<!-- Generator: Adobe Illustrator 27.8.1, SVG Export Plug-In . SVG Version: 6.00 Build 0)  -->
<svg version="1.1" id="Layer_1" xmlns="http://www.w3.org/2000/svg" xmlns:xlink="http://www.w3.org/1999/xlink" x="0px" y="0px"
	 viewBox="0 0 1000 500" style="enable-background:new 0 0 1000 500;" xml:space="preserve">
<style type="text/css">
	.st0{fill:#FFFFFF;}
</style>
<g>
	<path class="st0" d="M204.62,278.13c-12.96,0-20.76-12.59-20.76-28.13s7.8-28.13,20.76-28.13c12.96,0,20.76,12.59,20.76,28.13
		S217.59,278.13,204.62,278.13 M204.62,218.09c-17.98,0-32.56,14.29-32.56,31.91s14.58,31.91,32.56,31.91
		c17.98,0,32.56-14.29,32.56-31.91S222.6,218.09,204.62,218.09"/>
	<path class="st0" d="M137.68,276.79h-4.93v-29.2h2.11c7.22,0,19.32,1.98,19.32,15.24C154.19,271.7,148.18,276.79,137.68,276.79
		 M132.76,223.3h5.42c6.96,0,10.79,3.54,10.79,9.98c0,6.98-3.88,10.52-11.52,10.52h-4.69V223.3z M146.05,245.41
		c8.97-2.68,13.33-6.77,13.33-12.5c0-4.37-2.56-8.41-6.67-10.57c-3.56-1.89-9.39-2.84-17.32-2.84h-14.97v1.16
		c2.45,1.18,2.38,5.13,2.38,7.92v42.82c0,2.79,0.07,6.74-2.38,7.92v1.16h18.52c3.76,0,10.97-0.44,17.07-3.42
		c6.12-2.98,9.22-7.56,9.22-13.62C165.23,252.19,155.55,246.81,146.05,245.41"/>
	<path class="st0" d="M239.37,226.2h1.15c2-3.02,5.48-2.99,8.25-2.99h5v48.2h0c0,2.79,0.07,6.74-2.38,7.92v1.16h14.71v-1.16
		c-2.45-1.19-2.38-5.13-2.38-7.92h0v-48.2h5c2.77,0,6.24-0.03,8.25,2.99h1.15v-6.69h-38.75V226.2z"/>
	<path class="st0" d="M288.09,226.2h1.15c2.01-3.02,5.48-2.99,8.25-2.99h5v48.2h0c0,2.79,0.07,6.74-2.38,7.92v1.16h14.71v-1.16
		c-2.45-1.19-2.38-5.13-2.38-7.92h0v-48.2h5c2.77,0,6.24-0.03,8.25,2.99h1.15v-6.69h-38.75V226.2z"/>
	<path class="st0" d="M784.92,226.2h1.15c2.01-3.02,5.48-2.99,8.25-2.99h5v48.2h0c0,2.79,0.07,6.74-2.38,7.92v1.16h14.71v-1.16
		c-2.45-1.19-2.38-5.13-2.38-7.92h0v-48.2h5c2.77,0,6.24-0.03,8.25,2.99h1.15v-6.69h-38.75V226.2z"/>
	<path class="st0" d="M368.91,276.79h-19.2V251v0h13.96c2.81,0,6.83-0.04,7.93,2.38h1.16v-8.45h-1.16
		c-1.09,2.41-5.12,2.38-7.93,2.38H349.7v-24.09h16.65c2.77,0,6.27-0.01,8.25,2.99h1.15v-6.69h-39v1.15c3.11,2.01,3.08,5.65,3.08,8.5
		v41.7c0,2.85,0.02,6.49-3.08,8.5v1.15h41.55v-6.69h-1.15C375.25,276.78,371.68,276.79,368.91,276.79"/>
	<path class="st0" d="M658.24,276.79h-19.21V251v0h13.96c2.81,0,6.83-0.04,7.93,2.38h1.16v-8.45h-1.16
		c-1.09,2.41-5.12,2.38-7.93,2.38h-13.96v-24.09h16.65c2.77,0,6.27-0.01,8.25,2.99h1.15v-6.69h-39v1.15
		c3.11,2.01,3.08,5.65,3.08,8.5v41.7c0,2.85,0.02,6.49-3.08,8.5v1.15h41.55v-6.69h-1.15C664.58,276.78,661.01,276.79,658.24,276.79"
		/>
	<path class="st0" d="M767.16,276.79h-19.2V251v0h13.96c2.81,0,6.83-0.04,7.93,2.38h1.16v-8.45h-1.16
		c-1.09,2.41-5.12,2.38-7.93,2.38h-13.96v-24.09h16.65c2.77,0,6.27-0.01,8.25,2.99H774v-6.69h-39v1.15c3.11,2.01,3.08,5.65,3.08,8.5
		v41.7c0,2.85,0.02,6.49-3.08,8.5v1.15h41.55v-6.69h-1.15C773.51,276.78,769.93,276.79,767.16,276.79"/>
	<path class="st0" d="M465.12,256.94l9.5-24.83l9.49,24.83H465.12z M500.77,272.87l-20.57-53.2l-0.07-0.17h-4.62l-20.44,53.26
		c-0.76,2.12-2.78,5.83-5.17,6.51v1.22h10.48v-1.19c-2.16-1.04-2.67-2.81-1.77-5.2l5.12-13.47h21.84l5.06,13.47
		c0.89,2.38,0.34,4.2-1.78,5.2v1.19h16.4v-1.2C503.06,278.48,501.39,274.36,500.77,272.87"/>
	<path class="st0" d="M433.09,253.14c0,0,4.03,0.58,4.03,6.26c0,11.14-10.03,18.62-19.4,18.62c-7.14,0-12.94-3.03-16.77-8.77
		c-3.27-4.91-4.72-11.74-4.72-19.24c0-7.98,1.45-14.76,4.86-19.63c3.95-5.63,9.82-8.48,17.46-8.48c8.98,0,15.53,3.35,20.17,9.97
		c0.43,0.61,0.82,1.25,1.19,1.91l1.13-0.19v-14.05h-1.13c-1.27,1.22-4.23,1.25-6.27,1.03c-2.3-0.26-4.33-0.82-5.01-1.01
		c-3.4-0.94-7.26-1.46-11.17-1.46c-7.38,0-14.16,2.19-19.62,6.33c-8.02,6.06-13.2,16.32-13.2,26.13c0,8.75,3.5,16.78,9.85,22.6
		c6.17,5.65,14.42,8.77,23.24,8.77c11.57,0,21.02-5.18,26.61-14.59c2.9-4.91,3.64-8.62,4.15-15.31h-15.39V253.14z"/>
	<path class="st0" d="M839.43,256.94l9.49-24.83l9.49,24.83H839.43z M875.09,272.87l-20.57-53.2l-0.07-0.17h-4.63l-20.43,53.26
		c-0.76,2.12-2.77,5.83-5.17,6.51v1.22h10.48v-1.19c-2.16-1.04-2.67-2.81-1.78-5.2l5.12-13.46h21.84l5.06,13.47
		c0.89,2.38,0.35,4.2-1.78,5.2v1.19h16.4v-1.2C877.38,278.48,875.7,274.36,875.09,272.87"/>
	<path class="st0" d="M606.92,220.7c2.47,1.18,2.41,3.27,1.93,4.76L594.37,267l-13.63-40.34c-0.47-1.28-1.31-4.53,1.73-5.97v-1.19
		h-16.4v1.2c2,0.8,3.57,3.98,4.4,6.41l18.18,53.38h5.09l18.56-53.27c0.78-2.26,2.85-5.87,5.17-6.5v-1.22l-10.54,0V220.7z"/>
	<path class="st0" d="M715.63,220.65c1.95,1.25,1.94,5.04,1.93,6.24v33.31l-28.49-40.58l-0.08-0.11H676.9v1.15
		c3,1.93,2.99,5.48,2.99,8.25l0,44.21c0,1.21,0.02,5-1.93,6.24v1.15h7.82v-1.15c-1.95-1.24-1.93-5.04-1.93-6.24v-42.65l35.09,50.04
		h2.57v-53.6c0-1.21-0.02-5,1.93-6.24v-1.14h-7.83V220.65z"/>
</g>
</svg>
