<?xml version="1.0" encoding="utf-8"?>
<!-- Generator: Adobe Illustrator 27.8.1, SVG Export Plug-In . SVG Version: 6.00 Build 0)  -->
<svg version="1.1" id="Layer_1" xmlns="http://www.w3.org/2000/svg" xmlns:xlink="http://www.w3.org/1999/xlink" x="0px" y="0px"
	 viewBox="0 0 1000 500" style="enable-background:new 0 0 1000 500;" xml:space="preserve">
<style type="text/css">
	.st0{fill:#FFFFFF;}
</style>
<g>
	<polygon class="st0" points="685.88,732.16 695,732.16 711.22,760.59 723.13,739.83 709.71,739.83 705.26,732.16 736.58,732.16 
		711.23,776.86 	"/>
	<path class="st0" d="M603.22,762.2c-0.53-1.15-1.25-2.12-2.13-2.87c-0.87-0.74-1.88-1.34-3-1.78c-1.1-0.43-2.23-0.81-3.38-1.12
		c-1.15-0.32-2.28-0.61-3.36-0.88c-1.06-0.26-2.03-0.6-2.88-1c-0.82-0.39-1.48-0.89-1.97-1.51c-0.47-0.59-0.72-1.38-0.72-2.36
		c0-1.06,0.17-1.95,0.51-2.65c0.34-0.7,0.79-1.26,1.35-1.67c0.56-0.42,1.22-0.72,1.95-0.9c0.74-0.18,1.51-0.28,2.28-0.28
		c1.89,0,3.45,0.53,4.65,1.56c1.14,0.98,1.29,1.48,1.83,3.32l0.14,0.48h4.14l-0.05-0.55c-0.14-1.58-0.15-1.79-0.7-3.11
		c-0.57-1.37-1.35-2.53-2.3-3.44c-0.96-0.91-2.1-1.59-3.39-2.01c-1.28-0.42-2.68-0.63-4.17-0.63c-1.33,0-2.64,0.2-3.9,0.61
		c-1.27,0.4-2.42,1.03-3.41,1.85c-1,0.83-1.81,1.9-2.41,3.18c-0.6,1.28-0.9,2.81-0.9,4.55c0,1.59,0.27,2.92,0.81,3.97
		c0.54,1.04,1.26,1.92,2.16,2.61c0.88,0.68,1.9,1.23,3.01,1.63c1.09,0.4,2.23,0.74,3.38,1.03c1.11,0.28,2.24,0.57,3.34,0.87
		c1.06,0.29,2.02,0.67,2.85,1.11c0.81,0.44,1.46,1,1.96,1.69c0.48,0.67,0.72,1.58,0.72,2.68c0,1.18-0.2,2.15-0.6,2.9
		c-0.4,0.74-0.93,1.34-1.58,1.77c-0.66,0.43-1.41,0.75-2.23,0.93c-1.92,0.42-3.83,0.36-5.55-0.18c-0.95-0.3-1.8-0.77-2.53-1.41
		c-0.72-0.63-1.32-1.45-1.76-2.44c-0.45-0.99-0.46-1.02-0.68-2.66l-0.03-0.25h-4.18l0.03,0.32c0.19,2.2,0.31,2.93,0.96,4.48
		c0.64,1.53,1.52,2.82,2.63,3.82c1.1,1,2.4,1.76,3.86,2.24c1.45,0.48,3.01,0.73,4.63,0.73c1.33,0,2.68-0.19,4.02-0.58
		c1.35-0.39,2.58-1,3.67-1.83c1.1-0.83,2-1.91,2.7-3.22c0.7-1.32,1.05-2.92,1.05-4.76C604.02,764.79,603.75,763.36,603.22,762.2"/>
	<polygon class="st0" points="840.86,740.82 840.86,767.14 825.92,740.82 823.58,740.82 820.25,740.82 818.66,740.82 818.66,776.86 
		823.58,776.86 823.58,746.7 840.71,776.86 840.86,776.82 840.86,776.86 845.78,776.86 845.78,740.82 	"/>
	<polygon class="st0" points="763.08,740.82 763.08,745.56 763.08,755.22 763.08,759.96 763.08,772.12 763.08,776.86 768,776.86 
		787.95,776.86 787.95,772.12 768,772.12 768,759.96 781.13,759.96 781.13,755.22 768,755.22 768,745.56 787.95,745.56 
		787.95,740.82 768,740.82 	"/>
	<polygon class="st0" points="634.79,740.82 634.79,745.56 634.79,755.22 634.79,759.96 634.79,772.12 634.79,776.86 639.72,776.86 
		659.67,776.86 659.67,772.12 639.72,772.12 639.72,759.96 652.85,759.96 652.85,755.22 639.72,755.22 639.72,745.56 659.67,745.56 
		659.67,740.82 639.72,740.82 	"/>
</g>
<g>
	<path class="st0" d="M147.17,741.83c2.1,0.07,4.15,0.1,6.16,0.1c0.76-0.03,1.99-0.08,3.69-0.15c1.7-0.07,2.85-0.1,3.45-0.1
		c3.57,0,6.27,0.66,8.09,1.99c1.83,1.33,2.74,3.23,2.74,5.72c0,4-2.15,6.72-6.46,8.17c2.52,0.42,4.45,1.36,5.8,2.8
		c1.35,1.45,2.02,3.29,2.02,5.53c0,3.25-1.18,5.77-3.55,7.54c-2.36,1.78-5.64,2.67-9.83,2.67c-0.83,0-1.73-0.02-2.7-0.07
		c-0.97-0.05-2.06-0.07-3.26-0.07c-1.97,0-3.99,0.02-6.05,0.07l-0.1-1.05l3-0.9c0.41-0.11,0.62-0.37,0.66-0.76
		c0.02-0.65,0.03-1.38,0.04-2.18c0.01-0.8,0.01-1.69,0.01-2.67V748.7c0-0.83,0-1.58-0.01-2.24c-0.01-0.67-0.02-1.27-0.04-1.8
		c-0.02-0.42-0.21-0.7-0.58-0.83l-3.02-0.95L147.17,741.83z M155.65,757.04c1,0.02,2.02,0.02,3.06,0.02c2.39,0,4.2-0.58,5.42-1.74
		c1.22-1.16,1.83-2.85,1.83-5.06c0-2.33-0.63-3.99-1.88-5.01c-1.25-1.02-3.06-1.52-5.42-1.52c-0.42,0-0.88,0.01-1.38,0.04
		c-0.5,0.02-1.04,0.07-1.62,0.13V757.04z M155.65,758.99v14.8c0.48,0.18,1.05,0.29,1.69,0.34c0.64,0.05,1.23,0.07,1.76,0.07
		c2.69,0,4.73-0.67,6.13-2c1.4-1.33,2.1-3.27,2.1-5.8c0-2.53-0.71-4.42-2.12-5.64c-1.42-1.23-3.7-1.84-6.86-1.84
		C157.43,758.91,156.53,758.94,155.65,758.99"/>
	<path class="st0" d="M185.47,768.47c0,0.98,0,1.85,0.01,2.63c0.01,0.78,0.02,1.49,0.04,2.12c0.02,0.5,0.23,0.82,0.63,0.95l2.71,0.8
		l0.07,1.05c-1.93-0.05-3.87-0.07-5.8-0.07c-1.97,0-3.98,0.02-6.05,0.07l-0.1-1.05l3-0.9c0.41-0.11,0.62-0.37,0.66-0.76
		c0.02-0.65,0.03-1.38,0.04-2.18c0.01-0.8,0.01-1.69,0.01-2.67V748.7c0-0.83,0-1.58-0.01-2.24c-0.01-0.67-0.02-1.27-0.04-1.8
		c-0.02-0.42-0.21-0.7-0.58-0.83l-3.02-0.95l-0.05-1.05c2.1,0.07,4.15,0.1,6.15,0.1c0.39,0,0.9-0.01,1.5-0.04
		c0.61-0.02,1.35-0.05,2.22-0.09c0.89-0.03,1.63-0.06,2.22-0.07s1.06-0.03,1.4-0.03c3.74,0,6.55,0.7,8.42,2.1
		c1.87,1.4,2.81,3.44,2.81,6.12c0,2.42-0.64,4.38-1.93,5.89c-1.29,1.5-3.25,2.66-5.88,3.47c1.04,1.56,1.99,3.07,2.87,4.52
		c0.87,1.45,1.68,2.79,2.43,4c0.75,1.21,1.44,2.28,2.06,3.21c0.62,0.93,1.2,1.66,1.74,2.19c0.28,0.28,0.55,0.52,0.83,0.72
		c0.28,0.2,0.56,0.37,0.87,0.5c0.3,0.13,0.62,0.24,0.95,0.34c0.33,0.1,0.7,0.19,1.11,0.29l0.07,1.07c-1.17,0.15-2.15,0.22-2.95,0.22
		c-0.67,0-1.25-0.02-1.76-0.05c-0.51-0.03-0.96-0.1-1.35-0.2c-0.4-0.1-0.75-0.22-1.08-0.38c-0.32-0.15-0.64-0.35-0.95-0.6
		c-0.68-0.5-1.34-1.23-1.99-2.18c-0.65-0.95-1.33-2.03-2.03-3.23c-0.7-1.2-1.43-2.48-2.19-3.84c-0.76-1.36-1.56-2.69-2.4-3.98
		c-0.25-0.39-0.46-0.7-0.63-0.93c-0.17-0.23-0.36-0.41-0.57-0.54c-0.21-0.13-0.44-0.22-0.72-0.27c-0.27-0.05-0.62-0.08-1.05-0.1
		l-1.7-0.05V768.47z M185.47,758.18c0.99,0.05,1.91,0.07,2.75,0.07c2.81,0,4.87-0.6,6.18-1.79c1.31-1.19,1.96-3.07,1.96-5.62
		c0-2.47-0.63-4.27-1.88-5.41c-1.25-1.14-3.21-1.71-5.88-1.71c-0.46,0-0.94,0.02-1.46,0.05c-0.52,0.03-1.08,0.08-1.68,0.15V758.18z"
		/>
	<path class="st0" d="M206.19,741.83c2.1,0.07,4.11,0.1,6.05,0.1c1.95,0,3.96-0.03,6.04-0.1l0.1,1.05l-3.02,0.9
		c-0.39,0.1-0.6,0.35-0.63,0.76c-0.02,0.57-0.03,1.19-0.04,1.86c-0.01,0.67-0.01,1.41-0.01,2.21v13.34c0,4.65,0.74,7.87,2.22,9.67
		c1.48,1.8,3.86,2.69,7.14,2.69c3.33,0,5.75-0.93,7.24-2.78c1.49-1.85,2.24-4.95,2.24-9.29V748.6c0-0.8,0-1.53-0.01-2.21
		c-0.01-0.67-0.03-1.3-0.06-1.86c-0.02-0.37-0.23-0.62-0.63-0.76l-2.85-0.83l-0.05-1.12c2.06,0.07,3.84,0.1,5.31,0.1
		c1.41,0,3.14-0.03,5.17-0.1l0.1,1.05l-3.07,0.95c-0.37,0.13-0.57,0.41-0.59,0.83c-0.02,0.54-0.03,1.14-0.04,1.81
		c-0.01,0.67-0.01,1.41-0.01,2.24v12.51c0,5.33-1.08,9.27-3.25,11.82s-5.59,3.83-10.25,3.83c-4.57,0-7.94-1.15-10.12-3.45
		c-2.18-2.3-3.27-5.87-3.27-10.71V748.7c0-0.83,0-1.58-0.01-2.24c-0.01-0.67-0.02-1.27-0.04-1.81c-0.02-0.42-0.21-0.7-0.59-0.83
		l-3.02-0.95L206.19,741.83z"/>
	<path class="st0" d="M250.09,748.77v19.7c0,1.92,0.02,3.51,0.05,4.78c0.02,0.46,0.22,0.73,0.61,0.83l2.9,0.85l0.05,1.1
		c-2.03-0.05-3.7-0.07-5-0.07c-1.27,0-2.95,0.02-5.05,0.07l-0.1-1.05l3-0.9c0.42-0.13,0.64-0.38,0.66-0.76
		c0.03-1.32,0.05-2.93,0.05-4.85V748.7c0-1.62-0.02-2.97-0.05-4.05c-0.02-0.42-0.21-0.7-0.58-0.83l-3.02-0.95l-0.05-1.05
		c2.1,0.06,3.75,0.1,4.97,0.1c0.73,0,1.47-0.03,2.22-0.1l20.48,25.57v-18.8c0-1.58-0.02-2.93-0.05-4.07
		c-0.02-0.37-0.23-0.62-0.63-0.76l-2.88-0.83l-0.05-1.12c2.08,0.06,3.76,0.1,5.05,0.1c1.3,0,2.97-0.03,5-0.1l0.1,1.05l-3.07,0.95
		c-0.37,0.13-0.57,0.41-0.58,0.83c-0.03,1.07-0.05,2.42-0.05,4.05v27.26l-2.05,0.19L250.09,748.77z"/>
	<path class="st0" d="M307.97,750.33l-0.98,0.15l-1.78-6.41c-2.02-0.5-3.84-0.76-5.49-0.76c-3.98,0-7.11,1.39-9.39,4.17
		c-2.27,2.78-3.41,6.39-3.41,10.82c0,4.74,1.3,8.53,3.9,11.36c2.6,2.83,6.2,4.24,10.8,4.24c2.58,0,5.31-0.5,8.17-1.49l0.27,1.1
		c-3.2,2.21-6.83,3.32-10.87,3.32c-5.25,0-9.5-1.6-12.74-4.8c-3.24-3.2-4.86-7.42-4.86-12.65c0-5.57,1.78-9.99,5.35-13.24
		c3.57-3.25,8.21-4.88,13.93-4.88c2.75,0,5.56,0.33,8.43,1l0.17,0.2L307.97,750.33z"/>
	<path class="st0" d="M322.57,759.09v9.39c0,1.92,0.02,3.53,0.05,4.83c0.02,0.44,0.23,0.71,0.63,0.83l2.71,0.85l0.07,1.05
		c-1.93-0.05-3.87-0.07-5.8-0.07c-1.93,0-3.95,0.02-6.05,0.07l-0.1-1.05l3-0.9c0.42-0.13,0.64-0.38,0.66-0.75
		c0.03-1.32,0.05-2.93,0.05-4.85V748.7c0-1.62-0.02-2.97-0.05-4.05c-0.02-0.42-0.21-0.7-0.58-0.83l-3.02-0.95l-0.05-1.05
		c2.1,0.07,4.11,0.1,6.05,0.1c1.95,0,3.88-0.03,5.78-0.1l0.12,1.05l-2.78,0.85c-0.41,0.1-0.62,0.35-0.63,0.75
		c-0.03,1.17-0.05,2.54-0.05,4.12v8.26h17.75v-8.26c0-1.58-0.02-2.95-0.05-4.12c-0.02-0.41-0.23-0.66-0.63-0.75l-2.71-0.85
		l-0.05-1.05c1.98,0.07,3.94,0.1,5.88,0.1c1.93,0,3.92-0.03,5.95-0.1l0.1,1.05l-3.07,0.95c-0.37,0.13-0.57,0.41-0.59,0.83
		c-0.03,1.07-0.05,2.42-0.05,4.05v19.77c0,1.92,0.02,3.54,0.05,4.85c0.02,0.37,0.24,0.62,0.66,0.75l2.95,0.9l0.05,1.05
		c-2.15-0.05-4.19-0.07-6.14-0.07c-1.93,0-3.83,0.02-5.68,0.07l-0.1-1.05l2.75-0.85c0.41-0.11,0.62-0.39,0.63-0.83
		c0.03-1.3,0.05-2.91,0.05-4.83v-9.39H322.57z"/>
	<path class="st0" d="M386.39,756.96c0.93,0.03,1.85,0.06,2.77,0.07c0.92,0.02,1.86,0.02,2.82,0.02c0.83,0,1.61-0.01,2.33-0.02
		c0.72-0.02,1.41-0.04,2.06-0.07l0.07,1.07l-3.05,0.76c-0.32,0.08-0.46,0.27-0.41,0.56c0.1,0.83,0.15,1.59,0.15,2.29
		c0,3.38-0.83,6.29-2.49,8.73c1.07,1.5,2.05,2.59,2.93,3.29c0.88,0.7,1.9,1.05,3.07,1.05c0.45,0,0.95-0.05,1.49-0.15l0.2,1.07
		c-1.43,0.73-2.92,1.1-4.46,1.1c-2.57,0-4.75-1.09-6.56-3.27c-2.91,2.11-6.15,3.17-9.73,3.17c-3.35,0-6.17-0.81-8.46-2.44
		c-2.29-1.62-3.43-3.83-3.43-6.61c0-3.77,2.36-6.89,7.07-9.36c-1.77-2.08-2.9-3.72-3.4-4.92c-0.5-1.2-0.74-2.44-0.74-3.71
		c0-2.32,0.89-4.18,2.66-5.58c1.77-1.4,3.97-2.1,6.61-2.1c2.32,0,4.27,0.59,5.84,1.78c1.58,1.19,2.37,2.82,2.37,4.9
		c0,3.36-2.49,6.21-7.47,8.53L389,768.52c1.07-1.9,1.61-4.06,1.61-6.48c0-0.99-0.05-1.8-0.15-2.41c-0.05-0.31-0.15-0.53-0.3-0.66
		c-0.15-0.13-0.39-0.23-0.69-0.29l-3.02-0.61L386.39,756.96z M374.47,759.62c-2.31,1.9-3.46,4.28-3.46,7.14
		c0,2.24,0.68,4.02,2.04,5.34s3.25,1.98,5.67,1.98c2.32,0,4.45-0.76,6.39-2.29L374.47,759.62z M377.3,755.87
		c2.29-2.05,3.43-4.42,3.43-7.12c0-1.46-0.32-2.64-0.96-3.52c-0.64-0.89-1.45-1.33-2.43-1.33c-1.02,0-1.84,0.39-2.47,1.16
		c-0.63,0.77-0.94,1.8-0.94,3.08c0,2.13,0.8,4.27,2.4,6.41L377.3,755.87z"/>
	<path class="st0" d="M438.83,750.33l-0.98,0.15l-1.78-6.41c-2.02-0.5-3.84-0.76-5.49-0.76c-3.98,0-7.11,1.39-9.38,4.17
		c-2.28,2.78-3.41,6.39-3.41,10.82c0,4.74,1.3,8.53,3.9,11.36c2.6,2.83,6.2,4.24,10.8,4.24c2.58,0,5.31-0.5,8.17-1.49l0.27,1.1
		c-3.2,2.21-6.83,3.32-10.87,3.32c-5.25,0-9.5-1.6-12.74-4.8c-3.24-3.2-4.86-7.42-4.86-12.65c0-5.57,1.78-9.99,5.35-13.24
		c3.57-3.25,8.21-4.88,13.93-4.88c2.75,0,5.56,0.33,8.43,1l0.17,0.2L438.83,750.33z"/>
	<path class="st0" d="M460.94,741.31l10.83,29.81c0.4,1.12,0.78,1.88,1.11,2.28c0.33,0.4,0.81,0.69,1.43,0.89l2.29,0.68l0.05,1.05
		c-2.13-0.05-4.1-0.07-5.92-0.07c-1.85,0-4.04,0.02-6.56,0.07l-0.1-1.05l2.32-0.68c0.33-0.11,0.56-0.24,0.7-0.38
		c0.14-0.14,0.21-0.35,0.21-0.65c0-0.33-0.08-0.75-0.26-1.28c-0.17-0.53-0.41-1.23-0.72-2.11l-2.29-6.53h-11.75l-2.56,6.51
		c-0.34,0.91-0.61,1.63-0.8,2.17c-0.2,0.54-0.29,0.96-0.29,1.27c0,0.28,0.08,0.48,0.23,0.62c0.15,0.14,0.39,0.26,0.7,0.35l2.27,0.66
		l0.05,1.1c-2.31-0.05-4.19-0.07-5.66-0.07s-3.1,0.02-4.9,0.07l-0.12-1.05l2.46-0.76c0.62-0.2,1.07-0.5,1.37-0.9
		c0.29-0.41,0.62-1.04,0.98-1.9l12.46-29.74L460.94,741.31z M453.16,761.13h10.04l-4.75-13.43L453.16,761.13z"/>
	<path class="st0" d="M487.1,748.6v19.87c0,0.98,0,1.86,0.01,2.66c0.01,0.8,0.02,1.52,0.04,2.17c0.02,0.42,0.23,0.7,0.63,0.83
		l2.71,0.85l0.07,1.05c-1.93-0.05-3.87-0.07-5.8-0.07c-1.97,0-3.98,0.02-6.05,0.07l-0.1-1.05l3-0.9c0.42-0.13,0.64-0.38,0.66-0.76
		c0.02-0.65,0.03-1.38,0.04-2.18s0.01-1.69,0.01-2.67V748.7c0-0.83,0-1.58-0.01-2.24c-0.01-0.67-0.02-1.27-0.04-1.8
		c-0.02-0.42-0.21-0.7-0.58-0.83l-3.02-0.95l-0.05-1.05c2.1,0.07,4.11,0.1,6.04,0.1c1.93,0,3.86-0.03,5.78-0.1l0.12,1.05l-2.78,0.85
		c-0.39,0.1-0.6,0.35-0.63,0.76c-0.02,0.58-0.03,1.22-0.04,1.9C487.1,747.07,487.1,747.81,487.1,748.6 M487.73,758.7l9.82-10.95
		c0.76-0.86,1.38-1.59,1.85-2.18c0.47-0.59,0.71-1.07,0.71-1.43c0-0.33-0.22-0.54-0.66-0.66l-2-0.54l-0.05-1.12
		c1.61,0.07,3.4,0.1,5.39,0.1c1.9,0,3.69-0.03,5.36-0.1l0.1,1.05l-2.46,0.78c-0.75,0.24-1.39,0.62-1.94,1.12
		c-0.54,0.5-1.13,1.1-1.74,1.78l-9.75,10.73l11.09,14.63c0.47,0.62,0.93,1.12,1.39,1.5c0.46,0.38,1.05,0.68,1.78,0.89l2.22,0.68
		l0.05,1.05c-1.36-0.05-3.1-0.07-5.19-0.07c-0.55,0-1.11,0-1.68,0.01c-0.57,0.01-1.14,0.02-1.71,0.04
		c-0.57-1.17-2.07-3.37-4.51-6.61L487.73,758.7z"/>
	<path class="st0" d="M517.57,741.92h5.92c3.64,0,7.48-0.03,11.53-0.1l0.15,0.2l-1.41,7.53l-0.97,0.17l-1.51-5.63h-11.26v13.41h2.22
		c1.69,0,3.58-0.02,5.66-0.05c0.42-0.02,0.7-0.23,0.83-0.63l0.85-3.29l1.32-0.05c-0.05,2.27-0.07,3.96-0.07,5.05
		c0,1.06,0.02,2.72,0.07,4.97l-1.32,0.1l-0.88-3.34c-0.13-0.42-0.38-0.64-0.76-0.66c-2.11-0.03-4.02-0.05-5.73-0.05h-2.19v8.87
		c0,1.8,0.02,3.58,0.05,5.34h11.7l2.97-6.19l1.1-0.19l-0.54,8.48l-0.17,0.17c-4.21-0.05-8.09-0.07-11.65-0.07h-5.8
		c-1.97,0-3.98,0.02-6.05,0.07l-0.1-1.05l3-0.9c0.41-0.11,0.62-0.37,0.66-0.76c0.02-0.65,0.03-1.38,0.04-2.18
		c0.01-0.8,0.01-1.69,0.01-2.67V748.7c0-0.83,0-1.58-0.01-2.24c-0.01-0.67-0.02-1.27-0.04-1.8c-0.02-0.42-0.21-0.7-0.59-0.83
		l-3.02-0.95l-0.05-1.05C513.62,741.89,515.64,741.92,517.57,741.92"/>
</g>
<g>
	<path class="st0" d="M131.32,217.3c3.98,0.12,7.87,0.18,11.69,0.18c1.44-0.06,3.78-0.15,7.01-0.28c3.23-0.12,5.41-0.18,6.54-0.18
		c6.77,0,11.89,1.26,15.36,3.77c3.46,2.51,5.2,6.13,5.2,10.85c0,7.58-4.09,12.75-12.26,15.49c4.78,0.8,8.45,2.57,11.01,5.32
		c2.56,2.75,3.84,6.24,3.84,10.5c0,6.17-2.24,10.94-6.73,14.31c-4.48,3.38-10.7,5.06-18.66,5.06c-1.58,0-3.29-0.05-5.13-0.14
		c-1.84-0.09-3.9-0.14-6.19-0.14c-3.74,0-7.57,0.05-11.49,0.14l-0.19-1.99l5.69-1.71c0.77-0.22,1.19-0.69,1.25-1.43
		c0.03-1.23,0.05-2.61,0.07-4.14c0.02-1.53,0.02-3.21,0.02-5.06v-37.51c0-1.57-0.01-2.99-0.02-4.25c-0.02-1.27-0.04-2.41-0.07-3.42
		c-0.03-0.8-0.4-1.32-1.11-1.57l-5.74-1.8L131.32,217.3z M147.41,246.16c1.9,0.03,3.84,0.05,5.8,0.05c4.54,0,7.97-1.1,10.29-3.31
		c2.32-2.2,3.48-5.4,3.48-9.6c0-4.41-1.19-7.58-3.57-9.5c-2.38-1.93-5.81-2.89-10.29-2.89c-0.8,0-1.68,0.02-2.63,0.07
		c-0.95,0.05-1.98,0.13-3.08,0.25V246.16z M147.41,249.86v28.07c0.92,0.34,1.99,0.56,3.2,0.65c1.21,0.09,2.33,0.14,3.34,0.14
		c5.1,0,8.97-1.27,11.63-3.79c2.66-2.53,3.98-6.2,3.98-11.01s-1.34-8.38-4.03-10.71c-2.69-2.33-7.02-3.49-13.01-3.49
		C150.78,249.72,149.07,249.77,147.41,249.86"/>
	<path class="st0" d="M203.98,267.85c0,1.85,0.01,3.52,0.02,5c0.02,1.48,0.04,2.82,0.07,4.02c0.03,0.96,0.43,1.56,1.2,1.8l5.14,1.53
		l0.14,1.99c-3.67-0.09-7.34-0.14-11.01-0.14c-3.73,0-7.55,0.05-11.47,0.14l-0.19-1.99l5.69-1.71c0.77-0.22,1.19-0.69,1.25-1.43
		c0.03-1.23,0.05-2.61,0.07-4.14c0.02-1.53,0.02-3.21,0.02-5.07v-37.51c0-1.57-0.01-2.99-0.02-4.26c-0.02-1.26-0.04-2.4-0.07-3.42
		c-0.03-0.8-0.4-1.32-1.11-1.57l-5.74-1.8l-0.09-1.99c3.98,0.12,7.86,0.18,11.66,0.18c0.75,0,1.7-0.02,2.85-0.07
		c1.15-0.05,2.55-0.1,4.21-0.16c1.68-0.06,3.08-0.11,4.21-0.14c1.12-0.03,2.01-0.05,2.66-0.05c7.1,0,12.43,1.33,15.98,3.98
		c3.55,2.65,5.33,6.52,5.33,11.61c0,4.59-1.22,8.32-3.66,11.17c-2.44,2.85-6.16,5.05-11.16,6.59c1.97,2.96,3.78,5.82,5.44,8.58
		c1.66,2.76,3.2,5.29,4.62,7.58c1.42,2.3,2.72,4.33,3.91,6.08c1.18,1.76,2.28,3.14,3.3,4.16c0.52,0.52,1.05,0.98,1.57,1.36
		c0.52,0.39,1.07,0.7,1.64,0.95c0.57,0.25,1.17,0.46,1.8,0.65c0.63,0.19,1.33,0.37,2.1,0.56l0.14,2.03
		c-2.22,0.28-4.09,0.42-5.59,0.42c-1.27,0-2.38-0.03-3.34-0.09c-0.96-0.06-1.81-0.18-2.56-0.37c-0.75-0.18-1.43-0.42-2.04-0.72
		c-0.61-0.29-1.21-0.67-1.8-1.13c-1.28-0.96-2.54-2.34-3.78-4.14c-1.23-1.8-2.52-3.85-3.84-6.13c-1.33-2.28-2.71-4.71-4.15-7.29
		c-1.44-2.57-2.95-5.09-4.55-7.56c-0.47-0.74-0.87-1.33-1.2-1.76c-0.33-0.43-0.69-0.77-1.08-1.02c-0.39-0.25-0.84-0.42-1.36-0.51
		c-0.52-0.09-1.18-0.16-1.99-0.19l-3.23-0.09V267.85z M203.98,248.34c1.88,0.09,3.62,0.14,5.23,0.14c5.33,0,9.24-1.13,11.72-3.4
		c2.48-2.27,3.72-5.82,3.72-10.66c0-4.69-1.19-8.11-3.56-10.27c-2.38-2.16-6.09-3.24-11.15-3.24c-0.86,0-1.79,0.03-2.78,0.09
		c-0.99,0.06-2.05,0.16-3.19,0.28V248.34z"/>
	<path class="st0" d="M243.29,217.3c3.98,0.12,7.8,0.19,11.47,0.19c3.7,0,7.52-0.06,11.47-0.19l0.19,1.99l-5.74,1.71
		c-0.74,0.18-1.14,0.66-1.2,1.43c-0.03,1.08-0.05,2.26-0.07,3.54c-0.02,1.28-0.02,2.68-0.02,4.19v25.3c0,8.82,1.4,14.93,4.21,18.34
		c2.81,3.41,7.32,5.11,13.55,5.11c6.32,0,10.9-1.76,13.74-5.27c2.84-3.52,4.26-9.39,4.26-17.62v-25.85c0-1.51-0.01-2.91-0.02-4.19
		c-0.02-1.28-0.06-2.46-0.12-3.54c-0.03-0.71-0.43-1.19-1.2-1.43l-5.41-1.57l-0.09-2.13c3.92,0.12,7.28,0.19,10.08,0.19
		c2.68,0,5.95-0.06,9.8-0.19l0.19,1.99l-5.83,1.8c-0.71,0.25-1.08,0.77-1.11,1.57c-0.03,1.02-0.05,2.16-0.07,3.42
		c-0.02,1.26-0.02,2.68-0.02,4.25v23.73c0,10.11-2.06,17.59-6.17,22.43c-4.12,4.84-10.6,7.26-19.45,7.26
		c-8.66,0-15.06-2.18-19.19-6.55c-4.13-4.36-6.2-11.14-6.2-20.32v-26.55c0-1.57-0.01-2.99-0.02-4.25c-0.02-1.26-0.04-2.41-0.07-3.42
		c-0.03-0.8-0.4-1.32-1.11-1.57l-5.74-1.8L243.29,217.3z"/>
	<path class="st0" d="M326.59,230.48v37.37c0,3.64,0.03,6.66,0.09,9.07c0.03,0.86,0.42,1.39,1.16,1.57l5.5,1.62l0.09,2.08
		c-3.86-0.09-7.02-0.14-9.48-0.14c-2.4,0-5.59,0.05-9.57,0.14l-0.18-1.99l5.69-1.71c0.8-0.25,1.22-0.72,1.25-1.43
		c0.06-2.5,0.09-5.57,0.09-9.21v-37.51c0-3.08-0.03-5.64-0.09-7.68c-0.03-0.8-0.4-1.32-1.11-1.57l-5.74-1.8l-0.09-1.99
		c3.98,0.12,7.12,0.19,9.43,0.19c1.39,0,2.79-0.06,4.21-0.19l38.85,48.52v-35.66c0-2.99-0.03-5.56-0.09-7.72
		c-0.03-0.71-0.43-1.19-1.2-1.43l-5.46-1.57l-0.09-2.13c3.95,0.12,7.14,0.19,9.57,0.19c2.47,0,5.63-0.06,9.48-0.19l0.18,1.99
		l-5.83,1.8c-0.71,0.25-1.08,0.77-1.11,1.57c-0.06,2.04-0.09,4.59-0.09,7.68v51.71l-3.89,0.37L326.59,230.48z"/>
	<path class="st0" d="M436.38,233.44l-1.85,0.28l-3.38-12.16c-3.82-0.95-7.29-1.43-10.41-1.43c-7.55,0-13.49,2.64-17.81,7.91
		c-4.32,5.27-6.47,12.12-6.47,20.54c0,9,2.47,16.19,7.4,21.55c4.93,5.37,11.76,8.05,20.49,8.05c4.9,0,10.07-0.94,15.49-2.82
		l0.51,2.08c-6.08,4.19-12.95,6.29-20.63,6.29c-9.96,0-18.02-3.04-24.17-9.11c-6.15-6.07-9.23-14.08-9.23-24
		c0-10.57,3.38-18.95,10.15-25.11c6.77-6.17,15.58-9.25,26.43-9.25c5.21,0,10.54,0.63,16,1.9l0.32,0.37L436.38,233.44z"/>
	<path class="st0" d="M464.09,250.05v17.81c0,3.64,0.03,6.69,0.09,9.16c0.03,0.83,0.43,1.36,1.2,1.57l5.14,1.62l0.14,1.99
		c-3.67-0.09-7.34-0.14-11.01-0.14c-3.67,0-7.49,0.05-11.47,0.14l-0.19-1.99l5.69-1.71c0.8-0.25,1.22-0.72,1.25-1.43
		c0.06-2.5,0.09-5.57,0.09-9.21v-37.51c0-3.08-0.03-5.64-0.09-7.68c-0.03-0.8-0.4-1.32-1.11-1.57l-5.74-1.8l-0.09-1.99
		c3.98,0.12,7.8,0.19,11.47,0.19c3.7,0,7.35-0.06,10.96-0.19l0.23,1.99l-5.27,1.62c-0.77,0.18-1.17,0.66-1.2,1.43
		c-0.06,2.22-0.09,4.83-0.09,7.82v15.68h33.67v-15.68c0-2.99-0.03-5.59-0.09-7.82c-0.03-0.77-0.43-1.25-1.2-1.43l-5.13-1.62
		l-0.09-1.99c3.76,0.12,7.48,0.19,11.15,0.19c3.67,0,7.43-0.06,11.28-0.19l0.19,1.99l-5.83,1.8c-0.71,0.25-1.08,0.77-1.11,1.57
		c-0.06,2.04-0.09,4.6-0.09,7.68v37.51c0,3.64,0.03,6.71,0.09,9.21c0.03,0.71,0.45,1.19,1.25,1.43l5.59,1.71l0.09,1.99
		c-4.07-0.09-7.95-0.14-11.66-0.14c-3.67,0-7.26,0.05-10.78,0.14l-0.18-1.99l5.23-1.62c0.77-0.22,1.17-0.74,1.2-1.57
		c0.06-2.46,0.09-5.52,0.09-9.16v-17.81H464.09z"/>
	<path class="st0" d="M585.17,246.02c1.76,0.06,3.51,0.11,5.25,0.14c1.74,0.03,3.52,0.05,5.34,0.05c1.57,0,3.05-0.02,4.42-0.05
		c1.37-0.03,2.68-0.08,3.91-0.14l0.14,2.04l-5.78,1.43c-0.62,0.15-0.88,0.51-0.79,1.06c0.19,1.57,0.28,3.02,0.28,4.35
		c0,6.41-1.57,11.93-4.72,16.56c2.04,2.84,3.89,4.92,5.55,6.24c1.67,1.33,3.61,1.99,5.83,1.99c0.86,0,1.8-0.09,2.82-0.28l0.37,2.04
		c-2.71,1.39-5.53,2.08-8.46,2.08c-4.87,0-9.02-2.07-12.44-6.2c-5.52,4.01-11.68,6.01-18.46,6.01c-6.35,0-11.7-1.54-16.05-4.63
		c-4.34-3.08-6.52-7.26-6.52-12.53c0-7.15,4.47-13.07,13.41-17.76c-3.36-3.95-5.51-7.06-6.45-9.34c-0.94-2.28-1.41-4.63-1.41-7.03
		c0-4.41,1.68-7.94,5.04-10.59c3.36-2.65,7.54-3.98,12.53-3.98c4.39,0,8.09,1.13,11.09,3.38c3,2.25,4.49,5.35,4.49,9.29
		c0,6.38-4.72,11.78-14.17,16.19l19.72,21.6c2.04-3.61,3.05-7.71,3.05-12.3c0-1.88-0.09-3.41-0.28-4.58c-0.09-0.58-0.28-1-0.58-1.25
		c-0.29-0.25-0.73-0.43-1.32-0.56l-5.74-1.16L585.17,246.02z M562.55,251.06c-4.38,3.61-6.57,8.13-6.57,13.55
		c0,4.26,1.29,7.63,3.86,10.13c2.57,2.5,6.16,3.75,10.75,3.75c4.41,0,8.45-1.45,12.12-4.35L562.55,251.06z M567.93,243.94
		c4.34-3.88,6.51-8.39,6.51-13.51c0-2.77-0.61-5-1.83-6.68c-1.22-1.68-2.75-2.52-4.61-2.52c-1.94,0-3.5,0.73-4.69,2.2
		c-1.19,1.46-1.78,3.42-1.78,5.85c0,4.04,1.52,8.09,4.55,12.16L567.93,243.94z"/>
	<path class="st0" d="M684.65,233.44l-1.85,0.28l-3.38-12.16c-3.82-0.95-7.29-1.43-10.41-1.43c-7.55,0-13.49,2.64-17.81,7.91
		c-4.32,5.27-6.48,12.12-6.48,20.54c0,9,2.47,16.19,7.4,21.55c4.93,5.37,11.76,8.05,20.49,8.05c4.9,0,10.07-0.94,15.49-2.82
		l0.51,2.08c-6.07,4.19-12.95,6.29-20.63,6.29c-9.96,0-18.01-3.04-24.17-9.11c-6.15-6.07-9.23-14.08-9.23-24
		c0-10.57,3.38-18.95,10.15-25.11c6.77-6.17,15.58-9.25,26.43-9.25c5.21,0,10.54,0.63,16,1.9l0.32,0.37L684.65,233.44z"/>
	<path class="st0" d="M726.6,216.33l20.54,56.56c0.77,2.13,1.47,3.57,2.1,4.32c0.63,0.76,1.53,1.32,2.71,1.69l4.35,1.3l0.09,1.99
		c-4.04-0.09-7.79-0.14-11.24-0.14c-3.51,0-7.66,0.05-12.44,0.14l-0.18-1.99l4.39-1.3c0.62-0.21,1.05-0.45,1.32-0.72
		c0.26-0.26,0.39-0.67,0.39-1.23c0-0.62-0.16-1.42-0.49-2.43c-0.32-1-0.78-2.34-1.36-4l-4.35-12.4h-22.29l-4.86,12.35
		c-0.65,1.73-1.16,3.1-1.53,4.12c-0.37,1.02-0.56,1.82-0.56,2.41c0,0.52,0.15,0.92,0.44,1.18c0.29,0.26,0.73,0.49,1.32,0.67
		l4.3,1.25l0.09,2.08c-4.38-0.09-7.95-0.14-10.73-0.14s-5.87,0.05-9.3,0.14l-0.23-1.99l4.67-1.43c1.17-0.37,2.04-0.94,2.59-1.71
		c0.55-0.77,1.17-1.97,1.85-3.61l23.63-56.42L726.6,216.33z M711.85,253.93h19.06l-9.02-25.48L711.85,253.93z"/>
	<path class="st0" d="M776.23,230.16v37.69c0,1.85,0.01,3.53,0.02,5.04c0.02,1.51,0.04,2.88,0.07,4.12c0.03,0.8,0.43,1.32,1.2,1.57
		l5.13,1.62l0.14,1.99c-3.67-0.09-7.34-0.14-11.01-0.14c-3.73,0-7.55,0.05-11.47,0.14l-0.18-1.99l5.69-1.71
		c0.8-0.25,1.22-0.72,1.25-1.43c0.03-1.23,0.06-2.61,0.07-4.14c0.02-1.53,0.02-3.21,0.02-5.07v-37.51c0-1.57-0.01-2.99-0.02-4.26
		c-0.02-1.26-0.04-2.4-0.07-3.42c-0.03-0.8-0.4-1.32-1.11-1.57l-5.74-1.8l-0.09-1.99c3.98,0.12,7.8,0.19,11.47,0.19
		c3.67,0,7.32-0.06,10.96-0.19l0.23,1.99l-5.27,1.62c-0.74,0.18-1.14,0.66-1.2,1.43c-0.03,1.11-0.05,2.31-0.07,3.61
		C776.24,227.24,776.23,228.65,776.23,230.16 M777.43,249.31l18.64-20.77c1.45-1.63,2.62-3.01,3.52-4.14
		c0.89-1.12,1.34-2.03,1.34-2.71c0-0.62-0.42-1.03-1.25-1.25l-3.79-1.02l-0.09-2.13c3.05,0.12,6.46,0.19,10.22,0.19
		c3.61,0,7-0.06,10.17-0.19l0.19,1.99l-4.67,1.48c-1.42,0.46-2.64,1.17-3.68,2.13c-1.03,0.96-2.14,2.08-3.31,3.38l-18.5,20.35
		l21.04,27.75c0.89,1.17,1.77,2.12,2.64,2.84c0.86,0.72,1.99,1.29,3.38,1.69l4.21,1.3l0.09,1.99c-2.59-0.09-5.87-0.14-9.85-0.14
		c-1.05,0-2.11,0.01-3.19,0.02c-1.08,0.02-2.16,0.04-3.24,0.07c-1.08-2.22-3.93-6.4-8.56-12.53L777.43,249.31z"/>
	<path class="st0" d="M834.04,217.49h11.24c6.91,0,14.2-0.06,21.88-0.19l0.28,0.37l-2.68,14.29l-1.85,0.32l-2.87-10.68h-21.37v25.44
		h4.21c3.21,0,6.78-0.03,10.73-0.09c0.8-0.03,1.33-0.43,1.57-1.2l1.62-6.24l2.5-0.09c-0.09,4.32-0.14,7.51-0.14,9.57
		c0,2.01,0.05,5.15,0.14,9.43l-2.5,0.19l-1.66-6.34c-0.25-0.8-0.73-1.22-1.43-1.25c-4.01-0.06-7.63-0.09-10.87-0.09h-4.16v16.84
		c0,3.42,0.03,6.8,0.09,10.13h22.2l5.64-11.75l2.08-0.37l-1.02,16.09l-0.32,0.32c-7.99-0.09-15.35-0.14-22.11-0.14h-11.01
		c-3.73,0-7.55,0.05-11.47,0.14l-0.19-1.99l5.69-1.71c0.77-0.22,1.19-0.69,1.25-1.43c0.03-1.23,0.05-2.61,0.07-4.14
		c0.02-1.53,0.02-3.21,0.02-5.07v-37.51c0-1.57-0.01-2.99-0.02-4.26c-0.02-1.26-0.04-2.4-0.07-3.42c-0.03-0.8-0.4-1.32-1.11-1.57
		l-5.74-1.8l-0.09-1.99C826.55,217.42,830.37,217.49,834.04,217.49"/>
</g>
</svg>
