<?xml version="1.0" encoding="utf-8"?>
<!-- Generator: Adobe Illustrator 27.8.1, SVG Export Plug-In . SVG Version: 6.00 Build 0)  -->
<svg version="1.1" id="Layer_1" xmlns="http://www.w3.org/2000/svg" xmlns:xlink="http://www.w3.org/1999/xlink" x="0px" y="0px"
	 viewBox="0 0 1000 500" style="enable-background:new 0 0 1000 500;" xml:space="preserve">
<style type="text/css">
	.st0{fill:#FFFFFF;}
</style>
<g>
	<path class="st0" d="M700.65,111.22c-1.98,4.26-6.16,6.35-10.57,4.99c-2.71-0.83-5.49-1.69-6.34-5.04
		c-0.51-2.01-0.16-3.45,1.78-4.36c0.21-0.1,0.4-0.24,0.61-0.34c1.75-0.83,3.78-1.5,3.78-3.9c0-2.42-1.86-3.61-3.64-4.77
		c-0.59-0.38-1.2-0.71-1.78-1.06c0.42,2.57-0.75,5.4-2.64,5.9c-4.61,1.23-7.12,0.52-8.91-2.28c-0.08-0.13-0.13-0.28-0.19-0.43
		c-2.46-6.28-6.2-6.46-12.1-4.05c-6.64,2.72-11.74,7.59-16.1,13.15c-4.81,6.15-8.99,12.82-14.11,18.68
		c-5.05,5.76-11.36,9.97-19.22,11.4c-7.59,1.38-14.38-0.71-20.84-4.41c-7.73-4.42-14.26-10.13-18.33-18.24
		c-3.47-6.93-3.76-14.3-2.67-22.05c-2.08,2.41-4.05,4.63-5.94,6.91c-4.83,5.85-10.9,9.87-18.21,11.72
		c-10.11,2.56-19.51,0.4-28.18-5.15c-8.28-5.31-14.03-12.56-16.45-22.24c-0.16-0.66-0.29-1.33-0.51-2.36
		c-4.24,16.65-14.74,26.87-31.08,30.09c-17.26,3.4-29-5.79-38.53-19.61c2.64,14.99-2.17,26.52-13.34,35.65
		c-5.21,4.25-10.8,7.6-17.43,9.24c-9.07,2.26-16.98-0.15-24.17-5.55c-7.39-5.57-12.25-13.29-17.53-20.73
		c-5.39-7.59-11.83-14.3-21.08-17.38c-4.44-1.49-6.68-0.5-8.79,3.68c-1.99,3.95-5.56,5.35-9.73,3.99c-2.84-0.92-3.02-3.19-3.01-5.9
		c-1.18,0.69-2.14,1.15-3,1.75c-3.28,2.29-3.12,5.47,0.33,7.46c0.4,0.23,0.82,0.43,1.24,0.63c2.63,1.3,3.16,3.17,1.83,5.8
		c-2.25,4.45-11.24,5.44-14.57,1.7c-0.69-0.78-1.06-1.85-1.62-2.88c-2.26,3.08-1.86,6.35-0.54,9.44c0.92,2.16,2.33,4.21,3.88,6
		c2.4,2.74,4.63,2.57,7.48,0.3c1.89-1.5,3.99-2.88,6.22-3.76c2.73-1.09,4.81-0.15,5.45,1.44c2.81-0.24,5.45-0.55,8.1-0.67
		c1.68-0.07,2.82,1.39,2.18,2.96c-0.66,1.64-1.78,3.09-2.7,4.64c0.09,1.61,0.19,3.5,0.27,5.13c1.04,0,2.57,0.02,4.1-0.01
		c1.71-0.03,3,0.51,3.76,2.18c0.8,1.75,0.22,3.2-0.86,4.46c-2.18,2.53-5.15,3.61-8.32,4.24c-7.33,1.45-14.09-0.55-20.67-3.52
		c-4.87-2.2-9.56-4.68-12.09-9.72c-4.71-9.4-6.75-18.87,0.21-28.16c4.67-6.22,10.94-10.19,18.27-12.63c5.98-1.99,12-2.35,18.33-1.9
		c12.04,0.87,19.58,7.93,25.83,17.19c4.26,6.3,8.33,12.72,13.94,18.01c3.71,3.49,8.04,5.74,12.74,7.35
		c2.43,0.83,4.13-0.11,5.98-2.88c2.31-3.46,4.06-4.2,7.31-3.11c2.27,0.77,2.85,1.59,3.24,4.87c1.06-0.61,2.07-1.09,2.97-1.74
		c2.08-1.48,2.06-3.47-0.07-4.91c-1.39-0.94-3.64-1.71-2.93-3.59c0.63-1.66,2.34-3.24,3.98-4.11c3.76-2,9.1-0.47,9.78,3.73
		c1.65-1.81,2.16-4.03,1.57-6.06c-0.71-2.45-1.98-4.79-3.36-6.95c-1.1-1.71-2.88-1.5-4.53-0.47c-2.33,1.46-4.47,3.52-7.52,3.1
		c-1.16-0.16-2.27-0.78-3.79-1.34h-6.98c-0.38-2.25-0.41-4.14,1.87-5.33c0.4-0.21,0.62-1.01,0.67-1.55
		c0.11-1.09,0.03-2.19,0.03-3.56c-0.73,0-1.71-0.09-2.68,0.02c-1.63,0.17-3.1-0.48-3.25-1.95c-0.13-1.27,0.44-3.16,1.38-3.87
		c1.66-1.26,3.78-2.35,5.82-2.6c8.51-1.07,16.03,1.79,22.33,7.25c5.66,4.91,6.32,11.72,5.54,18.62c7.08-7.31,8.1-29.84-0.39-36.75
		c-2.01,0.27-3.74,1.02-4.82,0.47c-0.75-0.38-0.6-2.54-0.89-4.16h-2.06c0.02,0.23-0.02,0.41,0.04,0.53
		c0.54,1.08,1.11,2.15,1.67,3.22c-1.22,0.57-2.4,1.28-3.68,1.67c-0.87,0.26-1.88,0.05-2.82,0.05c-2.77,0-4.49-1.01-4.75-2.8
		c-0.34-2.4,1.46-4.98,3.86-5.7c5.16-1.54,9.35,0.55,12.87,3.88c2.29,2.17,4.01,4.98,5.79,7.64c2.14,3.18,3.67,6.85,6.18,9.68
		c5.05,5.72,10.48,11.16,17.92,13.86c1.36,0.5,2.77,1.16,4.17,1.18c2.04,0.02,3.44-1.27,4.53-3.06c2.04-3.33,4.08-4.05,7.4-2.99
		c2.78,0.9,3.21,1.6,2.78,4.79c0.9-0.42,1.85-0.62,2.47-1.18c3.2-2.87,3.29-3.75-0.05-5.96c-3.12-2.06-2.9-4.89,0.48-6.73
		c2.27-1.23,4.67-1.95,7.1-0.79c1.57,0.76,2.91,1.98,4.61,3.17c1.06-1.14,1.51-3.16,1.13-5.19c-0.56-3-1.66-5.88-4.32-7.7
		c-0.64-0.44-1.91-0.47-2.66-0.15c-2.46,1.04-4.78,2.41-7.23,3.48c-0.72,0.32-2.08,0.47-2.46,0.06c-2.08-2.24-4.65-0.96-6.99-1.27
		c-0.92-0.12-2.57-0.54-2.58-0.83c0-1.21,0.35-2.49,0.85-3.63c0.28-0.64,1.1-1.03,1.54-1.42v-4.5c-0.78,0-1.76,0.04-2.73-0.01
		c-2.9-0.16-4.22-2.55-2.55-4.89c0.78-1.08,1.97-2.1,3.2-2.59c6.83-2.7,13.25-1.22,19.5,2.1c3.47,1.84,6.91,3.66,8.97,7.16
		c2.71,4.61,3.71,9.58,2.73,14.89c-0.06,0.3-0.01,0.62-0.01,1.02c9.03-11.25,6.41-33.37-1.12-37.49c-2.43,2.12-3.53,1.97-4.78-0.66
		c-0.76,3.56-8.95,3.98-11.12,1.31c-1.59-1.93-0.24-5.71,2.56-6.7c4.01-1.42,7.83-0.74,11.27,1.68c6.22,4.37,9.38,10.72,11.21,17.88
		c0.19,0.72,0.43,1.44,0.65,2.2c1.74-8.38,5.04-15.61,12.36-20.54c3.52-2.37,10.2-2.57,12.55,0.25c2.19,2.64,1.67,5.63-1.68,6.41
		c-1.94,0.45-4.15,0.36-6.12-0.07c-2.74-0.6-3.02-2.15-1.04-4.12c0.27-0.26,0.56-0.5,1-0.88h-3.27c0.99,1.59,1.14,3.47-0.46,4.31
		c-0.95,0.49-2.63-0.42-4.53-0.81c-7.33,6.14-8.82,24.99-0.47,37.37c0-2.57-0.09-4.54,0.01-6.5c0.28-5.04,1.59-9.82,5.76-12.95
		c4.69-3.51,9.78-6.27,15.87-6.98c4.11-0.47,7.75-0.01,11.33,2.04c1.95,1.12,2.35,2.74,1.93,4.53c-0.43,1.8-2.09,2.1-3.75,2.05
		c-0.62-0.02-1.25,0-2.14,0c0.11,0.36,0.2,0.59,0.24,0.82c0.29,1.86-0.62,4,1.85,5.31c0.72,0.39,1.08,2.32,0.83,3.36
		c-0.13,0.53-1.98,0.8-3.08,0.87c-1.3,0.09-2.61-0.2-3.92-0.26c-0.34-0.02-0.79,0.1-1.03,0.32c-2.58,2.48-5.11,1.3-7.63-0.07
		c-0.81-0.43-1.58-0.96-2.35-1.46c-2.7-1.74-3.81-1.68-5.71,0.69c-2.78,3.45-3.96,9.76-0.87,12.42c0.59-3.51,4.34-5.58,8.44-4.34
		c1.54,0.47,3.05,1.53,4.2,2.69c1.46,1.46,1.1,3.6-0.41,4.67c-1.32,0.94-3.46,1.3-2.99,3.61c0.48,2.34,2.37,3.26,4.42,3.98
		c0.82-4.94,4.43-6.76,8.29-4.19c0.92,0.61,1.63,1.63,2.28,2.57c2.2,3.21,3.08,3.35,6.59,2.37c4.74-1.32,8.73-4.08,12.57-7.18
		c4.61-3.72,8.22-8.26,11.5-13.08c2.03-2.97,3.16-6.65,5.51-9.28c2.28-2.54,5.42-4.5,8.51-6.05c2.51-1.25,5.42-0.92,8.02,0.65
		c1.9,1.15,2.86,3.12,2.16,5.38c-0.56,1.82-2.13,2.33-3.84,2.34c-2.7,0.01-5.56,0.5-7.48-2.16c-1.58,1.77-2.8,1.72-5.08-0.13
		c-7.47,5.74-9.81,25.47-1.02,37.69c0-1.91,0.03-3.52,0-5.13c-0.11-4.47,0.79-8.71,3.82-12.09c1.71-1.9,3.9-3.45,6.06-4.88
		c5.14-3.43,10.9-4.9,17.02-4.21c2.27,0.26,4.52,1.39,6.57,2.5c1.7,0.93,2.04,3,1.31,4.55c-0.39,0.81-2.19,1.02-3.4,1.33
		c-0.73,0.18-1.55,0.03-2.26,0.03V105c0.12-0.08,0.24-0.16,0.36-0.24c0.83,1.23,1.85,2.38,2.44,3.71c0.46,1.05,0.22,2.21-1.39,2.24
		c-1.43,0.02-2.85,0.01-4.28,0.01c-0.98,0.01-1.84-0.22-2.8,0.73c-1.42,1.41-5.7,0.85-7.63-0.79c-5.31-4.49-7.35-2.55-9.51,2.7
		c-1.22,2.96-1.88,6.21,0.93,9.07c0.63-3.07,4.25-5.34,7.4-4.56c1.61,0.4,3.2,1.13,4.59,2.03c2.16,1.4,2.19,4.36,0.08,5.67
		c-1.4,0.87-3.51,1.59-2.92,3.32c0.53,1.57,2.41,2.68,3.72,3.96c0.19,0.19,0.57,0.18,0.86,0.26c0.29-1.28,0.24-2.85,0.97-3.8
		c1.53-2.02,5.71-2,7.53-0.18c0.93,0.93,1.87,1.93,2.5,3.07c1.28,2.32,3.19,2.51,5.39,1.89c7.78-2.22,13.7-7.05,18.38-13.47
		c3.96-5.43,7.54-11.13,11.63-16.45c4.84-6.3,11.08-10.98,19.07-12.24c13.19-2.08,25.28,0.63,35.59,9.62
		c3.67,3.2,6.99,6.76,7.89,11.63c0.65,3.51,0.9,7.26,0.38,10.77c-0.92,6.33-3.4,12.26-8.78,16.12c-4.7,3.36-9.98,5.81-15.73,7.08
		c-5.17,1.14-10.25,1.35-15.32-0.49c-4.09-1.49-5.89-3.49-5.91-6.53c-0.01-2.03,1.04-3.09,2.82-3.31c1.75-0.22,3.54-0.05,5.04-0.05
		c0.19-1.36,0.51-2.98,0.59-4.6c0.03-0.58-0.46-1.23-0.82-1.78c-0.46-0.71-1.16-1.29-1.53-2.04c-1.4-2.9-0.44-4.4,2.72-4.39
		c1.26,0,2.64-0.26,3.74,0.18c1.77,0.7,2.85,0.43,4.52-0.65c2.14-1.4,4.85-0.47,7.04,0.76c1.53,0.86,2.78,2.2,4.24,3.21
		c2.61,1.83,4.85,1.74,6.79-0.64c2.77-3.39,5.09-7.1,4.57-11.79C701.58,113.74,701.02,112.49,700.65,111.22 M581.82,122.37
		c0.5,2.89,2.75,4.2,4.64,5.85c0.21-0.19,0.43-0.39,0.64-0.59c-1.78-1.73-3.56-3.46-5.33-5.2c-1.72-4.47-0.97-8.57,1.74-12.46
		c2.37-3.4,5.72-4,8.94-1.52c1.16,0.89,2.39,1.76,3.73,2.31c1.6,0.66,3.36,1.06,4.6-0.54c-1-1.59-3.98-1.31-3.28-4.5
		c0.7,0.4,1.19,0.7,1.7,0.96c1.83,0.93,3.62,1.99,5.54,2.68c0.81,0.29,1.92-0.21,2.9-0.36c-0.51-0.97-0.87-2.09-1.59-2.86
		c-0.72-0.78-1.82-1.22-2.75-1.81c0.27-0.08,0.54-0.16,0.81-0.24c0.1-0.76,0.55-1.81,0.21-2.24c-0.77-0.99-1.8-2.09-2.93-2.4
		c-2.29-0.61-4.71-0.97-7.08-0.99c-5.9-0.06-13.59,4.22-14.71,11.32c-0.39,2.52-0.45,5.2-0.08,7.72
		C579.76,119.2,581.02,120.74,581.82,122.37 M486.95,98.7c0.33-0.14,0.89-0.22,0.94-0.43c0.71-2.83,1.8-5.66,1.87-8.52
		c0.06-2.51-0.48-5.38-1.74-7.51c-4.11-6.95-10.92-8.17-18.28-7.37c-1.44,0.15-2.88,1.07-4.15,1.9c-1.58,1.03-2.1,2.4-0.21,3.71
		c-1.51,1.67-4.37,2.06-4.17,5.06c2.99,0.34,5.62,0.02,7.81-2.27c0.76-0.8,2.01-1.69,3.07,0.14c-1.28,0.98-2.5,1.9-3.71,2.83
		c-0.02,0.24-0.05,0.47-0.07,0.7c1.15,0.17,2.44,0.75,3.41,0.41c1.7-0.6,3.3-1.62,4.77-2.7c2.81-2.07,5.49-2,7.91,0.41
		c3,2.97,4.96,8.75,2.61,13.71c-1.78,1.7-3.57,3.41-5.35,5.11c0.19,0.19,0.39,0.38,0.58,0.57
		C484.3,102.95,486.54,101.62,486.95,98.7 M513.28,99.19c0.39,2.98,2.81,4.09,4.79,5.62l0.55-0.57l-5.39-4.99
		c-2.68-5.16-0.8-11.54,2.64-14.59c0.8-0.71,1.99-1.09,3.08-1.33c3.02-0.67,4.73,1.84,6.97,3.08c1.82,0.99,3.68,1.84,5.75,0.22
		c-1.31-1.29-2.51-2.47-3.7-3.64c0.18-0.32,0.36-0.63,0.54-0.95c3.28,1.32,5.88,5,10.37,3.18c-0.46-0.9-0.77-2.05-1.49-2.77
		c-0.82-0.81-2.02-1.24-3.14-1.88c2.01-1.61,2.06-2.7,0.11-3.86c-4.94-2.94-10.09-2.58-15.25-0.6c-3.84,1.47-6.67,4.1-7.96,8.01
		c-1.56,4.73-1.25,9.45,0.94,13.98C512.31,98.54,512.88,98.82,513.28,99.19 M695.44,100.62c1.27,2.18,2.38,4.11,3.55,6
		c0.35,0.56,0.92,0.96,1.34,1.48c1.13,1.41,2.72,2.68,3.24,4.29c1.71,5.29-0.32,9.87-3.54,13.98c-3.63,4.63-8.45,5.2-12.31,0.9
		c-1.73-1.93-4.01-3.48-6.87-3.28c-0.75,0.05-1.48,0.6-2.21,0.92c0.41,0.62,0.79,1.25,1.23,1.84c0.12,0.16,0.51,0.14,0.6,0.3
		c0.6,1,2.73,1.39,1.43,3.06c-0.16,0.21-2.15-0.6-2.9-1.33c-2.17-2.12-4.74-3.18-7.66-3.38c-2.04-0.15-2.75,0.85-1.61,2.47
		c1.25,1.76,2.96,3.2,4.53,4.85c-2.3-0.4-2.08,1.31-1.7,2.51c0.31,0.98,1.22,1.99,2.13,2.53c5.63,3.33,11.56,3.31,17.63,1.36
		c4.42-1.42,8.36-3.98,10.57-7.84c2.55-4.45,3.53-9.6,2.69-14.96C704.52,109.6,700.58,104.9,695.44,100.62 M303.84,101.39
		c-0.1-0.01-0.31-0.11-0.39-0.05c-7.26,6.14-10.61,13.72-8.75,23.31c0.89,4.55,2.96,8.29,6.65,11.14
		c5.42,4.18,11.58,5.46,18.14,4.13c2.53-0.52,5.05-1.85,7.16-3.38c1.98-1.44,1.5-3.12-0.75-4.22c1.61-2.19,5.38-2.99,4.59-6.86
		c-3.67-0.29-6.72,0.54-9.18,3.27c-0.69,0.76-1.74,1.22-2.69,1.68c-0.24,0.11-0.91-0.23-1.06-0.53c-0.14-0.27,0.01-0.91,0.27-1.14
		c1.23-1.16,2.53-2.23,4.21-3.68c-1.14-0.45-1.98-1.01-2.85-1.05c-2.73-0.12-4.81,1.22-6.68,3.14c-4.03,4.16-8.08,4.09-11.11,0.72
		c-2.21-2.46-4.01-5.54-5.12-8.65c-1.29-3.61-0.74-7.36,2.2-10.31c0.73-0.73,1.79-1.21,2.33-2.04
		C301.96,105.12,302.85,103.22,303.84,101.39 M398.94,110.59c0.91,0.24,1.58,0.5,2.27,0.59c3.04,0.4,4.95-1.79,7.16-3.25
		c2.52-1.66,5.07-1.68,6.82,0.74c1.67,2.29,3.08,5.02,3.73,7.75c0.77,3.22-0.43,6.28-3.05,8.59c-1.18,1.03-2.29,2.14-3.43,3.21
		c0.17,0.15,0.33,0.31,0.49,0.47c4.37-3.14,6.99-7.24,7.63-12.76c0.77-6.61-1.01-11.63-6.19-14.76c-5.53-3.35-11.45-4.08-17.41-0.87
		c-2.12,1.15-2.23,2.79-0.35,4c-1.47,1.58-4.48,1.7-4.46,4.97c3.2,0.88,5.75-0.34,8.18-2.24c0.69-0.54,1.57-0.82,2.35-1.23
		c0.21,0.3,0.42,0.61,0.62,0.91C401.99,107.88,400.68,109.04,398.94,110.59 M305.65,140.54c1.04,0.53,2.26,1.4,3.62,1.83
		c4.24,1.34,8.45,2.98,12.81,3.63c4.4,0.66,8.87-0.16,12.32-3.46c0.65-0.62,1.01-2.01,0.8-2.87c-0.13-0.52-1.66-1.09-2.48-0.98
		c-2.58,0.34-5.11,1-7.67,1.52c-2.86,0.59-5.72,1.6-8.58,1.6C312.82,141.82,309.18,140.99,305.65,140.54 M694.43,140.32
		c-7.72,1.92-12.19,2.68-20.85-0.59c-2.19-0.82-4.7-0.94-7.08-1.06c-1.87-0.1-2.75,1.54-1.58,2.95c1.04,1.24,2.39,2.46,3.86,3.05
		c3.55,1.44,7.25,1.81,11.13,1.09C685.12,144.79,689.99,143.14,694.43,140.32 M412.99,98.37c0.1,0.14,0.02-0.1-0.15-0.21
		c-4.13-2.65-8.65-4.35-13.51-4.88c-3.04-0.33-6.04,0.29-8.48,2.32c-0.59,0.5-0.95,1.51-0.98,2.31c-0.01,0.3,1.17,0.89,1.84,0.94
		c1.13,0.07,2.3-0.14,3.44-0.33c2.95-0.47,5.9-1.39,8.85-1.41C407.08,97.1,410.15,97.94,412.99,98.37 M587.19,98.4
		c2.66-0.52,4.91-1.4,7.12-1.3c3.51,0.16,6.98,1,10.46,1.5c1.99,0.28,4.13,1.1,5.74-0.94C607.86,91.41,596.04,92.24,587.19,98.4
		 M518.03,74.59c0.31,0.11,0.39,0.18,0.45,0.16c0.29-0.08,0.57-0.18,0.86-0.27c4.53-1.46,9.07-1.5,13.72-0.43
		c2.23,0.52,4.59,0.55,6.9,0.7c0.45,0.03,1.27-0.33,1.33-0.63c0.1-0.49-0.13-1.21-0.47-1.62c-1.76-2.11-4.19-2.8-6.81-2.91
		C528.18,69.35,522.99,71.3,518.03,74.59 M480.56,73.96c-3.14-2.82-11.99-5.39-16.14-4.27c-2.08,0.56-4.56,0.86-5.61,3.25
		c-0.2,0.45,0.23,1.72,0.37,1.72c2.32-0.02,4.65-0.09,6.96-0.33c1.75-0.19,3.48-0.9,5.22-0.9
		C474.48,73.42,477.62,73.77,480.56,73.96 M310.5,97.07c-4.61,2.25-5.45,6.5-5.76,10.88c-0.07,0.86,1.08,2.53,1.74,2.57
		c1.31,0.07,2.76-0.57,3.93-1.29c0.27-0.17-0.05-2.16-0.65-2.71c-1.68-1.54-2.27-3.41-1.72-5.39
		C308.45,99.68,309.63,98.45,310.5,97.07 M690.67,98.22c2.32,3.55,2.22,4.37-0.47,7.97c-0.57,0.76-0.99,2.23-0.64,2.99
		c0.78,1.69,2.66,1.99,4.19,1.37c0.73-0.29,1.32-1.84,1.32-2.82c0-1.58-0.78-3.16-0.8-4.74C694.24,100.36,692.12,99.56,690.67,98.22
		 M314.08,108.55h-0.67c-0.95,2.53-3.46,4.18-6.17,4.06c-4.23-0.17-4.26-3.27-4.01-6.97c-2.37,4.28-2.17,6.96,0.42,8.52
		c3.56,2.15,9.46,0.12,10.4-2.94C314.3,110.4,314.08,109.44,314.08,108.55 M696.69,105.91c0.67,3.85,0,5.57-2.53,6.49
		c-2.66,0.98-6.21-0.69-7.87-3.7c-1.53,2.55-0.33,3.33,1.95,5.14c2.33,1.85,7.42,1.42,9.15-0.43
		C699.05,111.65,698.76,108.59,696.69,105.91 M672.08,93.66c-0.14,0.3-0.27,0.6-0.41,0.9c1.33,1.48,2.59,3.03,4.02,4.42
		c0.44,0.43,1.4,0.73,1.96,0.56c1.99-0.6,1.86-1.62-0.28-3.7c1.07,0.37,2.65,0.72,2.9,1.49c0.35,1.1-0.29,2.51-0.52,3.89
		c1.35,0.23,2.23-1.12,2.3-2.39c0.05-1.05-0.72-2.82-1.54-3.12C677.79,94.75,674.91,94.31,672.08,93.66 M328.11,94.54
		c-0.12-0.24-0.24-0.48-0.36-0.72c-2.48,0.44-5.03,0.66-7.43,1.39c-1.56,0.47-2.79,1.77-2.44,3.75c0.3,1.64,1.51,2.08,2.54,2.2
		c-0.36-1.03-1.26-2.29-0.96-3.12c0.37-1.03,1.74-1.71,2.68-2.54c0.17,0.18,0.34,0.37,0.52,0.56c-0.34,0.39-0.74,0.75-0.98,1.2
		c-0.25,0.45-0.64,1.26-0.46,1.44c0.46,0.5,1.22,1.06,1.82,1.02c0.68-0.04,1.46-0.58,1.94-1.13
		C326.09,97.32,327.07,95.9,328.11,94.54 M592.32,131.46c-1.08-2.82,0.24-4.99,2.17-7.62c-1.71-0.5-3-1.04-4.34-1.18
		c-0.38-0.04-1.4,1.27-1.26,1.66C589.77,126.78,589.54,129.79,592.32,131.46 M406.72,132.52c1.03-0.87,2.48-1.54,2.98-2.65
		c0.78-1.72,1.02-3.72,1.23-5.64c0.05-0.5-0.87-1.57-1.36-1.58c-1-0.01-2.15,0.32-2.95,0.9c-0.34,0.25-0.21,1.75,0.21,2.27
		C408.66,128.14,408.65,130.24,406.72,132.52 M524.77,108.69c-3.37-2.82-1.49-5.48,0.3-7.96c-0.4-0.43-0.58-0.79-0.84-0.86
		c-1.11-0.32-2.25-0.55-3.37-0.81c-0.21,0.94-0.77,1.97-0.56,2.8C520.97,104.57,521.59,107.41,524.77,108.69 M475.99,107.67
		c0.51,0,0.57,0.02,0.63,0c2.8-0.9,2.18-3.64,2.91-5.61c0.29-0.79,0.03-2.52-0.44-2.71c-0.89-0.37-2.34-0.27-3.11,0.27
		c-0.46,0.33-0.49,2.17-0.01,2.78C477.3,104.12,477.6,105.68,475.99,107.67 M480.91,102.76c2.12-2.4,2.43-4.21,1.21-5.79
		c-1.16-1.49-4.49-1.96-6.72-0.95c-2.5,1.14-3,1.86-2.56,3.73c1.86-1.97,5.26-3.11,7-2.13C481.81,98.72,481.78,100.56,480.91,102.76
		 M518.79,102.31c-0.82-1.91-0.58-3.66,1.19-4.69c1.97-1.14,5.36,0.15,7.13,2.49c1.17-1.76-0.41-2.54-1.3-3.39
		c-1.68-1.6-6.36-1.54-7.82-0.06C516.88,97.78,517.18,100.3,518.79,102.31 M412.98,124.87c1.08-1.83,1.27-3.17,0.09-4.24
		c-1.38-1.25-4.33-2.31-7.11-0.53c-1.85,1.19-2.42,1.91-2.01,3.57c1.87-2.17,4.13-3.46,6.73-2.06
		C411.77,122.2,412.29,123.83,412.98,124.87 M587.54,126.07c-0.5-2.52-0.2-3.66,1.32-4.5c2.25-1.26,4.82-0.5,7.33,2.16
		c0.79-2.58-1.27-3.23-2.87-3.98c-2.21-1.03-5.49-0.5-6.42,0.93C585.62,122.63,586.26,124.43,587.54,126.07 M601.69,129.53
		c-0.36,0.8-1.15,1.7-0.99,2.37c0.22,0.91,1.05,2.13,1.85,2.33c2,0.51,4.13,0.52,6.74,0.79c-3.9-4.4-5.05-5.89-6.26-2.79
		c0.45,0.42,0.9,0.85,1.57,1.48C601.47,133.08,600.98,132.19,601.69,129.53 M459.57,109.82c3.43,1.9,7.49,1.09,8.49-0.67
		c0.76-1.32,0.54-2.04-0.94-3.01c0.39,2.95,0.05,3.43-2.68,3.65c0.14-0.23,0.26-0.41,0.36-0.6c0.28-0.58,0.55-1.16,0.82-1.74
		c-0.76-0.04-1.66-0.35-2.26-0.06C462.02,108.04,460.83,108.99,459.57,109.82 M539.99,110.59c-3.52-4.03-4.39-4.4-6.08-2.53
		c0.65,0.6,1.29,1.19,1.93,1.79c-1.14,0.03-2.32-0.2-2.83-0.92c-0.49-0.69-0.28-1.88-0.38-2.85c-1.46,1.72-1.47,2.7,0.21,3.82
		C535.01,111.34,537.36,111.69,539.99,110.59 M395.79,133.79c0.32-1.1,0.54-1.89,0.77-2.69c-0.95,0.16-2.05,0.07-2.82,0.53
		c-1.15,0.68-2.08,1.75-3.1,2.65c0.16,0.25,0.3,0.49,0.45,0.74c2.05-0.23,4.17-0.2,6.13-0.75c2.23-0.62,2.75-2.84,1.13-4.12
		C398.31,132.1,398.27,134.05,395.79,133.79"/>
	<path class="st0" d="M530.44,390.5c-0.98,0.47-1.78,0.76-2.48,1.21c-2.6,1.7-2.71,4.15-0.08,5.73c1.42,0.85,2.98,1.9,2.47,3.35
		c-0.56,1.59-1.98,3.22-3.46,4.06c-2.81,1.57-5.9,1.23-8.56-0.6c-0.87-0.6-1.25-1.91-1.84-2.88c-2.6,2.18-1.57,7.61,0.16,10.93
		c0.18,0.34,0.5,0.6,0.71,0.92c1.92,2.87,3.55,3.07,6.39,1.09c1.61-1.12,3.39-2.09,5.24-2.72c1.53-0.53,3.23-0.43,4.49,1.09
		c0.25,0.3,0.97,0.31,1.47,0.3c1.72-0.02,3.45-0.21,5.16-0.08c0.49,0.04,1.19,0.88,1.31,1.45c0.14,0.69,0.02,1.83-0.44,2.17
		c-2.2,1.66-1.97,4.06-2.3,6.72c1,0,2.08-0.26,2.92,0.06c1.12,0.43,2.61,1.14,2.92,2.06c0.33,0.98-0.29,2.56-0.99,3.5
		c-0.68,0.91-1.94,1.48-3.05,1.94c-6.82,2.78-13.16,0.94-19.33-2.2c-1.44-0.73-2.76-1.69-4.16-2.52c-5.34-3.18-6.95-8.41-7.6-14.08
		c-0.26-2.21-0.05-4.48-0.05-6.24c-7.65,9.3-7.71,29.77,1.24,37.69c1.18-1.06,2.41-2.9,4.05-1.25c0.8,0.8,0.6,2.6,0.88,4.14h2.59
		c-0.59-0.55-1.03-0.96-1.46-1.38c-1.24-1.21-0.8-2.25,0.4-3.11c2.05-1.47,6.77-1.52,8.93-0.15c2.22,1.41,1.72,5.68-1.04,7.02
		c-3.92,1.91-7.88,1.5-11.5-0.87c-7.5-4.91-10.77-12.4-12.39-20.97c-1.52,7.55-4.53,14.14-10.22,19.46
		c-3.63,3.39-10.05,4.32-13.37,2.53c-2.22-1.19-2.82-2.95-2.61-5.24c0.18-2.06,1.97-2.48,3.36-2.61c2.02-0.18,4.13,0.13,6.13,0.54
		c0.71,0.15,1.65,1.16,1.72,1.86c0.06,0.63-0.88,1.4-1.44,2.05c-0.18,0.21-0.6,0.21-0.91,0.31c0.14,0.17,0.29,0.35,0.43,0.52h2.7
		c-0.06-0.74-0.17-1.41-0.17-2.08c0.01-2.4,1.54-3.36,3.49-1.93c1.68,1.23,2.24,0.61,3.24-0.8c3.13-4.39,4.19-9.3,4.68-14.56
		c0.7-7.55-1.36-14.32-4.84-20.82c-0.14-0.26-0.39-0.44-0.21-0.25c-0.37,3.34-0.57,6.98-1.22,10.53c-0.98,5.43-4.68,8.71-9.31,11.35
		c-4.1,2.33-8.36,4.08-13.01,4.38c-3.95,0.25-8.04-0.08-10.95-3.31c-0.79-0.88-1.32-2.67-0.97-3.71c0.29-0.87,1.98-1.4,3.15-1.8
		c0.76-0.27,1.69-0.05,2.5-0.05v-4.48c-0.54-0.48-1.49-0.98-1.85-1.75c-0.47-0.98-0.71-2.22-0.54-3.27c0.06-0.42,1.48-0.8,2.31-0.86
		c1.69-0.13,3.39-0.04,5.45-0.04c1.45-1.73,4.37-2.06,7.06-0.37c1.31,0.81,2.67,1.57,3.88,2.52c1.53,1.2,3.03,0.6,3.99-0.41
		c2.74-2.88,5.6-8.9,1.97-13.24c-0.99,2.92-2.87,4.42-6.32,4.35c-2.95-0.06-5.81-0.67-7.24-3.92c-0.71-1.62-0.25-2.66,1.01-3.58
		c4.19-3.05,3.97-5.2-0.82-7.51c-0.06-0.02-0.16,0.02,0.23-0.03c-1.06,1.69-1.65,3.69-2.95,4.4c-1.34,0.74-3.49,0.64-5.07,0.17
		c-1.22-0.37-2.32-1.73-3.08-2.91c-2.39-3.7-4.44-3.52-7.7-2.36c-7.9,2.8-13.7,8.18-18.46,14.94c-4.36,6.2-8.5,12.64-13.55,18.24
		c-5.59,6.19-13.07,8.98-21.6,9.16c-7.61,0.17-14.93-0.8-21.62-4.41c-7.59-4.09-14.25-9.35-16.51-18.25
		c-0.66-2.59-0.65-5.48-0.34-8.16c0.59-5.24,2.22-10.14,5.49-14.49c2.45-3.27,5.64-5.29,9.25-6.78c3.55-1.45,7.08-3.16,10.79-3.96
		c6.47-1.4,12.97-1.5,18.62,2.95c2.62,2.06,3.24,6.1,0.06,7.12c-1.9,0.61-4.06,0.4-6.05,0.56c-0.08,1.51-0.18,3.43-0.31,5.74
		c1.54,0.93,2.8,2.64,2.75,5.16c-0.02,1.28-0.44,1.92-1.79,1.83c-2.69-0.19-5.38-0.35-8.38-0.55c-1.93,2.12-6.58,2.11-9.39-0.29
		c-1.41-1.2-2.89-2.36-4.45-3.33c-1.72-1.07-3.39-0.7-4.9,0.66c-3.32,3-5.15,6.8-5.53,11.17c-0.15,1.64,0.66,3.37,1.03,5.03
		c1.54-1.57,2.59-3.26,4.12-4.09c3.97-2.16,9.32-0.67,11.91,2.17c2.25,2.46,1.8,5.35-1.25,6.75c-5.16,2.38-5.28,5.28-0.37,8.69
		c0.56,0.39,1.14,0.73,1.83,1.17c-0.32-6.3,5.12-7.37,8.93-5.93c1.63,0.61,3.01,2.63,3.9,4.33c1.92,3.64,4.16,4.75,8.13,3.58
		c5.24-1.54,9.53-4.56,13.58-8.13c5.44-4.81,9.27-10.85,13.33-16.75c4.88-7.09,10.64-13.33,18.5-17.23
		c7.43-3.68,15.04-3.69,22.69-0.7c6.44,2.52,12.01,6.4,16.87,11.26c5.2,5.2,8.65,11.43,10.05,18.71c0.04,0.19,0.15,0.37,0.28,0.73
		c1.62-9.48,6.43-16.76,13.74-22.63c5.31-4.26,10.93-7.68,17.64-9.35c8.99-2.25,16.87,0.12,23.98,5.43
		c7.27,5.43,12.15,12.95,17.32,20.29c5.8,8.24,12.63,15.63,22.94,18.53c3.08,0.86,5.72-0.21,7.17-3.05
		c1.15-2.25,2.09-4.74,5.02-5.27c4.86-0.88,8.76,0.82,8.08,6.83c1.92-1.83,3.63-3.13,4.91-4.78c1.17-1.51,0.87-3.17-0.89-4.3
		c-0.52-0.33-1.03-0.68-1.56-0.98c-4.32-2.45-4.47-6.28-0.2-8.84c3.66-2.19,7.59-2.23,11.22,0c1.1,0.68,1.56,2.42,2.36,3.76
		c1.53-1.87,1.91-4.23,1.3-6.79c-0.94-3.99-2.46-7.61-6.02-10.07c-1.56-1.08-2.91-1.07-4.46-0.02c-2.28,1.55-4.51,3.25-6.99,4.39
		c-2.1,0.97-4.51,1.33-6.42-0.86c-0.21-0.24-0.79-0.26-1.18-0.22c-2,0.19-3.99,0.56-5.99,0.63c-2.95,0.11-3.97-1.53-2.61-4.28
		c0.55-1.14,1.58-2.05,2.36-3.02c-0.11-1.77-0.24-3.69-0.36-5.62c-0.97,0.05-2.25,0.15-3.53,0.18c-1.83,0.04-3.66-0.02-4.4-2.16
		c-0.65-1.88,0.32-4.6,2.04-5.79c4.44-3.08,9.5-3.94,14.67-3.3c7.37,0.91,14.1,3.75,20.29,7.87c3.74,2.49,5.68,6.28,7.21,10.27
		c2.03,5.31,2.97,10.91,1.4,16.41c-0.9,3.16-2.67,6.36-4.88,8.78c-7.87,8.64-17.72,13.15-29.58,13.38c-7.59,0.15-14.7-0.95-21-5.4
		c-5.51-3.89-9.28-9.36-12.88-14.9c-3.7-5.69-7.61-11.17-12.65-15.78c-3.74-3.42-8.07-5.69-12.92-6.93
		c-2.48-0.64-4.02,0.98-5.3,2.96c-2.2,3.42-3.62,3.97-7.31,3.11C531.06,394.74,530.85,394.45,530.44,390.5 M514.25,400.73
		c-0.73,1.46-1.67,2.85-2.17,4.39c-2.56,7.84,0.55,15.16,7.67,18.58c3.66,1.77,7.61,1.79,11.44,1.27c4.33-0.59,5.63-2.12,5.51-5.13
		c-0.4-0.03-0.79-0.06-1.27-0.09c1.29-2.07,4.86-2.07,4.53-5.36c-2.95-0.5-5.48-0.07-7.66,2.04c-0.7,0.67-1.87,0.86-2.82,1.27
		c-0.19-0.3-0.38-0.59-0.56-0.89c1.26-1.09,2.53-2.18,4.41-3.79c-1.58-0.23-2.86-0.82-3.82-0.48c-1.7,0.59-3.29,1.61-4.78,2.67
		c-2.64,1.88-6.34,1.99-8.04-0.09c-3.52-4.33-4.82-9.09-2.5-14.47c1.87-1.74,3.73-3.49,5.6-5.24c-0.17-0.18-0.34-0.36-0.51-0.54
		c-1.03,0.79-2.22,1.45-3.05,2.42C515.37,398.29,514.89,399.58,514.25,400.73 M487.46,400.23c-0.56-2.71-3.05-3.6-4.67-5.63
		c0.19,3.39,2.99,3.97,4.72,5.58c1.99,3.48,1.98,7.13,0.5,10.71c-1.26,3.03-3.79,6.56-7.29,5.65c-1.79-0.46-3.48-1.58-5.03-2.66
		c-2.42-1.71-4.42-1.99-6.6-0.45c1.32,1.04,2.62,2.06,3.97,3.13c-1.22,1.8-2.4,0.78-3.17,0c-2.21-2.25-4.82-2.57-7.8-2.16
		c-0.19,3.07,2.81,3.4,4.22,5.11c-0.5,0.41-0.96,0.78-1.84,1.5c1.23,1.09,2.18,2.5,3.47,2.99c5.49,2.1,11.07,1.94,16.01-1.32
		c2.32-1.53,4.67-3.83,5.69-6.32c1.75-4.25,1.62-8.93-0.23-13.31C489,402.01,488.13,401.17,487.46,400.23 M628.8,422.14
		c4.44-3.43,7.82-7.6,9.01-13.26c1.74-8.31-0.34-17.58-8.8-22.54c-2.68-1.58-6.05-2.11-9.17-2.83c-5.02-1.15-9.65,0.22-13.79,3.04
		c-0.79,0.53-0.98,2.16-1.09,3.32c-0.04,0.37,1.08,0.85,1.59,1.22c-1.3,2.36-5.66,2.77-4.31,7c3.39,0.38,6.29-0.66,8.83-3.01
		c0.96-0.9,2.16-1.54,3.48-2.45c0.61,2.87-1.45,3.83-2.76,4.82c-1.72,1.31-0.55,1.7,0.37,1.96c0.93,0.26,2.16,0.37,2.98-0.04
		c1.9-0.95,3.81-2.04,5.38-3.45c3.75-3.41,7.25-3.51,10.77,0.15c1.33,1.38,2.54,2.93,3.59,4.55c2.5,3.85,2.23,10.08-0.57,13.73
		c-0.66,0.86-1.89,1.3-2.47,2.18C630.68,418.29,629.79,420.25,628.8,422.14 M373.73,422.89c-1.22-2.29-2.33-4.42-3.51-6.51
		c-0.16-0.3-0.56-0.52-0.88-0.69c-3.28-1.63-4.41-5.53-4.12-8.38c0.4-3.91,1.9-7.53,4.45-10.49c3.26-3.77,7.45-5.04,11.88-0.91
		c0.75,0.7,1.42,1.49,2.19,2.16c2.32,2.03,5.77,2.07,7.02,0.53c-1.14-1.33-2.27-2.61-3.32-3.94c-0.23-0.29-0.19-0.78-0.28-1.17
		c0.39-0.08,0.9-0.36,1.17-0.21c1.05,0.6,2.16,1.21,3.01,2.05c2.46,2.46,5.39,3.1,8.64,2.78c1.06-4.15-3.34-4.53-4.41-6.73
		c0.66-0.55,1.44-0.88,1.49-1.3c0.11-0.84,0.14-2.07-0.37-2.54c-1.26-1.19-2.72-2.41-4.33-2.99c-5.91-2.16-11.81-1.89-17.52,0.84
		c-3.89,1.86-7.34,4.52-9.04,8.44c-2.08,4.8-2.72,9.96-1.61,15.25C365.44,415.04,369.37,419,373.73,422.89 M627.77,383.75
		c-6.34-4.01-13.22-6.65-20.87-6.31c-3.2,0.14-6.45,1.03-8.88,3.39c-0.67,0.65-1.26,2.07-0.99,2.82c0.24,0.66,1.76,1.3,2.64,1.21
		c2.44-0.24,4.97-0.54,7.24-1.4C613.93,380.83,620.79,381.1,627.77,383.75 M375.06,383.55c0.34-0.11,0.69-0.21,1.03-0.33
		c5.97-1.95,11.93-2.16,17.98-0.19c2.68,0.88,5.5,1.42,8.3,1.83c0.88,0.13,1.89-0.69,2.84-1.07c-0.36-0.88-0.51-1.97-1.12-2.63
		c-2.72-2.95-6.43-3.74-10.15-3.72C387.1,377.47,380.78,379.62,375.06,383.55 M459.23,425.25c1.48,7.29,15.84,6.13,23.51-0.02
		c-0.31,0.03-0.54,0.01-0.74,0.07c-5.13,1.59-10.18,1.84-15.42,0.07C464.39,424.64,461.75,425.25,459.23,425.25 M518.97,425.66
		c3.34,1.44,6.3,3.1,9.48,3.96c4.21,1.14,8.62,1.58,12.5-1.22c0.84-0.61,1.22-1.85,1.8-2.8c-0.21-0.24-0.43-0.47-0.65-0.7
		c-2.62,0.26-5.24,0.46-7.85,0.78c-1.67,0.2-3.33,0.85-4.98,0.8C525.99,426.4,522.72,425.98,518.97,425.66 M621.6,426.84
		c0.18,0.17,0.35,0.35,0.53,0.53c1.62-1.76,3.25-3.5,4.86-5.26c0.15-0.17,0.38-0.51,0.33-0.58c-1.3-1.82,0.62-3.33,0.46-4.99
		c-0.1-1.07-0.28-2.42-0.97-3.07c-0.61-0.57-2.04-0.61-2.98-0.38c-0.89,0.22-1.61,1.1-2.6,1.84c0.9,1.24,1.68,2.31,2.47,3.38
		c1.21,1.64,1.49,3.4,0.4,5.17C623.38,424.67,622.44,425.73,621.6,426.84 M379.87,427.47c0.26-0.24,0.52-0.47,0.77-0.71
		c-0.25-0.28-0.49-0.57-0.75-0.84c-3.38-3.48-3.4-4.75-0.48-8.75c0.52-0.72,0.95-2.4,0.63-2.65c-0.99-0.81-2.35-1.49-3.6-1.54
		c-0.71-0.02-2.09,1.28-2.09,1.98c-0.01,2.37-0.03,4.98,0.91,7.06C376.2,424.1,378.29,425.67,379.87,427.47 M382.89,415
		c1.65-0.78,1.44-2.17,0.44-3.02c-1.54-1.31-3.31-2.48-5.17-3.21c-2.15-0.86-5.79,0.61-6.67,2.27c-0.86,1.61,0.01,5.67,1.55,7.19
		c-1-4.08-0.36-6,2.45-6.81C378.54,410.54,381.92,411.97,382.89,415 M629.51,417.42c1.86-2.9,1.77-6.14,0.01-7.56
		c-2.54-2.05-7.48-1.53-10.28,1.09c-1.32,1.24-1.42,2.29-0.35,3.83c1.77-2.98,4.43-4.06,7.72-3.41
		C630.17,412.08,629.26,414.85,629.51,417.42 M392.09,427.66c-0.15,0.16-0.29,0.32-0.43,0.48c-0.91-0.76-2.46-1.42-2.58-2.28
		c-0.16-1.12,0.83-2.39,1.29-3.53c-1.32,0.23-2.85,0.67-2.97,2.71c-0.12,1.9,1.04,3.1,2.72,3.49c2.38,0.54,4.84,0.76,7.27,1.11
		c0.06-0.23,0.12-0.47,0.19-0.7c-1.05-1.37-1.93-2.95-3.22-4.04c-0.7-0.59-2.36-0.82-3.12-0.39c-1.37,0.78-0.1,1.65,0.51,2.39
		C391.92,427.12,391.98,427.41,392.09,427.66 M604.27,428.79l0.55,0.98c2.54-0.44,5.19-0.6,7.57-1.47c1.04-0.38,2.17-2.22,2.14-3.37
		c-0.03-1.43-1.38-2.61-2.8-2.56c0.44,1.07,1.38,2.24,1.25,3.26c-0.2,1.49-1.52,2.34-3.39,2.24c0.38-0.44,0.69-0.7,0.87-1.03
		c0.35-0.63,0.62-1.31,0.93-1.96c-0.86-0.22-2.09-0.92-2.51-0.59C607.2,425.61,605.78,427.25,604.27,428.79 M525.67,391.22
		c-3.16,1.18-3.57,4.07-4.28,6.65c-0.23,0.83,0.22,2.52,0.8,2.76c0.88,0.36,2.3,0.07,3.16-0.48c0.4-0.25,0.4-2.09-0.08-2.61
		C523.12,395.21,523.88,393.25,525.67,391.22 M476.98,391.66c1.77,2.21,1.18,4.2-0.24,6.26c-0.36,0.54-0.36,1.99-0.01,2.21
		c0.84,0.53,2.04,0.88,2.97,0.69c0.55-0.11,1.4-1.63,1.19-2.13C479.87,396.24,480.09,393.1,476.98,391.66 M528.28,399.63
		c-2.11,2.65-4.09,3.74-6.42,2.64c-1.28-0.61-1.93-2.59-2.73-3.78c-1.17,1.81-1.25,3.29,0.09,4.59c1.61,1.58,5.54,1.86,7.28,0.27
		C527.44,402.5,529.43,401.8,528.28,399.63 M473.82,399.97c-0.74,2.13,0.6,2.84,2.82,3.99c1.78,0.92,5.24,0.33,6.31-0.91
		c1.51-1.77,0.7-3.37,0.01-4.56c-0.75,1.23-1.3,3.34-2.42,3.71C478.1,403.03,475.53,402.44,473.82,399.97 M467.86,393.53
		c0.22,0.1,0.44,0.2,0.66,0.3c0.21-0.67,0.76-1.45,0.57-1.99c-0.33-0.94-0.95-2.28-1.7-2.48c-2.06-0.53-4.26-0.55-6.4-0.78
		c-0.05,0.23-0.1,0.45-0.15,0.68c1.14,1.09,2.19,2.3,3.45,3.2c0.51,0.36,1.49,0.05,2.25,0.04c-0.21-0.63-0.37-1.29-0.67-1.88
		c-0.09-0.16-0.58-0.12-0.89-0.17c0.17-0.17,0.34-0.34,0.51-0.51C468.1,390.33,468.55,391.01,467.86,393.53 M541.29,389.2
		c-0.06-0.22-0.12-0.44-0.17-0.66c-2.03,0.22-4.14,0.19-6.07,0.76c-0.99,0.29-1.86,1.56-2.38,2.59c-0.21,0.41,0.68,1.36,1.06,2.07
		c-0.05-3.59,0.07-3.76,3.03-4.02c-0.11,0.23-0.21,0.42-0.3,0.61c-0.28,0.65-0.56,1.3-0.84,1.95c0.76-0.03,1.72,0.22,2.24-0.15
		C539.11,391.47,540.16,390.28,541.29,389.2"/>
	<path class="st0" d="M241.38,302.51v-2.09h516.93c0.07,0.61,0.15,1.26,0.24,2.09H241.38z"/>
	<path class="st0" d="M467.82,233.58v-2.65h21.96c0.56,2.09,0.04,3.05-2.24,3.26c-1.98,0.18-3.27,1.37-3.29,3.76
		c-0.04,4.28-0.36,8.57-0.57,13.03h23.78c0-4.59,0.19-9.15-0.14-13.67c-0.08-1.13-1.73-2.34-2.93-3.1
		c-0.89-0.57-2.21-0.47-3.44-0.69v-2.55h22.43v2.43c-6,2.05-6,2.05-6,8.47c0,8.11-0.02,16.23,0.02,24.35
		c0.01,1.38-0.04,2.96,0.59,4.09c0.54,0.97,1.95,1.53,3.08,2.05c0.59,0.26,1.39,0.04,2.28,0.04v3.17h-22.38v-2.83
		c0.07-0.06,0.17-0.24,0.29-0.25c5.91-0.51,6.19-0.81,6.2-6.71v-10.73h-23.47c0,4.3-0.38,8.7,0.11,13.01
		c0.45,3.96,1.22,4.2,5.68,4.44v3.07h-21.9v-3.08c0.52-0.03,0.98-0.04,1.43-0.08c3.48-0.32,4.53-1.5,4.59-5.03
		c0.14-8.09,0.35-16.17,0.44-24.25c0.02-2.09,0.01-4.27-0.57-6.24c-0.32-1.1-1.72-2.02-2.84-2.69
		C470.12,233.71,468.98,233.78,467.82,233.58"/>
	<path class="st0" d="M758.38,207.58H241.57c-0.52-1.2-0.41-1.92,1.14-1.84c0.47,0.02,0.94,0,1.42,0c170.5,0,341.01,0,511.51,0.05
		C756.63,205.8,758.75,204.69,758.38,207.58"/>
	<path class="st0" d="M553.79,254.63c0,4.88-0.12,9.61,0.1,14.32c0.05,1,1.23,2.58,2.17,2.82c4.67,1.16,9.42,0.8,14.04-0.44
		c4.33-1.16,6.98-4.6,9.4-8c1.24-1.74,2.22-2.11,4.24-0.87c-1.16,4.09-2.31,8.31-3.58,12.48c-0.12,0.38-1,0.76-1.53,0.76
		c-13.85,0.04-27.71,0.03-41.7,0.03c-0.23-1.82-0.66-3.18,2.05-3.42c3.41-0.29,4.36-1.85,4.42-5.35c0.13-8.01,0.35-16.01,0.43-24.02
		c0.02-2.17-0.05-4.4-0.55-6.48c-0.22-0.92-1.54-1.73-2.54-2.26c-0.83-0.45-1.91-0.43-2.94-0.63v-2.63
		c0.68-0.04,1.37-0.11,2.06-0.11c11.5-0.01,23,0.03,34.5-0.05c1.67-0.01,2.51,0.5,3.15,2.05c1.3,3.19,2.83,6.3,4.29,9.5
		c-0.93,0.47-1.68,0.85-2.86,1.44c-6.02-8.68-14.74-10.92-24.97-9.32v16.2c1.94,0,4,0.36,5.88-0.07c4.8-1.09,6.12-1.91,7.32-8.29
		h3.04v21.07h-2.89C564.72,255.83,562.66,254.22,553.79,254.63"/>
	<path class="st0" d="M295.04,246.72c-2.35,0.62-3.31-0.19-4.2-2.38c-2.44-5.99-7.06-9.67-13.51-10.66
		c-11.53-1.77-18.43,6.82-19.99,15.7c-1.26,7.15,0.26,13.33,5.6,18.48c4.69,4.52,12.55,5.89,18.56,3.16
		c4.89-2.22,8.5-5.48,10.08-10.84c0.2-0.69,2.09-0.9,3.14-1.31v8.12v7.44c-2.53,1.38-3.54-0.7-4.88-1.88
		c-5.27,2.71-10.88,3.85-16.64,3.61c-8.01-0.33-15.63-2.01-21.52-8.2c-5.63-5.93-7.04-14.78-4.28-22.24
		c3.38-9.12,10.28-13.83,19.54-15.32c7.47-1.21,14.84-0.95,21.81,2.63c0.51,0.26,1.55-0.29,2.26-0.64c1.22-0.6,2.37-1.34,4.03-2.3
		V246.72z"/>
	<path class="st0" d="M449.19,233.45c1.45-1.01,1.98-3.75,4.72-2.39v15.73h-2.89c-2.19-6.46-6.26-10.96-12.93-12.82
		c-7.06-1.96-14.54,0.84-18.49,7.16c-4.1,6.56-4.83,13.62-1.71,20.93c4.12,9.68,16.51,13.48,25.34,7.63
		c3.79-2.51,6.61-5.83,7.66-10.45h3.14v7.77v8.35c-2.1-0.85-3.75-1.51-5.94-2.4c-4.49,2.2-10.02,3.44-15.77,3.18
		c-7.6-0.35-14.94-1.89-20.76-7.29c-3.49-3.24-5.66-7.4-6.16-12.16c-0.61-5.84,0.3-11.39,3.84-16.38c3.85-5.44,9.17-8.71,15.48-9.84
		c6.74-1.21,13.64-1.39,20.25,1.24C446.32,232.26,447.67,232.83,449.19,233.45"/>
	<path class="st0" d="M387.46,233.56c1.8-0.98,2.31-3.76,5.01-2.5v15.65c-1.6,0.31-2.64,0.41-3.51-1.66
		c-3-7.15-8.57-11.44-16.3-11.75c-6.5-0.27-11.68,3.12-14.96,8.69c-4.47,7.61-4.49,17.67,1.67,24.77
		c4.36,5.03,12.45,7.43,19.75,4.32c6.08-2.6,9.21-7.13,10.29-11.79h3.02v15.36c-1.66,0.19-3.19,0.57-4.09-1.36
		c-0.14-0.29-1.34-0.37-1.88-0.15c-4.93,2.01-10.02,3.23-15.35,3.02c-6.55-0.25-13.04-1.34-18.42-5.31
		c-5.33-3.93-8.55-9.29-8.85-16.19c-0.3-7.11,2.09-13.12,7.18-17.98c4.35-4.15,9.85-6.24,15.68-6.72
		C373.86,229.38,381.07,229.51,387.46,233.56"/>
	<path class="st0" d="M611.94,234.52c-4.44,0.3-8.87-0.62-12.45,1.99c-2.1,1.53-4.01,3.77-5.08,6.11c-1.07,2.32-2.06,1.93-3.89,0.99
		c0.74-4.4,1.51-8.87,2.19-12.89c10.92,0.19,21.67,0.54,32.43,0.48c4.86-0.02,9.72-0.89,14.59-1.26c0.58-0.05,1.66,0.5,1.75,0.92
		c0.88,4.23,1.6,8.49,2.39,12.83c-1.04,0.34-1.81,0.61-2.59,0.87c-1.44-2.08-2.87-4.08-4.23-6.12c-1.55-2.3-3.68-3.35-6.46-3.42
		c-2.79-0.07-5.57-0.36-8.7-0.58v2.78c0,9.93,0,19.86,0,29.78c0,3.52,1.25,4.95,4.7,5.39c2.5,0.32,2.5,0.32,2.21,3.19h-24.21
		c-0.57-2.21-0.12-3.1,2.4-3.29c3.46-0.26,4.91-1.57,4.94-4.34C611.99,256.95,611.94,245.93,611.94,234.52"/>
	<path class="st0" d="M700.14,229.88c0.87,4.76,1.7,9.29,2.52,13.81c-2.04,1.44-3.14,0.78-4.24-1.33c-1.06-2.03-2.53-3.95-4.22-5.49
		c-1.08-1-2.83-1.52-4.35-1.74c-2.83-0.42-5.71-0.45-8.69-0.66c-0.24,2.5-0.62,4.73-0.64,6.96c-0.08,7.24-0.06,14.48,0,21.73
		c0.01,2.18,0.18,4.36,0.49,6.51c0.33,2.34,2.64,2.5,4.16,2.58c2.51,0.15,2.67,1.32,2.28,3.33H663.6v-3.18
		c0.79,0,1.51,0.12,2.17-0.02c2.78-0.61,4.86-1.24,4.85-5.29c-0.01-9.81,0.27-19.62,0.42-29.43c0.01-0.93,0-1.87,0-3.29
		c-3.8,0.35-7.55,0.16-10.95,1.15c-4.16,1.22-6.14,5.07-7.9,9.06c-0.89-0.22-1.83-0.45-2.96-0.73c0.56-3.28,1.1-6.45,1.65-9.62
		c0.1-0.61,0.29-1.21,0.29-1.82c0.02-1.97,1.18-2.23,2.81-2.06c3.32,0.35,6.65,0.82,9.97,0.89c6.85,0.14,13.7,0.21,20.55-0.01
		c4.71-0.16,9.41-0.88,14.11-1.34C699.06,229.84,699.54,229.88,700.14,229.88"/>
	<path class="st0" d="M478.56,155.18h-2.39c0.38-1.63,0.7-3,0.96-4.1c-2.33,1.74-4.62,3.88-7.29,5.27
		c-1.58,0.82-3.84,0.84-5.67,0.51c-2.63-0.47-3.69-4.96-1.78-6.94c1.23-1.27,2.65-2.37,4.12-3.66c-2.01,0.31-3.92,0.53-5.8,0.91
		c-1.87,0.38-3.71,0.92-5.89,1.47c1.56,1.38,2.94,2.49,4.2,3.74c2.9,2.86,3.12,5.93,1.59,9.52c-1.86,4.37-5.3,7.19-9.28,9.47
		c-6.39,3.67-13.28,5.14-20.59,4.58c-5-0.39-11.03-4.66-10.34-10.96c0.33-2.98,2.16-4.83,4.19-6.43c6.51-5.16,14.19-8,22.01-10.48
		c0.54-0.18,1.06-0.41,1.73-0.67c-0.58-0.61-1.01-1.07-1.44-1.51c-1.91-1.93-1.91-4.3,0.06-6.06c4.21-3.76,9.19-3.64,14.27-2.61
		c1.75,0.35,2.05,1.75,1.56,3.26c-0.36,1.09-1.1,1.41-2.11,0.56c-2.82-2.4-9.16-1.81-11.31,1.15c-0.43,0.59-0.66,2.05-0.34,2.31
		c1.15,0.9,2.67,2.19,3.86,2.02c5.56-0.79,11.05-2.11,16.6-3.04c2.6-0.44,5.28-0.44,7.92-0.56c0.46-0.02,0.94,0.38,1.4,0.59
		c-3.2,1.42-6.46,2.72-9.56,4.33c-1.22,0.63-2.28,1.85-3.04,3.04c-0.86,1.33-0.44,2.59,1.41,2.34c1.4-0.18,3.12-0.47,4.01-1.39
		c2.56-2.61,4.77-5.56,7.11-8.39c0.67-0.22,1.34-0.44,2.59-0.86c-0.81,4.39-1.51,8.23-2.22,12.05
		C478.93,154.82,478.75,155,478.56,155.18 M433.76,171.86c9.63-0.53,16.48-4.08,22.15-9.96c0.98-1.01,1.87-2.77,1.72-4.08
		c-0.45-4.05-3.47-6.36-6.77-8.21c-0.5-0.28-1.43-0.12-2.03,0.13c-5.37,2.31-10.81,4.51-16.02,7.13c-2.43,1.23-4.67,3.11-6.54,5.12
		c-2.03,2.21-2.74,5.64,1.1,7.74C429.67,170.99,432.4,171.43,433.76,171.86"/>
	<path class="st0" d="M711.81,275.56c-0.27-1.83-0.34-3.03,2.11-3.26c3.41-0.33,4.39-1.85,4.39-5.36c0-9.45,0-18.89,0-28.35
		c0-3.07-0.77-3.97-3.78-4.49c-0.74-0.13-1.47-0.4-2.27-0.63v-2.5h21.92c0.62,2.11,0,3.04-2.35,3.25c-1.83,0.16-3.16,1.17-3.17,3.52
		c-0.06,9.73-0.26,19.46-0.43,29.19c-0.08,4.56,1.15,5.05,5.3,5.49c0.37,0.04,0.75,0.06,1.22,0.1v3.05H711.81z"/>
	<path class="st0" d="M330.96,233.44c-0.42,0.14-0.83,0.3-1.27,0.44c-4.21,1.31-4.7,1.94-4.7,6.32c-0.01,8.97-0.02,17.94-0.02,26.92
		c0,4.08,0.91,5.04,4.99,5.3c0.3,0.02,0.61,0.06,1.03,0.1v3.08h-22.41c-0.4-1.98-0.3-3.09,2.22-3.32c3.23-0.29,4.24-1.9,4.24-5.26
		c0.01-9.37,0.01-18.74,0-28.1c0-3.37-0.7-4.18-3.99-4.82c-0.67-0.13-1.31-0.42-2.06-0.66v-2.46h21.97V233.44z"/>
	<path class="st0" d="M478.57,155.18c0.18-0.18,0.36-0.36,0.55-0.54c3-1.5,5.6-3.48,7.38-6.54c-1.27,0.49-2.55,0.98-3.97,1.53
		c0.03-2.99,1.9-3.94,4.01-4.32c1.07-0.19,2.29,0.38,3.43,0.61c-0.02,0.21-0.05,0.42-0.08,0.64c2.11-0.94,4.2-1.91,6.33-2.78
		c2.24-0.92,4.76-0.93,6.3,0.84c1.68,1.93,2.22,4.78,0.64,7.05c-2.07,2.98-4.27,6.09-7.08,8.3c-6.36,5.02-13.08,9.56-19.73,14.19
		c-2.48,1.73-5.18,3.16-7.78,4.73l-0.49-0.65c1.9-1.54,3.73-3.19,5.72-4.62c7.27-5.24,14.4-10.64,20.41-17.34
		c1.68-1.88,3.09-4.05,4.36-6.24c0.95-1.63,0.24-2.78-1.57-2.36c-2.5,0.58-4.96,1.59-7.24,2.8c-3.26,1.72-6.34,3.79-9.51,5.68
		c-0.7,0.42-1.48,0.69-2.57,0.64C477.98,156.26,478.27,155.72,478.57,155.18"/>
	<path class="st0" d="M258.64,129.91c-2.3,0.33-3.83-0.32-4.09-1.96c-0.28-1.78-0.32-4.01,0.57-5.41c0.51-0.81,3.33-0.97,4.59-0.36
		c4.83,2.34,9.2,10.09,7.73,16.53c-1.69,7.44-5.57,12.85-12.22,16.3c-1.8,0.93-3.91,1.28-5.89,2.29c2.61-0.29,5.32-0.23,7.83-0.91
		c9.53-2.58,17.94-7.2,24.66-14.59c1.14-1.25,2.23-2.6,3.08-4.05c0.88-1.51,0.84-3.1-0.77-4.27c-1.52-1.11-2.9-0.54-4.27,0.36
		c-0.44,0.29-0.93,0.51-0.94,0.51c0.37-1.69,2.23-2.81,4.73-2.34c1.95,0.37,3.58,2.38,2.92,4.33c-0.82,2.42-1.78,5.07-3.47,6.87
		c-5.84,6.25-12.9,10.79-20.99,13.87c1.4-0.32,2.8-0.65,4.21-0.93c1.44-0.29,2.88-0.68,4.34-0.75c2.89-0.15,5.83-0.4,8.68-0.03
		c1.95,0.25,2.82,2.08,2.59,4.12c-0.21,1.94-0.88,3.74-2.88,4.41c-1.83,0.61-3.72,0.62-5.02-1.28c-0.13-0.19-0.29-0.37-0.89-1.11
		c1.13,0.53,1.78,0.67,2.21,1.06c1.13,1.05,2.39,1.4,3.42,0.22c0.95-1.08,1.99-2.48,2.06-3.79c0.05-0.92-1.38-2.64-2.3-2.75
		c-2.71-0.33-5.55-0.38-8.24,0.07c-6,0.98-11.9,2.61-17.92,3.44c-3.53,0.49-7.03-0.72-10.18-2.55c-0.41-0.24-0.63-0.79-0.64-0.8
		c3.57-0.73,7.29-1.1,10.75-2.26c8.02-2.71,14.56-10.58,14-19.61c-0.32-5.13-3.02-8.88-7.53-11.15c-0.87-0.44-2.73-0.05-3.47,0.66
		c-1.27,1.21-0.74,3.42,0.7,4.42C256.7,128.93,257.47,129.27,258.64,129.91"/>
	<path class="st0" d="M741.13,129.84c1.01-0.39,1.55-0.6,2.09-0.83c1.97-0.85,2.48-2.39,1.64-4.35c-0.91-2.12-2.43-2.07-3.99-1.09
		c-5.83,3.7-8.8,8.86-6.75,16.43c2.43,9.02,11.12,15.02,19.78,15.62c1.48,0.1,2.98,0.14,4.82,0.23c-1.84,2.56-4.53,3-7.08,3.53
		c-5.23,1.1-10.22-0.57-15.27-1.56c-4.16-0.82-8.34-1.52-12.52-2.15c-0.77-0.12-1.69,0.21-2.44,0.55c-2.46,1.14-3.15,2.68-2.16,4.54
		c1.37,2.59,3.33,3.2,5.64,1.76c0.37-0.23,0.69-0.52,1.39-1.04c-1.57,2.47-3.47,3.29-5.29,2.58c-1.65-0.65-3.37-3.74-3.13-5.61
		c0.25-1.97,2.35-3.86,4.91-3.7c3.69,0.24,7.35,0.95,11.01,1.51c1.34,0.21,2.66,0.55,3.74,1.08c-5.12-3.09-10.4-5.94-15.28-9.37
		c-2.78-1.95-5.13-4.67-7.22-7.39c-1.01-1.32-1.22-3.44-1.35-5.23c-0.17-2.26,0.98-3.26,3.19-3.37c3.02-0.14,4.03,0.62,4.34,3.08
		c-0.71-0.64-1.44-1.84-2.31-1.96c-1.17-0.16-2.78,0.17-3.58,0.94c-0.62,0.6-0.78,2.52-0.27,3.28c1.71,2.56,3.55,5.15,5.79,7.23
		c5.81,5.35,12.59,9.19,20.22,11.28c3.03,0.83,6.22,1.11,9.41,1.28c-9.67-2.11-15.64-8.18-17.73-17.46
		c-1.68-7.45,1.22-14.26,7.99-17.64c1.44-0.72,2.99-0.98,4.27,0.46c1.46,1.64,1.64,3.54,0.63,5.36
		C744.83,129.29,743.59,130.39,741.13,129.84"/>
	<path class="st0" d="M558.52,176.97c-0.45-4.62,2.45-7.83,7.83-8.88c4.05-0.79,9.63,0.02,12.26,4.58c3.47,6.05-1.5,12.79-6.61,13.2
		c-1.72,0.14-3.48-0.07-5.21,0.04C562.33,186.19,557.86,181.51,558.52,176.97 M563.71,176.69c0,3.4,2.31,5.9,5.45,5.89
		c2.87-0.01,5.44-2.6,5.41-5.46c-0.04-2.9-3.03-5.96-5.75-5.88C565.89,171.33,563.72,173.63,563.71,176.69"/>
	<path class="st0" d="M523.83,177.37c1.27,2.79,2.49,5.48,3.74,8.26c-0.61,0.14-0.83,0.23-1.06,0.24c-4.08,0.21-4.13,0.23-5.71-3.49
		c-0.72-1.7-1.57-3.12-3.89-3.53v3.45v3.44h-4.59v-17.52c3.49,0.21,6.87,0.44,10.26,0.62c2.24,0.12,3.29,1.63,3.71,3.49
		c0.38,1.73-0.24,3.32-1.81,4.38C524.16,176.92,523.93,177.26,523.83,177.37 M517.04,171.62v4.64c1.7-1.04,3.91-1.76,3.93-2.54
		C521.04,171.32,518.75,171.97,517.04,171.62"/>
	<path class="st0" d="M480.39,185.89c2.17-4.72,4.46-9.03,6.13-13.55c1.31-3.53,3.35-4.76,7.16-3.65c2.6,5.47,5.34,11.22,8.19,17.2
		c-1.41,0-2.44-0.1-3.44,0.02c-1.74,0.22-2.78-0.69-3.1-2.16c-0.32-1.43-1.06-1.73-2.3-1.66c-0.94,0.06-1.9,0.11-2.83-0.01
		c-2.14-0.29-3.53,0.33-4.08,2.6c-0.12,0.5-1.03,1.04-1.63,1.14C483.34,186.01,482.15,185.89,480.39,185.89 M491.43,174.04
		c-0.23,0.03-0.45,0.06-0.67,0.09c-0.58,1.28-1.16,2.57-1.93,4.27h3.61C492.11,176.95,491.77,175.49,491.43,174.04"/>
	<path class="st0" d="M471.86,171.71c-2.53,0.14-4.64-0.04-6.61,0.42c-2.96,0.69-4.33,2.79-4.13,5.53c0.18,2.37,2.4,4.65,5.05,4.88
		c2,0.17,4.01,0.03,6.2,0.03c0.38,1.76,0.42,3.1-2.54,3.56c-4.78,0.73-9.82-0.74-12.29-3.98c-3.34-4.36-1.71-12.34,5.78-13.69
		c2.15-0.39,4.44-0.27,6.62-0.03C472.96,168.76,473.18,169.44,471.86,171.71"/>
	<path class="st0" d="M537.72,168.5h4.72c0,3.86,0.1,7.69-0.04,11.51c-0.07,1.99,0.74,2.65,2.58,2.58c1.57-0.05,3.13-0.01,4.87-0.01
		v3.29c-3.6,0-7.19,0.07-10.78-0.08c-0.47-0.02-1.27-1.1-1.28-1.7C537.67,178.99,537.72,173.87,537.72,168.5"/>
	<path class="st0" d="M673.34,338.36c0.26-2.07,0.48-3.84,0.72-5.79h-3.43c0.26,1.82-1.05,3.87,1.57,5.69h-6.29
		c1.85-1.3,1.86-9.93,0.16-11.86h5.06c-0.24,1.58-0.49,3.2-0.77,4.99h3.65c-0.23-1.7-0.46-3.36-0.68-5.02h5.13
		c-2.07,1.77-1.31,4-1.18,5.97c0.12,1.93-1.31,4.33,1.63,6.02H673.34z"/>
	<path class="st0" d="M288.73,326.31c2.41,0,4.67-0.14,6.9,0.07c0.83,0.08,2,0.81,2.27,1.52c0.31,0.81-0.11,1.97-0.42,2.9
		c-0.15,0.45-0.78,0.74-0.9,0.85c0.68,1.81,1.26,3.35,1.94,5.16c0.19,0.14,0.76,0.53,1.32,0.93c-0.64,0.29-1.3,0.84-1.93,0.81
		c-2.18-0.1-2.91-1.66-3.21-3.57c-0.12-0.8-0.46-1.57-1.04-2.25c0.07,1.89-1.57,4.1,1.4,5.62h-6.51
		C290.48,336.95,290.49,328.33,288.73,326.31 M293.4,331.43c1.77-0.24,1.97-1.47,1.73-2.75c-0.11-0.6-0.78-1.1-1.18-1.65
		c-0.18,0.12-0.37,0.23-0.55,0.35V331.43z"/>
	<path class="st0" d="M402.11,326.31c1.88,0,3.46,0.05,5.02-0.01c1.71-0.07,3.65,0.01,4.15,1.78c0.33,1.21-0.56,2.76-0.94,4.34
		c0.41,1.15,0.97,2.73,1.48,4.16c0.47,0.34,0.99,0.71,1.5,1.09c-0.55,0.31-1.07,0.83-1.64,0.89c-1.85,0.19-3.24-1.33-3.51-3.52
		c-0.1-0.81-0.43-1.6-0.87-2.33c-0.91,3.61-0.76,4.43,1.15,5.65h-6.27C403.95,336.82,403.93,328.22,402.11,326.31 M406.92,327.21
		v4.3C409.24,329.8,409.26,328.34,406.92,327.21"/>
	<path class="st0" d="M331.07,326.31c2.85,0,5.07-0.22,7.2,0.1c1,0.15,2.42,1.21,2.6,2.07c0.23,1.05-0.65,2.34-1.52,3.29
		c0.56,1.39,1.08,2.78,1.7,4.14c0.16,0.35,0.62,0.56,0.92,0.84c0.27,0.25,0.77,0.67,0.72,0.73c-0.26,0.41-0.58,0.94-0.99,1.06
		c-1.87,0.55-3.6-0.75-4-2.81c-0.22-1.13-0.6-2.23-1.06-3.93c-1.41,3.31-1.03,5.2,1.3,6.51h-6.3
		C333.61,336.73,333.61,328.03,331.07,326.31 M336.19,327.27c-0.14,1.37-0.28,2.74-0.44,4.25
		C338.45,330.81,338.71,329.48,336.19,327.27"/>
	<path class="st0" d="M256.97,338.6c2.28-1.66,2.45-10.24,0.43-12.27c2.5,0,4.72-0.21,6.89,0.05c2.9,0.34,3.35,2.75,1.62,5.01
		c0.54,1.86,1.36,3.32,1.26,4.71c-0.11,1.49-1.53,2.15-3.15,2.1c-0.67-0.03-1.34,0.36-2.02,0.39
		C260.51,338.64,259.03,338.6,256.97,338.6 M261.73,337.72c1.95-0.24,2.3-1.32,2.27-2.83c-0.03-1.48-0.47-2.43-2.27-2.37V337.72z
		 M261.62,331.58c2.14-0.32,2.52-1.58,2.2-3.16c-0.09-0.45-0.77-0.77-1.18-1.14c-0.34,0.45-0.88,0.85-0.97,1.34
		C261.51,329.52,261.62,330.46,261.62,331.58"/>
	<path class="st0" d="M385.96,332.08c0-3.92,1.85-5.78,5.69-5.78c3.29,0.01,5.92,2.72,5.59,6.22c-0.33,3.44-1.89,6.07-5.96,6.06
		C387.86,338.59,385.95,336.22,385.96,332.08 M391.86,326.48c-2.83,2.54-3.47,7.56-1.59,10.31c0.29,0.43,0.99,0.82,1.48,0.78
		c0.45-0.03,1.21-0.64,1.23-1.03c0.13-2.58,0.18-5.18,0.07-7.76C393.01,328.07,392.35,327.38,391.86,326.48"/>
	<path class="st0" d="M690.72,328.89v5.89c-0.88-0.96-1.66-1.8-2.43-2.63c-0.2,0.15-0.39,0.3-0.59,0.45v4.85
		c2.41,0.7,3.91-0.22,4.96-2.31v3.22h-9.67c1.62-1.41,1.79-9.86,0.35-11.88h8.88c0.18,0.93,0.37,1.95,0.52,2.73
		c-1.6-0.86-3.07-1.65-5-2.68v4.73C689.92,332.34,689.51,329.91,690.72,328.89"/>
	<path class="st0" d="M443.06,338.42c-2.05-2.51-4.1-5.03-6.15-7.54c0.21,2.47-1.7,5.22,1.09,7.49h-4.27
		c3.61-2.59,1.28-6.25,1.76-9.36c0.1-0.67-1.17-1.56-1.79-2.31c1.86-1.05,3.93-0.55,5.52,1.62c1.04,1.41,2.07,2.82,3.29,4.15
		c-0.26-1.94,1.29-4.18-1.39-5.92h4.29c0.03,0.1,0.06,0.2,0.09,0.3c-0.57,0.21-1.14,0.43-1.89,0.71v10.68
		C443.42,338.3,443.24,338.36,443.06,338.42"/>
	<path class="st0" d="M576.31,326.57v2.94c-0.97-2.32-2.67-2.63-4.89-2.08v4.76c1.28-1.11,2.1-1.82,2.96-2.56v5.13
		c-0.8-0.92-1.54-1.78-2.29-2.64c-0.23,0.14-0.45,0.29-0.67,0.43v4.87c2.59,0.92,3.98-0.56,5.07-2.78c0.97,3.57,0.64,4.01-2.56,3.97
		c-2.27-0.03-4.53,0-7,0c2.11-2.48,2.1-10.6-0.23-12.03H576.31z"/>
	<path class="st0" d="M473.78,326.42v2.45c-1.45-0.67-2.98-1.38-4.94-2.28v4.72c1.96,0.82,2.22-0.9,3.15-2.49v5.45
		c-0.88-0.72-1.76-1.44-2.65-2.17c-0.18,0.18-0.36,0.35-0.54,0.53v4.83c3.58,0.42,4.05,0.18,5.29-2.56v3.47h-9.62
		c1.88-1.47,1.88-10.07,0.2-11.94H473.78z"/>
	<path class="st0" d="M543,327.53v4.95c1.21-1.16,2.03-1.96,3.02-2.9v5.23c-0.94-0.97-1.72-1.8-2.52-2.62
		c-0.21,0.15-0.41,0.29-0.62,0.44c0.52,1.72-0.96,3.84,1.39,5.59h-5.81c1.61-1.62,1.73-9.87-0.04-11.81h9.04
		c0.17,1,0.35,2.01,0.48,2.78c-1.39-0.77-2.89-1.61-4.39-2.45C543.36,327.02,543.18,327.28,543,327.53"/>
	<path class="st0" d="M558.37,338.61c-0.94-0.16-1.87-0.42-2.82-0.46c-0.93-0.04-1.87,0.14-3.05,0.25c1.62-1.47,1.8-9.93,0.34-11.9
		h8.89c0.18,0.9,0.38,1.92,0.59,2.94c-0.16,0.11-0.32,0.23-0.48,0.34c-0.9-2.1-2.28-3.13-4.61-2.32v4.97
		c1.17-1.08,2.02-1.87,2.97-2.74v5.11c-0.93-0.97-1.72-1.79-2.51-2.61c-0.21,0.15-0.42,0.3-0.62,0.45
		C557.6,334.44,556.01,336.68,558.37,338.61"/>
	<path class="st0" d="M516.74,326.58v3.9c-0.16,0.05-0.32,0.1-0.48,0.15c-0.27-0.65-0.41-1.4-0.83-1.92
		c-0.56-0.69-1.29-1.56-2.04-1.68c-0.6-0.09-1.65,0.7-1.98,1.36c-1.28,2.59-1.38,5.35-0.1,7.97c0.92,1.89,3.1,1.71,4.18-0.25
		c0.35-0.64,0.62-1.32,1.25-1.92v4.07c-0.9,0.1-1.77,0.15-2.61,0.31c-2.99,0.57-5.71-1.07-6.91-4.22c-0.9-2.38,0.22-6.48,2.44-7.4
		c1.49-0.62,3.33-0.45,5.02-0.56C515.31,326.35,515.95,326.51,516.74,326.58"/>
	<path class="st0" d="M460.21,330.45c-1.32-1.51-2.2-2.51-3.08-3.52c-0.27,0.16-0.53,0.33-0.8,0.49c0.59,3.6-0.93,7.42,0.97,10.97
		h-5.12c0.3-0.97,0.82-1.96,0.87-2.98c0.13-2.66,0.05-5.33,0.05-7.99c-0.19-0.14-0.39-0.27-0.58-0.42
		c-0.83,0.88-1.66,1.75-2.54,2.67v-3.25h9.58C459.75,327.64,459.94,328.8,460.21,330.45"/>
	<path class="st0" d="M660.44,326.65v4.47c-0.77-1.44-1.1-2.36-1.67-3.08c-1.19-1.51-2.39-1.35-3.37,0.33
		c-1.4,2.4-1.3,4.95-0.34,7.38c0.31,0.81,1.54,1.79,2.29,1.75c0.81-0.05,1.63-1.14,2.32-1.89c0.37-0.42,0.47-1.07,1.18-1.58
		c-0.08,1.37-0.17,2.74-0.24,4.01c-5.24,1.19-9.85,0.43-9.74-6C650.98,325.94,655.75,325.77,660.44,326.65"/>
	<path class="st0" d="M357.64,338.25c0.18-1.14,0.39-2.39,0.63-3.93c0.59,0.95,0.9,1.86,1.53,2.4c0.56,0.49,1.46,0.77,2.22,0.79
		c0.4,0.01,1.22-0.87,1.14-1.12c-0.23-0.73-0.7-1.49-1.3-1.99c-0.75-0.63-1.79-0.92-2.57-1.53c-1.53-1.16-1.67-2.97-1.01-4.44
		c0.44-0.95,1.84-1.7,2.95-2.04c1.14-0.35,2.46-0.08,3.8-0.08v3.72c-0.8-1.01-1.2-1.73-1.79-2.19c-0.52-0.41-1.28-0.75-1.9-0.7
		c-0.43,0.03-1.16,0.79-1.14,1.19c0.02,0.58,0.51,1.25,0.99,1.66c0.62,0.55,1.38,1,2.15,1.32c2.42,0.98,2.63,2.95,2.16,5.04
		c-0.36,1.6-3.07,2.6-5.2,2.21C359.49,338.39,358.62,338.36,357.64,338.25"/>
	<path class="st0" d="M525.13,338.49h-2.4c1.64-4,3.3-8.06,5.08-12.4c2.69,3.84,2.45,8.95,6.1,12.28h-5.48c0-1.2,0.38-2.5-0.1-3.01
		c-0.5-0.52-2.33-0.66-2.66-0.25C525.11,335.81,525.3,337.09,525.13,338.49"/>
	<path class="st0" d="M644.81,326.72v3.84c-0.36-0.15-0.6-0.19-0.62-0.27c-0.39-1.62-1.14-3.61-2.9-3.04
		c-1.11,0.36-1.93,2.51-2.31,4.01c-0.31,1.26-0.03,2.82,0.44,4.07c0.36,0.92,1.39,2.03,2.26,2.17c0.69,0.11,1.68-1.06,2.38-1.8
		c0.42-0.46,0.56-1.19,0.82-1.8c0.2,0.03,0.39,0.07,0.59,0.1c-0.17,1.41-0.33,2.82-0.48,4.01c-6.03,1.46-10.22,0-9.33-7.08
		C636.38,325.28,640.89,326.12,644.81,326.72"/>
	<path class="st0" d="M423.36,326.13c2.76,3.82,2.51,8.91,5.92,12.2h-5.11c0-1.19,0.3-2.49-0.06-2.72c-0.8-0.5-1.94-0.46-2.95-0.64
		c-0.14,1.09-0.27,2.19-0.43,3.46h-2.44C419.92,334.46,421.57,330.45,423.36,326.13"/>
	<path class="st0" d="M278.99,338.31c0-1.19,0.3-2.52-0.06-2.73c-0.81-0.48-1.95-0.42-2.96-0.58c-0.16,1-0.3,2.01-0.45,3.01
		c0.21,0.12,0.44,0.25,0.65,0.38h-3c1.59-3.86,3.25-7.93,5.02-12.24c2.68,3.74,2.54,8.79,5.93,12.16H278.99z"/>
	<path class="st0" d="M618.91,326.72v3.71c-0.12,0.05-0.25,0.09-0.38,0.14c-0.36-0.76-0.7-1.53-1.09-2.26
		c-0.86-1.6-2.73-1.75-3.55-0.21c-1.34,2.52-1.48,5.24-0.39,7.86c0.88,2.15,2.81,2.28,4.18,0.41c0.53-0.72,0.84-1.6,1.75-2.45
		c0,0.67,0.07,1.35-0.02,2.01c-0.11,0.75-0.36,1.48-0.65,2.64c-2.2-0.3-4.77-0.13-6.84-1.06c-2.63-1.17-2.7-4.1-2.28-6.58
		C610.6,325.29,614.91,326.15,618.91,326.72"/>
	<path class="st0" d="M370.91,329.82v-3.38h9.73c0.08,1.21,0.17,2.34,0.26,3.71c-1.33-0.95-1.31-3.55-3.99-2.65
		c0.82,3.44-1.48,7.42,1.74,10.84h-5.4c0.28-0.95,0.81-1.93,0.86-2.95c0.12-2.65,0.04-5.32,0.04-7.98c-0.2-0.14-0.39-0.27-0.59-0.41
		C372.72,327.89,371.89,328.77,370.91,329.82"/>
	<path class="st0" d="M715.07,338.26c0.3-0.89,0.81-1.72,0.84-2.57c0.1-2.75,0.04-5.5,0.04-8.23c-2.46-0.74-2.21,1.87-3.76,2.92
		c0.24-1.56,0.41-2.71,0.6-3.96h9.69v3.63c-1.19-1.11-1.23-3.56-3.69-2.54c0,2.76-0.09,5.59,0.06,8.41
		c0.04,0.75,0.81,1.47,1.32,2.34H715.07z"/>
	<path class="st0" d="M698.12,326.42h9.69v3.53c-1.21-0.92-1.18-3.49-3.68-2.46c0,2.82-0.09,5.73,0.06,8.62
		c0.04,0.68,0.87,1.32,1.44,2.13h-5.16c0.25-1.03,0.73-2.24,0.79-3.47c0.13-2.42,0.04-4.87,0.04-7.33
		c-2.41-0.67-2.21,1.88-3.75,2.95C697.77,328.82,697.93,327.68,698.12,326.42"/>
	<path class="st0" d="M630.07,326.47c-1.61,1.9-1.61,10.46,0.32,11.87h-5.49c1.79-2.85,1.78-10.17-0.25-11.87H630.07z"/>
	<path class="st0" d="M733.04,338.35h-5.62c1.88-2.26,1.9-10.24-0.23-11.87h5.69C730.94,328.42,730.97,336.82,733.04,338.35"/>
	<path class="st0" d="M352.94,338.35h-5.64c1.76-2.08,1.91-10.01-0.06-12.05h2.91h2.73C350.83,328.56,350.88,336.84,352.94,338.35"
		/>
	<path class="st0" d="M593.92,326.67v14.47c-1.17,0.54-1.86,0.47-1.84-1.1c0.04-4.09-0.03-8.18,0.06-12.27
		c0.01-0.55,0.69-1.1,1.06-1.65C593.44,326.3,593.68,326.49,593.92,326.67"/>
	<path class="st0" d="M491.32,326.71v14.48c-1.25,0.49-1.86,0.28-1.85-1.21c0.04-4.09-0.02-8.19,0.07-12.28
		c0.02-0.53,0.73-1.05,1.11-1.58C490.88,326.32,491.1,326.52,491.32,326.71"/>
	<path class="st0" d="M316.4,326.67v14.47c-1.17,0.54-1.86,0.47-1.85-1.09c0.03-4.09-0.03-8.18,0.07-12.27
		c0.01-0.56,0.69-1.1,1.06-1.66C315.92,326.3,316.16,326.48,316.4,326.67"/>
	<path class="st0" d="M573.2,326.32c-1.54-1.17-2.63-2.01-3.95-3.01C571.99,322.41,572.86,323.52,573.2,326.32"/>
	<path class="st0" d="M673.95,128.41c2.31-0.9,3.65,1,5.11,2.01c8.8,6.08,13.79,4.56,20.73-1.42c0.86-0.73,1.6-1.59,2.85-2.83
		c-1.38,5.3-8.75,9.69-15.1,9.59C683,135.7,674.57,131.15,673.95,128.41"/>
	<path class="st0" d="M326.55,129c-3.82,3.52-8.26,6.08-13.52,6.72c-7.09,0.86-11.83-2.93-15.72-8.97c2.55,1.94,4.71,3.59,6.87,5.24
		c4.03,3.1,8.32,2.9,12.62,0.75c2.13-1.06,4.07-2.51,6.16-3.65c0.96-0.53,2.07-0.75,3.11-1.11
		C326.23,128.32,326.39,128.66,326.55,129"/>
	<path class="st0" d="M418.62,110.45c-6.55-10.14-14.38-7.42-22.39-2.11c-0.16-2.42,3.25-4.63,7.66-5.66
		C411.68,100.85,415.79,104.14,418.62,110.45"/>
	<path class="st0" d="M512.65,86.24c2.8-5.39,4.89-8.44,12.86-7.62c3.75,0.39,7.02,2.22,10.01,4.37l-0.52,1.12
		c-1.41-0.62-2.85-1.16-4.21-1.87c-3.09-1.59-6.17-2.91-9.82-2.3c-3.12,0.53-4.71,3.03-6.88,4.8
		C513.55,85.18,513.12,85.74,512.65,86.24"/>
	<path class="st0" d="M464.14,83.93c6.22-8.09,19.62-6.64,23.33,2.04c-1.57-1.31-3.14-2.51-4.58-3.87
		c-3.26-3.1-6.87-2.89-10.64-1.24c-1.68,0.74-3.28,1.68-4.96,2.39C466.45,83.61,465.5,83.65,464.14,83.93"/>
	<path class="st0" d="M603.95,108.15c-1.2-0.57-2.39-1.15-3.6-1.7c-2.09-0.94-4.12-2.21-6.32-2.69c-3.15-0.7-6.2-0.02-8.56,2.47
		c-1.29,1.35-2.51,2.76-3.91,4c1.51-4.71,5.65-7.99,9.58-8.05c5.21-0.08,9.47,1.92,13.39,4.83
		C604.34,107.39,604.14,107.77,603.95,108.15"/>
	<path class="st0" d="M634.79,396.68c-2.27-1.79-4.44-3.73-6.82-5.34c-2.45-1.66-5.08-2.46-8.26-1.83
		c-4.02,0.79-7.18,2.99-10.52,5.03c-0.78,0.48-1.73,0.68-2.78,1.08c0.24-2.42,5.34-5.91,10.46-7.2
		C624.9,386.37,628.89,388.75,634.79,396.68"/>
	<path class="st0" d="M395.86,395.7c-1.36-0.51-2.49-0.83-3.54-1.33c-3.24-1.55-6.41-3.26-9.69-4.7c-2.92-1.28-5.69-0.12-8.11,1.39
		c-2.57,1.59-4.85,3.66-7.42,5.65c3.11-6.16,9.91-9.91,15.87-8.91C388.16,388.67,395.34,392.78,395.86,395.7"/>
	<path class="st0" d="M488.83,413.97c-2.33,3.31-4.45,6.94-9.1,7.35c-5.93,0.52-10.3-1.42-14.22-5.3c0.92,0.15,1.93,0.12,2.76,0.47
		c2.11,0.9,4.11,2.08,6.23,2.98c4.38,1.85,7.87,0.04,10.99-2.92c1-0.95,1.85-2.07,2.77-3.11
		C488.45,413.62,488.64,413.8,488.83,413.97"/>
	<path class="st0" d="M513.88,413.43c1.02,1.15,2.02,2.31,3.06,3.45c3.07,3.34,7.65,4.2,11.99,2.15c1.81-0.85,3.5-1.96,5.31-2.8
		c0.52-0.24,1.29,0.07,1.94,0.13c-0.32,0.5-0.52,1.3-0.97,1.47c-3.27,1.24-6.5,2.76-9.91,3.41c-5.16,0.99-8.7-1.84-11.25-6.1
		c-0.23-0.39-0.52-0.76-0.77-1.13C513.48,413.82,513.68,413.63,513.88,413.43"/>
</g>
</svg>
