<?xml version="1.0" encoding="utf-8"?>
<!-- Generator: Adobe Illustrator 27.8.1, SVG Export Plug-In . SVG Version: 6.00 Build 0)  -->
<svg version="1.1" id="Layer_1" xmlns="http://www.w3.org/2000/svg" xmlns:xlink="http://www.w3.org/1999/xlink" x="0px" y="0px"
	 viewBox="0 0 1000 500" style="enable-background:new 0 0 1000 500;" xml:space="preserve">
<style type="text/css">
	.st0{fill:#FFFFFF;}
</style>
<g>
	<polygon class="st0" points="256.05,296.97 254.18,296.09 252.13,295.15 249.83,294.28 247.28,293.47 244.48,292.72 243.05,292.41 
		241.56,292.16 240,291.97 238.39,291.78 236.71,291.72 235.03,291.66 233.6,291.72 232.1,291.78 230.74,291.97 229.37,292.16 
		228,292.47 226.69,292.84 225.45,293.22 224.21,293.72 223.02,294.22 221.91,294.78 220.79,295.4 219.73,296.09 218.67,296.78 
		217.74,297.59 216.81,298.4 215.87,299.28 215.06,300.15 214.26,301.09 213.51,302.09 212.83,303.15 212.14,304.21 211.58,305.33 
		211.02,306.46 210.52,307.58 210.09,308.83 209.71,310.02 209.34,311.33 209.09,312.58 208.91,313.89 208.72,315.27 208.66,316.64 
		208.6,318.01 208.66,319.39 208.72,320.76 208.91,322.07 209.09,323.39 209.34,324.7 209.71,325.95 210.09,327.2 210.52,328.38 
		211.02,329.57 211.52,330.7 212.76,332.88 213.51,333.88 214.19,334.88 215,335.82 215.87,336.75 216.74,337.57 217.68,338.44 
		218.61,339.19 219.67,339.94 220.72,340.56 221.78,341.19 222.96,341.81 224.08,342.31 225.33,342.75 226.57,343.19 227.81,343.5 
		229.18,343.81 230.49,344.06 231.86,344.19 233.29,344.31 234.72,344.31 236.52,344.31 238.26,344.19 240,344.06 241.62,343.81 
		243.24,343.56 244.73,343.31 246.22,342.94 247.59,342.63 248.96,342.19 250.2,341.81 251.45,341.38 252.57,340.94 253.69,340.44 
		254.68,340 255.68,339.56 256.55,339.13 256.55,351.12 255.93,351.43 255.18,351.81 254.31,352.18 253.31,352.62 252.19,353.06 
		251.01,353.49 249.71,353.87 248.34,354.3 246.85,354.68 245.29,355.06 243.61,355.37 241.87,355.68 240.06,355.87 238.2,356.05 
		236.21,356.18 234.22,356.24 232.17,356.18 230.11,355.99 228.13,355.8 226.2,355.49 224.33,355.06 222.47,354.55 220.6,353.99 
		218.86,353.31 217.11,352.55 215.44,351.74 213.82,350.87 212.26,349.87 210.77,348.81 209.34,347.75 207.97,346.56 206.61,345.31 
		205.36,344 204.18,342.63 203.06,341.19 202,339.69 201.07,338.13 200.14,336.5 199.33,334.88 198.58,333.19 197.9,331.44 
		197.34,329.63 196.84,327.76 196.41,325.88 196.1,324.01 195.85,322.01 195.72,320.01 195.66,318.01 195.72,315.96 195.85,314.02 
		196.1,312.02 196.41,310.15 196.84,308.21 197.34,306.4 197.9,304.59 198.58,302.84 199.33,301.15 200.14,299.53 201.07,297.9 
		202,296.34 203.06,294.84 204.24,293.4 205.43,292.03 206.67,290.72 207.97,289.47 209.41,288.28 210.84,287.16 212.39,286.16 
		213.94,285.16 215.56,284.29 217.24,283.41 218.98,282.72 220.79,282.04 222.59,281.41 224.45,280.91 226.38,280.54 228.37,280.23 
		230.36,279.98 232.41,279.85 234.53,279.79 236.46,279.79 238.39,279.91 240.19,280.1 241.93,280.35 243.61,280.66 245.16,280.97 
		246.72,281.35 248.09,281.73 249.46,282.16 250.7,282.6 251.82,283.04 252.88,283.48 253.81,283.85 254.68,284.29 255.43,284.66 
		256.05,285.03 	"/>
	<rect x="588.72" y="281.1" class="st0" width="12.81" height="73.77"/>
	<polygon class="st0" points="669.51,281.1 632.07,344 669.01,344 669.01,354.87 612.48,354.87 649.98,291.97 615.34,291.97 
		615.34,281.1 	"/>
	<polygon class="st0" points="732.14,281.1 694.7,344 731.64,344 731.64,354.87 675.1,354.87 712.67,291.97 677.97,291.97 
		677.97,281.1 	"/>
	<path class="st0" d="M484.55,281.1l-18.66,32.61l-18.53-32.61h-64.62v10.87h34.7l-35.7,59.84l-33.4-71.83h-0.37l-33.52,72.14
		l-14.55-26.73l1.49-0.56l1.43-0.69l1.37-0.75l1.37-0.87l1.24-1l1.18-1.06l1.12-1.19l1.06-1.25l0.93-1.37l0.81-1.44l0.75-1.56
		l0.62-1.62l0.5-1.75l0.37-1.81l0.19-1.87l0.06-2v-1.38l-0.12-1.37l-0.13-1.31l-0.19-1.31l-0.31-1.19l-0.31-1.19l-0.37-1.19
		l-0.44-1.12l-0.5-1.06l-0.56-1l-0.62-1l-0.62-0.94l-0.75-0.87l-0.75-0.87l-0.81-0.81l-0.87-0.75l-0.87-0.75l-1-0.69l-0.99-0.62
		l-0.99-0.63l-1.12-0.5l-1.12-0.5l-1.18-0.5l-1.24-0.38l-1.24-0.38l-1.31-0.31l-2.8-0.5l-2.86-0.25l-3.05-0.13h-24.82v73.77h12.69
		v-27.36h12.94l14.06,27.36h24.5l6.53-14.61h29.98l6.53,14.61h66.73V344h-36.94l35.45-59.53l24.57,41.54v28.86h12.87v-28.86
		l26.62-44.91H484.55z M298.71,313.02l-0.87,0.81l-0.93,0.75l-0.99,0.69l-1.12,0.56l-1.18,0.44l-1.3,0.38l-1.37,0.25l-1.43,0.13
		l-1.56,0.06h-12.81v-25.11h12.25l1.55,0.06l1.49,0.12l1.43,0.25l1.37,0.37l1.24,0.44l1.18,0.56l1.06,0.69l0.99,0.75l0.87,0.81
		l0.75,0.94l0.68,1.06l0.56,1.12l0.43,1.19l0.31,1.31l0.19,1.44l0.06,1.5l-0.06,1.44l-0.19,1.44l-0.31,1.25l-0.43,1.25l-0.5,1.12
		l-0.62,1L298.71,313.02z M337.34,330.57l2.98-6.75l2.8-6.81l1.37-3.25l1.31-3.25l1.24-3.06l1.24-3l2.36,6.31l2.55,6.37l1.37,3.25
		l1.43,3.31l1.43,3.43l1.55,3.43H337.34z"/>
	<path class="st0" d="M577.96,301.84l-0.12-1.31l-0.25-1.31l-0.25-1.18l-0.31-1.19l-0.37-1.19l-0.44-1.12l-0.5-1.06l-0.5-1l-0.62-1
		l-0.62-0.94l-0.69-0.87l-0.75-0.87l-0.81-0.81l-0.87-0.75l-0.87-0.75l-0.93-0.69l-1-0.62l-0.99-0.63l-1.12-0.5l-1.06-0.5l-1.18-0.5
		l-1.18-0.38l-2.55-0.69l-2.67-0.5l-2.86-0.25l-2.98-0.12H528.2v73.77h12.87v-26.92h10.39l2.98-0.12l2.86-0.25l2.67-0.5l2.55-0.69
		l1.18-0.38l1.18-0.5l1.06-0.5l1.12-0.5l0.99-0.63l1-0.62l0.93-0.69l0.87-0.69l0.87-0.81l0.81-0.81l0.75-0.81l0.69-0.94l0.62-0.94
		l0.62-0.94l0.5-1.06l0.5-1.06l0.44-1.06l0.37-1.19l0.31-1.19l0.25-1.18l0.25-1.31l0.12-1.31l0.12-1.31v-1.37v-1.37L577.96,301.84z
		 M565.09,306.02l-0.19,1.44l-0.31,1.25l-0.38,1.25l-0.5,1.12l-0.62,1l-0.69,0.94l-0.81,0.81l-0.93,0.75l-1,0.69l-1.06,0.56
		l-1.12,0.44l-1.24,0.37l-1.31,0.25l-1.43,0.13l-1.43,0.06h-11.01v-25.11h10.51l1.49,0.06l1.43,0.13l1.37,0.25l1.3,0.38l1.18,0.44
		l1.12,0.56l0.99,0.69l0.93,0.75l0.87,0.81l0.75,0.94l0.62,1.06l0.5,1.12l0.44,1.19l0.31,1.31l0.19,1.44l0.06,1.5L565.09,306.02z"/>
	<path class="st0" d="M769.58,279.97h-0.44l-34.77,74.89h13.43l6.53-14.61h30.04l6.53,14.61h13.43L769.58,279.97z M758.57,330.57
		l2.92-6.81l2.8-6.74l1.37-3.25l1.3-3.25l1.31-3.06l1.18-3l2.36,6.31l2.61,6.37l1.31,3.25l1.43,3.31l1.49,3.43l1.55,3.43H758.57z"/>
	<path class="st0" d="M460.26,180.75c-1.06,12.13,8.54,32.06,10.02,35.08c-3.11,0.46-6.22,0.98-9.31,1.55l-0.55,0.06
		C460.41,217.44,436.02,183.25,460.26,180.75 M490.49,173l1.11,40.75c-2.12,0.11-4.23,0.23-6.34,0.4
		C482.65,207.69,465.54,163.13,490.49,173 M509.51,173c25.01-9.89,7.77,34.85,5.24,41.18c-2.11-0.15-4.22-0.29-6.34-0.4L509.51,173z
		 M539.74,180.75c24.25,2.5-0.14,36.69-0.14,36.69l-0.78-0.09c-3.03-0.55-6.08-1.04-9.11-1.49
		C531.15,212.95,540.8,192.91,539.74,180.75 M444.56,220.84c-4.7,1.12-2.71,8.32,1.98,7.22c17.58-4.16,35.37-6.97,53.45-7.02
		c18.07-0.05,35.91,2.86,53.45,7.02c4.68,1.1,6.7-6.1,1.99-7.22c-0.74-0.17-1.49-0.34-2.23-0.51c1.48-1.9,18.22-24.13,11.28-40.3
		c-3.02-7.05-8.99-14.86-28.7-13.99c-11.17-15.95-35.78-3.82-35.78-3.82s-24.62-12.13-35.78,3.82c-19.72-0.88-25.67,6.94-28.7,13.99
		c-6.92,16.17,9.82,38.4,11.28,40.3C446.05,220.48,445.3,220.67,444.56,220.84 M460.95,231.98c2.06,1.3,4.09,2.67,6.06,4.05
		c-1.38,1.97-2.72,3.96-4.02,5.94c-1.97-1.33-4-2.64-6.05-3.9C458.24,236.02,459.58,233.99,460.95,231.98 M476.49,229.46
		c1.95,1.49,3.84,3,5.71,4.53c-1.55,1.86-3.03,3.73-4.48,5.62c-1.85-1.51-3.76-2.96-5.69-4.39
		C473.46,233.29,474.97,231.37,476.49,229.46 M492.14,228.22c1.83,1.63,3.6,3.29,5.33,4.96c-1.68,1.72-3.33,3.47-4.91,5.24
		c-1.73-1.64-3.5-3.24-5.31-4.84C488.84,231.78,490.48,229.99,492.14,228.22 M507.84,228.22c1.69,1.76,3.32,3.56,4.89,5.36
		c-1.8,1.6-3.57,3.19-5.3,4.84c-1.59-1.76-3.23-3.52-4.91-5.24C504.26,231.51,506.03,229.85,507.84,228.22 M523.5,229.46
		c1.54,1.9,3.03,3.82,4.48,5.76c-1.96,1.43-3.85,2.89-5.69,4.39c-1.45-1.89-2.94-3.76-4.48-5.62
		C519.65,232.46,521.56,230.96,523.5,229.46 M539.04,231.98c1.4,2.01,2.72,4.04,4.02,6.09c-2.06,1.26-4.08,2.57-6.03,3.9
		c-1.31-1.98-2.65-3.97-4.03-5.94C534.96,234.65,536.99,233.29,539.04,231.98 M545.57,246.72c1.29-5.05,2.59-10.09,3.89-15.14
		c-32.44-8.3-66.47-8.3-98.92,0l3.9,15.14C484.33,239.06,515.66,239.06,545.57,246.72 M453.33,258.32c30.77-7.2,62.56-7.2,93.34,0
		c4.63,1.09,6.62-6.03,1.97-7.13c-32.08-7.51-65.21-7.51-97.27,0C446.71,252.29,448.68,259.41,453.33,258.32 M507.4,151.13
		c0-4.07-3.31-7.37-7.39-7.37c-4.11,0-7.42,3.3-7.42,7.37c0,4.09,3.31,7.37,7.42,7.37C504.09,158.5,507.4,155.21,507.4,151.13"/>
</g>
</svg>
