<?xml version="1.0" encoding="utf-8"?>
<!-- Generator: Adobe Illustrator 27.8.1, SVG Export Plug-In . SVG Version: 6.00 Build 0)  -->
<svg version="1.1" id="Layer_1" xmlns="http://www.w3.org/2000/svg" xmlns:xlink="http://www.w3.org/1999/xlink" x="0px" y="0px"
	 viewBox="0 0 1000 500" style="enable-background:new 0 0 1000 500;" xml:space="preserve">
<style type="text/css">
	.st0{fill:#FFFFFF;}
</style>
<g>
	<path class="st0" d="M610.38,201.24c-0.93-0.21-2.03-0.43-3.28-0.64c-1.25-0.22-2.63-0.33-4.14-0.33c-4.08,0-7.23,1.37-9.45,4.09
		c-2.22,2.72-3.33,6.2-3.33,10.42c0,4.94,1.27,8.69,3.81,11.23c2.55,2.54,6.65,3.82,12.31,3.82h6.87V202.2
		C612.39,201.85,611.45,201.52,610.38,201.24z M677.93,188.71c-0.93-0.22-2.02-0.43-3.28-0.65c-1.25-0.21-2.63-0.32-4.13-0.32
		c-4.09,0-7.24,1.36-9.46,4.09c-2.22,2.72-3.33,6.19-3.33,10.42c0,4.94,1.27,8.68,3.81,11.23c2.55,2.54,6.65,3.81,12.31,3.81h6.8
		c0.04-0.57,0.07-1.16,0.07-1.77v-25.85C679.93,189.32,678.99,189,677.93,188.71z M677.93,188.71c-0.93-0.22-2.02-0.43-3.28-0.65
		c-1.25-0.21-2.63-0.32-4.13-0.32c-4.09,0-7.24,1.36-9.46,4.09c-2.22,2.72-3.33,6.19-3.33,10.42c0,4.94,1.27,8.68,3.81,11.23
		c2.55,2.54,6.65,3.81,12.31,3.81h6.8c0.04-0.57,0.07-1.16,0.07-1.77v-25.85C679.93,189.32,678.99,189,677.93,188.71z
		 M610.38,201.24c-0.93-0.21-2.03-0.43-3.28-0.64c-1.25-0.22-2.63-0.33-4.14-0.33c-4.08,0-7.23,1.37-9.45,4.09
		c-2.22,2.72-3.33,6.2-3.33,10.42c0,4.94,1.27,8.69,3.81,11.23c2.55,2.54,6.65,3.82,12.31,3.82h6.87V202.2
		C612.39,201.85,611.45,201.52,610.38,201.24z M610.38,201.24c-0.93-0.21-2.03-0.43-3.28-0.64c-1.25-0.22-2.63-0.33-4.14-0.33
		c-4.08,0-7.23,1.37-9.45,4.09c-2.22,2.72-3.33,6.2-3.33,10.42c0,4.94,1.27,8.69,3.81,11.23c2.55,2.54,6.65,3.82,12.31,3.82h6.87
		V202.2C612.39,201.85,611.45,201.52,610.38,201.24z M677.93,188.71c-0.93-0.22-2.02-0.43-3.28-0.65c-1.25-0.21-2.63-0.32-4.13-0.32
		c-4.09,0-7.24,1.36-9.46,4.09c-2.22,2.72-3.33,6.19-3.33,10.42c0,4.94,1.27,8.68,3.81,11.23c2.55,2.54,6.65,3.81,12.31,3.81h6.8
		c0.04-0.57,0.07-1.16,0.07-1.77v-25.85C679.93,189.32,678.99,189,677.93,188.71z M677.93,188.71c-0.93-0.22-2.02-0.43-3.28-0.65
		c-1.25-0.21-2.63-0.32-4.13-0.32c-4.09,0-7.24,1.36-9.46,4.09c-2.22,2.72-3.33,6.19-3.33,10.42c0,4.94,1.27,8.68,3.81,11.23
		c2.55,2.54,6.65,3.81,12.31,3.81h6.8c0.04-0.57,0.07-1.16,0.07-1.77v-25.85C679.93,189.32,678.99,189,677.93,188.71z
		 M610.38,201.24c-0.93-0.21-2.03-0.43-3.28-0.64c-1.25-0.22-2.63-0.33-4.14-0.33c-4.08,0-7.23,1.37-9.45,4.09
		c-2.22,2.72-3.33,6.2-3.33,10.42c0,4.94,1.27,8.69,3.81,11.23c2.55,2.54,6.65,3.82,12.31,3.82h6.87V202.2
		C612.39,201.85,611.45,201.52,610.38,201.24z M510.31,307.87c-1.45-1.92-3.68-2.88-6.69-2.88c-1.52,0-2.85,0.29-3.97,0.86
		c-1.13,0.57-2.06,1.34-2.81,2.31c-0.75,0.97-1.32,2.11-1.71,3.42c-0.4,1.32-0.63,2.72-0.69,4.21h17.89
		C512.42,312.43,511.75,309.8,510.31,307.87z M610.38,201.24c-0.93-0.21-2.03-0.43-3.28-0.64c-1.25-0.22-2.63-0.33-4.14-0.33
		c-4.08,0-7.23,1.37-9.45,4.09c-2.22,2.72-3.33,6.2-3.33,10.42c0,4.94,1.27,8.69,3.81,11.23c2.55,2.54,6.65,3.82,12.31,3.82h6.87
		V202.2C612.39,201.85,611.45,201.52,610.38,201.24z M677.93,188.71c-0.93-0.22-2.02-0.43-3.28-0.65c-1.25-0.21-2.63-0.32-4.13-0.32
		c-4.09,0-7.24,1.36-9.46,4.09c-2.22,2.72-3.33,6.19-3.33,10.42c0,4.94,1.27,8.68,3.81,11.23c2.55,2.54,6.65,3.81,12.31,3.81h6.8
		c0.04-0.57,0.07-1.16,0.07-1.77v-25.85C679.93,189.32,678.99,189,677.93,188.71z M677.93,188.71c-0.93-0.22-2.02-0.43-3.28-0.65
		c-1.25-0.21-2.63-0.32-4.13-0.32c-4.09,0-7.24,1.36-9.46,4.09c-2.22,2.72-3.33,6.19-3.33,10.42c0,4.94,1.27,8.68,3.81,11.23
		c2.55,2.54,6.65,3.81,12.31,3.81h6.8c0.04-0.57,0.07-1.16,0.07-1.77v-25.85C679.93,189.32,678.99,189,677.93,188.71z
		 M610.38,201.24c-0.93-0.21-2.03-0.43-3.28-0.64c-1.25-0.22-2.63-0.33-4.14-0.33c-4.08,0-7.23,1.37-9.45,4.09
		c-2.22,2.72-3.33,6.2-3.33,10.42c0,4.94,1.27,8.69,3.81,11.23c2.55,2.54,6.65,3.82,12.31,3.82h6.87V202.2
		C612.39,201.85,611.45,201.52,610.38,201.24z M510.31,307.87c-1.45-1.92-3.68-2.88-6.69-2.88c-1.52,0-2.85,0.29-3.97,0.86
		c-1.13,0.57-2.06,1.34-2.81,2.31c-0.75,0.97-1.32,2.11-1.71,3.42c-0.4,1.32-0.63,2.72-0.69,4.21h17.89
		C512.42,312.43,511.75,309.8,510.31,307.87z M378.45,314.73c-0.33-1.76-0.89-3.29-1.69-4.59c-0.79-1.3-1.84-2.32-3.16-3.04
		c-1.32-0.73-2.97-1.1-4.97-1.1c-1.78,0-3.33,0.33-4.66,0.98c-1.34,0.65-2.43,1.6-3.29,2.85c-0.85,1.25-1.5,2.76-1.93,4.52
		c-0.42,1.76-0.64,3.77-0.64,6.02c0,2.09,0.17,4.02,0.53,5.78c0.34,1.76,0.91,3.3,1.68,4.6c0.78,1.29,1.84,2.3,3.17,3.02
		c1.33,0.71,2.98,1.07,4.95,1.07c1.81,0,3.38-0.33,4.71-0.98c1.33-0.65,2.42-1.59,3.28-2.83s1.49-2.74,1.9-4.5
		c0.42-1.76,0.62-3.76,0.62-6.02C378.95,318.42,378.79,316.49,378.45,314.73z M510.31,307.87c-1.45-1.92-3.68-2.88-6.69-2.88
		c-1.52,0-2.85,0.29-3.97,0.86c-1.13,0.57-2.06,1.34-2.81,2.31c-0.75,0.97-1.32,2.11-1.71,3.42c-0.4,1.32-0.63,2.72-0.69,4.21h17.89
		C512.42,312.43,511.75,309.8,510.31,307.87z M610.38,201.24c-0.93-0.21-2.03-0.43-3.28-0.64c-1.25-0.22-2.63-0.33-4.14-0.33
		c-4.08,0-7.23,1.37-9.45,4.09c-2.22,2.72-3.33,6.2-3.33,10.42c0,4.94,1.27,8.69,3.81,11.23c2.55,2.54,6.65,3.82,12.31,3.82h6.87
		V202.2C612.39,201.85,611.45,201.52,610.38,201.24z M677.93,188.71c-0.93-0.22-2.02-0.43-3.28-0.65c-1.25-0.21-2.63-0.32-4.13-0.32
		c-4.09,0-7.24,1.36-9.46,4.09c-2.22,2.72-3.33,6.19-3.33,10.42c0,4.94,1.27,8.68,3.81,11.23c2.55,2.54,6.65,3.81,12.31,3.81h6.8
		c0.04-0.57,0.07-1.16,0.07-1.77v-25.85C679.93,189.32,678.99,189,677.93,188.71z M677.93,188.71c-0.93-0.22-2.02-0.43-3.28-0.65
		c-1.25-0.21-2.63-0.32-4.13-0.32c-4.09,0-7.24,1.36-9.46,4.09c-2.22,2.72-3.33,6.19-3.33,10.42c0,4.94,1.27,8.68,3.81,11.23
		c2.55,2.54,6.65,3.81,12.31,3.81h6.8c0.04-0.57,0.07-1.16,0.07-1.77v-25.85C679.93,189.32,678.99,189,677.93,188.71z
		 M610.38,201.24c-0.93-0.21-2.03-0.43-3.28-0.64c-1.25-0.22-2.63-0.33-4.14-0.33c-4.08,0-7.23,1.37-9.45,4.09
		c-2.22,2.72-3.33,6.2-3.33,10.42c0,4.94,1.27,8.69,3.81,11.23c2.55,2.54,6.65,3.82,12.31,3.82h6.87V202.2
		C612.39,201.85,611.45,201.52,610.38,201.24z M510.31,307.87c-1.45-1.92-3.68-2.88-6.69-2.88c-1.52,0-2.85,0.29-3.97,0.86
		c-1.13,0.57-2.06,1.34-2.81,2.31c-0.75,0.97-1.32,2.11-1.71,3.42c-0.4,1.32-0.63,2.72-0.69,4.21h17.89
		C512.42,312.43,511.75,309.8,510.31,307.87z M378.45,314.73c-0.33-1.76-0.89-3.29-1.69-4.59c-0.79-1.3-1.84-2.32-3.16-3.04
		c-1.32-0.73-2.97-1.1-4.97-1.1c-1.78,0-3.33,0.33-4.66,0.98c-1.34,0.65-2.43,1.6-3.29,2.85c-0.85,1.25-1.5,2.76-1.93,4.52
		c-0.42,1.76-0.64,3.77-0.64,6.02c0,2.09,0.17,4.02,0.53,5.78c0.34,1.76,0.91,3.3,1.68,4.6c0.78,1.29,1.84,2.3,3.17,3.02
		c1.33,0.71,2.98,1.07,4.95,1.07c1.81,0,3.38-0.33,4.71-0.98c1.33-0.65,2.42-1.59,3.28-2.83s1.49-2.74,1.9-4.5
		c0.42-1.76,0.62-3.76,0.62-6.02C378.95,318.42,378.79,316.49,378.45,314.73z M378.45,314.73c-0.33-1.76-0.89-3.29-1.69-4.59
		c-0.79-1.3-1.84-2.32-3.16-3.04c-1.32-0.73-2.97-1.1-4.97-1.1c-1.78,0-3.33,0.33-4.66,0.98c-1.34,0.65-2.43,1.6-3.29,2.85
		c-0.85,1.25-1.5,2.76-1.93,4.52c-0.42,1.76-0.64,3.77-0.64,6.02c0,2.09,0.17,4.02,0.53,5.78c0.34,1.76,0.91,3.3,1.68,4.6
		c0.78,1.29,1.84,2.3,3.17,3.02c1.33,0.71,2.98,1.07,4.95,1.07c1.81,0,3.38-0.33,4.71-0.98c1.33-0.65,2.42-1.59,3.28-2.83
		s1.49-2.74,1.9-4.5c0.42-1.76,0.62-3.76,0.62-6.02C378.95,318.42,378.79,316.49,378.45,314.73z M510.31,307.87
		c-1.45-1.92-3.68-2.88-6.69-2.88c-1.52,0-2.85,0.29-3.97,0.86c-1.13,0.57-2.06,1.34-2.81,2.31c-0.75,0.97-1.32,2.11-1.71,3.42
		c-0.4,1.32-0.63,2.72-0.69,4.21h17.89C512.42,312.43,511.75,309.8,510.31,307.87z M610.38,201.24c-0.93-0.21-2.03-0.43-3.28-0.64
		c-1.25-0.22-2.63-0.33-4.14-0.33c-4.08,0-7.23,1.37-9.45,4.09c-2.22,2.72-3.33,6.2-3.33,10.42c0,4.94,1.27,8.69,3.81,11.23
		c2.55,2.54,6.65,3.82,12.31,3.82h6.87V202.2C612.39,201.85,611.45,201.52,610.38,201.24z M677.93,188.71
		c-0.93-0.22-2.02-0.43-3.28-0.65c-1.25-0.21-2.63-0.32-4.13-0.32c-4.09,0-7.24,1.36-9.46,4.09c-2.22,2.72-3.33,6.19-3.33,10.42
		c0,4.94,1.27,8.68,3.81,11.23c2.55,2.54,6.65,3.81,12.31,3.81h6.8c0.04-0.57,0.07-1.16,0.07-1.77v-25.85
		C679.93,189.32,678.99,189,677.93,188.71z M677.93,188.71c-0.93-0.22-2.02-0.43-3.28-0.65c-1.25-0.21-2.63-0.32-4.13-0.32
		c-4.09,0-7.24,1.36-9.46,4.09c-2.22,2.72-3.33,6.19-3.33,10.42c0,4.94,1.27,8.68,3.81,11.23c2.55,2.54,6.65,3.81,12.31,3.81h6.8
		c0.04-0.57,0.07-1.16,0.07-1.77v-25.85C679.93,189.32,678.99,189,677.93,188.71z M610.38,201.24c-0.93-0.21-2.03-0.43-3.28-0.64
		c-1.25-0.22-2.63-0.33-4.14-0.33c-4.08,0-7.23,1.37-9.45,4.09c-2.22,2.72-3.33,6.2-3.33,10.42c0,4.94,1.27,8.69,3.81,11.23
		c2.55,2.54,6.65,3.82,12.31,3.82h6.87V202.2C612.39,201.85,611.45,201.52,610.38,201.24z M510.31,307.87
		c-1.45-1.92-3.68-2.88-6.69-2.88c-1.52,0-2.85,0.29-3.97,0.86c-1.13,0.57-2.06,1.34-2.81,2.31c-0.75,0.97-1.32,2.11-1.71,3.42
		c-0.4,1.32-0.63,2.72-0.69,4.21h17.89C512.42,312.43,511.75,309.8,510.31,307.87z M378.45,314.73c-0.33-1.76-0.89-3.29-1.69-4.59
		c-0.79-1.3-1.84-2.32-3.16-3.04c-1.32-0.73-2.97-1.1-4.97-1.1c-1.78,0-3.33,0.33-4.66,0.98c-1.34,0.65-2.43,1.6-3.29,2.85
		c-0.85,1.25-1.5,2.76-1.93,4.52c-0.42,1.76-0.64,3.77-0.64,6.02c0,2.09,0.17,4.02,0.53,5.78c0.34,1.76,0.91,3.3,1.68,4.6
		c0.78,1.29,1.84,2.3,3.17,3.02c1.33,0.71,2.98,1.07,4.95,1.07c1.81,0,3.38-0.33,4.71-0.98c1.33-0.65,2.42-1.59,3.28-2.83
		s1.49-2.74,1.9-4.5c0.42-1.76,0.62-3.76,0.62-6.02C378.95,318.42,378.79,316.49,378.45,314.73z M266.07,334.06
		c-0.17-0.16-0.37-0.26-0.64-0.31c-0.14-0.02-0.54-0.03-1.21-0.03h-1.29v2.05h1.22c0.8,0,1.31-0.03,1.49-0.08
		c0.2-0.07,0.35-0.18,0.48-0.34c0.1-0.18,0.16-0.39,0.16-0.62C266.27,334.45,266.2,334.24,266.07,334.06z M378.45,314.73
		c-0.33-1.76-0.89-3.29-1.69-4.59c-0.79-1.3-1.84-2.32-3.16-3.04c-1.32-0.73-2.97-1.1-4.97-1.1c-1.78,0-3.33,0.33-4.66,0.98
		c-1.34,0.65-2.43,1.6-3.29,2.85c-0.85,1.25-1.5,2.76-1.93,4.52c-0.42,1.76-0.64,3.77-0.64,6.02c0,2.09,0.17,4.02,0.53,5.78
		c0.34,1.76,0.91,3.3,1.68,4.6c0.78,1.29,1.84,2.3,3.17,3.02c1.33,0.71,2.98,1.07,4.95,1.07c1.81,0,3.38-0.33,4.71-0.98
		c1.33-0.65,2.42-1.59,3.28-2.83s1.49-2.74,1.9-4.5c0.42-1.76,0.62-3.76,0.62-6.02C378.95,318.42,378.79,316.49,378.45,314.73z
		 M510.31,307.87c-1.45-1.92-3.68-2.88-6.69-2.88c-1.52,0-2.85,0.29-3.97,0.86c-1.13,0.57-2.06,1.34-2.81,2.31
		c-0.75,0.97-1.32,2.11-1.71,3.42c-0.4,1.32-0.63,2.72-0.69,4.21h17.89C512.42,312.43,511.75,309.8,510.31,307.87z M610.38,201.24
		c-0.93-0.21-2.03-0.43-3.28-0.64c-1.25-0.22-2.63-0.33-4.14-0.33c-4.08,0-7.23,1.37-9.45,4.09c-2.22,2.72-3.33,6.2-3.33,10.42
		c0,4.94,1.27,8.69,3.81,11.23c2.55,2.54,6.65,3.82,12.31,3.82h6.87V202.2C612.39,201.85,611.45,201.52,610.38,201.24z
		 M677.93,188.71c-0.93-0.22-2.02-0.43-3.28-0.65c-1.25-0.21-2.63-0.32-4.13-0.32c-4.09,0-7.24,1.36-9.46,4.09
		c-2.22,2.72-3.33,6.19-3.33,10.42c0,4.94,1.27,8.68,3.81,11.23c2.55,2.54,6.65,3.81,12.31,3.81h6.8c0.04-0.57,0.07-1.16,0.07-1.77
		v-25.85C679.93,189.32,678.99,189,677.93,188.71z M677.93,188.71c-0.93-0.22-2.02-0.43-3.28-0.65c-1.25-0.21-2.63-0.32-4.13-0.32
		c-4.09,0-7.24,1.36-9.46,4.09c-2.22,2.72-3.33,6.19-3.33,10.42c0,4.94,1.27,8.68,3.81,11.23c2.55,2.54,6.65,3.81,12.31,3.81h6.8
		c0.04-0.57,0.07-1.16,0.07-1.77v-25.85C679.93,189.32,678.99,189,677.93,188.71z M607.09,200.6c-1.25-0.22-2.63-0.33-4.14-0.33
		c-4.08,0-7.23,1.37-9.45,4.09c-2.22,2.72-3.33,6.2-3.33,10.42c0,4.94,1.27,8.69,3.81,11.23c2.55,2.54,6.65,3.82,12.31,3.82h6.87
		V202.2c-0.78-0.36-1.72-0.68-2.79-0.97C609.45,201.02,608.34,200.81,607.09,200.6z M510.31,307.87c-1.45-1.92-3.68-2.88-6.69-2.88
		c-1.52,0-2.85,0.29-3.97,0.86c-1.13,0.57-2.06,1.34-2.81,2.31c-0.75,0.97-1.32,2.11-1.71,3.42c-0.4,1.32-0.63,2.72-0.69,4.21h17.89
		C512.42,312.43,511.75,309.8,510.31,307.87z M378.45,314.73c-0.33-1.76-0.89-3.29-1.69-4.59c-0.79-1.3-1.84-2.32-3.16-3.04
		c-1.32-0.73-2.97-1.1-4.97-1.1c-1.78,0-3.33,0.33-4.66,0.98c-1.34,0.65-2.43,1.6-3.29,2.85c-0.85,1.25-1.5,2.76-1.93,4.52
		c-0.42,1.76-0.64,3.77-0.64,6.02c0,2.09,0.17,4.02,0.53,5.78c0.34,1.76,0.91,3.3,1.68,4.6c0.78,1.29,1.84,2.3,3.17,3.02
		c1.33,0.71,2.98,1.07,4.95,1.07c1.81,0,3.38-0.33,4.71-0.98c1.33-0.65,2.42-1.59,3.28-2.83s1.49-2.74,1.9-4.5
		c0.42-1.76,0.62-3.76,0.62-6.02C378.95,318.42,378.79,316.49,378.45,314.73z M266.07,334.06c-0.17-0.16-0.37-0.26-0.64-0.31
		c-0.14-0.02-0.54-0.03-1.21-0.03h-1.29v2.05h1.22c0.8,0,1.31-0.03,1.49-0.08c0.2-0.07,0.35-0.18,0.48-0.34
		c0.1-0.18,0.16-0.39,0.16-0.62C266.27,334.45,266.2,334.24,266.07,334.06z M733.55,146.24c-63.28,0-183.3-0.02-275.95-0.17h-0.69
		c-70.26,0-165.97,16.62-192.51,95.76c-13.53,40.34-29.39,96.9-33.61,111.94h42.89c63.29,0,183.31,0.02,275.96,0.16h0.69
		c70.24,0,159.57-16.61,186.11-95.76c12.54-37.4,28.99-95.47,33.59-111.93H733.55z M264.5,344.39c-4.5,0-8.13-3.58-8.13-8
		c0-4.41,3.63-7.99,8.13-7.99c4.48,0,8.11,3.58,8.11,7.99C272.61,340.81,268.98,344.39,264.5,344.39z M673.31,155.61
		c4.09,0,7.41,3.32,7.41,7.41c0,4.1-3.32,7.41-7.41,7.41c-4.1,0-7.42-3.31-7.42-7.41C665.89,158.93,669.2,155.61,673.31,155.61z
		 M555.09,166.63c4.09,0,7.41,3.32,7.41,7.42c0,4.09-3.32,7.41-7.41,7.41c-4.1,0-7.42-3.32-7.42-7.41
		C547.68,169.95,550.99,166.63,555.09,166.63z M516.98,166.63c4.1,0,7.42,3.32,7.42,7.42c0,4.09-3.32,7.41-7.42,7.41
		c-4.09,0-7.41-3.32-7.41-7.41C509.58,169.95,512.9,166.63,516.98,166.63z M499.2,166.63c4.1,0,7.41,3.32,7.41,7.42
		c0,4.09-3.31,7.41-7.41,7.41c-4.09,0-7.42-3.32-7.42-7.41C491.79,169.95,495.12,166.63,499.2,166.63z M371.48,200.21
		c0.01-0.03,0.01-0.06,0.02-0.09c0.81-4.63,4.49-8.22,9.13-8.98l7.89-1.3c-1.15,2.51-2.04,5.38-2.69,8.6
		c-0.64,3.22-0.96,6.27-0.96,9.13c0,3.8,0.45,7.09,1.34,9.89c0.9,2.79,2.39,5.1,4.48,6.93c2.08,1.83,4.83,3.19,8.24,4.08
		c3.42,0.9,15.36,1.34,20.39,1.34h7.33v-32.44c0-3.66,2.74-6.75,6.38-7.2h0.07c2-0.29,4.3-0.54,6.87-0.76
		c2.58-0.21,5.34-0.32,8.28-0.32c4.73,0,8.68,0.55,11.87,1.67c3.19,1.11,5.73,2.68,7.63,4.72c1.9,2.04,3.26,4.53,4.08,7.47
		c0.83,2.94,1.24,6.23,1.24,9.89v16.97h29.96v-39.32h14.18v39.32h30.85v-39.32h14.18v41.53c0,4.96-4.01,8.97-8.97,8.97h-87
		c-3.84,0-6.95-3.11-6.95-6.95v-19.7c0-5.16-0.88-8.79-2.64-10.91c-1.75-2.11-4.85-3.16-9.29-3.16c-0.93,0-1.81,0.03-2.63,0.1
		c-0.83,0.08-1.56,0.15-2.21,0.22c-0.79,0.14-1.54,0.25-2.25,0.32v31.11c0,4.96-4.02,8.97-8.97,8.97h-13.49
		c-7.31,0-21.19-0.73-26.2-2.2c-5.02-1.47-9.08-3.58-12.2-6.34s-5.35-6.09-6.72-10c-1.36-3.9-2.04-8.32-2.04-13.27
		C370.68,206.25,370.95,203.26,371.48,200.21z M424.73,253.49c0,4.1-3.32,7.42-7.42,7.42c-4.09,0-7.41-3.32-7.41-7.42
		c0-4.09,3.32-7.41,7.41-7.41C421.4,246.07,424.73,249.39,424.73,253.49z M406.94,253.49c0,4.1-3.32,7.42-7.41,7.42
		c-4.1,0-7.42-3.32-7.42-7.42c0-4.09,3.32-7.41,7.42-7.41C403.62,246.07,406.94,249.39,406.94,253.49z M339.95,289.27
		c-0.08,0.65-0.21,1.16-0.38,1.54c-0.18,0.38-0.37,0.67-0.6,0.86c-0.22,0.19-0.47,0.29-0.76,0.29H318.1v16.55h18.88
		c0.29,0,0.54,0.08,0.77,0.24c0.22,0.16,0.42,0.43,0.59,0.81c0.17,0.38,0.3,0.89,0.38,1.52c0.08,0.64,0.12,1.43,0.12,2.38
		s-0.04,1.75-0.12,2.38c-0.08,0.64-0.21,1.16-0.38,1.57c-0.17,0.41-0.37,0.71-0.59,0.88c-0.23,0.18-0.48,0.26-0.77,0.26H318.1v22.94
		c0,0.35-0.1,0.65-0.29,0.9c-0.19,0.26-0.53,0.47-1.02,0.65c-0.5,0.17-1.14,0.31-1.93,0.4c-0.79,0.09-1.81,0.14-3.05,0.14
		c-1.2,0-2.21-0.05-3.02-0.14c-0.81-0.09-1.45-0.23-1.93-0.4c-0.47-0.18-0.81-0.39-1.02-0.65c-0.2-0.25-0.31-0.55-0.31-0.9v-55.82
		c0-1.39,0.36-2.4,1.07-3.02c0.72-0.62,1.6-0.93,2.64-0.93h28.98c0.29,0,0.54,0.09,0.76,0.27c0.23,0.17,0.42,0.46,0.6,0.85
		c0.17,0.4,0.3,0.93,0.38,1.6c0.08,0.66,0.12,1.47,0.12,2.42C340.08,287.82,340.04,288.62,339.95,289.27z M389.85,329.93
		c-0.95,2.99-2.4,5.56-4.33,7.71c-1.93,2.16-4.36,3.83-7.28,5c-2.92,1.17-6.33,1.76-10.23,1.76c-3.78,0-7.06-0.52-9.85-1.57
		c-2.79-1.05-5.11-2.57-6.95-4.57c-1.84-2-3.2-4.45-4.09-7.37c-0.89-2.92-1.33-6.25-1.33-10c0-3.61,0.48-6.92,1.45-9.92
		s2.42-5.56,4.35-7.7c1.94-2.15,4.35-3.8,7.26-4.98c2.9-1.17,6.3-1.76,10.21-1.76c3.8,0,7.1,0.52,9.89,1.55
		c2.79,1.03,5.1,2.54,6.93,4.54c1.82,2,3.18,4.46,4.07,7.38c0.88,2.92,1.33,6.26,1.33,10.04
		C391.27,323.64,390.8,326.95,389.85,329.93z M441.29,341.68c0,0.32-0.1,0.59-0.29,0.83s-0.51,0.44-0.95,0.59
		c-0.44,0.16-1.05,0.28-1.83,0.36c-0.78,0.08-1.74,0.12-2.88,0.12c-1.18,0-2.15-0.04-2.93-0.12c-0.77-0.08-1.38-0.2-1.83-0.36
		c-0.44-0.15-0.76-0.35-0.95-0.59s-0.29-0.51-0.29-0.83v-24.22c0-2.06-0.15-3.68-0.45-4.85c-0.3-1.18-0.74-2.19-1.31-3.03
		c-0.57-0.84-1.3-1.49-2.21-1.95c-0.9-0.46-1.96-0.69-3.16-0.69c-1.53,0-3.06,0.56-4.62,1.67c-1.55,1.11-3.17,2.73-4.85,4.85v28.22
		c0,0.32-0.1,0.59-0.29,0.83s-0.51,0.44-0.97,0.59c-0.46,0.16-1.07,0.28-1.83,0.36c-0.77,0.08-1.73,0.12-2.91,0.12
		c-1.17,0-2.14-0.04-2.9-0.12c-0.76-0.08-1.37-0.2-1.83-0.36c-0.46-0.15-0.79-0.35-0.98-0.59s-0.28-0.51-0.28-0.83v-42.44
		c0-0.32,0.08-0.6,0.23-0.84c0.16-0.23,0.45-0.43,0.86-0.59c0.41-0.16,0.94-0.28,1.59-0.36s1.47-0.12,2.46-0.12
		c1.01,0,1.85,0.04,2.52,0.12c0.66,0.08,1.18,0.2,1.54,0.36c0.37,0.16,0.63,0.36,0.79,0.59c0.16,0.24,0.24,0.52,0.24,0.84v4.9
		c2.34-2.54,4.73-4.45,7.16-5.71c2.42-1.27,4.95-1.91,7.59-1.91c2.88,0,5.32,0.48,7.3,1.43c1.98,0.95,3.59,2.25,4.81,3.88
		c1.22,1.63,2.1,3.54,2.64,5.73c0.54,2.19,0.81,4.82,0.81,7.9V341.68z M467.21,332.48c0.73,1.16,2.03,1.74,3.9,1.74
		c0.64,0,1.21-0.06,1.72-0.17c0.5-0.11,0.95-0.24,1.35-0.38c0.4-0.14,0.73-0.27,1-0.38c0.27-0.11,0.52-0.16,0.74-0.16
		c0.19,0,0.37,0.05,0.55,0.16c0.17,0.11,0.31,0.33,0.4,0.67c0.1,0.33,0.18,0.78,0.26,1.35c0.08,0.57,0.12,1.3,0.12,2.19
		c0,1.4-0.09,2.47-0.26,3.21c-0.18,0.75-0.41,1.27-0.69,1.57c-0.29,0.31-0.71,0.58-1.26,0.81c-0.56,0.24-1.21,0.45-1.95,0.62
		c-0.75,0.17-1.56,0.31-2.43,0.4c-0.87,0.1-1.75,0.15-2.64,0.15c-2.38,0-4.44-0.3-6.19-0.91c-1.74-0.6-3.18-1.53-4.33-2.78
		c-1.14-1.25-1.98-2.83-2.52-4.73c-0.54-1.91-0.81-4.16-0.81-6.76v-21.75h-5.09c-0.6,0-1.06-0.37-1.38-1.11
		c-0.32-0.75-0.47-1.99-0.47-3.74c0-0.92,0.03-1.7,0.11-2.33c0.08-0.64,0.2-1.13,0.36-1.5c0.16-0.36,0.36-0.63,0.6-0.79
		c0.23-0.16,0.51-0.24,0.83-0.24h5.04v-9.46c0-0.32,0.09-0.6,0.26-0.86c0.18-0.25,0.5-0.47,0.96-0.64c0.46-0.17,1.07-0.3,1.85-0.38
		c0.78-0.08,1.74-0.12,2.88-0.12c1.17,0,2.15,0.04,2.93,0.12c0.77,0.08,1.38,0.21,1.83,0.38c0.44,0.17,0.76,0.39,0.95,0.64
		c0.19,0.26,0.29,0.54,0.29,0.86v9.46h9.23c0.31,0,0.59,0.08,0.83,0.24c0.24,0.16,0.44,0.43,0.6,0.79c0.15,0.37,0.27,0.86,0.35,1.5
		c0.08,0.63,0.12,1.41,0.12,2.33c0,1.75-0.16,2.99-0.47,3.74c-0.32,0.74-0.78,1.11-1.38,1.11h-9.28v19.94
		C466.13,329.58,466.49,331.31,467.21,332.48z M523.94,319.23c0,1.46-0.33,2.54-0.98,3.24c-0.65,0.69-1.54,1.04-2.69,1.04h-25.83
		c0,1.81,0.21,3.45,0.64,4.93c0.43,1.47,1.11,2.73,2.04,3.76c0.94,1.03,2.15,1.81,3.62,2.35c1.48,0.54,3.24,0.81,5.31,0.81
		c2.09,0,3.93-0.15,5.52-0.45c1.58-0.3,2.95-0.64,4.11-1c1.16-0.37,2.12-0.7,2.88-1s1.38-0.45,1.86-0.45c0.28,0,0.52,0.05,0.71,0.16
		c0.19,0.12,0.35,0.31,0.48,0.6c0.12,0.28,0.21,0.69,0.26,1.21c0.05,0.53,0.07,1.19,0.07,1.98c0,0.7-0.02,1.29-0.05,1.78
		c-0.03,0.49-0.08,0.91-0.14,1.26c-0.06,0.35-0.16,0.64-0.29,0.88c-0.12,0.24-0.29,0.47-0.5,0.69c-0.2,0.22-0.77,0.52-1.68,0.91
		c-0.92,0.38-2.1,0.75-3.53,1.11c-1.42,0.37-3.06,0.69-4.9,0.96c-1.84,0.27-3.8,0.4-5.9,0.4c-3.78,0-7.08-0.47-9.92-1.43
		c-2.84-0.95-5.21-2.39-7.11-4.33c-1.91-1.93-3.33-4.37-4.26-7.32c-0.94-2.95-1.41-6.41-1.41-10.38c0-3.77,0.5-7.18,1.48-10.2
		c0.98-3.03,2.41-5.6,4.28-7.71s4.15-3.72,6.83-4.83c2.68-1.11,5.7-1.67,9.06-1.67c3.56,0,6.6,0.53,9.12,1.57
		c2.52,1.05,4.59,2.5,6.21,4.36c1.62,1.85,2.81,4.05,3.57,6.59c0.76,2.53,1.14,5.29,1.14,8.28V319.23z M652.97,253.56
		c-1.2,3.44-2.82,6.78-4.75,9.97c-1.76,2.92-3.84,5.69-6.16,8.32c-1.15,1.33-2.42,2.56-3.69,3.81c-1.33,1.19-2.65,2.4-4.09,3.5
		c-0.7,0.57-1.41,1.13-2.17,1.64l-2.24,1.57c-1.56,0.96-3.09,1.99-4.74,2.85c-3.21,1.86-6.68,3.31-10.18,4.71l-2.68,0.94
		c-0.9,0.31-1.79,0.64-2.71,0.88c-1.83,0.5-3.64,1.08-5.51,1.47l-2.79,0.63c-0.93,0.23-1.87,0.36-2.81,0.54l-2.83,0.5
		c-0.94,0.15-1.89,0.24-2.84,0.36l-2.85,0.35c-0.96,0.11-1.91,0.16-2.86,0.24c-1.91,0.15-3.81,0.31-5.76,0.36
		c-3.87,0.13-7.7,0.03-11.5-0.15c-7.6-0.38-15.06-1.27-22.42-2.31c-3.69-0.51-7.34-1.11-10.98-1.73c-3.64-0.61-7.26-1.26-10.87-1.9
		l-21.5-4.1c-7.13-1.39-14.24-2.74-21.33-3.99c-7.09-1.3-14.18-2.43-21.26-3.46c-7.08-1.02-14.16-1.82-21.23-2.43
		c-3.54-0.29-7.07-0.5-10.6-0.65c-3.53-0.14-7.05-0.23-10.56-0.18c-3.52,0.03-7.02,0.15-10.51,0.38c-3.5,0.22-6.96,0.61-10.42,1.04
		c-3.43,0.5-6.86,1.06-10.23,1.82c-0.86,0.17-1.69,0.37-2.53,0.59c-0.84,0.21-1.69,0.4-2.52,0.62c-1.65,0.47-3.32,0.92-4.96,1.46
		c-6.59,2.04-12.9,4.79-18.92,8.08c-2.97,1.69-5.93,3.45-8.72,5.42c-0.03,0.02-0.06,0.04-0.09,0.06c-1.01,0.67-1.88-1.15-0.98-2.06
		c2.25-2.25,4.66-4.4,7.23-6.42c5.53-4.32,11.72-8.09,18.4-11.09c6.66-3.06,13.78-5.34,21.06-7.05c7.3-1.66,14.78-2.76,22.28-3.31
		c3.76-0.3,7.52-0.44,11.28-0.53c3.76-0.06,7.52-0.01,11.27,0.11c7.5,0.21,14.95,0.86,22.36,1.64c7.4,0.82,14.75,1.89,22.04,3.04
		c7.29,1.21,14.53,2.54,21.72,3.91l21.45,4.26c7.11,1.45,14.2,2.81,21.25,4.07c3.52,0.63,7.04,1.21,10.55,1.71
		c3.51,0.5,7,0.99,10.48,1.33c3.48,0.35,6.94,0.58,10.35,0.68c1.7,0.07,3.43,0.03,5.16,0.01c0.86-0.02,1.73-0.01,2.58-0.04
		l2.57-0.15c0.86-0.06,1.72-0.08,2.58-0.16l2.54-0.26c0.85-0.09,1.72-0.13,2.55-0.27l2.53-0.37c1.7-0.21,3.33-0.6,5-0.91
		c1.66-0.33,3.28-0.78,4.93-1.17c3.22-0.94,6.43-1.95,9.47-3.27c1.57-0.6,3.02-1.37,4.54-2.06c1.44-0.79,2.93-1.54,4.32-2.42
		c1.44-0.82,2.77-1.76,4.14-2.68c1.32-0.98,2.64-1.96,3.89-3.01c2.52-2.09,4.85-4.39,7.02-6.84c2.15-2.45,4.11-5.07,5.85-7.83
		c0.29-0.45,0.57-0.9,0.85-1.36C652.1,251.14,653.44,252.26,652.97,253.56z M694.47,214.13c0,3.72-0.63,7.21-1.88,10.48
		c-1.26,3.25-3.23,6.1-5.91,8.54c-2.69,2.43-6.17,4.35-10.43,5.74c-4.26,1.4-9.4,2.1-15.42,2.1h-33.91v0.21
		c0,3.73-0.63,7.22-1.88,10.48c-1.26,3.26-3.23,6.11-5.91,8.54c-2.69,2.44-6.16,4.36-10.42,5.75c-4.27,1.4-9.41,2.1-15.42,2.1
		c-2.08,0-4.07-0.07-5.97-0.22c-1.9-0.14-3.63-0.28-5.21-0.43h-0.06c-2.86-0.33-4.94-2.87-4.73-5.75l0.49-6.6
		c1.65,0.36,3.4,0.68,5.27,0.96c1.57,0.22,3.36,0.42,5.37,0.59c2,0.18,4.05,0.27,6.12,0.27c5.59,0,10.09-1.11,13.49-3.33
		c3.4-2.22,5.1-5.87,5.1-10.96v-1.61h-8.38c-5.23,0-9.67-0.59-13.32-1.77c-3.65-1.18-6.63-2.85-8.92-5c-2.29-2.15-3.96-4.76-5-7.84
		c-1.04-3.08-1.55-6.52-1.55-10.32c0-3.51,0.55-6.89,1.66-10.15s2.83-6.13,5.16-8.6c2.32-2.47,5.28-4.46,8.86-5.96
		c3.58-1.51,7.85-2.26,12.79-2.26c3.22,0,6.18,0.2,8.86,0.59c2.69,0.4,5.07,0.84,7.15,1.35c2.36,0.57,4.52,1.18,6.45,1.82v36.97
		h35.2c3.57,0,6.69-0.46,9.36-1.37c-4.86-0.06-9.02-0.64-12.47-1.76c-3.66-1.18-6.63-2.85-8.92-4.99c-2.29-2.15-3.96-4.77-5-7.85
		c-1.04-3.08-1.56-6.52-1.56-10.31c0-3.51,0.56-6.9,1.67-10.16c1.11-3.26,2.83-6.12,5.16-8.59c2.33-2.47,5.28-4.46,8.86-5.97
		c3.58-1.5,7.85-2.25,12.79-2.25c3.22,0,6.18,0.19,8.86,0.59c2.69,0.39,5.07,0.84,7.15,1.34l0.04,0.01
		c3.76,0.91,6.41,4.28,6.41,8.16V214.13z M674.65,188.06c-1.25-0.21-2.63-0.32-4.13-0.32c-4.09,0-7.24,1.36-9.46,4.09
		c-2.22,2.72-3.33,6.19-3.33,10.42c0,4.94,1.27,8.68,3.81,11.23c2.55,2.54,6.65,3.81,12.31,3.81h6.8c0.04-0.57,0.07-1.16,0.07-1.77
		v-25.85c-0.79-0.35-1.72-0.67-2.79-0.96C676.99,188.49,675.91,188.29,674.65,188.06z M607.09,200.6c-1.25-0.22-2.63-0.33-4.14-0.33
		c-4.08,0-7.23,1.37-9.45,4.09c-2.22,2.72-3.33,6.2-3.33,10.42c0,4.94,1.27,8.69,3.81,11.23c2.55,2.54,6.65,3.82,12.31,3.82h6.87
		V202.2c-0.78-0.36-1.72-0.68-2.79-0.97C609.45,201.02,608.34,200.81,607.09,200.6z M503.62,304.99c-1.52,0-2.85,0.29-3.97,0.86
		c-1.13,0.57-2.06,1.34-2.81,2.31c-0.75,0.97-1.32,2.11-1.71,3.42c-0.4,1.32-0.63,2.72-0.69,4.21h17.89c0.09-3.36-0.58-6-2.02-7.92
		C508.86,305.95,506.63,304.99,503.62,304.99z M376.76,310.13c-0.79-1.3-1.84-2.32-3.16-3.04c-1.32-0.73-2.97-1.1-4.97-1.1
		c-1.78,0-3.33,0.33-4.66,0.98c-1.34,0.65-2.43,1.6-3.29,2.85c-0.85,1.25-1.5,2.76-1.93,4.52c-0.42,1.76-0.64,3.77-0.64,6.02
		c0,2.09,0.17,4.02,0.53,5.78c0.34,1.76,0.91,3.3,1.68,4.6c0.78,1.29,1.84,2.3,3.17,3.02c1.33,0.71,2.98,1.07,4.95,1.07
		c1.81,0,3.38-0.33,4.71-0.98c1.33-0.65,2.42-1.59,3.28-2.83s1.49-2.74,1.9-4.5c0.42-1.76,0.62-3.76,0.62-6.02
		c0-2.09-0.16-4.02-0.5-5.78C378.12,312.96,377.56,311.43,376.76,310.13z M264.5,329.81c-3.71,0-6.71,2.96-6.71,6.59
		c0,3.65,3,6.59,6.71,6.59c3.69,0,6.69-2.94,6.69-6.59C271.19,332.76,268.19,329.81,264.5,329.81z M266.69,340.45l-1.22-1.76
		c-0.43-0.63-0.72-1.03-0.88-1.2c-0.16-0.16-0.32-0.28-0.48-0.33c-0.19-0.06-0.47-0.09-0.84-0.09h-0.34v3.38h-1.66v-8.09h3.48
		c0.88,0,1.53,0.06,1.94,0.21c0.39,0.13,0.7,0.4,0.94,0.77c0.25,0.37,0.35,0.8,0.35,1.28c0,0.61-0.17,1.11-0.54,1.5
		c-0.36,0.39-0.9,0.65-1.62,0.75c0.35,0.22,0.66,0.43,0.89,0.68c0.24,0.24,0.55,0.7,0.95,1.32l1,1.58H266.69z M266.27,334.73
		c0-0.27-0.07-0.49-0.21-0.67c-0.17-0.16-0.37-0.26-0.64-0.31c-0.14-0.02-0.54-0.03-1.21-0.03h-1.29v2.05h1.22
		c0.8,0,1.31-0.03,1.49-0.08c0.2-0.07,0.35-0.18,0.48-0.34C266.21,335.17,266.27,334.95,266.27,334.73z M378.45,314.73
		c-0.33-1.76-0.89-3.29-1.69-4.59c-0.79-1.3-1.84-2.32-3.16-3.04c-1.32-0.73-2.97-1.1-4.97-1.1c-1.78,0-3.33,0.33-4.66,0.98
		c-1.34,0.65-2.43,1.6-3.29,2.85c-0.85,1.25-1.5,2.76-1.93,4.52c-0.42,1.76-0.64,3.77-0.64,6.02c0,2.09,0.17,4.02,0.53,5.78
		c0.34,1.76,0.91,3.3,1.68,4.6c0.78,1.29,1.84,2.3,3.17,3.02c1.33,0.71,2.98,1.07,4.95,1.07c1.81,0,3.38-0.33,4.71-0.98
		c1.33-0.65,2.42-1.59,3.28-2.83s1.49-2.74,1.9-4.5c0.42-1.76,0.62-3.76,0.62-6.02C378.95,318.42,378.79,316.49,378.45,314.73z
		 M510.31,307.87c-1.45-1.92-3.68-2.88-6.69-2.88c-1.52,0-2.85,0.29-3.97,0.86c-1.13,0.57-2.06,1.34-2.81,2.31
		c-0.75,0.97-1.32,2.11-1.71,3.42c-0.4,1.32-0.63,2.72-0.69,4.21h17.89C512.42,312.43,511.75,309.8,510.31,307.87z M610.38,201.24
		c-0.93-0.21-2.03-0.43-3.28-0.64c-1.25-0.22-2.63-0.33-4.14-0.33c-4.08,0-7.23,1.37-9.45,4.09c-2.22,2.72-3.33,6.2-3.33,10.42
		c0,4.94,1.27,8.69,3.81,11.23c2.55,2.54,6.65,3.82,12.31,3.82h6.87V202.2C612.39,201.85,611.45,201.52,610.38,201.24z
		 M677.93,188.71c-0.93-0.22-2.02-0.43-3.28-0.65c-1.25-0.21-2.63-0.32-4.13-0.32c-4.09,0-7.24,1.36-9.46,4.09
		c-2.22,2.72-3.33,6.19-3.33,10.42c0,4.94,1.27,8.68,3.81,11.23c2.55,2.54,6.65,3.81,12.31,3.81h6.8c0.04-0.57,0.07-1.16,0.07-1.77
		v-25.85C679.93,189.32,678.99,189,677.93,188.71z M677.93,188.71c-0.93-0.22-2.02-0.43-3.28-0.65c-1.25-0.21-2.63-0.32-4.13-0.32
		c-4.09,0-7.24,1.36-9.46,4.09c-2.22,2.72-3.33,6.19-3.33,10.42c0,4.94,1.27,8.68,3.81,11.23c2.55,2.54,6.65,3.81,12.31,3.81h6.8
		c0.04-0.57,0.07-1.16,0.07-1.77v-25.85C679.93,189.32,678.99,189,677.93,188.71z M610.38,201.24c-0.93-0.21-2.03-0.43-3.28-0.64
		c-1.25-0.22-2.63-0.33-4.14-0.33c-4.08,0-7.23,1.37-9.45,4.09c-2.22,2.72-3.33,6.2-3.33,10.42c0,4.94,1.27,8.69,3.81,11.23
		c2.55,2.54,6.65,3.82,12.31,3.82h6.87V202.2C612.39,201.85,611.45,201.52,610.38,201.24z M510.31,307.87
		c-1.45-1.92-3.68-2.88-6.69-2.88c-1.52,0-2.85,0.29-3.97,0.86c-1.13,0.57-2.06,1.34-2.81,2.31c-0.75,0.97-1.32,2.11-1.71,3.42
		c-0.4,1.32-0.63,2.72-0.69,4.21h17.89C512.42,312.43,511.75,309.8,510.31,307.87z M378.45,314.73c-0.33-1.76-0.89-3.29-1.69-4.59
		c-0.79-1.3-1.84-2.32-3.16-3.04c-1.32-0.73-2.97-1.1-4.97-1.1c-1.78,0-3.33,0.33-4.66,0.98c-1.34,0.65-2.43,1.6-3.29,2.85
		c-0.85,1.25-1.5,2.76-1.93,4.52c-0.42,1.76-0.64,3.77-0.64,6.02c0,2.09,0.17,4.02,0.53,5.78c0.34,1.76,0.91,3.3,1.68,4.6
		c0.78,1.29,1.84,2.3,3.17,3.02c1.33,0.71,2.98,1.07,4.95,1.07c1.81,0,3.38-0.33,4.71-0.98c1.33-0.65,2.42-1.59,3.28-2.83
		s1.49-2.74,1.9-4.5c0.42-1.76,0.62-3.76,0.62-6.02C378.95,318.42,378.79,316.49,378.45,314.73z M378.45,314.73
		c-0.33-1.76-0.89-3.29-1.69-4.59c-0.79-1.3-1.84-2.32-3.16-3.04c-1.32-0.73-2.97-1.1-4.97-1.1c-1.78,0-3.33,0.33-4.66,0.98
		c-1.34,0.65-2.43,1.6-3.29,2.85c-0.85,1.25-1.5,2.76-1.93,4.52c-0.42,1.76-0.64,3.77-0.64,6.02c0,2.09,0.17,4.02,0.53,5.78
		c0.34,1.76,0.91,3.3,1.68,4.6c0.78,1.29,1.84,2.3,3.17,3.02c1.33,0.71,2.98,1.07,4.95,1.07c1.81,0,3.38-0.33,4.71-0.98
		c1.33-0.65,2.42-1.59,3.28-2.83s1.49-2.74,1.9-4.5c0.42-1.76,0.62-3.76,0.62-6.02C378.95,318.42,378.79,316.49,378.45,314.73z
		 M510.31,307.87c-1.45-1.92-3.68-2.88-6.69-2.88c-1.52,0-2.85,0.29-3.97,0.86c-1.13,0.57-2.06,1.34-2.81,2.31
		c-0.75,0.97-1.32,2.11-1.71,3.42c-0.4,1.32-0.63,2.72-0.69,4.21h17.89C512.42,312.43,511.75,309.8,510.31,307.87z M610.38,201.24
		c-0.93-0.21-2.03-0.43-3.28-0.64c-1.25-0.22-2.63-0.33-4.14-0.33c-4.08,0-7.23,1.37-9.45,4.09c-2.22,2.72-3.33,6.2-3.33,10.42
		c0,4.94,1.27,8.69,3.81,11.23c2.55,2.54,6.65,3.82,12.31,3.82h6.87V202.2C612.39,201.85,611.45,201.52,610.38,201.24z
		 M677.93,188.71c-0.93-0.22-2.02-0.43-3.28-0.65c-1.25-0.21-2.63-0.32-4.13-0.32c-4.09,0-7.24,1.36-9.46,4.09
		c-2.22,2.72-3.33,6.19-3.33,10.42c0,4.94,1.27,8.68,3.81,11.23c2.55,2.54,6.65,3.81,12.31,3.81h6.8c0.04-0.57,0.07-1.16,0.07-1.77
		v-25.85C679.93,189.32,678.99,189,677.93,188.71z M677.93,188.71c-0.93-0.22-2.02-0.43-3.28-0.65c-1.25-0.21-2.63-0.32-4.13-0.32
		c-4.09,0-7.24,1.36-9.46,4.09c-2.22,2.72-3.33,6.19-3.33,10.42c0,4.94,1.27,8.68,3.81,11.23c2.55,2.54,6.65,3.81,12.31,3.81h6.8
		c0.04-0.57,0.07-1.16,0.07-1.77v-25.85C679.93,189.32,678.99,189,677.93,188.71z M610.38,201.24c-0.93-0.21-2.03-0.43-3.28-0.64
		c-1.25-0.22-2.63-0.33-4.14-0.33c-4.08,0-7.23,1.37-9.45,4.09c-2.22,2.72-3.33,6.2-3.33,10.42c0,4.94,1.27,8.69,3.81,11.23
		c2.55,2.54,6.65,3.82,12.31,3.82h6.87V202.2C612.39,201.85,611.45,201.52,610.38,201.24z M510.31,307.87
		c-1.45-1.92-3.68-2.88-6.69-2.88c-1.52,0-2.85,0.29-3.97,0.86c-1.13,0.57-2.06,1.34-2.81,2.31c-0.75,0.97-1.32,2.11-1.71,3.42
		c-0.4,1.32-0.63,2.72-0.69,4.21h17.89C512.42,312.43,511.75,309.8,510.31,307.87z M378.45,314.73c-0.33-1.76-0.89-3.29-1.69-4.59
		c-0.79-1.3-1.84-2.32-3.16-3.04c-1.32-0.73-2.97-1.1-4.97-1.1c-1.78,0-3.33,0.33-4.66,0.98c-1.34,0.65-2.43,1.6-3.29,2.85
		c-0.85,1.25-1.5,2.76-1.93,4.52c-0.42,1.76-0.64,3.77-0.64,6.02c0,2.09,0.17,4.02,0.53,5.78c0.34,1.76,0.91,3.3,1.68,4.6
		c0.78,1.29,1.84,2.3,3.17,3.02c1.33,0.71,2.98,1.07,4.95,1.07c1.81,0,3.38-0.33,4.71-0.98c1.33-0.65,2.42-1.59,3.28-2.83
		s1.49-2.74,1.9-4.5c0.42-1.76,0.62-3.76,0.62-6.02C378.95,318.42,378.79,316.49,378.45,314.73z M510.31,307.87
		c-1.45-1.92-3.68-2.88-6.69-2.88c-1.52,0-2.85,0.29-3.97,0.86c-1.13,0.57-2.06,1.34-2.81,2.31c-0.75,0.97-1.32,2.11-1.71,3.42
		c-0.4,1.32-0.63,2.72-0.69,4.21h17.89C512.42,312.43,511.75,309.8,510.31,307.87z M610.38,201.24c-0.93-0.21-2.03-0.43-3.28-0.64
		c-1.25-0.22-2.63-0.33-4.14-0.33c-4.08,0-7.23,1.37-9.45,4.09c-2.22,2.72-3.33,6.2-3.33,10.42c0,4.94,1.27,8.69,3.81,11.23
		c2.55,2.54,6.65,3.82,12.31,3.82h6.87V202.2C612.39,201.85,611.45,201.52,610.38,201.24z M677.93,188.71
		c-0.93-0.22-2.02-0.43-3.28-0.65c-1.25-0.21-2.63-0.32-4.13-0.32c-4.09,0-7.24,1.36-9.46,4.09c-2.22,2.72-3.33,6.19-3.33,10.42
		c0,4.94,1.27,8.68,3.81,11.23c2.55,2.54,6.65,3.81,12.31,3.81h6.8c0.04-0.57,0.07-1.16,0.07-1.77v-25.85
		C679.93,189.32,678.99,189,677.93,188.71z M677.93,188.71c-0.93-0.22-2.02-0.43-3.28-0.65c-1.25-0.21-2.63-0.32-4.13-0.32
		c-4.09,0-7.24,1.36-9.46,4.09c-2.22,2.72-3.33,6.19-3.33,10.42c0,4.94,1.27,8.68,3.81,11.23c2.55,2.54,6.65,3.81,12.31,3.81h6.8
		c0.04-0.57,0.07-1.16,0.07-1.77v-25.85C679.93,189.32,678.99,189,677.93,188.71z M610.38,201.24c-0.93-0.21-2.03-0.43-3.28-0.64
		c-1.25-0.22-2.63-0.33-4.14-0.33c-4.08,0-7.23,1.37-9.45,4.09c-2.22,2.72-3.33,6.2-3.33,10.42c0,4.94,1.27,8.69,3.81,11.23
		c2.55,2.54,6.65,3.82,12.31,3.82h6.87V202.2C612.39,201.85,611.45,201.52,610.38,201.24z M510.31,307.87
		c-1.45-1.92-3.68-2.88-6.69-2.88c-1.52,0-2.85,0.29-3.97,0.86c-1.13,0.57-2.06,1.34-2.81,2.31c-0.75,0.97-1.32,2.11-1.71,3.42
		c-0.4,1.32-0.63,2.72-0.69,4.21h17.89C512.42,312.43,511.75,309.8,510.31,307.87z M510.31,307.87c-1.45-1.92-3.68-2.88-6.69-2.88
		c-1.52,0-2.85,0.29-3.97,0.86c-1.13,0.57-2.06,1.34-2.81,2.31c-0.75,0.97-1.32,2.11-1.71,3.42c-0.4,1.32-0.63,2.72-0.69,4.21h17.89
		C512.42,312.43,511.75,309.8,510.31,307.87z M610.38,201.24c-0.93-0.21-2.03-0.43-3.28-0.64c-1.25-0.22-2.63-0.33-4.14-0.33
		c-4.08,0-7.23,1.37-9.45,4.09c-2.22,2.72-3.33,6.2-3.33,10.42c0,4.94,1.27,8.69,3.81,11.23c2.55,2.54,6.65,3.82,12.31,3.82h6.87
		V202.2C612.39,201.85,611.45,201.52,610.38,201.24z M677.93,188.71c-0.93-0.22-2.02-0.43-3.28-0.65c-1.25-0.21-2.63-0.32-4.13-0.32
		c-4.09,0-7.24,1.36-9.46,4.09c-2.22,2.72-3.33,6.19-3.33,10.42c0,4.94,1.27,8.68,3.81,11.23c2.55,2.54,6.65,3.81,12.31,3.81h6.8
		c0.04-0.57,0.07-1.16,0.07-1.77v-25.85C679.93,189.32,678.99,189,677.93,188.71z M677.93,188.71c-0.93-0.22-2.02-0.43-3.28-0.65
		c-1.25-0.21-2.63-0.32-4.13-0.32c-4.09,0-7.24,1.36-9.46,4.09c-2.22,2.72-3.33,6.19-3.33,10.42c0,4.94,1.27,8.68,3.81,11.23
		c2.55,2.54,6.65,3.81,12.31,3.81h6.8c0.04-0.57,0.07-1.16,0.07-1.77v-25.85C679.93,189.32,678.99,189,677.93,188.71z
		 M610.38,201.24c-0.93-0.21-2.03-0.43-3.28-0.64c-1.25-0.22-2.63-0.33-4.14-0.33c-4.08,0-7.23,1.37-9.45,4.09
		c-2.22,2.72-3.33,6.2-3.33,10.42c0,4.94,1.27,8.69,3.81,11.23c2.55,2.54,6.65,3.82,12.31,3.82h6.87V202.2
		C612.39,201.85,611.45,201.52,610.38,201.24z M510.31,307.87c-1.45-1.92-3.68-2.88-6.69-2.88c-1.52,0-2.85,0.29-3.97,0.86
		c-1.13,0.57-2.06,1.34-2.81,2.31c-0.75,0.97-1.32,2.11-1.71,3.42c-0.4,1.32-0.63,2.72-0.69,4.21h17.89
		C512.42,312.43,511.75,309.8,510.31,307.87z M610.38,201.24c-0.93-0.21-2.03-0.43-3.28-0.64c-1.25-0.22-2.63-0.33-4.14-0.33
		c-4.08,0-7.23,1.37-9.45,4.09c-2.22,2.72-3.33,6.2-3.33,10.42c0,4.94,1.27,8.69,3.81,11.23c2.55,2.54,6.65,3.82,12.31,3.82h6.87
		V202.2C612.39,201.85,611.45,201.52,610.38,201.24z M677.93,188.71c-0.93-0.22-2.02-0.43-3.28-0.65c-1.25-0.21-2.63-0.32-4.13-0.32
		c-4.09,0-7.24,1.36-9.46,4.09c-2.22,2.72-3.33,6.19-3.33,10.42c0,4.94,1.27,8.68,3.81,11.23c2.55,2.54,6.65,3.81,12.31,3.81h6.8
		c0.04-0.57,0.07-1.16,0.07-1.77v-25.85C679.93,189.32,678.99,189,677.93,188.71z M677.93,188.71c-0.93-0.22-2.02-0.43-3.28-0.65
		c-1.25-0.21-2.63-0.32-4.13-0.32c-4.09,0-7.24,1.36-9.46,4.09c-2.22,2.72-3.33,6.19-3.33,10.42c0,4.94,1.27,8.68,3.81,11.23
		c2.55,2.54,6.65,3.81,12.31,3.81h6.8c0.04-0.57,0.07-1.16,0.07-1.77v-25.85C679.93,189.32,678.99,189,677.93,188.71z
		 M610.38,201.24c-0.93-0.21-2.03-0.43-3.28-0.64c-1.25-0.22-2.63-0.33-4.14-0.33c-4.08,0-7.23,1.37-9.45,4.09
		c-2.22,2.72-3.33,6.2-3.33,10.42c0,4.94,1.27,8.69,3.81,11.23c2.55,2.54,6.65,3.82,12.31,3.82h6.87V202.2
		C612.39,201.85,611.45,201.52,610.38,201.24z"/>
	<path class="st0" d="M739.29,132.99c-65.86,0-190.75-0.02-287.17-0.16h-0.72c-50.84,0-93.64,8.07-127.22,24
		c-37.93,18-63.35,45.77-75.51,82.51c-15.33,46.2-36.17,122.17-36.38,122.94l-1.31,4.71h49.73c65.85,0,190.76,0.03,287.19,0.17h0.72
		c50.84,0,93.62-8.08,127.21-24.01c37.94-18.01,63.33-45.76,75.51-82.52c15.34-46.2,36.18-122.17,36.4-122.93l1.29-4.71H739.29z
		 M742.3,258.61c-27.61,83.34-120.56,100.84-193.68,100.84h-0.72c-96.42-0.16-221.32-0.18-287.19-0.18h-37.96
		c4.8-17.33,21.92-78.49,34.96-117.88c27.63-83.33,120.57-100.83,193.69-100.83h0.71c96.43,0.15,221.32,0.16,287.18,0.16h37.97
		C772.45,158.06,755.35,219.2,742.3,258.61z"/>
</g>
</svg>
