<?xml version="1.0" encoding="utf-8"?>
<!-- Generator: Adobe Illustrator 27.8.1, SVG Export Plug-In . SVG Version: 6.00 Build 0)  -->
<svg version="1.1" id="Layer_1" xmlns="http://www.w3.org/2000/svg" xmlns:xlink="http://www.w3.org/1999/xlink" x="0px" y="0px"
	 viewBox="0 0 1000 500" style="enable-background:new 0 0 1000 500;" xml:space="preserve">
<style type="text/css">
	.st0{fill:#FFFFFF;}
</style>
<g>
	<polygon class="st0" points="685.9,732.2 695,732.2 711.2,760.6 723.1,739.8 709.7,739.8 705.3,732.2 736.6,732.2 711.2,776.9 	"/>
	<path class="st0" d="M603.2,762.2c-0.5-1.2-1.2-2.1-2.1-2.9c-0.9-0.7-1.9-1.3-3-1.8c-1.1-0.4-2.2-0.8-3.4-1.1
		c-1.2-0.3-2.3-0.6-3.4-0.9c-1.1-0.3-2-0.6-2.9-1c-0.8-0.4-1.5-0.9-2-1.5c-0.5-0.6-0.7-1.4-0.7-2.4c0-1.1,0.2-2,0.5-2.7
		s0.8-1.3,1.3-1.7c0.6-0.4,1.2-0.7,2-0.9c0.7-0.2,1.5-0.3,2.3-0.3c1.9,0,3.5,0.5,4.7,1.6c1.1,1,1.3,1.5,1.8,3.3l0.1,0.5h4.1l0-0.5
		c-0.1-1.6-0.2-1.8-0.7-3.1c-0.6-1.4-1.3-2.5-2.3-3.4c-1-0.9-2.1-1.6-3.4-2c-1.3-0.4-2.7-0.6-4.2-0.6c-1.3,0-2.6,0.2-3.9,0.6
		c-1.3,0.4-2.4,1-3.4,1.8c-1,0.8-1.8,1.9-2.4,3.2c-0.6,1.3-0.9,2.8-0.9,4.5c0,1.6,0.3,2.9,0.8,4c0.5,1,1.3,1.9,2.2,2.6
		c0.9,0.7,1.9,1.2,3,1.6c1.1,0.4,2.2,0.7,3.4,1c1.1,0.3,2.2,0.6,3.3,0.9c1.1,0.3,2,0.7,2.8,1.1c0.8,0.4,1.5,1,2,1.7
		c0.5,0.7,0.7,1.6,0.7,2.7c0,1.2-0.2,2.2-0.6,2.9c-0.4,0.7-0.9,1.3-1.6,1.8c-0.7,0.4-1.4,0.8-2.2,0.9c-1.9,0.4-3.8,0.4-5.5-0.2
		c-1-0.3-1.8-0.8-2.5-1.4c-0.7-0.6-1.3-1.5-1.8-2.4c-0.5-1-0.5-1-0.7-2.7l0-0.2h-4.2l0,0.3c0.2,2.2,0.3,2.9,1,4.5
		c0.6,1.5,1.5,2.8,2.6,3.8c1.1,1,2.4,1.8,3.9,2.2c1.5,0.5,3,0.7,4.6,0.7c1.3,0,2.7-0.2,4-0.6c1.3-0.4,2.6-1,3.7-1.8
		c1.1-0.8,2-1.9,2.7-3.2c0.7-1.3,1-2.9,1-4.8C604,764.8,603.8,763.4,603.2,762.2"/>
	<polygon class="st0" points="840.9,740.8 840.9,767.1 825.9,740.8 823.6,740.8 820.2,740.8 818.7,740.8 818.7,776.9 823.6,776.9 
		823.6,746.7 840.7,776.9 840.9,776.8 840.9,776.9 845.8,776.9 845.8,740.8 	"/>
	<polygon class="st0" points="763.1,740.8 763.1,745.6 763.1,755.2 763.1,760 763.1,772.1 763.1,776.9 768,776.9 788,776.9 
		788,772.1 768,772.1 768,760 781.1,760 781.1,755.2 768,755.2 768,745.6 788,745.6 788,740.8 768,740.8 	"/>
	<polygon class="st0" points="634.8,740.8 634.8,745.6 634.8,755.2 634.8,760 634.8,772.1 634.8,776.9 639.7,776.9 659.7,776.9 
		659.7,772.1 639.7,772.1 639.7,760 652.8,760 652.8,755.2 639.7,755.2 639.7,745.6 659.7,745.6 659.7,740.8 639.7,740.8 	"/>
</g>
<g>
	<path class="st0" d="M862.5,196.9h-30c3.7,2.6,6.1,6.8,6.1,11.6v87.5c0,4.7-2.3,8.9-5.8,11.5h29.3c-3.5-2.6-5.8-6.8-5.8-11.5v-87.5
		C856.5,203.7,858.9,199.5,862.5,196.9"/>
	<path class="st0" d="M481.3,250.1c0,27.7,19.5,50.4,45.5,55.9c0,0,8.8,1.6,15.1,1.6c15.5,0,29.6-4.9,41.2-13.4c0,0,6.5-4.4,7.1-8.8
		l2.8-21.1c-8,19.9-21.5,27.3-29.3,31.8c-6.5,3.4-15,5.8-22.9,5.8v0c-12.1,0-24.4-6.9-29.9-18l-0.7-1.1c-5.5-9.7-8.6-20.9-8.6-32.8
		c0-11.9,3.1-23.1,8.6-32.8l0.6-1.1c5.5-11,17.9-18.6,30-18.6v0c7.9,0,16.3,2.3,22.9,5.7c11.9,7.3,21.2,18.3,26.5,31.4v-19.9
		c0-4.5-6.8-9.3-6.8-9.3c-11.6-8.5-25.9-13.4-41.4-13.4c-6.3,0-15.1,1.6-15.1,1.6C500.8,199.1,481.3,222.4,481.3,250.1"/>
	<path class="st0" d="M660.8,250.1c0,27.7,19.5,50.4,45.5,55.9c0,0,8.8,1.6,15.1,1.6c15.5,0,29.6-4.9,41.2-13.4c0,0,6.5-4.4,7.1-8.8
		l2.8-21.1c-8,19.9-21.5,27.3-29.3,31.8c-6.5,3.4-15,5.8-22.9,5.8v0c-12.1,0-24.4-6.9-29.9-18l-0.7-1.1c-5.5-9.7-8.6-20.9-8.6-32.8
		c0-11.9,3.1-23.1,8.6-32.8l0.6-1.1c5.5-11,17.9-18.6,30-18.6v0c7.9,0,16.3,2.3,22.9,5.7c11.9,7.3,21.2,18.3,26.5,31.4v-19.9
		c0-4.5-6.8-9.3-6.8-9.3c-11.6-8.5-25.9-13.4-41.4-13.4c-6.3,0-15.1,1.6-15.1,1.6C680.3,199.1,660.8,222.4,660.8,250.1"/>
	<path class="st0" d="M344.1,196.9h-30c3.7,2.6,6.1,6.9,6.1,11.8l0,0v63c0,13.5,8.3,24.3,19,29.2c0,0,12.6,6.7,28.2,6.7
		c16.9,0,28.8-6.5,28.8-6.5c11.4-5.4,18.6-16.3,18.8-28.1v-64.5c0-4.8,2.4-8.9,6.1-11.5h-17.5c3.7,2.6,6.1,6.6,6.1,11.5l0,63.9
		c0,8.7-4.3,15.6-9.6,20c0,0-10.5,8.4-26.4,8.3c-6.1,0-12-1.1-18.7-3.8c0,0-17.1-6.1-17.1-27v-61.1l0,0
		C338,203.8,340.4,199.5,344.1,196.9"/>
	<path class="st0" d="M167.2,284.1c-5.8-9.2-9.4-21.7-9.4-33.9c0-11.9,3.1-23.1,8.6-32.8l0.6-1.1c5.5-11,17.9-18.6,30-18.6v0
		c7.9,0,16.3,2.3,22.9,5.7c11.9,7.3,21.2,18.3,26.5,31.4V215c0-4.5-6.8-9.3-6.8-9.3c-11.6-8.5-25.9-13.4-41.4-13.4
		c-6.3,0-15.1,1.6-15.1,1.6c-26.1,5.5-45.6,28.8-45.6,56.5c0,29.5,22.3,53.9,51,57.1c0,0,4.5,0.6,9.9,0.6c16.8,0,32.2-5.9,44.2-15.8
		c0,0,3.9-3.1,3.9-7.9l0-17.2c0-4.9,2.4-9.2,6.1-11.9h-30.9c3.7,2.7,6.1,7,6.1,11.9l0.2,15.5c0,3.1-1.5,6.5-3.2,8.1
		c-4.3,4.8-14.6,11.4-27.9,11.4C184,302.1,172.8,294.8,167.2,284.1L167.2,284.1z"/>
</g>
</svg>
