<?xml version="1.0" encoding="utf-8"?>
<!-- Generator: Adobe Illustrator 27.8.1, SVG Export Plug-In . SVG Version: 6.00 Build 0)  -->
<svg version="1.1" id="Layer_1" xmlns="http://www.w3.org/2000/svg" xmlns:xlink="http://www.w3.org/1999/xlink" x="0px" y="0px"
	 viewBox="0 0 1000 500" style="enable-background:new 0 0 1000 500;" xml:space="preserve">
<style type="text/css">
	.st0{fill:#FFFFFF;}
</style>
<g>
	<path class="st0" d="M421.78,332.53l13.63-11.36c21.58-19.09,39.31-38.85,39.31-63.85c0-26.58-18.18-46.12-51.8-46.12
		c-19.77,0-37.26,6.82-48.16,15.22l9.77,24.54c7.73-5.68,18.86-12.05,31.58-12.05c17.04,0,24.09,9.54,24.09,21.58
		c-0.23,17.27-15.91,33.85-48.4,62.93l-18.86,17.04v20.9h104.74v-28.4h-55.89V332.53z"/>
	<polygon class="st0" points="724.4,138.61 724.4,138.61 679.74,138.61 633.72,307.01 587.7,138.61 543.04,138.61 522.33,138.61 
		522.33,361.39 566.99,361.39 566.99,232.91 599.63,361.39 618.86,361.39 648.57,361.39 667.8,361.39 700.44,232.91 700.44,361.39 
		745.11,361.39 745.11,138.61 	"/>
	<polygon class="st0" points="305.43,286.29 305.43,138.61 277.03,138.61 254.89,148.85 254.89,177.22 271.58,169.28 272.03,169.28 
		272.03,286.29 	"/>
	<polygon class="st0" points="356.92,138.61 296.04,361.39 332.46,361.39 389.06,138.61 	"/>
</g>
</svg>
