<?xml version="1.0" encoding="utf-8"?>
<!-- Generator: Adobe Illustrator 27.8.1, SVG Export Plug-In . SVG Version: 6.00 Build 0)  -->
<svg version="1.1" id="Layer_1" xmlns="http://www.w3.org/2000/svg" xmlns:xlink="http://www.w3.org/1999/xlink" x="0px" y="0px"
	 viewBox="0 0 1000 500" style="enable-background:new 0 0 1000 500;" xml:space="preserve">
<style type="text/css">
	.st0{fill:#FFFFFF;}
</style>
<g>
	<path class="st0" d="M650.97,146.76v206.48h87.04l0.01-0.04c0.07-0.47,0.14-1.11,0.19-1.72c0.21-1.85,0.35-4.42,0.41-7.65
		c0.14-2.95,0.03-6.55-0.33-11.02c-0.25-3.75-0.88-8.06-1.93-13.15c-2.74-12.16-7.7-22.55-14.73-30.9
		c-7.12-8.44-16.08-14.7-27.38-19.13c-0.76-0.33-1.17-0.75-1.39-1.39c-0.32-0.65-0.33-1.27-0.04-1.91c0.23-0.64,0.72-1.16,1.3-1.38
		c0.58-0.18,1.21-0.31,1.96-0.07c6.18,2.45,11.49,5.27,15.82,8.39c4.65,3.26,8.54,6.68,11.91,10.46c3.33,3.65,6.19,7.55,8.53,11.57
		c2.39,4.28,4.23,8.23,5.61,12.06c1.44,3.89,2.56,7.71,3.32,11.36c1.06,4.67,1.79,9.3,2.15,13.77c0.25,3.92,0.48,8.03,0.35,11.49v0
		c-0.03,0.7-0.06,1.38-0.09,2.02c-0.1,2.33-0.18,4.35-0.42,5.94c-0.02,0.21-0.04,0.4-0.06,0.6c-0.02,0.23-0.04,0.46-0.07,0.69h22.52
		c-0.09-0.45-0.15-0.85-0.15-1.32c-0.28-1.96-0.42-4.59-0.56-7.93c-0.06-3.23,0.06-7.09,0.35-11.49c0.37-4.44,1.06-9.07,2.07-13.77
		c0.85-3.72,1.99-7.57,3.39-11.43c1.38-3.76,3.21-7.68,5.61-11.98c2.58-4.29,5.37-8.07,8.54-11.58c3.31-3.66,7.28-7.18,11.84-10.46
		c4.43-3.08,9.77-5.9,15.88-8.39c0.85-0.25,1.49-0.1,1.95,0.06c0.56,0.21,1.02,0.67,1.39,1.37l0.02,0.06
		c0.16,0.71,0.13,1.3-0.07,1.87c-0.28,0.75-0.88,1.13-1.37,1.38c-11.36,4.43-20.35,10.69-27.48,19.14
		c-7.03,8.35-11.97,18.75-14.71,30.9c-1.01,4.76-1.66,9.18-1.94,13.15c-0.35,4.3-0.47,8.01-0.34,11.02v0
		c0.08,3.5,0.24,5.92,0.5,7.63c0,0.76,0.06,1.34,0.18,1.7l0.03,0.08h86.69V146.76H650.97z M746.57,271.11
		c-0.26,0.69-0.66,1.18-1.22,1.54c-0.35,0.22-0.75,0.34-1.18,0.34c-0.23,0-0.48-0.03-0.73-0.1c-0.71-0.26-1.27-0.67-1.54-1.15
		c-0.04-0.08-0.2-0.34-0.4-0.68c-0.24-0.39-0.59-0.97-1.04-1.73c-0.81-1.32-2.03-3.1-3.93-5.78c-1.56-2.12-3.46-4.51-6.18-7.72
		c-2.28-2.63-4.99-5.39-8.07-8.2c-2.86-2.66-6.1-5.11-9.63-7.29c-3.56-2.2-7.26-3.82-10.98-4.81c-0.58-0.21-1.11-0.63-1.52-1.2
		c-0.32-0.64-0.39-1.26-0.25-1.92c0.23-0.69,0.61-1.16,1.22-1.53c0.55-0.32,1.15-0.39,1.91-0.25c4.11,1.1,8.11,2.83,11.88,5.15
		c3.7,2.19,7.18,4.75,10.33,7.62c3.26,2.93,6.15,5.84,8.58,8.66c2.41,2.74,4.66,5.54,6.5,8.09c1.74,2.38,3.16,4.48,4.22,6.23
		c0.61,0.96,1.07,1.69,1.38,2.17c0.22,0.35,0.36,0.57,0.41,0.65C746.63,269.82,746.72,270.49,746.57,271.11 M759.32,225.73
		c-0.74,1.57-1.32,2.83-1.71,3.85c-0.22,0.62-0.43,1.06-0.54,1.3c-0.05,0.09-0.07,0.15-0.08,0.19l-0.02,0.06
		c-0.36,0.71-0.75,1.14-1.22,1.36c-0.52,0.29-1,0.29-1.42,0.29c-0.43,0-0.96,0-1.36-0.3c-0.63-0.27-1-0.83-1.27-1.34l-0.03-0.12
		c0,0.02-0.04-0.05-0.08-0.14c-0.12-0.25-0.31-0.68-0.53-1.3c-0.25-0.77-0.68-1.68-1.18-2.74c-0.16-0.35-0.34-0.72-0.52-1.11
		c-0.76-1.71-1.82-3.56-2.76-5.15c-0.96-1.7-2.12-3.4-3.85-5.71c-1.34-1.72-2.93-3.43-4.86-5.23c-1.8-1.65-3.72-2.95-5.88-3.96
		c-0.69-0.34-1.05-0.94-1.29-1.42c-0.23-0.7-0.18-1.32,0.13-1.95c0.33-0.63,0.8-1.08,1.38-1.3c0.63-0.19,1.23-0.17,1.89,0.08
		c2.53,1.26,4.75,2.72,6.78,4.47c2.16,1.94,4.01,3.9,5.5,5.84c1.61,2.01,2.92,3.98,4.35,6.16c1.26,2.21,2.26,4.02,3.06,5.7
		l0.17,0.39c0.13,0.28,0.24,0.53,0.36,0.77c0.11-0.21,0.21-0.44,0.32-0.69c0.07-0.15,0.14-0.31,0.22-0.48
		c0.81-1.56,1.75-3.25,2.74-5.04l0.37-0.65c1.31-2.09,2.76-4.16,4.31-6.17c1.8-2.35,3.59-4.26,5.49-5.84
		c1.89-1.7,4.17-3.2,6.74-4.45c0.69-0.26,1.3-0.29,1.92-0.1c0.58,0.23,1.06,0.67,1.39,1.3c0.27,0.55,0.32,1.15,0.16,1.9
		c-0.27,0.73-0.7,1.21-1.32,1.48c-2.22,1.08-4.2,2.42-5.87,3.96l0,0c-1.81,1.62-3.44,3.38-4.86,5.23c-1.26,1.66-2.68,3.64-3.77,5.69
		C760.85,222.63,759.92,224.5,759.32,225.73 M810.28,234.32c-0.35,0.59-0.88,1.01-1.52,1.21c-3.62,0.98-7.2,2.55-10.93,4.82
		c-3.36,2.03-6.52,4.41-9.7,7.29c-2.89,2.62-5.59,5.38-7.99,8.2c-2.72,3.21-4.63,5.59-6.21,7.72c-1.66,2.33-2.98,4.27-3.92,5.78
		c-0.49,0.83-0.85,1.44-1.1,1.83c-0.17,0.28-0.31,0.5-0.33,0.55c-0.4,0.55-0.91,0.94-1.52,1.17c-0.26,0.07-0.52,0.1-0.76,0.1
		c-0.43,0-0.83-0.11-1.18-0.34c-0.57-0.36-0.97-0.85-1.2-1.51c-0.17-0.61-0.09-1.28,0.21-1.91c0.07-0.11,0.18-0.29,0.35-0.57
		c0.28-0.48,0.75-1.25,1.4-2.28c1.27-1.96,2.69-4.06,4.23-6.23c1.94-2.61,4.15-5.35,6.56-8.16c2.54-2.96,5.43-5.85,8.59-8.59
		c3.15-2.86,6.62-5.43,10.32-7.61c3.65-2.29,7.64-4.02,11.87-5.15c0.68-0.15,1.3-0.07,1.91,0.24l0.03,0.02
		c0.6,0.42,0.98,0.9,1.19,1.49C810.73,233.13,810.64,233.73,810.28,234.32"/>
	<path class="st0" d="M158.42,269.27v30.09c0,5.06-2.42,7.43-7.61,7.43c-2.5,0-5.05-0.7-7.52-1.39l-0.74-0.2l0.87,4.22l0.26,0.05
		c2.03,0.4,4.81,0.95,7.58,0.95c8.05,0,11.8-3.67,11.8-11.53v-29.61H158.42z"/>
	<path class="st0" d="M222.55,269.26v10.23c-0.4-0.05-0.8-0.1-1.21-0.16c-1.54-0.21-3.13-0.43-4.71-0.43
		c-11.57,0-17.94,6.24-17.94,17.59c0,8.19,5.5,13.92,13.38,13.92c4.62,0,8.37-1.95,10.48-5.41v4.75h4.34v-40.49H222.55z
		 M222.55,283.15v11.55c0,7.59-3.72,12.3-9.72,12.3c-5.94,0-9.78-4.31-9.78-10.98c0-8.83,4.96-13.69,13.96-13.69
		C219.03,282.33,220.85,282.6,222.55,283.15"/>
	<polygon class="st0" points="276.87,279.54 266.99,305.34 258.98,279.54 254.46,279.54 245.86,305.37 235.84,279.54 231.33,279.54 
		243.42,309.76 248.31,309.76 256.53,284.59 264.26,309.76 269.21,309.76 281.47,279.54 	"/>
	<path class="st0" d="M296.32,278.9c-3.18,0-6.48,0.48-10.36,1.5l-0.25,0.06l-0.67,4.3l0.69-0.34c3.18-1.6,6.72-2.41,10.51-2.41
		c2.75,0,7.36,0.56,7.36,4.3c0,3.13-3.12,4.36-6.5,5.22l-1.21,0.3c-6.12,1.51-13.74,3.38-13.74,10.33c0,3.98,3.14,7.84,9.98,8.26
		c3.96,0.24,8.91-0.85,11.76-2.61l0.03-3.46c-2.44,1.88-6.88,3.04-10.24,2.94c-5.28-0.15-7.16-2.63-7.16-4.89
		c0-4.54,4.93-5.9,9.7-7.21c2.93-0.81,5.72-1.58,7.38-3.06v17.64h4.34v-23.03C307.94,281.53,304.03,278.9,296.32,278.9"/>
	<path class="st0" d="M182.15,278.9c-3.18,0-6.48,0.48-10.36,1.5l-0.25,0.06l-0.67,4.3l0.69-0.34c3.18-1.6,6.72-2.41,10.51-2.41
		c2.75,0,7.36,0.56,7.36,4.3c0,3.13-3.12,4.36-6.5,5.22l-1.21,0.3c-6.12,1.51-13.74,3.38-13.74,10.33c0,3.98,3.14,7.84,9.98,8.26
		c3.96,0.24,8.91-0.85,11.76-2.61l0.03-3.46c-2.44,1.88-6.88,3.04-10.24,2.94c-5.28-0.15-7.16-2.63-7.16-4.89
		c0-4.54,4.93-5.9,9.7-7.21c2.93-0.81,5.72-1.58,7.38-3.06v17.64h4.34v-23.03C193.77,281.53,189.86,278.9,182.15,278.9"/>
	<rect x="330.78" y="269.26" class="st0" width="4.42" height="40.49"/>
	<path class="st0" d="M357.7,278.9c-5.57,0-9.41,1.92-11.45,5.72v-5.07h-4.35v30.21h4.35v-14.32c0-8.57,3.53-12.92,10.5-12.92
		c7.85,0,8.47,4.88,8.47,6.38v20.86h4.36v-20.54C369.58,282.47,365.47,278.9,357.7,278.9"/>
	<polygon class="st0" points="397.13,279.54 387.22,305.45 377.39,279.8 377.29,279.54 372.63,279.54 384.67,309.5 384.78,309.76 
		389.49,309.76 401.98,279.54 	"/>
	<path class="st0" d="M430.37,293.54v-0.39c0-13.56-10.09-14.25-12.11-14.25c-13.84,0-14.92,12.06-14.92,15.76
		c0,9.71,5.72,15.74,14.92,15.74c3.5,0,6.4-0.39,9.43-1.27l0.24-0.07l0.7-4.06l-0.63,0.22c-0.43,0.15-0.83,0.3-1.2,0.43
		c-2.1,0.78-3.61,1.34-8.54,1.34c-9.53,0-10.56-8.63-10.56-12.34v-1.12H430.37z M417.89,282c4.96,0,7.96,3.15,8.11,8.43h-18.07
		C408.83,285.15,412.52,282,417.89,282"/>
	<path class="st0" d="M445.45,292.78c-2.97-2.25-5.79-4.39-5.79-6.65c0-3.53,4.39-3.8,5.73-3.8c2.25,0,4.42,0.45,6.45,1.33
		l0.64,0.28l-0.61-4.2l-0.27-0.06c-2.54-0.53-4.65-0.78-6.65-0.78c-8.74,0-9.68,5.03-9.68,7.18c0,4,3.81,6.85,7.48,9.61
		c3.1,2.33,6.04,4.53,6.04,7.05c0,4.06-4.96,4.26-5.96,4.26c-2.37,0-5.11-0.64-7.69-1.81l-0.68-0.3l0.76,4.23l0.22,0.07
		c2.48,0.78,5.3,1.21,7.93,1.21c4.73,0,9.8-2,9.8-7.6C453.16,298.62,449.06,295.52,445.45,292.78"/>
	<path class="st0" d="M472.92,306.14c-1.43,0.44-2.77,0.87-4.16,0.87c-3.58,0-3.69-3.13-3.69-3.49v-20.57h8.06v-3.4h-8.06v-6.22
		l-4.4,0.95v5.27h-3.68v3.4h3.68v20.2c0,3.51,0.56,7.26,7.27,7.26c1.68,0,3.36-0.25,4.99-0.75l0.23-0.07l0.62-3.72L472.92,306.14z"
		/>
	<path class="st0" d="M512.08,278.9c-4.66,0-8.23,2.03-10.16,5.74c-1.28-3.61-4.69-5.74-9.3-5.74c-3.98,0-7.45,1.89-9.23,4.91v-4.27
		h-4.37v30.21h4.37v-17.08c0-3.77,1.78-10.16,8.43-10.16c4.75,0,6.44,3.1,6.44,6v21.24h4.36v-17.08c0-3.77,1.77-10.16,8.39-10.16
		c4.77,0,6.47,3.1,6.47,6v21.24h4.35v-22.43C521.82,282.13,518.09,278.9,512.08,278.9"/>
	<path class="st0" d="M553.54,293.54v-0.4c0-13.56-10.08-14.25-12.1-14.25c-13.84,0-14.91,12.06-14.91,15.76
		c0,9.71,5.71,15.75,14.91,15.75c3.45,0,6.45-0.4,9.43-1.27l0.24-0.07l0.7-4.06l-0.63,0.23c-0.42,0.15-0.81,0.29-1.17,0.43
		c-2.08,0.78-3.59,1.34-8.56,1.34c-9.52,0-10.55-8.63-10.55-12.34v-1.11H553.54z M531.11,290.43c0.9-5.29,4.6-8.43,9.96-8.43
		c4.96,0,7.98,3.14,8.12,8.43H531.11z"/>
	<path class="st0" d="M574.45,278.9c-5.58,0-9.43,1.95-11.49,5.81v-5.17h-4.34v30.21h4.34v-14.32c0-8.57,3.55-12.92,10.56-12.92
		c7.83,0,8.44,4.88,8.44,6.38v20.86h4.39v-20.54C586.35,282.47,582.23,278.9,574.45,278.9"/>
	<path class="st0" d="M606.36,306.15c-1.41,0.44-2.74,0.86-4.13,0.86c-3.6,0-3.71-3.13-3.71-3.49v-20.57h8.1v-3.4h-8.1v-6.22
		l-4.35,0.95v5.27h-3.74v3.4h3.74v20.2c0,3.51,0.56,7.26,7.22,7.26c1.69,0,3.37-0.25,5-0.75l0.24-0.07l0.61-3.72L606.36,306.15z"/>
	<path class="st0" d="M160.73,237.3c0,3.61-0.8,6.56-2.37,8.78c-1.75,2.58-4.31,3.9-7.62,3.9c-2.73,0-5.32-0.55-7.7-1.61l-0.49-0.22
		l1.5,4.04l0.13,0.05c2.04,0.88,4.25,1.32,6.56,1.32c4.53,0,8.08-1.55,10.54-4.62c2.35-2.91,3.49-6.78,3.49-11.81v-28.51l-4.05,1.26
		V237.3z"/>
	<path class="st0" d="M263.5,198.44c1.65,0,2.52-0.91,2.52-2.64c0-1.74-0.87-2.66-2.52-2.66c-1.7,0-2.61,0.92-2.61,2.66
		C260.89,197.53,261.8,198.44,263.5,198.44"/>
	<path class="st0" d="M269.01,195.8c0,1.72,0.87,2.64,2.51,2.64c1.72,0,2.62-0.91,2.62-2.64c0-1.74-0.91-2.66-2.62-2.66
		C269.88,193.14,269.01,194.06,269.01,195.8"/>
	<path class="st0" d="M267.49,191.77c1.7,0,2.64-0.93,2.64-2.63c0-1.65-0.91-2.52-2.64-2.52c-1.72,0-2.62,0.87-2.62,2.52
		C264.86,190.84,265.79,191.77,267.49,191.77"/>
	<path class="st0" d="M297.25,198.44c1.67,0,2.56-0.91,2.56-2.64c0-1.74-0.89-2.66-2.56-2.66c-1.72,0-2.62,0.92-2.62,2.66
		C294.62,197.5,295.56,198.44,297.25,198.44"/>
	<path class="st0" d="M305.39,198.44c1.64,0,2.51-0.91,2.51-2.64c0-1.74-0.87-2.66-2.51-2.66c-1.73,0-2.63,0.92-2.63,2.66
		C302.76,197.5,303.69,198.44,305.39,198.44"/>
	<path class="st0" d="M375.83,209.87v18.88c0,6.18-2.75,9.18-8.41,9.18h-8.65v-25.91l-4.02,1.29v24.63h-17.01v-22.68l-4.03,1.38
		v21.3h-22.38c-5.69,0-7.88-2.89-7.88-8.83v-20.58l-4.03,1.28v18.94c0,6.18-2.76,9.18-8.44,9.18h-12.85c-5.68,0-8.44-2.89-8.44-8.83
		l0.02-20.58l-4.04,1.28v18.94c0,6.18-2.77,9.18-8.47,9.18H244.6c-2.77,0.04-4.91-0.67-6.33-2.07c-1.52-1.5-2.29-3.9-2.29-7.13
		c-0.24-4.03-1.5-7.31-3.72-9.73c-2.25-2.44-5.41-3.67-9.41-3.67c-4.4,0-7.78,1.5-10.06,4.45c-2.05,2.56-3.12,6.14-3.18,10.63
		c-0.5,5.06-3.23,7.52-8.34,7.52h-16.93c-3.08,0-4.58-1.65-4.58-5.03v-38.18l-4.02,1.36v36.89c0,5.71,2.68,8.61,7.97,8.61h18.01
		c3.82,0,6.81-1.16,8.9-3.44c1.79,5.55,5.89,8.37,12.21,8.37c3.2,0,5.97-0.89,8.23-2.64c2.07-1.61,3.5-3.81,4.22-6.52
		c2.37,2.81,5.64,4.24,9.75,4.24h12.55c4.68,0,8.1-1.67,10.17-4.95c2.15,3.28,5.49,4.95,9.95,4.95h13.63
		c4.68,0,8.11-1.67,10.19-4.96c2.15,3.29,5.56,4.96,10,4.96h56.3c3.75,0,6.72-1.12,8.82-3.33c2.15-2.2,3.24-5.19,3.24-8.88V208.5
		L375.83,209.87z M222.76,242.84c-5.97,0-8.87-3.88-8.87-11.86c0-8,2.9-11.89,8.87-11.89c6.06,0,9.01,3.89,9.01,11.89
		C231.77,238.96,228.82,242.84,222.76,242.84"/>
	<path class="st0" d="M437.71,196.08v32.68c0,6.17-4.42,9.18-10.1,9.18c-5.7,0-8.47-2.88-8.47-8.83v-34.31l-4.1,1.29v32.68
		c0,6.17-2.74,9.18-8.4,9.18h-6.03h-9.97h-3.71l-1.86,3.65h23.3c3.8,0,6.75-1.66,8.78-4.95c2.15,3.29,5.49,4.95,9.94,4.95h0.96
		c3.69,0,8.29-1.15,10.41-3.41c2.18-2.26,3.28-5.22,3.28-8.81v-34.58L437.71,196.08z"/>
	<polygon class="st0" points="398.67,233.19 398.67,198.4 394.63,199.77 394.63,233.19 	"/>
	<path class="st0" d="M490.29,214.43c3.42,0,5.87,1.4,7.1,4.06l0.39,0.83l1.21-4.24l-0.12-0.14c-2.29-2.63-5.31-3.97-8.99-3.97
		c-6.95,0-11.27,4.36-11.27,11.36v8.74h16.48v10.5c0,7.85-7.39,8.86-12.95,8.94h-0.27c-4.34,0-7.5-1.03-9.64-3.16
		c-2.65-2.62-3.88-6.95-3.88-13.62v-0.47l-3.77,1.22l0.02,0.27c1.04,12.33,4.24,19.48,17.54,19.55c7.01,0,16.29-1.29,16.66-12.48
		l-0.01-14.3l-16.3,0.08v-4.72C482.48,217.36,485.18,214.43,490.29,214.43 M516.55,212.13c-4.37,0-11.7,1.92-11.7,14.76
		c0,5.49,1.52,14.7,11.7,14.7c2.93,0,5.52-0.96,7.54-2.78c0.01,0.1,0.01,0.23,0.01,0.39c0.06,5.62-2.32,11.65-9.18,11.73
		c-4.11,0-7.16-1.5-7.19-1.52l-0.88-0.44l1.85,4.03l0.11,0.05c0.11,0.06,2.62,1.25,6.1,1.25c8.12,0,12.98-5.71,12.97-15.26
		l0.32-12.87c0.1-4.51-1.2-8.39-3.66-10.91C522.53,213.22,519.77,212.13,516.55,212.13 M516.55,238.24c-5.33,0-7.92-3.71-7.92-11.34
		c0-7.72,2.51-11.32,7.92-11.32c5.3,0,7.88,3.7,7.88,11.32C524.43,234.53,521.85,238.24,516.55,238.24 M591.92,210.98
		c-4.73,0-8.49,1.66-12.57,5.57l-0.26,0.24l2.7,2.68l0.24-0.23c3.09-3,5.58-4.62,9.88-4.62c11.3,0,11.3,10.48,11.3,18.89v4.63
		h-46.37v-13.68c0-6.95-4.6-11.44-11.7-11.44c-3.25,0-6.38,1.44-8.58,3.96l-0.08,0.09l0,5.57c0,0,2.7-6.18,8.66-6.18
		c5.11,0,7.82,2.94,7.82,8.49v13.18H535.5l-2.19,3.46h73.94v-8.09C607.25,222.6,606.07,210.98,591.92,210.98 M593.13,249.34
		c-1.73,0-2.63,0.92-2.63,2.66c0,1.7,0.93,2.64,2.63,2.64c1.64,0,2.51-0.91,2.51-2.64C595.64,250.26,594.77,249.34,593.13,249.34"/>
</g>
</svg>
