<?xml version="1.0" encoding="utf-8"?>
<!-- Generator: Adobe Illustrator 27.8.1, SVG Export Plug-In . SVG Version: 6.00 Build 0)  -->
<svg version="1.1" id="Layer_1" xmlns="http://www.w3.org/2000/svg" xmlns:xlink="http://www.w3.org/1999/xlink" x="0px" y="0px"
	 viewBox="0 0 1000 500" style="enable-background:new 0 0 1000 500;" xml:space="preserve">
<style type="text/css">
	.st0{fill:#FFFFFF;}
</style>
<g>
	<path class="st0" d="M505.91,361.1c0.6,1.31,1.16,2.88,2.86,2.88c1.67,0,1.96-1.65,2.46-2.86c1.98-4.78,5.32-7.86,10.6-8.47
		c2.14-0.25,4.32-0.18,6.44-0.5c3.52-0.52,3.83-0.35,3.82,3.05c-0.28,3.49,1.61,6.01,3.91,8.24c1.65,1.6,3.68,0.9,3.99-1.27
		c1.79-12.71,3.69-25.39,8.7-37.35c1.12-2.69,0.06-4.8-2.12-6.33c-2.5-1.75-5.12-3.35-7.76-4.9c-1.97-1.15-3.86-0.67-5.44,0.83
		c-1.37,1.3-2.63,2.72-3.9,4.12c-8.98,9.8-16.91,20.35-23,32.21C504.72,354.13,504.3,357.56,505.91,361.1 M524.16,341.6
		c3.81-4.9,7.73-9.72,11.62-14.55c0.33-0.41,0.84-0.87,1.37-0.42c0.27,0.23,0.43,0.84,0.34,1.2c-1.12,4.52-2.17,9.07-3.79,13.44
		c-0.44,1.19-1.52,1.82-2.72,1.98c-1.86,0.25-3.79-0.13-5.52,0.62C523.68,343.79,523.17,342.88,524.16,341.6"/>
	<path class="st0" d="M727.08,164.09c7.92,17.75,13.73,36.27,20.1,54.59c1.21,3.48,2.51,6.85,2.18,10.71
		c-0.49,5.9-0.9,11.8-0.69,17.75c0.23,6.65,1.78,13.22,1.15,19.47c0.03,7.01,0.75,13.56,0.95,20.11c0.27,9.12,3.13,8.28,9.44,8.24
		c4.22-0.02,5.17-1.03,5.16-5.34c0-18.38,0.1-36.76-0.06-55.14c-0.06-6.53,0-12.93,3.27-18.84c0.34-0.62,0.47-1.35,0.68-2.04
		c5.44-18.54,12.23-36.61,19.28-54.59c1.74-4.43,3.22-8.96,4.74-13.47c0.52-1.56,0.7-3.33-1.77-3.06c-2.71,0.29-5.41,0.12-8.1,0.21
		c-2.84,0.09-4.03,1.18-3.93,3.96c0.04,1.09-0.26,1.91-0.74,2.76c-8.13,14.45-14.89,29.52-20.59,45.08
		c-0.3,0.81-0.37,1.91-1.58,1.86c-1-0.04-1.21-0.97-1.47-1.73c-2.93-8.67-5.96-17.31-8.74-26.03c-1.96-6.14-3.03-12.59-6.57-18.16
		c-0.56-0.89-0.1-1.47,0.3-2.19c1.29-2.35,0.8-3.12-1.86-3.42c-4.23-0.48-8.47-0.29-12.7-0.28c-3.82,0.01-4.57,1.09-3.7,4.86
		C722.98,154.52,724.95,159.32,727.08,164.09"/>
	<path class="st0" d="M571.05,284.64c0.58,7.55,0.69,7.71,8.32,7.69c4.25-0.01,5.03-0.78,5.03-5.03c0.01-12.61,0-25.23,0-37.85
		c0-10.09-0.01-20.19-0.01-30.28c0-0.7-0.25-1.62,0.64-1.86c0.92-0.25,1.15,0.69,1.42,1.32c1.06,2.48,2.11,4.96,3.09,7.46
		c4.25,10.9,6.75,22.34,10.25,33.46c3.64,11.58,7.45,23.09,13.41,33.76c0.83,1.49,1.72,2.57,3.54,2.2c4.03-0.81,8.1-0.28,12.14-0.52
		c5.84-0.34,7.63-2.71,7.62-7.84c-0.1-43.7-0.06-87.41-0.09-131.11c0-2.54,0.21-4.97,1.03-7.42c1.16-3.47-0.23-5.28-4.01-5.33
		c-2.15-0.03-4.31,0.45-6.46,0.41c-2.23-0.04-3.06,0.9-3.16,3.02c-0.38,8.45-1.16,16.89-1.2,25.34
		c-0.15,34.33-0.08,68.66-0.09,102.99c0,0.96,0,1.91,0,3.24c-2.25-1.42-2.88-3.39-3.55-5.29c-2.52-7.2-5.04-14.41-7.49-21.64
		c-11.79-34.87-22.56-70.1-35.64-104.53c-0.46-1.19-0.67-2.65-2.34-2.44c-1.77,0.21-1.83,1.73-1.85,3.11
		c-0.05,2.7,0.07,5.42-0.13,8.11c-0.91,11.85-1.46,23.72-1.25,35.6c0.11,6.03,0.05,12.04,0.01,18.07
		C570.13,234.41,569.14,259.54,571.05,284.64"/>
	<path class="st0" d="M548.21,362.43c1.78,1.54,3.88,1.24,4.97-0.75c3.3-5.99,6.58-11.98,9.85-17.98c0.68-1.25,1.32-2.53,2.63-3.55
		c0,3.5-0.07,6.74,0.02,9.97c0.16,6.02,4.25,11.46,9.52,13.15c2.45,0.78,3.99,0.02,5.15-2.08c1.27-2.28,2.52-4.58,3.87-6.81
		c7.09-11.7,14.2-23.4,21.33-35.08c1.22-1.99,1.89-3.91-0.02-5.87c-2.78-2.86-4.98-2.67-7.52,0.78
		c-7.61,10.31-14.34,21.18-20.42,32.45c-0.43,0.8-0.57,2.24-1.86,1.92c-1.33-0.33-1.12-1.72-1.02-2.76c0.2-2.32,0.48-4.64,0.82-6.95
		c0.84-5.63,2.73-10.96,4.62-16.29c0.88-2.47-0.03-4.2-2.06-5.51c-0.9-0.58-1.89-1.04-2.84-1.56c-4.42-2.44-6.31-2.04-9.03,2.11
		c-7.55,11.55-14.04,23.69-19.87,36.18C545.09,356.52,545.99,360.51,548.21,362.43"/>
	<path class="st0" d="M539.09,165.91c0.21,9,0.2,18.01,0.25,27.02c0.15,30.62-0.31,61.24,0.3,91.86c0.11,5.62,1.57,7.46,7.18,8.48
		c4.13,0.75,5.68-0.54,5.68-4.71c0-45.49,0-90.98-0.03-136.47c0-2,0.07-3.93,1.15-5.73c1.01-1.67,0.28-2.69-1.41-3.29
		c-1.67-0.6-3.4-0.19-4.46-0.29c-2.08,0-3.53-0.1-4.96,0.03c-1.41,0.13-2.87,0.63-2.68,2.4
		C540.88,152.16,538.92,158.97,539.09,165.91"/>
	<path class="st0" d="M649.62,292.24c0.07,1.22,0.63,2.02,1.87,2.3c3.28,0.74,6.58,1.04,9.89,0.25c1.97-0.47,2.6-1.77,1.85-3.68
		c-0.46-1.18-0.8-2.35-0.8-3.65c0.03-21.63,0.01-43.26,0.03-64.89c0-1.01-0.4-2.44,1.13-2.61c1.24-0.14,1.37,1.15,1.76,2.04
		c5.38,12.31,8.51,25.35,12.43,38.14c3.69,12.03,7.34,24.07,13.49,35.16c0.82,1.48,1.63,2.88,3.54,2.9
		c4.6,0.05,9.21,0.21,13.77-0.58c4.92-0.86,6.38-2.62,6.36-7.71c-0.04-13.24-0.15-26.49-0.16-39.74c-0.03-22.71-0.01-45.43,0-68.14
		c0-4.14,0.21-8.28,0.05-12.43c-0.21-5.67-0.39-11.38,0.38-17c0.89-6.48,0.96-6.61-5.61-6.64c-0.54,0-1.08-0.02-1.63,0.01
		c-4.79,0.23-5.22,0.67-5.28,5.42c-0.01,0.27-0.03,0.54-0.05,0.81c-0.51,8.71-1.41,17.42-1.45,26.13
		c-0.18,33.8-0.09,67.6-0.12,101.4c0,1.11,0.42,2.36-0.8,3.44c-1.01-0.88-1.13-2.01-1.5-2.99c-10.08-27.31-18.49-55.17-27.66-82.78
		c-5.38-16.2-11.01-32.31-17.4-48.15c-0.37-0.92-0.47-2.4-1.99-2.09c-1.31,0.27-0.91,1.56-1.02,2.49
		c-1.08,8.58-1.28,17.24-1.48,25.85c-0.47,20.71-0.46,41.44-0.64,62.16c-0.13,15.32,0.09,30.63,0.52,45.94
		C649.18,286.5,649.44,289.37,649.62,292.24"/>
	<path class="st0" d="M471.87,333.42c2.85-5.01,5.83-9.94,8.6-14.99c1.7-3.1,0.62-5.45-3.16-7.65c-2.83-1.65-4.16-1.32-6.21,1.79
		c-6.04,9.18-11.65,18.61-16.51,28.47c-1.59,3.22-3.06,6.51-3.24,9.51c-0.03,3.76,1.24,6.45,2.65,9.06
		c1.85,3.42,3.51,4.19,7.28,3.49c0.88-0.16,1.73-0.49,2.6-0.71c5.21-1.37,10.05-3.88,15.43-4.75c1.51-0.24,1.65-1.67,1.19-3.05
		c-1.14-3.47-4.93-5.7-8.54-5.06c-2.39,0.43-4.79,0.78-7.07,1.63c-0.69,0.26-1.45,0.58-2.03-0.01c-0.76-0.76-0.06-1.53,0.31-2.19
		C466.04,343.77,468.94,338.59,471.87,333.42"/>
	<path class="st0" d="M450.6,317.01c-1.36-0.7-2.73-1.37-3.93-2.35c-3.47-2.82-5.19-2.74-8.27,0.54
		c-7.86,8.35-15.04,17.23-21.17,26.94c-1.91,3.04-3.78,6.13-5.37,9.34c-1.72,3.47-1.79,7.11,0.05,10.63c0.62,1.18,1.67,1.98,3.01,2
		c1.41,0.02,1.85-1.18,2.31-2.3c0.93-2.27,2.51-4.15,3.84-6.17c0.78-1.18,1.97-1.93,3.33-2.13c3.38-0.48,6.78-0.82,9.87-1.18
		c3.84-0.24,3.93-0.13,3.84,3.37c-0.08,3.34,1.71,5.79,3.98,7.96c0.7,0.67,1.59,1.21,2.69,0.75c1.18-0.49,1.42-1.47,1.53-2.61
		c0.62-6.16,1.69-12.26,2.94-18.31c1.18-5.71,2.73-11.32,5.04-16.72C456.49,321.65,455.56,319.54,450.6,317.01 M443.47,328.17
		c-1.16,4.04-2.29,8.1-3.41,12.16c-0.5,1.79-1.81,2.66-3.5,2.92c-1.76,0.27-3.61-0.17-5.17,0.56c-0.72,0.08-1.24-0.01-1.57-0.53
		c-0.39-0.61,0.1-1.03,0.4-1.42c3.83-4.88,7.68-9.74,11.54-14.6c0.32-0.41,0.71-0.97,1.3-0.7
		C443.76,326.87,443.66,327.49,443.47,328.17"/>
	<path class="st0" d="M800.06,189.37c1.56,6.26,5.74,10.49,11.56,13.1c4.89,2.19,10.09,3.24,15.37,3.85
		c6.79,0.78,13.63,1.21,20.38,2.24c11.45,1.75,15.12,10.91,13.08,20.3c-1.66,7.65-8.46,12.78-16.35,12.79
		c-8.75,0.01-17.4-1.28-26.05-2.42c-4-0.53-7.93-1.62-12.04-1.39c-1.71,0.1-2.79,0.7-3.04,2.4c-0.4,2.76-0.85,5.51-1.05,8.28
		c-0.29,4.04,1.12,5.47,5.11,5.39c7.58-0.15,15.13,0.44,22.68,0.91c6.35,0.4,12.7,1.03,19.1-0.3c11-2.29,18.66-8.17,21.99-19.09
		c1.6-5.23,1.69-10.61,1.24-16.02c-0.88-10.61-5.89-18.08-16.24-21.63c-6.33-2.17-12.95-2.97-19.47-4.24
		c-4.76-0.93-9.6-1.54-14.19-3.17c-7.53-2.67-11.56-8.55-10.69-15.85c0.64-5.41,2.59-10.39,5.41-15.11
		c4.4-7.36,10.73-8.86,18.93-7.3c7.76,1.47,12.96,6.39,15.36,13.99c0.67,2.12,1.79,3.08,4.1,2.95c4.75-0.26,7.48-3.97,6.14-8.58
		c-3.3-11.33-16.1-20.48-28.66-20.44c-1.08,0-2.17-0.03-3.25,0.01c-0.44,0.02-0.88,0.17-1.32,0.25
		c-11.36,2.26-19.58,8.86-25.19,18.72C797.51,168.62,797.47,178.95,800.06,189.37"/>
	<path class="st0" d="M797.03,142.14c0.11,0.88,0.34,1.75,0.49,2.62c0.53,3.08,2.03,3.96,4.95,2.84c2.11-0.81,3.44-2.29,3.48-4.61
		c0.05-2.72-0.08-5.49-2.78-7.09c-1.63-0.97-3.49-0.93-5.15,0c-1.51,0.84-1.33,2.38-1.12,3.95
		C796.94,140.54,796.93,141.35,797.03,142.14"/>
	<path class="st0" d="M512.96,314.14c-0.67-0.45-1.42-0.78-2.1-1.23c-2-1.32-3.52-0.73-4.82,1.09
		c-8.75,12.19-16.12,25.13-21.26,39.26c-0.61,1.68-1.01,3.43-1.43,4.86c0.15,1.74,0.8,2.87,1.81,3.85c3.28,3.2,4.47,3.04,6.46-1
		c3.39-6.86,7.02-13.6,10.95-20.17c3.92-6.57,7.94-13.08,11.92-19.62C516.39,318.07,515.98,316.15,512.96,314.14"/>
	<path class="st0" d="M443.35,152.73c1.36,7.77,3.05,15.48,5.11,23.11c10.4,38.45,21.5,76.71,32.42,115.01
		c0.32,1.12,0.76,2.03,2.15,2c1.35-0.03,1.89-0.94,2.17-2.03c0.25-0.95,0.29-1.95,0.52-2.9c1.84-7.67,3.94-15.29,5.52-23.02
		c5.36-26.14,12.09-51.9,21.11-77.03c4.55-12.68,8.96-25.41,13.13-38.21c1.22-3.75,0.5-4.87-3.23-5.11
		c-4.67-0.31-9.37,0.03-14.03-0.72c-2.1-0.34-3.32,0.54-3.81,2.78c-1.32,6.13-2.58,12.29-4.45,18.29
		c-5.91,18.94-11.35,38-15.14,57.49c-0.76,3.92-1.34,7.94-3.33,11.68c-1-0.52-0.96-1.19-1.1-1.8c-4.14-18.09-7.48-36.37-12.42-54.29
		c-2.67-9.7-5.6-19.31-9.04-28.76c-0.74-2.03-1.87-4.02-4.13-4.21c-3.67-0.31-7.38-0.29-11.06-0.09c-2.22,0.12-2.97,1.86-2.01,3.89
		C442.31,150.08,443.09,151.23,443.35,152.73"/>
	<path class="st0" d="M228.45,282.67c9.28,10.98,23.33,12.2,34.25,2.79c17.98-15.5,25.9-35,23.53-58.8
		c-0.81-8.12-1.1-16.32-1.91-24.46c-0.59-5.98,0.11-12.06-1.44-17.97c-3.28-12.46-10.77-22.38-18.96-31.98
		c-7.48-8.78-16.78-12.21-27.97-10.02c-10.58,2.07-19.56,7.11-23.82,17.48c-5.95,14.47-9.07,29.68-9.38,42.4
		c0,14.72,3.38,32.19,8.58,48.06C215.21,261.97,220.36,273.11,228.45,282.67 M226.29,166.85c5.62-9.32,16.78-10.67,24.65-3.13
		c5.76,5.52,9.01,12.5,11.43,19.93c4.19,12.85,6.8,26.03,8.2,39.47c0.56,5.37,1.04,10.74,1.19,17.92
		c-0.05,6.09-0.88,13.82-4.35,21.05c-3.81,7.94-10.61,10.77-18.54,10.34c-3.5-0.19-6.19-2.2-8.47-4.8
		c-5.72-6.53-9.07-14.26-11.05-22.55c-3.26-13.62-7.21-27.07-9.71-40.86C217.25,190.93,219.31,178.42,226.29,166.85"/>
	<path class="st0" d="M356.75,363.25c2.49,1.69,4.15,1.08,5.08-1.77c0.33-1.02,0.72-2.04,1.23-2.98c2.97-5.45,5.88-10.94,9.01-16.3
		c3.54-6.06,7.26-12.02,10.95-17.99c0.6-0.97,1.49-2.79,2.75-1.06c1.7,2.32,3.63,2.22,5.94,1.62c1.3-0.34,2.65-0.49,3.97-0.79
		c0.72-0.16,1.43-0.48,1.92,0.33c0.44,0.72,0.12,1.36-0.29,2c-0.87,1.37-1.72,2.75-2.56,4.14c-4.59,7.63-9.13,15.3-12.24,23.7
		c-1.6,4.31-0.95,6.72,2.35,9.25c2.82,2.17,4.14,1.89,5.58-1.31c5.18-11.5,11.52-22.39,17.4-33.52c2.56-4.85,6.59-7.26,11.97-6.67
		c1.95-0.04,4.13,0.96,5.04-1.24c0.97-2.35-0.68-4.07-2.22-5.64c-0.9-0.92-2.02-1.59-3.28-1.8c-1.95-0.33-3.92-0.6-5.89-0.69
		c-8.06-0.4-15.99,0.44-23.82,2.43c-2.19,0.56-4.41,0.77-6.45-0.78c-3.51-2.68-5.23-2.43-7.75,1.16c-2.12,3.02-4.2,6.08-6.09,9.24
		c-5.9,9.89-11.55,19.92-15,31.01C353.43,358.53,354.44,361.69,356.75,363.25"/>
	<path class="st0" d="M129.1,260.25c0.73,7.31,2.02,14.54,6.61,20.52c9.18,11.94,21.55,17.24,36.46,15.7
		c13.54-1.41,20.34-8.23,22.19-21.29c1.7-12.03,2.35-24.16,2.53-36.29c0.21-14.5,0.05-29,0.05-43.5c0.06,0,0.12,0,0.18,0
		c0-13.96,0.02-27.93-0.02-41.89c-0.01-2.06-0.33-4.12-0.45-6.18c-0.13-2.26-1.41-3.41-3.52-3.78c-2.6-0.46-5.22-0.37-7.82-0.1
		c-2.25,0.24-3.17,1.79-3.14,3.98c0.15,15.58-2.03,31.04-2.49,46.59c-0.53,18.26-0.97,36.53-1.26,54.8
		c-0.1,6.14-0.64,12.2-1.73,18.22c-0.96,5.33-3.97,8.06-9.48,8.75c-0.63,0.08-1.25,0.17-1.87,0.28
		c-7.85,1.32-17.17-5.17-18.55-13.01c-1.52-8.62-1.93-17.31-1.27-26.05c0.18-2.33,0.17-4.68,0.14-7.02
		c-0.03-2.26-1.16-3.51-3.53-3.45c-0.99,0.02-1.99-0.04-2.98,0.03c-2.71,0.2-5.33,0.45-7.77-1.38c-1.14-0.85-2.37-0.4-2.9,1.22
		c-0.6,1.83-0.84,3.71-0.75,5.58C128.16,241.39,128.15,250.85,129.1,260.25"/>
	<path class="st0" d="M292.63,284.16c0.1,2.49,1.19,3.14,3.42,2.82c3.5-0.51,6.19-3.49,6.19-7.01c-0.01-25.5,0.05-51-0.09-76.5
		c-0.04-7.92-0.3-15.84,0.62-23.73c0.09-0.77-0.19-1.74,0.93-1.97c0.81-0.17,1.05,0.56,1.33,1.1c3.85,7.52,7.76,15.02,10.95,22.86
		c12.56,30.86,26,61.27,44.48,89.19c0.6,0.9,1.16,1.83,1.83,2.67c0.83,1.05,1.93,1.63,3.32,1.4c1.48-0.25,1.94-1.39,2.35-2.64
		c0.43-1.33,0.36-2.67,0.36-4.01c-0.01-44.33-0.02-88.67-0.03-133c0-1.53-0.1-3.09,0.15-4.58c0.98-6,1.02-5.99-5.23-5.89
		c-5.81,0.09-6.31,0.54-6.39,6.32c-0.21,14.95-0.47,29.9-0.54,44.85c-0.09,21-0.02,41.99-0.04,62.99c0,1.04,0.29,2.13-0.43,3.4
		c-1.4-1.56-1.66-3.27-2.13-4.89c-2.54-8.64-5.38-17.19-10.17-24.87c-10.48-16.79-18.52-34.73-25.6-53.14
		c-4.72-12.26-11.06-23.43-21.11-32.19c-0.68-0.59-1.29-1.36-2.32-0.96c-1.11,0.43-1.21,1.41-1.24,2.46
		c-0.28,11.61-0.64,23.21-0.87,34.82c-0.16,8.29-0.25,16.57-0.2,24.86C292.32,233.72,291.6,258.94,292.63,284.16"/>
	<path class="st0" d="M412.01,245.33c4.36-0.26,7.61-2.4,10.77-5.02c2.5-2.07,3.39-1.86,4.94,0.98c2.36,4.34,4.88,5.25,9.59,3.65
		c2.08-0.71,2.53-1.87,1.43-3.66c-1.42-2.3-2.8-4.63-4.41-6.79c-1.74-2.33-1.86-4.48-0.27-6.93c2.27-3.5,2.84-7.51,3.07-11.58
		c0.06-1.04-0.04-2.07-1.02-2.62c-2.11-1.17-4.41-1.34-6.47-0.15c-1.74,1.01-0.99,2.84-0.69,4.42c0.09,0.44,0.24,0.91,0.15,1.31
		c-0.19,0.87-0.44,1.81-1.44,2.12c-1.16,0.36-1.55-0.51-2.01-1.32c-0.67-1.17-1.24-2.47-2.16-3.41c-3.68-3.75-3.26-5.45,0.81-9.04
		c2.51-2.22,3.37-5.23,3.26-8.23c-0.5-8.02-4.96-13.17-11.56-13.62c-9.47-0.64-15.76,8.91-11.78,18.22
		c3.84,8.98,2.97,8.43-2.85,14.03c-3.89,3.75-5.59,8.26-4.68,13.68C397.67,237.42,404.37,245.79,412.01,245.33 M411.34,195.65
		c0.96-3.62,4.03-4.51,6.71-1.89c1.34,1.31,2.11,2.9,2.09,5.24c0,0.03-0.01,0.48-0.1,0.92c-0.46,2.3-1.41,4.79-3.65,5.27
		c-2.31,0.5-2.91-2.25-3.78-3.91C411.7,199.57,410.78,197.76,411.34,195.65 M410.31,219.7c2.15-2.1,3.64-1.8,5.21,0.71
		c1.95,3.13,3.93,6.24,5.91,9.35c1.19,1.87,0.63,3.23-1.24,4.16c-1.04,0.52-2.11,1-3.21,1.42c-5.75,2.2-10.24-0.93-10.27-7.91
		C407,224.98,407.96,222,410.31,219.7"/>
</g>
</svg>
