<svg version="1.1" id="Layer_1" xmlns="http://www.w3.org/2000/svg" xmlns:xlink="http://www.w3.org/1999/xlink" x="0px" y="0px"
	 width="100%" viewBox="0 0 736 736" enable-background="new 0 0 736 736" xml:space="preserve">
<path fill="#000000" opacity="1.000000" stroke="none" 
	d="
M457.752960,362.993225 
	C457.751343,350.329254 457.719574,338.163818 457.759094,325.998627 
	C457.790161,316.438202 462.434113,311.586273 471.996582,310.986450 
	C485.116760,310.163513 485.983276,310.968201 485.986053,324.002838 
	C485.987030,328.668884 486.100464,333.339417 485.930359,337.999420 
	C485.817932,341.080322 486.924469,342.793518 489.858215,344.063293 
	C503.594879,350.008667 517.976746,350.654694 532.512390,349.253357 
	C547.976318,347.762573 562.913147,343.736542 577.622009,338.789703 
	C594.460876,333.126495 611.884399,330.682953 629.563843,329.764801 
	C630.830750,329.699005 632.202576,330.168915 633.464233,329.213867 
	C632.840454,327.183167 631.076904,326.093262 629.723267,324.732361 
	C619.146362,314.098816 608.323547,303.702820 597.953552,292.872681 
	C587.726685,282.192047 575.760437,277.528229 561.378845,281.798004 
	C546.231140,286.295197 536.235596,296.292999 532.109131,311.814117 
	C530.975708,316.077301 531.002502,320.387512 531.166016,324.718384 
	C531.282471,327.804413 530.852417,330.835632 527.105347,330.903534 
	C523.401306,330.970642 522.842346,327.973999 522.719543,324.889282 
	C521.745728,300.429688 539.083008,274.812164 563.434021,264.806610 
	C585.855530,255.593872 603.611755,259.169250 620.809692,276.438354 
	C640.563171,296.273590 660.236023,316.189423 680.059570,335.954163 
	C682.885620,338.771820 684.248474,341.719177 684.022217,345.684052 
	C683.794678,349.670532 684.053345,353.682190 683.948364,357.678833 
	C683.756836,364.970093 680.806030,367.073608 674.084839,364.568573 
	C658.299622,358.685303 642.037964,355.848175 625.173401,356.284180 
	C608.159912,356.724060 591.831726,360.390930 576.059387,366.560608 
	C564.020630,371.269806 551.637878,374.544983 538.746399,375.051147 
	C522.226929,375.699799 506.739838,371.697632 492.539368,363.026367 
	C490.610321,361.848450 488.961792,360.050201 485.697784,359.687683 
	C485.697784,364.305725 486.184296,368.798615 485.615967,373.153870 
	C482.714142,395.390930 468.502289,407.719910 448.335419,414.219849 
	C432.164001,419.431976 416.138275,418.035980 400.504730,411.576721 
	C399.430328,411.132782 398.342529,410.660675 397.378204,410.024109 
	C395.598541,408.849121 394.249237,407.260925 395.222382,405.010803 
	C396.294830,402.531158 398.542328,402.247742 400.720184,403.163269 
	C405.513275,405.178223 410.423737,406.626068 415.591736,407.238617 
	C434.702118,409.503510 458.356689,395.021545 457.759705,371.989624 
	C457.686310,369.158905 457.752197,366.324554 457.752960,362.993225 
z"/>
<path fill="#000000" opacity="1.000000" stroke="none" 
	d="
M213.324585,408.450958 
	C162.476990,428.892090 105.683014,412.946014 74.313202,369.545441 
	C62.807064,353.626495 56.956039,335.576111 55.006523,316.170105 
	C54.700348,313.122375 54.599255,309.448242 58.668629,309.227509 
	C62.435413,309.023193 62.648537,312.640991 62.906616,315.453003 
	C66.516724,354.788361 88.073441,380.795776 124.062424,394.487823 
	C175.759552,414.155975 234.698257,386.370575 250.417191,334.094818 
	C252.487823,327.208557 253.745239,320.147583 253.806564,312.967499 
	C253.940338,297.305878 253.907822,281.641907 253.818253,265.979614 
	C253.760086,255.810486 248.140396,250.415894 237.872559,250.361130 
	C229.385437,250.315872 220.918396,250.129395 212.609055,252.539429 
	C187.896713,259.706879 174.484863,284.794128 183.192383,307.785370 
	C188.341171,321.380157 204.160690,332.234985 219.544739,332.687012 
	C222.208145,332.765289 224.877701,332.627777 227.541580,332.697601 
	C229.286087,332.743317 231.593643,332.009186 232.318466,334.295227 
	C233.087524,336.720642 230.825073,337.720490 229.276459,338.902466 
	C224.643356,342.438599 219.231430,344.204163 213.603210,344.996643 
	C178.353531,349.959991 145.755493,316.502655 153.863724,283.480743 
	C158.264236,265.559082 170.321335,254.203369 187.191574,247.683655 
	C194.381058,244.905197 201.856750,243.552933 209.642502,243.638718 
	C224.303818,243.800278 238.968201,243.667053 253.631271,243.687653 
	C269.722504,243.710281 281.562256,254.302887 281.905396,270.495331 
	C282.257690,287.119446 283.107819,303.807159 281.203522,320.417511 
	C277.868652,349.505859 264.404114,373.038696 241.936401,391.559082 
	C233.398483,398.596985 223.982422,404.212830 213.324585,408.450958 
z"/>
<path fill="#000000" opacity="1.000000" stroke="none" 
	d="
M398.314240,252.521729 
	C373.388672,245.765244 344.019653,253.408356 334.543488,278.696014 
	C323.367096,308.520721 345.513397,331.109772 370.832855,332.675293 
	C373.653137,332.849670 376.495300,332.645874 379.326660,332.676056 
	C380.936462,332.693207 382.935486,332.228149 383.516754,334.385101 
	C384.041595,336.332581 382.420685,337.360046 381.124054,338.391846 
	C376.291473,342.237274 370.634766,344.156067 364.649384,345.105652 
	C334.114258,349.950012 302.939545,323.166443 303.889282,292.290558 
	C304.501434,272.390228 315.592468,258.827942 332.860901,250.055527 
	C341.418671,245.708160 350.598785,243.566483 360.299988,243.649796 
	C375.125000,243.777130 389.951904,243.666946 404.777954,243.688507 
	C420.998932,243.712082 432.774170,254.820374 433.032288,271.063354 
	C433.344543,290.715240 433.446594,310.384399 432.974670,330.030090 
	C432.650299,343.532471 425.759979,354.071350 415.306854,362.248627 
	C392.810486,379.847168 357.718750,379.753235 335.202850,362.133850 
	C333.502289,360.803131 331.848816,359.369324 330.387238,357.786102 
	C328.186005,355.401703 324.781006,352.773132 328.337494,349.416168 
	C331.981812,345.976288 334.178497,349.678009 336.413269,352.065399 
	C347.229370,363.619995 360.528198,367.803802 375.830048,364.305878 
	C389.532745,361.173584 399.504486,353.282227 403.937286,339.377014 
	C404.767548,336.772644 404.865204,334.138702 404.867340,331.480408 
	C404.884949,309.491211 404.813812,287.501709 404.912384,265.512970 
	C404.936707,260.084473 403.220642,255.759811 398.314240,252.521729 
z"/>
<path fill="#000000" opacity="1.000000" stroke="none" 
	d="
M600.530640,385.869965 
	C605.842346,375.892731 614.202087,371.417999 624.457642,372.785339 
	C633.289917,373.962952 640.933838,381.031952 643.107910,390.033051 
	C645.167053,398.558044 641.412476,408.057800 633.965698,413.164307 
	C626.055542,418.588531 615.881775,418.615540 608.207153,413.232666 
	C600.609680,407.903900 597.058655,398.551117 599.247681,389.530212 
	C599.520508,388.405945 599.992798,387.330078 600.530640,385.869965 
z"/>
<path fill="#000000" opacity="1.000000" stroke="none" 
	d="
M90.151978,294.725708 
	C80.538338,279.251221 87.541115,262.669312 104.831223,259.149353 
	C116.938690,256.684448 128.892624,266.135345 130.737991,279.631470 
	C132.268677,290.826141 122.216515,302.656342 110.692482,303.383057 
	C102.513474,303.898804 95.591309,301.586182 90.151978,294.725708 
z"/>
<path fill="#000000" opacity="1.000000" stroke="none" 
	d="
M427.754028,498.603455 
	C414.120941,493.713287 406.858856,481.244659 408.924713,466.788086 
	C411.029388,452.060181 421.356934,442.504089 436.188965,441.780090 
	C440.489471,441.570190 444.777374,441.655884 449.096771,442.499878 
	C466.115540,445.825317 472.817505,459.275604 471.980438,473.433807 
	C471.045288,489.250702 459.700653,499.794525 443.929291,500.321198 
	C438.600067,500.499146 433.278046,500.484253 427.754028,498.603455 
M425.685699,454.300690 
	C420.738983,463.093689 420.751312,472.471863 423.077209,481.845459 
	C425.208496,490.434723 431.727234,495.433807 439.835663,495.658813 
	C447.601654,495.874329 454.389984,491.251404 457.218475,483.199127 
	C459.933167,475.470825 459.723175,467.488525 457.476166,459.687225 
	C455.357361,452.331085 450.356018,447.761108 442.669739,446.666412 
	C435.828827,445.692139 430.342468,448.311371 425.685699,454.300690 
z"/>
<path fill="#000000" opacity="1.000000" stroke="none" 
	d="
M275.515686,444.196289 
	C286.212402,440.478149 296.548218,440.511505 306.499512,445.043182 
	C318.288849,450.411896 323.939819,463.647217 321.094543,477.952515 
	C318.554291,490.724335 308.193420,499.511932 294.591858,500.277649 
	C289.273346,500.577087 283.951996,500.517975 278.754211,499.015533 
	C267.303497,495.705688 259.612885,486.653595 258.781647,475.462891 
	C257.625824,459.901917 262.627930,450.398621 275.515686,444.196289 
M271.837097,477.552094 
	C272.111542,478.852844 272.327057,480.169373 272.669861,481.451843 
	C275.002045,490.176819 281.367859,495.477264 289.690887,495.660217 
	C297.699066,495.836243 304.450470,490.919678 307.180084,482.659851 
	C309.764404,474.839539 309.519928,466.956726 307.014343,459.154358 
	C304.509735,451.354980 298.320435,446.651337 290.410339,446.387817 
	C282.831757,446.135315 276.041901,450.814484 273.400757,458.538208 
	C271.393738,464.407440 270.527191,470.487640 271.837097,477.552094 
z"/>
<path fill="#000000" opacity="1.000000" stroke="none" 
	d="
M378.703583,444.966797 
	C389.443970,453.400055 387.171661,463.057861 371.905762,472.622284 
	C377.795135,481.095398 383.682281,489.565277 389.652924,498.155304 
	C380.765564,501.090851 376.596741,499.696899 372.119385,492.770416 
	C368.273682,486.821167 364.386322,480.898834 359.432617,475.351501 
	C359.432617,481.724213 359.083740,488.123138 359.559723,494.460083 
	C359.858978,498.444214 358.603790,499.375519 354.928589,499.306488 
	C346.695984,499.151947 346.478516,499.281036 347.004700,491.103668 
	C347.914795,476.960388 348.254028,462.827820 346.915894,448.708038 
	C346.481628,444.125946 347.961914,442.346008 352.704132,442.732666 
	C361.254822,443.429749 370.037567,441.143616 378.703583,444.966797 
M372.519623,453.472290 
	C371.599915,450.954956 369.766327,449.413818 367.314941,448.461090 
	C361.639526,446.255219 359.224640,447.783997 359.126495,453.755768 
	C359.066437,457.410431 359.199432,461.071014 359.048187,464.720734 
	C358.904327,468.193024 360.687012,468.986298 363.716125,468.696442 
	C370.447174,468.052338 373.587311,463.069519 372.519623,453.472290 
z"/>
<path fill="#000000" opacity="1.000000" stroke="none" 
	d="
M497.772217,458.028564 
	C497.739960,454.703888 497.764648,451.871826 497.671600,449.043671 
	C497.461639,442.661652 497.436707,442.751495 504.097076,442.845520 
	C510.754333,442.939514 517.414795,442.860687 524.073242,442.795166 
	C526.713196,442.769165 529.159607,442.643036 529.134705,446.451477 
	C529.109985,450.223480 526.737610,449.651337 524.338257,449.458099 
	C522.516907,449.311401 520.654297,449.187897 518.852173,449.404510 
	C516.020813,449.744904 512.008545,447.644104 510.589691,450.813843 
	C508.634674,455.181366 508.805267,460.248047 509.558655,465.060883 
	C509.815674,466.702911 511.502869,466.668640 512.833740,466.645630 
	C515.991882,466.590973 519.150574,466.498535 522.305298,466.345123 
	C524.220093,466.251953 526.385559,465.153900 527.654602,467.519958 
	C528.392029,468.894958 528.388550,470.560272 527.531555,471.836151 
	C526.126587,473.927673 523.949158,472.898987 522.024536,472.798706 
	C519.037781,472.643066 516.049011,472.527985 513.061951,472.378510 
	C510.331818,472.241913 509.173218,473.496490 509.170654,476.250793 
	C509.165222,482.082062 509.438782,487.883789 509.950317,493.697083 
	C510.433411,499.186859 509.766388,499.298523 501.384613,499.329468 
	C496.566101,499.347260 497.311981,496.783142 497.409180,493.475372 
	C497.751343,481.831024 497.686249,470.174713 497.772217,458.028564 
z"/>
<path fill="#000000" opacity="1.000000" stroke="none" 
	d="
M220.683380,446.815247 
	C220.644958,444.870667 220.546463,443.478973 222.544464,442.860992 
	C229.629074,440.669617 233.231155,443.185791 233.021103,450.445770 
	C232.842972,456.602814 232.550995,462.756897 232.271255,468.910522 
	C231.870544,477.725311 233.323746,486.520630 232.256546,495.362000 
	C231.098953,504.952057 223.412796,511.859314 213.875336,511.374573 
	C212.269882,511.292999 210.397736,511.571594 210.101349,509.229980 
	C210.266312,508.869354 210.327759,508.395691 210.545990,508.306702 
	C219.888977,504.499359 220.684631,503.435913 220.718323,493.236053 
	C220.768951,477.905396 220.710083,462.574341 220.683380,446.815247 
z"/>
</svg>