<?xml version="1.0" encoding="utf-8"?>
<!-- Generator: Adobe Illustrator 27.8.1, SVG Export Plug-In . SVG Version: 6.00 Build 0)  -->
<svg version="1.1" id="Layer_1" xmlns="http://www.w3.org/2000/svg" xmlns:xlink="http://www.w3.org/1999/xlink" x="0px" y="0px"
	 viewBox="0 0 1000 500" style="enable-background:new 0 0 1000 500;" xml:space="preserve">
<style type="text/css">
	.st0{fill:#FFFFFF;}
</style>
<g>
	<path class="st0" d="M130.99,363.04c0.57-0.44,1.04-0.78,1.5-1.14c26.83-20.79,45.72-47.61,58.23-79.18
		c11.31-28.55,15.88-58.5,17.44-89.04c0.08-1.58-0.54-2.48-1.59-3.41c-22.11-19.72-46.99-34.82-74.35-45.77
		c-0.75-0.3-1.83-0.24-2.6,0.06c-12.96,5.01-25.31,11.31-37.23,18.48c-13.35,8.03-25.93,17.15-37.45,27.72
		c-0.51,0.47-1.11,1.24-1.08,1.84c0.23,5.36,0.46,10.73,0.94,16.07c1.23,13.51,3.28,26.9,6.17,40.15
		c7.34,33.6,21.47,63.79,43.86,89.83C112.62,347.7,121.32,355.79,130.99,363.04 M130.61,366.39c-5.8-5.09-11.9-9.95-17.44-15.39
		c-28.24-27.66-45.48-61.51-54.25-100.06c-3.09-13.57-5.23-27.3-6.51-41.16c-0.53-5.75-0.7-11.53-1.09-17.3
		c-0.09-1.3,0.34-2.19,1.3-3.06c13.39-12.31,28.13-22.69,43.85-31.68c10.54-6.03,21.42-11.37,32.74-15.76
		c0.94-0.36,2.23-0.5,3.12-0.14c27.5,10.89,52.55,25.93,74.84,45.6c3.63,3.2,3.63,3.24,3.38,8.26c-1.04,20.84-3.9,41.41-9.02,61.62
		c-7.73,30.51-21.31,58-41.62,81.95c-8.26,9.74-17.55,18.42-27.75,26.06C131.79,365.61,131.4,365.85,130.61,366.39"/>
	<path class="st0" d="M130.68,350.1c0.71-0.57,1.08-0.85,1.43-1.15c15.37-12.9,27.79-28.3,37.75-45.8
		c15.81-27.79,22.79-58.26,26.56-89.71c0.05-0.42-0.45-1.14-0.88-1.36c-1.29-0.67-2.66-1.18-4-1.74
		c-15.83-6.64-31.69-13.2-48.28-17.71c-5-1.36-10.06-2.78-15.28-1.89c-4.46,0.76-8.9,1.77-13.24,3.04
		c-16.27,4.75-31.87,11.35-47.51,17.86c-1.61,0.67-1.91,1.54-1.64,3.04c2.21,12.28,3.9,24.67,6.69,36.82
		c7.23,31.52,21.06,59.71,42.99,83.48C120.14,340.26,125.52,345.06,130.68,350.1 M130.98,354.12
		c-15.34-12.25-27.95-26.74-38.16-43.38c-12.22-19.92-20.52-41.45-25.08-64.4c-2.28-11.48-3.82-23.11-5.74-34.67
		c-0.16-0.94,0.06-1.37,0.91-1.73c17.54-7.41,35.04-14.88,53.38-20.07c5.1-1.44,10.28-3.17,15.58-2.56
		c5.62,0.64,11.24,1.88,16.68,3.45c17.34,5.02,33.94,12.15,50.52,19.25c0.43,0.19,0.98,0.93,0.92,1.35
		c-2.56,20.24-5.85,40.33-12.4,59.72c-8.03,23.76-19.89,45.29-36.51,64.01C144.97,341.99,138.31,348.32,130.98,354.12"/>
	<path class="st0" d="M129.31,176.24c-6.63,3.06-10.39,2.85-13.93-0.78c0.74-0.71,1.49-1.41,2.24-2.13
		c4.45,2.58,7.75,2.34,10.2-0.81c2.04-2.61,1.97-6.36-0.15-8.79c-2.68-3.08-5.94-3.24-10.24-0.44c-0.62-0.74-1.26-1.5-1.92-2.29
		c2.45-3.57,7.24-3.94,13.75-0.83v-5.23h3.35v5.53c2.35-1.74,4.67-2.62,7.31-2.5c2.62,0.12,4.83,1.06,6.72,2.92
		c-0.8,0.79-1.53,1.52-2.28,2.27c-4.07-2.64-7.49-2.48-10.04,0.53c-2.23,2.63-2.22,6.52,0.02,9.07c2.62,2.98,6.11,3.16,10.2,0.37
		c0.64,0.75,1.31,1.53,1.99,2.32c-3.12,3.62-7.34,3.9-13.86,0.79v5.22h-3.37V176.24z"/>
	<path class="st0" d="M131.2,299.62c6.49,3.61,12.74,7.11,19.04,10.53c0.54,0.29,1.46,0.19,2.09-0.05
		c3.79-1.48,7.54-3.06,11.62-4.35c-1.82,2.85-3.64,5.7-5.52,8.66c-2.21-1.07-4.28-2.1-6.39-3.06c-0.46-0.2-1.15-0.37-1.53-0.16
		c-6.39,3.49-12.74,7.06-19.37,10.74c5.02,2.8,9.82,5.46,15.05,8.38c-5.08,5-10.02,9.86-15.2,14.96
		c-5.16-5.06-10.07-9.89-15.22-14.95c5.21-2.9,10.01-5.58,15.03-8.38c-3.06-1.72-5.95-3.34-8.84-4.96
		c-3.26-1.82-6.54-3.61-9.78-5.47c-0.87-0.5-1.53-0.63-2.5-0.09c-1.92,1.08-3.96,1.93-6.12,2.96c-1.87-2.88-3.71-5.72-5.55-8.57
		c0.07-0.1,0.14-0.21,0.21-0.32c0.5,0.19,1.01,0.37,1.5,0.57c3.34,1.36,6.66,2.77,10.03,4.07c0.62,0.23,1.54,0.28,2.08-0.02
		c6.25-3.4,12.45-6.89,18.97-10.52c-2.53-1.06-4.81-2.01-7.09-2.97c-6.17-2.57-12.34-5.18-18.54-7.7c-0.6-0.24-1.47-0.22-2.07,0.02
		c-3.84,1.53-7.64,3.15-11.73,4.86c-1.97-4.31-3.93-8.59-5.9-12.86c0.1-0.1,0.2-0.2,0.3-0.3c3.3,1.37,6.61,2.75,9.92,4.1
		c2.85,1.17,5.7,3.19,8.57,3.2c2.79,0.01,5.6-2.03,8.39-3.19c5.49-2.28,10.97-4.56,16.45-6.85c0.4-0.16,0.78-0.37,1.53-0.73
		c-3.11-1.09-5.89-2.08-8.67-3.03c-7.42-2.56-14.84-5.12-22.28-7.63c-0.63-0.21-1.47-0.19-2.11,0.02c-5.12,1.7-10.22,3.47-15.56,5.3
		c-1.35-4.26-2.68-8.43-4.15-13.09c3.28,1.13,6.09,2.1,8.91,3.07c3.63,1.25,7.25,2.52,10.89,3.74c0.55,0.18,1.27,0.26,1.81,0.07
		c10.01-3.43,20-6.9,30-10.37c0.22-0.07,0.42-0.16,1.01-0.39c-0.81-0.32-1.3-0.54-1.81-0.71c-10.71-3.34-21.42-6.69-32.16-9.98
		c-0.82-0.25-1.84-0.23-2.66,0.01c-6.01,1.8-11.98,3.69-18.23,5.63c-0.92-4.32-1.81-8.56-2.77-13.05c0.6,0.1,1.02,0.12,1.42,0.24
		c6.44,2,12.86,4.06,19.32,6c0.98,0.29,2.18,0.33,3.15,0.04c10.62-3.25,21.22-6.58,31.81-9.9c0.52-0.16,1.03-0.41,1.91-0.76
		c-6.69-1.92-12.97-3.73-19.26-5.52c-6.04-1.72-12.08-3.45-18.14-5.1c-0.84-0.22-1.85-0.22-2.7,0.01
		c-6.33,1.72-12.64,3.53-19.14,5.36c-0.59-4.05-1.18-7.99-1.79-12.17c0.69,0.13,1.24,0.19,1.76,0.33
		c6.59,1.88,13.18,3.78,19.78,5.65c0.42,0.12,0.91,0.17,1.32,0.06c12.36-3.49,24.72-7.01,37.07-10.54c0.27-0.07,0.51-0.24,1.01-0.49
		c-9.03-2.84-17.82-5.59-27.15-8.51c3.05-1.02,5.57-2,8.16-2.69c5.73-1.51,11.47-2.97,17.24-4.26c3.74-0.83,7.43,0.2,11.01,1.16
		c6.22,1.68,12.37,3.57,18.56,5.38c-0.01,0.18-0.02,0.37-0.03,0.55c-8.8,2.76-17.6,5.52-26.9,8.44c3.65,1.06,6.81,2,9.99,2.9
		c9.34,2.65,18.67,5.3,28.02,7.9c0.61,0.17,1.35,0.15,1.96-0.02c6.99-1.95,13.98-3.95,21.25-6.02c-0.6,4.19-1.18,8.17-1.78,12.34
		c-5.8-1.66-11.43-3.23-17.04-4.88c-2.15-0.63-4.17-0.84-6.43-0.16c-11.54,3.42-23.13,6.66-34.71,9.95c-0.21,0.06-0.43,0.13-1,0.3
		c0.8,0.33,1.29,0.58,1.8,0.74c10.77,3.36,21.53,6.72,32.31,10.04c0.66,0.2,1.48,0.21,2.13,0.01c6.62-2.01,13.22-4.09,19.82-6.14
		c0.38-0.12,0.76-0.2,1.49-0.39c-0.94,4.5-1.83,8.77-2.75,13.17c-6.32-1.95-12.41-3.85-18.51-5.71c-0.58-0.17-1.29-0.3-1.83-0.13
		c-11.29,3.49-22.56,7.02-33.83,10.55c-0.1,0.02-0.17,0.13-0.49,0.39c1.21,0.46,2.29,0.91,3.39,1.29c8.96,3.1,17.91,6.21,26.89,9.24
		c0.85,0.28,1.95,0.24,2.8-0.05c6.28-2.11,12.54-4.32,19.31-6.67c-1.43,4.58-2.75,8.77-4.12,13.13c-5.19-1.8-10.16-3.57-15.16-5.21
		c-0.9-0.29-2.06-0.3-2.95,0c-9.64,3.25-19.25,6.6-28.87,9.93c-0.42,0.15-0.84,0.34-1.65,0.68c2.76,1.16,5.18,2.17,7.6,3.18
		c5.8,2.42,11.58,4.89,17.42,7.22c0.86,0.34,2.07,0.35,2.92,0.01c5.14-2.04,10.22-4.23,15.32-6.37c0.52-0.21,1.04-0.4,2.09-0.81
		c-2.13,4.68-4.04,8.91-6.04,13.31c-3.39-1.41-6.66-2.6-9.79-4.11c-2.1-1.02-3.88-0.98-6.02-0.04c-7.19,3.16-14.48,6.09-21.74,9.12
		C132.57,298.99,132.05,299.24,131.2,299.62"/>
	<path class="st0" d="M920.84,240.17c-7.17-1.29-13.63-0.34-15.11,6.57c-2.18,10.15-2.53,20.7-3.66,31.15
		c7.84,0.2,14.42-3.91,15.7-10.76C919.41,258.39,919.84,249.44,920.84,240.17 M945.91,238.39c-1.32,8.47-2.83,16.91-3.91,25.41
		c-1.52,11.89-2.66,23.83-4.1,35.74c-0.81,6.72-5.74,10.32-11.47,10.52c-17.03,0.59-34.1,0.21-51.06,0.21
		c-1.5-11.89-1.45-11.95,9.23-11.95h29.09c0.67-4.85,1.28-9.29,2.11-15.28c-8.41,9.67-18.58,7.36-28.12,7.12
		c-6.76-0.17-11.2-7.38-10.1-13.91c1.52-8.99,3.1-18.05,3.61-27.13c0.87-15.63,5.02-20.04,20.62-20.04c14.7,0,29.4,0,44.1,0V238.39z
		"/>
	<path class="st0" d="M606.61,277.81c0.67,0.56,1.33,1.12,2,1.68c3.8-2.35,8.82-3.88,11.09-7.26c2.67-3.98,3.33-9.52,4.15-14.5
		c0.98-5.85,1.2-11.83,1.75-17.82c-6.51-0.31-12.86-1.03-14.32,5.97C609.09,256.38,608.11,267.15,606.61,277.81 M651.08,229.09
		c-1.23,11.11-2.31,21.28-3.5,31.44c-1.11,9.51-2.35,19.01-3.53,28.52c-0.51,4.1-0.56,8.34-1.62,12.29
		c-1.54,5.78-6.49,8.63-11.72,8.78c-16.83,0.47-33.69,0.17-50.44,0.17c-1.79-10.98-1-11.97,9.08-11.97c9.62,0,19.24,0,29.13,0
		c0.71-4.83,1.35-9.25,2.26-15.47c-8.63,9.88-18.81,7.44-28.36,7.34c-5.41-0.05-10.61-6.09-9.99-11.74
		c1.42-13.17,3.13-26.32,5.42-39.36c1.15-6.55,6.59-9.75,12.78-9.88C617,228.86,633.41,229.09,651.08,229.09"/>
	<path class="st0" d="M848.14,240.03c-10.75-0.52-14.45,0.63-15.44,5.79c-2.01,10.56-3.14,21.3-4.73,32.65
		c6.32-0.56,12.02-1.64,13.5-6.67C844.45,261.66,845.92,251.06,848.14,240.03 M839.98,298.43c0.75-5.31,1.35-9.58,2.19-15.56
		c-8.63,9.86-18.88,7.63-28.41,7.2c-5.16-0.24-9.47-3.57-8.86-10.02c1.28-13.46,2.3-26.98,4.18-40.35
		c0.96-6.86,6.47-10.35,12.97-10.49c16.41-0.35,32.83-0.11,50.26-0.11c-0.62,7.17-1.07,13.84-1.81,20.47
		c-1.12,9.95-2.43,19.88-3.68,29.81c-0.93,7.33-1.42,14.77-2.97,21.98c-1.25,5.79-6.45,8.63-11.69,8.77
		c-16.84,0.46-33.7,0.17-51.49,0.17c0.54-4.2,1.01-7.75,1.54-11.86H839.98z"/>
	<path class="st0" d="M275.83,263.18c-0.72,6.46-1.9,12.9-2.03,19.37c-0.11,5.85-1.89,8.42-8.02,7.87
		c-5.42-0.49-10.92-0.1-17.04-0.1c1.01-9.49,1.9-18.49,2.95-27.46c1.09-9.31,2.41-18.59,3.49-27.9c0.61-5.22,0.62-10.53,1.55-15.67
		c0.33-1.8,2.52-4.51,4.02-4.63c6.72-0.5,13.5-0.22,21.06-0.22c-1.1,9.43-2.11,18.17-3.13,26.92c0.6,0.4,1.2,0.8,1.8,1.2
		c7.5-7.93,15.12-15.75,22.44-23.85c2.89-3.18,5.92-4.62,10.25-4.38c6.46,0.35,12.95,0.09,21.06,0.09
		c-5.35,5.17-9.52,9.1-13.58,13.14c-6.26,6.23-12.31,12.69-18.72,18.75c-3.02,2.86-3.68,5.24-1.57,9.06
		c6.17,11.17,11.97,22.56,18.48,34.91c-9.03,0-17.43,0.13-25.83-0.15c-1.16-0.04-2.59-1.94-3.33-3.29
		c-4.26-7.79-8.35-15.67-12.5-23.51C276.73,263.28,276.28,263.23,275.83,263.18"/>
	<path class="st0" d="M426.64,254.58c5.17-0.27,11.1,1.15,13.78-1.2c2.73-2.41,2.24-8.53,3.16-13.03
		C431.32,238.68,430.63,239.24,426.64,254.58 M463.2,273.02c-0.27,11.95-5.38,17.27-16.1,17.29c-11.84,0.04-23.69,0.02-35.53,0
		c-8.84-0.01-11.83-2.5-11.24-11.17c0.89-12.82,2.35-25.63,4.12-38.37c0.97-7.01,7.03-11.46,15.12-11.64
		c11.62-0.24,23.25-0.28,34.87,0c10.56,0.26,14.46,5.93,12.21,16.31c-0.74,3.4-0.32,7.03-0.72,10.52
		c-0.37,3.21-1.14,6.39-1.87,10.38h-19.2h-19.01c-0.66,4.11-1.23,7.68-1.86,11.61c5.56,0.22,11.1,2.12,14.81-4.03
		c0.45-0.75,2.3-0.87,3.5-0.88C449.07,272.98,455.85,273.02,463.2,273.02"/>
	<path class="st0" d="M757.74,253.79c13.23,1.9,13.23,1.9,16.17-13.53C761.42,238.67,759.43,240.33,757.74,253.79 M795.03,266.48
		h-38.41c-0.7,3.98-1.32,7.52-2.03,11.53c5.86,0.16,11.46,2.11,15.04-4.15c0.3-0.53,1.48-0.78,2.26-0.79
		c7.38-0.06,14.77-0.04,22.24-0.04c-2.13,14.5-5.18,17.28-18.24,17.29c-11.41,0-22.81,0.04-34.21-0.01
		c-7.93-0.03-11.06-2.71-10.49-10.59c0.93-13.05,2.35-26.07,4.14-39.02c0.97-7.01,7.07-11.41,15.17-11.57
		c11.62-0.23,23.25-0.28,34.87,0.01c10.44,0.26,13.85,5.2,11.84,15.62c-0.66,3.42-0.39,7.02-0.72,10.52
		C796.16,258.74,795.6,262.17,795.03,266.48"/>
	<path class="st0" d="M349.64,277.63c13.44,1.73,15.27,0.11,16.37-11.75c0.79-8.58,2.2-17.09,3.38-26.01
		c-5.4,0.24-12.26-2.36-14.07,4.8C352.61,255.44,351.46,266.61,349.64,277.63 M355.38,290.32c-6.36,0-12.72,0.07-19.08-0.01
		c-7.25-0.1-10.34-2.78-9.8-9.77c1.01-13.26,2.02-26.59,4.23-39.68c1.36-8.08,5.22-11.26,16.1-11.69c10.95-0.43,21.93-0.2,32.9-0.06
		c11.33,0.14,14.5,4.6,12.75,16c-1.75,11.39-2.51,22.94-4.22,34.33c-1.09,7.23-5.65,10.67-13.13,10.85
		C368.54,290.45,361.95,290.32,355.38,290.32"/>
	<path class="st0" d="M535.34,289.99h-23.96c1.93-16.16,3.83-32.09,5.73-48.02c-11.75,2.48-15.88,7.58-16.84,19.01
		c-0.81,9.7-2.52,19.32-3.85,29.11h-23.94c2.46-20.28,4.88-40.27,7.35-60.64h24.03c-0.32,2.74-0.62,5.41-1.09,9.57
		c7.39-7.73,15.19-10.37,24.36-10.04c11.38,0.42,15.43,4.54,14.05,15.98C539.4,259.88,537.33,274.75,535.34,289.99"/>
	<path class="st0" d="M699.67,247.71c-0.18-2.91-0.3-5.08-0.43-7.17c-11.41-2.06-16.37,2.43-14.96,13.84c8.24,0,16.55-0.02,24.86,0
		c9.99,0.02,13.53,4.54,11.58,14.37c-0.72,3.61-0.55,7.43-1.54,10.94c-2.08,7.43-6.55,10.58-14.28,10.62
		c-12.52,0.05-25.03-0.1-37.55,0.06c-5.52,0.08-9.27-2.31-11.07-7.35c-2.43-6.81-0.09-9.96,6.99-9.99c4.17-0.02,8.37-0.3,12.5,0.12
		c2.13,0.21,4.14,1.71,5.99,3.62c10.52,2.45,15.02-0.89,14.47-10.4h-20.98c-14.2-0.01-16.36-2.28-15.33-16.52
		c0.25-3.46,0.71-6.95,1.48-10.33c1.26-5.59,8.15-10.35,14.93-10.4c10.32-0.08,20.64-0.02,30.96-0.02
		c14.88,0,17.41,3.01,15.14,18.43c-0.96,0.07-2.01,0.19-3.06,0.19C713.03,247.72,706.68,247.71,699.67,247.71"/>
	<path class="st0" d="M577.63,229.39c-2.42,20.39-4.79,40.42-7.19,60.61h-24.05c2.41-20.37,4.77-40.34,7.17-60.61H577.63z"/>
</g>
</svg>
