<?xml version="1.0" encoding="utf-8"?>
<!-- Generator: Adobe Illustrator 27.8.1, SVG Export Plug-In . SVG Version: 6.00 Build 0)  -->
<svg version="1.1" id="Layer_1" xmlns="http://www.w3.org/2000/svg" xmlns:xlink="http://www.w3.org/1999/xlink" x="0px" y="0px"
	 viewBox="0 0 1000 500" style="enable-background:new 0 0 1000 500;" xml:space="preserve">
<style type="text/css">
	.st0{fill:#FFFFFF;}
</style>
<g>
	<rect x="188.05" y="380.42" class="st0" width="89.83" height="13.37"/>
	<rect x="443.02" y="382.78" class="st0" width="18.18" height="18.18"/>
	<rect x="479.37" y="382.78" class="st0" width="18.18" height="18.18"/>
	<rect x="515.73" y="382.78" class="st0" width="18.18" height="18.18"/>
	<g>
		<path class="st0" d="M360.46,107v91.6c0,19.37-15.7,35.07-35.07,35.07c-19.37,0-35.07-15.7-35.07-35.07V107h-30.69v92.58
			c0,36.32,29.45,65.76,65.76,65.76c36.32,0,65.76-29.44,65.76-65.76V107H360.46z"/>
		<path class="st0" d="M528.48,107v91.6c0,19.37-15.7,35.07-35.07,35.07c-19.37,0-35.07-15.7-35.07-35.07V107h-30.69v92.58
			c0,36.32,29.45,65.76,65.76,65.76c36.32,0,65.76-29.44,65.76-65.76V107H528.48z"/>
		<path class="st0" d="M853.97,107v91.6c0,19.37-15.7,35.07-35.07,35.07c-19.37,0-35.07-15.7-35.07-35.07V107h-30.69v92.58
			c0,36.32,29.45,65.76,65.76,65.76c36.32,0,65.76-29.44,65.76-65.76V107H853.97z"/>
		<rect x="101.01" y="107" class="st0" width="30.69" height="153.51"/>
		<polygon class="st0" points="234.57,260.5 187.96,183.77 234.46,107 196.5,107 159.31,168.41 75.81,168.41 75.81,199.09 
			159.27,199.09 196.56,260.5 		"/>
		<path class="st0" d="M723.98,260.5l-33.47-55.33c17.99-7.96,30.54-25.97,30.54-46.9c0-28.32-22.95-51.27-51.27-51.27h-41.49
			h-30.69v29.23V260.5h30.69v-95.37l57.69,95.37H723.98z M670.03,136.23c12.17,0,22.04,9.87,22.04,22.05
			c0,10.43-7.24,19.16-16.97,21.45l-26.31-43.5H670.03z"/>
		<rect x="188.05" y="304.92" class="st0" width="89.83" height="13.37"/>
		<rect x="188.05" y="330.09" class="st0" width="89.83" height="13.37"/>
		<rect x="188.05" y="355.26" class="st0" width="89.83" height="13.37"/>
		<path class="st0" d="M403.93,349.36c0-24.54-19.89-44.43-44.43-44.43c-24.54,0-44.44,19.89-44.44,44.43
			c0,24.54,19.89,44.43,44.44,44.43C384.04,393.79,403.93,373.9,403.93,349.36"/>
		<path class="st0" d="M616.55,307.14c23.28,0,42.21,18.94,42.21,42.21c0,23.28-18.94,42.22-42.21,42.22
			c-23.28,0-42.21-18.94-42.21-42.22C574.34,326.08,593.27,307.14,616.55,307.14 M616.55,304.92c-24.54,0-44.43,19.89-44.43,44.43
			c0,24.54,19.89,44.44,44.43,44.44c24.54,0,44.43-19.89,44.43-44.44C660.98,324.81,641.09,304.92,616.55,304.92"/>
		<rect x="443.02" y="310.08" class="st0" width="18.18" height="18.18"/>
		<rect x="479.37" y="310.08" class="st0" width="18.18" height="18.18"/>
		<rect x="515.73" y="310.08" class="st0" width="18.18" height="18.18"/>
		<rect x="461.2" y="328.26" class="st0" width="18.18" height="18.18"/>
		<rect x="497.55" y="328.26" class="st0" width="18.18" height="18.18"/>
		<rect x="443.02" y="346.43" class="st0" width="18.18" height="18.18"/>
		<rect x="479.37" y="346.43" class="st0" width="18.18" height="18.18"/>
		<rect x="515.73" y="346.43" class="st0" width="18.18" height="18.18"/>
		<rect x="461.2" y="364.61" class="st0" width="18.18" height="18.18"/>
		<rect x="497.55" y="364.61" class="st0" width="18.18" height="18.18"/>
		<rect x="683.89" y="310.08" class="st0" width="18.18" height="18.18"/>
		<rect x="792.95" y="310.08" class="st0" width="18.18" height="18.18"/>
		<rect x="702.07" y="328.26" class="st0" width="18.18" height="18.18"/>
		<rect x="774.77" y="328.26" class="st0" width="18.18" height="18.18"/>
		<rect x="720.25" y="346.43" class="st0" width="18.18" height="18.18"/>
		<rect x="756.6" y="346.43" class="st0" width="18.18" height="18.18"/>
		<rect x="738.42" y="364.61" class="st0" width="18.18" height="18.18"/>
	</g>
</g>
</svg>
