<?xml version="1.0" encoding="utf-8"?>
<!-- Generator: Adobe Illustrator 27.8.1, SVG Export Plug-In . SVG Version: 6.00 Build 0)  -->
<svg version="1.1" id="Layer_1" xmlns="http://www.w3.org/2000/svg" xmlns:xlink="http://www.w3.org/1999/xlink" x="0px" y="0px"
	 viewBox="0 0 1000 500" style="enable-background:new 0 0 1000 500;" xml:space="preserve">
<style type="text/css">
	.st0{fill:#FFFFFF;}
</style>
<g>
	<path class="st0" d="M843.04,257.62l-69.94-69.94l-69.94,69.94c-10.59,10.59-10.59,27.75,0,38.34l69.94,69.94l69.94-69.94
		C853.63,285.37,853.63,268.21,843.04,257.62 M773.1,325.8c-4.15-9.19-8.66-17.82-13.67-25.68c2.36-12.06,7.11-23.89,13.64-35.55
		l0.03-0.06l0.03,0.06c6.53,11.66,11.28,23.49,13.64,35.55C781.76,307.99,777.25,316.61,773.1,325.8 M729.92,240.65l10.95-10.95
		c11.86,8.42,20,17.11,27.75,27.73c-3.33,4.87-5.02,7.59-7.44,11.93C751.07,256.03,740.26,247.55,729.92,240.65 M757.16,277.65
		c-1.93,4.3-4.6,11.9-4.78,12.94c-7.44-9.22-14.56-16.05-23.14-23.29c-5.05-4.26-9.76-7.27-15.24-10.73l12.57-12.57
		C739.33,252.72,749.09,264.84,757.16,277.65 M785.02,269.37c-2.41-4.34-4.11-7.07-7.44-11.93c7.75-10.63,15.89-19.32,27.75-27.73
		l10.95,10.95C805.94,247.55,795.12,256.03,785.02,269.37 M819.63,244.01l12.57,12.57c-5.47,3.46-10.19,6.48-15.24,10.73
		c-8.58,7.23-15.7,14.07-23.14,23.29c-0.18-1.04-2.85-8.64-4.78-12.94C797.1,264.84,806.87,252.72,819.63,244.01 M801.96,226.34
		c-10.61,6.98-21.61,15.96-28.87,25.26c-7.25-9.3-18.25-18.29-28.87-25.26l28.87-28.86L801.96,226.34z M708.28,262.3l2.5-2.5
		c26.68,18.19,52.65,52.41,59.9,93.88l-62.41-62.41C700.27,283.28,700.27,270.3,708.28,262.3 M837.92,291.27l-62.41,62.41
		c7.25-41.48,33.22-75.69,59.9-93.88l2.5,2.5C845.92,270.3,845.92,283.28,837.92,291.27"/>
	<path class="st0" d="M424.11,266.05c-13.09-1.08-23.41-12.16-23.41-25.63v-0.64l1.99-0.45l0.02,0.46
		c0.5,12.97,10.29,18.87,19.17,18.87h0.03c12.58-0.01,18.66-9.79,18.99-18.86v-32.16h10.82v32.14
		C451.73,255,439.27,267.31,424.11,266.05 M603.19,261.11c0-2.58-1.71-5.41-5.47-5.53h-0.02c-3.76,0.11-5.47,2.95-5.47,5.53
		c0,2.58,1.71,5.41,5.49,5.53C601.48,266.52,603.19,263.69,603.19,261.11 M585.27,266.63c3.76-0.12,5.47-2.95,5.47-5.53
		c0-2.58-1.71-5.41-5.47-5.53h-0.02c-3.76,0.11-5.47,2.95-5.47,5.53C579.77,263.69,581.49,266.52,585.27,266.63 M421.68,240.12
		L421.68,240.12h0.02c3.76-0.12,5.47-2.95,5.47-5.53c0-2.58-1.71-5.41-5.49-5.53c-3.76,0.12-5.47,2.95-5.47,5.53
		C416.2,237.17,417.92,240,421.68,240.12 M555.32,207.36L544.5,212v28.34c0,0.02-0.07,2.28-1.5,3.58c-0.78,0.69-1.83,1-3.12,0.89
		c-2.69-0.22-4.48-1-5.56-1.68c0.6-1.34,0.91-2.97,0.91-4.86v-31.03l-10.82,4.88v27.03c0,1.28-0.31,2.45-0.93,3.5
		c-0.58,0.99-1.69,1.47-3.37,1.47c-0.09,0-3.48-0.01-6.53-0.01V206l-10.82,4.68v32.53h-35.61c0,0-7.2-0.25-9.83-2.58l-0.41-0.36
		l-3.86,9.13h67.46c3.36,0.31,7.18,0.02,10.13-2.05l1.83,0.91l-0.01-0.03c2.33,1.02,5.22,1.55,8.37,1.55c1.71,0,3.51-0.16,5.33-0.47
		c3.71-0.62,6.34-2.51,7.83-5.61c0.78-1.48,1.18-3.36,1.35-5.59V207.36z M225.87,257.12c-3.76,0.12-5.47,2.95-5.47,5.53
		c0,2.58,1.71,5.41,5.5,5.53c3.76-0.12,5.47-2.95,5.47-5.53s-1.71-5.41-5.47-5.53H225.87z M213.41,257.12
		c-3.76,0.12-5.47,2.95-5.47,5.53c0,2.58,1.71,5.41,5.5,5.53c3.76-0.12,5.47-2.95,5.47-5.53s-1.71-5.41-5.47-5.53H213.41z
		 M368.89,201.14c2.58,0,5.41-1.71,5.53-5.47v-0.03c-0.12-3.76-2.95-5.47-5.53-5.47c-2.58,0-5.41,1.71-5.53,5.49
		C363.48,199.43,366.31,201.15,368.89,201.14 M383.7,249.39h-81.95v-60.3h10.82v54.11h60.3v-1.94c-7.46,1.29-17.5-1.81-21.1-10.26
		c-3.04-6.56-1.37-13.67,3.87-18.59c3.81-4.15,10.15-6.25,16.11-5.34c5.23,0.8,9.26,3.68,11.34,8.1c0.98,2,1.43,5.15,0.6,7.7V249.39
		z M372.3,212.77c-0.42-1.43-1.58-2.04-2.48-2.31c-0.53-0.16-1.11-0.24-1.68-0.24c-1.31,0-2.63,0.39-3.46,1.09
		c-2.63,2.2-2.83,6.09-3,9.51l-0.06,1.02l0.22,6.78c0.22,3.4,1.52,6.17,3.65,7.79c1.93,1.47,4.47,1.96,7.38,1.42v-14.7
		c-0.04-0.85-0.02-1.9,0-3.02C372.93,217.5,372.99,214.53,372.3,212.77 M191.79,339.91c-1.14,1.04-2.37,1.78-3.65,2.21l-0.03,0.01
		c-1.86,0.81-12.62,0.73-16.09,0.67c-1.27-0.02-2.4-0.04-3.24-0.02v-60.93h-10.82v66.49h38.64l-4.45-8.76L191.79,339.91z
		 M273.33,321.22l-22.54-39.35h-11.53l25.38,46.54v36.95h10.82v-36.41l15.63-30.07h-6.17L273.33,321.22z M555.32,365.36h10.82
		v-74.22h-10.82V365.36z M532.13,348.35h10.82v-57.21h-10.82V348.35z M360.19,305.06h0.02c3.12,0.31,6.05,1.49,8.25,3.63l0.4,0.39
		l4.07-10.21h-34.08v49.48h32.57l-3.65-10.27l-0.4,0.44c-2.14,2.35-4.97,3.65-7.98,3.65h-0.01h-9.72V326.7h13.91v-4.64h-13.91
		v-17.01H360.19z M413.08,325.4l-16.87-25.46l-0.11,0.47h-13.72l2.87,4.14v60.8h6.19v-53.52l24.76,36.51h3.07v-47.93h-6.18V325.4z
		 M484.77,298.87L473.15,329l-16.55-37.86h-13.44l25.15,57.21h4.28l19.31-49.48H484.77z M636.31,333.27l-9.34-22.03h-12.13
		l15.45,36.78l-7.41,17.34h5.97l23.05-54.12h-5.84L636.31,333.27z M607.97,320.61c1.26,2.66,1.51,7.93,1.47,10.35l-0.01,0.38
		l-0.38,0c-12.67,0.08-19.82,3.75-21.98,5.07c0.28,3.31,1.55,5.74,3.76,7.22c2.43,1.47,5.96,1.59,9.18,0.3
		c3.05-1.22,5.3-3.48,6.02-6.06l0.1-0.37l2.91,0.78l-0.1,0.37c-0.95,3.65-3.21,6.5-6.54,8.26c-2.41,1.28-5.33,1.92-8.35,1.92
		c-2.43,0-4.91-0.42-7.27-1.26c-5.8-1.8-10.13-6.52-11.57-12.63c-1.51-6.36,0.33-12.79,4.92-17.21c3.83-4.19,10.23-6.31,16.29-5.39
		C601.67,313.16,605.88,316.17,607.97,320.61 M597.47,317.03c-0.37-1.32-1.43-1.88-2.25-2.13c-0.48-0.15-1-0.21-1.52-0.21
		c-1.2,0-2.42,0.37-3.17,1.02c-2.51,2.19-2.71,5.97-2.87,9.31c-0.02,0.48-0.05,0.94-0.08,1.39v1.43c-0.01,1.48-0.01,3.42,0.04,4.73
		c5.35-3.95,8.86-5.2,10.4-5.59c-0.03-0.8-0.01-1.73,0.01-2.72C598.08,321.72,598.14,318.82,597.47,317.03 M323.47,323.12
		c-3.24-2.48-7.34-3.7-11.31-4.89c-1.2-0.36-2.44-0.73-3.61-1.12c-2.93-1-6.26-2.14-7.6-4.84c-0.41-1.15-0.62-3.42,2.65-5.71
		c2.44-1.7,6.09-2.25,9.3-1.38c3.12,0.84,5.56,2.92,6.87,5.84l0.1,0.23h4.71l-0.1-0.45c-1.52-7.28-9.52-10.01-10.32-10.08
		c-4.93-1.19-10.79,0.1-14.95,3.28c-3.44,2.64-5.35,6.25-5.36,10.15c-0.02,0.25-0.4,6.28,5.19,10.72c2.48,1.97,5.59,2.92,8.67,3.85
		c0.84,0.28,1.76,0.54,2.74,0.81c4.5,1.24,9.59,2.64,9.8,7.39c0,0.01-0.02,0.92-0.36,1.67c-1.55,3.13-5.4,5.1-10.05,5.14h-0.44
		c-3.96,0-8.94-1.57-11.23-5.99l-0.1-0.2l-5.72-0.01l0.26,0.62c0.9,2.28,4.64,9.8,15.2,10.98c0.66,0.07,1.32,0.1,1.98,0.1
		c4.78,0,9.55-1.76,13.08-4.88c3.44-3.05,5.33-7.11,5.32-11.44C328.2,326.42,323.65,323.24,323.47,323.12 M518.28,314.07l-0.02-0.01
		c-4.43-2.75-14.14-3.43-20.02-0.19c-3.1,1.71-4.75,4.31-4.77,7.5l0,0.18l10.83,3.02v-5.35c0-1.17,0.3-1.93,0.94-2.32
		c0.98-0.67,2.79-0.9,4.2-0.53c0.58,0.15,1.33,0.47,1.68,1.16c0.98,1.48,0.94,3.73,0.91,5.53l0,0.25l0,0.01
		c0.11,2.49-1.33,3.43-4.23,4.41c-0.99,0.4-2.25,0.75-3.58,1.13c-4.66,1.31-10.46,2.94-11.84,8.2c-0.82,3.93,0.48,7.19,3.67,9.19
		c4.12,2.58,10.93,2.56,14.3-0.04l0.15-0.11v-2.24l-1.29,0.62c-1.06,0.56-2.82,0.45-3.63-0.22c-2.34-1.97-2.2-6.52-1.22-8.9
		c1.06-2.31,3.24-3.29,5.55-4.33c0.41-0.18,0.82-0.37,1.24-0.57c0.34-0.17,0.63-0.33,0.88-0.49v17.36l10.82,4.88v-28.6
		C522.88,319.37,521.34,316.15,518.28,314.07 M217.12,298.87l3.17,7.41l-16.86,42.06h6.01l0.29-0.74
		c7.13-11.1,15.7-14.92,19.05-16.05l0.41-0.14l-0.81-1.91l-0.3,0.05c-5.59,0.86-9.96,2.75-12.86,4.37l8.18-20.36l14.77,34.77h12.3
		l-21.1-49.48H217.12z M249.18,224.16l-0.58-0.38c0.07-3.66,0.47-8.81,3.18-11.28c1.12-1.02,5.13-1.46,5.13-1.46v37.7
		c0,0.08,0.14,2.13,0.22,2.58c1.63,8.79,9.2,15.45,18.34,15.45c9.44,0,17.2-7.09,18.48-16.31c0.03-0.2,0.07-2.33,0.07-2.76v-1.97
		v-58.19h-12.37l-0.02,60.1c0.01,0.46-0.04,3.29-0.08,3.68c-0.57,5.12-4.75,9.07-9.87,9.07c-5.04,0-9.34-3.8-10.01-8.8
		c-0.06-0.46-0.12-2.78-0.12-2.86v-41.09h-4.68c-10.2-0.13-19.56,8.44-20.05,18.29v18.81h-64.07c0,0-7.19-1.84-9.83-4.17l-0.37-0.32
		l-4.99,9.14h91.63V224.16z M651.19,247.68v-1.97v-58.16h-10.82l-0.02,60.1c0.01,0.46-0.03,3.3-0.08,3.68
		c-0.58,5.12-4.77,9.07-9.9,9.07c-5.05,0-9.37-3.8-10.04-8.8c-0.02-0.14-0.04-0.47-0.06-0.84v-43.48l-10.82,5.13v32.35h-40.5
		c-3.79-0.25-7.19-1.49-9.83-3.82l-0.4-0.36l-3.88,8.82h58.8c0.05,0.66,0.12,1.61,0.18,1.9c1.65,8.79,9.32,15.44,18.58,15.44
		c9.56,0,17.42-7.09,18.72-16.3C651.15,250.24,651.19,248.11,651.19,247.68"/>
</g>
</svg>
