<?xml version="1.0" encoding="utf-8"?>
<!-- Generator: Adobe Illustrator 27.8.1, SVG Export Plug-In . SVG Version: 6.00 Build 0)  -->
<svg version="1.1" id="Layer_1" xmlns="http://www.w3.org/2000/svg" xmlns:xlink="http://www.w3.org/1999/xlink" x="0px" y="0px"
	 viewBox="0 0 1000 500" style="enable-background:new 0 0 1000 500;" xml:space="preserve">
<style type="text/css">
	.st0{fill:#FFFFFF;}
</style>
<g>
	<path class="st0" d="M221.53,306.49h62.97c41.71-21.5,71.73-29.87,71.73-29.87v-36.6h-2.93c0,0-0.24,4-1.47,5.49
		c0,0-0.94,1.34-2.93,1.34l-0.21,0.01c0,0-32.42,10.4-72.41,30.29h-11.33v-91.26c0,0-0.96-4.18,6.83-4.39v-2.93h-50.27v2.93
		c0,0,6.83-0.32,6.83,4.39v113.71c0,0,0.92,4.17-6.83,4.39V306.49z"/>
	<path class="st0" d="M393.81,260.21c0,2.25-0.64,3.33-0.64,3.33c-1.08,2-6.19,2.14-6.19,2.14v2.93c0,0,25.64-6.78,50.27-8.3v-2.93
		c0,0-4.08-0.3-5.5-1.38c-1.42-1.08-1.34-3.05-1.34-3.65v-68c0,0,0.23-1.92,1.57-2.64c0,0,1.31-0.84,5.26-1.24v-2.93h-50.27v2.93
		c0,0,3.33,0.35,4.78,1c0,0,2.05,0.68,2.05,3.4V260.21z"/>
	<path class="st0" d="M544.96,230.53c16.96,1.11,46.64,5.97,46.64,5.97l0.11,0.02c0,0,2.28,0.19,3.31-1.64c0,0,0.92-1.59,1.08-3.73
		h2.93v34.29c0,0-65.33-12.58-132.05-7.44v-2.69l60.72-49.72h-48.88c0,0-2.06-0.07-2.93,1.1c-0.87,1.17-1.14,2.39-1.46,4.51h-2.93
		v-34.4h127.62v2.93L544.96,230.53z"/>
	<path class="st0" d="M694.93,262.42l-22.58-0.01l-3.65,10.65c0,0-3.31,6.82,2.57,10.2l-1.05,2.34
		c-22.75-11.04-44.26-15.03-44.26-15.03l0.53-2.82c0,0,5.68,0.6,9.15-7.55l30.67-73.76c0,0,2.41-4.95-3.75-4.95v-2.93h34.16h34.16
		v2.93c-6.16,0-3.75,4.95-3.75,4.95l45.6,112.49c2.55,5.82,5.73,5.06,5.73,5.06v2.51h-48.07v-2.51c6.76-0.09,3.92-4.83,3.92-4.83
		L721.1,262.4l-22.58,0.01H694.93z M696.72,201.49L680,242.52h14.54h18.9L696.72,201.49"/>
	<path class="st0" d="M379.74,312.02h9.13c3.78,0,5.07,1.1,5.07,2.8c0,1.17-0.64,2.01-1.84,2.48c1.83,0.38,2.71,1.2,2.71,2.6
		c0,2.18-1.77,3.11-5.14,3.11h-9.92V312.02z M382.63,314.3v2.13h6.29c1.32,0,1.98-0.26,1.98-1.06c0-0.78-0.56-1.07-2.07-1.07H382.63
		z M382.63,318.49v2.24h7.35c1.17,0,1.78-0.35,1.78-1.14c0-0.91-0.81-1.1-2.15-1.1H382.63z"/>
	<polygon class="st0" points="396.63,312.02 410.09,312.02 410.09,314.26 399.53,314.26 399.53,316.42 409.42,316.42 409.42,318.6 
		399.53,318.6 399.53,320.77 410.09,320.77 410.09,323.01 396.63,323.01 	"/>
	<polygon class="st0" points="410.85,312.08 410.89,312.02 414.2,312.02 418.75,317.18 423.31,312.02 426.6,312.02 426.65,312.08 
		420.19,319.24 420.19,323.01 417.3,323.01 417.3,319.24 	"/>
	<path class="st0" d="M435.17,319.43h-4.41v3.58h-2.89v-10.99h8.46c3.68,0,5.74,1.31,5.74,3.71c0,1.9-1.28,3.12-3.62,3.53l3.97,3.68
		l-0.05,0.06h-3.52L435.17,319.43z M430.75,314.31v2.85h5.5c1.93,0,2.92-0.3,2.92-1.42c0-1.13-0.99-1.43-2.92-1.43H430.75z"/>
	<path class="st0" d="M443.48,317.46c0-3.62,3.18-5.74,8.57-5.74c5.39,0,8.57,2.12,8.57,5.74c0,3.62-3.18,5.74-8.57,5.74
		C446.66,323.19,443.48,321.08,443.48,317.46 M457.72,317.46c0-2.16-2.01-3.46-5.68-3.46c-3.67,0-5.68,1.3-5.68,3.46
		c0,2.16,2.01,3.46,5.68,3.46C455.71,320.91,457.72,319.62,457.72,317.46"/>
	<path class="st0" d="M462.44,317.06v-5.04h2.89v5.25c0,2.42,1.31,3.64,3.94,3.64s3.94-1.22,3.94-3.64v-5.25h2.89v5.04
		c0,4.26-2.42,6.13-6.84,6.13C464.86,323.19,462.44,321.32,462.44,317.06"/>
	<polygon class="st0" points="486.97,314.26 486.97,323.01 484.08,323.01 484.08,314.26 477.63,314.26 477.63,312.02 493.44,312.02 
		493.44,314.26 	"/>
	<polygon class="st0" points="506.98,318.66 497.85,318.66 497.85,323.01 494.96,323.01 494.96,312.02 497.85,312.02 497.85,316.38 
		506.98,316.38 506.98,312.02 509.87,312.02 509.87,323.01 506.98,323.01 	"/>
	<path class="st0" d="M517.21,322.74v-2.41l0.09-0.05c0.79,0.4,1.51,0.56,2.33,0.56c2.1,0,3-1.11,3-3.29v-5.54h2.89v5.31
		c0,3.74-1.78,5.86-5.74,5.86C518.49,323.19,517.69,322.97,517.21,322.74"/>
	<polygon class="st0" points="527.95,312.02 541.41,312.02 541.41,314.26 530.84,314.26 530.84,316.42 540.74,316.42 540.74,318.6 
		530.84,318.6 530.84,320.77 541.41,320.77 541.41,323.01 527.95,323.01 	"/>
	<polygon class="st0" points="556.71,314.26 556.71,323.01 553.82,323.01 553.82,314.26 547.37,314.26 547.37,312.02 563.18,312.02 
		563.18,314.26 	"/>
	<polygon class="st0" points="564.25,317.41 565.11,314.72 564.26,314.72 564.26,312.02 567.29,312.02 567.29,314.23 565.26,317.41 
			"/>
	<path class="st0" d="M578.39,320.8h-7.76l-1.37,2.21h-3.11l7-10.99h2.98l6.65,10.99h-3.1L578.39,320.8z M574.61,314.35l-2.62,4.22
		h5.08L574.61,314.35z"/>
	<rect x="584" y="312.02" class="st0" width="2.89" height="10.99"/>
	<polygon class="st0" points="592.13,315.87 592.13,323.01 589.32,323.01 589.32,312.02 592.64,312.02 597.89,320.42 603.15,312.02 
		606.46,312.02 606.46,323.01 603.66,323.01 603.66,315.87 599.25,323.01 596.54,323.01 	"/>
	<polygon class="st0" points="608.9,312.02 622.35,312.02 622.35,314.26 611.79,314.26 611.79,316.42 621.68,316.42 621.68,318.6 
		611.79,318.6 611.79,320.77 622.35,320.77 622.35,323.01 608.9,323.01 	"/>
</g>
</svg>
