<?xml version="1.0" encoding="utf-8"?>
<!-- Generator: Adobe Illustrator 27.8.1, SVG Export Plug-In . SVG Version: 6.00 Build 0)  -->
<svg version="1.1" id="Layer_1" xmlns="http://www.w3.org/2000/svg" xmlns:xlink="http://www.w3.org/1999/xlink" x="0px" y="0px"
	 viewBox="0 0 1000 500" style="enable-background:new 0 0 1000 500;" xml:space="preserve">
<style type="text/css">
	.st0{fill:#FFFFFF;}
</style>
<g>
	<path class="st0" d="M201.56,304.99l-4.8-43.5c-0.3-3.35-0.6-6.69-0.9-10.01c-0.3-3.33-0.55-6.66-0.75-10.01
		c-0.45,3.15-1.08,6.48-1.91,10.01c-0.83,3.52-1.84,7.29-3.04,11.28l-12.6,42.23h-23.47l-12.6-42.23c-1.25-4-2.28-7.76-3.07-11.28
		c-0.8-3.53-1.43-6.86-1.88-10.01c-0.25,3.4-0.51,6.75-0.79,10.05c-0.27,3.3-0.56,6.62-0.86,9.98l-4.8,43.5h-38.7l18.75-109.8h40.72
		l7.8,27.15c0.25,0.85,0.62,2.12,1.13,3.83c3.3,11.45,5.32,20.88,6.08,28.27h0.67c0.6-4.65,1.5-9.6,2.7-14.85
		c1.2-5.25,2.8-11.15,4.8-17.7l8.17-26.7h40.65l17.4,109.8H201.56z"/>
	<path class="st0" d="M251.13,304.99v-109.8h49.65c14.4,0,25.4,3.18,33,9.53c7.6,6.35,11.4,15.5,11.4,27.45
		c0,7.8-1.92,14.22-5.74,19.28c-3.82,5.05-8.99,8-15.49,8.85l29.33,44.7h-44.25l-19.2-36.22v36.22H251.13z M289.83,223.47v21.45
		h6.15c3.75,0,6.64-0.91,8.66-2.74c2.03-1.82,3.04-4.43,3.04-7.84c0-3.5-1.01-6.19-3.04-8.06c-2.02-1.87-4.91-2.81-8.66-2.81H289.83
		z"/>
	<path class="st0" d="M494.5,238.77c-3.6-3.45-7.28-6.03-11.03-7.73c-3.75-1.7-7.7-2.55-11.85-2.55c-6.45,0-11.64,1.99-15.56,5.97
		c-3.93,3.97-5.89,9.26-5.89,15.86c0,6.45,1.87,11.6,5.62,15.45c3.75,3.86,8.78,5.78,15.08,5.78c3.8,0,7.66-0.81,11.59-2.44
		c3.92-1.62,8.21-4.21,12.86-7.76l-1.27,41.33c-4.3,1.75-8.6,3.06-12.9,3.93c-4.3,0.88-8.6,1.31-12.9,1.31
		c-5.35,0-10.5-0.6-15.45-1.8c-4.95-1.2-9.43-2.9-13.43-5.1c-9.7-5.6-17.04-12.68-22.01-21.22c-4.98-8.55-7.46-18.37-7.46-29.48
		c0-8.2,1.41-15.8,4.23-22.8c2.83-7,6.94-13.18,12.34-18.53c5.45-5.4,11.76-9.49,18.94-12.26c7.17-2.78,14.94-4.16,23.28-4.16
		c4.45,0,8.84,0.46,13.17,1.39c4.32,0.92,8.53,2.32,12.64,4.16V238.77z"/>
	<polygon class="st0" points="511.9,304.99 511.9,195.19 551.42,195.19 551.42,231.72 575.5,231.72 575.5,195.19 614.95,195.19 
		614.95,304.99 575.5,304.99 575.5,266.29 551.42,266.29 551.42,304.99 	"/>
	<path class="st0" d="M749.27,250.32c0,8.05-1.42,15.54-4.27,22.46c-2.85,6.93-7.02,13.12-12.52,18.56
		c-5.5,5.35-11.84,9.45-19.02,12.3c-7.17,2.85-14.81,4.27-22.91,4.27c-8.2,0-15.88-1.42-23.03-4.27c-7.15-2.85-13.5-7-19.04-12.45
		c-5.45-5.3-9.58-11.4-12.38-18.3c-2.8-6.9-4.2-14.42-4.2-22.57s1.4-15.7,4.2-22.65c2.8-6.94,6.93-13.07,12.38-18.37
		c5.5-5.4,11.82-9.51,18.97-12.33c7.15-2.83,14.85-4.24,23.1-4.24c8.25,0,15.95,1.41,23.1,4.24c7.15,2.82,13.5,6.93,19.05,12.33
		c5.4,5.36,9.51,11.5,12.33,18.45C747.86,234.69,749.27,242.22,749.27,250.32 M690.55,271.02c5.55,0,10.01-1.89,13.39-5.66
		c3.37-3.77,5.06-8.79,5.06-15.04c0-6.3-1.69-11.37-5.06-15.19c-3.38-3.83-7.84-5.74-13.39-5.74c-5.55,0-10.02,1.93-13.43,5.78
		c-3.4,3.85-5.1,8.9-5.1,15.15c0,6.25,1.7,11.26,5.1,15.04C680.53,269.13,685,271.02,690.55,271.02"/>
	<path class="st0" d="M784.15,304.99l-32.1-109.8h39.6l8.63,48.37c0.75,4.25,1.32,8.14,1.72,11.66c0.4,3.53,0.65,6.84,0.75,9.94h0.9
		c0.1-4.35,0.88-10.07,2.33-17.17c0.1-0.65,0.2-1.18,0.3-1.57l10.43-51.22h27.82l10.42,51.3c0.05,0.3,0.15,0.8,0.3,1.5
		c1.45,7.15,2.22,12.87,2.33,17.17h0.9c0.1-3.1,0.35-6.41,0.76-9.94c0.39-3.52,0.97-7.41,1.72-11.66l8.62-48.37h39.6l-32.1,109.8
		h-34.43l-8.25-37.42c-0.15-0.65-0.35-1.55-0.6-2.7c-1.5-6.7-2.33-11.85-2.48-15.45h-1.42c-0.15,3.6-0.98,8.78-2.48,15.53
		c-0.25,1.1-0.45,1.98-0.6,2.62l-8.25,37.42H784.15z"/>
</g>
</svg>
