<?xml version="1.0" encoding="utf-8"?>
<!-- Generator: Adobe Illustrator 27.8.1, SVG Export Plug-In . SVG Version: 6.00 Build 0)  -->
<svg version="1.1" id="Layer_1" xmlns="http://www.w3.org/2000/svg" xmlns:xlink="http://www.w3.org/1999/xlink" x="0px" y="0px"
	 viewBox="0 0 1000 500" style="enable-background:new 0 0 1000 500;" xml:space="preserve">
<style type="text/css">
	.st0{fill:#FFFFFF;}
</style>
<g>
	<path class="st0" d="M309.57,325.18h13.43c1.9,0,3.57,0.26,5.03,0.79c1.47,0.53,2.69,1.27,3.67,2.22c0.8,0.83,1.42,1.79,1.85,2.89
		c0.42,1.09,0.65,2.29,0.65,3.62v0.08c0,2.46-0.68,4.46-2.01,5.96c-1.33,1.5-3.06,2.56-5.19,3.16l8.14,11.43h-6.24l-7.4-10.52h-0.09
		h-6.54v10.52h-5.3V325.18z M322.61,340.07c1.89,0,3.4-0.44,4.52-1.35c1.12-0.9,1.68-2.11,1.68-3.65V335c0-1.63-0.55-2.85-1.63-3.69
		c-1.1-0.85-2.63-1.26-4.61-1.26h-7.7v10.03H322.61z"/>
	<rect x="384.46" y="325.18" class="st0" width="5.3" height="30.14"/>
	<polygon class="st0" points="450.15,343.44 438.19,325.18 444.42,325.18 452.84,338.52 461.35,325.18 467.41,325.18 455.45,343.31 
		455.45,355.32 450.15,355.32 	"/>
	<path class="st0" d="M521.52,324.97h4.91l13.26,30.35h-5.6l-3.06-7.28h-14.24l-3.09,7.28h-5.43L521.52,324.97z M529.09,343.31
		l-5.21-12.06l-5.16,12.06H529.09z"/>
	<path class="st0" d="M588.33,325.18h11.23c2.39,0,4.54,0.39,6.49,1.14c1.96,0.76,3.64,1.81,5.07,3.16
		c1.42,1.35,2.51,2.94,3.29,4.75c0.77,1.82,1.15,3.8,1.15,5.92v0.09c0,2.12-0.38,4.11-1.15,5.94c-0.78,1.84-1.88,3.42-3.29,4.78
		c-1.43,1.35-3.11,2.4-5.07,3.18c-1.95,0.77-4.11,1.17-6.49,1.17h-11.23V325.18z M599.56,350.45c1.59,0,3.01-0.25,4.31-0.76
		c1.29-0.49,2.39-1.2,3.29-2.1c0.9-0.89,1.61-1.97,2.1-3.2c0.5-1.26,0.76-2.6,0.76-4.07v-0.08c0-1.45-0.26-2.81-0.76-4.08
		c-0.49-1.25-1.2-2.33-2.1-3.23c-0.91-0.9-2.01-1.61-3.29-2.13c-1.3-0.52-2.73-0.77-4.31-0.77h-5.94v20.41H599.56z"/>
	<polygon class="st0" points="665.46,325.18 670.76,325.18 670.76,337.75 685.14,337.75 685.14,325.18 690.43,325.18 690.43,355.32 
		685.14,355.32 685.14,342.61 670.76,342.61 670.76,355.32 665.46,355.32 	"/>
	<path class="st0" d="M360.99,259.68l10.13-57.45l-7.34-45.39c-1.19-7.16-7.98-12.05-15.09-10.94l-39.03,6.42l-63.06,10.27
		c6.51,2.67,10.46,9.76,9.24,16.79l-11.3,64.29l6.23,38.54c1.19,7.19,7.96,12.11,15.15,10.9l43.74-7.1l59.97-9.76
		C363.46,273.33,359.81,266.53,360.99,259.68 M339.04,252.84l-9.29-12.5l-20.09,3.48l-15.74,2.84l-4.53,14.99l-14.58,2.61
		l23.23-78.01c0.34-1.66,1.38-3.12,3.22-3.48c1.9-0.33,2.99,0.45,4.25,2.15l4.15,5.57l44.01,59.83L339.04,252.84z"/>
	<polygon class="st0" points="305.64,207.49 298.4,232.33 309.66,230.32 320.9,228.3 309.66,212.98 	"/>
	<path class="st0" d="M891.95,259.2l-19.46-103.75c-1.36-7.17-8.28-11.88-15.37-10.54l-38.35,7.23l-58.86,11.16
		c5.64,3.09,8.85,9.63,7.68,16.08l-11.84,67.5l6.93,36.75c1.35,7.15,8.24,11.89,15.34,10.5l40.75-7.66l62.71-11.84
		C888.6,273.27,893.37,266.33,891.95,259.2 M835.46,252.58c-4.56,3.52-10.54,5.56-16.69,5.43c-2.41,0-4.91-0.34-7.34-1.05
		c-3.77-1.09-7.42-3.11-10.8-6.02l6.84-10.24l1,0.68c2.65,2.17,6.49,3.9,10.29,4.33c4.22,0.52,8.37-0.55,10.87-4.43
		c2.43-3.83,2.14-9.31-2.4-11.95c-2.59-1.5-5.54-2.26-8.47-2.82c-3.41-0.64-6.89-0.97-10.18-1.95c-1.29-0.36-2.57-0.79-3.87-1.38
		c-6.36-2.75-10.05-8.98-10.77-15.6c-1.73-15.14,11.7-24.34,24.82-24.2c5.75,0.07,11.48,1.85,15.89,5.79l-6.01,10.25
		c-0.81-0.56-1.74-1.1-2.6-1.59c-1.14-0.58-2.38-1.11-3.71-1.55c-1.17-0.38-2.34-0.65-3.57-0.74c-6.71-0.62-13.02,3.16-11.63,11.09
		c0.16,1.16,0.58,2.08,1.11,2.87c0.64,0.8,1.44,1.44,2.37,1.89c2.61,1.19,5.35,1.82,8.15,2.33c6.05,1.11,12.31,1.62,17.5,5.78
		C846.71,228.06,846.06,244.42,835.46,252.58"/>
	<path class="st0" d="M690.81,194.45c-13.75,0-24.94,11.22-24.94,24.95c0,13.87,11.18,25.11,24.94,25.11
		c13.76,0,24.95-11.24,24.95-25.11C715.77,205.66,704.57,194.45,690.81,194.45"/>
	<path class="st0" d="M754.57,165.77l-63.75-11.28l-39.94-7.07c-5.97-1.05-11.79,3-12.85,9.04l-9.08,51.69l9.08,51.53
		c0.69,4.12-0.3,8.24-2.55,11.43c-0.77,1.1-1.65,2.06-2.68,2.97l58.02,10.18l41.41,7.33l0.21,0.04c5.95,1.07,11.75-2.98,12.8-8.96
		l0.04-0.04l18.25-104.03C764.62,172.64,760.55,166.83,754.57,165.77 M690.81,257.19c-20.74,0-37.57-16.88-37.57-37.78
		c0-20.79,16.83-37.65,37.57-37.65c20.79,0,37.63,16.87,37.63,37.65C728.44,240.29,711.6,257.19,690.81,257.19"/>
	<path class="st0" d="M633.95,260.46l-18.29-104v-0.11c-1.12-5.97-6.87-9.98-12.84-8.92l-0.17,0.02l-39.85,7.05l-55.89,9.87
		l0.04,0.04h0.05l0.07,0.08l0.04,0.06h0.06l0.05,0.1l0.13,0.06l0.1,0.06c4.25,3.47,6.41,9.12,5.5,14.61l-11.35,64.55l6.82,38.71
		c1.06,5.98,6.88,10.06,12.89,9l41.49-7.29l62.1-11.04C630.92,272.26,635.02,266.41,633.95,260.46 M595.02,250.93l-7.15-44.17
		l-16,23.84c-1.26,2.14-3.56,3.77-6.37,4.23c-0.91,0.18-1.8,0.18-2.69,0.05c-1.84-0.2-3.49-0.96-4.71-2.01l-23.05-17.56l7.18,44.25
		l-13.11,2.12l-11.64-71.77c-0.22-1.58,0.8-3.06,2.37-3.28c1.91-0.31,3.01,0.76,4.82,2.09l38.14,29.49l26.9-40.05
		c0.98-1.78,1.69-3.18,3.62-3.52c1.83-0.26,3.01,0.83,3.31,2.41l11.54,71.74L595.02,250.93z"/>
	<path class="st0" d="M499.9,165.76l-64.02-11.32l-39.49-7l-0.18-0.02c-5.91-1.06-11.72,2.95-12.85,8.92v0.1l-18.27,104
		c-1.04,5.95,3,11.81,8.98,12.84l61.81,10.94l41.85,7.39c5.99,1.07,11.83-3.01,12.89-9l18.23-104
		C509.95,172.63,505.89,166.82,499.9,165.76 M468.73,260.77l-13.4-2.46l8.03-44.03l-23.08,17.09c-1.23,0.96-2.73,1.64-4.39,1.9
		c-0.97,0.08-2.02,0.08-3.03-0.1c-2.81-0.48-4.77-2.15-5.97-4.29l-15.88-24.2l-8.04,43.98l-13.06-2.36l13.02-71.55
		c0.27-1.55,1.49-2.6,3.3-2.31c1.91,0.38,2.62,1.76,3.56,3.56l26.1,40.58l0.01,0.06l38.7-28.76c1.84-1.29,3.01-2.36,4.87-2.03
		c1.54,0.29,2.57,1.78,2.28,3.32L468.73,260.77z"/>
	<path class="st0" d="M242.79,165.77l-60.99-10.72l-42.71-7.61c-5.99-1.06-11.77,3.01-12.83,9.03l-18.3,104
		c-1.04,5.95,3.05,11.81,9.01,12.84l64.83,11.48l38.82,6.85c6.02,1.06,11.81-3.02,12.86-9l18.29-104
		C252.8,172.64,248.75,166.82,242.79,165.77 M208.18,259.41c-0.19,1.04-1,2.01-2.12,2.4c-2.46,0.72-3.63-0.96-4.88-2.61
		l-19.37-27.81l-17.81-25.72l-8.63,46.83l-13.08-2.44l13.17-71.21c0.29-1.87,1.78-2.85,3.97-2.48c1.64,0.33,2.47,1.34,3.43,2.7
		c6.4,9,12.71,18.19,18.95,27.42c5.99,8.76,11.88,17.49,17.81,26.12l8.68-47.16l13.07,2.44L208.18,259.41z"/>
</g>
</svg>
