<?xml version="1.0" encoding="utf-8"?>
<!-- Generator: Adobe Illustrator 27.8.1, SVG Export Plug-In . SVG Version: 6.00 Build 0)  -->
<svg version="1.1" id="Layer_1" xmlns="http://www.w3.org/2000/svg" xmlns:xlink="http://www.w3.org/1999/xlink" x="0px" y="0px"
	 viewBox="0 0 1000 500" style="enable-background:new 0 0 1000 500;" xml:space="preserve">
<style type="text/css">
	.st0{fill:#FFFFFF;}
</style>
<g>
	<path class="st0" d="M621.25,308.58c-2.47,0-4.13-1.98-4.13-4.14v-8.09c0-1.66,0.5-2.64,3.64-6.6l64.43-82.62h-61.29
		c-2.14,0-3.96-1.83-3.96-3.97v-7.42c0-2.32,1.82-4.14,3.96-4.14h81.63c2.48,0,4.13,1.98,4.13,4.14v6.44c0,1.65-0.5,2.64-3.63,6.6
		l-65.77,84.27h65.27c2.32,0,4.13,1.81,4.13,4.13v7.42c0,2.33-2,3.98-4.13,3.98H621.25z"/>
	<path class="st0" d="M733.46,308.58c-2.48,0-4.14-1.98-4.14-4.14v-8.09c0-1.66,0.5-2.64,3.61-6.6l64.47-82.62h-61.33
		c-2.12,0-3.96-1.83-3.96-3.97v-7.42c0-2.32,1.84-4.14,3.96-4.14h81.63c2.47,0,4.13,1.98,4.13,4.14v6.44c0,1.65-0.5,2.64-3.63,6.6
		l-65.77,84.27h65.27c2.32,0,4.13,1.81,4.13,4.13v7.42c0,2.33-1.98,3.98-4.13,3.98H733.46z"/>
	<path class="st0" d="M846.47,195.73c0-2.16,1.67-4.14,3.95-4.14H862c2.3,0,4.13,1.81,4.13,4.14v108.71c0,2.31-1.84,4.13-4.13,4.13
		h-11.57c-2.28,0-3.95-1.98-3.95-4.13V195.73z"/>
	<path class="st0" d="M500.78,195.55c0-1.98,1.65-3.96,3.98-3.96h11.73c2.16,0,3.98,1.81,3.98,3.96v73.7
		c0,14.38,11.71,25.6,27.09,25.6c15.36,0,27.25-11.23,27.25-25.6v-73.7c0-2.14,1.82-3.96,3.99-3.96h11.71
		c2.17,0,3.97,1.81,3.97,3.96v73.7c0,24.28-21.32,43.29-46.93,43.29c-25.59,0-46.77-19.01-46.77-43.29V195.55z"/>
	<path class="st0" d="M347.11,230.75c0-14.39-12.55-25.6-27.59-25.6c-14.37,0-26.77,11.21-26.77,25.6v19.99h54.36V230.75z
		 M319.52,187.46c26.11,0,47.27,19.17,47.27,43.29v73.85c0,2.16-1.82,3.98-3.96,3.98h-11.74c-2.14,0-3.98-1.82-3.98-3.98v-38.32
		h-54.36v38.32c0,2.16-1.8,3.98-4.12,3.98h-11.56c-2.16,0-3.98-1.82-3.98-3.98v-73.85C273.09,206.63,294.4,187.46,319.52,187.46"/>
	<path class="st0" d="M474.19,191.59c2.32,0,3.8,1.33,3.8,2.65v8.91c0,2.32-1.48,3.97-3.8,3.97h-34.05v97.47
		c0,2.16-1.82,3.98-3.95,3.98h-11.75c-2.13,0-3.96-1.82-3.96-3.98v-97.47h-33.72c-2.14,0-3.96-1.83-3.96-3.97v-7.61
		c0-2.14,1.82-3.96,3.96-3.96H474.19z"/>
	<path class="st0" d="M137.83,191.59c-2.14,0-3.96,1.81-3.96,3.96V304.6c0,2.16,1.82,3.98,3.96,3.98h11.59
		c2.3,0,4.12-1.82,4.12-3.98v-82.77l62.13,82.11c3.47,4.47,6.27,4.63,8.91,4.63h10.74c2.16,0,3.98-1.82,3.98-3.98V195.55
		c0-2.14-1.82-3.96-3.98-3.96H223.6c-2.16,0-3.96,1.81-3.96,3.96v83.78l-63.77-83.11c-3.47-4.63-6.29-4.63-8.95-4.63H137.83z"/>
</g>
</svg>
