<?xml version="1.0" encoding="utf-8"?>
<!-- Generator: Adobe Illustrator 27.8.1, SVG Export Plug-In . SVG Version: 6.00 Build 0)  -->
<svg version="1.1" id="Layer_1" xmlns="http://www.w3.org/2000/svg" xmlns:xlink="http://www.w3.org/1999/xlink" x="0px" y="0px"
	 viewBox="0 0 1000 500" style="enable-background:new 0 0 1000 500;" xml:space="preserve">
<style type="text/css">
	.st0{fill:#FFFFFF;}
</style>
<g>
	<path class="st0" d="M475.68,346.61c6.85-5.74,10.23-16.03,8.23-25.32c-1.19-5.53-6.15-18.38-26.6-18.38h-25.52
		c-0.9,0-1.62,0.72-1.62,1.62v86.94c0,0.9,0.73,1.62,1.62,1.62h28.95c18.98,0,26.62-12.54,27.39-23.29
		C488.74,361.41,485.08,350.71,475.68,346.61 M439.9,344.75V308.7h17.41c5.41,0,9.57,1.91,12.34,5.68c2.39,3.23,3.7,7.85,3.7,13.01
		c0,9.78-4.49,17.36-8.36,17.36H439.9z M476.93,367.56c0,5.24-1.44,10.09-4.06,13.68c-2.89,3.95-7.08,6.04-12.13,6.04H439.9v-36.59
		h25.37C472.92,350.69,476.93,359.17,476.93,367.56"/>
	<path class="st0" d="M712.02,302.9h-59.77c-0.9,0-1.62,0.73-1.62,1.62v2.55c0,0.9,0.72,1.62,1.62,1.62h25v82.76
		c0,0.43,0.17,0.84,0.47,1.15c0.31,0.31,0.71,0.48,1.15,0.48h6.72c0.9,0,1.62-0.73,1.62-1.62v-5.83c0-0.06-0.01-0.13-0.02-0.21
		l-0.03-0.18V308.7h24.86c0.9,0,1.62-0.73,1.62-1.62v-2.55C713.64,303.63,712.91,302.9,712.02,302.9"/>
	<path class="st0" d="M209.88,357.4l-0.09-0.12c-0.14-0.17-0.31-0.33-0.51-0.43c15.39-4.21,21.94-17.45,21.57-28.96
		c-0.39-12.44-9.3-24.99-28.33-24.99h-27.2c-0.89,0-1.62,0.73-1.62,1.62v86.94c0,0.9,0.73,1.62,1.62,1.62h0.91
		c0.34,0,0.67-0.11,0.95-0.3l5.76-4.14c0.42-0.3,0.67-0.79,0.67-1.31v-29.1h14.28l19.76,24.9l7.35,9.33
		c0.3,0.39,0.78,0.63,1.28,0.63h8.49c0.62,0,1.19-0.36,1.46-0.92c0.27-0.56,0.2-1.22-0.19-1.71L209.88,357.4z M183.6,308.7h18.91
		c12.76,0,17.29,10.18,17.29,18.9c0,6.16-2.03,12.33-5.57,16.94c-2.73,3.54-7.59,7.76-15.29,7.76H183.6V308.7z"/>
	<path class="st0" d="M580.01,303.86L580.01,303.86c-0.23-0.65-0.84-1.09-1.53-1.09h-6c-0.71,0-1.34,0.45-1.55,1.13l-25.97,82.67
		l-1.53,4.35c-0.18,0.5-0.1,1.05,0.2,1.48c0.3,0.43,0.8,0.68,1.32,0.68h3.11c0.71,0,1.34-0.46,1.54-1.14l10.22-32.84l0.58-1.61
		l13.41-43.37l24.34,71.47c0.01,0.06,0.02,0.12,0.05,0.18l2.07,6.21c0.22,0.66,0.84,1.11,1.54,1.11h6.7c0.53,0,1.02-0.26,1.32-0.68
		c0.3-0.43,0.38-0.97,0.21-1.47L580.01,303.86z"/>
	<path class="st0" d="M826.22,390.94l-30.05-87.08c-0.22-0.65-0.83-1.09-1.53-1.09h-6c-0.71,0-1.33,0.46-1.54,1.14l-25.98,82.67
		l-1.52,4.35c-0.17,0.5-0.1,1.05,0.2,1.48c0.3,0.43,0.79,0.68,1.32,0.68h3.11c0.71,0,1.34-0.46,1.55-1.14l10.21-32.84l0.59-1.62
		l13.41-43.37l24.34,71.47c0.01,0.05,0.03,0.11,0.05,0.17l2.08,6.21c0.22,0.67,0.84,1.11,1.54,1.11h6.7c0.52,0,1.02-0.25,1.32-0.68
		C826.31,391.98,826.39,391.43,826.22,390.94"/>
	<path class="st0" d="M370.01,302.85h-70.86c-0.98,0-1.77,0.79-1.77,1.77v2.21c0,0.98,0.79,1.77,1.77,1.77h70.86
		c0.97,0,1.77-0.79,1.77-1.77v-2.21C371.79,303.64,370.99,302.85,370.01,302.85"/>
	<path class="st0" d="M533.96,173.88c0.05,0,0.1,0.01,0.13,0.04c0.06,0.04,0.09,0.11,0.09,0.17l-0.02,0.44l0.03,0.39
		c0,0.1,0.01,0.21,0.05,0.33c0.04,0.08,0.1,0.16,0.21,0.3c0.14,0.18,0.28,0.34,0.43,0.5l0.08,0.1c0.1,0.11,0.18,0.2,0.23,0.27
		c1.1,1.39,2.36,2.5,3.75,3.32c0.55,0.32,1.11,0.6,1.56,0.83c1.14,0.58,2.31,1.17,3.36,2.2c1.73,1.72,3.12,3.8,4.16,6.19
		c0.61,1.43,0.9,2.93,1.17,4.37c0.19,1.04,0.41,2.21,0.77,3.31c0.26,0.76,0.55,1.3,0.93,1.67c0.96,0.95,2.36,1.15,3.37,1.15
		c0.86,0,1.76-0.14,2.6-0.42c2.08-0.67,3.67-2.39,4.37-4.69c0.53-1.76,0.49-3.52,0.44-5.39c-0.02-0.91-0.05-1.8-0.01-2.7
		c0.07-1.35,0.03-2.82,0.02-3.89v-0.31c-0.01-0.57-0.02-1.12-0.02-1.68c-0.01-0.02-0.26-3.94,2.99-5.66l0.28-0.25l-0.31-0.27
		c-3.09-1.64-2.98-5.29-2.95-5.7c0-0.53,0.01-1.09,0.02-1.66v-0.25c0.02-1.14,0.05-2.56-0.02-3.91c-0.04-0.88-0.02-1.77,0-2.63
		c0.05-1.93,0.1-3.7-0.44-5.46c-0.69-2.31-2.28-4.02-4.37-4.69c-0.85-0.28-1.75-0.42-2.61-0.42c-1,0-2.39,0.2-3.36,1.15
		c-0.38,0.37-0.68,0.91-0.93,1.68c-0.36,1.1-0.58,2.27-0.77,3.3c-0.28,1.47-0.56,2.95-1.17,4.37c-1.04,2.39-2.43,4.48-4.16,6.2
		c-1.04,1.04-2.24,1.64-3.38,2.22c-0.48,0.24-1.01,0.51-1.53,0.82c-1.39,0.82-2.65,1.94-3.75,3.32c-0.05,0.07-0.13,0.16-0.23,0.27
		l-0.09,0.1c-0.15,0.16-0.28,0.33-0.47,0.56c-0.04,0.05-0.12,0.1-0.18,0.1l-0.76,0.05c-0.11,0-0.2-0.07-0.22-0.18
		c-0.06-0.34-0.15-0.64-0.29-0.92c-0.08-0.2-0.2-0.38-0.32-0.54c-0.14-0.18-0.3-0.36-0.49-0.52c-0.2-0.17-0.42-0.33-0.67-0.47
		c-0.27-0.15-0.56-0.28-0.9-0.42c-0.36-0.13-0.73-0.26-1.14-0.36c-0.45-0.11-0.92-0.2-1.44-0.28c-0.55-0.08-1.12-0.15-1.75-0.2
		c-0.65-0.05-1.34-0.09-2.1-0.11c-0.31-0.01-0.62-0.01-0.93-0.02c-9.38-0.07-15.07-9.43-15.26-12.52c-0.13-2.2-3.01-3.89-3.89-4.35
		l-0.07-0.03l-0.08,0.02c-1.57,0.38-3.08-0.17-3.37-0.29l-0.54-0.25l-0.5,0.24c-0.3,0.12-1.83,0.69-3.4,0.31l-0.09-0.02l-0.07,0.03
		c-0.88,0.47-3.76,2.16-3.89,4.35c-0.18,3.09-5.88,12.45-15.23,12.52c-0.34,0.01-0.65,0.01-0.96,0.02
		c-0.76,0.02-1.44,0.05-2.09,0.11c-0.63,0.05-1.21,0.11-1.76,0.2c-0.52,0.09-0.99,0.17-1.43,0.28c-0.41,0.1-0.79,0.23-1.15,0.36
		c-0.32,0.12-0.61,0.26-0.9,0.42c-0.25,0.14-0.48,0.3-0.67,0.47c-0.19,0.16-0.35,0.34-0.49,0.51c-0.13,0.17-0.24,0.36-0.34,0.55
		c-0.18,0.39-0.3,0.85-0.32,1.33c-0.01,0.16,0,0.31,0,0.43l0.01,0.17l-0.01,0.21c0,0.14-0.01,0.28,0,0.42
		c0.03,0.5,0.14,0.96,0.32,1.36c0.09,0.2,0.2,0.38,0.33,0.54c0.13,0.19,0.3,0.36,0.49,0.52c0.2,0.17,0.43,0.32,0.68,0.47
		c0.28,0.16,0.57,0.29,0.9,0.42c0.37,0.13,0.74,0.26,1.15,0.35c0.45,0.12,0.91,0.21,1.44,0.28c0.52,0.09,1.09,0.15,1.75,0.21
		c0.64,0.05,1.32,0.09,2.1,0.11c0.31,0.01,0.64,0.01,0.95,0.02c9.35,0.07,15.05,9.43,15.23,12.52c0.13,2.2,3.01,3.89,3.89,4.35
		l0.08,0.03l0.08-0.02c1.59-0.39,3.18,0.22,3.36,0.29l0.54,0.25l0.5-0.24c0.19-0.08,1.8-0.7,3.41-0.31l0.08,0.02l0.07-0.03
		c0.88-0.47,3.77-2.16,3.89-4.35c0.19-3.09,5.88-12.45,15.23-12.52c0.32-0.01,0.64-0.01,0.96-0.02c0.78-0.02,1.46-0.06,2.1-0.11
		c0.65-0.05,1.23-0.12,1.75-0.21c0.51-0.08,0.98-0.17,1.44-0.28c0.4-0.1,0.78-0.21,1.14-0.35c0.35-0.13,0.64-0.27,0.9-0.42
		c0.25-0.15,0.48-0.3,0.68-0.47c0.19-0.16,0.35-0.34,0.49-0.52c0.13-0.16,0.24-0.35,0.33-0.54c0.18-0.39,0.3-0.85,0.32-1.33
		c0.01-0.17,0-0.31-0.01-0.46l0-0.14l0.01-0.29c0-0.1,0.07-0.19,0.16-0.21l0.46-0.12C533.92,173.88,533.94,173.88,533.96,173.88
		 M542.74,171.36c12.04-5.06,10.3-15.63,10.22-16.07c-0.28-1.59,0.78-3.11,2.35-3.4c0.18-0.03,0.36-0.05,0.54-0.05
		c1.4,0,2.6,0.99,2.87,2.37c0.88,4.6-0.05,14.01-9.11,20.09l-0.27,0.18l0.27,0.18c9.06,6.09,9.99,15.5,9.11,20.1
		c-0.27,1.42-1.47,2.37-2.85,2.37c-0.18,0-0.38-0.02-0.56-0.05c-1.57-0.29-2.63-1.81-2.35-3.4c0.09-0.45,1.81-11.02-10.22-16.07
		c-1.21-0.51-1.93-1.78-1.76-3.09l0.01-0.03l-0.01-0.03C540.8,173.14,541.53,171.87,542.74,171.36 M511.43,174.67
		c0,0.42-0.31,0.78-0.72,0.81c-7.13,0.58-9.39,9.15-9.9,11.76c-0.07,0.38-0.41,0.65-0.8,0.65c-0.39,0-0.72-0.27-0.8-0.65
		c-0.52-2.61-2.77-11.19-9.91-11.76c-0.4-0.03-0.71-0.39-0.71-0.81v-0.37c0-0.42,0.31-0.78,0.71-0.81
		c7.14-0.58,9.39-9.15,9.91-11.76c0.08-0.38,0.41-0.66,0.8-0.66c0.39,0,0.73,0.28,0.8,0.66c0.52,2.61,2.77,11.19,9.9,11.76
		c0.41,0.03,0.72,0.39,0.72,0.81V174.67z"/>
	<path class="st0" d="M492.59,201.78c-1.75,7.26-8.82,14.15-14.82,14.47c-5.27,0.27-10.14,1.33-10.14,7.1
		c0,5.68,5.32,6.36,5.55,6.38l18.49-0.01c2.95,0,3.54,1.82,3.89,2.91l0.05,0.15c0.09,0.3,0.18,0.55,0.34,0.76
		c0.14,0.19,0.33,0.22,0.56,0.22c0.83-0.02,1.66-0.32,2.32-0.84c0.27-0.21,0.54-0.46,0.85-0.78l0.16-0.16
		c0.08-0.09,0.22-0.09,0.31,0l0.22,0.22c0.26,0.26,0.52,0.51,0.8,0.72c0.66,0.52,1.48,0.82,2.31,0.84h0.09
		c0.19,0,0.35-0.03,0.49-0.22c0.17-0.21,0.25-0.5,0.33-0.76l0.04-0.14c0.36-1.1,0.96-2.91,3.9-2.91h18.6
		c0.19-0.03,5.44-0.82,5.44-6.38c0-5.77-4.88-6.83-10.14-7.1c-6.01-0.32-13.07-7.21-14.82-14.47c-0.56-2.36-1.57-3.89-2.97-4.54
		c-1.63-0.76-3.41-0.07-3.77,0.08l-0.58,0.27c-0.05,0.03-0.12,0.03-0.18,0l-0.6-0.28c-0.33-0.14-2.09-0.85-3.75-0.07
		C494.16,197.9,493.16,199.43,492.59,201.78 M499.57,201.01c0.1,0,0.19,0.01,0.36,0.04l0.2-0.01c1.39-0.22,2.78,0.75,3.14,2.19
		c3.95,15.95,22.82,18.33,23.62,18.42c1.6,0.18,2.76,1.63,2.58,3.24c-0.14,1.3-1.06,2.25-2.4,2.49c-1.32,0.23-3.18,0.16-4.82,0.06
		c-0.55-0.03-1.1-0.07-1.62-0.08c-3.6-0.12-7.2-0.56-10.68-0.98c-1.22-0.15-2.45-0.3-3.64-0.43c-1.91-0.3-3.79-0.63-5.62-0.99
		c-0.11-0.02-0.29-0.04-0.54-0.06l-0.26-0.01l-0.14,0.02c-0.19,0.02-0.36,0.04-0.46,0.06c-1.82,0.36-3.7,0.68-5.58,0.98
		c-1.24,0.14-2.46,0.28-3.67,0.44c-3.48,0.42-7.09,0.86-10.69,0.98c-0.51,0.02-1.06,0.05-1.63,0.08c-0.87,0.05-1.74,0.11-2.59,0.11
		c-0.77,0-1.51-0.04-2.22-0.16c-1.33-0.24-2.25-1.19-2.39-2.49c-0.18-1.61,0.98-3.06,2.58-3.24c0.8-0.09,19.68-2.48,23.62-18.42
		C497.06,201.92,498.23,201.01,499.57,201.01"/>
	<path class="st0" d="M450.05,196.66c0.36-1.08,0.56-2.19,0.76-3.27c0.28-1.48,0.56-2.97,1.18-4.41c1.03-2.39,2.43-4.47,4.16-6.19
		c1.05-1.05,2.23-1.65,3.38-2.22c0.47-0.24,1.01-0.51,1.53-0.82c1.39-0.82,2.65-1.94,3.75-3.33c0.05-0.06,0.12-0.14,0.2-0.23
		l0.12-0.13c0.15-0.17,0.29-0.33,0.47-0.57c0.06-0.08,0.13-0.16,0.16-0.24c0.05-0.1,0.05-0.21,0.06-0.33l0.02-0.5l-0.02-0.39
		c-0.01-0.12-0.01-0.23-0.05-0.32c-0.04-0.09-0.11-0.17-0.22-0.31c-0.14-0.17-0.28-0.34-0.43-0.5l-0.09-0.1
		c-0.12-0.14-0.19-0.22-0.23-0.27c-1.09-1.38-2.36-2.5-3.75-3.32c-0.52-0.3-1.05-0.57-1.52-0.81c-1.18-0.6-2.36-1.19-3.39-2.23
		c-1.73-1.72-3.12-3.8-4.16-6.19c-0.62-1.44-0.9-2.93-1.17-4.37c-0.2-1.09-0.41-2.21-0.77-3.3c-0.26-0.77-0.55-1.3-0.94-1.68
		c-1.4-1.38-4-1.36-5.96-0.73c-2.08,0.68-3.67,2.39-4.36,4.69c-0.53,1.75-0.49,3.52-0.43,5.39c0.02,0.85,0.04,1.79,0,2.7
		c-0.07,1.33-0.04,2.75-0.02,3.9v0.06c0.01,0.66,0.02,1.3,0.02,1.93c0,0.02,0.25,3.94-2.99,5.67l-0.28,0.26l0.31,0.26
		c3.11,1.65,2.98,5.3,2.96,5.71c0,0.52-0.01,1.09-0.01,1.66l-0.01,0.25c-0.02,1.09-0.05,2.57,0.02,3.91c0.04,0.91,0.02,1.87,0,2.65
		v0.06c-0.05,1.87-0.09,3.64,0.43,5.39c0.7,2.31,2.28,4.02,4.36,4.7c0.84,0.27,1.74,0.41,2.6,0.41c1.01,0,2.41-0.19,3.37-1.14
		C449.5,197.96,449.79,197.43,450.05,196.66 M444.69,197.08c-0.18,0.04-0.36,0.05-0.53,0.05c-1.37,0-2.61-0.97-2.87-2.37
		c-0.88-4.6,0.05-14.01,9.11-20.1l0.27-0.18l-0.27-0.18c-9.07-6.08-9.99-15.5-9.12-20.1c0.27-1.37,1.47-2.37,2.87-2.37
		c0.18,0,0.37,0.02,0.54,0.05c1.58,0.3,2.64,1.82,2.35,3.4c-0.08,0.45-1.83,11.01,10.22,16.07c1.21,0.51,1.94,1.78,1.76,3.09v0.03
		v0.03c0.18,1.31-0.54,2.58-1.76,3.09c-12.05,5.06-10.3,15.62-10.22,16.07C447.32,195.26,446.27,196.79,444.69,197.08"/>
	<path class="st0" d="M504.44,151.71c1.4-0.65,2.41-2.18,2.97-4.54c1.74-7.26,8.81-14.15,14.82-14.47
		c5.27-0.27,10.14-1.33,10.14-7.1c0-5.67-5.32-6.36-5.54-6.38l-18.49,0.01c-2.95,0-3.54-1.82-3.9-2.91l-0.05-0.15
		c-0.08-0.26-0.16-0.55-0.34-0.76c-0.13-0.17-0.3-0.23-0.56-0.22c-0.84,0.02-1.66,0.32-2.32,0.84c-0.28,0.22-0.54,0.47-0.8,0.73
		c-0.07,0.07-0.14,0.14-0.22,0.21c-0.08,0.09-0.22,0.08-0.3,0l-0.23-0.22c-0.28-0.27-0.53-0.52-0.79-0.72
		c-0.67-0.52-1.49-0.82-2.32-0.84c-0.25,0-0.42,0.03-0.56,0.22c-0.16,0.21-0.25,0.5-0.33,0.75l-0.04,0.16
		c-0.36,1.09-0.95,2.91-3.9,2.91h-18.6c-0.19,0.02-5.43,0.78-5.43,6.38c0,5.78,4.87,6.83,10.14,7.1
		c6.01,0.31,13.07,7.21,14.82,14.47c0.57,2.36,1.57,3.89,2.97,4.54c1.65,0.77,3.41,0.08,3.77-0.07l0.58-0.27
		c0.05-0.03,0.12-0.03,0.18,0l0.6,0.28c0.22,0.1,1.06,0.42,2.07,0.42C503.38,152.07,503.94,151.95,504.44,151.71 M500.43,147.95
		c-0.09,0-0.19-0.01-0.35-0.04l-0.21,0.01c-0.1,0.02-0.19,0.03-0.29,0.03c-1.34,0-2.51-0.91-2.84-2.23
		c-3.95-15.93-22.82-18.32-23.62-18.41c-1.6-0.18-2.76-1.63-2.58-3.24c0.14-1.3,1.06-2.25,2.4-2.48c1.51-0.27,3.19-0.17,4.82-0.07
		c0.55,0.03,1.1,0.07,1.62,0.08c3.59,0.12,7.19,0.56,10.66,0.98c1.24,0.16,2.46,0.3,3.67,0.43c1.91,0.3,3.8,0.63,5.61,0.99
		c0.1,0.02,0.28,0.04,0.54,0.06l0.25,0.01l0.05-0.01c0.24-0.02,0.43-0.04,0.55-0.06c1.81-0.35,3.69-0.68,5.57-0.98
		c1.24-0.14,2.46-0.28,3.69-0.44c3.48-0.42,7.08-0.86,10.68-0.98c0.52-0.02,1.06-0.05,1.61-0.08c1.65-0.1,3.33-0.2,4.82,0.07
		c1.34,0.24,2.25,1.19,2.4,2.48c0.18,1.61-0.98,3.06-2.58,3.24c-0.8,0.09-19.67,2.48-23.62,18.41
		C502.95,147.04,501.78,147.95,500.43,147.95"/>
	<path class="st0" d="M549.72,136.16c0.8,1.59,0.95,3.41,1.09,5.17c0.27,3.42,0.48,6.12,5.21,6.12c2.25,0,9.09,0,9.09-11.14v-23.25
		l-0.35,0.27c-2.08,1.61-7.45,5.39-12.26,6c-5.58,0.7-11.62,2.03-12.54,8.89v0.01c-0.45,3.34,1.33,3.81,3.63,4.29l0.01-0.04
		c0.01-0.05,0.05-0.11,0.1-0.14c0.05-0.03,0.11-0.04,0.17-0.03c0.11,0.03,0.18,0.15,0.16,0.26l-0.01,0.04
		C546.2,133.07,548.42,133.6,549.72,136.16 M543.72,125.47c0.24-1.41,1.45-2.45,2.87-2.45c0.15,0,0.3,0.01,0.48,0.04
		c0.29,0.04,7.16,1.22,10.58,6.88c2.2,3.66,2.43,8.16,0.68,13.38c-0.4,1.2-1.52,2-2.78,2c-0.31,0-0.63-0.05-0.93-0.15
		c-1.53-0.51-2.36-2.18-1.85-3.7c1.18-3.51,1.13-6.35-0.12-8.46c-2-3.37-6.49-4.15-6.54-4.16
		C544.53,128.57,543.46,127.05,543.72,125.47"/>
	<path class="st0" d="M449.19,141.33c0.14-1.76,0.29-3.58,1.09-5.17c1.34-2.65,3.67-3.12,5.92-3.59c2.4-0.5,4.3-0.9,3.85-4.33
		c-0.92-6.87-6.96-8.19-12.54-8.9c-4.82-0.61-10.18-4.4-12.26-6l-0.35-0.27v23.25c0,11.13,6.84,11.13,9.1,11.13
		C448.71,147.45,448.92,144.75,449.19,141.33 M445.38,145.18c-0.3,0.1-0.6,0.15-0.9,0.15c-1.23,0-2.41-0.78-2.82-1.99
		c-1.75-5.23-1.52-9.73,0.68-13.39c3.42-5.67,10.28-6.84,10.58-6.88c1.58-0.26,3.08,0.82,3.36,2.4c0.26,1.58-0.81,3.09-2.39,3.37
		c-0.04,0.01-4.54,0.8-6.54,4.16c-1.26,2.12-1.3,4.96-0.13,8.47C447.74,143,446.91,144.66,445.38,145.18"/>
	<path class="st0" d="M450.28,212.81c-0.81-1.59-0.95-3.41-1.09-5.16c-0.27-3.43-0.48-6.13-5.21-6.13c-2.25,0-9.09,0-9.09,11.14
		v23.25l0.35-0.27c2.08-1.6,7.45-5.38,12.26-5.99c5.58-0.71,11.62-2.04,12.53-8.91c0.45-3.34-1.32-3.81-3.63-4.29l-0.01,0.03
		c-0.01,0.05-0.05,0.11-0.1,0.14c-0.04,0.03-0.11,0.04-0.16,0.03c-0.12-0.03-0.2-0.14-0.18-0.26l0.01-0.03
		C453.8,215.9,451.58,215.37,450.28,212.81 M456.28,223.49c-0.24,1.42-1.48,2.44-2.89,2.44c-0.15,0-0.31-0.01-0.46-0.04
		c-0.29-0.05-7.14-1.18-10.58-6.88c-2.2-3.66-2.43-8.16-0.68-13.38c0.4-1.2,1.51-2,2.78-2c0.32,0,0.64,0.05,0.93,0.15
		c1.53,0.51,2.36,2.18,1.85,3.7c-1.18,3.5-1.14,6.35,0.12,8.46c2.01,3.37,6.49,4.15,6.53,4.16
		C455.47,220.4,456.55,221.91,456.28,223.49"/>
	<path class="st0" d="M556.75,238.27c1.16,0.06,2.46,0.13,3.69,0.27c3.92,0.42,6.74,1.56,8.63,3.47l0.8,0.8v-1.13
		c-0.04-8.06-0.03-16.2-0.03-24.08v-0.12l0.01-42.99l-0.01-43.12c0-7.87-0.01-16.03,0.03-24.08v-1.13l-0.8,0.8
		c-1.89,1.91-4.72,3.05-8.63,3.48c-1.24,0.13-2.54,0.2-3.79,0.26l-0.07,0c-1.95,0.1-3.96,0.2-5.95,0.59
		c-5.54,1.08-10.54,4.4-13.71,9.11c-0.31,0.47-0.53,0.78-0.78,0.87c-0.02,0.01-0.05,0.01-0.08,0.01c-0.48-0.01-1.54-1.11-3.76-3.92
		l-0.15-0.19c-0.86-1.08-1.48-1.87-1.88-2.2c-2.51-2.11-5.18-3.6-7.95-4.43c-3.51-1.05-7.53-1.17-12.65-0.37l-9.6,1.48
		c-0.02,0.01-0.04,0.01-0.06,0l-9.68-1.48c-5.12-0.79-9.14-0.68-12.65,0.37c-2.76,0.82-5.44,2.31-7.95,4.43
		c-0.41,0.34-1.05,1.16-1.88,2.21l-0.16,0.19c-2.53,3.21-3.28,3.9-3.62,3.94c-0.03,0.01-0.07,0.01-0.1-0.01
		c-0.38-0.12-0.64-0.51-0.9-0.89c-3.17-4.72-8.16-8.04-13.72-9.13c-2-0.39-4.07-0.49-6.07-0.59c-1.2-0.06-2.51-0.13-3.74-0.26
		c-3.91-0.42-6.74-1.57-8.63-3.48l-0.8-0.8l0.01,1.13c0.03,8.39,0.03,17.15,0.02,24.2v43v42.99c0,7.04,0.01,15.8-0.02,24.2
		l-0.01,1.13l0.8-0.8c1.89-1.91,4.72-3.05,8.63-3.47c1.26-0.14,2.61-0.21,3.81-0.27c1.98-0.1,4.02-0.21,6-0.59
		c5.55-1.08,10.55-4.4,13.71-9.11c0.31-0.46,0.54-0.78,0.78-0.87c0.03-0.01,0.05-0.01,0.08-0.01c0.48,0.01,1.57,1.14,3.75,3.92
		l0.15,0.18c0.86,1.09,1.48,1.88,1.88,2.21c2.51,2.11,5.19,3.6,7.95,4.43c3.51,1.05,7.53,1.17,12.65,0.38l9.6-1.49
		c0.02-0.01,0.05-0.01,0.07,0l9.68,1.49c5.13,0.79,9.15,0.68,12.65-0.38c2.76-0.82,5.44-2.31,7.95-4.43
		c0.4-0.34,1.02-1.11,1.87-2.18l0.15-0.19c2.55-3.23,3.29-3.92,3.63-3.96c0.03,0,0.07,0,0.1,0.01c0.38,0.13,0.64,0.52,0.9,0.9
		c3.16,4.71,8.16,8.03,13.71,9.11c2.01,0.39,4.08,0.5,6.09,0.59h0.01l-0.01,0.22L556.75,238.27z M539.19,128.13
		c0.95-7.05,6.91-8.76,13.21-9.56c5.58-0.71,12.12-6,12.84-6.6l0.27-0.23c0.07-0.06,0.16-0.06,0.23-0.03
		c0.08,0.03,0.13,0.11,0.13,0.2v24.41c0,11.9-7.42,11.9-9.86,11.9c-5.43,0-5.72-3.63-5.97-6.83c-0.13-1.68-0.27-3.42-1.01-4.88
		c-1.17-2.31-3.41-2.77-5.38-3.18C541.18,132.81,538.64,132.28,539.19,128.13 M434.13,111.9c0-0.09,0.05-0.16,0.13-0.2
		c0.07-0.03,0.16-0.03,0.23,0.03l0.28,0.24c0.29,0.24,7.13,5.88,12.84,6.6c6.3,0.8,12.25,2.51,13.2,9.56
		c0.56,4.16-1.99,4.68-4.45,5.2c-1.98,0.41-4.21,0.87-5.38,3.18c-0.73,1.45-0.87,3.19-1.01,4.88c-0.25,3.21-0.53,6.83-5.97,6.83
		c-2.44,0-9.85,0-9.85-11.9V111.9z M460.81,220.83c-0.94,7.05-6.9,8.76-13.2,9.56c-5.59,0.71-12.12,6-12.85,6.61l-0.27,0.23
		c-0.04,0.03-0.09,0.05-0.14,0.05c-0.03,0-0.06-0.01-0.09-0.02c-0.08-0.04-0.13-0.12-0.13-0.2v-24.4c0-11.9,7.41-11.9,9.85-11.9
		c5.44,0,5.72,3.63,5.97,6.84c0.14,1.69,0.28,3.42,1.01,4.87c1.17,2.31,3.41,2.77,5.38,3.19
		C458.82,216.15,461.36,216.68,460.81,220.83 M526.41,209.59c-2.17-2-3.52-4.81-3.61-7.53c-0.11-3.56,0.58-6.13,2.05-7.66
		c1.07-1.1,2.54-1.66,4.37-1.66c2.2,0,4.06,0.74,5.36,2.13c0.27,0.28,0.55,0.64,0.82,1.11c0.93,1.48,1.7,3.2,1.08,5.7l-0.28,1.15
		l0.67-0.97c0.2-0.29,0.37-0.59,0.5-0.9c0.71-1.71-0.04-3.69-0.79-5.04c-1.91-3.42-6.07-5.82-10.12-5.82
		c-3.12,0-6.13,1.61-7.51,4.01c-0.85,1.5-1.22,3.48-1.02,5.59c0.33,3.57,2.22,7.02,5.05,9.22c0.69,0.54,1.1,1.34,1.13,2.21
		c0.03,0.87-0.34,1.71-1,2.31c-1.04,0.91-2.66,0.93-3.77,0.05c-4.05-3.18-6.76-8.13-7.24-13.25c-0.31-3.34,0.3-6.47,1.76-9.03
		c2.42-4.24,7.35-6.98,12.58-6.98c6.17,0.01,12.3,3.56,15.25,8.83c1.3,2.33,1.93,4.79,1.8,7.1c-0.18,3.27-2.35,6.65-5.27,8.19
		c-2.37,1.25-5.01,1.19-7.25-0.16c-3.07-1.87-3.73-5.79-3.05-8.65c0.19-0.81,0.73-1.49,1.46-1.89c0.74-0.4,1.59-0.46,2.39-0.17
		c1.35,0.49,2.13,2.01,1.82,3.55c-0.18,0.89,0.01,1.91,0.4,2.15c0.24,0.14,0.58,0.3,1.09,0.14l0.13-0.03l0.44-2.02
		c0.05-0.23,0.08-0.45,0.08-0.64c0.07-2.07-0.57-3.98-1.74-5.25c-1.16-1.24-2.77-1.88-4.78-1.88c-1.62,0-2.9,0.48-3.82,1.42
		c-1.33,1.38-1.94,3.77-1.84,7.1c0.08,2.52,1.33,5.12,3.36,6.99c2.62,2.4,6.44,3.54,11.06,3.29c9.58-0.51,11.97-12.16,12.21-13.49
		l0.02-0.1l-0.07-0.08c-0.38-0.45-0.69-1.04-0.93-1.75c-0.38-1.14-0.59-2.29-0.79-3.39c-0.28-1.48-0.54-2.86-1.12-4.21
		c-1-2.3-2.34-4.31-4-5.95c-0.94-0.94-1.99-1.47-3.2-2.08l-0.05-0.03c-0.5-0.25-1-0.51-1.51-0.8c-1.46-0.87-2.79-2.05-3.95-3.51
		c-0.04-0.05-0.1-0.13-0.2-0.24l-0.49-0.56l-0.13,0.35c-0.92,2.49-4.19,3.62-10.6,3.67c-9.33,0.08-14.32,9.48-14.46,11.8
		c-0.13,2.11-2.24,3.74-3.48,4.52l-0.3,0.18l0.3,0.19c1.38,0.85,2.36,2.46,2.92,4.79c1.84,7.62,8.97,13.62,14.11,13.88
		c5.64,0.3,10.87,1.45,10.87,7.86c0,5.97-5.52,7.04-6.15,7.14l-18.65,0.01c-2.4,0-2.79,1.21-3.17,2.38
		c-0.25,0.78-0.53,1.65-1.55,1.65c-0.53,0-1.04-0.08-1.51-0.23c-0.54-0.17-1.74-0.95-1.98-1.1l-0.12-0.08l-0.12,0.08
		c-0.33,0.21-1.46,0.93-1.98,1.1c-0.47,0.15-0.98,0.23-1.51,0.23c-1.02,0-1.3-0.88-1.56-1.65c-0.38-1.17-0.78-2.38-3.17-2.38
		l-18.54,0.01c-0.09-0.01-6.26-0.82-6.26-7.16c0-6.42,5.23-7.57,10.87-7.86c5.15-0.27,12.28-6.26,14.11-13.88
		c0.56-2.32,1.54-3.93,2.92-4.79l0.29-0.19l-0.29-0.18c-1.24-0.78-3.36-2.41-3.48-4.51c-0.14-2.32-5.13-11.73-14.46-11.8
		c-6.41-0.05-9.67-1.18-10.59-3.67l-0.13-0.35l-0.47,0.55c-0.1,0.11-0.17,0.19-0.21,0.24c-1.17,1.47-2.5,2.64-3.96,3.51
		c-0.57,0.33-1.15,0.62-1.62,0.86c-1.14,0.57-2.21,1.12-3.15,2.06c-1.65,1.65-3,3.65-3.99,5.95c-0.58,1.35-0.85,2.74-1.12,4.22
		c-0.21,1.13-0.43,2.28-0.8,3.39c-0.24,0.73-0.54,1.3-0.93,1.75l-0.06,0.08l0.02,0.1c0.24,1.33,2.63,12.98,12.21,13.49
		c4.59,0.26,8.42-0.88,11.05-3.29c2.03-1.86,3.29-4.47,3.37-6.99c0.11-3.34-0.52-5.72-1.84-7.1c-0.92-0.94-2.2-1.42-3.82-1.42
		c-2.02,0-3.62,0.64-4.77,1.88c-1.18,1.27-1.82,3.18-1.75,5.25c0,0.2,0.03,0.41,0.09,0.64l0.44,2.02l0.12,0.03
		c0.52,0.15,0.85,0,1.09-0.14c0.39-0.24,0.59-1.26,0.41-2.15c-0.32-1.54,0.47-3.06,1.82-3.55c0.79-0.29,1.64-0.23,2.39,0.17
		c0.73,0.4,1.26,1.08,1.46,1.89c0.69,2.86,0.03,6.78-3.04,8.65c-2.24,1.36-4.88,1.42-7.25,0.16c-2.93-1.55-5.1-4.92-5.27-8.19
		c-0.13-2.31,0.5-4.77,1.8-7.1c2.94-5.27,9.06-8.81,15.22-8.83c5.24,0,10.19,2.74,12.61,6.98c1.46,2.57,2.07,5.69,1.76,9.03
		c-0.49,5.13-3.19,10.08-7.24,13.25c-1.12,0.88-2.74,0.85-3.77-0.05c-0.66-0.59-1.04-1.44-1.01-2.31c0.03-0.87,0.44-1.68,1.13-2.21
		c2.83-2.2,4.72-5.65,5.05-9.22c0.2-2.11-0.16-4.08-1.02-5.59c-1.37-2.4-4.39-4.01-7.51-4.01c-4.04,0.01-8.2,2.4-10.12,5.82
		c-0.76,1.35-1.51,3.33-0.79,5.04c0.12,0.3,0.29,0.6,0.49,0.9l0.67,0.97l-0.28-1.15c-0.62-2.5,0.16-4.22,1.09-5.71
		c0.28-0.47,0.55-0.83,0.84-1.12c1.28-1.38,3.13-2.11,5.33-2.11c1.84,0,3.31,0.56,4.37,1.66c1.48,1.53,2.17,4.11,2.06,7.66
		c-0.09,2.71-1.44,5.53-3.61,7.52c-1.92,1.77-5.51,3.81-11.61,3.5c-9.24-0.5-12.13-10.43-12.79-13.46l-0.06-0.3l-0.26,0.16
		c-1.78,1.08-4.24,0.86-5.95,0.31c-2.32-0.76-4.1-2.65-4.87-5.21c-0.56-1.87-0.52-3.83-0.47-5.71v-0.09c0.03-0.77,0.04-1.65,0-2.48
		c-0.06-1.34-0.04-2.77-0.02-3.91l0.01-0.73c0.01-0.42,0.01-0.85,0.01-1.24c0.03-0.39,0.19-3.67-2.67-5.07l-1.02-0.7
		c-0.06-0.04-0.09-0.11-0.09-0.18c-0.01-0.07,0.03-0.13,0.09-0.18l0.91-0.64c3.03-1.49,2.79-4.92,2.78-5.07c0-0.4,0-0.78,0-1.16
		l-0.02-0.94c-0.02-1.19-0.03-2.54,0.02-3.86c0.04-0.83,0.03-1.72,0-2.58l0.22-0.08l-0.22,0.01c-0.05-1.84-0.1-3.75,0.47-5.62
		c0.77-2.56,2.54-4.45,4.87-5.21c1.71-0.56,4.17-0.76,5.95,0.32l0.26,0.16l0.06-0.3c0.67-3.04,3.55-12.97,12.79-13.47
		c6.1-0.32,9.68,1.73,11.61,3.5c2.17,2,3.52,4.81,3.61,7.53c0.12,3.55-0.58,6.13-2.06,7.66c-1.07,1.1-2.54,1.66-4.37,1.66
		c-2.2,0-4.06-0.74-5.35-2.13c-0.27-0.27-0.54-0.64-0.82-1.11c-0.93-1.48-1.71-3.2-1.09-5.7l0.28-1.15l-0.67,0.97
		c-0.2,0.3-0.37,0.59-0.49,0.9c-0.72,1.71,0.03,3.68,0.79,5.04c1.92,3.42,6.08,5.81,10.12,5.82c3.12,0,6.13-1.61,7.5-4.01
		c0.85-1.5,1.22-3.48,1.02-5.58c-0.33-3.57-2.21-7.02-5.05-9.22c-0.69-0.53-1.1-1.34-1.13-2.21c-0.03-0.88,0.34-1.72,1.01-2.3
		c1.03-0.91,2.65-0.94,3.77-0.06c4.05,3.17,6.75,8.13,7.24,13.25c0.31,3.35-0.3,6.46-1.77,9.03c-2.42,4.24-7.35,6.97-12.57,6.97
		c-6.18-0.01-12.3-3.56-15.25-8.82c-1.31-2.33-1.93-4.8-1.8-7.1c0.17-3.27,2.34-6.65,5.27-8.2c2.36-1.25,5-1.19,7.25,0.17
		c3.07,1.86,3.73,5.78,3.04,8.64c-0.19,0.81-0.73,1.5-1.46,1.9c-0.74,0.4-1.59,0.46-2.39,0.17c-1.36-0.48-2.14-2.01-1.82-3.55
		c0.18-0.89-0.01-1.91-0.41-2.15c-0.24-0.14-0.59-0.29-1.09-0.14l-0.12,0.04l-0.44,2.01c-0.05,0.23-0.09,0.44-0.09,0.64
		c-0.07,2.08,0.56,3.99,1.74,5.25c1.16,1.24,2.76,1.88,4.78,1.88c1.62,0,2.91-0.48,3.82-1.42c1.33-1.37,1.95-3.76,1.84-7.1
		c-0.08-2.51-1.34-5.13-3.37-6.99c-2.62-2.41-6.44-3.54-11.05-3.29c-9.58,0.52-11.98,12.16-12.21,13.5l-0.02,0.1l0.06,0.08
		c0.38,0.45,0.68,1.02,0.93,1.75c0.37,1.11,0.59,2.27,0.8,3.38c0.27,1.48,0.54,2.87,1.12,4.23c0.99,2.3,2.34,4.3,3.99,5.95
		c0.94,0.94,1.98,1.47,3.18,2.07l0.07,0.03c0.47,0.24,1,0.51,1.52,0.81c1.47,0.87,2.8,2.05,3.95,3.5c0.04,0.05,0.09,0.1,0.2,0.24
		l0.49,0.56l0.13-0.35c0.92-2.49,4.18-3.62,10.59-3.67c9.33-0.07,14.32-9.48,14.46-11.8c0.13-2.11,2.24-3.74,3.48-4.52l0.29-0.19
		l-0.29-0.18c-1.38-0.86-2.36-2.46-2.92-4.79c-1.84-7.63-8.96-13.62-14.11-13.88c-5.64-0.29-10.87-1.45-10.87-7.86
		c0-5.96,5.52-7.04,6.15-7.15c0.01,0,0.03-0.01,0.04-0.01h18.61c2.39,0,2.79-1.2,3.17-2.37c0.25-0.78,0.53-1.65,1.56-1.65
		c0.53,0,1.04,0.08,1.51,0.23c0.54,0.17,1.74,0.95,1.98,1.1l0.12,0.08l0.12-0.08c0.65-0.42,1.55-0.96,1.98-1.1
		c0.48-0.15,0.99-0.23,1.51-0.23c1.02,0,1.31,0.88,1.55,1.65c0.38,1.17,0.78,2.38,3.17,2.38h18.55c0.09,0.01,6.26,0.82,6.26,7.15
		c0,6.42-5.23,7.57-10.87,7.86c-5.14,0.27-12.28,6.26-14.11,13.88c-0.56,2.32-1.54,3.93-2.92,4.79l-0.3,0.18l0.3,0.18
		c1.25,0.79,3.36,2.41,3.48,4.52c0.14,2.31,5.13,11.72,14.46,11.8c6.41,0.05,9.68,1.18,10.6,3.67l0.13,0.35l0.52-0.6
		c0.08-0.09,0.13-0.15,0.16-0.19c1.17-1.46,2.5-2.65,3.96-3.5c0.53-0.32,1.04-0.57,1.58-0.85c1.17-0.59,2.25-1.13,3.19-2.08
		c1.65-1.65,3-3.65,4-5.95c0.58-1.35,0.84-2.73,1.11-4.19c0.21-1.13,0.42-2.28,0.8-3.42c0.24-0.71,0.55-1.3,0.93-1.75l0.07-0.08
		l-0.02-0.1c-0.24-1.33-2.64-12.98-12.21-13.5c-4.6-0.25-8.43,0.89-11.06,3.29c-2.03,1.86-3.28,4.47-3.36,6.99
		c-0.11,3.34,0.51,5.73,1.84,7.1c0.91,0.94,2.2,1.42,3.82,1.42c2.02,0,3.63-0.64,4.78-1.88c1.18-1.26,1.81-3.17,1.74-5.25
		c0-0.19-0.03-0.41-0.08-0.64l-0.45-2.01l-0.12-0.04c-0.5-0.15-0.85,0-1.09,0.14c-0.39,0.24-0.58,1.27-0.4,2.15
		c0.31,1.54-0.47,3.07-1.82,3.55c-0.81,0.29-1.65,0.23-2.39-0.17c-0.73-0.4-1.26-1.09-1.46-1.9c-0.68-2.86-0.03-6.78,3.05-8.64
		c2.24-1.36,4.88-1.42,7.25-0.17c2.92,1.54,5.1,4.91,5.27,8.19c0.13,2.31-0.5,4.77-1.8,7.11c-2.95,5.26-9.06,8.81-15.22,8.82
		c-5.25,0-10.19-2.73-12.61-6.97c-1.46-2.57-2.07-5.69-1.76-9.03c0.48-5.12,3.19-10.08,7.24-13.25c1.11-0.88,2.73-0.85,3.77,0.06
		c0.67,0.59,1.03,1.43,1,2.3c-0.02,0.87-0.44,1.68-1.13,2.21c-2.83,2.2-4.72,5.65-5.05,9.22c-0.2,2.1,0.16,4.08,1.02,5.58
		c1.38,2.4,4.39,4.01,7.51,4.01c4.04,0,8.2-2.4,10.12-5.82c0.76-1.36,1.51-3.33,0.79-5.04c-0.13-0.3-0.29-0.61-0.5-0.9l-0.68-0.98
		l0.29,1.16c0.62,2.5-0.16,4.22-1.09,5.71c-0.28,0.46-0.55,0.82-0.84,1.11c-1.27,1.38-3.12,2.11-5.33,2.11
		c-1.84,0-3.31-0.56-4.37-1.66c-1.48-1.53-2.17-4.11-2.05-7.66c0.09-2.72,1.44-5.53,3.61-7.53c1.94-1.78,5.53-3.83,11.62-3.5
		c9.24,0.5,12.12,10.43,12.79,13.47l0.06,0.3l0.26-0.16c1.78-1.07,4.24-0.87,5.95-0.32c2.33,0.76,4.11,2.65,4.87,5.21
		c0.56,1.86,0.52,3.78,0.47,5.63c-0.02,0.74-0.05,1.74-0.01,2.65c0.07,1.35,0.04,2.79,0.03,3.94v0.17
		c-0.01,0.62-0.03,1.21-0.02,1.77c-0.03,0.39-0.22,3.66,2.67,5.07l1.03,0.7c0.05,0.04,0.09,0.11,0.09,0.18
		c0,0.07-0.03,0.13-0.09,0.17l-0.94,0.65c-0.02,0.01-0.04,0.02-0.06,0.03c-2.98,1.48-2.71,4.87-2.7,5.02c0,0.57,0.01,1.11,0.02,1.66
		l0.01,0.42c0.02,1.2,0.04,2.56-0.03,3.88c-0.04,0.92-0.01,1.92,0.01,2.66c0.04,1.85,0.09,3.75-0.47,5.62
		c-0.76,2.55-2.54,4.45-4.87,5.21c-1.71,0.55-4.17,0.76-5.95-0.31l-0.26-0.16l-0.06,0.3c-0.67,3.03-3.55,12.97-12.79,13.46
		C531.94,213.42,528.36,211.37,526.41,209.59 M552.4,230.39c-6.3-0.8-12.26-2.51-13.21-9.56c-0.55-4.15,1.99-4.68,4.45-5.19
		l0.01-0.01c1.98-0.41,4.21-0.86,5.38-3.18c0.74-1.45,0.88-3.2,1.01-4.89c0.25-3.2,0.53-6.82,5.97-6.82c2.44,0,9.86,0,9.86,11.9
		v24.4c0,0.09-0.05,0.16-0.13,0.2c-0.02,0.01-0.05,0.02-0.09,0.02c-0.05,0-0.1-0.02-0.14-0.05l-0.28-0.24
		C564.5,236.39,557.96,231.1,552.4,230.39"/>
	<path class="st0" d="M565.11,235.89v-23.25c0-11.13-6.84-11.13-9.1-11.13c-4.72,0-4.94,2.7-5.2,6.11
		c-0.14,1.76-0.28,3.58-1.09,5.17c-1.34,2.64-3.67,3.12-5.91,3.59c-2.41,0.5-4.31,0.9-3.85,4.34c0.92,6.86,6.96,8.19,12.54,8.9
		c4.82,0.61,10.18,4.4,12.26,5.99L565.11,235.89z M557.65,219.01c-3.43,5.67-10.29,6.84-10.59,6.88c-0.16,0.03-0.31,0.04-0.47,0.04
		c-1.39,0-2.63-1.02-2.87-2.45c-0.27-1.58,0.8-3.09,2.39-3.37c0.04,0,4.54-0.79,6.54-4.16c1.26-2.11,1.3-4.96,0.13-8.46
		c-0.25-0.74-0.19-1.54,0.15-2.24c0.35-0.7,0.95-1.23,1.69-1.48c0.3-0.1,0.62-0.15,0.94-0.15c1.25,0,2.37,0.8,2.77,2
		C560.08,210.86,559.86,215.36,557.65,219.01"/>
	<path class="st0" d="M334.58,313.12c-20.85,0-37.82,18.1-37.82,40.36c0,22.26,16.96,40.37,37.82,40.37
		c20.85,0,37.82-18.11,37.82-40.37C372.4,331.22,355.44,313.12,334.58,313.12 M334.58,388.73c-15.48,0-28.08-15.81-28.08-35.26
		c0-19.44,12.59-35.26,28.08-35.26c15.48,0,28.08,15.81,28.08,35.26C362.66,372.92,350.07,388.73,334.58,388.73"/>
</g>
</svg>
