<?xml version="1.0" encoding="utf-8"?>
<!-- Generator: Adobe Illustrator 27.8.1, SVG Export Plug-In . SVG Version: 6.00 Build 0)  -->
<svg version="1.1" id="Layer_1" xmlns="http://www.w3.org/2000/svg" xmlns:xlink="http://www.w3.org/1999/xlink" x="0px" y="0px"
	 viewBox="0 0 1000 500" style="enable-background:new 0 0 1000 500;" xml:space="preserve">
<style type="text/css">
	.st0{fill:#FFFFFF;}
</style>
<g>
	<rect x="531.66" y="186.58" class="st0" width="10.15" height="126.92"/>
	<path class="st0" d="M573.63,260.68c0.4-0.4,0.86-0.44,1.11-0.41c0.25,0.02,0.7,0.12,1.04,0.58l38.15,52.74h12.53L584,254.9
		c-1.99-2.75-5.07-4.48-8.46-4.75c-3.37-0.26-6.69,0.96-9.1,3.35c-0.65,0.65-1.4,0.74-1.79,0.74c-0.39,0-1.15-0.09-1.8-0.74
		c-0.65-0.65-0.74-1.4-0.74-1.8c0-0.39,0.1-1.15,0.74-1.79l63.33-63.33h-14.36l-56.15,56.15c-2.4,2.39-3.71,5.58-3.71,8.97
		s1.32,6.58,3.71,8.98C560.63,265.63,568.68,265.63,573.63,260.68"/>
	<path class="st0" d="M413.71,184.84c36.44,0,60.55,28.33,60.55,65.16c0,36.83-24.11,65.16-60.55,65.16
		c-36.63,0-60.55-28.33-60.55-65.16C353.16,213.17,377.08,184.84,413.71,184.84 M413.71,194.41c-30.81,0-50.2,23.11-50.2,55.59
		c0,32.28,19.4,55.58,50.2,55.58c30.43,0,50.2-23.3,50.2-55.58C463.91,217.52,444.13,194.41,413.71,194.41"/>
	<path class="st0" d="M678.62,313.51l47.04-114.56l23.14,56.09h-0.17c-5.83,0-11.07,3.87-12.45,9.53
		c-2.03,8.36,4.28,15.85,12.31,15.85h10.77l13.65,33.08h10.98l-16.55-40.1c-0.79-1.9-2.64-3.14-4.69-3.14h-14.03
		c-1.27,0-2.44-0.86-2.65-2.11c-0.27-1.59,0.96-2.97,2.5-2.97h7.89c3.62,0,6.07-3.67,4.7-7.01l-29.54-71.59h-11.79l-52.11,126.92
		H678.62z"/>
	<path class="st0" d="M226.24,313.5V196.74h36.08c19.18,0,29.74,9.59,29.74,27.02c0,16.71-9.54,26.28-26.85,26.98
		c-4.21,0.16-7.97,2.62-9.81,6.41c-1.84,3.8-1.45,8.27,1.02,11.69l32.31,44.67h12.53l-36.61-50.62c-0.59-0.82-0.04-1.96,0.97-2
		c23.03-0.92,36.6-15.2,36.6-37.12c0-22.67-14.51-37.17-39.89-37.17h-46.23V313.5H226.24z"/>
</g>
</svg>
