<?xml version="1.0" encoding="utf-8"?>
<!-- Generator: Adobe Illustrator 27.8.1, SVG Export Plug-In . SVG Version: 6.00 Build 0)  -->
<svg version="1.1" id="Layer_1" xmlns="http://www.w3.org/2000/svg" xmlns:xlink="http://www.w3.org/1999/xlink" x="0px" y="0px"
	 viewBox="0 0 1000 500" style="enable-background:new 0 0 1000 500;" xml:space="preserve">
<style type="text/css">
	.st0{fill:#FFFFFF;}
</style>
<g>
	<polygon class="st0" points="617.88,345.46 617.88,344.01 603.78,333.63 603.78,268.49 641.52,208.94 655.62,198.57 655.62,197.12 
		614.97,197.12 614.97,198.57 629.07,208.94 599.01,256.46 596.31,268.28 593.41,255.83 563.14,208.94 577.24,198.57 577.24,197.12 
		522.5,197.12 522.5,198.57 536.6,208.94 582.01,279.69 582.01,333.63 567.91,344.01 567.91,345.46 	"/>
	<path class="st0" d="M353.92,197.12v1.45l14.1,10.37v81.75c0,39.84,15.97,58.52,64.7,58.52c43.95,0,53.49-23.45,53.49-49.59v-90.68
		l14.1-10.37v-1.45h-38.56v1.45l14.1,10.37v82.99c0,31.12-6.22,46.88-43.12,46.88c-36.92,0-42.93-24.27-42.93-48.13v-81.75
		l14.1-10.37v-1.45H353.92z"/>
	
		<rect x="399.15" y="149.77" transform="matrix(0.7068 -0.7074 0.7074 0.7068 6.9352 336.2762)" class="st0" width="20" height="20"/>
	<polygon class="st0" points="454.33,145.62 440.2,159.77 454.33,173.92 468.48,159.77 	"/>
	<path class="st0" d="M263.31,270.77h-20.12l-1.45-1.45v-60.37l1.45-1.46h25.51c10.57,0,31.93,6.22,31.93,32.38
		C300.63,259.98,283,270.77,263.31,270.77 M292.96,282.8l-9.96-2.91c20.94-3.52,39.4-15.97,39.4-41.49
		c0-38.18-36.29-41.28-48.94-41.28h-67.6v1.45l14.09,10.38v124.69L205.87,344v1.46h49.96V344l-14.1-10.37v-51.03l1.45-1.46h22.4
		l34,52.49l16.18,11.83l21.56,8.92L292.96,282.8z"/>
	<path class="st0" d="M690.87,287.16l23.02-56.02l1.25-5.4l1.86,8.51l21.98,52.91H690.87z M780.24,333.63l-58.06-141.29h-3.73
		l-58.27,141.29L646.08,344v1.46h39.6V344l-14.11-10.37l14.94-36.1h56.61l14.93,36.1L743.95,344v1.46h50.18V344L780.24,333.63z"/>
</g>
</svg>
