<?xml version="1.0" encoding="utf-8"?>
<!-- Generator: Adobe Illustrator 27.8.1, SVG Export Plug-In . SVG Version: 6.00 Build 0)  -->
<svg version="1.1" id="Layer_1" xmlns="http://www.w3.org/2000/svg" xmlns:xlink="http://www.w3.org/1999/xlink" x="0px" y="0px"
	 viewBox="0 0 1000 500" style="enable-background:new 0 0 1000 500;" xml:space="preserve">
<style type="text/css">
	.st0{fill:#FFFFFF;}
</style>
<g>
	<polygon class="st0" points="685.88,732.16 695,732.16 711.22,760.59 723.13,739.83 709.71,739.83 705.26,732.16 736.58,732.16 
		711.23,776.86 	"/>
	<path class="st0" d="M603.22,762.2c-0.53-1.15-1.25-2.12-2.13-2.87c-0.87-0.74-1.88-1.34-3-1.78c-1.1-0.43-2.23-0.81-3.38-1.12
		c-1.15-0.32-2.28-0.61-3.36-0.88c-1.06-0.26-2.03-0.6-2.88-1c-0.82-0.39-1.48-0.89-1.97-1.51c-0.47-0.59-0.72-1.38-0.72-2.36
		c0-1.06,0.17-1.95,0.51-2.65c0.34-0.7,0.79-1.26,1.35-1.67c0.56-0.42,1.22-0.72,1.95-0.9c0.74-0.18,1.51-0.28,2.28-0.28
		c1.89,0,3.45,0.53,4.65,1.56c1.14,0.98,1.29,1.48,1.83,3.32l0.14,0.48h4.14l-0.05-0.55c-0.14-1.58-0.15-1.79-0.7-3.11
		c-0.57-1.37-1.35-2.53-2.3-3.44c-0.96-0.91-2.1-1.59-3.39-2.01c-1.28-0.42-2.68-0.63-4.17-0.63c-1.33,0-2.64,0.2-3.9,0.61
		c-1.27,0.4-2.42,1.03-3.41,1.85c-1,0.83-1.81,1.9-2.41,3.18c-0.6,1.28-0.9,2.81-0.9,4.55c0,1.59,0.27,2.92,0.81,3.97
		c0.54,1.04,1.26,1.92,2.16,2.61c0.88,0.68,1.9,1.23,3.01,1.63c1.09,0.4,2.23,0.74,3.38,1.03c1.11,0.28,2.24,0.57,3.34,0.87
		c1.06,0.29,2.02,0.67,2.85,1.11c0.81,0.44,1.46,1,1.96,1.69c0.48,0.67,0.72,1.58,0.72,2.68c0,1.18-0.2,2.15-0.6,2.9
		c-0.4,0.74-0.93,1.34-1.58,1.77c-0.66,0.43-1.41,0.75-2.23,0.93c-1.92,0.42-3.83,0.36-5.55-0.18c-0.95-0.3-1.8-0.77-2.53-1.41
		c-0.72-0.63-1.32-1.45-1.76-2.44c-0.45-0.99-0.46-1.02-0.68-2.66l-0.03-0.25h-4.18l0.03,0.32c0.19,2.2,0.31,2.93,0.96,4.48
		c0.64,1.53,1.52,2.82,2.63,3.82c1.1,1,2.4,1.76,3.86,2.24c1.45,0.48,3.01,0.73,4.63,0.73c1.33,0,2.68-0.19,4.02-0.58
		c1.35-0.39,2.58-1,3.67-1.83c1.1-0.83,2-1.91,2.7-3.22c0.7-1.32,1.05-2.92,1.05-4.76C604.02,764.79,603.75,763.36,603.22,762.2"/>
	<polygon class="st0" points="840.86,740.82 840.86,767.14 825.92,740.82 823.58,740.82 820.25,740.82 818.66,740.82 818.66,776.86 
		823.58,776.86 823.58,746.7 840.71,776.86 840.86,776.82 840.86,776.86 845.78,776.86 845.78,740.82 	"/>
	<polygon class="st0" points="763.08,740.82 763.08,745.56 763.08,755.22 763.08,759.96 763.08,772.12 763.08,776.86 768,776.86 
		787.95,776.86 787.95,772.12 768,772.12 768,759.96 781.13,759.96 781.13,755.22 768,755.22 768,745.56 787.95,745.56 
		787.95,740.82 768,740.82 	"/>
	<polygon class="st0" points="634.79,740.82 634.79,745.56 634.79,755.22 634.79,759.96 634.79,772.12 634.79,776.86 639.72,776.86 
		659.67,776.86 659.67,772.12 639.72,772.12 639.72,759.96 652.85,759.96 652.85,755.22 639.72,755.22 639.72,745.56 659.67,745.56 
		659.67,740.82 639.72,740.82 	"/>
</g>
<g>
	<polygon class="st0" points="436.27,197.74 457.6,197.74 495.52,264.22 523.37,215.7 492,215.7 481.6,197.74 554.83,197.74 
		495.55,302.26 	"/>
	<path class="st0" d="M243.01,268c-1.25-2.7-2.92-4.95-4.98-6.71c-2.04-1.74-4.4-3.14-7.01-4.16c-2.56-1-5.22-1.88-7.91-2.63
		c-2.68-0.74-5.32-1.43-7.86-2.05c-2.49-0.61-4.75-1.4-6.72-2.34c-1.92-0.91-3.47-2.09-4.61-3.52c-1.11-1.38-1.67-3.24-1.67-5.51
		c0-2.47,0.4-4.55,1.19-6.19c0.79-1.63,1.85-2.94,3.15-3.9c1.32-0.98,2.85-1.68,4.55-2.1c1.74-0.43,3.54-0.65,5.34-0.65
		c4.41,0,8.07,1.23,10.88,3.65c2.67,2.3,3.01,3.46,4.28,7.77l0.33,1.13h9.68l-0.11-1.28c-0.32-3.7-0.36-4.18-1.64-7.27
		c-1.34-3.21-3.15-5.92-5.39-8.05c-2.24-2.13-4.91-3.71-7.91-4.7c-2.99-0.98-6.27-1.48-9.74-1.48c-3.11,0-6.18,0.48-9.13,1.42
		c-2.97,0.95-5.65,2.41-7.98,4.34c-2.34,1.94-4.24,4.44-5.64,7.44c-1.4,2.99-2.12,6.57-2.12,10.64c0,3.71,0.64,6.83,1.89,9.28
		c1.25,2.44,2.95,4.49,5.05,6.1c2.07,1.59,4.44,2.87,7.04,3.81c2.56,0.93,5.22,1.74,7.91,2.41c2.6,0.65,5.23,1.33,7.82,2.04
		c2.49,0.69,4.73,1.56,6.67,2.6c1.89,1.02,3.43,2.35,4.57,3.95c1.12,1.58,1.7,3.68,1.7,6.26c0,2.75-0.48,5.03-1.41,6.78
		c-0.94,1.74-2.18,3.13-3.69,4.13c-1.54,1.02-3.29,1.75-5.22,2.17c-4.48,0.98-8.96,0.85-12.98-0.43c-2.23-0.7-4.21-1.81-5.91-3.29
		c-1.69-1.48-3.08-3.4-4.12-5.7c-1.05-2.32-1.07-2.38-1.58-6.22l-0.08-0.59h-9.77l0.06,0.74c0.45,5.15,0.73,6.85,2.24,10.48
		c1.49,3.58,3.56,6.59,6.14,8.94c2.58,2.35,5.62,4.11,9.02,5.24c3.39,1.13,7.03,1.7,10.82,1.7c3.1,0,6.26-0.46,9.39-1.36
		c3.15-0.91,6.04-2.35,8.58-4.27c2.56-1.94,4.68-4.47,6.31-7.54c1.63-3.08,2.46-6.82,2.46-11.12
		C244.89,274.05,244.26,270.7,243.01,268"/>
	<polygon class="st0" points="798.62,218.01 798.62,279.54 763.7,218.01 758.23,218.01 750.44,218.01 746.72,218.01 746.72,302.26 
		758.23,302.26 758.23,231.75 798.27,302.26 798.62,302.17 798.62,302.26 810.13,302.26 810.13,218.01 	"/>
	<polygon class="st0" points="616.77,218.01 616.77,229.08 616.77,251.67 616.77,262.74 616.77,291.18 616.77,302.26 628.28,302.26 
		674.93,302.26 674.93,291.18 628.28,291.18 628.28,262.74 658.99,262.74 658.99,251.67 628.28,251.67 628.28,229.08 674.93,229.08 
		674.93,218.01 628.28,218.01 	"/>
	<polygon class="st0" points="316.84,218.01 316.84,229.08 316.84,251.67 316.84,262.74 316.84,291.18 316.84,302.26 328.35,302.26 
		375,302.26 375,291.18 328.35,291.18 328.35,262.74 359.06,262.74 359.06,251.67 328.35,251.67 328.35,229.08 375,229.08 
		375,218.01 328.35,218.01 	"/>
</g>
</svg>
