<?xml version="1.0" encoding="utf-8"?>
<!-- Generator: Adobe Illustrator 27.8.1, SVG Export Plug-In . SVG Version: 6.00 Build 0)  -->
<svg version="1.1" id="Layer_1" xmlns="http://www.w3.org/2000/svg" xmlns:xlink="http://www.w3.org/1999/xlink" x="0px" y="0px"
	 viewBox="0 0 1000 500" style="enable-background:new 0 0 1000 500;" xml:space="preserve">
<style type="text/css">
	.st0{fill:#FFFFFF;}
</style>
<g>
	<path class="st0" d="M332.56,311.01v-65.39c0.16-6.5-1.23-12.45-4.15-17.83c-2.92-5.38-8.33-9.69-16.22-12.94
		c-7.89-3.24-19.21-4.91-33.95-4.99c-8.15-0.07-16.01,0.93-23.57,2.98c-7.56,2.06-14.1,5.57-19.6,10.52
		c-5.5,4.96-9.23,11.76-11.19,20.41l35.75,7.58c1.15-4.64,2.98-8.28,5.48-10.91c2.5-2.63,6.33-3.97,11.51-4.02
		c4.02-0.07,7.4,0.81,10.16,2.64c2.76,1.83,4.19,5.01,4.3,9.53v10.11c-12.03-0.01-23.56,1.31-34.62,3.95
		c-11.05,2.65-20.14,7.14-27.26,13.48c-7.12,6.34-10.81,15.05-11.06,26.13c0.05,1.96,0.19,3.79,0.4,5.56
		c-0.91,0.19-1.86,0.37-2.86,0.56c-1.86,0.34-3.35,0.52-4.47,0.55c-3.51,0.03-6.36-0.78-8.55-2.41c-2.19-1.64-3.32-4.28-3.38-7.92
		v-57.59h20.41v-27.95h-20.41v-42.89h-37.82l-2.98,42.89h-20.18v27.95h17.89v64.25c-0.3,10.9,2.59,19.12,8.68,24.66
		c6.09,5.54,17.18,8.32,33.26,8.33c3.25-0.01,6.83-0.22,10.75-0.63c3.91-0.41,7.9-0.96,11.95-1.66v-18.23
		c1.05,2.71,2.38,5.08,4.03,7.1c4.26,5.22,9.17,8.79,14.73,10.71c5.56,1.91,10.4,2.82,14.52,2.71c6.86-0.03,13.52-1.28,19.97-3.75
		c6.45-2.47,12.19-5.95,17.21-10.44c0.12,1.97,0.34,3.92,0.66,5.83c0.32,1.92,0.71,3.63,1.18,5.15h44.24
		c-2.11-3.45-3.45-7.71-4.04-12.8C332.75,317.19,332.49,313.44,332.56,311.01 M290.85,304.82c-3.05,2.19-5.96,3.89-8.75,5.08
		c-2.79,1.19-5.76,1.79-8.92,1.81c-2.56,0.01-5.36-1.05-8.38-3.19c-3.02-2.14-4.67-5.44-4.93-9.9c0.15-4.76,1.91-8.45,5.28-11.07
		c3.37-2.62,7.42-4.52,12.17-5.71c4.74-1.19,9.26-2.02,13.54-2.5V304.82z"/>
	<path class="st0" d="M440.08,267.82c-9.58-6.56-24.06-11.05-43.43-13.48c-7.33-0.84-12.41-1.86-15.23-3.04
		c-2.82-1.19-4.17-3-4.04-5.45c0.11-3.6,1.72-6.09,4.82-7.45c3.1-1.37,7-2.02,11.7-1.95c4.91,0.03,10.01,1.12,15.32,3.27
		c5.31,2.15,8.92,5.19,10.84,9.12l25.44-14.91c-5.59-9.42-13.37-15.84-23.33-19.25c-9.95-3.41-20.14-5.01-30.57-4.81
		c-16.52,0.32-29.34,4.55-38.43,12.66c-9.1,8.12-13.71,18.19-13.84,30.2c-0.03,3.87,0.72,7.95,2.23,12.25
		c1.52,4.29,3.98,8.32,7.39,12.07c3.64,4.03,8.68,7.16,15.13,9.38c6.45,2.22,15.16,4.14,26.14,5.77c7.68,1.22,13.29,2.43,16.83,3.63
		c3.54,1.2,5.79,2.43,6.73,3.68c0.94,1.25,1.35,2.56,1.22,3.93c-0.06,2.71-1.77,4.98-5.13,6.8c-3.36,1.82-8,2.77-13.91,2.84
		c-7.62,0.09-14.24-1.12-19.84-3.64c-5.61-2.52-10.62-6.89-15.02-13.11l-25.44,16.29c6.82,9.59,15.01,16.3,24.56,20.13
		c9.54,3.84,20.08,5.68,31.62,5.53c22.47-0.2,38.58-4.16,48.33-11.89c9.74-7.73,14.5-18.06,14.27-30.98
		C454.46,283.58,449.67,274.38,440.08,267.82"/>
	<path class="st0" d="M554.28,212.72c-5.41-2-10.17-2.95-14.29-2.84c-7.92,0.2-15.19,2.32-21.83,6.36
		c-6.63,4.04-12.59,8.79-17.87,14.26v-68.78H457.2v173.36h43.09v-83.94c3.09-2.97,6.16-5.52,9.21-7.66
		c3.06-2.14,6.18-3.25,9.38-3.35c5.37,0.19,8.92,2.04,10.67,5.56c1.75,3.52,2.56,7.55,2.41,12.1v77.29h43.09v-88.3
		c-0.22-9.98-2.38-17.65-6.49-23.01C564.45,218.4,559.69,214.72,554.28,212.72"/>
	<path class="st0" d="M793.91,267.82c-9.58-6.56-24.06-11.05-43.42-13.48c-7.33-0.84-12.41-1.85-15.23-3.04
		c-2.82-1.19-4.17-3-4.04-5.45c0.11-3.6,1.72-6.09,4.82-7.46c3.1-1.37,7-2.02,11.71-1.95c4.91,0.03,10.01,1.12,15.32,3.27
		c5.3,2.15,8.92,5.19,10.84,9.12l25.44-14.91c-5.59-9.42-13.37-15.84-23.33-19.24c-9.95-3.41-20.14-5.01-30.57-4.81
		c-16.52,0.32-29.34,4.54-38.43,12.66c-9.1,8.12-13.71,18.18-13.84,30.2c-0.03,3.87,0.72,7.95,2.23,12.25
		c1.52,4.3,3.98,8.32,7.39,12.08c3.64,4.03,8.68,7.16,15.13,9.38c6.45,2.22,15.16,4.14,26.14,5.77c7.68,1.22,13.29,2.43,16.83,3.63
		c3.55,1.2,5.79,2.43,6.73,3.68c0.94,1.25,1.35,2.56,1.22,3.94c-0.06,2.71-1.77,4.97-5.13,6.8c-3.36,1.82-8,2.77-13.91,2.84
		c-7.62,0.09-14.24-1.12-19.85-3.64c-5.61-2.52-10.61-6.89-15.02-13.11l-24.32,15.57c0-0.31,0-0.61,0.01-0.89v-65.39
		c0.16-6.5-1.23-12.45-4.15-17.83c-2.92-5.38-8.33-9.69-16.22-12.94c-7.89-3.24-19.21-4.91-33.95-4.99
		c-8.15-0.07-16.01,0.93-23.57,2.98c-7.56,2.06-14.1,5.57-19.6,10.52c-5.5,4.96-9.23,11.76-11.19,20.41l35.75,7.58
		c1.15-4.64,2.98-8.28,5.48-10.91c2.5-2.63,6.34-3.97,11.51-4.02c4.02-0.07,7.4,0.81,10.16,2.64c2.75,1.83,4.19,5.01,4.3,9.53v10.11
		c-12.03-0.01-23.56,1.31-34.62,3.95c-11.05,2.65-20.14,7.14-27.26,13.48c-7.12,6.34-10.81,15.05-11.05,26.13
		c0.23,9.83,2.47,17.36,6.73,22.58c4.26,5.22,9.17,8.79,14.73,10.71c5.56,1.91,10.4,2.82,14.52,2.71
		c6.86-0.03,13.52-1.28,19.97-3.75c6.45-2.47,12.19-5.95,17.2-10.44c0.12,1.97,0.34,3.92,0.66,5.83c0.32,1.92,0.71,3.63,1.18,5.15
		h44.24c-2.11-3.45-3.45-7.71-4.04-12.8c-0.37-3.24-0.61-5.93-0.72-8.09c6.58,8.74,14.36,14.95,23.37,18.57
		c9.55,3.83,20.09,5.68,31.62,5.53c22.47-0.19,38.58-4.16,48.33-11.89c9.74-7.73,14.5-18.05,14.27-30.98
		C808.28,283.58,803.49,274.38,793.91,267.82 M648.91,304.82c-3.05,2.19-5.96,3.89-8.75,5.08c-2.79,1.19-5.76,1.79-8.92,1.81
		c-2.56,0.01-5.36-1.05-8.38-3.19c-3.02-2.14-4.67-5.44-4.93-9.9c0.15-4.76,1.91-8.45,5.28-11.07c3.37-2.62,7.42-4.52,12.17-5.71
		c4.74-1.19,9.26-2.02,13.54-2.5V304.82z"/>
	<path class="st0" d="M848.49,228.7c0.74-1.24,1.1-2.55,1.1-3.9c0-1.77-0.65-3.4-1.97-4.88c-1.31-1.49-3.33-2.23-6.05-2.23h-10.03
		v25.5h2.98v-11.05h7.31l4.67,11.05h3.35l-5.01-11.81C846.54,230.84,847.75,229.95,848.49,228.7 M841.17,229.54h-6.64v-9.06h7.03
		c1.39,0,2.54,0.37,3.45,1.12c0.91,0.75,1.37,1.79,1.37,3.14c0,1.35-0.43,2.48-1.29,3.41C844.22,229.08,842.92,229.54,841.17,229.54
		"/>
	<path class="st0" d="M840.45,208.93c-11.7,0-21.23,9.52-21.23,21.23c0,11.7,9.52,21.23,21.23,21.23c11.7,0,21.23-9.52,21.23-21.23
		C861.68,218.45,852.16,208.93,840.45,208.93 M840.45,249.54c-10.69,0-19.39-8.7-19.39-19.39s8.7-19.39,19.39-19.39
		c10.69,0,19.39,8.7,19.39,19.39S851.14,249.54,840.45,249.54"/>
</g>
</svg>
