<?xml version="1.0" encoding="utf-8"?>
<!-- Generator: Adobe Illustrator 27.8.1, SVG Export Plug-In . SVG Version: 6.00 Build 0)  -->
<svg version="1.1" id="Layer_1" xmlns="http://www.w3.org/2000/svg" xmlns:xlink="http://www.w3.org/1999/xlink" x="0px" y="0px"
	 viewBox="0 0 1000 500" style="enable-background:new 0 0 1000 500;" xml:space="preserve">
<style type="text/css">
	.st0{fill-rule:evenodd;clip-rule:evenodd;fill:#FFFFFF;}
</style>
<g>
	<path class="st0" d="M425.81,397.59c-3.33,0-3.88,3.09-3.88,3.98c0,1.7,0.84,2.64,1.88,2.64c1.45,0,1.94-0.86,1.94-1.91
		c0-1.26-1.32-0.81-1.32-1.79c0-0.94,0.9-1.43,1.59-1.43c1.18,0,2.04,0.94,2.04,2.64c0,2.19-1.9,3.54-3.39,4.43
		c-8.45,5.08-10.19,6.02-10.19,9.55c0,1.87,0.8,3.82,2.77,3.82c1.18,0,2.22-0.69,2.22-1.58c0-0.48-0.28-0.57-0.45-0.57
		c-0.41,0-0.62,0.65-1.39,0.65c-0.62,0-1.14-0.93-1.14-1.71c0-1.59,1.21-2.68,2.53-2.68c2.28,0,2.7,2.56,2.56,4.67
		c-0.21,3.25-3.81,6.3-7.28,6.3c-4.4,0-7.34-4.79-7.34-9.6c0-1.75,0.24-4.39,2.15-6.09c0.52,1.7,1.77,3.16,3.67,3.16
		c1.46,0,2.77-1.13,2.77-2.92c0-1.99-1.39-3.17-3.05-3.17c-0.73,0-1.53,0.2-2.22,0.52c-0.04-0.36-0.07-0.69-0.07-1.01
		c0-4.51,3.57-5.9,4.58-5.9c1.83,0,2.01,1.63,2.01,1.91c0,1.18-0.62,1.18-0.62,1.63c0,0.36,0.62,0.48,1.14,0.48
		c1.83,0,2.84-1.58,2.84-2.72c0-2.77-2.04-3.86-4.54-3.86c-4.16,0-7,4.75-7,8.25c0,0.57,0.03,1.18,0.1,1.87
		c-1.87,1.06-6.13,4.23-6.13,10.29c0,5.4,3.74,9.02,9.66,9.02c6.55,0,12.02-5.01,12.02-10.29c0-0.89,0.07-2.76-1.32-4.55
		c3.12-1.99,7.01-4.06,7.01-8.86C429.97,399.91,428.37,397.59,425.81,397.59 M411.75,407.59c1.07,0,1.56,0.49,1.56,1.35
		c0,0.65-0.42,1.18-1.08,1.18c-0.87-0.04-1.56-0.89-1.73-2.2C410.88,407.71,411.26,407.59,411.75,407.59"/>
	<path class="st0" d="M456.99,402.95v-5.08c0-0.4-0.31-0.44-0.73-0.44c-0.76,0-4.3,0.16-12.12,0.16c-2.22,0-4.4-0.16-6.62-0.16
		c-0.1,0-0.79,0-0.79,0.52c0,1.42,3.35,0.04,3.35,3.05c0,0.65-0.1,1.58-0.31,3.41l-1.8,17.39c-0.38,3.74-2.98,2.11-2.98,3.98
		c0,0.25,0.17,0.41,0.65,0.41c1.56,0,2.77-0.16,5.96-0.16c0.66,0.08,1.97,0.16,3.22,0.16c0.51,0,1.39-0.04,1.39-0.85
		c0-1.91-3.74,0.36-3.74-4.39c0-0.86,0.38-7.97,1.07-8.46c0.24-0.16,0.73-0.45,1.35-0.45h2.05c4.61,0,3.29,4.43,4.47,4.43
		c0.17,0,0.41-0.03,0.45-0.45c0.1-1.22,0.8-8.01,0.8-8.61c0-0.41-0.04-0.77-0.45-0.77c-1.17,0-0.62,3.74-4.92,3.74h-3.01
		c-0.69,0-0.66-1.14-0.66-1.87c0-1.02,0.45-8,1.28-8.91c0.45-0.48,1.69-0.4,2.29-0.4c6.89,0,7.31,0.89,7.87,1.46
		c0.8,0.85,0.48,3.33,1.49,3.33C456.89,404.01,456.99,403.69,456.99,402.95"/>
	<path class="st0" d="M459.36,401.85c0,0.61,1.25,3.05,1.94,3.05c0.66,0,2.46-2.44,2.46-3.05c0-0.61-1.25-3.05-1.94-3.05
		C461.16,398.81,459.36,401.24,459.36,401.85"/>
	<path class="st0" d="M461.51,423.08c-0.62,0-0.76-0.77-0.76-1.26c0-3.26,2.04-12.15,2.04-12.84c0-0.25-0.32-0.37-0.49-0.37
		c-0.52,0-1.8,0.41-5.2,0.61c-0.69,0.04-1.04,0.28-1.04,0.73c0,1.1,2.39,0.36,2.39,1.76c0,0.2-1.52,8.28-1.52,11.17
		c0,1.83,0.35,3.62,2.08,3.62c3.53,0,5.4-4.39,5.4-5.28c0-0.28-0.17-0.49-0.45-0.49C463.21,420.71,462.66,423.08,461.51,423.08"/>
	<path class="st0" d="M480.6,423.23c-0.45,0-0.66-0.52-0.66-1.21c0-0.49,0.21-2.04,0.42-3.79c0.18-1.78,0.38-3.7,0.38-4.87
		c0-2.48-1.11-4.76-3.5-4.76c-3.11,0-4.85,2.12-6.34,4.63h-0.07c0-1.83-0.31-4.63-2.39-4.63c-1.77,0-4.06,3.41-4.06,5.29
		c0,0.4,0.18,0.65,0.42,0.65c0.84,0,0.87-1.99,1.9-1.99c0.52,0,1.14,0.41,1.14,2.27c0,1.38-1.66,10.41-1.66,10.69
		c0,0.24,0,0.52,0.31,0.52h3.15c0.38,0,0.41-1.13,0.48-1.54c0.59-3.78,1.18-13.7,5.17-13.7c1.77,0,1.84,2.48,1.84,3.13
		c0,0.4-0.25,2.4-0.49,4.47c-0.25,2.03-0.48,4.14-0.48,4.83c0,0.25-0.17,3.26,2.14,3.26c3.13,0,5.03-3.82,5.03-4.6
		c0-0.28-0.1-0.52-0.45-0.52C482.19,421.37,481.78,423.23,480.6,423.23"/>
	<path class="st0" d="M496.84,411.82c0-2.23-2.15-3.22-3.74-3.22c-4.15,0-9.22,3.95-9.22,11.88c0,3.82,2.32,6.01,5.51,6.01
		c5.06,0,7.28-3.95,7.28-4.31c0-0.45-0.28-0.57-0.42-0.57c-0.93,0-1.7,2.39-4.44,2.39c-3.15,0-4.33-2.48-4.12-5.85
		C490.61,417.83,496.84,416.12,496.84,411.82 M487.77,416.81c0-2.68,1.59-6.66,4.19-6.66c0.93,0,1.38,0.97,1.38,1.94
		C493.34,415.15,490.05,416.94,487.77,416.81"/>
	<path class="st0" d="M517.68,401.66c0.14-1.46,0.14-2.17,2.77-2.17h2.56c2.11,0,1.98,4.77,3.02,4.77c0.31,0,0.52-0.25,0.52-0.74
		v-5.65c0-0.45-0.76-0.45-1.08-0.45c-3.39,0-6.75,0.17-10.16,0.17c-3.39,0-6.79-0.17-10.18-0.17c-0.31,0-0.45,0.4-0.55,0.89
		c-0.21,1.06-1.18,5.32-1.18,6.71c0,0.36,0.18,0.52,0.49,0.52c0.72,0,0.72-0.6,1.67-3.45c0.76-2.36,3.11-2.56,5.5-2.56
		c1.15,0,2.43-0.25,2.43,1.18c0,0.29,0,0.49-0.07,1.1l-2.18,20.04c-0.41,3.82-2.91,2.32-2.91,3.49c0,0.89,0.86,0.85,1.5,0.85
		c1.34,0,2.7-0.17,4.04-0.17c1.53,0,2.61,0.17,4.47,0.17c0.59,0,1.04,0,1.04-0.77c0-1.58-3.43,0.69-3.43-3.9
		c0-0.69,0-1.01,0.04-1.46L517.68,401.66z"/>
	<path class="st0" d="M535.59,411.82c0-2.23-2.15-3.22-3.74-3.22c-4.16,0-9.21,3.95-9.21,11.88c0,3.82,2.31,6.01,5.51,6.01
		c5.05,0,7.27-3.95,7.27-4.31c0-0.45-0.27-0.57-0.42-0.57c-0.93,0-1.7,2.39-4.43,2.39c-3.15,0-4.33-2.48-4.12-5.85
		C529.35,417.83,535.59,416.12,535.59,411.82 M526.52,416.81c0-2.68,1.59-6.66,4.19-6.66c0.93,0,1.39,0.97,1.39,1.94
		C532.09,415.15,528.8,416.94,526.52,416.81"/>
	<path class="st0" d="M560.72,408.6c-2.43,0-5.48,1.43-5.48,4.8c0,4.52,5.72,5.53,5.72,9.19c0,1.66-0.94,2.76-2.36,2.76
		c-2.91,0-1.31-4.1-3.56-4.1c-0.45,0-1.03,0.2-1.41,0.71c0.02-0.14,0.11-0.31,0.11-0.43c0-0.2-0.15-0.37-0.42-0.37
		c-0.76,0-0.93,2.07-2.04,2.07c-0.63,0-1.01-0.36-1.01-1.91c0-1.87,1.91-13.33,1.91-13.78c0-0.29-0.04-0.61-0.45-0.61
		c-0.87,0-1.35,2.76-2.78,2.76c-0.38,0-1.42-1.1-3.19-1.1c-5.47,0-8.94,6.51-8.94,12.24c0,3.01,1.6,5.64,4.3,5.64
		c2.28,0,3.91-1.71,5.48-3.58c0.2,1.05,0.56,3.58,2.56,3.58c1.82,0,3.39-1.75,4.13-3.34c0.04,1.23,1.19,3.34,4.86,3.34
		c2.88,0,5.83-1.83,5.83-5.57c0-5.04-5.76-6.54-5.76-9.14c0-1.87,1.39-1.91,1.56-1.91c2.08,0,1.66,3.22,3.3,3.22
		c0.97,0,1.59-0.41,1.59-1.71C564.67,409.62,562.59,408.6,560.72,408.6 M546.57,419.01c-0.49,2.24-1.21,4.55-3.57,4.55
		c-1.77,0-2.25-2.35-2.25-3.98c0-3.33,1.46-9.8,5.09-9.8c1.01,0,2.02,0.53,2.02,1.88C547.85,412.99,546.88,417.55,546.57,419.01"/>
	<path class="st0" d="M482.57,368.72c0-9.63-6.1-14.07-11.81-14.07c-7.9,0-13.31,7.48-13.31,16.34c0,8.5,5.37,13.09,11.54,13.09
		C478.76,384.09,482.57,376.08,482.57,368.72 M462.26,371c0-9.22,3.53-14.79,8.28-14.79c1.83,0,7.27,1.67,7.27,12.19
		c0,6.71-2.11,13.98-8.45,13.98C465.59,382.37,462.26,378.6,462.26,371"/>
	<path class="st0" d="M485.6,369.94c1.14,0,1.22,2.15,1.22,2.77c0,1.26-1.25,9.39-1.25,10.32c0,0.73,0.48,0.61,1.91,0.61
		c1.39,0,1.59,0.08,1.73-1.02l1.15-8.09c0.55-3.98,1.66-5.61,2.35-5.61c0.73,0,1.42,2.12,2.19,2.12c0.76,0,1.14-3.42,1.14-3.62
		c0-0.86-0.83-1.22-1.53-1.22c-2.43,0-3.75,2.44-4.93,4.55c-0.42-2.44-0.62-4.55-2.07-4.55c-1.46,0-4.06,2.32-4.06,5.16
		c0,0.57,0.11,0.81,0.49,0.81C484.59,372.18,484.49,369.94,485.6,369.94"/>
	<path class="st0" d="M509.01,385.83c0-3.49-2.8-4.35-5.2-4.91c-2.04-0.49-4.09-0.65-4.09-1.87c0-0.61,0.42-0.77,0.52-0.77
		c0.17,0,0.66,0.28,1.63,0.28c3.26,0,6.58-2.03,6.58-6.34c0-1.38-0.41-3.01-1.11-4.11c0.86,0.16,1.83,1.3,2.77,1.3
		c0.76,0,1.24-0.98,1.24-1.74c0-1.06-0.51-1.47-1.07-1.47c-0.73,0-0.7,0.81-2.39,0.81c-1.81,0-3.54-0.81-5.38-0.81
		c-3.22,0-5.69,2.44-5.69,6.38c0,3.87,1.98,4.4,1.98,5.05c0,0.69-1.42,0.81-1.42,3.5c0,0.52,0.42,1.3,0.42,1.62
		c0,0.4-3.19,0.65-3.19,4.15c0,3.86,4.4,4.67,6.9,4.67C504.75,391.57,509.01,390.55,509.01,385.83 M502.88,367.47
		c1.7,0,1.98,2.47,1.98,4.02c0,1.79-0.28,5.61-2.39,5.61c-1.28,0-2.01-1.34-2.01-3.46C500.45,369.9,501.22,367.47,502.88,367.47
		 M502.05,390.27c-1.98,0-4.79-1.14-4.79-3.99c0-2.06,1.43-2.39,1.56-2.39c0.28,0,4.09,1.35,4.89,1.67
		c1.25,0.49,1.97,1.05,1.97,2.11C505.68,389.82,503.5,390.27,502.05,390.27"/>
	<path class="st0" d="M525.08,364.54c-0.87,0-1.35,2.76-2.77,2.76c-0.38,0-1.42-1.1-3.19-1.1c-5.47,0-8.94,6.5-8.94,12.23
		c0,3.01,1.59,5.66,4.3,5.66c2.29,0,3.91-1.71,5.48-3.58c0.21,1.06,0.55,3.58,2.56,3.58c2.5,0,4.58-3.3,4.58-4.96
		c0-0.2-0.14-0.36-0.41-0.36c-0.77,0-0.94,2.08-2.05,2.08c-0.63,0-1.01-0.37-1.01-1.92c0-1.87,1.91-13.33,1.91-13.77
		C525.53,364.86,525.5,364.54,525.08,364.54 M519.92,376.61c-0.48,2.24-1.22,4.55-3.57,4.55c-1.77,0-2.25-2.36-2.25-3.98
		c0-3.34,1.45-9.8,5.09-9.8c1,0,2.01,0.53,2.01,1.87C521.2,370.6,520.23,375.14,519.92,376.61"/>
	<path class="st0" d="M538.98,371.53c0,0.4-0.24,2.4-0.48,4.48c-0.24,2.03-0.48,4.14-0.48,4.84c0,0.24-0.18,3.26,2.15,3.26
		c3.11,0,5.02-3.82,5.02-4.6c0-0.29-0.1-0.54-0.45-0.54c-0.7,0-1.11,1.88-2.3,1.88c-0.45,0-0.65-0.54-0.65-1.22
		c0-0.49,0.21-2.03,0.42-3.77c0.18-1.79,0.38-3.71,0.38-4.88c0-2.48-1.11-4.76-3.5-4.76c-3.12,0-4.85,2.11-6.34,4.64h-0.07
		c0-1.83-0.32-4.64-2.39-4.64c-1.77,0-4.06,3.41-4.06,5.29c0,0.4,0.17,0.64,0.42,0.64c0.82,0,0.86-1.99,1.9-1.99
		c0.52,0,1.14,0.41,1.14,2.27c0,1.39-1.66,10.41-1.66,10.69c0,0.24,0,0.53,0.31,0.53h3.15c0.39,0,0.42-1.14,0.48-1.55
		c0.6-3.77,1.18-13.69,5.17-13.69C538.92,368.4,538.98,370.88,538.98,371.53"/>
	<path class="st0" d="M548.29,384.09c3.54,0,5.4-4.39,5.4-5.29c0-0.28-0.17-0.48-0.45-0.48c-0.75,0-1.31,2.35-2.46,2.35
		c-0.62,0-0.76-0.77-0.76-1.26c0-3.25,2.04-12.15,2.04-12.84c0-0.24-0.31-0.36-0.48-0.36c-0.52,0-1.8,0.41-5.2,0.6
		c-0.69,0.04-1.04,0.29-1.04,0.73c0,1.1,2.39,0.37,2.39,1.74c0,0.21-1.52,8.3-1.52,11.18C546.21,382.3,546.56,384.09,548.29,384.09"
		/>
	<path class="st0" d="M553.04,359.46c0-0.6-1.25-3.05-1.94-3.05c-0.66,0-2.46,2.45-2.46,3.05c0,0.61,1.24,3.05,1.94,3.05
		C551.24,362.5,553.04,360.07,553.04,359.46"/>
	<path class="st0" d="M563.45,366.2c-5.44,0-9.01,5.56-9.01,11.26c0,2.64,1.07,6.63,6.13,6.63c3.88,0,6.34-3.17,6.34-4.35
		c0-0.24-0.21-0.41-0.41-0.41c-0.97,0-1.17,2.28-4.05,2.28c-3.54,0-4.19-3.83-4.19-6.58c0-2.45,0.86-7.36,3.6-7.36
		c2.67,0,2.25,3.78,4.3,3.78c0.69,0,1.66-0.57,1.66-2.28C567.82,367.26,565.32,366.2,563.45,366.2"/>
	<path class="st0" d="M597.55,356.57c-0.66,0-0.9,0.73-1.39,0.73c-0.79,0-2.74-2.64-7.66-2.64c-8,0-11.95,8.74-11.95,15.65
		c0,7.6,3.99,13.78,10.85,13.78c5.17,0,9.71-5.81,9.71-7.56c0-0.41-0.24-0.52-0.52-0.52c-0.8,0-2.84,5.35-7.72,5.35
		c-5.28,0-7.62-6.94-7.62-12.11c0-11.63,5.47-12.88,7.68-12.88c6.76,0,7.38,9.35,8.73,9.35c0.56,0,0.45-0.45,0.45-1.55v-5.97
		C598.1,357.71,598.13,356.57,597.55,356.57"/>
	<path class="st0" d="M606.11,366.21c-3.88,0-7.97,3.86-7.97,9.95c0,3.13,1.21,7.93,6.2,7.93c5.03,0,7.76-5.53,7.76-10.81
		C612.1,369.13,609.71,366.21,606.11,366.21 M604.38,382.71c-2.19,0-2.29-2.73-2.29-4.19c0-2.76,0.34-11.1,3.75-11.1
		c2.18,0,2.38,2.15,2.38,4.19C608.22,373.08,608.25,382.71,604.38,382.71"/>
	<path class="st0" d="M632.06,367.87c0-0.73,0-1.06-0.69-1.06h-3.4c0.34-7.32,0.1-10.04,1.45-10.04c1.25,0,1.7,1.83,2.77,1.83
		c1.01,0,1.39-1.58,1.39-2.76c0-1.5-1.18-1.66-1.83-1.66c-4.37,0-6.79,6.14-7.38,12.64h-1.89h-0.88h-2.51
		c0.34-7.32,0.1-10.04,1.45-10.04c1.25,0,1.7,1.83,2.77,1.83c1.01,0,1.39-1.58,1.39-2.76c0-1.5-1.18-1.66-1.84-1.66
		c-4.37,0-6.79,6.14-7.38,12.64h-2.77c-0.69,0-0.69,0.33-0.69,1.06c0,0.61,0,1.01,0.69,1.01h2.6l-1.28,12.77
		c-0.24,2.44-0.35,4.95-1.8,5.89c-0.69,0.45-1.45,0-1.45,0.85c0,2.24,1.31,3.05,1.83,3.05c0.38,0,3.92,0.45,4.72-7.4l1.56-15.16
		h2.72h0.88h1.71l-1.28,12.77c-0.24,2.44-0.35,4.95-1.81,5.89c-0.7,0.45-1.45,0-1.45,0.85c0,2.24,1.32,3.05,1.83,3.05
		c0.39,0,3.92,0.45,4.72-7.4l1.56-15.16h3.6C632.06,368.88,632.06,368.48,632.06,367.87"/>
	<path class="st0" d="M643.95,369.42c0-2.24-2.14-3.22-3.74-3.22c-4.16,0-9.22,3.95-9.22,11.87c0,3.82,2.32,6.02,5.51,6.02
		c5.06,0,7.27-3.95,7.27-4.31c0-0.45-0.27-0.57-0.4-0.57c-0.94,0-1.7,2.39-4.44,2.39c-3.15,0-4.33-2.48-4.13-5.85
		C637.72,375.43,643.95,373.72,643.95,369.42 M634.88,374.42c0-2.69,1.59-6.67,4.2-6.67c0.93,0,1.38,0.98,1.38,1.95
		C640.45,372.75,637.17,374.54,634.88,374.42"/>
	<path class="st0" d="M658.56,369.42c0-2.24-2.15-3.22-3.74-3.22c-4.16,0-9.22,3.95-9.22,11.87c0,3.82,2.33,6.02,5.51,6.02
		c5.05,0,7.28-3.95,7.28-4.31c0-0.45-0.28-0.57-0.42-0.57c-0.94,0-1.7,2.39-4.44,2.39c-3.15,0-4.33-2.48-4.12-5.85
		C652.32,375.43,658.56,373.72,658.56,369.42 M649.48,374.42c0-2.69,1.59-6.67,4.19-6.67c0.94,0,1.39,0.98,1.39,1.95
		C655.06,372.75,651.76,374.54,649.48,374.42"/>
	<path class="st0" d="M666.99,366.2c-2.43,0-5.48,1.43-5.48,4.79c0,4.52,5.72,5.53,5.72,9.18c0,1.67-0.94,2.76-2.36,2.76
		c-2.91,0-1.32-4.1-3.57-4.1c-0.69,0-1.77,0.4-1.77,1.82c0,1.22,1.14,3.42,4.88,3.42c2.88,0,5.83-1.83,5.83-5.57
		c0-5.05-5.75-6.55-5.75-9.15c0-1.87,1.38-1.9,1.56-1.9c2.09,0,1.67,3.21,3.3,3.21c0.97,0,1.59-0.41,1.59-1.7
		C670.94,367.22,668.86,366.2,666.99,366.2"/>
	<path class="st0" d="M306.02,356.89c6.89,0,7.31,0.9,7.87,1.47c0.79,0.86,0.48,3.33,1.49,3.33c0.35,0,0.45-0.33,0.45-1.06v-5.08
		c0-0.4-0.31-0.45-0.73-0.45c-0.76,0-4.29,0.16-12.12,0.16c-2.22,0-4.4-0.16-6.62-0.16c-0.1,0-0.79,0-0.79,0.53
		c0,1.42,3.36,0.04,3.36,3.05c0,0.65-0.1,1.58-0.31,3.41l-1.8,17.4c-0.38,3.74-2.98,2.12-2.98,3.98c0,0.25,0.17,0.41,0.65,0.41
		c1.56,0,2.78-0.16,5.96-0.16c2.98,0,6.62,0.16,10.47,0.16c2.6,0,4.36-4.87,4.36-6.38c0-0.69-0.21-0.93-0.41-0.93
		c-1.01,0-2.19,5.45-10.71,5.45c-2.14,0-2.84-0.49-2.84-3.38c0-0.85,0.39-7.96,1.07-8.46c0.25-0.16,0.73-0.44,1.35-0.44h2.67
		c4.61,0,3.3,4.42,4.47,4.42c0.17,0,0.42-0.03,0.45-0.44c0.1-1.22,0.79-8.01,0.79-8.61c0-0.41-0.03-0.78-0.45-0.78
		c-1.17,0-0.62,3.75-4.92,3.75h-3.64c-0.69,0-0.66-1.14-0.66-1.87c0-1.01,0.45-8.01,1.28-8.9
		C304.18,356.81,305.43,356.89,306.02,356.89"/>
	<path class="st0" d="M328.28,369.66c0.28,0,0.73,0.29,1.45,0.29c1.11,0,1.77-0.53,1.77-1.91c0-1.06-0.76-1.74-1.63-1.74
		c-1.7,0-2.56,1.46-5.16,5.16c-0.38-1.17-1.46-5.16-3.5-5.16c-2.29,0-4.15,3.7-4.15,5.52c0,0.4,0.24,0.73,0.62,0.73
		c0.9,0,0.31-2.48,1.86-2.48c1.22,0,1.87,2.85,2.78,6.1c-1.32,2.4-2.29,4.31-3.5,4.31c-0.63,0-1.22-0.28-1.87-0.28
		c-0.8,0-1.45,0.77-1.45,1.99c0,0.73,0.27,1.99,1.62,1.99c1.88,0,2.64-1.34,5.69-6.14c1.42,4.96,1.8,6.14,4.95,6.14
		c0.49,0,3.54-0.04,3.54-1.3c0-1.17-2.63,0.77-3.64-2.24l-2.46-7.39C326.76,370.63,327.52,369.66,328.28,369.66"/>
	<path class="st0" d="M340.74,366.28c-5.44,0-9.01,5.57-9.01,11.26c0,2.64,1.07,6.63,6.13,6.63c3.88,0,6.34-3.17,6.34-4.36
		c0-0.24-0.21-0.4-0.41-0.4c-0.97,0-1.18,2.28-4.06,2.28c-3.53,0-4.19-3.82-4.19-6.59c0-2.44,0.86-7.36,3.6-7.36
		c2.67,0,2.25,3.77,4.3,3.77c0.69,0,1.67-0.56,1.67-2.27C345.11,367.34,342.61,366.28,340.74,366.28"/>
	<path class="st0" d="M351.75,380.75c-0.83,0-0.97-0.85-0.97-1.74c0-0.9,2.32-21.88,2.32-23.91c0-0.52-0.17-0.85-0.65-0.85
		c-0.49,0-1.04,0.37-5.44,0.93c-0.27,0.04-0.59,0.37-0.59,0.69c0,0.73,0.52,0.69,0.97,0.69c0.83,0,1.8-0.24,1.8,1.14
		c0,0.41-0.11,1.06-0.41,4.15c-1.77,16.5-1.98,16.99-1.98,18.57c0,1.91,0.9,3.74,2.7,3.74c3.29,0,5.3-4.18,5.3-5.56
		c0-0.28-0.24-0.45-0.38-0.45C353.52,378.15,353.07,380.75,351.75,380.75"/>
	<path class="st0" d="M370.35,380.75c-0.69,0-0.66-1.06-0.66-1.63c0-3.05,1.74-10.53,1.74-11.59c0-0.45-0.11-0.65-0.63-0.65h-2.46
		c-0.38,0-0.48,0.58-0.59,1.1c-0.9,4.64-4.54,12.77-6.34,12.77c-0.8,0-0.84-0.81-0.84-1.38c0-1.47,1.18-7.44,1.18-9.51
		c0-2.24-0.59-3.58-2.11-3.58c-2.74,0-4.99,3.58-4.99,5.57c0,0.53,0.24,0.65,0.49,0.65c0.86,0,0.83-2.6,2.01-2.6
		c0.56,0,0.79,0.44,0.79,1.14c0,1.39-1.35,8.86-1.35,10.49c0,1.3,0.42,2.64,2.11,2.64c4.12,0,6.27-5.32,7.45-8.01l0.07,0.08
		c-0.1,1.26-0.34,3.33-0.34,5.29c0,1.21,0.42,2.64,1.8,2.64c3.39,0,5.44-4.06,5.44-5.04c0-0.37-0.17-0.53-0.48-0.53
		C372.02,378.6,371.49,380.75,370.35,380.75"/>
	<path class="st0" d="M380.81,366.28c-2.43,0-5.47,1.42-5.47,4.79c0,4.51,5.72,5.53,5.72,9.18c0,1.67-0.93,2.77-2.36,2.77
		c-2.91,0-1.32-4.1-3.57-4.1c-0.69,0-1.77,0.4-1.77,1.83c0,1.22,1.15,3.41,4.89,3.41c2.88,0,5.82-1.83,5.82-5.57
		c0-5.04-5.75-6.54-5.75-9.14c0-1.87,1.39-1.91,1.56-1.91c2.08,0,1.67,3.22,3.29,3.22c0.97,0,1.59-0.41,1.59-1.71
		C384.76,367.3,382.68,366.28,380.81,366.28"/>
	<path class="st0" d="M392.25,356.49c-0.66,0-2.46,2.44-2.46,3.05c0,0.61,1.25,3.04,1.94,3.04c0.66,0,2.47-2.43,2.47-3.04
		C394.19,358.92,392.94,356.49,392.25,356.49"/>
	<path class="st0" d="M391.94,380.75c-0.62,0-0.76-0.78-0.76-1.26c0-3.25,2.05-12.15,2.05-12.85c0-0.23-0.32-0.36-0.48-0.36
		c-0.52,0-1.81,0.4-5.2,0.6c-0.69,0.05-1.04,0.29-1.04,0.74c0,1.1,2.39,0.36,2.39,1.75c0,0.2-1.52,8.29-1.52,11.17
		c0,1.83,0.35,3.62,2.08,3.62c3.53,0,5.4-4.39,5.4-5.28c0-0.28-0.17-0.49-0.45-0.49C393.63,378.39,393.08,380.75,391.94,380.75"/>
	<path class="st0" d="M409.53,368.88c0-1.34-0.24-2.6-1.59-2.6c-0.93,0-1.81,0.93-1.81,2.03c0,1.18,1.18,2.24,1.18,4.07
		c0,3.58-2.67,8.81-4.26,8.81c-1.35,0-1.39-1.67-1.39-2.88c0-1.27,0.56-7.04,0.56-8.5c0-0.98,0-3.54-2.43-3.54
		c-2.25,0-5.13,2.97-5.13,6.66c0,4.6,2.63,5.01,3.29,5.25c0.03,3.98,1.01,5.97,2.77,5.97C406.17,384.17,409.53,373.68,409.53,368.88
		 M398.37,370.31c0,0.32-0.35,4.92-0.42,5.61c-0.03,0.49-0.21,0.74-0.52,0.74c-1.04,0-1.53-1.79-1.53-2.77
		c0-3.41,1.67-4.22,2.15-4.22C398.51,369.66,398.37,370.06,398.37,370.31"/>
	<path class="st0" d="M423.42,369.5c0-2.24-2.16-3.21-3.74-3.21c-4.16,0-9.22,3.94-9.22,11.87c0,3.82,2.32,6.01,5.51,6.01
		c5.06,0,7.28-3.94,7.28-4.31c0-0.44-0.28-0.56-0.42-0.56c-0.93,0-1.7,2.4-4.43,2.4c-3.16,0-4.33-2.48-4.13-5.85
		C417.17,375.51,423.42,373.8,423.42,369.5 M414.33,374.5c0-2.68,1.59-6.67,4.19-6.67c0.93,0,1.38,0.98,1.38,1.95
		C419.91,372.82,416.62,374.62,414.33,374.5"/>
	<path class="st0" d="M433.03,378.15c-0.9,0-1.35,2.61-2.67,2.61c-0.83,0-0.97-0.85-0.97-1.75c0-0.9,2.32-21.87,2.32-23.91
		c0-0.53-0.18-0.85-0.66-0.85c-0.49,0-1.04,0.37-5.44,0.93c-0.27,0.04-0.59,0.36-0.59,0.69c0,0.73,0.52,0.69,0.98,0.69
		c0.83,0,1.8-0.24,1.8,1.14c0,0.41-0.11,1.05-0.42,4.14c-1.77,16.51-1.97,16.99-1.97,18.58c0,1.9,0.9,3.74,2.7,3.74
		c3.29,0,5.31-4.19,5.31-5.57C433.42,378.31,433.17,378.15,433.03,378.15"/>
	<path class="st0" d="M447.65,368.76c0-1.34-0.27-2.48-1.56-2.48c-1.07,0-1.77,1.05-1.77,1.66c0,1.06,1.22,1.87,1.22,3.9
		c0,2.03-0.76,4.68-1.6,6.35c-2.71-6.67-4.3-11.91-6.96-11.91c-2.53,0-4.09,4.06-4.09,6.14c0,0.73,0.24,0.93,0.55,0.93
		c0.8,0,0.38-3.3,2.01-3.3c1.83,0,6.03,11.55,6.03,12.97c0,1.26-2.46,5.57-4.06,5.57c-1.46,0-1.32-1.23-3.02-1.23
		c-0.66,0-1.42,0.57-1.42,1.87c0,0.89,0.42,2.4,2.15,2.4C441.58,391.65,447.65,373.64,447.65,368.76"/>
	<path class="st0" d="M677.95,225.51c0.37-0.09,0.62-0.07,0.75,0.05c0.13,0.12,0.27,0.49,0.42,1.09c0.11,0.45,0.11,0.81,0.02,1.09
		c-0.1,0.27-0.34,0.5-0.69,0.68c-0.15,0.07-0.2,0.15-0.18,0.24c0.03,0.11,0.11,0.15,0.24,0.11c0.12-0.04,0.28-0.09,0.49-0.17
		c0.24-0.1,0.4-0.16,0.47-0.18l0.43-0.13c0.18-0.06,0.24-0.2,0.19-0.42c-0.02-0.06-0.06-0.19-0.11-0.39
		c-0.32-1.03-0.59-2.02-0.82-2.94l-0.34-1.45l-0.29-1.22c-0.07-0.28-0.12-0.51-0.15-0.66c-0.02-0.1-0.03-0.17-0.04-0.21
		c-0.04-0.15-0.14-0.21-0.29-0.19l-0.38,0.05l-0.55,0.06l-0.53,0.07c-0.21,0.01-0.37,0.03-0.48,0.06c-0.12,0.02-0.17,0.1-0.14,0.23
		c0.03,0.09,0.12,0.14,0.3,0.14l0.18,0.01c0.47,0.01,0.76,0.04,0.88,0.08c0.13,0.05,0.27,0.16,0.41,0.35
		c0.19,0.26,0.38,0.79,0.57,1.58c0.09,0.34-0.03,0.54-0.34,0.62l-5.28,1.31l-0.28,0.08c-0.36,0.09-0.65,0.07-0.9-0.04
		c-0.25-0.12-0.42-0.33-0.51-0.64c-0.04-0.11-0.08-0.19-0.11-0.22c-0.03-0.03-0.09-0.03-0.19-0.02c-0.1,0.03-0.14,0.09-0.11,0.22
		c0.02,0.05,0.05,0.15,0.1,0.28l0.4,1.3c0.06,0.18,0.11,0.38,0.17,0.61c0.03,0.1,0.04,0.18,0.05,0.24l0.13,0.75l0.1,0.45
		c0.01,0.07,0.02,0.13,0.03,0.15c0.03,0.12,0.09,0.17,0.19,0.15c0.12-0.03,0.18-0.12,0.16-0.27c-0.09-0.5-0.02-0.89,0.21-1.15
		c0.23-0.27,0.68-0.48,1.35-0.65L677.95,225.51z"/>
	<path class="st0" d="M682.9,239.19c-0.09-0.23-0.16-0.43-0.2-0.59c-0.03-0.12-0.05-0.24-0.07-0.36c-0.02-0.12-0.04-0.21-0.05-0.26
		c-0.04-0.15-0.12-0.26-0.27-0.32c-0.14-0.06-0.46-0.14-0.96-0.24l-5.34-1.05c-0.18-0.03-0.28-0.09-0.3-0.15
		c-0.02-0.07,0.08-0.19,0.28-0.35l4.72-3.77c0.22-0.17,0.3-0.39,0.23-0.65c-0.02-0.08-0.08-0.25-0.18-0.51
		c-0.07-0.17-0.12-0.35-0.17-0.54c-0.03-0.1-0.05-0.18-0.06-0.24l-0.06-0.35c-0.01-0.05-0.02-0.1-0.03-0.13
		c-0.04-0.17-0.12-0.24-0.24-0.22c-0.11,0.03-0.15,0.12-0.11,0.27c0.1,0.4,0.04,0.75-0.17,1.05c-0.21,0.3-0.56,0.51-1.03,0.63
		l-0.4,0.08l-3.94,0.81c-0.47,0.12-0.85,0.13-1.14,0.06c-0.3-0.08-0.54-0.26-0.72-0.54c-0.05-0.09-0.12-0.12-0.19-0.1
		c-0.1,0.03-0.15,0.1-0.11,0.23c0.02,0.07,0.05,0.16,0.11,0.28c0.09,0.2,0.18,0.47,0.27,0.84c0.06,0.2,0.09,0.36,0.1,0.47l0.04,0.44
		c0.02,0.15,0.04,0.28,0.07,0.39c0.04,0.14,0.1,0.19,0.21,0.17c0.09-0.03,0.14-0.13,0.14-0.32c0.01-0.54,0.28-0.94,0.84-1.2
		l0.55-0.19l0.24-0.05l3.02-0.67l0.19-0.04c0.17-0.04,0.25-0.03,0.27,0.03c0.02,0.04,0,0.06-0.02,0.08l-0.08,0.07l-3.77,2.96
		l-0.54,0.46c-0.39,0.32-0.58,0.52-0.55,0.6c0.02,0.07,0.17,0.14,0.45,0.19l0.19,0.03l5.31,1.06c0.24,0.05,0.37,0.1,0.39,0.16
		c0.02,0.04-0.03,0.08-0.14,0.11l-3.9,1.16c-0.05,0.02-0.14,0.04-0.27,0.07c-0.27,0.07-0.49,0.07-0.65,0.02
		c-0.16-0.06-0.3-0.19-0.42-0.4c-0.06-0.11-0.13-0.15-0.21-0.13c-0.1,0.02-0.14,0.09-0.11,0.19c0.02,0.09,0.09,0.27,0.19,0.52
		c0.11,0.27,0.22,0.61,0.32,1.03c0.05,0.2,0.11,0.56,0.18,1.05c0.03,0.18,0.05,0.31,0.07,0.39c0.07,0.27,0.15,0.39,0.27,0.36
		c0.1-0.03,0.15-0.09,0.14-0.21c-0.06-0.45,0.01-0.81,0.23-1.06c0.21-0.26,0.6-0.45,1.14-0.59l0.24-0.07l3.65-1.06l0.41-0.1
		c0.53-0.13,0.92-0.15,1.18-0.06c0.26,0.09,0.45,0.32,0.57,0.69c0.04,0.1,0.1,0.15,0.19,0.12c0.12-0.03,0.16-0.11,0.12-0.25
		C682.97,239.4,682.94,239.31,682.9,239.19"/>
	<path class="st0" d="M322.38,239.24c3.59,1.2,7.43,2.32,11.15,2.32c3.23,0,6.19-0.86,9.04-2.62c5.66-3.59,9.21-11.64,10.83-16.11
		c1.39-3.84,3.18-11.35-0.38-18.43c-3.86-7.39-11.62-10.21-18.56-12.25l-27.92-9.38c-5.89-1.98-6.19-3.92-5.71-5.56l0.22-0.76
		l-3.89-1.31l-6.05,16.23l3.93,1.32l0.29-0.72c0.67-1.65,1.77-2.35,3.71-2.35c1.61,0,3.83,0.49,6.99,1.56l26.78,9
		c4.05,1.35,9.08,3.05,11.41,6.29c2.09,2.7,1.92,5.6,1.01,9.12c-0.86,3.35-4.27,7.61-7.56,8.31c-0.83,0.19-1.67,0.29-2.56,0.29
		c-2.25,0-4.49-0.6-7.14-1.49l-29.83-10.02c-4.62-1.55-7-2.91-7.74-4.4c-0.36-0.73-0.35-1.56,0.01-2.61l0.27-0.78l-3.92-1.32
		l-9.29,24.9l3.89,1.3l0.31-0.67c0.59-1.29,1.53-1.85,3.16-1.85c1.25,0,2.88,0.34,4.98,1.05L322.38,239.24z"/>
	<path class="st0" d="M322.41,178.6c0.66-0.74,1.42-1.09,2.39-1.09c1.43,0,3.34,0.8,5.67,2.39l22.42,15.74
		c4.99,3.61,4.62,5.58,3.74,6.89l-0.53,0.79l4.19,2.06l15.43-19.06l-4.04-2.99l-0.5,0.56c-0.72,0.8-1.59,1.18-2.68,1.18
		c-1.52,0-3.4-0.75-5.58-2.24l-9.83-6.9l-1.15-0.79c-2.7-1.87-5.04-3.48-6.72-6.18c-1.52-2.35-0.03-7.38,1.73-9.63
		c1.34-1.71,2.86-2.45,5.25-2.53l1.83-0.06l-11.23-11.85l-1.1,0.87c-0.91,0.72-1.86,1.47-2.61,2.42
		c-2.99,3.83-5.27,10.13-2.94,16.31c-2.16-1.23-4.4-2.18-7.22-2.52l-0.51-0.06l-9.77,14.97l3.28,2.3L322.41,178.6z"/>
	<path class="st0" d="M351.29,136.91c2.34,3.47,3.94,8.7,0.77,11.97l-0.48,0.5l2.67,3.59l4.8-2.91l13.25,19.97
		c2.46,3.67,5.25,7.82,9.48,9.46c1.31,0.55,2.73,0.83,4.21,0.83c2.49,0,5.22-0.81,7.68-2.27c5.57-3.31,7.43-7.4,8.44-11.06l1.76,4.1
		l24.2-8.37l-1.73-4.15l-0.68,0.15c-0.4,0.1-0.79,0.15-1.13,0.15c-1.31,0-3-0.59-4.48-5.19l-3.79-11.46
		c-1.05-3.27-2.16-7.08-2.03-10.89c0.07-1.97,3.85-6.83,6.31-7.59c0.31-0.1,0.61-0.15,0.89-0.15c2.37,0,3.61,3.87,4.35,6.18
		l6.47,20.04c1.45,5.05,0.63,6.43-1.4,7.21l-0.79,0.3l1.72,4.15l24.43-6.61l-1.72-4.41l-0.7,0.17c-0.31,0.07-0.6,0.11-0.87,0.11
		c-1.95,0-3.47-1.9-4.67-5.84l-7.08-21.95c-1.65-5.12-3.58-8.75-5.88-11.11c-1.85-1.89-4.33-2.85-7.36-2.85
		c-1.59,0-3.33,0.27-5.18,0.79c-5.93,1.69-8.57,6.37-12.56,13.45l-0.04,0.06l-7.8-24.46l-19.61,7.62l1.22,4.19l0.76-0.18
		c0.31-0.07,0.6-0.11,0.87-0.11c1.94,0,3.49,1.9,4.75,5.82l13.71,42.5c1.89,5.84,0.19,7.25-1.24,7.8l-0.59,0.22
		c0.02-0.07,0.05-0.14,0.07-0.21l0.05-0.21l-3.07-11.98l-4.18,2.73l0.11,0.54c0.11,0.6,0.26,1.17,0.4,1.73
		c0.66,2.58,0.88,3.88-1.29,5.19c-0.92,0.56-1.81,0.84-2.65,0.84c-2.22,0-4.39-1.94-6.66-5.99l-12.25-18.25l4.95-3.39l0.46-0.29
		c0.68-0.43,1.44-0.91,2.15-0.91c0.09,0,0.18,0,0.27,0.02l1.27,0.23l-3.19-12.01l-0.95,2.11c-0.46,1-1.54,2.01-3.35,3.11l-6.2,4.28
		l-11.39-16.93l-0.56,1.52c-1.98,5.46-4.75,9.87-8.23,13.08l-0.63,0.58l0.6,0.61C349.19,134.3,350.37,135.54,351.29,136.91"/>
	<path class="st0" d="M500.73,157.5l12.5,0.52c0.35,0.03,0.74,0.03,1.15,0.03c1.81,0.01,3.22,0.09,3.61,1.03l0.77,1.82l8.2-19.79
		l-4.15-1.01l-0.32,0.51c-2.27,3.69-7.17,7.62-14.09,7.62c-0.72,0-1.47-0.04-2.2-0.13c-6.1-0.74-11.69-5.02-14.6-11.16
		c-2.42-5.19-3.29-12.37-2.31-19.2c1.34-9.29,7.14-19.3,16.74-19.3c0.58,0,1.17,0.03,1.76,0.11c9.98,1.21,14.66,5.45,16.15,14.62
		l0.24,1.48l4.18-3.73l-1.16-22.63l-1.38,1.96c-0.78,1.11-2.26,1.77-3.96,1.77c-0.26,0-0.51-0.01-0.76-0.04
		c-0.99-0.12-2.07-0.45-2.98-0.74c-4.58-1.56-8.64-2.55-12.42-3.01c-1.6-0.19-3.22-0.29-4.79-0.29c-17.51,0-29.99,11.19-32.57,29.21
		c-1.47,10.29,0.64,19.49,6.12,26.61C480.32,151.33,489.63,156.22,500.73,157.5"/>
	<path class="st0" d="M562.63,141.33c-9.47-2.37-29.55-6.81-36.29,6.61c-3.57,7.1,0.52,14.94,6.23,16.88
		c5.72,1.96,14.18,1.94,18.66-0.81c-0.65,2.36-1.5,4.78-0.9,6.97l14.83,7.26l-0.26,0.36l20.21,15.18l15.45,18.51l3.89-2.21
		l-0.61-0.76c-0.77-0.94-1.08-1.83-0.97-2.69c0.27-2.06,3-4.02,5.63-5.93l23.98-17.46l1.13,1.4c0.98,1.21,1.89,2.53,1.35,4.24
		l-0.52,1.65l13.07-5.23l3.96,1.03l11.59-5.18l-0.27-0.73c-1.1-2.91-3.23-7.36-5.62-10.31c-3.18-3.93-6.71-7.86-11.82-9.05
		c-1.35-0.31-2.59-0.47-3.77-0.47c-3.56,0-6.44,1.35-10.51,3.85c-1.4,0.88-2.68,1.3-3.93,1.3c-1.53,0-3.05-0.63-4.94-2.04
		l-0.48-0.36l-3.09,2.25l3.64,4.96l-25.54,18.6c-2.8,1.97-4.88,2.93-6.36,2.93c-0.8,0-1.41-0.27-1.94-0.84l-0.02-0.02l0.03-0.03
		l-0.16-0.11l-0.46-0.49l-0.09,0.1l-0.11-0.08c-1-0.7-1.54-1.47-1.67-2.34c-0.31-2.12,1.8-4.78,3.84-7.36l0.64-0.82l17.37-22.28
		l1.51,1.05c1.55,1.1,3.25,2.56,2.57,4.24l1.29,0.94l9.95-8.34l-2.66,0.14c-1.7,0-3.17-1.24-4.59-2.45
		c-0.55-0.47-1.09-0.93-1.62-1.3l-1.3-0.91l0.86-1.08c0.27-0.34,0.54-0.7,0.8-1.05c1.47-1.95,2.99-3.97,5.1-4.78
		c0.2-0.07,0.47-0.11,0.79-0.11c1.62,0,4.01,0.93,4.89,1.54c0.83,0.58,1.3,1.4,1.38,2.37c0.12,1.55-0.76,3.36-2.41,4.96l-0.07,0.06
		l-1.61,2.47l5.6,0l9.58-7.9l-0.48-0.63c-2.18-2.87-6.88-7.39-9.86-9.48c-4.27-3-8.53-4.46-13.02-4.46c-0.24,0-0.49,0.01-0.74,0.02
		c-5.57,0.21-8.55,2.41-12.76,6.99c-1.79,1.98-3.01,2.72-4.49,2.72c-0.83,0-1.83-0.23-3.14-0.74l-0.5-0.2l-3.03,3.06l4.46,3.36
		l-19.14,24.55c-1.95,2.43-3.69,3.6-5.3,3.6c-0.67,0-1.35-0.21-2.03-0.63l-0.65-0.39l-0.12,0.16c-4.06-2.55-1.14-7.32,0.84-11.28
		l7.92-15.75c2.35-4.67,5.12-10.01,3.16-14.83c-1.47-3.85-6.02-6.42-11.76-9.17c-4.77-2.28-9.61-2.86-14.81-3.73
		c-1.08-0.17-2.23-0.37-3.18-0.8c-1.1-0.49-2.63-2.41-2.92-3.61l-8.76,15.02l2.14,1.7c5.44-5.3,12.07-6.67,18.09-4.24
		c3.34,1.34,5.59,3.21,6.14,5.69c0.42,2.2,0.18,4-0.94,6.04L562.63,141.33z M542.8,158.14c-2.49-1.12-2.59-4.47-1.25-7.15
		c1.62-3.21,6.46-5.08,11.13-5.03c2.89,0.03,4.62,0.37,7.1,0.97C557.21,152.25,548.86,160.89,542.8,158.14 M640.5,177.42
		c0.36-0.26,0.72-0.53,1.08-0.81c1.98-1.49,4.04-3.03,6.42-3.27c1.45,0,3.05,1.98,3.57,2.63c0.46,0.56,0.63,1.25,0.52,2.05
		c-0.21,1.65-1.65,3.7-3.53,5.07l-2.38,1.53l-0.65-0.14c-2.13-0.46-3.46-2.14-4.73-3.77l-0.58-0.73l-1.05-1.3L640.5,177.42z"/>
	<path class="st0" d="M654.8,201.33l8.49,10.46l0.35,0.41c1.7,2,3.82,4.49,7.44,4.49c0.58,0,1.19-0.06,1.81-0.19
		c2.51-0.53,4.65-2.05,5.58-3.97c0.63-1.29,0.64-2.67,0.05-3.87c-1.38-2.77-2.89-3.45-4.35-4.1c-0.46-0.21-0.94-0.42-1.56-0.77
		l-15.17-6.18L654.8,201.33z"/>
	<path class="st0" d="M623.38,211.68l14.44,27.47l0.67-0.23c13.16-4.57,20.89-15.69,18.37-26.43
		c-2.62-11.24-12.11-18.49-24.18-18.49c-2.34,0-4.79,0.27-7.29,0.79c-8.32,1.75-15.2,6.24-18.86,12.32
		c-4.01,6.49-3.15,13.71-2.29,17.42c0.48,2.07,1.97,4.9,3.42,7.64c0.87,1.66,1.7,3.23,2.17,4.4c0.3,0.75,0.45,1,0.55,1.16
		c0.05,0.08,0.05,0.09,0.09,0.28c0.24,1.14-0.3,2.2-0.74,3.05l-0.61,1.19l18.27,0.15l0.3-4.67l-0.79-0.08
		c-8.29-0.85-11.1-7.7-12.04-11.71c-0.71-3.04-0.12-6.24,1.64-9.02C618.17,214.32,620.65,212.43,623.38,211.68 M638,207.49
		c3.09,0,7.2,1.01,9.23,5.84c0.53,1.26,0.31,3.13-0.59,5.01c-0.9,1.87-2.31,3.36-3.52,3.71l-1.95,0.61l-1.09,0.08l-7.78-14.2
		C634.2,207.85,636.15,207.49,638,207.49"/>
	<path class="st0" d="M643.7,303.9l-0.49-0.36c-0.27,0.44-1.02,1.35-1.56,1.35h-0.76c-0.09,1.29-0.93,2.32-0.77,0h-0.37l0.44-1.06
		c-0.56-0.32,0.1-0.26-0.63-0.26h-0.19c-0.42,0-0.41,0.18-0.76,0.44c0.22,1.1-0.31,2.43-1.33,2.43c-0.62,0,0.11-0.79-0.95-0.23
		c-0.23-0.39-1.26-1.53-1.72-1.53h-0.57v1.1c0,0.73-0.54,0.82-1.26,0.89l0.2,3.95c0.26,0.73,0.45,1.31,1.44,1.31
		c0.69,0,1.15-0.88,3.05-0.88c1.86,0,4.45,0.55,5.62-0.78c0.94-1.07,2.02-3.43,2.02-5.59l0.2,0.09l0.73-1.99l-0.22-0.2L643.7,303.9z
		"/>
	<path class="st0" d="M628.49,275.87h-0.57l0.22-0.87c-1.2,0.89-0.61,0.14-0.61-0.67c0-0.38-0.58-0.77-0.58-1.33v-0.21
		c0-1.1,0.77-1.78,0.77-3.96l-1.57,4.07l0.19,0.06l-1.48,1.15c0,2.2-0.95,2.23-0.95,3.52C623.92,278.96,627.73,277.18,628.49,275.87
		"/>
	<path class="st0" d="M621.48,273.01l-0.47-0.81l-0.59,0.48l0.1,0.2l-2.48-0.1c-0.34,0.13-0.57,0.06-0.57,0.67v0.66
		c0,0.07,2.06,2.99,2.9,2.69c0.82-0.3,1.87-2.91,1.82-4.32L621.48,273.01z"/>
	<path class="st0" d="M616.52,276.3c0.26,1.14,2.81,2.24,3.43,5.29C620.86,280.95,619.1,276.38,616.52,276.3"/>
	<path class="st0" d="M625.44,280.05c-0.1,0.17-0.38,0.81-0.38,1.11c0,0.4,0.51,0.9,0.76,1.09l0.79-2.18l-0.79-0.02H625.44z"/>
	<path class="st0" d="M629.48,274.54l-0.42,0.01v0.65l0.56-0.25l0.16-1.06c-0.38-0.36-0.43-0.88-0.71-0.88
		c-0.26,0-0.86,1.19-0.95,1.54l1.16-0.66L629.48,274.54z"/>
	<path class="st0" d="M610.99,297.2c0-0.51-0.14-0.66-0.58-0.66c-0.25,0-0.1,0.23-0.76,0.44v0.44l1.35,0.4L610.99,297.2z"/>
	<path class="st0" d="M596.52,322.16l-0.38-0.72l-0.26,0.68c-0.43-0.09-0.44-0.16-0.97-0.16c-0.88,0-0.57,0.29-1.64,0.26l-0.65-0.56
		l-1.38,0.12l-0.55,0.34l-0.02-0.51l-1.31,0.51l0.01,0.29l0.78,0.2l-0.47,0.51l-0.71-0.67l-3.23,0.33l0.01-0.17l-0.23,0.77
		c-0.45-0.19-0.84-0.63-0.97-0.63c-0.91,0,0.09,0.46-0.87,0.11l0.29-0.59c-0.66-0.28-1.07-0.62-2.1-0.62h-0.2
		c-1,0-1.05,0.81-1.24,1.73l2.06,1.67l1.66,0.51c0.15,0.08,1.85,0.65,1.99,0.65c1.59,0,1.39,0.3,3.42,0.26
		c0.59-0.01,1.85,0.01,2.27-0.09c0.85-0.22,1.49-0.47,2.68-0.47l-0.53-0.09l0.88-1.01c0.95-0.07,1.95-0.23,1.95-1.11v-0.93
		l-0.43-0.01L596.52,322.16z"/>
	<polygon class="st0" points="608.84,315.15 608.05,315.75 608.6,315.92 	"/>
	<path class="st0" d="M652.32,322.39c1.24-4.8,1.28-5.26,5.2-6.97c4.2-1.85,3.88-0.38,7.32-4.1c0.83-0.9,2.14-2.43,2.62-3.57
		c0.38-0.89,0.67-1.19,0.78-2.41c0.07-0.91-0.15-1.52,0.36-2.2v-0.45h-0.57c-1.64,2.81-6.12,3.15-8.84,1.4
		c-2.67-1.71-4.35-4.72-6.87-6.16c-3.4-1.94-5.59-2.53-9.65-0.71c-1.51,0.68-2.13,2.15-3.66,2.81c-2.07,0.88-3.48-0.27-5.51-0.01
		l-2.1,0.24c0-0.02,1.78-3.25,2.17-4.09c0.71-1.63,1.11-2.89,1.01-5.19c-0.11-2.47-0.88-2.96-1.08-5c-0.2-2.07-1.53-3.14-1.53-5.07
		v-0.88c0-1.56,0.77-3.27,0.77-4.17v-0.67c0-5.42-2.76-5.76-4.4-9.01c-0.51-1.04-1.27-3.85-1.56-5.22
		c-0.28-1.26-0.41-5.33-1.49-5.33h-0.19c-0.73,0-0.06-0.07-0.57,0.22c0.21,0.93,0.37,0.39,0.37,1.11v0.44
		c0,2.52-1.43,4.91-2.44,6.42c-1.03,1.54-3.73,2.43-5.15,3.51c-0.83,0.64-1.53,1.18-2.41,1.85c-0.96,0.75-1.24,1.48-2.15,2.35
		c-0.93,0.88-2.35,4.84-2.35,6.76c0,4.64,2.75,7.45,1.15,11.44c-0.93,2.32-4.77,6.83-4.77,8.79c0,2.46,0.18,4.2,0.74,5.97
		c0.65,2.05,0.06,1.51,1.13,3.59c0.62,1.23,0.35,0.7,0.35,0.7c-1.84,0.21-3.03,0.46-4.22,0.88c-1.67,0.59-3.16,2.05-4.12,2.83
		c-2.75,2.23-1.59,2.12-3.34,4.84c-3.7-2.02-5.63-3.84-11.49-2.58c-2.71,0.58-8.24,3.64-8.24,6.76v0.78c0,2.76,4.85,5.6,7.22,6.01
		c1.77,0.32,4.27,0.52,5.95,0.16c1.17-0.24,3.67-1.16,4.66-1.19c-0.26,1.13-0.77,1.35-0.77,2.99v0.2c0,3.05,5.53,4.97,8.63,4.97
		h1.91c2.84,0,6.89-2.97,8.05-4.78c3.59,1.98,6.63,0.72,9.5-1.27c1.16-0.8,3.01-2.35,2.91-1.94l2.7,0.95h3.06
		c0.68-0.49,2.58-0.06,4.14-1.59c1.13-1.09,1.77-1.92,3.86-1.92c1.38,0,3.02,2.64,4.58,2.64h1.53
		C649.11,327.54,651.48,325.59,652.32,322.39 M607.73,300.27c0.06-3.2,2.3-5.49,4.05-6.84l0.54,0.47c-0.17,2.26,0.15,2.04,1.72,2.85
		c0.61,0.33,2.47,1.54,3.03,1.85l0.67-0.15l0.68-1.47h0.96c0.13-0.21,0.76-1.33,0.76-1.54c0-0.5-0.07-0.26-0.19-0.88
		c0.64-0.49,1.32-2.64,0.95-3.52c0.23-0.39,0.39-0.39,0.39-0.88l-0.13-1.56l0.25-3.9l-1.06-2.24l0.18,3.96
		c-0.4-0.67-0.18-0.86-0.91-0.69l-0.67-1.56l-1.51,2.06l-0.92-0.91c-0.5,0.86-0.81,2.11-1.72,2.2c-0.33-0.93-1.71-0.99-2.26-3.12
		c-0.32-1.24-1.17-3.42-1.17-4.59v-2.19c0-2.23,1.83-3.69,2.48-5.06c1.05-2.24,1.86-2.61,3.81-3.74c0.98-0.56,3.25-2.2,4.28-2.99
		c1.68-1.29,2.25-3.65,3.54-4.05c0.32,1.55,2.12,5.85,3.02,6.87c1.63,1.87,3.29,2.97,3.29,6.77c0,2.18-1.33,1.7-1.33,5.05
		c0,1.69,2.26,5.62,2.42,9.68h-0.36v0.66c0,0.73-0.72,1.05-1.15,1.31c0-1.44,0.51-1.82-0.19-2.41l-0.89,1.36l-0.06-0.92h-0.39
		l0.21-1.1l-0.46-0.84l-1.83,0.21c-0.06-0.03-0.78-0.38-0.78-0.69c0-0.46,0.08-0.3,0.19-0.88l-0.86-0.73
		c-0.91-0.05-1.37,2.6-1.69,3.73c-0.72,2.49-1.46,1.57-1.46,4.26l-0.8,1.06l0.35,0.6l-0.75,0.68l0.66,0.92
		c0.98-0.58,2.06-0.48,3-1.31c0.67-0.6,2.07-1.14,2.92-1.48c1.57-0.64,3.96-1.79,4.39-3.88c-0.03,3.64-1.27,6.3-2.61,8.52
		c-0.73,1.2-1.26,2.14-2.44,2.91c-0.96,0.64-2.18,2.1-3.33,2.1c-0.73,0-0.07,0.07-0.6-0.23l1.73-2.85c-1.2-0.58-1.9,0.93-1.92,2.68
		l-1.13-0.48v-0.66c0-0.32,0.42-0.97,0.62-1.35l-0.7-0.68l0.86-1.61l0.18,0.13c0.23,0.15,0.21,0.22,0.57,0.22
		c0.29,0,1.39-1.06,1.72-1.32l1.02,0.08l1.08-1.61c-2.16,0.21-6.35,1.94-7.68,3.15l-1.48,4.47l0.19,0.09
		c-0.32,0.24-0.8,0.68-0.77,1.32l0.15,3.07l-0.26,0.06l-0.47-0.93v1.1c0.11,0.18,0.38,0.55,0.38,0.66c0,0.46-0.06,0.29-0.19,0.88
		c-0.77-1.03-1.54-3.6-1.32-5.71c0.31-2.94,1.03-4.6-1.55-4.85L614.6,302l-0.75,0.24l-0.57-1.53c-1.24,0-2.29,0.85-2.68-0.24
		l-1.12,0.89l-0.37-1.7L607.73,300.27z M622,313.03c-0.31-0.05-0.61-0.07-0.92-0.07h-2.49c-0.02-0.05-0.03-0.1-0.04-0.15h1.98
		C621.06,312.81,621.55,312.89,622,313.03 M603.05,311.91l2.53-1.34c1.4-1.25,1.85-0.98,4.12-1l1.5,0.25l0.96-0.25
		c0.9,0.45,4.54,2.3,4.68,3.49c-0.88-0.24-1.95-0.93-3.09-0.66c-1.38,0.32-0.68,0.12-1.95,0.24l-0.89,0.91l0.16,1.71l-1.29,0.87
		c-0.16-0.1-0.47-0.39-0.58-0.39c-0.73,0-0.06-0.06-0.59,0.22l0.44,0.56l0.07,0.24l-1.55,2.23l-0.75-2.3l-0.51,0.89l-0.72-0.22
		l-1.95,2.36v-0.6l0.42-0.02l-0.44-0.55l0.38-0.81l-0.17-1.4c-0.27-0.19-1-0.79-1.33-0.79h-0.58c-0.84,0-1.23,1.11-1.12,2.19
		c0.08,0.97-0.14,0.79-1.75,0.79c-0.08-0.14-0.58-0.97-0.58-0.99C598.47,314.53,601.15,313.29,603.05,311.91 M595.38,325.88
		c-1.72,0.64-2.34,1.43-4.55,1.52c-2.43,0.09-2.71,0.52-5.39-0.09c-1.11-0.25-3.03-1.55-3.8-2.05c-2.69-1.76-4.72-3.68-1.23-6.37
		c1.78-1.38,4.76-3.34,7.71-3.34h1.73c1.77,0,3.11,0.28,3.83,1.39c1.87,0,2.32,1.07,3.25,1.79l0.4,0.43
		c0.85,0.42,0.04-0.27,0.45,1.28c0.2,0.74,0.3,1.42,0.3,2.27v0.2C598.08,323.54,596.06,325.63,595.38,325.88 M613.41,326.49
		c0,2.05-1.57,4.11-2.62,5.22c-0.99,1.04-3.4,2.54-5.23,2.54c-0.26,0-0.29-0.22-0.39-0.39l3.52-1.83l0.09,0.19l0.37-0.4l-0.17-0.75
		l0.77,0.24c0.52-0.84,1.37-1.29,1.84-2.13c0.55-1,0.76-1.55,1.25-2.49c-0.31-0.36-0.24-0.6-0.77-0.6c-0.34,0-1.02,0.71-1.53,0.99
		l-0.33-0.63l-0.21,0.84l-0.81-0.01l0.39-0.58l-0.97-0.01c-0.28,1.31-0.92,1.44-1.91,1.99c-0.02-0.71-0.08-1.4-0.76-1.4h-0.19
		c-1.34,0-0.24,1.39-1.92,1.8v-0.6h-0.57l0.22,0.98l-0.15-0.13l-1.19,1.13l0.17,0.19h-0.58c-0.28-3.53-3.89-2.2-3.45,0
		c-0.18,0.11-1.59,0.81-1.73,0.81c-0.51,0-0.95-1.16-0.95-1.8c0-1.28,1.56-3.25,2.25-4.03c0.62-0.72,2.94-2.86,3.11-3.13l0.74-0.45
		l0.81-0.34c1.3-0.02,1.83-0.65,3.47-0.69c0.67-0.02,2.65,0.14,3.23,0.26c2.18,0.46,4.2,1.63,4.2,4.2V326.49z M615.14,325.3
		c-0.74,0-1.35-2.72-1.35-3.59l-0.81-0.74c0.81-1.72,1.32-2.09,2.02-3.36c1.03-1.84,1.66-1.44,2.43-2.65
		c0.73,0.35,1.55-0.88,2.73-0.88l-0.04,0.48c1.39,0,1.5-0.15,2.98-0.15l-0.3,1.33l2.28,0.62l0.19,0.59
		c-0.61,0.95-0.53,0.31-0.98,0.76c-0.3,0.31-0.18,0.79-0.44,1.14c-0.16,0.23-1.83,0.78-1.83,1.27c0,0.53,0.09,0.56,0.19,1
		l-0.91,1.71l-0.79-0.55l-0.04,1.62l-1.28,0.03l0.95,0.64l-1.17-0.63l0.21-0.01l-0.86-0.57l0.85-0.26l-0.61-0.37l-1.53,0.59
		C616.76,324.63,616.75,325.3,615.14,325.3 M626.66,322.53c-0.65,1.71-1.02,2.48-2.02,3.88c-1.53,2.15-4.35,4.14-7.59,3.86
		c0.31-0.22,0.6-0.39,1.15-0.39c0.5,0,0.2,0.12,0.96,0.19c0.23-0.64,2.54-2.31,3.45-2.39c0.19-0.84,1.77-3.18,2.27-4.6
		c0.32-0.87,0.68-1.78,0.78-2.77c0.15-1.44-0.52-2.47,0.78-2.58C626.99,320.15,627.71,319.78,626.66,322.53 M646.65,325.76
		c-1.25,0.04-1.1,0.67-2.09,0.67h-0.58c-0.36,0-3.1-3.07-4.76-3.07h-0.58c-0.84,0-0.67,0.44-2.09,0.43l-2.29,1.33
		c-0.03-1.49-0.38-0.69-0.38-1.54v-0.22c0-0.55,2.67-2.07,3.25-2.63c0.54,0.42,2.36,0.9,2.66-0.4l3.45,0.83l0.11-0.71l0.37,0.96
		l0.08-0.68h0.57c0.77,0,0.47-0.59,0.77-1.32c-0.93-2.03-1.68-2.77-2.51-4.59c-0.42-0.95-1.12-0.9-1.98-1.45
		c-1.59-1.01-0.9-0.33-2.77-0.33h-0.76c-0.58,0-0.7-0.1-1.12-0.13l-3.65,1.44v1.33l-0.44,0.83l0.3-0.05l0.44,1.59l-0.2-0.06
		l-0.39,0.74l0.57,4.08l-0.86,0.54l0.22-0.86l-0.85,0.41l-0.3-2.84v-0.44c0-0.5,0.15-0.48,0.38-0.88l-0.04-1.14l0.68-1.02
		l-1.22-0.48v-0.88c-1.02,0.1-2.67,0.65-3.47,1.35c-0.22-0.33-0.46-0.65-0.73-0.97l3.53-2.17l-0.1-0.2
		c-0.71-3.5,0.38-4.57,0.38-8.36l0.38-0.88c-0.22-0.06-0.51-0.22-0.57-0.22c-0.37,0-2.28,1.37-2.28,1.76c0,0.5,0.15,0.48,0.39,0.92
		l-0.77,0.18l0,0.89l-0.49-0.4l-0.81,1.49l0.16,0.88h-0.59c-0.22,0-2.16,2.04-2.66,2.42c0.03-1.59,3.08-5.98,3.96-7.09
		c1.39-1.8,3.86-4.2,7.11-3.74l3.62,0.5c2.17,0.33,4.2-4.62,9.91-4.62c6.07,0,8.74,9.23,14.5,9.23c1.56,0,4.39-1.09,4.78-1.09
		c1.62,0-3.64,5.97-4.04,6.33c-0.93,0.86-1.95,1.83-3.4,2.02c-2.2,0.29-2.38,0.66-4.09,1.45c-1.35,0.63-2.19,1.23-2.85,2.65
		c-0.25,0.53-0.63,1.42-0.82,1.92c-0.38,1-0.12,1.74-0.44,2.57c-0.25,0.66-1.78,2.97-2.26,3.32
		C648.33,325.89,647.65,325.74,646.65,325.76"/>
	<polygon class="st0" points="617.66,284.88 618.24,284.88 618.24,284.22 617.66,284.45 	"/>
	<path class="st0" d="M581.41,332.66c0-4.03-5.31-6.97-9.38-6.97h-2.88c-1.57,0-3.9,1.11-5.05,1.72c-1.12,0.61-1.09,0.73-1.8,1.71
		c-0.85,1.16-0.77,2.77-0.57,4.1c0.34,2.29,1.15,3.36,2.77,4.35c0.93,0.55,1.26,0.36,2.38,0.83c0.81,0.33,3.97,0.67,3.97,0.67
		c1.35,0,1.88-0.32,2.7-0.42c1.18-0.15,3.21-1.16,4.2-1.58C579.51,336.32,581.41,335.12,581.41,332.66 M568.47,337.98l1.06-1.34
		c0.38-0.01,5.95-1.15,6.39-1.33c1.15-0.48,2.85-0.88,2.85-2.41l0.48-0.34c0-1.2-2.34-0.18-3.2-0.1c0.07-0.97,0.22-0.96,0.84-0.69
		l1.1-1.12l-0.37-0.57l0.13-0.75l-1.03,1.23c-1.13,1.74-1.73,0.9-1.82,2.09l-1.75,0.57l-0.36-2.01l-1.61,2.68
		c-0.74,0.13-4.31,0.78-4.36,0.09c-0.84-0.02-1.18-3.26-1.19-3.26c-1.12,0-0.93,0.64-2.21,1.54c-0.02-1.19-0.8-0.03-0.8-0.95
		l0.42-1.24c0-0.76,2.88-2.88,3.62-3.09c1.78-0.49,3.13-0.77,5.07-0.42c1.81,0.33,2.02,0.26,3.33,0.75
		c0.85,0.33,0.82,0.13,2.26,1.25c0.85,0.66,3.33,2.09,3.34,3.3C580.68,336.31,572.39,337.98,568.47,337.98"/>
	<path class="st0" d="M310.65,304.67c0,2.16,1.07,4.52,2.01,5.59c1.17,1.33,3.75,0.78,5.61,0.78c1.91,0,2.37,0.88,3.06,0.88
		c0.99,0,1.18-0.59,1.44-1.32l0.19-3.95c-0.71-0.07-1.26-0.15-1.26-0.89v-1.1h-0.57c-0.46,0-1.49,1.14-1.72,1.53
		c-1.06-0.56-0.33,0.23-0.95,0.23c-1.02,0-1.55-1.33-1.34-2.42c-0.35-0.27-0.34-0.44-0.76-0.44h-0.19c-0.74,0-0.07-0.06-0.63,0.25
		l0.44,1.07h-0.37c0.16,2.32-0.68,1.29-0.76,0h-0.77c-0.53,0-1.28-0.91-1.55-1.35l-0.49,0.36l-2.1-1.33l-0.22,0.21l0.73,1.99
		L310.65,304.67z"/>
	<path class="st0" d="M329.38,272.96l0.2-0.06l-1.57-4.07c0,2.18,0.77,2.86,0.77,3.96V273c0,0.56-0.58,0.95-0.58,1.33
		c0,0.81,0.6,1.56-0.6,0.67l0.22,0.87h-0.57c0.76,1.31,4.58,3.1,4.58,1.76c0-1.29-0.95-1.32-0.95-3.52L329.38,272.96z"/>
	<path class="st0" d="M335.37,276.8c0.84,0.3,2.9-2.62,2.9-2.69v-0.66c0-0.61-0.22-0.54-0.57-0.68l-2.48,0.1l0.1-0.2l-0.59-0.49
		l-0.47,0.82l-0.72-0.53C333.5,273.89,334.54,276.5,335.37,276.8"/>
	<path class="st0" d="M335.79,281.59c0.61-3.05,3.17-4.15,3.43-5.29C336.65,276.38,334.88,280.95,335.79,281.59"/>
	<path class="st0" d="M329.92,280.05l-0.79,0.02l0.79,2.18c0.25-0.19,0.76-0.69,0.76-1.09c0-0.3-0.27-0.94-0.38-1.11H329.92z"/>
	<path class="st0" d="M326.47,273.89l1.15,0.66c-0.08-0.34-0.69-1.54-0.95-1.54c-0.29,0-0.33,0.52-0.71,0.88l0.15,1.06l0.55,0.26
		v-0.66l-0.41-0.01L326.47,273.89z"/>
	<path class="st0" d="M346.09,296.97c-0.66-0.2-0.5-0.44-0.76-0.44c-0.45,0-0.58,0.15-0.58,0.66l-0.01,0.62l1.35-0.4V296.97z"/>
	<path class="st0" d="M360.86,324.8l0.88,1.01l-0.53,0.09c1.18,0,1.83,0.25,2.68,0.48c0.42,0.1,1.69,0.08,2.28,0.09
		c2.02,0.04,1.83-0.25,3.42-0.25c0.13,0,1.85-0.57,1.99-0.65l1.66-0.51l2.07-1.67c-0.2-0.91-0.24-1.73-1.24-1.73h-0.2
		c-1.03,0-1.43,0.34-2.09,0.62l0.29,0.59c-0.96,0.35,0.04-0.11-0.87-0.11c-0.13,0-0.52,0.44-0.97,0.63l-0.22-0.77l0.01,0.17
		l-3.23-0.33l-0.71,0.67l-0.47-0.5l0.79-0.2l0.01-0.29l-1.31-0.51l-0.02,0.51l-0.55-0.34l-1.38-0.12l-0.65,0.57
		c-1.06,0.03-0.75-0.27-1.64-0.27c-0.53,0-0.54,0.07-0.97,0.16l-0.27-0.68l-0.37,0.72l0.11,0.58l-0.43,0.01v0.93
		C358.91,324.56,359.9,324.73,360.86,324.8"/>
	<polygon class="st0" points="347.69,315.75 346.9,315.15 347.14,315.92 	"/>
	<polygon class="st0" points="337.51,284.88 338.08,284.88 338.08,284.45 337.51,284.22 	"/>
	<path class="st0" d="M303.43,322.39c0.84,3.2,3.2,5.15,6.79,5.15h1.53c1.56,0,3.2-2.64,4.58-2.64c2.1,0,2.74,0.84,3.86,1.92
		c1.56,1.53,3.46,1.11,4.14,1.59h3.06l2.7-0.95c-0.09-0.41,1.75,1.13,2.91,1.94c2.88,1.99,5.91,3.25,9.5,1.27
		c1.16,1.82,5.21,4.78,8.05,4.78h1.91c3.1,0,8.63-1.92,8.63-4.97v-0.2c0-1.65-0.51-1.86-0.77-2.99c0.99,0.03,3.48,0.94,4.65,1.19
		c1.68,0.36,4.18,0.15,5.94-0.16c2.36-0.42,7.22-3.26,7.22-6.01v-0.78c0-3.11-5.54-6.18-8.25-6.76c-5.86-1.26-7.79,0.56-11.49,2.58
		c-1.76-2.73-0.6-2.62-3.35-4.85c-0.96-0.78-2.46-2.24-4.12-2.83c-1.19-0.41-2.38-0.67-4.22-0.88c0,0-0.28,0.52,0.35-0.71
		c1.06-2.09,0.47-1.54,1.13-3.59c0.56-1.77,0.74-3.51,0.74-5.97c0-1.95-3.83-6.47-4.77-8.79c-1.6-3.99,1.15-6.8,1.15-11.45
		c0-1.91-1.42-5.88-2.35-6.76c-0.91-0.86-1.19-1.59-2.15-2.34c-0.87-0.68-1.58-1.22-2.41-1.85c-1.42-1.08-4.12-1.96-5.15-3.51
		c-1.01-1.51-2.44-3.89-2.44-6.42v-0.44c0-0.72,0.16-0.17,0.38-1.11c-0.5-0.29,0.17-0.22-0.57-0.22h-0.18
		c-1.08,0-1.21,4.06-1.49,5.33c-0.3,1.38-1.04,4.18-1.56,5.22c-1.64,3.26-4.4,3.59-4.4,9.01v0.66c0,0.91,0.77,2.61,0.77,4.18v0.88
		c0,1.93-1.32,3-1.53,5.06c-0.2,2.05-0.97,2.53-1.08,5.01c-0.09,2.29,0.31,3.56,1.01,5.19c0.38,0.85,2.16,4.07,2.16,4.09l-2.1-0.24
		c-2.04-0.26-3.44,0.89-5.51,0.01c-1.54-0.66-2.15-2.14-3.66-2.81c-4.06-1.83-6.25-1.23-9.65,0.71c-2.52,1.43-4.19,4.44-6.86,6.15
		c-2.73,1.75-7.21,1.41-8.84-1.4h-0.58v0.45c0.51,0.67,0.29,1.29,0.36,2.19c0.11,1.23,0.4,1.52,0.78,2.42
		c0.48,1.15,1.79,2.67,2.62,3.57c3.44,3.71,3.12,2.25,7.32,4.1C302.14,317.13,302.18,317.58,303.43,322.39 M331.1,326.42
		c-1-1.4-1.37-2.17-2.02-3.88c-1.05-2.76-0.33-2.39,0.22-4.8c1.3,0.11,0.63,1.14,0.78,2.58c0.1,0.98,0.46,1.9,0.78,2.77
		c0.5,1.42,2.08,3.76,2.27,4.6c0.91,0.08,3.23,1.75,3.45,2.39c0.75-0.07,0.46-0.19,0.95-0.19c0.55,0,0.84,0.18,1.15,0.39
		C335.45,330.56,332.63,328.57,331.1,326.42 M340.6,325.3c-1.61,0-1.62-0.67-1.92-1.99l-1.53-0.59l-0.61,0.37l0.84,0.25l-0.86,0.57
		l0.21,0.01l-1.17,0.64l0.96-0.64l-1.28-0.03l-0.04-1.62l-0.79,0.54l-0.92-1.7c0.1-0.44,0.19-0.46,0.19-1
		c0-0.49-1.67-1.05-1.83-1.27c-0.26-0.35-0.15-0.84-0.44-1.14c-0.45-0.46-0.37,0.19-0.98-0.76l0.2-0.59l2.28-0.62l-0.29-1.33
		c1.48,0,1.59,0.15,2.98,0.15l-0.04-0.48c1.18,0,2,1.23,2.73,0.88c0.78,1.2,1.4,0.81,2.43,2.65c0.71,1.27,1.21,1.65,2.02,3.36
		l-0.81,0.74C341.95,322.57,341.34,325.3,340.6,325.3 M333.74,313.03c0.45-0.14,0.94-0.22,1.47-0.22h1.98
		c-0.01,0.05-0.02,0.1-0.04,0.15h-2.49C334.36,312.96,334.05,312.97,333.74,313.03 M359.2,331.47c-0.14,0-1.55-0.69-1.73-0.81
		c0.45-2.2-3.17-3.53-3.45,0h-0.58l0.17-0.19l-1.2-1.13l-0.15,0.12l0.22-0.98h-0.57v0.59c-1.67-0.4-0.58-1.79-1.92-1.79h-0.19
		c-0.68,0-0.75,0.69-0.76,1.4c-1-0.55-1.63-0.68-1.92-1.99l-0.97,0l0.4,0.59l-0.81,0.01l-0.21-0.84l-0.33,0.63
		c-0.51-0.28-1.19-0.99-1.53-0.99c-0.53,0-0.47,0.23-0.77,0.6c0.48,0.94,0.69,1.49,1.24,2.49c0.46,0.84,1.32,1.29,1.84,2.13
		l0.77-0.24l-0.17,0.75l0.37,0.4l0.09-0.19l3.52,1.82c-0.09,0.18-0.13,0.39-0.39,0.39c-1.83,0-4.23-1.5-5.22-2.53
		c-1.06-1.12-2.63-3.18-2.63-5.22v-1c0-2.57,2.02-3.74,4.2-4.2c0.59-0.12,2.57-0.27,3.24-0.26c1.64,0.04,2.17,0.67,3.47,0.69
		l0.81,0.34l0.74,0.45c0.17,0.27,2.5,2.42,3.11,3.13c0.69,0.78,2.25,2.75,2.25,4.03C360.15,330.31,359.7,331.47,359.2,331.47
		 M357.66,322.71c0-0.85,0.1-1.53,0.3-2.27c0.4-1.55-0.4-0.87,0.45-1.29l0.41-0.42c0.93-0.72,1.38-1.79,3.25-1.79
		c0.72-1.11,2.06-1.39,3.84-1.39h1.72c2.95,0,5.92,1.96,7.71,3.34c3.49,2.69,1.47,4.61-1.23,6.37c-0.77,0.5-2.68,1.8-3.8,2.05
		c-2.69,0.61-2.97,0.18-5.39,0.09c-2.21-0.09-2.83-0.88-4.55-1.52c-0.68-0.25-2.69-2.34-2.69-2.97V322.71z M350.16,310.57l2.53,1.34
		c1.9,1.38,4.58,2.62,4.58,5.62c0,0.02-0.5,0.85-0.58,0.99c-1.61,0-1.83,0.18-1.75-0.79c0.1-1.08-0.29-2.19-1.12-2.19h-0.57
		c-0.34,0-1.06,0.6-1.34,0.8l-0.17,1.4l0.38,0.81l-0.44,0.55l0.42,0.02v0.6l-1.95-2.36l-0.72,0.22l-0.51-0.89l-0.75,2.3l-1.55-2.23
		l0.07-0.24l0.44-0.56c-0.52-0.28,0.14-0.22-0.59-0.22c-0.11,0-0.43,0.3-0.59,0.39l-1.29-0.87l0.16-1.71l-0.89-0.91
		c-1.27-0.12-0.57,0.08-1.95-0.24c-1.14-0.27-2.21,0.42-3.09,0.67c0.14-1.21,3.77-3.04,4.68-3.5l0.95,0.25l1.5-0.25
		C348.31,309.59,348.76,309.32,350.16,310.57 M322.83,290.7c0.44,2.1,2.82,3.25,4.39,3.88c0.84,0.34,2.24,0.88,2.92,1.48
		c0.94,0.83,2.02,0.73,3,1.31l0.66-0.92l-0.75-0.67l0.35-0.6l-0.8-1.06c0-2.69-0.74-1.77-1.46-4.26c-0.32-1.13-0.77-3.78-1.69-3.73
		l-0.85,0.74c0.11,0.59,0.19,0.42,0.19,0.88c0,0.32-0.72,0.66-0.78,0.69l-1.83-0.21l-0.46,0.84l0.21,1.1h-0.39l-0.06,0.93
		l-0.89-1.37c-0.7,0.59-0.19,0.97-0.19,2.41c-0.43-0.26-1.15-0.58-1.15-1.31v-0.66h-0.36c0.16-4.06,2.42-7.99,2.42-9.68
		c0-3.35-1.34-2.87-1.34-5.06c0-3.79,1.66-4.89,3.29-6.76c0.9-1.02,2.69-5.32,3.02-6.87c1.29,0.39,1.86,2.76,3.54,4.05
		c1.03,0.79,3.3,2.44,4.28,2.99c1.95,1.13,2.76,1.5,3.81,3.74c0.65,1.37,2.48,2.82,2.48,5.06v2.19c0,1.16-0.86,3.35-1.17,4.59
		c-0.55,2.13-1.93,2.19-2.26,3.12c-0.9-0.09-1.22-1.34-1.72-2.2l-0.92,0.91l-1.51-2.06l-0.68,1.56c-0.73-0.17-0.5,0.02-0.91,0.69
		l0.18-3.96l-1.06,2.24l0.26,3.9l-0.13,1.56c0,0.49,0.15,0.48,0.38,0.88c-0.36,0.88,0.32,3.03,0.96,3.52
		c-0.12,0.62-0.19,0.38-0.19,0.88c0,0.21,0.63,1.33,0.76,1.54h0.96l0.68,1.47l0.67,0.15c0.56-0.32,2.41-1.53,3.03-1.85
		c1.58-0.82,1.89-0.59,1.73-2.85l0.54-0.47c1.75,1.35,3.98,3.64,4.04,6.84l-1.36-0.6l-0.37,1.7l-1.12-0.89
		c-0.39,1.08-1.45,0.24-2.68,0.24l-0.58,1.53l-0.75-0.24l-0.39-2.17c-2.57,0.25-1.86,1.91-1.55,4.85c0.22,2.11-0.55,4.67-1.32,5.71
		c-0.13-0.59-0.19-0.42-0.19-0.88c0-0.11,0.27-0.48,0.38-0.66v-1.1l-0.47,0.93l-0.26-0.06l0.16-3.07c0.03-0.64-0.44-1.07-0.77-1.32
		l0.2-0.09l-1.48-4.47c-1.33-1.21-5.52-2.94-7.69-3.15l1.09,1.61l1.02-0.08c0.34,0.26,1.44,1.32,1.72,1.32
		c0.36,0,0.34-0.07,0.57-0.22l0.18-0.13l0.86,1.61l-0.7,0.68c0.21,0.39,0.62,1.03,0.62,1.35v0.67l-1.13,0.48
		c-0.02-1.75-0.71-3.26-1.92-2.68l1.73,2.85c-0.52,0.3,0.13,0.23-0.6,0.23c-1.15,0-2.37-1.46-3.33-2.1
		c-1.18-0.77-1.7-1.71-2.44-2.91C324.11,297.01,322.85,294.35,322.83,290.7 M292.89,311.44c-0.4-0.36-5.67-6.33-4.04-6.33
		c0.38,0,3.21,1.09,4.78,1.09c5.76,0,8.43-9.23,14.5-9.23c5.72,0,7.75,4.95,9.91,4.62l3.63-0.5c3.26-0.46,5.72,1.94,7.12,3.74
		c0.87,1.11,3.91,5.49,3.96,7.09c-0.5-0.38-2.44-2.42-2.67-2.42h-0.59l0.16-0.88l-0.81-1.49l-0.49,0.4l-0.01-0.89l-0.77-0.18
		c0.24-0.44,0.39-0.42,0.39-0.92c0-0.38-1.91-1.76-2.29-1.76c-0.05,0-0.35,0.16-0.57,0.22l0.39,0.88c0,3.78,1.09,4.86,0.38,8.35
		l-0.1,0.2l3.53,2.17c-0.27,0.31-0.5,0.63-0.73,0.97c-0.79-0.7-2.45-1.25-3.47-1.35v0.88l-1.22,0.48l0.68,1.02l-0.03,1.14
		c0.23,0.39,0.38,0.38,0.38,0.88v0.44l-0.3,2.83l-0.85-0.41l0.22,0.86l-0.87-0.55l0.57-4.07l-0.39-0.74l-0.2,0.06l0.44-1.59
		l0.3,0.05l-0.44-0.82v-1.33l-3.65-1.44c-0.42,0.03-0.54,0.13-1.12,0.13h-0.76c-1.87,0-1.18-0.67-2.77,0.33
		c-0.86,0.55-1.56,0.5-1.98,1.45c-0.82,1.82-1.57,2.56-2.51,4.59c0.3,0.73,0,1.32,0.77,1.32h0.57l0.08,0.68l0.37-0.95l0.11,0.7
		l3.45-0.82c0.3,1.3,2.11,0.81,2.66,0.4c0.57,0.56,3.25,2.08,3.25,2.63v0.22c0,0.84-0.35,0.04-0.39,1.54l-2.29-1.33
		c-1.42,0.01-1.25-0.43-2.09-0.43h-0.58c-1.66,0-4.4,3.08-4.76,3.08h-0.58c-0.99,0-0.84-0.63-2.09-0.67c-1-0.03-1.68,0.13-2.34-0.39
		c-0.48-0.36-2.01-2.66-2.26-3.32c-0.32-0.83-0.06-1.57-0.44-2.57c-0.19-0.5-0.56-1.39-0.81-1.92c-0.65-1.42-1.49-2.02-2.85-2.65
		c-1.71-0.79-1.89-1.16-4.09-1.45C294.84,313.28,293.83,312.3,292.89,311.44"/>
	<path class="st0" d="M391.24,337.56c1.63-0.98,2.44-2.05,2.77-4.34c0.2-1.33,0.28-2.94-0.57-4.1c-0.71-0.98-0.69-1.1-1.81-1.71
		c-1.14-0.61-3.47-1.72-5.05-1.72h-2.88c-4.07,0-9.38,2.94-9.38,6.96c0,2.46,1.9,3.66,3.67,4.4c0.99,0.42,3.02,1.44,4.2,1.59
		c0.81,0.1,1.35,0.42,2.69,0.42c0,0,3.17-0.34,3.97-0.67C389.98,337.93,390.31,338.11,391.24,337.56 M378.13,330.08l-0.37,0.57
		l1.1,1.12c0.62-0.27,0.77-0.28,0.84,0.69c-0.87-0.08-3.2-1.1-3.2,0.1l0.47,0.34c0,1.54,1.7,1.93,2.86,2.41
		c0.44,0.19,6.01,1.32,6.39,1.34l1.06,1.34c-3.92,0-12.22-1.67-12.19-6.12c0.02-1.21,2.49-2.64,3.34-3.3
		c1.44-1.12,1.41-0.92,2.26-1.25c1.32-0.49,1.52-0.42,3.33-0.75c1.94-0.35,3.29-0.07,5.07,0.42c0.74,0.21,3.62,2.32,3.62,3.09
		l0.42,1.24c0,0.92-0.77-0.24-0.8,0.95c-1.28-0.9-1.09-1.54-2.21-1.54c-0.02,0-0.36,3.23-1.19,3.26c-0.05,0.69-3.62,0.04-4.36-0.09
		l-1.62-2.68l-0.36,2.01l-1.74-0.58c-0.09-1.18-0.69-0.34-1.82-2.09l-1.03-1.23L378.13,330.08z"/>
	<path class="st0" d="M485.18,197.15h2.11c0.78-3.65,1.68-6.65-2.11-6.65c-0.69,0-0.9,0.23-0.9,1.01v4.64
		C484.28,196.92,484.49,197.15,485.18,197.15"/>
	<path class="st0" d="M491.82,197.48l0.17-1.01l-0.47-5.62h-2.7l-0.61,5.98c0.59,0.34,0.88,0.66,1.81,0.66H491.82z"/>
	<path class="st0" d="M438.46,201.17c-8.64,1.45-13.92,3.34-13.92,5.42c0,4.55,25.14,8.25,56.15,8.25s56.15-3.7,56.15-8.25
		c0-4.55-25.14-8.25-56.15-8.25c-10.36,0-20.03,0.42-28.36,1.14c1.96-0.23,4.69-0.57,5.09-0.67c0-2.12,0.61-2.53,0.61-4.65
		l0.02-0.94l0.98-0.36l-0.7,4.62h-0.61c0.18,0.75,0.3,1.33,1.22,1.33h1.51c0.91,0,1.21-0.32,1.82-0.46l3-0.21
		c0.36-0.6,0.61-0.58,0.61-1.32l-0.02-0.34l0.06-2.69l-0.71-1.03l0.96-0.92c0,1.44-0.01,2.89-0.01,4.33c0,2.78,0.41,1.8,2.24,1.66
		l0.53-5.94l1.01-0.69l-0.74,4.95c-0.06,0.32,0.17,0.73,0.29,1.33h3.94c1.52,0,0.89-4.64,0.93-6.36l0.92,0.72l-0.35,4.31
		c-0.04,0.55,0.14,0.54,0.3,1.33c1.39,0.03,1.01,0.33,2.11,0.33c0.7,0,0.36-0.11,1.23-0.33l0.6-6.31l0.76-0.02l-0.47,4.66v0.66
		c0,0.76,0.22,1,0.91,1h2.11c1.76,0,0.93-5.73,0.9-6.64c-0.68-0.18-0.69-0.34-1.51-0.34h-5.73c-6.89,0-15.49,0.6-21.49,1.59
		c-3.37,0.55-7.2,0.99-10.22,1.36c-1.45,0.18-3.98,0.35-4.8,1.02c-0.81,0.65-1.21,4.28-0.7,5.27L438.46,201.17z M450.49,192.84
		c0.33,1.58-0.7,6.41-0.21,6.83c-0.31,0.03-0.64,0.05-0.95,0.08l0.79-6.96L450.49,192.84z M445.06,194.17c0,3.5-1.05,5.42-0.72,6.14
		c-0.45,0.06-0.87,0.12-1.31,0.18C444.42,198.85,443.22,195.64,445.06,194.17 M441.26,194.74l0.38,0.12l-0.72,5.91
		c-0.42,0.06-0.8,0.13-1.2,0.19c0.59-0.76,0.81-1.92,0.81-2.81c0-1.27,0.1-0.12-0.3-1L441.26,194.74z"/>
	<path class="st0" d="M495.66,197.79c0,0.06-0.01,0.18-0.01,0.23l0.96-0.14v-0.07c0.31,0.01,0.59,0.01,0.94,0.01
		c0.15-0.74,1.11-6.31-0.3-6.31c-0.31,0-0.5,0.06-0.62,0.15l0-0.84l-0.34,0.21c-0.12,0.29-0.23,1.05-0.32,1.92
		c-0.21-2.88-3.55-2.4-3.55-1.1v0.33C492.43,196.99,492.44,197.69,495.66,197.79"/>
	<polygon class="st0" points="513.68,234.07 513.84,233.75 513.8,233.7 	"/>
	<path class="st0" d="M443.85,261.87c-0.07,0.08-0.16,0.14-0.24,0.21l0.03,0.04L443.85,261.87z"/>
	<path class="st0" d="M439.32,186.53c-3.77,0.63-7.83,1.74-11.4,2.72c-5.87,1.6-15.99,5.45-19.12,9.82
		c-2.92,4.1-3.57,18.91-3.57,26.61c0,6.68,3.74,21.79,5.61,27.02c1.33,3.72,2.74,8.6,3.86,12.34c0.53,1.7,1.69,4.14,2.27,5.81
		c0.9,2.59-0.87,2.02-4.08,2.75c-9.13,2.07-15.43,4.21-23.31,7.21c-2.49,0.95-7.1,3.86-9.18,5.23c-1.58,1.04-3.38,2.09-4.85,4.51
		c-1.22,2-1.3,3.38-1.7,5.81v1.32c0.58,1.7,0.57,3.07,2.53,5.51c1.34,1.65,2.31,2.26,4.17,3.72c2.92,2.3,6.72,4.3,10.17,5.9
		c3.69,1.72,6.58,3.47,10.35,4.72c3.16,1.04,9.54,2.49,12.31,3.06c4.29,0.89,9.12,2,12.71,2.62c5.02,0.87,8.63,1.36,13.25,1.97
		c4.85,0.64,10.05,1.16,13.86,1.39c1.89,0.11,12.6,0.46,14.76,0.62h21.79l15.8-1.03l17.96-1.61c1.4-0.09,6.51-1.01,8.69-1.37
		c1.9-0.32,7.13-1.61,9.13-2.04c5.56-1.19,9.78-2.46,14.8-4.18c5.57-1.9,9.62-3.62,14.05-6.44c2.92-1.86,8.68-7.46,8.84-11.84
		c0.44-11.43-9.01-14.29-15.38-17.26c-1.92-0.9-9.14-3.52-11.6-4.18c-2.67-0.72-10.38-2.47-12.24-3.45
		c1.23-5.08,21.97-9.73,27.35-12.72c6.25-3.47,6.97-2.91,10.67-9.5c2.18-3.89,4.82-9.71,4.82-15.94v-2c0-2.64-3.1-8.63-4.59-10.21
		c-2.02-2.11-6.38-4.06-10.19-4.06c-2.89,0-7.29,1.25-9.62,2.05c-2.6,0.88-6.2,2.67-8.48,3.27c-1.11-5.22,2.22-20.38-1.14-25.3
		c-3.77-5.53-10.42-7.55-17-9.84c-6.66-2.3-13.98-3.62-21.67-4.7c-1.05-0.15-3.91-0.97-5.51-1.25c-1.74-0.28-4.19-0.26-5.97-0.39
		c-1.74-0.13-11.25,0-12.35-0.65h-8.81c-1.13,0.68-11.67,0.53-13.55,0.64c-3.92,0.24-8.83,1.01-12.43,1.59
		C446.51,185.6,443.61,185.82,439.32,186.53 M382.9,302.02c0,1.48-0.13,2.69-1.07,3.32l0.06-3.32c0.13-0.92,0.33-0.79,1.01-0.99
		V302.02z M384.72,306.98l-0.89-0.38l-0.32-2.59c-0.12-0.71,0.22-0.93,0.29-1.99c0.85,0.08,1.22-0.01,1.22,0.99l0.06,1.01
		L384.72,306.98z M387.12,307.99c-0.97-0.02-1.5,0.12-1.5-0.99v-1.33c0-1.14,0.22-1.28,0.29-2.32h1.21
		c0.16,0.73,0.39,0.97,0.37,1.67L387.12,307.99z M389.24,309.32h-1.2c-0.16-0.75-0.31-0.76-0.31-1.66c0-1.43,0.36-1.8,0.61-2.98
		C390.44,304.87,389.24,306.81,389.24,309.32 M391.35,310.65c-0.08,0-1.12-0.29-1.22-0.33v-1.99c0-0.88,0.24-2.66,0.91-2.66
		c0.41,0,0.72,0.7,0.91,1C391.96,307.83,392.51,310.65,391.35,310.65 M394.37,311.65c-0.79-0.03-1.9-0.23-1.81-1l0.3-3.98
		c0.9,0.08,1.51,0.24,1.51,1.32V311.65z M397.08,311.31c0,0.89-0.15,0.91-0.3,1.67c-0.89-0.47-1.81-0.55-1.81-1.99
		c0-0.98,0.18-3.32,0.9-3.32c1.06,0,1.21,1.47,1.21,2.65V311.31z M399.5,311.97c0,0.9-0.15,0.92-0.31,1.67l-0.21,0.25l-1.43-1.41
		l0.15-3.76l0.59-0.38c0.66,0.38,1.21,0.29,1.21,1.33V311.97z M401.61,313.3c0,0.75-0.25,0.74-0.61,1.34
		c-0.47-0.35-0.9-0.45-0.9-1.34v-0.32c0-1.88-0.02-3.18,1.51-3.32V313.3z M404.63,314.3c0,0.75-0.24,0.73-0.61,1.32
		c-0.79-0.42-1.81-0.38-1.81-1.66c0-1.57,0.34-2.4,0.6-3.65c0.95,0.09,1.82,0.23,1.82,1.34V314.3z M407.34,315.3
		c0,0.76-0.22,1-0.91,1c-0.71,0-1.21-0.55-1.21-1.34v-2.65c0-0.76,0.22-1,0.91-1h0.3c0.69,0,0.91,0.24,0.91,1V315.3z M410.03,316.89
		l-1,0.53l-1.51-1.66c0.27-0.86,0.68-3.8,1.32-3.8c0.71,0,1.21,0.56,1.21,1.33L410.03,316.89z M413.38,316.96c0,0.54-0.19,1-0.6,1
		c-1.04,0-0.65-0.2-1.82-0.33v-3.98l0.02-1.08l2.1,0.42c0.07,1.03,0.3,1.17,0.3,2.32V316.96z M414.28,318.3
		c-0.08-1.06-0.3-1.2-0.3-2.34v-1.66c0-0.54,0.18-1,0.61-1c2.01,0,2.71,3.4,2.68,5.76L414.28,318.3z M420.01,318.61
		c0,1.46-1.8,1.26-2.16-0.62c-0.15-0.78-1.06-4.03,0.05-4.03c0.93,0,2.11,0.27,2.11,1.34V318.61z M422.12,319.94h-0.3
		c-1.65,0-1.39-4.98,0.3-4.98h0.3C423.98,314.96,423.32,319.94,422.12,319.94 M426.05,318.95c0,0.89-0.15,0.91-0.29,1.66h-0.92
		c-0.69,0-0.9-0.23-0.9-0.99v-3.31c0-0.77,0.21-1,0.9-1c1.06,0,1.21,1.47,1.21,2.65V318.95z M428.46,318.61
		c0,1.14-0.22,1.29-0.31,2.33c-0.67-0.02-1.51,0.1-1.51-0.66c0-1.05,0.16-4.32,0.91-4.32c0.7,0,0.9,0.23,0.9,1V318.61z
		 M429.06,320.94v-1c0-1.58,0.33-2.4,0.6-3.64c0.49,0.39,0.91,1.09,0.91,1.98C430.58,320.11,430.45,321.49,429.06,320.94
		 M432.98,319.94c0,1.02-0.28,1.34-0.6,1.93l-1.2-0.34l-0.08-1.93l0.37-2.97c1.42,0.13,1.51,1.06,1.51,2.66V319.94z M435.7,320.6
		c0,0.9-0.15,0.92-0.31,1.66c-0.93-0.08-1.81-0.22-1.81-1.32v-1.65c0-1.15,0.23-1.3,0.31-2.33c0.94,0.07,1.81,0.22,1.81,1.32V320.6z
		 M437.8,322.22l-0.59,0.38c-0.47-0.34-0.9-0.44-0.9-1.33c0-2.36-0.09-4.03,1.5-3.65L437.8,322.22z M439.92,322.6l-0.89,0.01
		l0.34-0.99l-0.65-0.03v-1.31l1.57,0.01L439.92,322.6z M440.23,319.61c-0.58-0.05-1.21,0.02-1.21-0.66c0-0.75,0.1-0.39,0.31-1.35
		l1.24,0.7L440.23,319.61z M444.45,321.59c-0.81-0.02-1.4,0.11-1.51-0.65l1.51-0.34V321.59z M443.85,319.94
		c-0.48,0-0.71-0.91-0.9-1.33l1.51-0.33C444.44,319.02,444.55,319.94,443.85,319.94 M447.77,317.62c-5.01,0-30.65-4.77-33.31-5.65
		c-4.74-1.55-17.03-4.7-21.12-6.49c-6.05-2.65-15.13-5.5-15.45-11.88c-0.2-3.96,3.68-5.72,6.7-7.97c1.31-0.98,8.34-4.05,10.26-4.65
		c4.28-1.32,7.12-2.54,11.98-3.67c2.1-0.49,3.42-0.73,5.27-1.25c0.56-0.15,5.95-1.26,6.41-1.26c0.72,0,2.99,5.04,3.02,6.31
		c-3.38,0.3-6.79,3.13-9.56,4.42c-2.03,0.95-2.72,0.83-4.2,2.68c-0.84,1.05-3.45,3.02-3.45,3.84c0,0.81,0.56,1.22,0.82,1.64
		l-0.23,1.68c1.16,1.9,1.74,1.34,2.92,3.76c0.48,1.01,3,2.88,3.73,2.88c4.55,0,2.84,0.62,6.82,2.11c2.21,0.83,5.45,1.44,6.47,3.33
		l7.54,0.85l0.28,0.98l2.13-0.97c0.2,0.43,0.42,1.33,0.9,1.33c0.72,0,0.89-0.54,1.6-1.05l1.12,1.71l0.96-1.4l1.14,1.39l1.52-0.65
		c0.1,0.49,0.06,0.99,0.6,0.99c0.92,0,1.22-0.32,1.73-0.59l1.27,1.25c0.56-0.4,0.54-0.66,1.22-0.66c0.99,0,0.73,0.86,1.67,1.49
		l1.45-1.41l0.2,0.25C450.18,313.23,449.34,317.62,447.77,317.62 M433.89,258.21c0.35-0.56,0.05-0.67,0.9-0.67h1.81
		c0.09,0.39,0.3,0.9,0.3,1c0,1.37-1.01,1.52-1.88,1.98l0.39-2.3L433.89,258.21z M430.27,229.35v-1.33h0.9
		c0.68,0,0.67-0.27,1.21-0.67c-0.02,1.2-0.13,2-1.21,2H430.27z M430.87,248.58c-0.29,1.21-0.03,0.9-1.21,1.01
		C429.97,248.39,429.7,248.7,430.87,248.58 M442.8,226.77l-2.27,5.56h-2.11c0.08-1.11,1-3.65,1.81-3.65c0.81,0,0.83,0.17,1.49,0.34
		l-0.28-1.95L442.8,226.77z M442.64,225.36c0-0.56,1.11-1.66,1.81-1.66c1.5,0,0.42,1.43,0,2.32h-0.61h-0.3
		C443.05,226.02,442.64,225.82,442.64,225.36 M441.14,225.34l-0.88-0.38c0.08-0.43,0.05-0.93,0.58-0.93c0.69,0,0.34,0.11,1.27,0.41
		L441.14,225.34z M439.62,222.04c-0.35,0-0.84-0.23-0.9-0.33l0.9-1c1.07,0.62,0.87-0.06,1.21,1.32H439.62z M439.92,225.69
		c0.93,0.69,1.18,0.67,1.19,2.27l-0.88,0.39c-0.43-0.23-0.51-0.33-1.21-0.33h-0.9C438.63,225.88,439.37,227.39,439.92,225.69
		 M438.15,233.34l2.98-0.68c0.28,0.2,0.91,0.55,0.91,0.99c0,1.23-1.73,0.33-2.42,0.33c-0.58,0-0.99,0.46-1.85,0.65L438.15,233.34z
		 M439.95,236.25l0.28-0.93h1.2c-0.1,0.99-0.14,0.85-0.59,1.31L439.95,236.25z M440.79,237.97l-0.26,2.32c-0.68-0.2-0.9-0.08-0.9-1
		v-0.32C439.62,237.97,439.98,238.06,440.79,237.97 M441.37,248.91l0.47-2.73l0.72,1.07l0.43-5.59l0.82-0.56l0.62,0.18l-0.27,3.32
		l0.18-0.03l0.72-1.96c0,2.07,0.59,2.48,0.59,2.66c0,0.75-1.54,1.59-1.99,3.44c-0.39,1.62-0.97,4.19,0.19,4.19h0.31
		c1.81,0,1.8-0.64,3.01-1v0.67h0.61c0.19-2.61,0.66-0.27,1.81-2h-1.51c-0.32-0.65-0.6-0.98-0.6-2c0-0.88,0.44-0.98,0.9-1.31
		c1.42,0.82,2.11,4.62,2.11,6.96c-1.77-0.89-2.41,2.02-2.41-1.65l-0.22,0l-0.44,2.51l-1.14,0.8c0.93-0.09,1.05-0.34,2.1-0.34h0.6
		c0.7,0,1.2,0.55,1.2,1.33c0,1.35-5.62,4.18-4.56-0.95l-0.8-0.7l-0.42,2.03l0.82,1.22l-0.17,0.64l-2.44,0.4l0.38-1.3l0.8,0.3
		l0.33-1.25l-2.03-1.37l-0.34,0.99l-0.01-1.04l-3.31,0.38h-0.3c-0.7,0-0.91-0.23-0.91-1c0-1.28,2.44-1.33,3.62-1.33l-0.01-0.25
		l-2.4-0.42c0.16-2.21,1.97-1.7,3.32-2.98l-1.48,0.05l-1.47,0.76l-0.28-0.2l1.12-4.6h-1.2c-1.16,0-0.11-0.1-1.04,0.16l1.04-0.82
		c-1.02-2.34,2.28-1.9,2.3-1.89c0.85,0.49,0.41,3.98,0.41,5.2L441.37,248.91z M446.25,238.98l1.33,1.67l-0.72,3.29l0.43-0.09
		l1.73-3.93l-0.65-0.95c0.67-0.18,0.7-0.34,1.51-0.34h0.9l-0.04-0.53l-1.54-0.53l-0.03-0.49l1.91-0.77v-0.66
		c-0.51-0.15-1.2-0.39-1.2-1c0-0.06,0.56-2.44,0.61-2.63c0.39-1.32,0.84-1.35,2.53-1.18l-1.03,0.82v1.66
		c1.12-0.65,0.95-1.33,1.81-1.33h2.71c-0.06,2.88-7.54,4.81-7.54,14.27c-0.68,0.18-0.69,0.33-1.51,0.33h-0.92v-2.65
		c0-1.1-0.59-0.69-0.59-1.33c0-0.87,0.49-0.86,0.59-2.32h-0.88l0.29-2.99c0.38-0.22,1-0.66,1.51-0.66
		C450.14,236.65,446.64,238.76,446.25,238.98 M447.47,235.65c0-1.07,0.84-1.57,1.81-1.67c-0.13,1.72-0.43,1.7-1.51,2.33
		C447.77,236.31,447.47,235.69,447.47,235.65 M462.25,232.33c2.88,0,7.85,1.88,9.72,3.26c1.07,0.79,2.71,2.03,3.64,2.96
		c0.47,0.46,3.12,3.74,3.23,3.74c0.46,0,7.7-9.62,16.6-9.62c5.57,0,10.92,6.31,11.91,11.81c0.93,5.26-3.65,15.24-5.69,18.26
		c-3.4,5.02-6.4,9.11-10.38,13.49c-1.76,1.94-9.98,11.86-12.13,11.86c-2.51,0-10.7-9.4-12.32-11.68c-1.5-2.1-3.8-4.51-5.57-6.48
		c-1.97-2.19-3.01-5.01-4.97-7.14c-2.78-3.02-6.43-12.81-5.85-18.18C451.05,238.88,457.12,232.33,462.25,232.33 M457.43,232.33
		c0.11-1.42,0.44-1.99,1.81-1.99h1.51c0.85,0,0.56,0.14,0.89,0.57L457.43,232.33z M519.6,232.06l0.88-0.39
		c0.35,0.73,0.91,1.62,0.91,2.66v2.98h-0.59l-0.35-2.7l-0.92,0.76l0.64,0.96c-0.04,1.85,0.62,3.32-0.61,3.32
		c-1.25,0-0.98-1.57-0.86-2.99c0.21-2.3,0.02-0.99-1.55-0.99c-0.97,0-1.43-0.92-1.52-2.04l2.15,0.09l1.01-0.84l1.13,1.44
		L519.6,232.06z M522.29,233.99c1.1,0,1.1,0.75,1.82,1.33v-0.99c0.97,0.02,1.51-0.11,1.51,0.99c0,0.9-0.15,0.92-0.33,1.71
		l-2.08-1.37c0,0.83,0.14,1.98-0.61,1.98c-0.69,0-0.91-0.23-0.91-0.99v-1.67C521.69,234.44,521.87,233.99,522.29,233.99
		 M521.99,232.66v-0.33c0-0.54,0.18-1,0.61-1c1.15,0,0.1-0.1,0.9,0.33c-0.13,0.62-0.29,1.99-0.9,1.99
		C522.17,233.65,521.99,233.21,521.99,232.66 M544.33,239.3v1.33c0,1.24-3.07,1.89-4.23,1.99v-1.66L544.33,239.3z M541.3,219.06
		c0.78,0.57,0.8,0.34,0.91,1.66c-0.59-0.05-1.22,0.02-1.22-0.67C541,218.78,540.91,219.93,541.3,219.06 M539.2,228.02
		c-0.17,0-0.58-0.27-0.6-0.34c0.5-1.06,0.1-1.19,1.51-1.32C540.03,227.14,539.82,228.02,539.2,228.02 M540.4,224.69l-1.51,0.34
		c0.11-1.47,0.26-1.34,1.51-1.66V224.69z M539.78,217.43l-0.6-0.39l-0.59,0.36c-1.27-0.74-0.79,0.23-0.91-1.33l2.06-0.31l0.34,0.64
		L539.78,217.43z M540.7,249.92l-2.71,0.33c0.5-2.35,2.88-1.78,4.21-4.16l-3.3,0.51c0.56-2.3,1.64-1.04,2.71-2.61l-1.17-0.31
		l3.29-1.4c-0.03,1.52-1.35,6.01-1.81,7.3c-0.62,1.72-0.01,2.22-1.73,2.74c-1.21,0.36-2.23,1.14-3.4,1.25
		C537.29,251.45,540.08,252.46,540.7,249.92 M537.67,226.34l-1.35,0.67l0.09-1.65l1.27-0.33L537.67,226.34z M535.27,234.66
		c0.28-1.31,0.14-1.35,1.21-1.66C536.36,234.54,536.41,234.52,535.27,234.66 M536.17,235.99c-0.28,1.16-0.28,1.21-1.51,1.32
		C534.77,235.87,534.83,236.01,536.17,235.99 M536.77,218.39l-1.37,0.11l-0.88,1.23l-0.16,1.97v0.66c0,0.85,0.07,0.8,0.3,1.33
		c-1.65,3.43-1.15-0.51-1.51-1.33c1.86-4.25-1.21-2.51,3.62-5.32V218.39z M533.46,234.32c-0.06,0.78-0.27,1.66-0.91,1.66
		c-0.44,0-0.58-0.46-0.6-1.01L533.46,234.32z M531.04,232.33c0.11-1.43-0.04-0.6,0.6-1.65l0.91,0.33
		C532.04,232.07,532.44,232.2,531.04,232.33 M531.64,229.01v-1.99c0-1.18-0.9-1.01-0.9-1.66c0-1.83,0.6-2.35,0.6-4.65
		c0.7-0.41,1.41-1.12,1.31,0.35l0.51,6.29C533.23,228.48,532.64,228.92,531.64,229.01 M530.81,238.41l1.74-1.11l-0.08,1.22
		l-1.13,1.43l0.7,0.15l-1.74,1.12l0.7-1.61L530.81,238.41z M532.86,268.17c1.11,0.56,1.15-0.19,1.53-1.6l-2.11,0.71l-0.15-0.35
		l4.05-2.4c-0.25,3.4-2.02,4.35-3.02,5.98c0.97,0.35,0.32,0.7-0.33,1.85l-4.8,1.14c0.22-2.97,3.05-1.63,4.83-3.32l-1.82,0l2.06-1.63
		L532.86,268.17z M537.39,280.78c-0.14,0.59-0.34,1.66-0.91,1.66c-0.44,0-0.59-0.45-0.6-0.99L537.39,280.78z M525.91,235.99v-1.01
		h0.6v-0.65h1.82v0.38l-0.91-0.05v1c0,1.11,0.6,0.69,0.6,1.32c0,0.07-1.36,4.98-1.51,5.31c-1.63-0.48-0.6-0.21-0.6-1.32v-1.33h-1.81
		c0.03-1.71,0.37-1.85,1.89-1.99L525.91,235.99z M526.27,230.32l-0.34-0.98l0.28-1.66c0.94-0.08,1.81-0.79,1.81,0.67v1
		C526.61,229.91,528.18,230.16,526.27,230.32 M529.54,239.98l-0.91,0.31v0.67h0.6l-0.01,0.92l-1.12,0.39l-0.39-2.64
		c-0.15-1.06,1.08-1.14,1.81-1.32v0.99L529.54,239.98z M527.42,258.87c0.29-1.2,1.53-1.87,2.72-1.98
		C529.41,258.09,529.16,258.72,527.42,258.87 M529.67,259.33l-1.04,1.21c0,0-0.3-0.61-0.3-0.66
		C528.33,259.2,528.95,259.26,529.67,259.33 M527.13,255.56c-0.11,1.39-0.25,1.55-1.51,1.66
		C525.75,255.4,525.87,256.22,527.13,255.56 M524.71,252.58c0.09-1.22,0.1-1.23,1.21-1.33
		C525.64,252.39,525.75,252.26,524.71,252.58 M526.52,246.6c-0.85-0.08-1.21,0.01-1.21-0.99v-1.34v-0.66
		c0.34-0.2,1.65-1.09,1.57,0.01L526.52,246.6z M525.91,247.27c0.21,0.4,0.3,0.35,0.3,0.99v0.32c0,1.28-0.09,0.13,0.3,0.99l-1.5,0.99
		l-0.88-0.37C524.48,248.47,524.69,248.17,525.91,247.27 M526.52,258.21c-0.39,1.62-0.94,1.64-2.11,2.32
		C523.8,259.11,525.04,258.34,526.52,258.21 M527.73,259.88c-0.11,1.47-0.37,1.99-1.52,2.32
		C526.26,260.28,526.53,260.57,527.73,259.88 M528.94,242.95c0,1.74,0.01,2.52-1.52,2.66C527.3,243.96,526.8,243,528.94,242.95
		 M528.63,251.91c0.05-2.51,0.68-2.23,2.11-2.98C531.39,250.45,530.27,251.76,528.63,251.91 M524.66,261.26l0.43,0.34l-1.28,1.6
		c0-0.01-0.31-0.62-0.31-0.66C523.5,261.49,524.04,261.59,524.66,261.26 M524.98,283.4c1-0.39,1.59-1,2.75-1.3l-0.6,2l-0.61,0.01
		l-2.71,0.32h-0.31c-1.15,0-0.1-0.1-0.9,0.34C523.02,283.46,523.67,283.92,524.98,283.4 M524.14,282.86l-0.15-0.3l2.56-1.72
		l-1.6-0.21l4.5-2.37l0.26,0.33l-1.42,2.74L524.14,282.86z M527.92,278.05l0.71-1.25l-3.02,1c0.31-1.3,1.9-1.49,3.13-1.86
		c3.66-1.11,1.35-1.58,3.2-2.12C531.72,276.96,530.09,277.03,527.92,278.05 M529.84,248.26v-1.33c1.05-0.31,0.92-0.18,1.2-1.32h0.6
		C531.61,247.53,531.02,247.56,529.84,248.26 M530.74,229.68c-1.04-0.31-0.8-0.67-1.21-0.67c-0.4,0-0.17,0.36-1.2,0.67v-1.33
		c0-1.27-0.1-0.12,0.48-1.09l0.42,1.42c1.28-0.11,1.2-0.18,1.2-1.65h0.31V229.68z M528.33,225.03c-0.06,2.69-2.42,2.09-2.42,1.32
		C525.91,225.17,527.24,225.05,528.33,225.03 M526.21,224.36c0.29-1.18,0.78-1.21,2.12-1.32
		C528.18,224.51,527.76,224.36,526.21,224.36 M526.52,231v1.32c0,0.77-0.21,1-0.9,1h-0.91V232c0-1.27-0.09-0.13,0.36-1.06l0.58,0.78
		L526.52,231z M523.21,238.31v1.32c-0.39,0.22-1.01,0.66-1.52,0.66c-0.68,0-0.6-0.92-0.6-1.66L523.21,238.31z M519.82,240.32
		l0.36,0.98c0.68-0.17,0.69-0.33,1.51-0.33h1.2c-0.03,1.56-0.43,1.99-1.8,1.99h-0.91v1.66l-2.41,0.33c-0.09-0.39-0.31-0.9-0.31-0.99
		c0-1.07,0.67-2.54,0.91-3.65L519.82,240.32z M520.47,243.88l1.22-0.27c-0.03,1.55-0.09,1.99-1.2,2.33l0.35-0.98L520.47,243.88z
		 M517.17,246.27c0-0.77,0.21-0.99,0.9-0.99h0.9c1.48,0,0.63,1.31,0.3,1.99C518.6,247.2,517.17,246.96,517.17,246.27 M517.46,247.93
		v1.66h-1.2c-0.78,0-0.73,0.08-1.2,0.27l-1.2-0.34c0.01-0.99-0.12-1.59,0.89-1.59c0.99,0,0.63,0.65,1.2,0.65
		C516.59,248.58,515.84,248.07,517.46,247.93 M516.26,242.28v0.66h0.6l-0.05,1.08l-2.18,0.61l-0.36-1.98
		c-0.1-0.21-0.43-0.26-0.43-0.71C513.85,239.72,520.4,241.08,516.26,242.28 M515.65,245.27v1.66h-0.9c-0.49,0-0.9-0.19-0.9-0.67
		C513.85,245.44,514.81,245.29,515.65,245.27 M514.76,250.25h0.6c0.72,0,1.81-0.71,1.81,0.33c0,0.47-0.41,0.67-0.9,0.67h-2.11
		c-0.55,0-0.83-0.17-0.91-0.67C513.93,250.41,513.94,250.25,514.76,250.25 M517.17,252.25v1.65c-0.98,0.29-2.11,1.82-2.11,0
		c0-0.89,0.15-0.92,0.3-1.65H517.17z M512.34,255.23l-0.68,0.19l-1.33,1.45l0.18,1.96l0.01,0.03l1.35-1.5l0.34,0.24l-0.78,3.02
		l-0.53,0l-0.38-1.76l-0.01,0.01l0-0.04l-1.79,0.71l-0.31,1.66c-2.94-0.07-0.28-3.94,1.51-3.98l-0.63-1.75l-2.38,1.09l0.06-1.92
		l0.59-0.47l3.88-0.93v-0.99c-1.99,1.04-1.22-0.17-1.22-1v-1.32c1.23-0.55,0.34-1.66,1.81-1.66h0.91c-1.7,5.16-2.28,1.93,1.81,4.32
		C514.2,253.85,514.09,255.23,512.34,255.23 M513.85,259.88c-0.33,1.33-0.08,0.96-1.51,0.99
		C512.66,259.53,512.43,259.91,513.85,259.88 M511.14,261.53c-0.18,0.75-0.08,1-0.91,1h-1.51l0.71-1.26L511.14,261.53z
		 M507.08,269.13l-0.17,1.71l-0.89,0.31l0.28,1.99h-1.81c-0.81,0-0.83-0.15-1.59-0.46l0.99-0.52c-0.18-0.75-0.3-1.33-1.2-1.33
		c-0.7,0-0.91,0.23-0.91,1l-0.02,0.93l-1.88,0.87l0.99,0.52c-0.09,1.21-0.74,2.65-1.81,2.65h-0.6c-0.75,0-0.96-0.47-1.21-0.99
		c1.76-3.64,2.59-2.77,3.62-4.32c-0.45-0.12-0.91-0.07-0.91-0.66c0-1.09,0.61-1.25,1.51-1.32v1.32c0.6-0.76,0.99-1.99,2.11-1.99
		c0.68,0,0.66,0.25,1.16,0.61l0.94-1.39l-2.7,0.12v-1.99c0-0.77,0.21-1,0.91-1h2.41v0.65l-2.41,0.34v1.01l2.9-0.28l0.7,0.83
		l5.14-0.58C512.48,269.25,509.14,269.17,507.08,269.13 M509.32,271.82c-0.04,1.54-0.44,2.65-1.82,2.65c-1.75,0-0.03-2.65,0.91-2.65
		H509.32z M500.57,277.8l-0.3,1.98h-1.21C499.16,278.45,499.53,278.1,500.57,277.8 M494.18,280.79l-0.3-1.41l-2.06,1.67l-1.19-0.34
		l1.79-2.9l2.72,0.31l-0.02-0.6l-1.68-0.66l1.62-1.04l-0.23-1.67c0.63-0.47,2.41-1.72,2.41,0c0,0.58-0.91,1.84-1.21,2.32
		C496.04,278.95,496.13,280.3,494.18,280.79 M497.17,281.61l-1.43,1.83c-1.07,0-3.01,0.82-3.01-0.33c0-0.74,0.76-0.11,1.07-2.03
		l0.16,1.12L497.17,281.61z M496.95,272.16c0.33-1.54,1-2.62,2.72-2.66C499.32,270.93,498.61,272.11,496.95,272.16 M503.89,264.52
		h-1.52c0.32-1.25,2.69-5.64,3.93-5.64c0.27,0,0.61,0.38,0.61,0.67c0,1.07-0.85,1.58-1.82,1.66
		C505.18,262.35,505.58,264.52,503.89,264.52 M502.71,265.53l-0.63,2.65h-0.9c-1.15,0-0.11-0.11-0.91,0.33
		c-0.44-1.03,0.4-2.98,1.51-2.98L502.71,265.53z M506.6,264.19l-1.02-0.05l0.68-1.96l0.65,0.02h0.9
		C507.61,263.2,507.64,264.19,506.6,264.19 M507.51,252.91c0.13-1.7,1.23-4.47,2.72-4.65l-0.3,2.99c-0.42,0.71-0.65,1.66-1.51,1.66
		H507.51z M513.24,247.27h-1.51c0.06-0.76,0.27-1.99,0.9-1.99c0.5,0,0.9,0.19,0.9,0.66C513.55,246.7,513.44,246.32,513.24,247.27
		 M513.24,241.29c-0.07,0.93,0,1.32-0.9,1.32h-1.5v-1c0-1.27-0.09-0.12,0.3-0.99l-0.3,0.14l-0.89-3.06l0.99-0.52l1.4,1.77l0.91-0.32
		l-0.02,1.06l-0.88-0.39v1.99H513.24z M510.16,243.5l-0.83,0.85l2.86-0.3l-1.94,3.17l-1.46-0.76l-0.54-4.55l0.23,0.83l1.06-0.73
		L510.16,243.5z M507.87,241.18l0.84-1.55c-1.23-0.31-1.7-0.47-1.81-1.99l1.81,0.01l0.62,3.05L507.87,241.18z M506.91,236.98
		c-0.74,0-1.51-1.51-1.51-1.66c0-0.3,0.34-0.66,0.6-0.66c0.63,0,1.51,0.97,1.51,1.33C507.51,236.52,507.33,236.98,506.91,236.98
		 M483.98,287.42c0.11-1.42-0.04-0.6,0.6-1.65c0.37,0.23,0.33,0.33,0.91,0.33h0.91c-0.18,0.74-0.08,1-0.91,1
		C484.68,287.09,484.65,287.25,483.98,287.42 M488.21,294.39c-0.25,1.15-2.2,3.38-3.03,3.98
		C485.22,296.5,486.91,294.5,488.21,294.39 M460.74,285.09c-1.19,0-0.6-0.84-1.8-1.32l0.02-0.61l1.86-0.78l1.74,2.72H460.74z
		 M460.74,287.75c-0.97-0.57-1.1-0.12-1.2-1.67c0.53,0.15,1.51,0.36,1.51,1C461.04,287.83,461.17,286.93,460.74,287.75
		 M461.04,276.47c-0.36,0.22-0.32,0.33-0.9,0.33c-0.68,0-2.91-3.32-3.32-3.98v1.66l-0.81-0.06l-1.07-1.58l0.21,1.81l-0.9,1
		l-0.17,0.33l-0.31-1.46l-1.7-1.37l-0.07-2.93l0.6-0.39h-1.22c-0.14-1.91-1.21-1.39-1.21-2.98c0-0.75,0.24-0.73,0.6-1.33l1.21,0.67
		v-1.33h1.21c1.69,0,0.39,1.32,2.26,2.24l-1.08-1.91l0.38-1.63l-0.36,0.26l-2.11-2.94c-1.63,0-3.02,0.73-3.02-1.33
		c0-0.29,0.34-0.67,0.61-0.67c1.15,0,0.1-0.09,0.88,0.3l1.53-0.62c0.89,4.24,5.26,6.29,6.03,9.96c-4.63-0.11,1.2,2.66-1.5,2.66
		c-0.69,0-0.67-0.26-1.25-0.68l0.24-1.16l-1.28-0.78l-1.99-1.35l0.36,2.91l0.71,0.48l0.9,2.32l0.3-0.12l-0.81-2.57l0.33-0.25
		l2.49,2.86v-1h0.9c0.67,0,0.66,0.26,1.32,0.68l0.19-1.68c-1.45-0.38-2.13-1.66-0.61-1.66l0.74,0.17l3.19,4.14
		c-0.37,0.22-0.33,0.33-0.91,0.33h-0.6c-0.81,0-0.83-0.15-1.61-0.26L461.04,276.47z M459.24,279.78h-0.3c-0.86,0-1.27-0.3-1.82-0.66
		l-0.29-2.66c-0.12-0.74,0.3-1,0.9-1c1,0,0.88,0.6,0.89,1.61l-0.59,0.38C460.02,277.64,460.96,279.78,459.24,279.78 M456.22,278.12
		h-1.21c-0.86,0-0.91-0.38-0.91-1.32c1.18-0.3,1.12-0.18,1.79-0.99L456.22,278.12z M437.51,257.55c0.33,0.26,1.21,0.78,1.21,1.32
		c0,0.55-0.18,1-0.6,1c-0.7,0-0.91-0.23-0.91-1v-0.33C437.21,257.27,437.12,258.43,437.51,257.55 M435.39,238.98
		c-2.59,0.05-1.72,0.79-1.5-2l0.9-0.33c0.36,0.6,0.6,0.59,0.6,1.33V238.98z M435.7,248.93h1.51c1.15,0,0.11-0.1,0.91,0.34
		c-0.58,0.94-0.54,1.98-1.51,1.98c-0.59,0-1.22-0.59-1.22-1C435.39,249.49,435.5,249.87,435.7,248.93 M434.19,243.28v1.99
		c-0.67-0.2-0.9-0.08-0.9-1v-0.99H434.19z M433.89,245.93c0.27,0.2,0.9,0.54,0.9,1c0,0.54-0.18,1-0.61,1c-0.42,0-0.6-0.46-0.6-1
		C433.59,245.66,433.5,246.81,433.89,245.93 M435.1,250.92c-0.01,0.01-0.56,0.33-0.6,0.33c-0.49,0-0.91-0.2-0.91-0.67
		c0-0.76,0.1-0.38,0.31-1.32C434.96,249.56,434.83,249.62,435.1,250.92 M434.8,252.25c0.49,0,0.9,0.19,0.9,0.66
		c0,1.54-1.16,0.77-2.11,0.67C433.77,252.81,433.88,252.25,434.8,252.25 M433.89,254.56h1.81c0.7,0,0.91,0.23,0.91,1
		c0,0.76-0.21,1-0.91,1h-1.2C433.16,256.56,433.82,255.6,433.89,254.56 M436.01,252.91c0-0.76,0.21-1,0.9-1h0.31
		c1.01,0,0.88,0.6,0.91,1.66h-1.21C436.42,253.57,436.01,253.37,436.01,252.91 M439.4,261.68l1.18-1.68l0.25,0.2v-0.66
		c-2,0.47-3.28-2.44-0.67-2.77c1.19-0.15,1.49,3.3,1.82,4.96l-1.17,0.6l-2.16,0.21l-0.09-1.65L439.4,261.68z M439.32,266.18
		c0.39,0.21,1.21,0.46,1.21,0.99c0,0.54-0.18,1-0.61,1c-0.94,0-1.03-0.81-1.2-1.66L439.32,266.18z M439.92,264.52
		c0-0.61,0.7-0.84,1.19-1l0.32,1.67C440.77,265.17,439.92,265.29,439.92,264.52 M440.83,267.18v-0.33c0-1.48,0.87-0.69,1.51-0.33
		v0.66v0.33c0,1.46-0.89,0.75-1.51,0.34V267.18z M442.04,263.86c0-0.74,0.88-1.18,1.57-1.79l-1.27-1.54
		c0.53-0.27,1.34-0.66,2.12-0.66c0.77,0,0.72,0.08,1.17,0.21l3-0.85l0.34,0.95l-0.29,1.02l-1.81,0.32v1
		c0.95-0.08,1.08-0.33,2.11-0.33c1.25,0,1.51,1.51,1.52,2.7l-4.23-0.2l0.12,0.33l-0.86,0.68l-1.31-1.89
		c-0.15,0.99-0.06,1.38-0.98,1.38C442.54,265.19,442.04,264.63,442.04,263.86 M450.49,261.87h0.9c0.7,0,1.22,0.55,1.22,1.33
		c0,0.55-0.18,1-0.61,1C450.9,264.19,450.51,263.14,450.49,261.87 M443.55,265.52h0.3c0.84,0,1.71,1.67,2.12,2.32
		c0.4-0.24,2.07-1.32,2.41-1.32h0.3c1,0,1.13,0.95,1.21,2.07l-5.73,0.59c-0.55-0.42-1.51-1.91-1.51-2.65
		C442.64,265.75,442.85,265.52,443.55,265.52 M449.58,269.17l1.05,0.16l-1.05,0.83V269.17z M462.85,274.48h0.31
		c0.92,0,1.03,0.57,1.22,1.33c-1.63,0.15-0.88,0.65-1.52,0.65c-1.02,0-1.41-0.5-1.5-1.66C462.02,274.64,462.05,274.48,462.85,274.48
		 M464.67,278.12c0,1.28,0.09,0.12-0.3,1c-1.15-0.67-1.16-0.36-1.52-1.99C463.7,277.15,464.67,277.31,464.67,278.12 M461.95,283.11
		c0.18-0.74,0.07-1,0.9-1h0.91C463.42,283.14,463.24,283.07,461.95,283.11 M463.76,286.09c-0.11,0.5-0.06,1-0.61,1
		c-0.7,0-0.87-0.23-0.9-1H463.76z M463.15,283.44h0.91c0.92,0,1.03,0.57,1.21,1.33h-1.21C463.2,284.77,463.15,284.38,463.15,283.44
		 M467.38,286.76c0.16,0.81,0.52,1.32-0.6,1.32l-0.6,0.1l-1.81-0.05l-0.01-0.75L467.38,286.76z M465.87,283.44h2.11
		c0.7,0,1.81,0.37,1.81,0.99c0,0.62-1.11,1-1.81,1h-0.3C466.75,285.43,466.31,284.16,465.87,283.44 M469.49,286.09
		c0.81,0,1.17,0.47,1.52,1c-0.38,0.22-0.33,0.33-0.91,0.33h-0.61c-0.71,0-0.88-0.23-0.9-0.99
		C468.95,286.32,469.42,286.09,469.49,286.09 M470.96,286.17l0.32-1.38l-4.49-4.61l-2.42,0.59l-1-0.59l3.4-1.39
		c1.24,1.17,3.26,3.18,4.27,4.59c1.55,2.15,3.5,1.91,4.18,4.7l-0.14,0.34L470.96,286.17z M446.86,248.58l-0.01,2.29l-2.97,0.87
		l-0.3-0.28l1.16-3.01L446.86,248.58z M439.32,235.99c0,1.02-0.29,1.21-1.2,1.32c0.13-1.69,0.22-0.45,0.6-1.99
		C438.99,235.49,439.32,235.54,439.32,235.99 M438.42,238.31c0.91,0,0.83,0.39,0.9,1.32c-0.69,0.18-2.38,1.33-2.41,1.33
		c-0.27,0-0.6-0.37-0.6-0.67c0-0.68,0.61-0.61,1.21-0.66v-1.32H438.42z M437.19,233.93l-0.88,0.39c-1.28-0.74-0.78,0.23-0.91-1.33
		h1.51c-0.27-1.46-0.62-0.59,0.31-1.33L437.19,233.93z M435.16,229.32l-0.35-0.98l-0.92,0.34v-0.65c0.68-0.18,0.69-0.34,1.5-0.34
		h0.91C437.82,227.68,437.24,229.29,435.16,229.32 M433.29,225.69c0.18-2.34,1.31-2.6,1.81-4.64h1.21
		C435.95,222.75,434.62,224.91,433.29,225.69 M432.38,221.71c0.01-0.73-0.08-1.66,0.61-1.66c0.42,0,0.72,0.7,0.91,1.01
		L432.38,221.71z M432.76,231.67l-0.37,1.63l-0.88-0.37C431.57,231.77,431.57,231.77,432.76,231.67 M432.98,250.25
		c-0.1,1.35-0.06,1.33-0.9,1.66v-1.66H432.98z M432.68,237.97v1h-1.2C431.76,237.78,431.5,238.08,432.68,237.97 M430.87,240.63
		c0.81-0.21,0.57-0.33,1.21-0.33c0.69,0-0.15-0.12,0.61,0.33l-0.61,1.32h-1.21V240.63z M433.29,255.56c-0.07,0.93,0,1.33-0.91,1.33
		h-0.3c-0.35,0-0.83-0.24-0.91-0.33C431.77,255.66,432.11,255.86,433.29,255.56 M433.59,259.88v1.32c-0.87-0.08-1.18,0.01-1.21-1
		L433.59,259.88z M434.26,262.53l-0.07,1.66c-0.91-0.68-0.87-0.42-0.9-1.99L434.26,262.53z M436.01,261.2
		c1.96,0.24-0.14,0.01,1.51,0.67c-0.04,0.64,0.01,1.33-0.61,1.33c-0.69,0-0.9-0.23-0.9-1V261.2z M436.91,264.19
		c0.9,0.72,0.9,0.99,0.88,2.6l-0.82,0.36l-0.34-0.98l-0.02-0.65v-0.33C436.61,263.91,436.52,265.06,436.91,264.19 M438.06,268.2
		l0.36,0.97c-0.38,0.23-0.33,0.33-0.91,0.33c-0.49,0-0.9-0.2-0.9-0.67C436.61,268.06,437.45,268.19,438.06,268.2 M448.37,307v1.33
		c0,0.55-0.19,1-0.6,1c-4.85,0-15.96-2.89-19.82-4.42c-3.79-1.51-14.57-5.69-14.57-10.18c0-2.96,7.85-8.3,10.26-8.3h0.3
		c1.56,0,4.83,7.26,4.83,9.63c1.27,2.07,6.8,4.94,9.32,6.02C439.36,302.62,448.37,305.94,448.37,307 M442.32,276.8l-0.28,1
		c-1.29-0.69-1.14,0.21-1.51-1.33h0.9C442.59,276.47,441.55,276.37,442.32,276.8 M441.07,274.17l0.36,0.96l-1.14-0.01l-0.38-1.64
		l1.24-0.68l0.02-1.17l0.87,0.19C441.99,273.71,441.89,272.91,441.07,274.17 M446.27,287.75c0.69,0,0.34,0.1,1.2,0.33
		c-0.07,0.79-0.27,1.66-0.92,1.66c-0.57,0-1.2-0.59-1.2-0.99C445.36,288.46,446,287.75,446.27,287.75 M445.87,281.62
		c0.1-0.19,0.65-0.51,0.69-0.51c0.56,0,0.77,0.76,0.85,1.46L445.87,281.62z M449.89,286.09c-1.08-0.62-0.87,0.07-1.21-1.32h0.9
		c0.84,0,0.73,0.26,0.89,0.94L449.89,286.09z M451.09,292.4l-0.02,1.06l-1.2-0.34C450.56,292.04,449.69,292.53,451.09,292.4
		 M447.83,284.4l-0.34-0.98l1.31-0.21L447.83,284.4z M449.43,294.56l-0.81,1.21l-1.11-1.11l0.44-0.84l-0.79-1.43
		C448.04,292.91,449.3,293.57,449.43,294.56 M445.65,280.12c-0.84-0.07-1.06-0.19-1.5-0.66l0.59-0.98l0.9,0.31V280.12z
		 M410.36,294.72c1.15,0,0.1,0.1,0.85-0.28l0.34,0.27l-0.3,1h-1.5c-0.56,0-0.83-0.16-0.91-0.66
		C409.53,294.88,409.54,294.72,410.36,294.72 M407.95,290.41v-0.99c1.17,0.11,0.91-0.21,1.2,0.99H407.95z M410.2,288.58l0.91-0.99
		l0.15,1.16L410.2,288.58z M410.95,298.73l0.91,0.31l-0.01,1.35l-2.47-1.19L410.95,298.73z M411.5,297.78l-0.9-0.99
		c0.44-0.31,0.39-0.4,0.97-0.4h0.6c0.84,0,0.73,0.25,0.89,0.92L411.5,297.78z M449.56,317.37c0.2-0.39,0.51-1.07,0.92-1.07
		c0.61,0,0.55,0.67,0.59,1.4L449.56,317.37z M451.39,315.63c-1.19,0,0-1.94,0-2.65c0-0.77-0.1-0.39-0.3-1.33
		c0-0.01,0.56-0.34,0.6-0.34c0.69,0,0.35,0.11,1.21,0.34C452.9,312.96,452.24,315.63,451.39,315.63 M453.2,295.05v-0.66
		c-1.12-0.1-1.12-0.11-1.13-1.43l1.72,1.73L453.2,295.05z M453.25,286.24l-0.64,0.19c-0.04,1.47,0.09,1.53-1.28,1.65l0.25-2.33
		c0-0.6-0.32-1.31,0.42-1.31c0.85,0,1.74,1.38,2.09,2.06L453.25,286.24z M451.09,280.78l1.03-0.12l-1.21-1.57l-0.22,0.82l-1.57,0.84
		l0.16,0.37h1.21v0.99l-1.21,0.01l0.5,1.43l-1.4-2.09h0.6l-0.1-0.83l-1.82-1.3l0.1-0.32l3.6-0.48l0.14,0.38l0.79-1.43
		c-0.37,0.23-0.33,0.34-0.91,0.34h-0.3c-1.21,0-0.13,0.06-0.64-0.38l-0.87,0.71c-3.68-0.93-2.41,0.83-4.22-2.31v1.65h-2.11v-1.33
		c0-0.89,0.14-0.91,0.45-1.87l1.19,0.94l1.69-1.39c-2.98-0.07-2.08-1.56-2.85-2.86c-1.08-1.82-3.41,2.02-3.48-1.71l3.32-0.41
		l0.28,0.85l5.14-0.18l-0.01,1.05l-3.81-0.23l2.05,2.5l-0.33,1.32l0.83,0.02l-0.55-2.67l2.8,0.11l-0.76,0.62l2.06,1.67l-0.09,0.45
		l-2.79,1.13v1.26l1.51,0.07c0.11-0.49,0.07-0.99,0.61-0.99c0.83,0,0.72,0.25,0.9,0.99h1.51c1.38,0,1.07,1.85,3.02,2.98v-0.66
		l1.37,0.11l1.65,2.54c0.05-0.64-0.02-1.32,0.61-1.32c0.81,0,0.83,0.16,1.5,0.32l1.02-0.37l-1.01-2.93h0.9
		c0.93,0,1.47,0.97,1.63,1.64l-0.13,2.02c-1.14,0.61-2.67,1.11-4.18,1.36c-1.15,0.19-4.05,1.63-4.27,1.63
		C453.64,284.1,451.19,282.18,451.09,280.78 M458.33,295.38c-0.64,1.06-0.49,0.24-0.6,1.66h-0.9
		C456.93,295.66,457.07,295.49,458.33,295.38 M455.91,313.96c0-0.76,0.21-0.99,0.92-0.99c1.15,0,0.11-0.1,0.91,0.33l-0.62,1.34
		C456.54,314.58,455.91,314.65,455.91,313.96 M457.43,322.6v-1.33c0.59,0.05,1.2-0.02,1.2,0.67
		C458.63,322.61,458.02,322.55,457.43,322.6 M459.55,315.54l-1.52-0.32v-0.52l2.21-0.33L459.55,315.54z M460.45,299.37
		c0.01-0.01,0.3-0.62,0.3-0.66c0-0.75,0.11,0.15-0.28-0.74l1.19,0.4C460.95,299.83,461.88,299.19,460.45,299.37 M461.65,292.72
		c0.29-1.14,0.17-1.01,1.2-1.32C462.76,292.62,462.76,292.63,461.65,292.72 M464.37,301.36l1.07,0.01l0.13,1.32
		C464.53,302.59,464.37,302.59,464.37,301.36 M466.17,300.69c-0.59-0.06-1.2,0.02-1.2-0.66c0-0.31,0.33-0.67,0.6-0.67
		c1.15,0,0.11-0.11,0.88,0.32L466.17,300.69z M464.97,291.4c0.36,0.6,0.6,0.58,0.6,1.32v1.67c0,1.09-0.6,1.24-1.51,1.32
		c-0.15-0.69-0.34-0.9-0.3-1.32l0.3-2.99l-0.02-1.06l-1.48,0.35l-1.46-0.63l-0.35-1.62l2.5-0.8l1.23,1.08l2.88,1.23l1.84-0.22v1.01
		c-0.96-0.09-1.08-0.34-2.12-0.34h-0.3C465.7,290.41,465.48,290.82,464.97,291.4 M467.38,296.05c-0.15-0.75-0.3-0.77-0.3-1.66
		l0.01-1.07l2.07,0.42l0.34,1.33L467.38,296.05z M470.14,298.69l-0.38-1.3l-0.87-0.02v-0.99c1.18,0.62,0.98,0.26,1.84,1.34
		L470.14,298.69z M470.09,289.74c0-1.42,1.62,0.54,1.78-1.91l3.66,1.25c-0.69,1-2.37,1.33-3.94,1.33h-0.59
		C470.5,290.41,470.09,290.2,470.09,289.74 M471.3,317.95c0.2-0.85,0.58-1.65,1.51-1.65c0.49,0,0.91,0.19,0.91,0.66
		C473.72,317.81,472.23,317.95,471.3,317.95 M478.24,317.95h-1.81c0.27-1.15,0.52-1.21,1.81-1.32V317.95z M479.07,298.32l0.76-1.57
		l1.43-0.37C480.07,298.32,481.01,297.39,479.07,298.32 M480.05,295.05h-0.3c-0.7,0-0.91-0.23-0.91-1l-0.03-1.23l-2.03-0.72
		l-0.78,1.03l1.53,1.3l-0.2,0.27c-0.36,0.22-0.32,0.33-0.9,0.33h-0.3c-0.5,0-0.91-0.2-0.91-0.66c0-0.44,0.69-1.67-0.3-1.67
		c-0.82,0-0.83,0.17-1.49,0.32l-0.92-0.32v-0.98c0.73-0.2,0.7-0.36,1.21-0.36l6.94,0.36v1.32h0.61
		C481.18,294.1,481.05,295.05,480.05,295.05 M483.08,297.69l-0.89-0.38l1.04-1.26L483.08,297.69z M482.17,293.73
		c0.11-1.43,0.17-1.29,1.51-1.33l0.3,1.33H482.17z M482.76,290.41l-1.61-0.11l1.8-2.33l1.32,2.1
		C483.6,290.25,483.58,290.41,482.76,290.41 M485.78,301.03c-0.43,0-0.58-0.46-0.6-0.99l0.91-0.34c0.01,0.01,0.31,0.62,0.31,0.67
		C486.39,300.66,486.06,301.03,485.78,301.03 M488.5,322.6h-1.21c0.29-1.19,0.02-0.89,1.21-1V322.6z M487.6,289.74h-1.82
		c0.33-1.35,1.47-1.66,3.02-1.66C488.74,289.08,488.58,289.74,487.6,289.74 M489.68,286.02l-2.08,1.06
		c0.11-1.55,0.68-1.62,2.11-1.66L489.68,286.02z M490.62,283.44c-0.71-0.18-0.89-0.33-1.81-0.33h-1.21c0.27-0.81,0.35-1,1.51-1h1.51
		c1.15,0,0.11,0.11,0.9-0.33c0.01,0.02,0.3,0.62,0.3,0.66C491.82,282.99,491,283.22,490.62,283.44 M492.73,323.25
		c-0.28-0.19-0.91-0.53-0.91-0.99c0-0.67,0.62-0.61,1.27-0.64L492.73,323.25z M493.01,287.1c-1.61-0.05-1.46,0.05-1.19-1.34
		c0.95-0.09,1.08-0.33,2.11-0.33h0.9c0.94,0,0.86,0.6,1.23,1.39l0.88-0.39c-0.41,1.71-1.94,1.27-3.31,1.98L493.01,287.1z
		 M494.89,300.31l-0.3-0.33l1.15-0.94C495.58,300.62,496.16,299.59,494.89,300.31 M495.45,293.06c-0.28-1.14-0.61-0.88-0.61-1.32
		c0-0.79,0.5-1.34,1.2-1.34h1.21C497.13,292.13,496.43,292.33,495.45,293.06 M497.25,277.8l1.34,0.04l-0.74,2.27h-0.6
		C495.75,280.12,496.83,278.68,497.25,277.8 M499.06,281.12l-1.22,1.66C497.97,281.23,497.93,281.25,499.06,281.12 M500.52,297.06
		l-0.31-1.32l2.17-0.36C502.26,296.99,502.01,296.68,500.52,297.06 M501.76,287.67l-2.09,0.39l-1.8-0.69l1.49-1.94
		c0.05,0.64-0.02,1.33,0.6,1.33c0.56,0,0.77-0.77,0.91-1.33l1.61,0.04L501.76,287.67z M503.57,288.7l1.83-0.62
		c-0.13,1.7-0.23,0.45-0.6,1.98l-0.89-0.39L503.57,288.7z M505.09,296.38c-0.35,0-0.83-0.23-0.9-0.33c0.53-0.8,0.61-0.89,1.81-1
		C505.87,295.62,505.66,296.38,505.09,296.38 M506.91,284.1c0,1.08-0.62,1.24-1.51,1.32c0.69,0.73,0.99,0.96-0.31,1.33
		c-0.04-2.08-0.6-1.35-0.6-1.99c0-1.11,0.6-0.69,0.6-1.33c0-1.23-0.66-0.62-1.85-1.39l0.95-1.27v-1.32
		c-1.02,1.31-2.43,3.65-4.52,3.65c0.21-2.82,2.21-1.65,3.02-3.3c1.25-2.5,0.98-2.75-1.82-3.01c0.33-1.55,0.98-2.99,2.71-2.99h1.81
		c-0.22,2.26-1.02,0.36-2.1,1.91l2.4,0.41l0.25,1.08l0.36-1.71l3.61-0.37c-0.19,2.58-1.71,0.7-2.83,2.87
		c-0.74,1.45-1.69,2.68-1.99,4.13l2.18-1.84l1.72,1.41L506,282.1c0.42,0.69,0.91,0.87,0.91,1.67V284.1z M509.62,279.12
		c0,0.54-0.19,0.99-0.6,0.99c-0.48,0-1.15-0.18-1.52-0.33c0.18-0.75,0.3-1.32,1.21-1.32C509.21,278.47,509.62,278.65,509.62,279.12
		 M509.92,315.96c0,0.93-0.12,0.62-0.6,1c-0.21-0.4-0.3-0.36-0.3-1v-1.32c0.67,0.19,0.9,0.07,0.9,0.99V315.96z M508.72,285.76h-0.91
		v-0.99c0-0.64,0.54-1.33,0.91-1.33c0.45,0,1.43,0.88,1.51,1.99C509.54,285.6,509.54,285.76,508.72,285.76 M513.55,270.16
		l-0.52,0.02l-0.48,2.47l-1.4-1.16c0.19,2.53,1.51,0.91,1.51,2.66c0,1.51-0.39,1.96-1.81,1.98v-1.98l-1.28-0.36l0.98-4.37l1.42,0.06
		l-0.24,1.66l1.83-1.64V270.16z M515.05,265.78l-6.51,0.66l0.18-0.6l-1.58-0.47l0.98-0.53v-1.33c0.36,0.23,0.32,0.34,0.91,0.34h0.3
		c0.96,0,2.61-0.34,3.02,1.33h2.72L515.05,265.78z M514.44,263.55l-1.18-0.7l-0.92,0.35l-0.59-1.28l0.62-0.44l1.16,0.97l1.53-0.24
		C514.96,263.19,514.92,263.04,514.44,263.55 M515.65,261.2c-1.26-0.74-0.77,0.24-0.9-1.32h0.9V261.2z M516.65,260.1l0.21-1.55
		c-1.48,0.14-1.77,0.95-1.81-1.32h-0.9c0.21-2.7,2.26-1.45,4.08-2.23l-1.06,2.23c0.81,0.23,1.81,0.93,1.81,1.99v0.66
		c0,0.9-0.15,0.91-0.3,1.66l-0.74-0.21L516.65,260.1z M519.09,262.57l0.79-0.7c0,1.67-0.08,3.15-1.42,3.34L519.09,262.57z
		 M519.27,293.73c-0.35,0-0.83-0.25-0.89-0.32c0.35-0.57,0.04-0.68,0.89-0.68h0.91C520,293.47,520.11,293.73,519.27,293.73
		 M521.56,258.94l-0.48-1.4l-1.2,0.67v2.65h-0.31v-2.32c0-1.4,2.42-2.55,2.42-1.32C521.99,258.12,521.85,258.14,521.56,258.94
		 M521.4,255.9c-0.36,0-0.84-0.24-0.91-0.34l1.06-2.58l-0.12-0.08h-0.03v-0.02l-0.25-0.17l-0.89,1.5l-0.37-1.65
		c-2.01,1.16-0.2,1.6-2.42,1.65v-1.32c0-1.4,1.17-1,2.37-1.04l0.63-0.91l-0.56-0.28l-1.84,0.57v-1.66c0-1.19,0.37-1.44,1.07-2.12
		l1.01,2.06l1.24-0.6l-0.1,1.33l0.1,2.63l0.03,0.02h0.27c0-2.05,0.57-3.6,1.81-4.32c-0.07,1.05-0.29,1.19-0.29,2.34l-0.14,1.16
		l-1.37,1.5c0.21,0.47,0.3,0.55,0.3,1.33C521.99,255.44,521.81,255.9,521.4,255.9 M522.6,289.74c0.28-1.15,0.27-1.21,1.51-1.32
		C523.83,289.57,523.83,289.63,522.6,289.74 M543.37,297.99c-0.76,0.52-2.35,2.05-2.67,2.05l-1.27-0.03l0.31-1.32l-1.83-1.41
		l-2.64-1.23c-0.94,0.08-1.07,0.33-2.11,0.33c-0.08,0-2.52-1.18-2.7-1.29l3.36-0.7l-0.06-0.34c-3.34,0-5.85,1.18-8.74-0.33
		c0.86-1.41,3.64-1.98,5.73-1.98v-0.34l-3.9-0.23l4.8-1.1c-0.81-1.25-2.22,0-4.22,0l-0.26-0.27l2.07-2.72h0.91v0.67h0.89l0.02-0.59
		l2.4-0.41l0-0.72l-2.71,0.38c-0.62,0.1-0.85-0.16-1.51-0.34v-0.66c2.58-0.66,4.57-1.08,6.04,1.33c3.01,0,9.35,4.59,9.35,7.96
		C544.62,296.25,544.27,297.36,543.37,297.99 M549.42,309.58l-1.78,0.73c0,0-0.3-0.62-0.3-0.65c0-0.55,0.82-0.77,1.21-1.01
		l1.18-0.01L549.42,309.58z M550.05,304.01c-0.58,0-3.24-1.3-3.63-1.66h0.91c1.55,0,2.06,0.18,3.92,0.66
		C551.03,303.36,550.51,304.01,550.05,304.01 M551.57,303.35l2.49,0.11l-2.25,1.52l0.34-0.99L551.57,303.35z M556.99,306.01
		c-0.52-0.27-1.34-0.67-2.11-0.67c-0.55,0-0.49,0.51-0.6,1c-0.27-0.17-0.61-0.21-0.61-0.67c0-0.53,0.63-0.41,1.13-1.42
		c0.34-0.69,0.37-1.9,1-1.9c0.15,0,2.26,1.13,3.04,1.63l-1.24,0.03l-1.38,0.26l1.66,1.34L556.99,306.01z M558.8,306.66
		c0.05-0.64-0.02-1.32,0.6-1.32c0.69,0,0.35,0.11,1.22,0.33C559.81,306.89,560.12,305.97,558.8,306.66 M562.73,305.01
		c-1.26,0-1.89-0.21-2.42-1l1.2-0.62l-2.71-0.37v-0.66l1.25-0.01l-0.35-1.37l4.23-0.61l-0.07,0.82l-2.34,1.17l0.15,0.52l0.75,1.14
		h2.12C564.09,304.68,563.84,305.01,562.73,305.01 M556.99,281.44h0.3c0.07,0,4.69,1.72,5.39,2.02c1.07,0.47,4.37,2.26,5.51,2.91
		c4.43,2.51,6.21,3.32,8.41,8.35c-0.77,1.59-1.9,3.18-3.38,3.93c-1.56,0.79-0.19,0.72-1.83,1.63c-1.24,0.69-1.8,0.13-2.89,0.72
		l-0.36-0.98l-6.03-0.66c-2.13-0.27-5.39,1.41-6.64,2.31l-2.11,0.02h-1.51v-1.66h-1.51c-2.38,0-2.66-0.54-4.25-1l-0.08-2.32
		l0.23,0.31l4.15-2.08l-1.06-0.68l1.8-2.08l-3.49,2.14l-1.53-0.61c-0.2-0.89-0.3-0.63-0.3-1.33c0-0.81,5.03-3.64,5.63-4.56
		l-5.93,2.91c0.47-1.99,3.45-3.37,5.26-4.18c2.51-1.12,0.4-1.66,2.39-2.34c1.85-0.64,2-0.34,3.51-1.45
		C556.35,282.2,555.67,281.44,556.99,281.44 M547.64,286.42c0-0.52,1.62-1.33,2.11-1.33c0.68,0-0.14-0.12,0.6,0.33
		C549.94,286.11,547.64,288.08,547.64,286.42 M554.13,280.39l0.15,0.39c-0.99,1.61-6.83,4.98-9.59,5.05l-1.58,1.59l-0.98-1.26
		L554.13,280.39z M551.81,280.31l-9.9,4.79v-0.99c1.66-0.15,6.19-4.65,9.05-4.65C551.8,279.46,551.68,279.71,551.81,280.31
		 M548.24,278.79l0,0.65l-6.22,3.16l-2.33,2.11l-0.2-0.28c0.15-1.93,6.6-5.97,7.54-5.97C547.73,278.47,547.39,278.57,548.24,278.79
		 M542.94,277.69l-4.05,2.76c0-0.01-0.3-0.62-0.3-0.67C538.59,279.13,541.94,277.54,542.94,277.69 M537.6,261.1
		c-0.85,2.61-3.27,4.51-5.96,4.75c0.54-2.53,3.94-3.51,5.14-5.31l-2.96,1.13l-0.25-0.42l4.43-3.77l-1.59-0.36l1.29-1.21h-1.51
		l-0.2-0.37l4.43-2.62C540.22,255.16,538.3,258.88,537.6,261.1 M540.63,260.84l4.5-13.83c1.53,0.08,1.91,2.25,4.93,2.25h3.32
		c1.82,0,5.73-3.56,5.73-6.65v-0.33c0-3.58-1.67-3.26-2.71-4.98c1.23-2.02,6.47-5.31,9.35-5.31c2.81,0,3.79,1.26,4.73,3.42
		c1.42,3.29,1,3.5,0.06,6.5c-0.45,1.41-1.65,4.9-2.45,5.93c-1.89,2.48-1.8,1.9-4.64,3.53c-2.69,1.54-8.08,3.58-11.52,4.59
		C548.26,257.03,542.68,260.87,540.63,260.84 M554.58,241.62h0.3v1.33c0,1.27-0.09,0.13,0.31,1l1.16-0.68l0.34-0.99
		c-0.04,1.96-0.62,2.94-2.04,3.3l-0.32-1.32L554.58,241.62z M554.49,239.34c0.67,0.01,1.3-0.06,1.3,0.61c0,0.94-0.14,0.62-0.53,0.95
		L554.49,239.34z M558.2,232.66c0.21-1,1.15-2.32,1.81-2.32c0.49,0,0.9,0.19,0.9,0.66C560.91,231.9,558.86,232.31,558.2,232.66
		 M567.56,230.01l1.81-1c1.08,1.03,2.88,1.89,3.02,3.65C570.88,232.22,569.85,230.22,567.56,230.01 M542.81,267.84
		c0,1.08-0.86,1.27-1.51,1.66c0.1-1.35,0.89-2.2,1.51-2.99V267.84z M547.03,265.85c0.16-1.95,1.46-3.54,2.43-4.65l-1.22,4.65H547.03
		z M551.87,259.88l-0.3,3.64C550.06,266.66,547.46,265.45,551.87,259.88 M556.39,263.19c-1.45,0.04-4.53,1.52-4.53,0.33
		c0-1.6,1.35-4.57,2.72-4.97l-0.62,3.98c0.96-1.64,1.11-4.41,3.03-4.98c-0.25,1.18-0.6,1.56-0.6,2.99V263.19z M556.69,261.53
		c0-1.48,1.35-4.33,2.49-4.63l-0.37,1.97h0.9v-0.99c0-0.72,0.79-1.66,1.17-1.98l0.34,3.31c0.17,0.27,0.61,0.82,0.61,0.99
		C561.82,261.7,556.69,263.59,556.69,261.53 M563.33,260.54c-0.97,0-1.81-1.37-1.81-1.99c0-1.9,0.67-3.82,2.41-3.98
		c0.07,1.04,0.3,1.18,0.3,2.33l0.19,0.85l1.03,1.8C565.23,259.66,563.4,260.54,563.33,260.54 M551.5,226.29
		c2.05-1.7,12.45-4.91,16.06-4.91h0.3c6.34,0,12.67,5.6,12.67,12.61v3.32c0,2.31-0.8,5.49-1.54,6.84l-1.77,0.75l1.2,0.38
		c-0.15,1.89-1.81,1.99-3.62,1.99c0.36,1.47,1.33,1.23,2.41,0.66c-0.05,2.64-2.73,2.78-4.52,2.32c0.26,0.81,0.34,1,1.5,1h1.21
		l0.23,0.21l-2.05,3.03l-2.76,0.42l-0.25-1.34l-1.11,0.09l1.23,2.8l-4.35,2.74c-1.69-1.25-2.02-3.51-1.51-5.98l1.56,2.05l-0.94,1.46
		l1.23-0.1l0.01-0.53l2.03,0.83l-2.72-4.06l0.65-1.03l2,0.33l0.71-0.92c-1.28-2.11-0.51-1.37,1.21-1.32
		c-0.2-0.89-0.31-0.63-0.31-1.34c0-0.06,1.06-2.92,2.12-1.31l-1.09,1.49l0.37,0.41l1.97-1.95l-0.64-0.96
		c3.21-6.67,2.11-2.77,1.94-11.88l-1.34-4.05h-0.6l-0.11,1.1l-1.37-2.15l1.48,1.05c-0.46-1.93-3.23-2.8-4.82-3.93l-1.21,0.27
		l0.11,0.88l-0.66,1.66l0.84,0.69l-4.28,0.29l1.3-0.53l-0.27-1.19l1.54-0.94l-0.21-0.53l-5.65,2.4l-0.87-0.72
		c-1.59,0.93-5.83,2.89-6.04,4.98l3.03-2.32c-0.78,3.61-3.68,3.12-5.14,5.31c0.36,0.23,0.32,0.33,0.91,0.33h0.9v0.66l-0.2-0.25
		l-1.4,1.71l1.9,1.53l-0.05,2.69l0.47,0.93l-0.2,1.18l-1.89,1.15l0.17,0.34h-1.2c-1.87,0-3.92-2.34-3.92-4.32
		c0-0.92,1.51-7.69,1.81-8.96C548.63,230.67,549.52,227.94,551.5,226.29 M573.74,240.79l0.91-1l0.15,1.16L573.74,240.79z
		 M470.74,185.26l0.86-0.47l4.23,0.09l9.97-0.19l8.14,0.19c11.55,0.45,22.33,2.77,32.27,4.99c2.91,0.65,11.6,3.95,14.1,5.4
		c1.39,0.8,4.43,3.16,5.45,4.29c1.11,1.21,1.6,1.25,1.6,3.55c0,2.62,0.59,3.52,0.59,4.66v0.67c0,1.01-0.14,1.21-0.3,1.99
		c0.37,0.59,0.6,0.58,0.6,1.33v1.32c0,4.35-1.28,20.6-3.35,22.25l0.34,1.33l-0.86,0.3l0.29,1.46l-3.34,1.25l-0.16-0.3l1.96-1.39
		c-1.95,0-1.75,0.81-2.07-0.52l3.11-1.4l-0.15-0.4c-0.36,0.22-0.33,0.33-0.9,0.33h-1.52c0.14-1.85,1.39-1.63,2.67-2.31l-0.23-1.26
		l-1.53,0.24c0.43-0.69,0.91-0.86,0.91-1.66v-1h-0.91l-0.27-0.23l2.68-3.76c-3.37,0.09-2.08-0.28-0.31-2.05l-1.49,0.39v-1
		c0-1.4,1.34-1.16,2.09-2.39l-2.09,0.4v-1.33c0-1.55,1.57-1.05,2.1-2.65c-0.36,0.23-0.33,0.34-0.9,0.34l-1.4-0.21l1.99-2.17
		l-1.86,0.37l0.36-1.29l-2.72,0.32c0.54-2.22,2.67-1.25,3.32-4.32c-0.89,0.66-2.87,2.22-3.62,2.65c-0.62,0.36-1.6,0.44-2.15,0.96
		c-0.81,0.75,0.09,0.89-1.77,1.38l-0.02,1.2l-13.59,3.25l2.89,0.86l0.15,1.63l-0.9,0.69l0.62,1.32c-0.24,0.19-0.74,0.67-0.91,0.67
		c-0.95,0-1.03-0.81-1.21-1.66c-1.58,0.58,0.85,1.33-1.21,1.33h-1.5c-0.91,0-0.84-0.39-0.91-1.33l-1.58,0.07l0.83,1.07l0.39,0.11
		l-1.22,1.32l-0.23-0.26v0.67l2.14,0.02l-0.29,1.44l1.7-0.78l-0.24-1.35l1.65,0.06l-0.74,1.9l0.87,0.64l1.53-0.62v1
		c0,0.75-0.24,0.74-0.63,1.38l-0.87-0.7c-0.07,0.93,0,1.32-0.92,1.32h-0.6c-1.08,0-0.8-0.73-1.21-1.66l-0.31-0.02l0.01,1.68
		c-4.01,0.1-1.09,2.01-3.76-1.94l1.05,3.59c-0.54,0.41-0.53,0.67-1.2,0.67h-0.31c-1.17,0-0.91-0.95-0.65-1.6l-1.14-1.04l-0.31,1.65
		l0.82,0.14l-0.83,1.61l1.47,1.61l-0.26,0.29h-0.9v0.66c1.43,0.14,1.78,0.27,1.82,1.93l1.52,0.39l-0.32-2.32h1.21v1.66
		c0,0.93-0.37,0.8-0.95,1.37l-0.82-0.66l-0.95,1.27c-1.48-0.78-1.76,0.43-1.8-1.98c-1.66,0.39-1.23,0.23-0.97-1.21l-1.15-0.77
		c-0.32,0.51-0.41,0.99-1.2,0.99h-0.91l0.03-1.21l-1.78,0.47l-0.17-0.44l1.89-1.24l-5.1-0.9c0.34,1.41,0.6,0.58,0.6,1.66
		c0,2.44-3.52-1.67-3.92-2.31l1.98,0.19l-1.07-1.86h0.9c1.09,0,1.36,1.28,1.81,1.99c0.06-2.98,0.89-0.98,2.32-1.79
		c0.52-0.3,0.09-2.59,0.09-3.86h-0.3l-0.07,2.59l-0.53,0.84l-5.44-0.11l-0.3,1h-1.51c-1,0-1.45-1.24-1.81-1.99h0.91v-0.66
		c-2.01,0.47-3.2-1.47-2.73,1.15l-5.43-0.49v0.67h0.61v0.66h-0.91c0.39,2.01-1.78,1.38-3.74,2.86c-0.96,0.72-3.4,2.79-4.41,2.79
		l-0.29-0.03l-1.81,0.02l1.43,1.77l-0.23,0.23c-0.93,0.36-0.81,0.98-1.81,0.98c-0.54,0-1.96-2.59-3.31-2.98v-0.66h1.5
		c-0.72-1.07-1.52-0.73-2.95-1.06c-1.3-0.3-1.62-1.25-2.82-1.6l0.34-1.32h-2.11c-4.35,0-4.61-2.65-10.35-2.73l1.01-1.92
		c-1.65,0.43-3.2,2.24-3.63,3.99c-0.37-0.22-0.31-0.33-0.9-0.33l-1.17-0.01l-0.34-1.31c-0.56,0.13-1.2,0.47-1.2-0.33
		c0-1.27,1.92-1.29,2.32-3.49l-2.84,1.65l2.32-3.42l-1.43-0.41l-0.39-1.32l-3.31,2.99c-0.43-0.22-0.5-0.33-1.21-0.33h-0.3
		c-0.85,0-0.56,0.14-0.88,0.6l1.97,0.95l-1.73,1.45l0.32,1.29l3.56-4.05l-0.22-0.25c0.81-0.21,0.57-0.33,1.21-0.33
		c0.69,0-0.14-0.13,0.6,0.33c-0.94,1.55-1.58,3.96-2.91,4.76c-1.04,0.64-2.72,3.49-2.93,5.07l-1.48-1.05l-1.74,3.53l-0.88-0.68
		c-0.21,0.41-0.31,0.35-0.31,1v0.33c0,2.18,1.74,0.05,2.54-0.29l-0.73,2.28h-2.12c-0.47,1.08-0.38,2.65-1.51,2.65h-0.3
		c-0.91,0-0.84-0.38-0.9-1.33l1.54-0.01l-0.38-1.3l0.3,0.11l1.25-2.79c-0.16-0.73-0.3-0.76-0.3-1.65c0-0.61,0.45-0.54,0.92-0.67
		l-0.3-1.6l0.89-0.39c-0.09-0.38-0.31-0.9-0.31-1c0-0.55,0.44-1.65,0.91-1.65c0.81,0,0.83,0.15,1.6,0.37l-0.98,2.66l0.85-0.7
		l0.64,0.98l0.21-1.53l0.98-2.3l-5.14-0.49l0.94-2.4l1.71,0.26l0.72-0.56l0.58-2.61h1.96l0.15-0.66l2.47-0.1l-0.66-0.57h1.21
		l-0.01-0.61l-5.18-0.98l0.71,0.65l-0.31,0.17l-4-2.26l-0.82,0.47l-5.85-1.52l1.27-1.22c-5.2,0-5.06,2.98-6.04,2.98h-0.9
		c-0.8,3.28-1.64,4.9-2.3,9.09c-0.43,2.74-0.72,7.94-0.72,10.82v0.66c0,4.26,0.64,6.52,1.56,10.55c0.64,2.77,2.35,6.86,2.35,10.02
		c1.77,2.9,0.87,4.61,3.53,6.67l2.84,10.14l-0.33,0.11c0.37,0.6,0.6,0.59,0.6,1.32l0.01,2.34l-2.72,0.32
		c-0.51-2.37-3.01-5.72-4.12-8.07c-1.45-3.04-2.27-5.86-3.61-8.97c-2.69-6.21-4.39-11.5-5.96-19.01
		c-1.32-6.39-3.06-14.93-2.61-22.02c0.11-1.58,0.85-11.7,0.83-11.83c-0.32-1.95-1.94-1.63-3.42-2.56c-1.45-0.92-1.92-2.14-4.05-2.2
		c-0.04,2.14-0.61,3.69-0.6,6.3c0.01,1.94,0,4.91-0.07,6.25c-0.18,3.05,0.32,9.6,0.89,12.75c1.68,8.98,3.2,14.59,5.56,22.44
		c1.98,6.64,5.42,13.31,8.1,19.28c1.53,3.42,9.35,15.43,8.75,18.27c-3.74-0.35-9.52-10.03-11.41-13.35
		c-2.47-4.35-5.92-12.4-7.63-17.48c-4.02-11.86-8.41-26.39-8.41-42.52v-0.66c0-7.62,1.06-17.28,5.3-20.37
		c5.66-4.16,9.6-5.61,16.78-7.76C441.11,187.75,457.96,185.21,470.74,185.26 M421.52,258.55h0.9c1.16,0,0.11,0.1,0.86-0.18
		l0.65,0.18c0.12,1.63,0.61,1.22,0.61,2.65c0,0.55-0.19,1-0.61,1c-1.32,0-1.37-0.39-1.81-1.33l1.51-0.67
		C422.42,258.4,422.07,260.84,421.52,258.55 M421.52,255.23c0.19-0.88,0.3-0.63,0.3-1.33c0-0.31-1.52-2.6-1.52-2.65
		c0-0.75-0.11,0.15,0.31-0.68l1.15,0.69l0.49,2.59l1.06,3.7h-1.2c-0.72,0-0.88-0.23-0.9-0.99l0.9-1.33H421.52z M419.76,247.65
		l0.25-0.39c0.47,0.34,0.91,0.43,0.91,1.31v1.01h-0.91v-1.01C420.01,247.32,420.11,248.47,419.76,247.65 M417.6,216.07
		c0.27,0,0.6,0.37,0.6,0.66c0,0.76,0.12-0.15-0.36,0.74l-0.91-1C417.01,216.39,417.56,216.07,417.6,216.07 M417.28,214.74l0.38-1.64
		l0.85-0.03v1.67L417.28,214.74z M417.25,220.2l0.65,0.19v1.99c-1.05-0.1-1.21-0.11-1.21-1.33h-1.2c-0.86,0-0.56-0.15-0.9-0.66h1.8
		C417.55,220.39,416.5,220.49,417.25,220.2 M416.09,228.35c0.37-0.22,0.32-0.33,0.9-0.33c0.7,0,0.91,0.23,0.91,0.99v1.66h-1.52
		v-0.99l0.65-0.05L416.09,228.35z M415.19,223.37c1.4,0.14,0.52-0.36,1.21,0.72l-1.21,0.27V223.37z M416.99,245.27
		c-0.88-0.08-1.5-0.44-1.5-1.33c0-0.76,0.09-0.38,0.32-1.26l0.88-0.4v0.66h-0.6v1C417.17,244.27,416.89,243.98,416.99,245.27
		 M415.79,238.31c0.11-1.46,0.26-1.35,1.51-1.66c0.01,0,0.31,0.62,0.31,0.66C417.6,237.99,416.48,238.24,415.79,238.31
		 M417.02,232.27l0.95-1.27l-0.06,1.65L417.02,232.27z M419.11,239.63v1.33c-0.59-0.06-1.2,0.02-1.2-0.67
		C417.9,239.61,418.52,239.69,419.11,239.63"/>
	<polygon class="st0" points="448.33,272.42 448.59,272.22 448.57,272.2 	"/>
	<path class="st0" d="M504.02,198.19l0.33-0.05l7.09,0.68v-1.33c-1.24-0.28-3.5,0.71-3.54-0.29c0-0.09,1.12-2.18,1.12-4.36
		c-2.43,0.22-0.56,2.73-2.72,4.32c0.24-1.16,0.6-1.12,0.6-2.32v-2.33c-0.78-0.2-1.36-0.32-1.9-0.41l0.01-1.11l-0.34,0.21
		c-0.06,0.14-0.11,0.5-0.17,0.81c-3.96-0.55-0.88,2.09-3.02,3.82v-3.98c-0.81-0.21-0.57-0.33-1.21-0.33c-0.69,0-0.35,0.1-1.28,0.32
		l-0.51,5.75l5.55,0.52V198.19z"/>
</g>
</svg>
