<?xml version="1.0" encoding="utf-8"?>
<!-- Generator: Adobe Illustrator 27.8.1, SVG Export Plug-In . SVG Version: 6.00 Build 0)  -->
<svg version="1.1" id="Layer_1" xmlns="http://www.w3.org/2000/svg" xmlns:xlink="http://www.w3.org/1999/xlink" x="0px" y="0px"
	 viewBox="0 0 1000 500" style="enable-background:new 0 0 1000 500;" xml:space="preserve">
<style type="text/css">
	.st0{fill:#FFFFFF;}
</style>
<g>
	<path class="st0" d="M230.37,288.27c18.75-28.46,37.49-57.45,56.24-85.91c0.41-1.38,0.41-1.92,0.41-2.77v-19.61h-102.6v31.23h58.48
		c0,0.43-0.41,0.96-0.41,1.39l-33.93,50.95c-7.64,11.73-23.64,35.92-24.15,36.46v20.04h102.7v-30.8h-57.15
		C229.97,288.8,230.37,288.8,230.37,288.27"/>
	<path class="st0" d="M401.3,288.8h-32.7c0-5.12-0.43-107.87-0.43-108.83h-35.05v1.39c0,8.84,0.43,70.03,0.43,85.06v32.19
		c0,1.92,0.42,3.73,0.96,6.07c2.77,8,8.41,13.11,17.25,14.93c0.96,0,2.77,0.43,4.69,0.43h79.37V179.97H401.3V288.8z"/>
	<path class="st0" d="M651.13,186.47c-4.66-4.68-10.15-6.5-17.13-6.5H491.65v140.06h34.27V211.18h31.94v108.75h34.27V211.18h31.93
		v108.75h34.27c0.21,0,0.21-1.39,0.21-1.39V202.76c0-1.38,0-2.77-0.42-3.73C657.69,193.92,655.36,189.66,651.13,186.47"/>
	<path class="st0" d="M815.16,195.32c-0.92-8.42-6.76-13.54-15.25-14.92c0-0.43-2.67-0.43-4.51-0.43h-77.2l0.41,30.81h62.87v16.31
		h-51.6c-1.33,0-2.67,0-3.99,0.43c-4.91,0.53-8.5,3.3-10.75,7.99c-1.84,3.73-2.25,7.04-2.25,10.77v51.38c0,1.92,0,3.73,0.41,5.64
		c2.25,8.85,8.09,13.96,17.1,16.31c1.33,0,3.18,0.43,4.5,0.43h80.69V199.47C815.57,198.62,815.16,195.32,815.16,195.32
		 M784.65,292.1h-35.94v-37.42h35.94V292.1z"/>
</g>
</svg>
