<?xml version="1.0" encoding="UTF-8"?>
<svg width="400" height="150" version="1.1" xmlns="http://www.w3.org/2000/svg">
 <g fill="#03534c">
  <path d="m268.55 11.707-5.0469 5.0469c3.1758 15.031 5.1719 36.685 5.1719 60.768 0 24.062-1.9955 45.716-5.1699 60.746l-0.01367 0.01367c15.019-3.1734 36.673-5.1856 60.734-5.1856 24.071 0 45.715 2.0122 60.736 5.1856l5.041-5.0469c-15.457-3.2197-37.31-5.0664-60.086-5.0664-23.008 0-45.088 1.8938-60.572 5.1719h-0.00196l-1.1426 0.24219 0.00195-0.00195 0.24414-1.1426c3.2757-15.504 5.1602-37.601 5.1602-60.619 0-22.776-1.8468-44.641-5.0566-60.111zm1.6055 0.33203c3.1636 15.538 4.9746 37.22 4.9746 59.777 0 22.579-1.811 44.259-4.9746 59.787 15.526-3.1636 37.216-4.9648 59.752-4.9648 22.567 0 44.25 1.8012 59.766 4.9648-3.1514-15.504-4.9648-37.195-4.9648-59.787 0-22.569 1.8134-44.261 4.9648-59.777-15.516 3.1636-37.199 4.9648-59.766 4.9648-22.535 0-44.226-1.8012-59.752-4.9648z"/>
  <path d="m139.8 43.551c-1.7426 2.8858-2.5637 4.7779-2.459 5.6895 0.8774 8.231 1.5716 15.239 2.0664 21.047 1.0286-2.6104 1.5352-4.4912 1.5352-5.6562l-0.45117-10.471c-0.32172-6.8468-0.55248-10.39-0.6914-10.609zm49.32 0c-1.7524 2.8858-2.5735 4.7779-2.4688 5.6895 0.8872 8.231 1.5672 15.239 2.0644 21.047 1.0286-2.6104 1.5469-4.4912 1.5469-5.6562l-0.45118-10.471c-0.33389-6.8468-0.55248-10.39-0.6914-10.609zm-146.24 0.003907c-0.97 1.3161-1.6858 2.2745-2.1465 2.8984 0.66781 7.146 1.2219 14.66 1.6484 22.557h6.3281 30.098 5.582 7.3066c1.5355 0 2.8063-0.49677 3.8105-1.4766 0.4046-0.3827 1.0861-0.86722 2.0293-1.4668 0.9481-0.61174 1.6193-1.1193 2.002-1.5117 0.1828 1.3966 0.32104 2.2834 0.42578 2.666 0.3095 1.1894 0.85433 1.7891 1.6172 1.7891h8.8984 5.9102c0.19498 0 0.48455-0.32435 0.87696-0.98242 0.39239-0.66783 0.63546-0.99219 0.75976-0.99219 0.07311 0.03413 0.22252 0.26682 0.42969 0.69336 0.20718 0.43871 0.39145 0.71547 0.55469 0.83008 0.44847 0.29973 0.88745 0.45117 1.3262 0.45117h1.0078v0.001953h8.6348c0.31198 0 0.6368-0.86524 0.96094-2.5859 0.29986-1.616 0.44921-2.8408 0.44921-3.6719l-1.0976-11.014 0.47461 0.12695 1.8828-3.7168c-0.9237-0.485-1.8718-0.99313-2.8516-1.5488-0.25354-0.14867-0.38086-0.32016-0.38086-0.51758l0.17187-0.54297 0.16211-0.55469-0.28906-0.3125c-0.14868-0.13649-0.39265 0.092282-0.7168 0.66992l-1.707 2.9785c-0.15112 0.27785-0.2207 0.5312-0.2207 0.79688 0 0.37046 0.20871 0.6933 0.62305 0.95898l0.23242 0.091797c1.282 7.6312 1.9277 12.551 1.9277 14.754 0 0.53134-0.04597 0.78516-0.13867 0.78516h-8.1172v0.011719h-0.13086c-0.40458 0-0.62205-0.12738-0.65625-0.38086-0.01225-0.03656 0.03393-0.35893 0.13868-0.9707 0.49476-2.7249 0.73828-4.7909 0.73828-6.1875l-0.04688-0.38086c-1.2576 1.3965-2.2527 2.5979-2.9766 3.5898l-0.09375 4.3281h-8.5898v0.001953h-7.6055l-0.35547-0.20703c-0.5557-0.3924-0.83399-0.92546-0.83399-1.5957 1.26-0.61177 3.0244-0.92383 5.3106-0.92383 0.49719 0 0.87646 0.024975 1.1641 0.046875 0.67121-1.5077 1.1446-2.6356 1.4082-3.3984-0.14611 0.006709-0.50599 0.018416-1.1387 0.039063h-1.0996c-1.6379 0-4.2707-0.53105-7.8828-1.5938-2.4008-0.71411-4.1455-1.0723-5.252-1.0723-1.9279 0-3.4187 1.2249-4.457 3.6719-0.2413 0.58741-0.35938 1.0612-0.35938 1.4414l0.046875 0.12695c1.5379-1.1309 2.7603-1.6953 3.6719-1.6953l1.7891 0.37891c2.5031 0.51914 4.3869 0.9116 5.6543 1.1895-2.9443 2.3885-5.607 3.5898-7.998 3.5898h-7.4004-5.582-30.098-1.6855c-0.84334 0-1.4302-0.17344-1.7422-0.51953l-0.28906-0.31055c-0.19502-0.4046-0.55505-3.3833-1.0645-8.9355l-1.0488-12.398zm65.936 16.088c0.0959-0.004404 0.11687-0.005859 0.00195-0.005859-6e-4 0.001724-0.00136 0.004131-0.00195 0.005859zm-96.938-11.986-1.5938 2.7129 3.8555 2.25 1.0957-2.0664 3.6367 2.1934 1.5488-2.5742-3.7637-2.2871-1.2363 2.0215-3.543-2.25zm145.32 0-1.5938 2.7129 3.8555 2.25 1.0957-2.0664 3.6367 2.1934 1.5488-2.5742-3.7637-2.2871-1.2363 2.0215-3.543-2.25zm42.207 1.0957-1.6172 2.6309 3.7266 2.2402 1.5723-2.666-3.6816-2.2051zm-87.045 0.18164-1.5703 2.7129 3.7637 2.2051 1.1426-2.0195 3.6719 2.1934 1.5703-2.5977-3.8105-2.2617-1.2109 2.0195-3.5566-2.252zm-95.795 6.7559-3.0254 3.9492c-2.3666 3.0929-3.5449 5.3917-3.5449 6.8809 0 0.992 0.49873 1.6961 1.4785 2.1348 0.8067 0.35829 1.7317 0.47203 2.7578 0.35742 1.616-0.1949 3.0005-0.75056 4.168-1.6621 0.5996-0.4509 1.212-1.0844 1.8359-1.9277 0.86519-1.8231 1.3027-3.1297 1.3027-3.9023 0-1.0627-0.40176-1.9622-1.2109-2.7129-0.2559-0.2413-0.87666-0.72633-1.8809-1.4551-0.90181-0.67998-1.525-1.2356-1.8809-1.6621zm145.32 0-3.0234 3.9492c-2.3666 3.0929-3.5449 5.3917-3.5449 6.8809 0 0.992 0.49872 1.6961 1.4785 2.1348 0.8067 0.35829 1.7293 0.47203 2.7578 0.35742 1.616-0.1949 3.0005-0.75056 4.168-1.6621 0.5995-0.4509 1.2115-1.0844 1.8477-1.9277 0.86528-1.8231 1.291-3.1297 1.291-3.9023 0-1.0627-0.40418-1.9622-1.2109-2.7129-0.2559-0.2413-0.87622-0.72633-1.8828-1.4551-0.88724-0.67998-1.525-1.2356-1.8808-1.6621zm57.35 0.77734c-0.9433 0-2.0524 1.0166-3.3125 3.0371-1.1675 1.906-1.7433 3.3949-1.7305 4.4551 0.02438 0.9944 0.21985 1.8607 0.58789 2.6211 0.485 0.96033 1.1553 1.4782 2.0449 1.5586 1.0261 0.08043 1.7875 5.06e-4 2.2871-0.27734 0.7604-0.4144 1.4875-1.4089 2.1894-2.9785 0.18526 0.5191 0.26563 1.1904 0.26563 2.0215 0.0366 1.7086-1.0025 3.6021-3.1035 5.6445-1.9498 1.8816-3.9718 3.2215-6.0606 3.9941-0.4168 0.15115-0.9008 0.21875-1.4297 0.21875-0.4972 0-1.2228-0.11371-2.1953-0.36719-0.9798-0.2438-1.6976-0.37109-2.1582-0.37109-0.31204 0-0.47461 0.11462-0.47461 0.33398 0 0.429 1.2473 0.90228 3.7285 1.4434 1.9523 0.41677 3.4872 0.66902 4.5938 0.76172 1.26 0.1048 2.5516-0.50568 3.9043-1.834 1.0724-1.0725 1.9509-2.2992 2.6211-3.6836 1.2796-2.6664 1.9277-5.5419 1.9277-8.6348 0-1.8572-0.46346-3.6592-1.3848-5.4043-0.8677-1.6963-1.6403-2.5391-2.3008-2.5391zm-187.56 1.4629c-0.41435 1.9278-0.702 3.2566-0.86523 3.9707 2.9077 2.1132 4.3613 3.7745 4.3613 4.998 0 1.6963-1.1891 3.6958-3.5801 6.0039-2.3983 2.3106-4.4423 3.4629-6.1387 3.4629-0.7848 0-1.8112-0.26602-3.0957-0.78516-1.2674-0.51914-1.9597-0.7832-2.0645-0.7832l-0.27734 0.26562c0 0.5874 1.1881 1.3248 3.5449 2.2266 2.2033 0.8189 3.7618 1.2246 4.6855 1.2246 1.8719 0 3.6586-1.2249 5.3574-3.6719 1.8694-2.6664 2.8047-5.1597 2.8047-7.4922 0-2.4373-0.48503-4.4548-1.4551-6.0488-0.6458-1.0505-1.7321-2.172-3.2773-3.3711zm145.31 0c-0.41677 1.9278-0.70343 3.2566-0.8789 3.9707 2.9198 2.1132 4.375 3.7745 4.375 4.998 0 1.6963-1.1872 3.6958-3.5879 6.0039-2.391 2.3106-4.4365 3.4629-6.1426 3.4629-0.7726 0-1.8-0.26602-3.082-0.78516-1.2698-0.51914-1.9617-0.7832-2.0664-0.7832l-0.2793 0.26562c0 0.5874 1.1925 1.3248 3.5469 2.2266 2.2033 0.8189 3.7598 1.2246 4.6836 1.2246 1.8718 0 3.6625-1.2249 5.3613-3.6719 1.867-2.6664 2.8027-5.1597 2.8027-7.4922 0-2.4373-0.4826-4.4548-1.4551-6.0488-0.64339-1.0505-1.7442-2.172-3.2773-3.3711zm25.488 0c-0.41678 1.9278-0.70394 3.2566-0.86718 3.9707 2.9102 2.1132 4.3633 3.7745 4.3633 4.998 0 1.6963-1.1871 3.6958-3.5781 6.0039-2.4007 2.3106-4.4442 3.4629-6.1406 3.4629-0.7848 0-1.8122-0.26602-3.082-0.78516-1.282-0.51914-1.9758-0.7832-2.0781-0.7832l-0.26758 0.26562c0 0.5874 1.1808 1.3248 3.5352 2.2266 2.2058 0.8189 3.7599 1.2246 4.6836 1.2246 1.8718 0 3.6606-1.2249 5.3594-3.6719 1.8694-2.6664 2.8066-5.1597 2.8066-7.4922 0-2.4373-0.48651-4.4548-1.459-6.0488-0.6434-1.0505-1.7302-2.172-3.2754-3.3711zm-187.01 1.709c2.3325 1.4307 3.5192 2.7124 3.5801 3.8555 0.0317 0.51917-0.24266 0.96986-0.82031 1.3379-1.2942 0.54351-2.5058 0.80859-3.6367 0.80859-1.2576 0-1.8828-0.53115-1.8828-1.5938 0-0.312 0.080901-0.64563 0.24414-1.0039 0.9457-1.4088 1.7771-2.5391 2.5156-3.4043zm145.32 0c2.3325 1.4307 3.5197 2.7124 3.5879 3.8555 0.02438 0.51917-0.25245 0.96986-0.83007 1.3379-1.2942 0.54351-2.4932 0.80859-3.6387 0.80859-1.2552 0-1.8789-0.53115-1.8789-1.5938 0-0.312 0.0809-0.64563 0.24414-1.0039 0.9433-1.4088 1.7893-2.5391 2.5156-3.4043zm57.305 0.73047c0.658 0.0341 1.2469 0.48541 1.7539 1.375 0.45334 0.8092 0.67187 1.5573 0.67187 2.2617-0.3241 0.41678-1.0051 0.62305-2.0215 0.62305-0.6118 0-1.2124-0.1137-1.8145-0.35742-0.77014-0.28762-1.1743-0.70548-1.2109-1.2344-0.01217-0.4753 0.29894-1.0529 0.94726-1.7109 0.6361-0.66781 1.1986-0.97893 1.6738-0.95703zm-121.4 12.9-1.5938 2.541 3.5918 2.2363 1.5801-2.6406-3.5781-2.1367z"/>
  <path d="m106.46 85.295c-0.429 0-0.81992 0.044588-1.166 0.17383-0.3461 0.10236-0.63762 0.26549-0.87891 0.47266-0.24372 0.20716-0.42546 0.43702-0.55469 0.72461-0.1267 0.27785-0.18359 0.57817-0.18359 0.90234v2.4824h-1.8594v1.7871h1.8594v9.3984h2.5742v-9.3984h1.8945v-1.7871h-1.8945v-2.1719c0-0.28759 0.06758-0.49629 0.21875-0.61328l0.53125-0.18164 0.38281 0.13867c0.23886 0.09019 0.54164 0.21654 0.91211 0.35547v-1.6953c-0.31197-0.19742-0.62461-0.33471-0.96094-0.43945-0.32417-0.10471-0.62396-0.14844-0.875-0.14844zm15.133 0.017578c-0.7604 0-1.4689 0.1058-2.127 0.30078-0.6581 0.20962-1.246 0.49719-1.7871 0.85547-0.53133 0.36806-1.0056 0.79625-1.4199 1.291-0.41674 0.4972-0.76317 1.0391-1.041 1.6289-0.2754 0.5996-0.49335 1.2228-0.64453 1.8809-0.14865 0.658-0.2207 1.3283-0.2207 1.9961 0 1.3186 0.17391 2.5062 0.50781 3.5469 0.3363 1.0383 0.83067 1.9265 1.4668 2.6406 0.6239 0.71658 1.3838 1.2697 2.2832 1.6523 0.8921 0.38022 1.8857 0.57617 2.9922 0.57617 0.9603 0 1.8368-0.16068 2.6094-0.47266 0.7751-0.312 1.456-0.73821 2.0312-1.2793 0.58003-0.5436 1.0519-1.1799 1.4199-1.9062 0.37047-0.7166 0.63406-1.5009 0.79492-2.332h-2.584c-0.11699 0.5313-0.288 1.0497-0.51953 1.5469-0.24374 0.50699-0.52992 0.9572-0.90039 1.3496-0.35823 0.39239-0.77325 0.70595-1.2461 0.9375-0.485 0.24129-1.0156 0.35742-1.6055 0.35742-0.5752 0-1.1445-0.12887-1.6953-0.39453-0.56788-0.26319-1.0652-0.66743-1.5039-1.2109-0.44844-0.5435-0.79685-1.2372-1.0723-2.0684-0.26565-0.819-0.40429-1.8012-0.40429-2.9199 0-0.8311 0.11806-1.6267 0.34961-2.3652 0.2291-0.7507 0.54074-1.4091 0.95508-1.9746 0.4046-0.5654 0.90135-1.0157 1.4668-1.3496 0.5777-0.33397 1.2023-0.49805 1.8945-0.49805 1.0724 0 1.9484 0.27876 2.6406 0.82227 0.70442 0.5533 1.2478 1.3964 1.6523 2.5273h2.6328c-0.20959-0.7507-0.50845-1.4307-0.88867-2.0547-0.3827-0.6239-0.85643-1.1683-1.4316-1.6289-0.5679-0.46061-1.2352-0.81831-1.998-1.0742-0.7726-0.25354-1.6374-0.38086-2.6074-0.38086zm-92.336 0.42188v2.2148h2.543v-2.2148h-2.543zm15.98 0v2.2148h2.5508v-2.2148h-2.5508zm-32.877 0.005859v15.49h2.5762v-10.689l3.9121 10.689h1.6875l4.0957-10.689v10.689h2.5742v-15.49h-2.9648l-4.4805 11.672-4.4336-11.672h-2.9668zm49.193 1.0996v3.2109h-1.6855v1.7422h1.6855v7.3867c0 0.4289 0.070481 0.77491 0.20703 1.0625 0.15112 0.2876 0.34855 0.53198 0.58984 0.70508 0.24129 0.18525 0.53178 0.31217 0.85352 0.39257 0.3242 0.08048 0.65976 0.12696 1.0156 0.12696 0.26565 0 0.56695-0.02216 0.88867-0.06836 0.32418-0.0585 0.64702-0.11687 0.95898-0.19727v-1.6855c-0.36803 0.06835-0.6468 0.11482-0.83203 0.13672l-0.39258 0.046875-0.51758-0.22852c-0.12672-0.1511-0.19727-0.4294-0.19727-0.84375v-6.834h1.6738v-1.7422h-1.6738v-3.2109h-2.5742zm92.943 3.0039c-0.29979 0-0.60794 0.033878-0.91992 0.080078-0.31198 0.05605-0.62552 0.14864-0.9375 0.26562-0.29978 0.12674-0.58691 0.27571-0.87696 0.46094-0.27785 0.18523-0.53065 0.41598-0.75 0.68164-0.3924-0.54352-0.84359-0.91396-1.3262-1.1309-0.4973-0.22174-1.017-0.33594-1.5605-0.33594-0.4728 0-0.95743 0.079299-1.4766 0.23047-0.51915 0.16086-1.0046 0.41469-1.4434 0.78516v-0.83008h-2.5391v11.186h2.5391v-6.7188c0-0.31198 0.06865-0.6339 0.19532-0.98242 0.12919-0.33392 0.31144-0.64648 0.54297-0.92188 0.21936-0.29004 0.49903-0.5218 0.79882-0.70703 0.31198-0.18272 0.64415-0.27539 0.99024-0.27539l0.51953 0.10352 0.50976 0.33594c0.1511 0.17306 0.26244 0.38035 0.36719 0.6582 0.09267 0.26567 0.15235 0.61105 0.15235 1.0254v7.4824h2.5508v-6.8457c0-0.3924 0.06811-0.75006 0.20703-1.084 0.1365-0.33635 0.32607-0.63566 0.54297-0.87695 0.21936-0.25347 0.47458-0.45091 0.75-0.58984 0.27786-0.13898 0.5659-0.20703 0.84375-0.20703l0.58984 0.10156 0.53125 0.33594c0.16086 0.17306 0.28783 0.38035 0.39258 0.6582 0.10241 0.26567 0.14844 0.61105 0.14844 1.0254v7.4824h2.5391v-7.9297c0-0.49718-0.0936-0.94846-0.29102-1.375-0.19499-0.41435-0.45904-0.78568-0.79296-1.0977-0.34852-0.31196-0.76349-0.5515-1.2363-0.72461-0.4729-0.18526-0.99266-0.26562-1.5606-0.26562zm17.631 0c-0.29979 0-0.6099 0.033878-0.92188 0.080078-0.31198 0.05605-0.62356 0.14864-0.93554 0.26562-0.29978 0.12674-0.59911 0.27571-0.87696 0.46094s-0.53015 0.41598-0.75195 0.68164c-0.39241-0.54352-0.84164-0.91396-1.3242-1.1309-0.4973-0.22174-1.017-0.33594-1.5605-0.33594-0.4728 0-0.95743 0.079299-1.4766 0.23047-0.51915 0.16086-1.0046 0.41469-1.4434 0.78516v-0.83008h-2.5391v11.186h2.5391v-6.7188c0-0.31198 0.06864-0.6339 0.19532-0.98242 0.12918-0.33392 0.31144-0.64648 0.54296-0.92188 0.21937-0.29004 0.49709-0.5218 0.79688-0.70703 0.31197-0.18272 0.63634-0.27539 0.99219-0.27539l0.51953 0.10352 0.50976 0.33594c0.13893 0.17306 0.26245 0.38035 0.36719 0.6582 0.09268 0.26567 0.15039 0.61105 0.15039 1.0254v7.4824h2.5527v-6.8457c0-0.3924 0.06811-0.75006 0.20703-1.084 0.1365-0.33635 0.32411-0.63566 0.54101-0.87695 0.21936-0.25347 0.47458-0.45091 0.75-0.58984 0.27785-0.13898 0.55616-0.20703 0.84375-0.20703l0.58985 0.10156 0.53125 0.33594c0.16087 0.17306 0.28783 0.38035 0.39258 0.6582 0.10241 0.26567 0.14843 0.61105 0.14843 1.0254v7.4824h2.541v-7.9297c0-0.49718-0.09408-0.94846-0.28906-1.375-0.19743-0.41435-0.46296-0.78568-0.79688-1.0977-0.34852-0.31196-0.76153-0.5515-1.2344-0.72461-0.4729-0.18526-0.99266-0.26562-1.5606-0.26562zm-76.84 0.019531c-0.8653 0-1.6403 0.15286-2.3105 0.46484-0.658 0.29973-1.2229 0.71328-1.6738 1.2324-0.46066 0.5314-0.80751 1.1555-1.0391 1.8477-0.24129 0.7043-0.35742 1.455-0.35742 2.252 0 0.797 0.11613 1.5573 0.35742 2.252 0.23156 0.702 0.57841 1.3144 1.0391 1.8359 0.4509 0.51917 1.0158 0.93263 1.6738 1.2324 0.6703 0.30222 1.4453 0.46289 2.3105 0.46289 0.8653 0 1.6388-0.16067 2.3066-0.46289 0.6849-0.29982 1.2483-0.71328 1.709-1.2324 0.46307-0.5216 0.80902-1.134 1.0527-1.8359 0.24366-0.6947 0.35742-1.4551 0.35742-2.252s-0.11371-1.5476-0.35742-2.252c-0.24371-0.6922-0.58966-1.3163-1.0527-1.8477-0.4607-0.51909-1.0241-0.93264-1.709-1.2324-0.6678-0.31193-1.4414-0.46484-2.3066-0.46484zm40.219 0c-0.8628 0-1.6383 0.15286-2.3086 0.46484-0.658 0.29973-1.2229 0.71328-1.6738 1.2324-0.46066 0.5314-0.80751 1.1555-1.0391 1.8477-0.24129 0.7043-0.35742 1.455-0.35742 2.252 0 0.797 0.11613 1.5573 0.35742 2.252 0.23157 0.702 0.57842 1.3144 1.0391 1.8359 0.4509 0.51917 1.0158 0.93263 1.6738 1.2324 0.6702 0.30222 1.4458 0.46289 2.3086 0.46289 0.8677 0 1.6403-0.16067 2.3203-0.46289 0.6727-0.29982 1.2347-0.71328 1.6953-1.2324 0.46307-0.5216 0.82119-1.134 1.0527-1.8359 0.24367-0.6947 0.35938-1.4551 0.35938-2.252s-0.11566-1.5476-0.35938-2.252c-0.23154-0.6922-0.58965-1.3163-1.0527-1.8477-0.4607-0.51909-1.0226-0.93264-1.6953-1.2324-0.68-0.31193-1.4526-0.46484-2.3203-0.46484zm-95.992 0.001953c-0.5874 0-1.1674 0.092094-1.7305 0.27734-0.5776 0.17304-1.0966 0.44789-1.5938 0.81836v-0.91016h-2.5742v11.186h2.5742v-6.6855c0-0.36804 0.081849-0.73787 0.23047-1.084 0.16331-0.35828 0.36863-0.66987 0.64648-0.93555 0.27542-0.2754 0.6007-0.48509 0.95898-0.6582 0.36801-0.16089 0.76095-0.24219 1.1777-0.24219 0.47287 0 0.84174 0.1406 1.1074 0.41602 0.26315 0.2778 0.39258 0.76138 0.39258 1.4316v7.7578h2.541v-7.9551c0-0.53133-0.080796-1.0036-0.25391-1.418-0.16329-0.42893-0.40435-0.78418-0.72852-1.0742-0.32167-0.29979-0.70246-0.53107-1.168-0.67969-0.4704-0.16332-0.9927-0.24414-1.5801-0.24414zm32.783 0c-0.43874 0-0.86692 0.10534-1.291 0.3125-0.41673 0.20718-0.77444 0.50602-1.0742 0.88867l-0.14258-1.0156h-2.2832v11.186h2.5527v-6.6953c0-0.35826 0.043688-0.70514 0.14844-1.0391 0.09262-0.33391 0.24248-0.62394 0.42773-0.86523 0.18279-0.25348 0.41551-0.451 0.69336-0.59961 0.27785-0.15116 0.57772-0.2207 0.92383-0.2207 0.1389 0 0.56516 0.12692 1.2695 0.39258v-2.0898l-0.66992-0.18359-0.55469-0.070313zm122.67 0c-0.43876 0-0.86888 0.10534-1.293 0.3125-0.41673 0.20718-0.77443 0.50602-1.0742 0.88867l-0.13867-1.0156h-2.2871v11.186h2.5527v-6.6953c0-0.35826 0.04608-0.70514 0.14844-1.0391 0.09263-0.33391 0.24251-0.62394 0.42773-0.86523 0.1828-0.25348 0.41794-0.451 0.69336-0.59961 0.27785-0.15116 0.57774-0.2207 0.92383-0.2207 0.1389 0 0.56514 0.12692 1.2695 0.39258v-2.0898l-0.66992-0.18359-0.55273-0.070313zm7.6816 0.003907c-0.797 0-1.5099 0.15136-2.1582 0.44141-0.6483 0.28764-1.201 0.68055-1.6543 1.1875-0.46063 0.5094-0.80514 1.0969-1.0586 1.7793-0.2438 0.68-0.37109 1.4183-0.37109 2.2031 0 0.7166 0.10381 1.4201 0.28906 2.1367 0.20959 0.7142 0.50997 1.3638 0.92188 1.9414 0.4168 0.56548 0.94933 1.0387 1.5976 1.3848 0.6337 0.35829 1.4053 0.54102 2.2949 0.54102 0.7142 0 1.3618-0.10337 1.9395-0.30079 0.57518-0.20719 1.0852-0.4943 1.5117-0.87695 0.42653-0.3802 0.77583-0.84124 1.0391-1.3848 0.25348-0.5435 0.42741-1.1555 0.50781-1.8477h-2.6777c-0.06824 0.35833-0.15983 0.6934-0.28906 1.0176-0.12675 0.31196-0.28792 0.58636-0.47071 0.83008l-0.66211 0.56641c-0.25349 0.13892-0.52786 0.19727-0.83984 0.19727-0.40457 0-0.77547-0.11808-1.0996-0.35938-0.32173-0.24374-0.599-0.55486-0.81836-0.94727-0.22912-0.39245-0.405-0.8446-0.5293-1.3516-0.11699-0.5069-0.17578-1.0253-0.17578-1.5566 0-0.50942 0.05879-0.99444 0.17578-1.4551 0.1243-0.46306 0.30018-0.87657 0.5293-1.2227 0.21937-0.34609 0.49617-0.63659 0.83008-0.84375 0.3363-0.20724 0.71798-0.3125 1.1348-0.3125 0.56544 0 1.0246 0.16022 1.3926 0.48438 0.36071 0.312 0.64831 0.85628 0.85547 1.6289h2.6445c-0.10481-0.55328-0.29877-1.0716-0.55469-1.5469-0.25348-0.47281-0.58807-0.88827-0.98046-1.2246-0.4046-0.34609-0.87594-0.61167-1.4316-0.80664-0.55091-0.19749-1.1882-0.30273-1.8926-0.30273zm-19.352 0.003906c-0.8312 0-1.5817 0.14898-2.252 0.46094-0.6703 0.29978-1.2444 0.71718-1.7051 1.2363-0.46303 0.507-0.83487 1.1091-1.0762 1.7891-0.25346 0.6825-0.39062 1.3958-0.39062 2.1465 0 0.797 0.13716 1.5593 0.39062 2.2734 0.25353 0.7288 0.62579 1.3627 1.084 1.9062 0.4753 0.55331 1.0524 0.98051 1.7226 1.3047 0.6678 0.32165 1.4213 0.47266 2.25 0.47266 0.5898 0 1.1674-0.0808 1.7109-0.25391 0.55324-0.18525 1.0589-0.43756 1.5098-0.77148 0.4606-0.33634 0.84183-0.75132 1.166-1.2363 0.32416-0.485 0.55539-1.0406 0.67969-1.6621h-2.377c-0.507 1.4429-1.4074 2.1562-2.6894 2.1562-0.3802 0-0.7403-0.089689-1.0742-0.28711-0.32415-0.19742-0.62344-0.46054-0.86718-0.79688-0.25348-0.32417-0.44845-0.70386-0.59961-1.1426-0.14868-0.42655-0.24133-0.86505-0.26563-1.3379l8.0488-0.001953v-0.80859c0-0.7848-0.12737-1.5099-0.37109-2.168-0.24131-0.6703-0.59014-1.2372-1.0508-1.7344-0.4508-0.48503-1.0045-0.8652-1.6504-1.1309-0.6484-0.27542-1.3842-0.41406-2.1934-0.41406zm31.271 0c-0.8311 0-1.5822 0.14898-2.25 0.46094-0.6728 0.29978-1.2483 0.71718-1.709 1.2363-0.46313 0.507-0.82072 1.1091-1.0742 1.7891-0.25352 0.6825-0.38086 1.3958-0.38086 2.1465 0 0.797 0.1274 1.5593 0.38086 2.2734 0.2535 0.7288 0.62288 1.3627 1.0957 1.9062 0.4607 0.55331 1.0387 0.98051 1.709 1.3047 0.6702 0.32165 1.4213 0.47266 2.25 0.47266 0.5898 0 1.1674-0.0808 1.7207-0.25391 0.54355-0.18525 1.0511-0.43756 1.502-0.77148 0.46061-0.33634 0.83988-0.75132 1.1641-1.2363 0.32415-0.485 0.55539-1.0406 0.67969-1.6621h-2.377c-0.507 1.4429-1.3953 2.1562-2.6895 2.1562-0.3802 0-0.73591-0.089689-1.0723-0.28711-0.32416-0.19742-0.61322-0.46054-0.86914-0.79688-0.25103-0.32417-0.44844-0.70386-0.59961-1.1426-0.14867-0.42655-0.24133-0.86505-0.26563-1.3379l8.0488-0.001953v-0.80859c0-0.7848-0.12737-1.5099-0.37109-2.168-0.24131-0.6703-0.58818-1.2372-1.0488-1.7344-0.4509-0.48503-1.0045-0.8652-1.6504-1.1309-0.6484-0.27542-1.3842-0.41406-2.1934-0.41406zm-160.34 0.001953c-0.5532 0-1.0848 0.058867-1.5918 0.18555-0.5216 0.11456-0.97282 0.29925-1.3652 0.54297-0.39241 0.25349-0.70447 0.55337-0.93359 0.93359-0.23147 0.37043-0.3457 0.80946-0.3457 1.3164 0 0.51911 0.11418 0.94594 0.35547 1.3164 0.24373 0.35828 0.55728 0.65817 0.9375 0.92383 0.38021 0.25348 0.80841 0.47297 1.2812 0.6582 0.48504 0.18524 0.95834 0.35814 1.4434 0.53125 0.32417 0.10237 0.62405 0.21936 0.92383 0.33398 0.2876 0.1048 0.55604 0.23022 0.77539 0.36914l0.54102 0.49609c0.13887 0.19742 0.19336 0.42818 0.19336 0.69141 0 0.30221-0.068111 0.55503-0.20703 0.75l-0.54102 0.46289c-0.21936 0.11461-0.45114 0.19599-0.7168 0.24219-0.26566 0.0464-0.50626 0.070313-0.75 0.070313-0.2876 0-0.54386-0.034388-0.78516-0.11719l-0.62305-0.36719c-0.18279-0.17306-0.32483-0.40574-0.43945-0.68359-0.10491-0.26568-0.15908-0.59978-0.17187-0.99219l-2.6211 0.001954c0.02437 0.6459 0.1601 1.2235 0.41602 1.7207 0.25108 0.485 0.58909 0.89849 1.0059 1.2227 0.4265 0.32172 0.91009 0.57742 1.4512 0.73828 0.5557 0.16089 1.1436 0.24218 1.7676 0.24218 0.6361 0 1.2471-0.06863 1.8223-0.19531 0.57764-0.12673 1.0847-0.33348 1.5234-0.61133 0.45334-0.2778 0.7983-0.63551 1.0664-1.0742 0.25109-0.4387 0.39258-0.96786 0.39258-1.5918 0-0.45089-0.12978-0.856-0.36133-1.1777-0.24129-0.33634-0.54118-0.62349-0.93359-0.87695-0.38265-0.25349-0.80989-0.47493-1.2949-0.66992-0.47282-0.18523-0.9427-0.37181-1.418-0.54492-0.32415-0.10237-0.62404-0.21936-0.92383-0.33398-0.29978-0.11456-0.56532-0.24396-0.79688-0.39258l-0.54102-0.48438-0.19727-0.63672c0-0.36803 0.13819-0.66689 0.42578-0.89844 0.2876-0.23155 0.69282-0.33398 1.2363-0.33398l0.69141 0.06836 0.58008 0.25391 0.42578 0.47266c0.11456 0.19742 0.18657 0.43801 0.23047 0.74023h2.0801l0.28711 0.009766h0.18555c-0.02437-0.57525-0.15176-1.072-0.38086-1.4863-0.24372-0.41675-0.55636-0.76364-0.96094-1.0293-0.3924-0.27785-0.86272-0.47294-1.3965-0.59961-0.5436-0.13893-1.1182-0.19727-1.7422-0.19727zm-24.971 0.17578v11.187h2.543v-11.187h-2.543zm15.98 0v11.187h2.5508v-11.187h-2.5508zm36.529 0.007813-2.6191 7.6406-2.6543-7.6387h-2.7129l4.1074 11.137-0.4707 1.5137-0.16211 0.46094-0.20898 0.49804-0.25391 0.4043-0.28906 0.14844-0.24219-0.03516-0.36914-0.11328-0.41406-0.16406-0.39258-0.14844v1.8809c0.3461 0.13644 0.64497 0.23142 0.89844 0.26562 0.2681 0.0433 0.5087 0.05664 0.74023 0.05664 0.26323 0 0.54489-0.03425 0.82031-0.12695 0.2754-0.08043 0.54098-0.23081 0.80664-0.42578 0.26566-0.19742 0.52088-0.45021 0.74023-0.75 0.22912-0.312 0.41531-0.69365 0.57617-1.1445l4.7441-13.459h-2.6445zm13.51 1.5723c0.4387 0 0.83164 0.11511 1.1777 0.32227 0.35828 0.20961 0.65665 0.49672 0.90039 0.86719 0.25104 0.35582 0.44949 0.78404 0.57617 1.2812 0.13891 0.4825 0.20898 1.0014 0.20898 1.5449 0 0.56549-0.070054 1.0853-0.20898 1.5605-0.12673 0.48257-0.32513 0.91125-0.57617 1.2695-0.24374 0.36804-0.54211 0.64635-0.90039 0.85352-0.34608 0.20723-0.73902 0.3125-1.1777 0.3125-0.42894 0-0.82188-0.10534-1.1777-0.3125-0.34852-0.20717-0.64738-0.48548-0.88867-0.85352-0.25348-0.35826-0.43973-0.78694-0.56641-1.2695-0.13892-0.4753-0.19726-0.99509-0.19726-1.5605 0-0.5435 0.058335-1.0623 0.19726-1.5449 0.12675-0.4972 0.31293-0.92542 0.56641-1.2812 0.24129-0.37047 0.54015-0.65758 0.88867-0.86719 0.35584-0.20711 0.74878-0.32227 1.1777-0.32227zm40.221 0c0.43871 0 0.82969 0.11511 1.1758 0.32227 0.35829 0.20961 0.6586 0.49672 0.90234 0.86719 0.25105 0.35582 0.4495 0.78404 0.57618 1.2812 0.14141 0.4825 0.20898 1.0014 0.20898 1.5449 0 0.56549-0.06768 1.0853-0.20898 1.5605-0.12673 0.48257-0.32515 0.91125-0.57618 1.2695-0.24373 0.36804-0.54406 0.64635-0.90234 0.85352-0.34608 0.20723-0.73706 0.3125-1.1758 0.3125-0.42893 0-0.82188-0.10534-1.1777-0.3125-0.34852-0.20717-0.64884-0.48548-0.89258-0.85352-0.23885-0.35826-0.43581-0.78694-0.5625-1.2695-0.12922-0.4753-0.19727-0.99509-0.19727-1.5605 0-0.5435 0.06804-1.0623 0.19727-1.5449 0.12676-0.4972 0.32366-0.92542 0.5625-1.2812 0.24374-0.37047 0.54406-0.65758 0.89258-0.86719 0.35584-0.20711 0.74879-0.32227 1.1777-0.32227zm47.701 0.007813c0.40213 0 0.76912 0.07014 1.1055 0.21875 0.32415 0.1511 0.6127 0.34517 0.8418 0.61328 0.24372 0.25346 0.42943 0.55383 0.56836 0.91211 0.12667 0.34607 0.21833 0.738 0.24023 1.1523h-5.4375c0.02436-0.39239 0.1053-0.75938 0.25391-1.1055 0.13893-0.34611 0.33683-0.65816 0.56836-0.92383 0.24374-0.26566 0.51809-0.47586 0.83008-0.63672 0.31194-0.15113 0.65639-0.23047 1.0293-0.23047zm31.27 0c0.40213 0 0.7735 0.07014 1.1074 0.21875 0.32416 0.1511 0.61028 0.34517 0.85157 0.61328 0.23153 0.25346 0.41771 0.55383 0.55664 0.91211 0.13655 0.34607 0.22029 0.738 0.24219 1.1523h-5.4375c0.02437-0.39239 0.10334-0.75938 0.25195-1.1055 0.13893-0.34611 0.33683-0.65816 0.56836-0.92383 0.24374-0.26566 0.52005-0.47586 0.83203-0.63672 0.31194-0.15113 0.65444-0.23047 1.0273-0.23047z"/>
 </g>
 <path d="m329.9 25.105c-0.15598 0.20715-0.36644 0.52151-0.57422 0.96875-0.05194 0.11151-0.10364 0.23103-0.15429 0.35938v0.001953c-0.15174 0.3847-0.29465 0.8451-0.40235 1.3945l-0.05664 0.35742-0.29883-0.16211-0.17383-0.06836-0.1875 0.10352c-0.38022 0.4509-0.50751 2.0071-0.32226 3.8789l0.03515 0.30078h-0.18554c-0.05601 0.2072 0.01387 0.71556 0.13086 1.4297l0.0664 0.41797 0.14063 0.69141c0.09505 0.44175 0.20516 0.9267 0.32812 1.4434v0.001953c0.12286 0.51615 0.25869 1.064 0.4043 1.6348 3.3e-4 0.001285-3.3e-4 0.002621 0 0.003906 0.14552 0.5703 0.30169 1.1629 0.46484 1.7676 0.1638 0.60656 0.33331 1.2252 0.50977 1.8438l0.05664 0.16016 0.20898 0.73047 0.00977 0.091797 0.03711-0.091797 0.20703-0.73047 0.04492-0.16016c0.52811-1.8601 1.0171-3.7023 1.3887-5.252 0.12389-0.51667 0.23503-1.0016 0.33008-1.4434l0.13868-0.69141 0.07226-0.41797c0.12613-0.71413 0.18257-1.2225 0.13867-1.4297h-0.19726l0.02343-0.30078c0.17305-1.8719 0.04335-3.428-0.3125-3.8789l-0.18164-0.10352-0.20117 0.06836-0.27539 0.16211-0.06836-0.35742c-0.1086-0.54946-0.24916-1.0098-0.40039-1.3945v-0.001953c-0.25228-0.64307-0.53411-1.0694-0.74414-1.3281zm10.492 4.6582c-0.06468 0-0.13 0.00748-0.19531 0.015625-0.53876 0.065239-1.0625 0.36523-1.0625 0.36523l-0.11524 0.080078-0.06641-0.048828-0.04882-0.042969c-0.2268-0.17336-0.44684-0.28645-0.66602-0.33203-0.03466-0.007589-0.06926-0.013669-0.10351-0.017578h-0.00196c-0.01742-0.001954-0.03542-9.69e-4 -0.05273-0.001953-0.01749-9.51e-4 -0.03719-0.003872-0.05469-0.003906-0.06956 1.33e-4 -0.13662 0.00728-0.19922 0.019531-0.25426 0.050239-0.44975 0.1871-0.57031 0.29492-0.03012 0.02699-0.05563 0.052626-0.07617 0.074219-0.04224 0.043186-0.06446 0.072265-0.06446 0.072265l-0.02539 0.03711-0.13281 0.17578-0.20117-0.17969-0.34375-0.16016c-0.00328 0-0.00648 0.00188-0.00977 0.001953l-0.00195-0.001953c-0.61174 0-1.2952 1.2698-1.4805 1.7305l-0.14844 0.38281-0.26562-0.32422-0.0293-0.03125-0.13281-0.1543c-0.00263 0-0.00518 0.001848-0.00781 0.001953l-0.00196-0.001953c-0.39245 0-0.87737 1.2348-1.1211 2.3535l-0.08203 0.43945-0.16406-0.14648-0.14649-0.14062-0.13867-0.074219-0.13867-0.078125c-0.4387 2.4934-1.5099 6.3747-2.1582 8.5098l-0.08008 0.31055 0.51953-0.55469 0.57812-0.58984c0.8628-0.81887 1.7059-1.51 1.8691-1.6367 1.1772-1.5136 0.78516-2.2644 0.78516-2.2734l-0.15039-0.23242-0.01367-0.023437 0.04687-0.023437 0.22071-0.10352c0.42654-0.20718 0.70446-0.41541 0.92382-0.63477 0.30391-0.32842 0.38448-0.63246 0.40625-0.83203 0.00265-0.017995 0.00774-0.040391 0.00977-0.056641l-0.00391-0.027343-0.00976-0.13477-0.03516-0.16211-0.02929-0.072266-0.00391-0.017578 0.16015-0.048828 0.08008-0.021485c0.62395-0.21936 1.0165-0.58992 1.248-0.92383 0.32424-0.47284 0.35547-0.90039 0.35547-0.90039l0.01367-0.18555 0.15039-0.044922c1.2918-0.485 2.1806-1.3507 2.1934-1.375l0.05664-0.046875 0.07031-0.007813c0.44851-0.0926 1.0724-1.0973 1.3965-1.7676-0.10501-0.21739-0.26839-0.34868-0.50196-0.40039-0.03646-0.008387-0.07533-0.0152-0.11523-0.019532-0.04232-0.00436-0.08651-0.007812-0.13281-0.007812zm-20.963 0.005859c-0.36803 0-0.59936 0.14012-0.73828 0.41797 0.3242 0.68 0.93535 1.6833 1.3984 1.7637l0.05664 0.02539 0.06836 0.044922c0.0122 0.0098 0.89872 0.8885 2.1953 1.3613 0.00253 9.36e-4 0.00527 0.001021 0.00781 0.001954l0.05859 0.023437 0.07813 0.033203 0.00781 0.056641 0.00977 0.11523c0 0.03656 0.04591 0.45143 0.3457 0.90234 0.2291 0.3339 0.62414 0.71421 1.2676 0.92383l0.07031 0.021485 0.15234 0.058593-0.02539 0.080078-0.04297 0.17383v0.16016c0 0.19742 0.068 0.53234 0.42383 0.89062 0.18326 0.18995 0.4462 0.37848 0.81641 0.57031 0.03289 0.017392 0.06105 0.035311 0.0957 0.052735h0.00195l0.21485 0.10156 0.00195 0.001953 0.06055 0.023438-0.01367 0.035156-0.16211 0.24219s-0.40469 0.75062 0.78711 2.2617c0.08045 0.05725 0.33162 0.25921 0.66797 0.55078h0.00195c0.16793 0.14559 0.35687 0.3145 0.55664 0.49805h0.00195c0.19987 0.18365 0.40866 0.38375 0.61914 0.5918l0.48047 0.46094 0.11719 0.11523 0.07422 0.080078 0.43359 0.48438-0.00586-0.019531 0.01758 0.019531-0.09375-0.32226c-0.6239-2.1253-1.7102-6.0027-2.1465-8.4961l-0.00977 0.003906c-2.1e-4 -0.001181 2.1e-4 -0.002725 0-0.003906l-0.2793 0.14844-0.30273 0.2832-0.07813-0.43164c-0.24132-1.1431-0.71687-2.3535-1.0508-2.3535l-0.00195 0.001953c-0.00194-8.1e-5 -0.00393-0.001953-0.00586-0.001953l-0.07227 0.054688-0.17578 0.11719-0.13086 0.18164-0.11328 0.14453-0.16992-0.37109c-0.1852-0.4631-0.86526-1.7344-1.4648-1.7344l-0.00196 0.001954c-0.00322-7.3e-5 -0.00655-0.001954-0.00976-0.001954l-0.35742 0.16211-0.19141 0.18164-0.15625-0.2168s-0.35886-0.46094-0.91211-0.46094c-0.063 0-0.12733 0.006899-0.19141 0.019531-0.00664 0.001323-0.01482 0.002447-0.02148 0.003907-0.05385 0.011898-0.10924 0.030105-0.16406 0.050781-0.01565 0.005808-0.0312 0.011107-0.04688 0.017578 0 0-0.00195 0.001953-0.00195 0.001953-0.14242 0.059079-0.28668 0.14483-0.42969 0.25391l-0.08594 0.06836-0.04687 0.029296-0.13086-0.076171c-0.01074 0-0.51394-0.29281-1.0352-0.36328-0.07413-0.010396-0.14892-0.017578-0.22265-0.017578zm-2.6367 3.0781c-0.03831 0-0.07613 0.001283-0.11133 0.00586-0.03512 0.004655-0.07141 0.01222-0.10352 0.021484-0.0321 0.009434-0.06258 0.02303-0.09179 0.037109-0.02909 0.014093-0.05969 0.030046-0.08594 0.048829-0.0122 0.008785-0.0216 0.021441-0.0332 0.03125-0.01346 0.011364-0.02835 0.02242-0.04102 0.035156-0.04749 0.047971-0.09028 0.10633-0.12695 0.17383-0.0184 0.03399-0.03495 0.070377-0.05078 0.10938l-0.10352 0.25-0.23437-0.10156s-0.06684-0.037063-0.17774-0.074218c-0.05508-0.018404-0.12088-0.036894-0.19531-0.050782h-0.00195c-0.03704-0.006854-0.07636-0.013525-0.11719-0.017578h-0.00195c-0.04156-0.004063-0.08413-0.005859-0.12891-0.005859-0.28703 0-0.54424 0.086528-0.77148 0.25586-0.17069 0.1275-0.32462 0.30136-0.46485 0.52148v0.001953c-0.04643 0.072983-0.09342 0.15142-0.13672 0.23438v0.001953l-0.06836 0.14844-0.16211-0.011718h-0.11718c-0.07453 0-0.19718 0.001966-0.3418 0.013671-0.07227 0.005893-0.15216 0.013888-0.23438 0.025391-0.01443 0.002028-0.03027 0.00558-0.04492 0.007813-0.13094 0.019866-0.26873 0.049674-0.40625 0.089843-0.02348 0.006859-0.04891 0.011965-0.07226 0.019532-0.08733 0.028374-0.17554 0.062143-0.25781 0.10156-0.12383 0.059588-0.23958 0.13467-0.3379 0.22461-0.03215 0.029561-0.0636 0.060481-0.09179 0.09375v0.001954c-0.11336 0.12064-0.1871 0.26798-0.2168 0.44141v0.001953c-7.4e-4 0.004378-0.00127 0.009262-0.00195 0.013672-0.00867 0.05298-0.01367 0.10939-0.01367 0.16797 0.11577 0.095042 0.26833 0.21395 0.44335 0.33984h0.00196c0.08715 0.062663 0.17941 0.12788 0.27539 0.19141h0.00195c0.09602 0.063527 0.19395 0.12761 0.29492 0.1875h0.00196c0.10137 0.060169 0.20413 0.11601 0.30664 0.16797 0.10253 0.051954 0.20303 0.099485 0.30273 0.13867h0.00195c0.04988 0.019594 0.09803 0.037186 0.14649 0.052735 0.0484 0.015548 0.09611 0.028128 0.14258 0.039062h0.00195c0.0459 0.010782 0.09119 0.019644 0.13477 0.025391 0.04349 0.005665 0.0882 0.009676 0.1289 0.009765l0.08594-0.009765 0.08398-0.011719h0.00196l0.0332-0.011719 0.0332-0.013672h0.00196l0.05664 0.025391h0.00195c0.01677 0.013648 0.92619 0.31055 2.1465 0.31055 0.27785 0 0.56445-0.023022 0.83985-0.044922l0.15234-0.035156 0.0918 0.14844c0.00911 0.0174 0.10091 0.17927 0.28711 0.375 0.06187 0.064965 0.13319 0.13483 0.2168 0.20312h0.00195c0.04167 0.033994 0.08555 0.068256 0.13281 0.10156h0.00195c0.04733 0.033305 0.09733 0.067999 0.15039 0.099609h0.00196c0.05312 0.031593 0.10897 0.062909 0.16797 0.091797h0.00195c0.05905 0.028864 0.12048 0.056881 0.18555 0.082031h0.00195c0.06513 0.025118 0.13183 0.047967 0.20312 0.06836h0.00196c0.14333 0.040884 0.29972 0.072188 0.46875 0.08789h0.00195c0.08426 0.007826 0.1748 0.011658 0.26563 0.011719l0.50586-0.033203 0.21875-0.035156 0.04882 0.25391c0.01097 0.01097 0.02982 0.085206 0.08008 0.19336 0.03656 0.081116 0.09275 0.18162 0.17969 0.28711 0.02883 0.035163 0.06171 0.071473 0.09766 0.10742l0.22851 0.16016h0.00195l0.56446 0.25586 0.23047 0.046875h0.00195c0.06038 0.011626 0.124 0.020914 0.18945 0.029297h0.00196c0.06553 0.008355 0.13311 0.016661 0.20312 0.021484h0.00195c0.07006 0.004826 0.14286 0.006806 0.2168 0.007813h0.00195 0.00196c0.07343 8.95e-4 0.14794 0.001192 0.22461-0.001953l0.1289-0.009766 0.1836-0.013672v0.082032l-0.0586 0.24219v0.021484 0.001953c1.7e-4 0.067533 0.01322 0.2872 0.18164 0.58789 0.09651 0.17285 0.24626 0.37308 0.47071 0.58594 0.05583 0.052905 0.11586 0.10778 0.18164 0.16211h0.00195c0.1321 0.10902 0.28387 0.22175 0.46094 0.33398h0.00195c0.0884 0.055995 0.18239 0.1118 0.2832 0.16797h0.00196c0.10091 0.056189 0.2081 0.11398 0.32226 0.16992h0.00196c0.16456 0.036594 0.91489 0.20278 1.8359 0.46094h0.00196c0.55217 0.1548 1.1666 0.34286 1.75 0.55469 0.23762 0.08652 0.47126 0.17722 0.69336 0.26953h0.00195c0.11045 0.045927 0.21676 0.091427 0.32031 0.13867 0.00817 0.003733 0.01533 0.007978 0.02344 0.011719 0.09527 0.043833 0.18784 0.087917 0.27539 0.13281h0.00195l-0.01367-0.044922-0.02148-0.05664-0.58985-0.64844c-0.13252-0.13831-0.27139-0.27621-0.41015-0.41211-0.13866-0.13556-0.2776-0.26945-0.41602-0.39844h-0.00195c-0.27713-0.25822-0.54535-0.50024-0.78321-0.70703h-0.00195c-0.23764-0.20658-0.44249-0.38013-0.58984-0.50195h-0.00196c-0.14669-0.12126-0.23397-0.19147-0.24023-0.19531l-0.03711-0.046875c-1.0384-1.3162-1.038-2.2156-0.94531-2.6445h-0.00196c-0.07793-0.041461-0.15096-0.084192-0.2207-0.12695h-0.00195c-0.06967-0.042758-0.13534-0.087099-0.19727-0.13086h-0.00195c-0.06186-0.043756-0.11927-0.088352-0.17383-0.13281h-0.00195c-0.05451-0.044459-0.10469-0.089898-0.15235-0.13476-0.28762-0.27057-0.45566-0.54727-0.55078-0.79492v-0.001953c-0.03167-0.082691-0.05478-0.16102-0.07226-0.23633-0.03492-0.15062-0.04492-0.284-0.04492-0.39062-0.34521-0.14446-0.61998-0.32604-0.8418-0.51953h-0.00195c-0.13322-0.11632-0.24608-0.23678-0.34571-0.35742l-0.05859-0.013671c-0.13009 0-0.27098 0.026305-0.38867 0.25-0.01737 0.031955-0.03463 0.066903-0.05078 0.10742l-0.03711 0.091797-0.13672 0.31445-0.25195-0.34766c-0.33819-0.47681-0.88673-1.1289-1.3789-1.5508-0.09834-0.084385-0.19328-0.15796-0.28516-0.2207-0.18394-0.12548-0.35154-0.20117-0.48437-0.20117-0.06824 0-0.21843-0.001304-0.29883 0.37891l-0.10547 0.41211-0.28711-0.27344c-0.00852-0.00305-0.09173-0.073194-0.22265-0.17773-0.0652-0.051993-0.14182-0.11326-0.22852-0.17774h-0.00195c-0.08687-0.064567-0.18256-0.1345-0.28516-0.20312h-0.00195c-0.10269-0.068632-0.21159-0.13693-0.32422-0.20117h-0.00196c-0.05608-0.031957-0.11245-0.06445-0.16992-0.09375h-0.00195c-0.05799-0.029529-0.11516-0.05823-0.17383-0.083984-0.05863-0.025754-0.11918-0.049399-0.17773-0.070312-0.05802-0.020698-0.11463-0.037816-0.17188-0.052735h-0.00195c-0.0572-0.014843-0.1142-0.027127-0.16992-0.035156h-0.00196c-0.05566-0.007942-0.11254-0.01162-0.16601-0.011719zm26.236 0.001953c-0.17804 0-0.37585 0.049946-0.57618 0.12891-0.09992 0.039469-0.20285 0.086963-0.30273 0.13867-0.09991 0.051779-0.20075 0.10888-0.29687 0.16797-0.09611 0.059118-0.19071 0.12211-0.2793 0.18359-0.26694 0.18536-0.4904 0.36934-0.6211 0.48633l-0.09374 0.087891-0.20508 0.17969-0.10352-0.4043c-0.04631-0.1901-0.10726-0.28646-0.16211-0.33398-0.02693-0.022974-0.05251-0.035175-0.07617-0.041016 0 0-0.00195-0.001953-0.00195-0.001953-0.02407-0.005941-0.04545-0.005859-0.0625-0.005859-0.06744 0-0.14488 0.020496-0.22657 0.054687-0.08195 0.034497-0.17155 0.08605-0.26367 0.14844-0.09224 0.062569-0.18883 0.13861-0.28711 0.22266-0.19742 0.16897-0.40294 0.37334-0.59961 0.58984 0 0-0.00195 0.001953-0.00195 0.001953-0.29678 0.32475-0.57352 0.67382-0.77734 0.95898l-0.17188 0.24609-0.07226 0.097656-0.17383-0.40234-0.00195-0.001954c-0.0155-0.039323-0.03212-0.076228-0.04883-0.10742-0.01665-0.030856-0.03328-0.058285-0.05078-0.082032l-0.00196-0.001953c-0.0185-0.024609-0.03758-0.044694-0.05664-0.0625-0.01384-0.013204-0.02705-0.023138-0.04101-0.033203-0.00395-0.002799-0.00972-0.009147-0.01368-0.011719-0.01796-0.011685-0.03883-0.021794-0.05664-0.029296-0.05496-0.022682-0.10918-0.027221-0.15625-0.027344l-0.06836 0.009765c-0.00611 0.007822-0.01326 0.01562-0.01953 0.023438-0.26479 0.31615-0.63996 0.6273-1.168 0.84375 0 0.002923 2e-5 0.006806 0 0.009765h-0.00195c0 0.053313-0.00291 0.11222-0.00976 0.17774-0.00697 0.064557-0.01624 0.13363-0.03321 0.20703-4.8e-4 0.002123-0.00146 0.00373-0.00195 0.00586-0.01733 0.073861-0.03947 0.15176-0.07031 0.23242v0.001953c-5.4e-4 0.001429-0.00141 0.002476-0.00196 0.003907-0.01528 0.039578-0.03358 0.080263-0.05273 0.12109-6.4e-4 0.001366-0.00131 0.00254-0.00195 0.003907-0.16078 0.34088-0.46243 0.71951-1.0215 1.0684 0 0-0.00195 0.001953-0.00195 0.001953-0.01093 0.006813-0.02403 0.012743-0.03516 0.019531-0.06038 0.036303-0.1231 0.072061-0.18945 0.10742 0.03472 0.15994 0.05759 0.38776 0.01562 0.67774-0.01398 0.094289-0.03325 0.1948-0.0625 0.30273-7.5e-4 0.002799-0.00119 0.005005-0.00195 0.007813-0.01452 0.053047-0.03195 0.10778-0.05078 0.16406-8.7e-4 0.002623-0.00107 0.005183-0.00195 0.007813-0.03902 0.11568-0.08863 0.23809-0.14844 0.36719-8.9e-4 0.001928-0.00106 0.003928-0.00195 0.00586-0.02987 0.064223-0.062 0.12977-0.09766 0.19726-7.1e-4 0.001342-0.00124 0.002564-0.00195 0.003906-0.00435 0.008206-0.00924 0.017137-0.01368 0.025391-0.06051 0.1123-0.1307 0.23052-0.20898 0.35156-0.01197 0.018601-0.02274 0.035882-0.03516 0.054688-8.3e-4 0.001254-0.00112 0.002652-0.00195 0.003906-0.01389 0.021016-0.03047 0.043182-0.04492 0.064453-0.09009 0.13186-0.18947 0.26662-0.30273 0.4082l-0.03126 0.046876c-0.00303 0.003035-0.09238 0.074548-0.23828 0.19531-0.19312 0.15988-0.50272 0.42494-0.83984 0.72266-0.07639 0.067598-0.15246 0.13676-0.23242 0.20898-0.37502 0.33794-0.77058 0.70364-1.1406 1.0898l-0.57617 0.64648-0.02344 0.058593-0.01172 0.017579-0.01953 0.017578c0.00304-0.0014 0.00672-0.002506 0.00977-0.003907l-0.01172 0.015626c0.20232-0.09871 0.417-0.1945 0.64063-0.28711 0.22392-0.091085 0.45792-0.18102 0.69921-0.26758 0.1941-0.07048 0.39093-0.14029 0.5879-0.20508h0.00195c0.19727-0.064752 0.39609-0.12711 0.58984-0.18555 0.58287-0.17625 1.0935-0.30858 1.5234-0.41602 0.14239-0.035537 0.31136-0.078659 0.42383-0.10547 0.00207-4.94e-4 0.00184-0.001463 0.0039-0.001953 0.22599-0.05385 0.38329-0.088891 0.44727-0.10352 0.2282-0.11089 0.42889-0.22257 0.60547-0.33398 0.08817-0.055581 0.17153-0.11098 0.24804-0.16602 0.07602-0.054715 0.14758-0.11029 0.2129-0.16406 0.05811-0.047882 0.10992-0.095745 0.16015-0.14258 0.00614-0.005732 0.0135-0.011863 0.01953-0.017578l0.00196-0.001953c0.05506-0.052263 0.10625-0.10376 0.15234-0.1543 0 0 0.00195-0.001953 0.00195-0.001953 0.04591-0.050436 0.08723-0.098177 0.125-0.14648l0.00196-0.001954c0.03703-0.047462 0.06968-0.095614 0.09961-0.14062 0.00104-0.001572 0.00287-0.002338 0.0039-0.003907 0.02981-0.04506 0.05468-0.088666 0.07813-0.13086 7.4e-4 -0.00135 0.00121-0.002559 0.00195-0.003906 0.16756-0.30316 0.18164-0.52624 0.18164-0.59766v-0.021484l-0.02148-0.25391v-0.058594l0.14843 0.011719h0.13672c0.16744 0.006073 0.31814 5.3e-5 0.45899-0.011719h0.00195c0.1421-0.010358 0.27521-0.027905 0.39648-0.044922l0.21875-0.058594 0.25977-0.11133 0.31445-0.13086 0.23242-0.16211c0.0734-0.074025 0.13082-0.14665 0.17579-0.21484 0 0 0.00195-0.001953 0.00195-0.001953 0.13326-0.19475 0.15625-0.35294 0.15625-0.37109l0.04883-0.25391 0.24023 0.033203 0.50781 0.035156h0.00196 0.00195c0.09088-1.23e-4 0.18117-0.00575 0.26563-0.013672 0.17052-0.016011 0.32796-0.04628 0.47265-0.087891h0.00195c0.07217-0.020803 0.143-0.044737 0.20899-0.070312 0.13184-0.05121 0.25153-0.11368 0.35937-0.17773h0.00196c0.05344-0.032056 0.1067-0.065912 0.15429-0.09961 0.04887-0.034647 0.0939-0.06825 0.13672-0.10352 0.34062-0.27694 0.4961-0.55546 0.4961-0.56641l0.05273-0.11719 0.01758-0.033203 0.02539 0.003906 0.14648 0.029297c0.25346 0.0123 0.55223 0.037109 0.83008 0.037109h0.00196c0.1507-4e-5 0.29921-0.005768 0.43945-0.013672 0.14013-0.007933 0.27694-0.019602 0.4043-0.033203 0.12722-0.013618 0.24917-0.029783 0.36132-0.046875 0.11197-0.017093 0.21789-0.034358 0.3125-0.052734 0.18929-0.036828 0.34353-0.074702 0.44922-0.10352 0.10403-0.028449 0.16285-0.049568 0.16602-0.052734l0.07226-0.021484h0.00196l0.00976 0.003906 0.04492 0.017578 0.17383 0.023437c0.04131-8.9e-5 0.0848-0.002146 0.12891-0.007812 0.02155-0.002802 0.04427-0.009639 0.0664-0.013672 0.02297-0.004303 0.04675-0.00611 0.07032-0.011719 0.66048-0.15312 1.5313-0.78628 1.9258-1.1211h0.00195c-0.00609-0.15841-0.0422-0.29708-0.10351-0.41992-0.03501-0.073705-0.07486-0.14386-0.12696-0.20508-0.11915-0.13631-0.27341-0.23884-0.4414-0.31836-0.08155-0.03902-0.16751-0.071476-0.25391-0.099609-0.00137-4.42e-4 -0.00254-0.001514-0.00391-0.001953-0.0872-0.028224-0.17464-0.051343-0.26171-0.070313h-0.00196c-0.08637-0.018764-0.1726-0.033481-0.2539-0.044922-0.00136-1.89e-4 -0.00255 1.88e-4 -0.00391 0-0.08172-0.011418-0.15893-0.01957-0.23047-0.02539h-0.00195c-0.0716-0.005795-0.10971-0.003862-0.16602-0.00586-0.05719-0.001998-0.13044-0.0078-0.16797-0.007812h-0.00195-0.11719l-0.02734 0.001953-0.13672 0.009765-0.04687-0.08789-0.03125-0.074219c-0.20869-0.41132-0.46914-0.70014-0.77149-0.85938-0.05993-0.031777-0.12023-0.058715-0.18359-0.080078h-0.00196c-0.06336-0.02126-0.1286-0.038057-0.19531-0.048828h-0.00195c-0.06673-0.010672-0.13509-0.015525-0.20508-0.015625h-0.00195c-0.0565 0-0.1109 0.003434-0.16211 0.009765-0.2714 0.031583-0.46094 0.12891-0.46094 0.12891l-0.21289 0.10742-0.01758 0.007812-0.10547-0.25391c-0.04844-0.11701-0.10921-0.21137-0.18164-0.2832-0.02416-0.023588-0.0492-0.045626-0.07617-0.064453h-0.00195c-0.10775-0.075188-0.23993-0.11297-0.40039-0.11328zm-1.3066 6.3477c-0.71843 0-1.5932 0.27374-2 0.41016-0.00104 3.42e-4 -0.00288 0.001613-0.00391 0.001953-0.13027 0.043757-0.2132 0.073762-0.22266 0.074219l-0.08007 0.044922-0.00196 0.001953c-0.18438 0.10887-0.40928 0.20697-0.67578 0.27734-0.2684 0.07069-0.58192 0.11328-0.95117 0.11328v0.001953c-0.00855 0.061717-0.02273 0.13032-0.04297 0.20508v0.001953c-0.02038 0.074988-0.04779 0.15628-0.08398 0.24219v0.001953c-0.21903 0.51878-0.76445 1.2165-2.0781 1.8555l-0.04492 0.013671s-0.23599 0.054174-0.61133 0.14648c-0.37534 0.092312-0.89011 0.2212-1.4434 0.37109-0.49537 0.14806-1.0327 0.31673-1.5391 0.49805-0.16897 0.060438-0.33511 0.12218-0.49414 0.18555l-0.04883 0.021485 0.68555 0.11719c1.8441 0.40926 3.8744 1.1688 4.4648 1.3809 0.05497 0.020123 0.17134 0.063415 0.19727 0.072266 0.00133 1.91e-4 0.00257-1.9e-4 0.0039 0 0.32101 0.046296 0.62112 0.070204 0.89844 0.070313 0.11332-4.3e-5 0.21986-0.003122 0.32227-0.009766 0.20271-0.012984 0.38421-0.03857 0.54687-0.072266h0.00195c0.08106-0.01684 0.15853-0.035956 0.23047-0.05664 0.14447-0.041702 0.27064-0.090452 0.38086-0.14258 0.55471-0.26063 0.70899-0.60938 0.70899-0.60938l0.09375-0.23633 0.02343-0.050782 0.09766 0.0625 0.15625 0.09961c0.05108 0.037273 0.10184 0.06908 0.15234 0.10352 0.03489 0.023836 0.0689 0.051739 0.10352 0.074219h0.00195c0.08517 0.055183 0.16861 0.10527 0.25196 0.15234 0.08328 0.04707 0.16468 0.089871 0.24609 0.12891 0 0 0.00195 0.001953 0.00195 0.001953 0.40694 0.19517 0.78746 0.28906 1.1348 0.28906h0.05664l0.25586-0.033204 0.24219-0.072265c0.30229-0.10231 0.44922-0.27539 0.44922-0.27539l0.08984-0.11719 0.07812-0.087891 0.17969 0.16016c0.50114 0.42526 1.0081 0.69726 1.5312 0.81641 0.01825 0.004156 0.03641 0.009895 0.05469 0.013671h0.00195c0.01354 0.002787 0.02746 0.003282 0.04102 0.00586 0.16712 0.031802 0.33711 0.050659 0.50781 0.050781 0.08579-6.5e-5 0.17009-0.004512 0.24805-0.011719 0.15625-0.014459 0.29625-0.041321 0.41601-0.072265h0.00196c0.05945-0.015418 0.11479-0.032406 0.16406-0.048828 0.09858-0.032965 0.17777-0.067074 0.23047-0.091797 0.05114-0.024118 0.08008-0.041016 0.08008-0.041016l0.15039-0.080078 0.12695 0.11328c0.75582 0.62319 1.5434 1.0501 2.1406 1.3203 0.14835 0.067307 0.28441 0.12315 0.40625 0.17188 0.00121 4.8e-4 0.00271 0.001474 0.00391 0.001953 0.12062 0.048162 0.22854 0.087912 0.31641 0.11914l0.00195 0.001954c0.17762 0.063513 0.28095 0.092503 0.2832 0.095703l0.07032 0.023437 0.04101 0.033203 0.01172 0.011719c0.03351 0.04052 0.07462 0.079813 0.12109 0.11523h0.00196c0.13865 0.10626 0.33363 0.18945 0.57812 0.25h0.00195c0.081 0.020003 0.16843 0.03772 0.25977 0.052735h0.00195c0.09146 0.014989 0.18592 0.027103 0.28711 0.037109 0.00202 2e-4 0.00384-1.98e-4 0.00586 0 0.10019 0.0098 0.20536 0.018498 0.31446 0.023438 0.11452 0.005277 0.23355 0.007812 0.35742 0.007812 0.49322-6.22e-4 0.93913-0.04813 1.1328-0.072265 0.07559-0.1438 0.12442-0.28485 0.14453-0.42774 0.02132-0.14289 0.01652-0.28761-0.01758-0.4375-0.23115-1.0246-1.61-1.8305-1.627-1.8457h-0.00195l-0.13868-0.082031v-0.17188c0.03977-1.142-0.44304-1.7007-0.88281-1.9727-0.24244-0.1511-0.47505-0.21464-0.59765-0.24024-0.0473-0.009806-0.07589-0.01387-0.08594-0.015625h-0.00391l-0.25195-0.033203 0.0332-0.26562v-0.001953c0.0487-0.31197-0.02521-0.55549-0.17383-0.73828-0.11242-0.13893-0.27783-0.25326-0.48828-0.3418-0.3506-0.14712-0.82784-0.22266-1.4043-0.22266h-0.00196c-0.19957 0-0.37535 0.010142-0.53515 0.023437-0.32686 0.026695-0.56055 0.066406-0.56055 0.066406l-0.39063 0.058594 0.05079-0.19726 0.05273-0.19531c0.0804-0.25346 0.0561-0.43811 0-0.55273-0.0524-0.069475-0.1393-0.12464-0.25781-0.16211-0.05865-0.018735-0.12649-0.03326-0.20117-0.042969-0.07453-0.009708-0.15714-0.015624-0.2461-0.015624-0.26565 0-0.56616 0.04353-0.86914 0.10742-0.45378 0.095693-0.91406 0.24014-1.2578 0.36133-0.34254 0.12081-0.57236 0.21907-0.57422 0.22461l-0.18945 0.080078-0.18946 0.080078 0.00586-0.074219 0.03711-0.36523c0.01225-0.13283 0.01034-0.24357-0.00976-0.33984-0.0096-0.048288-0.02366-0.09195-0.04297-0.13281-0.01928-0.040825-0.04302-0.078549-0.07227-0.11328h-0.00195c-0.14898-0.1725-0.45127-0.2793-0.87695-0.2793zm-23.613 0.005859c-0.42574 0-0.72564 0.09085-0.88672 0.27539-0.02619 0.031682-0.04706 0.066129-0.06446 0.10547-0.06096 0.12395-0.07705 0.27836-0.05078 0.48242l0.04688 0.42188-0.38282-0.1543c-0.00912-0.01148-1.4499-0.60571-2.5156-0.67578-0.07104-0.004983-0.13986-0.007812-0.20703-0.007812-0.02604 0-0.0474 0.002992-0.07227 0.003906-0.05801 0.002194-0.1149 0.004963-0.16601 0.011719-0.01462 0.001954-0.02503 0.007434-0.03907 0.009765-0.05477 0.008986-0.11103 0.018398-0.15625 0.033203-0.05307 0.017525-0.10007 0.038692-0.13867 0.064454-0.04507 0.028268-0.08275 0.060693-0.10742 0.097656-0.0804 0.11454-0.08149 0.29927-0.02539 0.55273l0.10547 0.39258-0.36914-0.068359s-0.51028-0.09375-1.0977-0.09375c-0.92369 0-1.5928 0.21056-1.8828 0.56641-0.00154 0.001797-0.00239 0.004052-0.00391 0.005859-0.0017 0.002063-0.00418 0.003786-0.00586 0.00586-0.15002 0.17107-0.20824 0.39784-0.17578 0.68164 0.0014 0.016181 1e-5 0.030312 0.00196 0.046876l0.00195 0.029296 0.01172 0.23633-0.23242 0.035157c-0.02944 0.005142-0.47903 0.065627-0.88868 0.41211-0.37517 0.31039-0.72021 0.85481-0.68164 1.8242v0.16992l-0.12695 0.074219c-0.00991 0.009912-0.92465 0.5451-1.3984 1.2969-0.11317 0.17636-0.20346 0.36425-0.25195 0.56055-0.06824 0.29979-0.02411 0.57764 0.11719 0.86524 0.20712 0.0245 0.64294 0.072265 1.1523 0.072265 0.85892 0 1.4891-0.13011 1.8086-0.38281 0.04228-0.032294 0.07769-0.067059 0.10938-0.10352l0.05664-0.044922 0.06836-0.02539c0-0.0097 1.651-0.46108 3.1621-1.709l0.12695-0.11328 0.13867 0.080078s0.34682 0.20306 0.88868 0.25391c0.08077 0.008237 0.16511 0.013671 0.2539 0.013671 0.67016 0 1.3314-0.24858 1.9473-0.74414 0.05949-0.047098 0.11914-0.092998 0.17773-0.14453l0.1875-0.16406 0.16016 0.19727c0.01219 0.00976 0.16112 0.18237 0.45117 0.28711l0.25391 0.068359 0.2539 0.03711h0.05469c0.42683 0 0.88837-0.13969 1.3965-0.42578 0.1681-0.092542 0.3404-0.19992 0.51954-0.32422l0.17382-0.125 0.07032-0.048828 0.09179 0.30078c0.0244 0 0.38153 0.88672 2.207 0.88672 0.20798 0 0.43414-0.016929 0.66993-0.042969 0.00443-5.2e-4 0.00922-0.001418 0.01367-0.001953 0.07202-0.008096 0.14024-0.012806 0.21484-0.023438 0.22534-0.076966 1.6066-0.60735 3.1406-1.0566 0.15589-0.045134 0.31459-0.088002 0.47265-0.13086 0.10047-0.027636 0.20015-0.055651 0.30078-0.082031 0.25901-0.066783 0.5177-0.12876 0.77149-0.18359l0.20703-0.039062 0.44336-0.078125-0.00977-0.00586 0.01954-0.003906-0.03711-0.023437c-0.6458-0.25349-1.3712-0.48665-2.0293-0.68164-1.109-0.29978-2.0332-0.51758-2.0332-0.51758l-0.06836-0.013672c-1.7548-0.8433-2.134-1.8138-2.2168-2.3086-0.72633 0-1.2467-0.16348-1.6074-0.39258l-0.10157-0.044922c-0.00969 0-1.2585-0.47266-2.2187-0.47266zm11.105 4.8984-0.39257 0.044922c-2.0307 0.24903-5.0388 1.3912-5.4512 1.5488-0.02793 0.010252-0.14511 0.054011-0.14843 0.054688l-0.00782 0.001953-0.04687 0.011719c-0.3607 0.0464-0.68021 0.070312-0.98242 0.070312-0.58952 0-1.0524-0.082503-1.4121-0.20508-0.59826-0.20431-0.91659-0.51849-1.084-0.74219-0.00202 0.001296-0.00383 0.002613-0.00586 0.003906-9.9e-4 -0.001324-0.00292-0.002588-0.0039-0.003906-0.33885 0.2169-0.66317 0.38363-0.97657 0.5-0.01104 0.004056-0.02218 0.009743-0.0332 0.013672-0.00133 4.8e-4 -0.00257 0.001474-0.0039 0.001953-0.02898 0.010295-0.05716 0.017936-0.08594 0.027344-0.13199 0.043643-0.2647 0.07914-0.39258 0.10352-0.07747 0.014712-0.15639 0.025726-0.23242 0.033203-0.07625 0.007352-0.15196 0.011719-0.22656 0.011719l-0.1504-0.033203 0.00196 0.011719h-0.00391l0.01953 0.10742 0.04102 0.25977 0.11523 0.37109h-0.34375c-0.7165 0-2.6565 0.17371-3.1074 0.9707-0.12666 0.2291-0.1257 0.51914 0.03516 0.86523l0.13867 0.29883-0.28125 0.080078s-0.12245 0.039088-0.31055 0.11328c-0.09448 0.037323-0.20751 0.084818-0.33008 0.14062-0.1228 0.055959-0.25821 0.12284-0.39648 0.19727-0.13885 0.074793-0.28218 0.1586-0.42383 0.25195-0.07067 0.046383-0.14187 0.09553-0.21094 0.14648-0.34742 0.25652-0.66615 0.57167-0.85351 0.94336-0.1609 0.38992-0.20533 0.7844-0.06641 1.2109l0.04492 0.17188 0.00782 0.035156-0.14844 0.11328c-0.00884 0.004563-0.03945 0.024687-0.08398 0.060547-0.31774 0.25102-1.3369 1.2865-0.86133 3.3359l0.02929 0.095703 0.00391 0.019531-0.00586 0.009766-0.07422 0.09375c-0.00976 0.0341-1.7313 2.5993-0.77344 3.8789 0.00289-0.001044 0.00685-0.002847 0.00977-0.003906 8.6e-4 0.001162 0.00108 0.002746 0.00195 0.003906 0.7288-0.2632 2.2945-1.006 2.6309-1.9395l0.02539-0.056641 0.02149-0.023437 0.02148-0.023438h0.00195c7.6e-4 -0.001519 0.04776-0.051253 0.0586-0.0625 0.17304-0.16913 1.3844-1.3765 2.4238-3.4004l0.04101-0.10547 0.0293-0.068359 0.01172 0.001953 0.16015 0.023437 0.14844 0.007813h0.01172c0.05583-3.75e-4 0.12099-0.004202 0.19531-0.013672 0.54851-0.066363 1.5712-0.45079 2.4258-2.2715l0.12696-0.27734 0.21289 0.16211 0.03125 0.025391 0.05664 0.013671 0.33594 0.087891c0.2194 0 0.61116-0.093566 1.0938-0.56641l0.21093-0.21875c0.25106-0.27784 0.51903-0.64582 0.80664-1.1309l0.19727-0.35938 0.05273 0.082032 0.0625 0.11719 0.09375 0.14844c0.00457 0.009138 0.03681 0.058777 0.10547 0.11719 0.10886 0.097999 0.3207 0.22852 0.68946 0.22852 0.5752 0 1.2704-0.30082 2.1113-0.90039 0.2437-0.2779 2.1949-2.4469 3.9473-3.9141l0.7168-0.57617 0.46093-0.31055h0.00196v-0.001953l-0.01758-0.005859-0.03125-0.015626h-0.00781-0.00196zm1.4121 0.003907-0.06054 0.021484 0.46289 0.3125c0.14525 0.1146 0.31651 0.25117 0.48242 0.38281 0.07819 0.06364 0.15561 0.12546 0.23633 0.19531 1.6242 1.3729 3.3933 3.3077 3.8164 3.7793 0.02767 0.031569 0.10266 0.11358 0.11719 0.13086h0.00195c0.20533 0.1505 0.40523 0.28372 0.59766 0.39648h0.00195c0.09569 0.056031 0.18914 0.10759 0.28125 0.1543h0.00196c0.09203 0.046627 0.18132 0.089625 0.26953 0.12695h0.00195c0.08812 0.03724 0.17376 0.069694 0.25781 0.097656h0.00196c0.08396 0.027875 0.16645 0.051693 0.24609 0.070313 0.07984 0.018755 0.15709 0.033595 0.23242 0.042968h0.00195c0.07491 0.00929 0.14866 0.01359 0.21876 0.013672 0.07108-9.8e-5 0.13909-0.004857 0.19921-0.013672 0.05992-0.008886 0.1144-0.021981 0.16407-0.037109 0.16658-0.05131 0.27412-0.13117 0.34179-0.19531 0.04946-0.046543 0.0838-0.085012 0.08789-0.08789l0.06055-0.097656 0.0332-0.052735 0.02149-0.037109 0.08789-0.14258 0.19141 0.33008c0.18504 0.3079 0.35975 0.55566 0.52539 0.77734 0.05262 0.070914 0.10386 0.13832 0.15429 0.20117 0.038 0.047958 0.08143 0.10897 0.11719 0.15234l0.21875 0.2207c0.37294 0.35457 0.675 0.49474 0.9043 0.54297h0.00195c0.07484 0.015585 0.14379 0.021377 0.20313 0.021484 0.06243-1.32e-4 0.1189-0.004955 0.16601-0.013671 0.12641-0.023748 0.19417-0.06775 0.21484-0.083985 0.00229-0.001405 0.01213-7e-3 0.01368-0.007812l0.07226-0.056641 0.14649-0.11133 0.13672 0.26172c0.55254 1.1656 1.1759 1.7429 1.6953 2.0254 0.00134 7.36e-4 0.00256 0.001222 0.0039 0.001953 0.05486 0.029704 0.10981 0.05662 0.16211 0.080078h0.00196c0.05422 0.024264 0.10523 0.046144 0.15625 0.064454h0.00195c0.01616 0.005782 0.03107 0.010388 0.04687 0.015625 0.10026 0.033322 0.18899 0.053404 0.27344 0.068359 0.02844 0.005017 0.06164 0.01419 0.08789 0.017578 0.00113 1.47e-4 0.00278-1.44e-4 0.00391 0 0.00968 0.001224 0.01602 9.28e-4 0.02539 0.001953 0.06669 0.0074 0.12924 0.011719 0.17969 0.011719h0.15429l0.16993-0.035156 0.04296 0.080078 0.04297 0.091797c0.34863 0.68719 0.721 1.2743 1.0703 1.7715 0.19988 0.28549 0.39423 0.54885 0.56836 0.76562 0.11725 0.14583 0.22843 0.276 0.32617 0.38867 0.00136 0.001563 0.00255 0.004303 0.0039 0.005859 0.09691 0.11157 0.18434 0.2079 0.25586 0.28516 0.0265 0.028402 0.02237 0.023253 0.04492 0.046875 0.09912 0.10484 0.18687 0.19625 0.18946 0.20117l0.05664 0.044922 0.01367 0.056641c0.06489 0.17548 0.17191 0.34412 0.30859 0.50391l0.00196 0.001953c0.09069 0.10578 0.19426 0.20712 0.30664 0.30469 0 0 0.00195 0.001953 0.00195 0.001953 0.05593 0.048483 0.11399 0.096323 0.17383 0.14258 0 0 0.00195 0.001953 0.00195 0.001953 0.12051 0.093038 0.24845 0.18046 0.37891 0.26367 0 0 0.00195 0.001953 0.00195 0.001953 0.03354 0.021333 0.06768 0.039903 0.10156 0.060547 0.49565 0.30262 1.0181 0.53208 1.3633 0.65625v-0.001953c0.00294 0.001057 0.00686 0.002864 0.00977 0.003906 0.7184-0.9615-0.07773-2.6447-0.51953-3.4355-0.14607-0.26116-0.25391-0.4256-0.25391-0.43164l-0.04883-0.06836-0.03124-0.048828 0.00195-0.013672 0.0332-0.099609c0.40582-1.7584-0.28629-2.7715-0.69141-3.1816-0.06681-0.06793-0.12548-0.11868-0.16992-0.1543h-0.00195c-0.04453-0.035642-0.07319-0.056272-0.08203-0.060547l-0.14844-0.11328 0.01367-0.066406 0.03907-0.14258c0.13895-0.4265 0.11734-0.81901-0.08008-1.1992-0.0023-0.004694-0.00548-0.008997-0.00782-0.013672-0.57759-1.1894-2.4922-1.7773-2.4922-1.7773l-0.30664-0.089844 0.13086-0.30078v-0.001954c0.12917-0.25881 0.17242-0.48099 0.12304-0.67773-0.0147-0.065539-0.03948-0.12852-0.07422-0.18945-0.33059-0.5882-1.5087-0.83868-2.3789-0.92773h-0.00196c-0.29011-0.029629-0.54607-0.042969-0.7246-0.042969h-0.33985l0.07813-0.26953 0.02929-0.085938 0.01953-0.10938 0.05665-0.26953-0.00977 0.001953 0.00195-0.005859-0.08984 0.02539h-0.00195c-0.01429-5e-5 -0.02869-0.001682-0.04297-0.001953-0.14901-0.002413-0.29916-0.015937-0.44922-0.042969h-0.00195c-0.32973-0.059617-0.66204-0.17822-1.0039-0.34961h-0.00195c-0.16901-0.085739-0.33919-0.18509-0.51172-0.29688l-0.00196 0.001953c-0.00248-0.001577-0.00532-0.002324-0.00781-0.003906-0.13165 0.17792-0.3667 0.41548-0.76367 0.60742 0 0-0.00195 0.001953-0.00195 0.001953-0.15554 0.075031-0.34468 0.13817-0.55274 0.19336-0.07769 0.020607-0.15269 0.041925-0.23828 0.058594-0.27023 0.05257-0.57886 0.085938-0.93555 0.085938h-0.00195-0.00195c-0.30851-9.9e-5 -0.64359-0.014003-0.98828-0.072266l-0.0293-0.00586-0.00781-0.001953c-0.01218-0.00305-0.23494-0.089304-0.59375-0.21875-0.89177-0.3251-2.6473-0.93018-4.1543-1.2402-0.00205-4.26e-4 -0.00381-0.001528-0.00586-0.001953-0.14815-0.030417-0.29329-0.057901-0.43555-0.082031-0.00271-4.7e-4 -0.00509-0.001486-0.00781-0.001953-0.04826-0.008153-0.0932-0.014144-0.14062-0.021485-0.09131-0.014457-0.18387-0.029792-0.27149-0.041015l-0.38086-0.042969zm-0.72265 0.066406c-0.78608 0.65805-1.2576 1.6273-1.4727 2.1582v0.001953c-0.07105 0.17565-0.11389 0.30198-0.13086 0.35352v0.025391l0.17188 5.0449-1.1172 0.73828 0.8418 4.6758-1.3516 0.73828 1.1914 5.2637-1.3516 0.98242 1.4883 6.1641-1.1309 0.55274 0.00391 0.011718-0.00391 0.001954 1.4297 5.6348-1.1172 1.0938 0.00195 0.009766-0.00195 0.001953 1.4414 6.2344h-6.7871s-0.34153 0.14363-0.52539 0.41211l-0.00196 0.001954c-0.01838 0.02686-0.02826 0.058573-0.04297 0.08789-0.01429 0.028726-0.03316 0.054882-0.04297 0.085938v0.001953c-0.01967 0.063016-0.03004 0.13077-0.02539 0.20312v0.001953c0.00489 0.072545 0.02337 0.15081 0.06055 0.23242 0.10418 0.25136 0.65696 0.89393 1.3223 1.5918v0.001953c1.1087 1.1629 2.5314 2.4754 2.7188 2.3672 0.26323-0.1487 0.26306-1.477 0.47265-1.7207 0.1268-0.1731 1.1447 1.362 1.8027 1.7324 0 0 1.1082-0.79701 2.1465-1.4551 1.0261 0.64592 1.7305 1.4551 1.7305 1.4551 0.6703-0.3704 2.1223-1.9284 2.2734-1.7676 0.02163 0.030462 0.04146 0.078773 0.05859 0.13867v0.001953c0.01695 0.059591 0.03257 0.13108 0.04688 0.21094 2.5e-4 0.001399-2.5e-4 0.002503 0 0.003907 0.02861 0.16045 0.05329 0.35118 0.08203 0.54102 3e-4 0.002006-3.1e-4 0.003855 0 0.00586 0.02871 0.18909 0.06244 0.37592 0.10547 0.52539 0.04371 0.15442 0.09664 0.27402 0.16992 0.31836 0.14499 0.074322 1.0848-0.75643 2.0234-1.6855 0.93896-0.92953 1.8774-1.9581 2.0273-2.2871 0.10419-0.25135 0.04694-0.46212-0.06445-0.625-0.18328-0.27146-0.52149-0.41406-0.52149-0.41406h-6.625l1.2676-6.2012-0.00195-0.001953 0.00195-0.009766-1.1191-1.0938 1.4316-5.6348-0.00391-0.001954 0.00391-0.011718-1.1094-0.55274 1.4648-6.1641-1.3359-0.98242 1.1777-5.2637-1.3535-0.73828 0.84375-4.6758-1.1191-0.73828 0.16992-5.0449s-0.02861-0.099599-0.08984-0.26172c-0.1837-0.48976-0.65892-1.5589-1.5254-2.2773zm1.1484 0.95508c0.52691 0.95509 1.0302 2.1577 1.3926 3.0938 0.08259 0.21411 0.16079 0.41404 0.22657 0.5918 0.1574 0.42626 0.26859 0.747 0.30078 0.84961 0.22941 0.37886 0.44686 0.67592 0.65039 0.9082 0.00113 0.001305 0.00277 0.002606 0.0039 0.003907 0.0665 0.075694 0.13411 0.14842 0.19727 0.21094 0 0 0.00195 0.001953 0.00195 0.001953 0.77186 0.76979 1.291 0.59375 1.291 0.59375l0.27734-0.08789 0.04688 0.31055c0.2534 2.1595 1.3057 2.2266 1.3496 2.2266h0.04296l0.1875 0.011719v0.25391c0.03466 1.1971 0.5037 1.8853 0.88868 2.2539 0.26894 0.26018 0.50056 0.36796 0.51953 0.37695l0.0664 0.025391 0.07422 0.035156 0.02344 0.17383c0.078 1.7646 0.68164 3.1513 0.68164 3.1641l0.04297 0.080078-0.00977 0.06836c-0.0585 0.6117 0.79842 1.7296 1.4102 2.3535 0.00302 0.003137 0.00676 0.006652 0.00977 0.009766l0.4746-0.33789 0.05665-0.039062v-0.001954c0.35629-0.51948 0.30751-1.4746 0.23437-1.9551-0.0092-0.069751-0.01849-0.12899-0.02734-0.17773l-0.03125-0.16992 0.11133-0.099609c1.2235-1.0408 0.50925-2.239 0.47265-2.2852l-0.12695-0.23242 0.19531-0.14844h0.00195l0.03516-0.0625 0.29883-0.49414c0.02327-0.39942-0.22011-0.87902-0.51563-1.3066-0.0714-0.1045-0.14574-0.20646-0.2207-0.30273-0.00178-0.002264-0.00408-0.003602-0.00586-0.00586-0.22548-0.28887-0.45017-0.52967-0.59766-0.66992l-0.00976-0.009765-0.29492-0.26953 0.35351-0.16992 0.29883-0.32422c1.1e-4 -0.002439-6e-5 -0.005354 0-0.007813l0.00195-0.001953c0.0195-0.5313-1.2349-1.5351-2.1367-2.0664l-0.34571-0.21094 0.33399-0.24023 0.08398-0.085937 0.01953-0.015626s-0.00195-0.001953-0.00195-0.001953c-0.19499-0.24129-0.40369-0.53282-0.63281-0.88867-0.00173 0.001299-0.00412 0.002605-0.00586 0.003906-0.00106-0.001634-0.00285-0.00227-0.00391-0.003906-0.0862 0.070314-0.20338 0.14187-0.3457 0.19922-0.00912 0.003625-0.01604 0.008221-0.02539 0.011719-0.00147 5.56e-4 -0.00244 0.0014-0.00391 0.001953-0.03814 0.014144-0.07899 0.027419-0.12109 0.039063-0.00143 4e-4 -0.00248 0.001556-0.00391 0.001953-0.12966 0.035482-0.27822 0.05664-0.44922 0.05664-0.6581 0-1.4786-0.34584-2.4023-1.0039l-0.04492-0.046875c-0.01529-0.013722-0.96348-1.0787-2.127-2.2305-0.229-0.22701-0.46666-0.45914-0.70703-0.68555-0.00307-0.002888-0.00669-0.004927-0.00976-0.007813-0.24042-0.22628-0.482-0.44743-0.72266-0.6582-0.0032-0.002793-0.00657-0.005024-0.00977-0.007813-0.03002-0.026268-0.05991-0.050277-0.08984-0.076171-0.08822-0.07615-0.17666-0.15224-0.26367-0.22461-0.12327-0.10282-0.24566-0.20331-0.36524-0.29688zm-2.2773 0.003906c-1.8597 1.4551-4.2486 4.1553-4.2949 4.1895l-0.04883 0.046876c-0.56903 0.41083-1.098 0.70002-1.5801 0.85937-0.28591 0.09436-0.55632 0.14334-0.80859 0.14453-0.013 0-0.02437-0.001708-0.03711-0.001953-0.10273-0.001484-0.19791-0.009809-0.28516-0.025391-0.0013-2.36e-4 -0.0026 2.39e-4 -0.0039 0-0.04745-0.008587-0.09163-0.019411-0.13477-0.03125h-0.00195c-0.04306-0.011872-0.08409-0.026553-0.12305-0.041016h-0.00195c-0.07891-0.029405-0.1496-0.063623-0.21289-0.099609-0.06356-0.036212-0.11801-0.074176-0.16797-0.11133 0 0-0.00195 0.001953-0.00195 0.001953-0.00509 0.008345-0.01055 0.015165-0.01563 0.023438-0.10247 0.16684-0.2032 0.3213-0.30273 0.46094l-0.00196 0.001953c-0.10663 0.14715-0.21333 0.27975-0.32422 0.40039l0.0625 0.048828 0.05469 0.052734 0.33789 0.23828-0.36328 0.21484c-0.8872 0.5289-2.1474 1.5356-2.123 2.0645l0.00196 0.001953c5e-5 0.002555-0.00207 0.00528-0.00196 0.007813l0.30079 0.32422 0.34961 0.16992-0.28126 0.27148c-0.36785 0.345-1.2741 1.3605-1.3457 2.1348-1.8e-4 0.001878 1.7e-4 0.003983 0 0.005859-0.00431 0.049553-0.00488 0.099173-0.00195 0.14648 1.3e-4 0.002521-1.6e-4 0.005299 0 0.007813l0.08398 0.14258 0.23438 0.41406 0.10156 0.0625 0.11523 0.083985-0.14648 0.22266c-0.01371 0.036563-0.30203 0.51927-0.21875 1.127v0.001953c0.00157 0.0116 0.00597 0.023466 0.00781 0.035157 0.00788 0.048957 0.01616 0.10009 0.0293 0.15039 0.01634 0.06219 0.03697 0.12578 0.0625 0.18945v0.001953c0.1032 0.25938 0.28592 0.52949 0.5918 0.78906l0.11523 0.10352-0.02344 0.16406c-0.00457 0.003675-0.04556 0.20263-0.07031 0.48828-3.2e-4 0.003608 3.2e-4 0.00613 0 0.009766-0.00801 0.094438-0.01523 0.1976-0.01758 0.30664v0.001953c-1.6e-4 0.007495 1.3e-4 0.015892 0 0.023437-0.00433 0.26848 0.01539 0.56693 0.08594 0.83984v0.001953c0.01453 0.055997 0.03167 0.11075 0.05078 0.16406v0.001953c0.00567 0.015569 0.01344 0.029645 0.01953 0.044922 0.03538 0.089858 0.07569 0.17676 0.12696 0.25391l0.21484 0.14844 0.31836 0.22852c0.58816-0.59734 1.38-1.6167 1.4199-2.2441 0.00305-0.038635 0.00269-0.073839 0-0.10938v-0.009765-0.06836-0.001953l0.01172-0.068359c0.00916-0.00916 0.36237-0.80062 0.57227-1.9414 0.03488-0.18834 0.06705-0.38636 0.09179-0.5918v-0.001953c0.02478-0.20615 0.04269-0.41932 0.05274-0.63867v-0.001953l0.00195-0.029297 0.01172-0.14453 0.13672-0.058593c0.05848-0.021993 1.361-0.61199 1.3984-2.6309v-0.001953-0.26367h0.24023c0.00579 0 0.02891 2.26e-4 0.0625-0.005859 0.10128-0.018579 0.31133-0.084545 0.53516-0.29883 0.03714-0.035604 0.07575-0.074776 0.11328-0.11914v-0.001953c0.03753-0.044457 0.07622-0.092293 0.11328-0.14648v-0.001953c0.03736-0.054733 0.07339-0.11407 0.10937-0.17969 0.07198-0.13125 0.13994-0.286 0.20118-0.4668 0.03061-0.090343 0.05931-0.18683 0.08593-0.29102 0.05324-0.20853 0.09887-0.44492 0.13086-0.71484l0.04297-0.32227 0.04688 0.015625 0.23437 0.083985s0.44117 0.13724 1.1113-0.42969c0.24369-0.20485 0.5165-0.50508 0.81055-0.9375 0.07322-0.10777 0.14905-0.2227 0.22461-0.34766v-0.001953c0.1048-0.3241 0.98009-2.8309 1.916-4.5273-0.00319 0.002497-0.00657 0.005308-0.00977 0.007813 0.00313-0.005679 0.00665-0.011918 0.00977-0.017579zm-33.068 38.004c-2.7789-0.029624-5.5884 0.34216-8.1894 1.3125 0 0 0.17378-0.015034 0.50586-0.021485 0.33175-0.00676 0.82071-0.00472 1.4551 0.027344 8.5e-4 4.3e-5 0.0011-4.4e-5 0.00195 0 0.02226 0.001127 0.0516 0.004656 0.07422 0.005859 2.5572 0.13771 7.3649 0.77115 13.523 3.3203 0.77484 0.32092 1.571 0.67026 2.3867 1.0547 0.81453 0.38362 1.6485 0.80141 2.5 1.2539 0.00399 0.00212 0.00773 0.003738 0.01172 0.005859 0.00133 7.07e-4 0.00258 0.001246 0.00391 0.001953 0.85407 0.45443 1.7255 0.94516 2.6133 1.4746 0.88919 0.53004 1.7937 1.0981 2.7129 1.709 4.6991 3.1274 9.3274 6.8114 13.254 10.16-1.098 1.0102-2.2037 2.0606-3.3106 3.1543-1.1064 1.0919-2.2152 2.2271-3.3223 3.4082l-0.20312-0.20117h-0.00977-0.4414-0.00977l-0.08008 0.29883-0.33593-0.46289c0.21936-0.5069 0.05728-1.1516-0.42774-1.5684-0.15093-0.13359-0.31806-0.2327-0.49219-0.29883-0.03087-0.01198-0.0625-0.01752-0.09375-0.02734-0.48846-0.15349-1.0151-0.04835-1.3398 0.32617-0.06125 0.06849-0.10983 0.14258-0.15234 0.2207-0.04088 0.07513-0.07388 0.15297-0.09766 0.23438-0.04781 0.16368-0.06098 0.33638-0.04102 0.50976 0.03991 0.34653 0.21191 0.69337 0.51172 0.95313 0.09812 0.08671 0.20146 0.159 0.3086 0.21679 0.21426 0.1156 0.44262 0.17308 0.66601 0.17579 0.1117 0.00135 0.22089-0.01093 0.32813-0.03711 0.29979 0.47527 0.11719 0.94726 0.11719 0.94726-0.14792 0.32563-0.41414 0.64375-0.76368 0.93555-0.17533 0.14637-0.37236 0.28635-0.58398 0.41797-0.84316 0.52438-1.9351 0.91575-2.9727 1.041-0.25843 0.0312-0.51487 0.0448-0.76172 0.04102-0.19403-0.00123-0.38001-0.00977-0.56054-0.02734-0.06164-0.00608-0.11929-0.01914-0.17969-0.02735-1.1578-0.15735-2.1055-0.70963-3.3926-1.9785-0.55525-0.55529-1.0883-0.76066-1.5586-0.78125-0.47027-0.0206-0.8788 0.14431-1.1836 0.33007-0.36575 0.22292-0.58203 0.47657-0.58203 0.47657-0.15446 0.22149-0.2808 0.44186-0.3789 0.66015-0.09807 0.21829-0.16866 0.43279-0.21485 0.64649-1.2e-4 5.8e-4 1.3e-4 0.00137 0 0.00195-0.0459 0.21303-0.06772 0.42377-0.0664 0.63086 1.4e-4 0.02189 0.00716 0.04264 0.00781 0.06445 0.06016 2.0518 2.3181 3.7686 4.6641 4.4785 0.47364 0.14333 0.95124 0.24708 1.4141 0.30273 0.23153 0.02821 0.4594 0.04457 0.68164 0.04883 4.3042 0.0926 8.2307-2.5738 9.2227-3.7754 0.36572-0.41116 0.63232-0.59531 0.96094-0.42773 0.17652 0.07664 0.2957 0.35406 0.35547 0.63086 0.00295 0.01365 0.00908 0.02542 0.01172 0.03906 1e-4 6.2e-4 -1.1e-4 0.00133 0 0.00195-7e-5 6.5e-4 6e-5 0.00131 0 0.00195-0.0546 0.45944 0.11851 0.93224 0.51953 1.2774 0.22334 0.20148 0.48588 0.32464 0.75195 0.37305 0.02863 0.0052 0.05728 0.00438 0.08594 0.00781 0.40875 0.05211 0.81831-0.07058 1.1016-0.38086 0.40307-0.47338 0.3822-1.1874-0.03906-1.7129-5.6e-4 -7e-4 -0.00139-0.00125-0.00195-0.00196-0.00224-0.00282-0.00556-0.00499-0.00782-0.00781-0.0581-0.07121-0.12241-0.1401-0.19531-0.20312-3.6e-4 -3.2e-4 3.6e-4 -0.00164 0-0.00196-0.31201-0.2754-0.71399-0.41447-1.082-0.39257h-0.00195l-0.11329-0.03516 0.125-0.0918v-0.43945l-0.49414-0.48438c0.4497-0.44355 1.318-1.2911 2.5156-2.4238 0.59896-0.56624 1.2782-1.2052 2.0312-1.8984 3.3e-4 -3e-4 0.00162 3e-4 0.00195 0 0.75255-0.69281 1.5763-1.4426 2.4609-2.2324 1.771 1.581 3.2993 2.9986 4.4961 4.1309 1.1973 1.1327 2.0618 1.9802 2.5078 2.4238l-0.48633 0.48438v0.43945l0.13867 0.0918-0.12695 0.03516c-0.36804-0.02194-0.77201 0.11717-1.084 0.39257-3.6e-4 3.2e-4 3.7e-4 0.00164 0 0.00196-0.0761 0.06578-0.14513 0.13627-0.20508 0.21093-0.24062 0.30115-0.34989 0.66227-0.32226 1.0039 1e-4 0.00129-1.1e-4 0.00262 0 0.00391 0.02072 0.25753 0.1176 0.50412 0.29492 0.70703 0.28944 0.33208 0.7406 0.45607 1.1816 0.37305 0.26463-0.04982 0.52492-0.1738 0.74609-0.37305 0.38022-0.33394 0.57804-0.81865 0.51954-1.2793 0.02924-0.14502 0.07175-0.2928 0.13085-0.41406 0.05911-0.12126 0.13396-0.21566 0.22657-0.25586 0.33393-0.17303 0.60022 0.01143 0.9707 0.42578 0.12553 0.1502 0.29622 0.32235 0.50781 0.50977 1.4804 1.3141 4.9517 3.3468 8.7402 3.2656 0.22085-0.00426 0.44578-0.02076 0.67578-0.04883 0.23129-0.02836 0.46678-0.06798 0.70312-0.11914 2.5908-0.55859 5.3431-2.4396 5.3652-4.7246 0-6.3e-4 -1e-5 -0.00132 0-0.00195 2.2e-4 -0.0205-0.00564-0.04194-0.00586-0.0625-0.00409-0.32788-0.07581-0.66453-0.20117-1.0059-0.02607-0.07097-0.03661-0.14148-0.06836-0.21289-0.09686-0.21828-0.22011-0.43672-0.37305-0.6582 0 0-0.09811-0.11241-0.27148-0.25391-0.17267-0.14092-0.42134-0.30998-0.72461-0.42383-0.00184-6.9e-4 -0.00402-0.00126-0.00586-0.00195-0.15022-0.05614-0.31388-0.09795-0.48828-0.11719-0.07874-0.00868-0.15927-0.00961-0.24219-0.00781-0.01334 2.9e-4 -0.02562-0.00254-0.03906-0.00195-0.47009 0.02059-1.0013 0.226-1.5527 0.78125-1.3542 1.335-2.3373 1.8837-3.5742 2.0059-0.17356 0.01714-0.35377 0.02597-0.53906 0.02734-0.25104 0.00426-0.50935-0.00988-0.77148-0.04102-0.20063-0.02383-0.40326-0.06499-0.60547-0.10742-0.0646-0.01355-0.12889-0.01983-0.19336-0.03515-0.52477-0.12476-1.0431-0.30737-1.5176-0.53125-0.00188-8.9e-4 -0.00398-0.00107-0.00586-0.00196-0.951-0.44976-1.7252-1.0661-2.0195-1.7168 0 0-0.17238-0.47395 0.11523-0.94922 0.10725 0.0262 0.21935 0.03851 0.33203 0.03711 0.01298-1.8e-4 0.02606-0.00531 0.03907-0.00586 0.21216-0.00897 0.42767-0.06136 0.6289-0.16993 7.8e-4 -4.1e-4 0.00118-0.00153 0.00196-0.00195 0.10689-0.05777 0.20902-0.12832 0.30468-0.21484 0.19897-0.17595 0.33938-0.39295 0.42579-0.6211 0.00944-0.02492 0.02321-0.04901 0.03125-0.07421 1.9e-4 -6.2e-4 -2e-4 -0.00134 0-0.00196 0.02676-0.08428 0.04581-0.17012 0.05664-0.25586 1.6e-4 -0.0013-1.7e-4 -0.0026 0-0.0039 0.04363-0.34511-0.04277-0.69062-0.27344-0.94922-0.00289-0.00317-0.00685-0.00469-0.00977-0.00781-9.4e-4 -0.00102-1e-3 -0.0029-0.00195-0.00391-0.36112-0.39757-0.92448-0.49625-1.4414-0.29883-0.17389 0.06641-0.3421 0.16509-0.49609 0.29883-0.23645 0.2084-0.39577 0.47307-0.4707 0.75-0.07618 0.27693-0.06746 0.56488 0.03125 0.81836l-0.32227 0.45898-0.0918-0.29492h-0.00195-0.43945l-0.21289 0.20117c-1.107-1.1811-2.2161-2.3163-3.3223-3.4082-1.108-1.0937-2.213-2.144-3.3086-3.1543 1.9622-1.6746 4.1009-3.4338 6.3359-5.1641 2.235-1.7302 4.5665-3.4326 6.916-4.9961 11.03-7.3246 20.016-8.6309 23.818-8.8262 0.63381-0.032541 1.1237-0.033794 1.4551-0.027344 0.33052 0.006734 0.50258 0.021372 0.50391 0.021485-0.51886-0.19385-1.0464-0.36408-1.5801-0.51172-6.1e-4 -1.69e-4 -0.00135 1.69e-4 -0.00196 0-0.53369-0.14759-1.0725-0.27437-1.6172-0.37891-6.4e-4 -1.21e-4 -0.00133 1.21e-4 -0.00196 0-0.54469-0.10448-1.0946-0.18738-1.6465-0.25195-6.5e-4 -7.6e-5 -0.00131 7.5e-5 -0.00195 0-0.55189-0.064531-1.1069-0.1109-1.6621-0.13867-6.5e-4 -3.3e-5 -0.00131 3.2e-5 -0.00196 0-2.2235-0.11106-4.458 0.059928-6.582 0.41211-4.2485 0.70286-8.0521 2.1275-10.43 3.4668-3.3945 1.9177-10.665 6.408-18.857 13.426-2.6598-2.2785-5.2019-4.2605-7.5664-6.0039-4.9175-3.6284-9-6.1264-11.293-7.4219-2.3775-1.3393-6.1802-2.7639-10.43-3.4668-1.5936-0.26414-3.2506-0.42558-4.918-0.44336z" fill="#fff"/>
</svg>
